<svg width="22" height="22" viewBox="0 0 22 22" fill="none" xmlns="http://www.w3.org/2000/svg">
<path d="M20.3543 13.27L19.9543 18.27C19.8043 19.8 19.6843 20.97 16.9743 20.97H4.39434C1.68434 20.97 1.56434 19.8 1.41434 18.27L1.01434 13.27C0.934337 12.44 1.19434 11.67 1.66434 11.08C1.67434 11.07 1.67434 11.07 1.68434 11.06C2.23434 10.39 3.06434 9.96997 3.99434 9.96997H17.3743C18.3043 9.96997 19.1243 10.39 19.6643 11.04C19.6743 11.05 19.6843 11.06 19.6843 11.07C20.1743 11.66 20.4443 12.43 20.3543 13.27Z" stroke="#888888" strokeWidth="1.5" stroke-miterlimit="10"/>
<path d="M2.18433 10.4V5.25C2.18433 1.85 3.03433 1 6.43433 1H7.70433C8.97433 1 9.26433 1.38 9.74433 2.02L11.0143 3.72C11.3343 4.14 11.5243 4.4 12.3743 4.4H14.9243C18.3243 4.4 19.1743 5.25 19.1743 8.65V10.44" stroke="#888888" strokeWidth="1.5" stroke-miterlimit="10" strokeLinecap="round" strokeLinejoin="round"/>
<path d="M8.11426 15.97H13.2543" stroke="#888888" strokeWidth="1.5" stroke-miterlimit="10" strokeLinecap="round" strokeLinejoin="round"/>
</svg>
