<svg width="26" height="26" viewBox="0 0 26 26" fill="none" xmlns="http://www.w3.org/2000/svg">
<g opacity="0.3">
<path d="M15.1927 10.8075L10.8073 15.1928C10.244 14.6295 9.89734 13.8581 9.89734 13.0001C9.89734 11.2841 11.284 9.89746 13 9.89746C13.858 9.89746 14.6293 10.2441 15.1927 10.8075Z" stroke="none" stroke-width="1.5" stroke-linecap="round" stroke-linejoin="round"/>
<path d="M18.044 7.60076C16.5273 6.45676 14.794 5.83276 13 5.83276C9.94065 5.83276 7.08932 7.63543 5.10465 10.7554C4.32465 11.9774 4.32465 14.0314 5.10465 15.2534C5.78932 16.3281 6.58665 17.2554 7.45332 18.0008" stroke="none" stroke-width="1.5" stroke-linecap="round" stroke-linejoin="round"/>
<path d="M9.89734 19.526C10.8853 19.942 11.934 20.1673 13 20.1673C16.0593 20.1673 18.9107 18.3647 20.8953 15.2447C21.6753 14.0227 21.6753 11.9687 20.8953 10.7467C20.6093 10.296 20.2973 9.87132 19.9767 9.47266" stroke="none" stroke-width="1.5" stroke-linecap="round" stroke-linejoin="round"/>
<path d="M16.042 13.6067C15.8167 14.8287 14.82 15.8254 13.598 16.0507" stroke="none" stroke-width="1.5" stroke-linecap="round" stroke-linejoin="round"/>
<path d="M10.8073 15.1929L4.33325 21.6669" stroke="none" stroke-width="1.5" stroke-linecap="round" stroke-linejoin="round"/>
<path d="M21.6666 4.3335L15.1926 10.8075" stroke="none" stroke-width="1.5" stroke-linecap="round" stroke-linejoin="round"/>
</g>
</svg>
