<svg width="21" height="21" viewBox="0 0 21 21" fill="none" xmlns="http://www.w3.org/2000/svg">
<path d="M13.5027 10.4C13.5027 12.116 12.116 13.5027 10.4 13.5027C8.68403 13.5027 7.29736 12.116 7.29736 10.4C7.29736 8.68403 8.68403 7.29736 10.4 7.29736C12.116 7.29736 13.5027 8.68403 13.5027 10.4Z" stroke="none" stroke-width="1.5" stroke-linecap="round" stroke-linejoin="round"/>
<path d="M10.4 17.5675C13.4593 17.5675 16.3107 15.7648 18.2953 12.6448C19.0753 11.4228 19.0753 9.36879 18.2953 8.14679C16.3107 5.02679 13.4593 3.22412 10.4 3.22412C7.34068 3.22412 4.48934 5.02679 2.50468 8.14679C1.72468 9.36879 1.72468 11.4228 2.50468 12.6448C4.48934 15.7648 7.34068 17.5675 10.4 17.5675Z" stroke="none" stroke-width="1.5" stroke-linecap="round" stroke-linejoin="round"/>
</svg>
