<svg width="668" height="668" viewBox="0 0 668 668" fill="none" xmlns="http://www.w3.org/2000/svg">
<path d="M20.6667 334C20.6667 160.949 160.951 20.6667 334 20.6667C507.051 20.6667 647.333 160.949 647.333 334C647.333 507.049 507.051 647.333 334 647.333C160.951 647.333 20.6667 507.049 20.6667 334ZM47.3334 334C47.3334 492.085 175.915 620.667 334 620.667C492.088 620.667 620.667 492.085 620.667 334C620.667 175.915 492.088 47.3334 334 47.3334C175.915 47.3334 47.3334 175.915 47.3334 334ZM355.74 200.667C355.74 213.843 347.044 222.333 334.339 222.333C326.808 222.333 321.595 219.761 318.29 216.426C314.966 213.072 312.406 207.766 312.406 200.204C312.406 187.84 320.817 179 334.339 179C347.034 179 355.74 187.513 355.74 200.667ZM320.74 320.667H347.406V480.667H320.74V320.667Z" stroke="#none" stroke-width="40"/>
</svg>
