<svg width="24" height="24" viewBox="0 0 24 24" fill="none" xmlns="http://www.w3.org/2000/svg">
<path fill-rule="evenodd" clip-rule="evenodd" d="M10.2903 1.97853C10.8306 1.86416 11.1759 1.33344 11.0615 0.793126C10.9471 0.252812 10.4164 -0.0924862 9.87611 0.0218801C4.1266 1.23886 0.0183021 6.96214 1.01441 13.3833L1.01479 13.3857C1.77988 18.2407 5.54421 22.1768 10.2791 22.9685C16.5802 24.0306 22.0742 19.6697 23.2198 13.749C23.3247 13.2067 22.9702 12.6821 22.428 12.5772C21.8858 12.4723 21.3612 12.8268 21.2562 13.369C20.2969 18.3272 15.741 21.861 10.6116 20.9964L10.6101 20.9961C6.76754 20.3541 3.62919 17.1247 2.99059 13.0755C2.15399 7.6786 5.60553 2.97013 10.2903 1.97853ZM17.5268 0.429796C15.644 -0.121246 14.0199 -0.222386 12.8689 0.606019C11.6991 1.4479 11.4288 2.94787 11.4288 4.45085V7.69223C11.4288 9.17266 11.7274 10.4364 12.53 11.3272C13.3538 12.2417 14.5246 12.5639 15.8053 12.5639H19.5419C21.0448 12.5639 22.5448 12.2936 23.3867 11.1238C24.2151 9.9728 24.1139 8.34865 23.5629 6.46593L23.5625 6.46466C22.735 3.65117 20.3415 1.25767 17.528 0.430167L17.5268 0.429796ZM13.4288 4.45085C13.4288 3.02757 13.7213 2.45665 14.0371 2.22932C14.3717 1.98854 15.1559 1.81989 16.9644 2.34909C19.125 2.98485 21.0079 4.86769 21.6436 7.02834C22.1728 8.83676 22.0042 9.62101 21.7634 9.95556C21.5361 10.2714 20.9651 10.5639 19.5419 10.5639H15.8053C14.835 10.5639 14.3175 10.3233 14.0159 9.98855C13.693 9.63012 13.4288 8.95799 13.4288 7.69223V4.45085Z" fill="#868B90"/>
</svg>
