<svg width="20" height="22" viewBox="0 0 20 22" fill="none" xmlns="http://www.w3.org/2000/svg">
<path fill-rule="evenodd" clip-rule="evenodd" d="M1.90039 5.97297C1.90039 4.65465 2.23008 3.67061 2.83468 3.01951C3.42994 2.37846 4.39882 1.94531 5.92805 1.94531H13.5723C15.1015 1.94531 16.0704 2.37846 16.6657 3.01951C17.2703 3.67061 17.6 4.65465 17.6 5.97297V15.5283C17.6 16.8466 17.2703 17.8307 16.6657 18.4818C16.0704 19.1228 15.1015 19.556 13.5723 19.556H5.92805C4.39882 19.556 3.42994 19.1228 2.83468 18.4818C2.23008 17.8307 1.90039 16.8466 1.90039 15.5283V5.97297ZM5.92805 0.445312C4.11292 0.445312 2.69297 0.967694 1.73549 1.99883C0.787349 3.01991 0.400391 4.42471 0.400391 5.97297V15.5283C0.400391 17.0766 0.787349 18.4814 1.73549 19.5024C2.69297 20.5336 4.11292 21.056 5.92805 21.056H13.5723C15.3874 21.056 16.8074 20.5336 17.7649 19.5024C18.713 18.4814 19.1 17.0766 19.1 15.5283V5.97297C19.1 4.42471 18.713 3.01991 17.7649 1.99883C16.8074 0.967694 15.3874 0.445312 13.5723 0.445312H5.92805ZM12.8896 3.58411C12.8896 3.16989 12.5539 2.83411 12.1396 2.83411C11.7254 2.83411 11.3896 3.16989 11.3896 3.58411V5.49517C11.3896 6.96047 12.5854 8.15624 14.0507 8.15624H15.9618C16.376 8.15624 16.7118 7.82045 16.7118 7.40624C16.7118 6.99202 16.376 6.65624 15.9618 6.65624H14.0507C13.4138 6.65624 12.8896 6.13204 12.8896 5.49517V3.58411ZM5.17794 11.7062C5.17794 11.292 5.51373 10.9562 5.92794 10.9562H9.75007C10.1643 10.9562 10.5001 11.292 10.5001 11.7062C10.5001 12.1204 10.1643 12.4562 9.75007 12.4562H5.92794C5.51373 12.4562 5.17794 12.1204 5.17794 11.7062ZM5.92794 14.7783C5.51373 14.7783 5.17794 15.1141 5.17794 15.5283C5.17794 15.9425 5.51373 16.2783 5.92794 16.2783H13.5722C13.9864 16.2783 14.3222 15.9425 14.3222 15.5283C14.3222 15.1141 13.9864 14.7783 13.5722 14.7783H5.92794Z" fill="#868B90"/>
</svg>
