<svg width="24" height="26" viewBox="0 0 24 26" fill="none" xmlns="http://www.w3.org/2000/svg">
<path fill-rule="evenodd" clip-rule="evenodd" d="M6.76258 4.42308C6.76258 4.90667 7.1636 5.30769 7.64719 5.30769C8.13078 5.30769 8.53181 4.90667 8.53181 4.42308V3.53846H16.1982V4.42308C16.1982 4.90667 16.5993 5.30769 17.0829 5.30769C17.5664 5.30769 17.9675 4.90667 17.9675 4.42308V3.57989C20.6858 3.84803 22.0393 5.4201 22.0943 8.36252H2.63621C2.69117 5.42025 4.0445 3.84819 6.76258 3.57993V4.42308ZM8.53181 1.76923V0.884615C8.53181 0.401026 8.13078 0 7.64719 0C7.1636 0 6.76258 0.401026 6.76258 0.884615V1.80608C3.00459 2.12828 0.865234 4.55025 0.865234 8.55128V18.5769C0.865234 22.8821 3.34216 25.359 7.64729 25.359H17.0832C21.3883 25.359 23.8652 22.8821 23.8652 18.5769V8.55128C23.8652 4.55011 21.7257 2.1281 17.9675 1.80604V0.884615C17.9675 0.401026 17.5664 0 17.0829 0C16.5993 0 16.1982 0.401026 16.1982 0.884615V1.76923H8.53181ZM2.63447 10.1317V18.5769C2.63447 21.9503 4.27395 23.5897 7.64729 23.5897H17.0832C20.4565 23.5897 22.096 21.9503 22.096 18.5769V10.1317H2.63447ZM8.2371 15.6282C8.08377 15.6282 7.93044 15.5928 7.7889 15.5339C7.63556 15.4749 7.51762 15.3923 7.39967 15.2861C7.18736 15.062 7.05762 14.7672 7.05762 14.4487C7.05762 14.2954 7.093 14.142 7.15198 14.0005C7.21095 13.859 7.29352 13.7292 7.39967 13.6113C7.51762 13.5051 7.63556 13.4225 7.7889 13.3636C8.21351 13.1866 8.74428 13.281 9.07454 13.6113C9.28685 13.8354 9.41659 14.142 9.41659 14.4487C9.41659 14.5195 9.4048 14.6021 9.393 14.6846C9.38121 14.7554 9.35762 14.8261 9.32223 14.8969C9.29864 14.9677 9.26326 15.0384 9.21608 15.1092C9.19251 15.1485 9.15845 15.1878 9.12439 15.2271L9.12439 15.2271L9.12438 15.2271L9.12437 15.2271L9.12437 15.2271L9.12436 15.2271L9.12436 15.2271L9.12435 15.2271C9.10731 15.2468 9.09027 15.2665 9.07454 15.2861C8.85044 15.4984 8.54377 15.6282 8.2371 15.6282ZM11.9178 15.5339C12.0593 15.5928 12.2126 15.6282 12.366 15.6282C12.6726 15.6282 12.9793 15.4984 13.2034 15.2861C13.2191 15.2665 13.2362 15.2468 13.2532 15.2272L13.2532 15.2271L13.2532 15.2271L13.2532 15.2271L13.2532 15.2271L13.2532 15.2271L13.2533 15.2271C13.2873 15.1878 13.3214 15.1485 13.3449 15.1092C13.3921 15.0385 13.4275 14.9677 13.4511 14.8969C13.4865 14.8262 13.5101 14.7554 13.5219 14.6846C13.5337 14.6021 13.5455 14.5195 13.5455 14.4487C13.5455 14.142 13.4157 13.8354 13.2034 13.6113C12.8731 13.281 12.3424 13.1748 11.9178 13.3636C11.7644 13.4225 11.6465 13.5051 11.5285 13.6113C11.4224 13.7292 11.3398 13.859 11.2808 14.0005C11.2219 14.142 11.1865 14.2954 11.1865 14.4487C11.1865 14.7672 11.3162 15.062 11.5285 15.2861C11.6465 15.3923 11.7644 15.4749 11.9178 15.5339ZM16.493 15.6282C16.3396 15.6282 16.1863 15.5928 16.0448 15.5339C15.8914 15.4749 15.7735 15.3923 15.6555 15.2861L15.514 15.1092C15.4668 15.0385 15.4314 14.9677 15.4078 14.8969C15.3725 14.8262 15.3489 14.7554 15.3371 14.6846C15.3253 14.6021 15.3135 14.5195 15.3135 14.4487C15.3135 14.142 15.4432 13.8354 15.6555 13.6113C15.7735 13.5051 15.8914 13.4225 16.0448 13.3636C16.4812 13.1749 17.0001 13.281 17.3304 13.6113C17.5427 13.8354 17.6725 14.142 17.6725 14.4487C17.6725 14.5195 17.6607 14.602 17.6489 14.6846L17.6489 14.6846C17.6371 14.7554 17.6135 14.8262 17.5781 14.8969C17.5545 14.9677 17.5191 15.0385 17.4719 15.1092C17.4484 15.1485 17.4143 15.1878 17.3802 15.2271L17.3802 15.2272L17.3801 15.2272L17.3801 15.2273L17.3801 15.2273L17.38 15.2274C17.363 15.247 17.3461 15.2666 17.3304 15.2861C17.1063 15.4984 16.7996 15.6282 16.493 15.6282ZM7.7889 19.6621C7.93044 19.721 8.08377 19.7564 8.2371 19.7564C8.54377 19.7564 8.85044 19.6267 9.07454 19.4144C9.28685 19.1903 9.41659 18.8836 9.41659 18.5769C9.41659 18.2703 9.28685 17.9636 9.07454 17.7395C8.63813 17.3031 7.83608 17.3031 7.39967 17.7395C7.29352 17.8457 7.21095 17.9754 7.15198 18.1287C7.093 18.2703 7.05762 18.4236 7.05762 18.5769C7.05762 18.8836 7.18736 19.1903 7.39967 19.4144C7.51762 19.5205 7.64736 19.6031 7.7889 19.6621ZM12.366 19.7564C12.0593 19.7564 11.7526 19.6267 11.5285 19.4144C11.3162 19.1903 11.1865 18.8836 11.1865 18.5769C11.1865 18.4236 11.2219 18.2703 11.2808 18.1287C11.3398 17.9754 11.4224 17.8457 11.5285 17.7395C11.9649 17.3031 12.767 17.3031 13.2034 17.7395C13.3096 17.8457 13.3921 17.9754 13.4511 18.1287C13.5101 18.2703 13.5455 18.4236 13.5455 18.5769C13.5455 18.8836 13.4157 19.1903 13.2034 19.4144C12.9793 19.6267 12.6726 19.7564 12.366 19.7564ZM15.6555 19.4144C15.8796 19.6267 16.1863 19.7565 16.493 19.7565C16.7996 19.7565 17.1063 19.6267 17.3304 19.4144C17.5427 19.1903 17.6725 18.8836 17.6725 18.577C17.6725 18.2703 17.5427 17.9636 17.3304 17.7395C17.3107 17.7238 17.2911 17.7068 17.2714 17.6897C17.2321 17.6557 17.1928 17.6216 17.1535 17.598C17.0827 17.5508 17.0119 17.5154 16.9412 17.4918C16.8704 17.4564 16.7996 17.4328 16.7171 17.4211C16.3396 17.3385 15.9268 17.4683 15.6555 17.7395C15.5494 17.8457 15.4668 17.9754 15.4078 18.1288C15.3489 18.2703 15.3135 18.4236 15.3135 18.577C15.3135 18.7303 15.3489 18.8836 15.4078 19.0252C15.4668 19.1785 15.5494 19.3082 15.6555 19.4144Z" fill="#868B90"/>
</svg>
