<svg width="800" height="800" viewBox="100 100 600 600" fill="none" xmlns="http://www.w3.org/2000/svg">
<path d="M227.748 472.401C200.816 466.722 176.51 451.931 158.909 429.968L227.748 472.401ZM227.748 472.401V475.001H252.748H262.747H303.204L285.106 438.817L192.541 253.755C192.541 253.754 192.54 253.754 192.54 253.753C192.539 253.752 192.539 253.75 192.538 253.749C191.266 251.198 191.386 248.115 192.897 245.635C194.476 243.128 197.173 241.665 200.014 241.665H226.647H272.791L247.589 203.011L225.856 169.678L218.458 158.332H204.914H82.3801H45.5909L59.1364 192.537L141.071 399.437L141.109 399.531L141.147 399.625C145.522 410.417 151.465 420.702 158.907 429.966L227.748 472.401ZM493.783 241.665H507.331L514.728 230.314L570.009 145.476C571.574 143.082 574.218 141.665 577.016 141.665H766.684C769.395 141.665 771.979 142.998 773.584 145.331C775.099 147.58 775.439 150.464 774.402 153.099C774.4 153.103 774.399 153.106 774.397 153.11L674.436 405.48C674.431 405.492 674.426 405.504 674.421 405.516C669.324 418.251 662.502 429.959 654.109 440.428C627.913 473.02 589.05 491.665 547.281 491.665H503.948H488.497L481.587 505.485L407.481 653.7C407.478 653.707 407.474 653.713 407.471 653.72C406.022 656.582 403.14 658.334 400.015 658.334C396.86 658.334 393.96 656.556 392.524 653.716C392.521 653.711 392.519 653.705 392.516 653.7L318.444 505.489L311.535 491.665H296.081H252.748C210.897 491.665 172.045 473.007 145.926 440.402L145.913 440.386L145.9 440.37C137.521 429.945 130.701 418.244 125.635 405.635C125.628 405.619 125.622 405.603 125.616 405.587L25.5997 153.116C25.5985 153.113 25.5973 153.11 25.5961 153.107C24.5556 150.463 24.9045 147.591 26.4292 145.357L26.4465 145.332L26.4637 145.307C28.0051 143.036 30.5887 141.665 33.347 141.665H222.981C225.816 141.665 228.45 143.111 229.954 145.425L229.961 145.435L229.968 145.446L285.269 230.314L292.665 241.665H306.214H493.783ZM658.939 399.443L658.967 399.373L658.995 399.302L740.861 192.534L754.403 158.331H717.617H595.083H581.527L574.132 169.691L552.432 203.024L527.277 241.664H573.383H600.016C602.862 241.664 605.567 243.16 607.093 245.624L607.098 245.633L607.104 245.642C608.636 248.112 608.757 251.165 607.485 253.693L607.47 253.722L607.455 253.751L514.922 438.819L496.832 474.999H537.283H547.283C583.912 474.999 618.143 458.548 641.077 429.984C648.502 420.744 654.505 410.447 658.939 399.443Z" stroke="#none" stroke-width="50"/>
</svg>
