<svg width="19" height="19" viewBox="0 0 19 19" fill="none" xmlns="http://www.w3.org/2000/svg">
<path fill-rule="evenodd" clip-rule="evenodd" d="M10.1818 1C10.1818 0.447715 9.73411 0 9.18183 0C8.62955 0 8.18183 0.447715 8.18183 1V1.06545C8.18183 1.61774 8.62955 2.06545 9.18183 2.06545C9.73411 2.06545 10.1818 1.61774 10.1818 1.06545V1ZM4.04712 2.63289C3.65659 2.24237 3.02343 2.24237 2.63291 2.63289C2.24238 3.02342 2.24238 3.65658 2.63291 4.04711L2.73927 4.15347C3.12979 4.54399 3.76296 4.54399 4.15348 4.15347C4.54401 3.76295 4.54401 3.12978 4.15348 2.73926L4.04712 2.63289ZM15.7308 4.04711C16.1213 3.65658 16.1213 3.02342 15.7308 2.63289C15.3402 2.24237 14.7071 2.24237 14.3165 2.63289L14.2102 2.73926C13.8197 3.12978 13.8197 3.76295 14.2102 4.15347C14.6007 4.54399 15.2339 4.54399 15.6244 4.15347L15.7308 4.04711ZM1.00001 8.18182C0.447727 8.18182 1.14441e-05 8.62953 1.14441e-05 9.18182C1.14441e-05 9.7341 0.447727 10.1818 1.00001 10.1818H1.06547C1.61775 10.1818 2.06547 9.7341 2.06547 9.18182C2.06547 8.62953 1.61775 8.18182 1.06547 8.18182H1.00001ZM17.2982 8.18182C16.7459 8.18182 16.2982 8.62953 16.2982 9.18182C16.2982 9.7341 16.7459 10.1818 17.2982 10.1818H17.3636C17.9159 10.1818 18.3636 9.7341 18.3636 9.18182C18.3636 8.62953 17.9159 8.18182 17.3636 8.18182H17.2982ZM4.15348 15.6244C4.54401 15.2339 4.54401 14.6007 4.15348 14.2102C3.76296 13.8196 3.12979 13.8196 2.73927 14.2102L2.63291 14.3165C2.24238 14.7071 2.24238 15.3402 2.6329 15.7307C3.02343 16.1213 3.65659 16.1213 4.04712 15.7307L4.15348 15.6244ZM15.6244 14.2102C15.2339 13.8196 14.6007 13.8196 14.2102 14.2102C13.8197 14.6007 13.8197 15.2339 14.2102 15.6244L14.3165 15.7307C14.7071 16.1213 15.3402 16.1213 15.7308 15.7307C16.1213 15.3402 16.1213 14.7071 15.7308 14.3165L15.6244 14.2102ZM10.1818 17.2982C10.1818 16.7459 9.73411 16.2982 9.18183 16.2982C8.62955 16.2982 8.18183 16.7459 8.18183 17.2982V17.3636C8.18183 17.9159 8.62955 18.3636 9.18183 18.3636C9.73411 18.3636 10.1818 17.9159 10.1818 17.3636V17.2982ZM14.4997 9.18183C14.4997 12.119 12.1186 14.5 9.18147 14.5C6.24432 14.5 3.86329 12.119 3.86329 9.18183C3.86329 6.24468 6.24432 3.86365 9.18147 3.86365C12.1186 3.86365 14.4997 6.24468 14.4997 9.18183Z" fill="#2C2F32"/>
</svg>
