<svg width="20" height="21" viewBox="0 0 20 21" fill="none" xmlns="http://www.w3.org/2000/svg">
<path d="M18.0583 12.4141L17.725 16.5807C17.6 17.8557 17.5 18.8307 15.2416 18.8307H4.7583C2.49997 18.8307 2.39997 17.8557 2.27497 16.5807L1.94163 12.4141C1.87497 11.7224 2.09163 11.0807 2.4833 10.5891C2.49163 10.5807 2.49163 10.5807 2.49997 10.5724C2.9583 10.0141 3.64997 9.66406 4.42497 9.66406H15.575C16.35 9.66406 17.0333 10.0141 17.4833 10.5557C17.4916 10.5641 17.5 10.5724 17.5 10.5807C17.9083 11.0724 18.1333 11.7141 18.0583 12.4141Z" stroke="#84858F" stroke-miterlimit="10"/>
<path d="M2.91602 10.0286V5.73698C2.91602 2.90365 3.62435 2.19531 6.45768 2.19531H7.51602C8.57435 2.19531 8.81602 2.51198 9.21602 3.04531L10.2743 4.46198C10.541 4.81198 10.6993 5.02865 11.4077 5.02865H13.5327C16.366 5.02865 17.0743 5.73698 17.0743 8.57031V10.062" stroke="#84858F" stroke-miterlimit="10" stroke-linecap="round" stroke-linejoin="round"/>
<path d="M7.85742 14.6641H12.1408" stroke="#84858F" stroke-miterlimit="10" stroke-linecap="round" stroke-linejoin="round"/>
</svg>
