<svg width="23" height="20" viewBox="0 0 23 20" fill="none" xmlns="http://www.w3.org/2000/svg">
<path fill-rule="evenodd" clip-rule="evenodd" d="M7.11137 5.00134C7.12858 3.22114 8.57705 1.7832 10.3612 1.7832H14.2329H18.1045C19.8994 1.7832 21.3545 3.23828 21.3545 5.0332V14.7043C21.3545 16.4992 19.8994 17.9543 18.1045 17.9543H7.80703H6.72297C6.73768 17.9239 6.75179 17.8935 6.76533 17.8631C6.97016 17.4027 7.05379 16.9059 7.08788 16.4817C7.10339 16.3505 7.11137 16.2169 7.11137 16.0815V5.21002V5.00134ZM5.64547 4.46002C5.92858 2.10706 7.93189 0.283203 10.3612 0.283203H14.2329H18.1045C20.7279 0.283203 22.8545 2.40985 22.8545 5.0332V14.7043C22.8545 17.3276 20.7279 19.4543 18.1045 19.4543H7.80703H4.11218V19.4338C3.98951 19.4473 3.86485 19.4543 3.73858 19.4543C1.93378 19.4543 0.470703 17.9912 0.470703 16.1864V8.25711C0.470703 6.16004 2.17072 4.46002 4.26779 4.46002H5.64547ZM5.61122 5.96002H4.26779C2.99915 5.96002 1.9707 6.98847 1.9707 8.25711V16.1864C1.9707 17.1628 2.76221 17.9543 3.73858 17.9543C4.68588 17.9543 5.4689 17.251 5.59395 16.338C5.60958 16.1214 5.61122 15.9057 5.61122 15.7055V15.6828V15.66V15.6373V15.6146V15.5919V15.5693V15.5466V15.524V15.5014V15.4788V15.4563V15.4337V15.4112V15.3887V15.3662V15.3437V15.3212V15.2988V15.2764V15.254V15.2316V15.2092V15.1869V15.1646V15.1423V15.12V15.0977V15.0754V15.0532V15.031V15.0087V14.9866V14.9644V14.9422V14.9201V14.898V14.8759V14.8538V14.8317V14.8097V14.7876V14.7656V14.7436V14.7216V14.6996V14.6777V14.6557V14.6338V14.6119V14.59V14.5681V14.5463V14.5244V14.5026V14.4808V14.459V14.4372V14.4154V14.3937V14.372V14.3502V14.3285V14.3068V14.2852V14.2635V14.2419V14.2202V14.1986V14.177V14.1554V14.1339V14.1123V14.0908V14.0692V14.0477V14.0262V14.0047V13.9833V13.9618V13.9404V13.9189V13.8975V13.8761V13.8547V13.8334V13.812V13.7906V13.7693V13.748V13.7267V13.7054V13.6841V13.6628V13.6416V13.6203V13.5991V13.5779V13.5567V13.5355V13.5143V13.4931V13.472V13.4508V13.4297V13.4086V13.3875V13.3664V13.3453V13.3242V13.3032V13.2821V13.2611V13.2401V13.219V13.198V13.1771V13.1561V13.1351V13.1141V13.0932V13.0723V13.0513V13.0304V13.0095V12.9886V12.9678V12.9469V12.926V12.9052V12.8843V12.8635V12.8427V12.8219V12.8011V12.7803V12.7595V12.7388V12.718V12.6973V12.6765V12.6558V12.6351V12.6144V12.5937V12.573V12.5523V12.5316V12.511V12.4903V12.4697V12.449V12.4284V12.4078V12.3872V12.3666V12.346V12.3254V12.3048V12.2843V12.2637V12.2432V12.2226V12.2021V12.1816V12.161V12.1405V12.12V12.0995V12.0791V12.0586V12.0381V12.0176V11.9972V11.9767V11.9563V11.9359V11.9154V11.895V11.8746V11.8542V11.8338V11.8134V11.793V11.7726V11.7523V11.7319V11.7115V11.6912V11.6708V11.6505V11.6302V11.6098V11.5895V11.5692V11.5489V11.5286V11.5083V11.488V11.4677V11.4474V11.4271V11.4069V11.3866V11.3663V11.3461V11.3258V11.3056V11.2854V11.2651V11.2449V11.2247V11.2044V11.1842V11.164V11.1438V11.1236V11.1034V11.0832V11.063V11.0428V11.0227V11.0025V10.9823V10.9621V10.942V10.9218V10.9016V10.8815V10.8613V10.8412V10.821V10.8009V10.7808V10.7606V10.7405V10.7204V10.7002V10.6801V10.66V10.6399V10.6198V10.5996V10.5795V10.5594V10.5393V10.5192V10.4991V10.479V10.4589V10.4388V10.4187V10.3987V10.3786V10.3585V10.3384V10.3183V10.2982V10.2781V10.2581V10.238V10.2179V10.1978V10.1778V10.1577V10.1376V10.1175V10.0975V10.0774V10.0573V10.0373V10.0172V9.99714V9.97707V9.95701V9.93694V9.91688V9.89681V9.87675V9.85668V9.83662V9.81655V9.79648V9.77642V9.75635V9.73629V9.71622V9.69615V9.67608V9.65602V9.63595V9.61588V9.59581V9.57573V9.55566V9.53559V9.51551V9.49543V9.47536V9.45528V9.4352V9.41511V9.39503V9.37495V9.35486V9.33477V9.31468V9.29459V9.27449V9.25439V9.2343V9.2142V9.19409V9.17399V9.15388V9.13377V9.11365V9.09354V9.07342V9.0533V9.03318V9.01305V8.99292V8.97279V8.95265V8.93251V8.91237V8.89222V8.87207V8.85192V8.83176V8.81161V8.79144V8.77127V8.7511V8.73093V8.71075V8.69057V8.67038V8.65019V8.62999V8.60979V8.58959V8.56938V8.54917V8.52895V8.50873V8.4885V8.46827V8.44804V8.42779V8.40755V8.3873V8.36704V8.34678V8.32651V8.30624V8.28596V8.26568V8.24539V8.2251V8.2048V8.18449V8.16418V8.14386V8.12354V8.10321V8.08287V8.06253V8.04218V8.02183V8.00147V7.9811V7.96073V7.94035V7.91996V7.89957V7.87916V7.85876V7.83834V7.81792V7.79749V7.77706V7.75661V7.73616V7.71571V7.69524V7.67477V7.65429V7.6338V7.61331V7.5928V7.57229V7.55177V7.53125V7.51071V7.49017V7.46962V7.44906V7.42849V7.40791V7.38733V7.36674V7.34613V7.32552V7.3049V7.28428V7.26364V7.24299V7.22234V7.20167V7.181V7.16032V7.13963V7.11893V7.09822V7.07749V7.05676V7.03603V7.01528V6.99452V6.97375V6.95297V6.93218V6.91138V6.89057V6.86975V6.84892V6.82808V6.80723V6.78637V6.7655V6.74462V6.72373V6.70282V6.68191V6.66098V6.64005V6.6191V6.59814V6.57717V6.55619V6.5352V6.51419V6.49318V6.47215V6.45111V6.43006V6.409V6.38793V6.36684V6.34575V6.32464V6.30351V6.28238V6.26124V6.24008V6.21891V6.19772V6.17653V6.15532V6.1341V6.11286V6.09162V6.07036V6.04909V6.0278V6.0065V5.98519V5.96387V5.96002ZM8.82423 5.6384C8.82423 5.22419 9.16002 4.8884 9.57423 4.8884H18.8917C19.3059 4.8884 19.6417 5.22419 19.6417 5.6384C19.6417 6.05261 19.3059 6.3884 18.8917 6.3884H9.57423C9.16002 6.3884 8.82423 6.05261 8.82423 5.6384ZM8.82423 9.8152C8.82423 9.40098 9.16002 9.0652 9.57423 9.0652H12.6801C13.0943 9.0652 13.4301 9.40098 13.4301 9.8152C13.4301 10.2294 13.0943 10.5652 12.6801 10.5652H9.57423C9.16002 10.5652 8.82423 10.2294 8.82423 9.8152ZM15.0359 9.8152C15.0359 9.40098 15.3717 9.0652 15.7859 9.0652H18.8917C19.3059 9.0652 19.6417 9.40098 19.6417 9.8152C19.6417 10.2294 19.3059 10.5652 18.8917 10.5652H15.7859C15.3717 10.5652 15.0359 10.2294 15.0359 9.8152ZM8.82423 13.992C8.82423 13.5778 9.16002 13.242 9.57423 13.242H12.6801C13.0943 13.242 13.4301 13.5778 13.4301 13.992C13.4301 14.4062 13.0943 14.742 12.6801 14.742H9.57423C9.16002 14.742 8.82423 14.4062 8.82423 13.992ZM15.0359 13.992C15.0359 13.5778 15.3717 13.242 15.7859 13.242H18.8917C19.3059 13.242 19.6417 13.5778 19.6417 13.992C19.6417 14.4062 19.3059 14.742 18.8917 14.742H15.7859C15.3717 14.742 15.0359 14.4062 15.0359 13.992Z" fill="#868B90"/>
</svg>
