<svg width="20" height="18" viewBox="0 0 20 18" fill="none" xmlns="http://www.w3.org/2000/svg">
<path d="M1.5 16V16.5H2H18H18.5V16V2V1.5H18H2H1.5V2V16ZM2 17.5C1.58366 17.5 1.2397 17.3576 0.941053 17.0589C0.642407 16.7603 0.5 16.4163 0.5 16V2C0.5 1.58366 0.642407 1.2397 0.941053 0.941053C1.2397 0.642407 1.58366 0.5 2 0.5H18C18.4163 0.5 18.7603 0.642407 19.0589 0.941053C19.3576 1.2397 19.5 1.58366 19.5 2V16C19.5 16.4163 19.3576 16.7603 19.0589 17.0589C18.7603 17.3576 18.4163 17.5 18 17.5H2ZM15.5 12.5V13.5H4.5V12.5H15.5ZM7.5 4.5V9.5H4.5V4.5H7.5ZM15.5 8.5V9.5H10.5V8.5H15.5ZM15.5 4.5V5.5H10.5V4.5H15.5Z" stroke="#none"/>
</svg>
