<svg width="49" height="49" viewBox="0 0 49 49" fill="none" xmlns="http://www.w3.org/2000/svg">
<path d="M18.3749 8.16675H14.2916C13.2086 8.16675 12.17 8.59696 11.4042 9.36273C10.6385 10.1285 10.2083 11.1671 10.2083 12.2501V36.7501C10.2083 37.833 10.6385 38.8717 11.4042 39.6374C12.17 40.4032 13.2086 40.8334 14.2916 40.8334H18.3749C19.4579 40.8334 20.4965 40.4032 21.2623 39.6374C22.028 38.8717 22.4583 37.833 22.4583 36.7501V12.2501C22.4583 11.1671 22.028 10.1285 21.2623 9.36273C20.4965 8.59696 19.4579 8.16675 18.3749 8.16675Z" fill="white"/>
<path d="M34.7083 8.16675H30.6249C29.542 8.16675 28.5033 8.59696 27.7376 9.36273C26.9718 10.1285 26.5416 11.1671 26.5416 12.2501V36.7501C26.5416 37.833 26.9718 38.8717 27.7376 39.6374C28.5033 40.4032 29.542 40.8334 30.6249 40.8334H34.7083C35.7912 40.8334 36.8298 40.4032 37.5956 39.6374C38.3614 38.8717 38.7916 37.833 38.7916 36.7501V12.2501C38.7916 11.1671 38.3614 10.1285 37.5956 9.36273C36.8298 8.59696 35.7912 8.16675 34.7083 8.16675Z" fill="white"/>
<path d="M18.3749 8.16675H14.2916C13.2086 8.16675 12.17 8.59696 11.4042 9.36273C10.6385 10.1285 10.2083 11.1671 10.2083 12.2501V36.7501C10.2083 37.833 10.6385 38.8717 11.4042 39.6374C12.17 40.4032 13.2086 40.8334 14.2916 40.8334H18.3749C19.4579 40.8334 20.4965 40.4032 21.2623 39.6374C22.028 38.8717 22.4583 37.833 22.4583 36.7501V12.2501C22.4583 11.1671 22.028 10.1285 21.2623 9.36273C20.4965 8.59696 19.4579 8.16675 18.3749 8.16675Z" stroke="white"/>
<path d="M34.7083 8.16675H30.6249C29.542 8.16675 28.5033 8.59696 27.7376 9.36273C26.9718 10.1285 26.5416 11.1671 26.5416 12.2501V36.7501C26.5416 37.833 26.9718 38.8717 27.7376 39.6374C28.5033 40.4032 29.542 40.8334 30.6249 40.8334H34.7083C35.7912 40.8334 36.8298 40.4032 37.5956 39.6374C38.3614 38.8717 38.7916 37.833 38.7916 36.7501V12.2501C38.7916 11.1671 38.3614 10.1285 37.5956 9.36273C36.8298 8.59696 35.7912 8.16675 34.7083 8.16675Z" stroke="white"/>
</svg>
