<svg width="25" height="24" viewBox="0 0 25 24" fill="none" xmlns="http://www.w3.org/2000/svg">
<path d="M14.0605 6.5L18.0605 10.5M4.56055 20.0003H8.56055L19.0605 9.5003C19.3232 9.23766 19.5315 8.92585 19.6737 8.58269C19.8158 8.23953 19.889 7.87174 19.889 7.5003C19.889 7.12887 19.8158 6.76107 19.6737 6.41791C19.5315 6.07475 19.3232 5.76295 19.0605 5.5003C18.7979 5.23766 18.4861 5.02932 18.1429 4.88718C17.7998 4.74503 17.432 4.67187 17.0605 4.67188C16.6891 4.67188 16.3213 4.74503 15.9782 4.88718C15.635 5.02932 15.3232 5.23766 15.0605 5.5003L4.56055 16.0003V20.0003Z" stroke="#none" stroke-width="2" stroke-linecap="round" stroke-linejoin="round"/>
</svg>
