<svg width="32" height="36" viewBox="0 0 32 36" fill="none" xmlns="http://www.w3.org/2000/svg">
<path d="M29.9109 25.7366C28.89 19.4186 25.7117 14.7138 22.9487 11.9504C22.1446 11.1463 21.7427 10.7442 20.8546 10.3721C19.9665 10 19.2032 10 17.6766 10H14.3234C12.7968 10 12.0335 10 11.1455 10.3721C10.2574 10.7442 9.85542 11.1463 9.0514 11.9504C6.28839 14.7138 3.11006 19.4186 2.08908 25.7366C1.32944 30.4374 5.54553 34 10.2574 34H21.7427C26.4544 34 30.6706 30.4374 29.9109 25.7366Z" stroke="white" stroke-width="2.5" stroke-linecap="round"/>
<path d="M16.9644 16.2353C16.9644 15.5531 16.4761 15 15.8735 15C15.271 15 14.7825 15.5531 14.7825 16.2353H16.9644ZM14.7825 27.7647C14.7825 28.4469 15.271 29 15.8735 29C16.4761 29 16.9644 28.4469 16.9644 27.7647H14.7825ZM17.4337 19.4535C17.7983 19.9965 18.4826 20.1021 18.9623 19.6893C19.442 19.2764 19.5353 18.5015 19.1706 17.9583L17.4337 19.4535ZM14.1777 24.6389C13.7287 24.184 13.0391 24.2273 12.6373 24.7356C12.2355 25.244 12.2738 26.0249 12.7227 26.48L14.1777 24.6389ZM15.8735 20.5988C14.9319 20.5988 14.5033 20.4249 14.3328 20.2948C14.2545 20.2352 14.1818 20.1675 14.1818 19.8415H12C12 20.7993 12.3067 21.7281 13.1139 22.3439C13.8287 22.8891 14.7913 23.0694 15.8735 23.0694V20.5988ZM14.1818 19.8415C14.1818 19.6842 14.2557 19.4405 14.5536 19.1916C14.8511 18.9429 15.3142 18.7518 15.8735 18.7518V16.2812C14.896 16.2812 13.9679 16.6107 13.2582 17.2036C12.549 17.796 12 18.7148 12 19.8415H14.1818ZM17.8182 24.1591C17.8182 24.5246 17.7034 24.7185 17.4583 24.8853C17.1469 25.0971 16.6127 25.2487 15.8735 25.2487V27.7192C16.8109 27.7192 17.7945 27.5387 18.5817 27.0031C19.4352 26.4227 20 25.454 20 24.1591H17.8182ZM15.8735 23.0694C16.8239 23.0694 17.3194 23.2351 17.5542 23.4086C17.6911 23.5095 17.8182 23.6574 17.8182 24.1591H20C20 23.0001 19.6212 21.9855 18.7462 21.3392C17.9692 20.7654 16.9469 20.5988 15.8735 20.5988V23.0694ZM16.9644 17.5165V16.2353H14.7825V17.5165H16.9644ZM14.7825 26.484V27.7647H16.9644V26.484H14.7825ZM15.8735 18.7518C16.6515 18.7518 17.2054 19.1134 17.4337 19.4535L19.1706 17.9583C18.4461 16.879 17.182 16.2812 15.8735 16.2812V18.7518ZM15.8735 25.2487C15.0976 25.2487 14.4947 24.9601 14.1777 24.6389L12.7227 26.48C13.514 27.2818 14.6695 27.7192 15.8735 27.7192V25.2487Z" fill="white"/>
<path d="M8.41059 5.90859C8.0805 5.42813 7.60205 4.77598 8.59038 4.62728C9.60627 4.47442 10.6611 5.16982 11.6937 5.15554C12.6278 5.14261 13.1037 4.7283 13.6142 4.13677C14.1518 3.51387 14.9843 2 16 2C17.0157 2 17.8482 3.51387 18.3858 4.13677C18.8963 4.7283 19.3722 5.14261 20.3062 5.15554C21.3389 5.16982 22.3938 4.47442 23.4096 4.62728C24.3979 4.77598 23.9195 5.42813 23.5894 5.90859L22.0968 8.08102C21.4584 9.01034 21.1392 9.47499 20.471 9.7375C19.803 10 18.9397 10 17.2131 10H14.7869C13.0603 10 12.197 10 11.5289 9.7375C10.8608 9.47499 10.5416 9.01034 9.90312 8.08102L8.41059 5.90859Z" stroke="white" stroke-width="2.5"/>
</svg>
