<svg width="19" height="19" viewBox="0 0 19 19" fill="none" xmlns="http://www.w3.org/2000/svg">
<path fill-rule="evenodd" clip-rule="evenodd" d="M1.67065 8.61694C1.67065 4.68636 4.85702 1.5 8.78759 1.5C12.7182 1.5 15.9045 4.68636 15.9045 8.61694C15.9045 12.5475 12.7182 15.7339 8.78759 15.7339C4.85702 15.7339 1.67065 12.5475 1.67065 8.61694ZM8.78759 0C4.02859 0 0.170654 3.85793 0.170654 8.61694C0.170654 13.3759 4.02859 17.2339 8.78759 17.2339C10.793 17.2339 12.6385 16.5488 14.1026 15.3999L16.8142 18.1044C17.1074 18.3969 17.5823 18.3963 17.8748 18.103C18.1673 17.8097 18.1667 17.3348 17.8734 17.0423L15.1987 14.3746C16.5701 12.8485 17.4045 10.8302 17.4045 8.61694C17.4045 3.85793 13.5466 0 8.78759 0Z" fill="none"/>
</svg>
