<svg width="24" height="24" viewBox="0 0 24 24" fill="none" xmlns="http://www.w3.org/2000/svg">
<path d="M2.99995 12.0005L19.3019 19.9665C19.395 20.0023 19.4966 20.0096 19.5938 19.9875C19.691 19.9654 19.7795 19.915 19.8479 19.8425C19.9184 19.7681 19.967 19.6757 19.9881 19.5755C20.0093 19.4752 20.0023 19.371 19.9679 19.2745L17.4999 12.0005M2.99995 12.0005L19.3019 4.03452C19.395 3.99876 19.4966 3.99145 19.5938 4.01353C19.691 4.0356 19.7795 4.08607 19.8479 4.15852C19.9184 4.23289 19.967 4.32532 19.9881 4.42558C20.0093 4.52583 20.0023 4.62999 19.9679 4.72652L17.4999 12.0005M2.99995 12.0005L17.4999 12.0005" stroke="#868B90" stroke-width="2" stroke-linecap="round" stroke-linejoin="round"/>
</svg>
