<svg width="31" height="34" viewBox="0 0 31 34" fill="none" xmlns="http://www.w3.org/2000/svg">
<path d="M24 1V13M30 7H18" stroke="#none" stroke-width="2" stroke-linecap="round" stroke-linejoin="round"/>
<path d="M1 7C1 4.8998 1 3.8497 1.40872 3.04753C1.76826 2.34193 2.34193 1.76826 3.04753 1.40872C3.8497 1 4.8998 1 7 1C9.1002 1 10.1503 1 10.9525 1.40872C11.6581 1.76826 12.2317 2.34193 12.5913 3.04753C13 3.8497 13 4.8998 13 7C13 9.1002 13 10.1503 12.5913 10.9525C12.2317 11.6581 11.6581 12.2317 10.9525 12.5913C10.1503 13 9.1002 13 7 13C4.8998 13 3.8497 13 3.04753 12.5913C2.34193 12.2317 1.76826 11.6581 1.40872 10.9525C1 10.1503 1 9.1002 1 7Z" stroke="#none" stroke-width="2"/>
<path d="M1 27C1 24.8999 1 23.8497 1.40872 23.0475C1.76826 22.3419 2.34193 21.7683 3.04753 21.4088C3.8497 21 4.8998 21 7 21C9.1002 21 10.1503 21 10.9525 21.4088C11.6581 21.7683 12.2317 22.3419 12.5913 23.0475C13 23.8497 13 24.8999 13 27C13 29.1001 13 30.1503 12.5913 30.9525C12.2317 31.6581 11.6581 32.2317 10.9525 32.5913C10.1503 33 9.1002 33 7 33C4.8998 33 3.8497 33 3.04753 32.5913C2.34193 32.2317 1.76826 31.6581 1.40872 30.9525C1 30.1503 1 29.1001 1 27Z" stroke="#none" stroke-width="2"/>
<path d="M18 27C18 24.8999 18 23.8497 18.4088 23.0475C18.7683 22.3419 19.3419 21.7683 20.0475 21.4088C20.8497 21 21.8999 21 24 21C26.1001 21 27.1503 21 27.9525 21.4088C28.6581 21.7683 29.2317 22.3419 29.5913 23.0475C30 23.8497 30 24.8999 30 27C30 29.1001 30 30.1503 29.5913 30.9525C29.2317 31.6581 28.6581 32.2317 27.9525 32.5913C27.1503 33 26.1001 33 24 33C21.8999 33 20.8497 33 20.0475 32.5913C19.3419 32.2317 18.7683 31.6581 18.4088 30.9525C18 30.1503 18 29.1001 18 27Z" stroke="#none" stroke-width="2"/>
</svg>
