<?xml version="1.0" encoding="iso-8859-1"?>
<!-- Uploaded to: SVG Repo, www.svgrepo.com, Generator: SVG Repo Mixer Tools -->
<svg fill="#000000" height="800px" width="800px" version="1.1" id="Capa_1" xmlns="http://www.w3.org/2000/svg" xmlns:xlink="http://www.w3.org/1999/xlink" 
	 viewBox="0 0 511.999 511.999" xml:space="preserve">
<g>
	<g>
		<path d="M490.057,163.776h-39.452c-7.231-41.996-27.898-80.463-59.436-109.937C354.466,19.539,306.463,0.646,256,0.646
			c-50.464,0-98.469,18.891-135.169,53.194c-31.536,29.474-52.202,67.939-59.433,109.935H21.943C9.825,163.774,0,173.599,0,185.718
			V361.26c0,12.118,9.825,21.943,21.943,21.943h102.4c12.118,0,21.943-9.825,21.943-21.943V185.718
			c0-12.118-9.825-21.943-21.943-21.943h-18.201c3.546-15.691,9.522-30.449,17.505-43.883h264.71
			c7.983,13.433,13.96,28.192,17.506,43.883h-18.205c-12.118,0-21.943,9.825-21.943,21.943V361.26
			c0,12.118,9.825,21.943,21.943,21.943H409.6v49.705c0,10.99-8.941,19.931-19.931,19.931h-37.847
			c-3.015-8.517-11.118-14.629-20.667-14.629H256c-12.118,0-21.943,9.825-21.943,21.943v29.257c0,12.118,9.825,21.943,21.943,21.943
			h75.154c9.549,0,17.651-6.112,20.667-14.629h37.847c35.189,0,63.817-28.628,63.817-63.817v-49.705h36.571
			c12.118,0,21.943-9.825,21.943-21.943V185.718C512,173.601,502.175,163.776,490.057,163.776z M102.4,339.318H43.886V207.661
			h36.851c0.042,0,0.088,0.004,0.13,0.004c0.031,0,0.058-0.004,0.089-0.004H102.4V339.318z M162.812,76.007
			c25.95-19.759,58.32-31.476,93.188-31.476c34.868,0,67.24,11.717,93.188,31.476H162.812z M468.114,339.318H409.6V207.661h58.514
			V339.318z"/>
	</g>
</g>
</svg>