<svg width="27" height="22" viewBox="0 0 27 22" fill="none" xmlns="http://www.w3.org/2000/svg">
<path d="M1 7C1 8.61014 11.1327 13 13.5 13C15.8673 13 26 8.61014 26 7C26 5.38986 15.8673 1 13.5 1C11.1327 1 1 5.38986 1 7Z" stroke="none" stroke-width="1.5" stroke-linecap="round" stroke-linejoin="round"/>
<path d="M6 11L6.30681 18.0374C6.31295 18.1783 6.3282 18.3194 6.3691 18.4544C6.49549 18.8716 6.72844 19.2508 7.08384 19.5055C9.86453 21.4982 17.1355 21.4982 19.9161 19.5055C20.2716 19.2508 20.5045 18.8716 20.6309 18.4544C20.6718 18.3194 20.687 18.1783 20.6933 18.0374L21 11" stroke="none" stroke-width="1.5" stroke-linecap="round" stroke-linejoin="round"/>
<path d="M23.25 18C23.25 18.4142 23.5858 18.75 24 18.75C24.4142 18.75 24.75 18.4142 24.75 18H23.25ZM23.25 9V18H24.75V9H23.25Z" fill="none"/>
</svg>
