<svg width="25" height="24" viewBox="0 0 25 24" fill="none" xmlns="http://www.w3.org/2000/svg">
<path d="M4.56055 7H20.5605M5.56055 7L6.56055 19C6.56055 19.5304 6.77126 20.0391 7.14633 20.4142C7.52141 20.7893 8.03011 21 8.56055 21H16.5605C17.091 21 17.5997 20.7893 17.9748 20.4142C18.3498 20.0391 18.5605 19.5304 18.5605 19L19.5605 7M9.56055 7V4C9.56055 3.73478 9.6659 3.48043 9.85344 3.29289C10.041 3.10536 10.2953 3 10.5605 3H14.5605C14.8258 3 15.0801 3.10536 15.2677 3.29289C15.4552 3.48043 15.5605 3.73478 15.5605 4V7M10.5605 12L14.5605 16M14.5605 12L10.5605 16" stroke="#ED2E2E" stroke-width="2" stroke-linecap="round" stroke-linejoin="round"/>
</svg>
