<svg width="615" height="600" viewBox="100 0 615 600" fill="none"  xmlns="http://www.w3.org/2000/svg">
<path d="M241.266 513.725L252.942 501.725C297.147 537.131 353.283 558.333 414.333 558.333C557.007 558.333 672.667 442.674 672.667 300C672.667 157.326 557.007 41.6667 414.333 41.6667C271.66 41.6667 156 157.326 156 300C156 306.978 156.277 313.897 156.822 320.746L161.118 374.732L199.418 336.443L247.664 288.212L259.452 300L147.667 411.785L35.8815 300L47.6683 288.213L97.3254 337.86L144.354 384.879L139.946 318.524C139.54 312.405 139.333 306.229 139.333 300C139.333 148.122 262.455 25 414.333 25C566.212 25 689.333 148.122 689.333 300C689.333 451.878 566.212 575 414.333 575C348.737 575 288.539 552.059 241.266 513.725ZM396.373 406.969L327.624 223.636H345.427L391.241 345.783L414.19 406.969H396.373ZM432.923 406.969H415.109L438.057 345.783L483.869 223.636H501.673L432.923 406.969Z" stroke="#none" stroke-width="50"/>
</svg>
