<svg width="24" height="23" viewBox="0 0 24 23"   xmlns="http://www.w3.org/2000/svg">
<path d="M10.0654 9C6.77982 9 4.11523 11.6646 4.11523 14.9502C4.11534 18.2357 6.77989 20.9004 10.0654 20.9004H14.665C17.9503 20.9004 20.6152 18.2358 20.6152 14.9648V14.9502L20.6074 14.6436C20.4479 11.5003 17.8479 9 14.665 9H10.0654ZM16.7656 14V15.9004H14.8652V14H16.7656ZM9.86523 14V15.9004H7.96484V14H9.86523ZM11.415 4.18457L11.3154 4.12695C10.6869 3.76217 10.2656 3.08238 10.2656 2.30566C10.2657 1.14311 11.2085 0.200195 12.3711 0.200195C13.5324 0.200256 14.4755 1.14309 14.4756 2.30566C14.4756 3.0865 14.0497 3.76902 13.416 4.13281L13.3154 4.19043V7.09961H14.665C18.2208 7.09961 21.2248 9.46368 22.1904 12.707L22.2324 12.8496H23.665V17.0498H22.2324L22.1904 17.1934C21.2247 20.4366 18.2207 22.7998 14.665 22.7998H10.0654C6.50979 22.7998 3.50573 20.4366 2.54004 17.1934L2.49805 17.0498H1.06543V12.8496H2.49805L2.54004 12.707C3.50564 9.46368 6.50968 7.09961 10.0654 7.09961H11.415V4.18457Z"  stroke-width="0.4"/>
</svg>
