<svg width="17" height="16" viewBox="0 0 17 16" fill="none" xmlns="http://www.w3.org/2000/svg">
<path d="M8.85301 13.6134H4.63967C2.53301 13.6134 1.83301 12.2134 1.83301 10.8067V5.19339C1.83301 3.08672 2.53301 2.38672 4.63967 2.38672H8.85301C10.9597 2.38672 11.6597 3.08672 11.6597 5.19339V10.8067C11.6597 12.9134 10.953 13.6134 8.85301 13.6134Z" stroke="#808080" stroke-linecap="round" stroke-linejoin="round"/>
<path d="M13.5135 11.4001L11.6602 10.1001V5.89342L13.5135 4.59342C14.4202 3.96009 15.1668 4.34675 15.1668 5.46009V10.5401C15.1668 11.6534 14.4202 12.0401 13.5135 11.4001Z" stroke="#808080" stroke-linecap="round" stroke-linejoin="round"/>
<path d="M8.16699 7.33203C8.71928 7.33203 9.16699 6.88432 9.16699 6.33203C9.16699 5.77975 8.71928 5.33203 8.16699 5.33203C7.61471 5.33203 7.16699 5.77975 7.16699 6.33203C7.16699 6.88432 7.61471 7.33203 8.16699 7.33203Z" stroke="#808080" stroke-linecap="round" stroke-linejoin="round"/>
</svg>
