<svg width="17" height="15" viewBox="0 0 17 15" fill="none" xmlns="http://www.w3.org/2000/svg">
<path d="M5.84376 7.43369C5.84376 8.96731 7.07782 10.2066 8.60498 10.2066C10.1321 10.2066 11.3662 8.96731 11.3662 7.43369C11.3662 5.90006 10.1321 4.66077 8.60498 4.66077C7.07782 4.66077 5.84376 5.90006 5.84376 7.43369Z" stroke="#none" stroke-width="1.5" stroke-linecap="round" stroke-linejoin="round"/>
<path d="M8.60527 13.8392C5.88262 13.8392 3.34507 12.2281 1.57882 9.43971C0.884657 8.34758 0.884657 6.51188 1.57882 5.41975C3.34507 2.63134 5.88262 1.02026 8.60527 1.02026C11.3279 1.02026 13.8655 2.63134 15.6317 5.41975C16.3259 6.51188 16.3259 8.34758 15.6317 9.43971C13.8655 12.2281 11.3279 13.8392 8.60527 13.8392Z" stroke="#none" stroke-width="1.5" stroke-linecap="round" stroke-linejoin="round"/>
</svg>
