<svg width="34" height="34" viewBox="0 0 34 34" fill="none" xmlns="http://www.w3.org/2000/svg">
<path d="M31.0837 32.8334V9.85111C31.0837 8.11337 31.0837 7.2445 30.5841 6.51125C30.0844 5.77799 29.164 5.29602 27.3234 4.3321L24.9813 3.10565C22.0918 1.59249 20.647 0.83593 19.532 1.30463C18.417 1.77334 18.417 3.13729 18.417 5.86517V12.25" stroke="#84898E" stroke-width="2" stroke-linejoin="round"/>
<path d="M32.6667 32.8333H1" stroke="#84898E" stroke-width="2" stroke-linecap="round" stroke-linejoin="round"/>
<path d="M31.0837 10.6667H27.917M31.0837 15.4167H27.917M31.0837 20.1667H27.917" stroke="#84898E" stroke-width="2" stroke-linecap="round" stroke-linejoin="round"/>
<path d="M10.5 18.5833C10.5 15.5978 10.5 14.105 11.4275 13.1775C12.355 12.25 13.8478 12.25 16.8333 12.25C19.8189 12.25 21.3116 12.25 22.2391 13.1775C23.1667 14.105 23.1667 15.5978 23.1667 18.5833V32.8333H10.5V18.5833Z" stroke="#84898E" stroke-width="2" stroke-linejoin="round"/>
<path d="M16.042 18.5833H17.6253M16.042 23.3333H17.6253" stroke="#84898E" stroke-width="2" stroke-linecap="round"/>
<path d="M3.375 23.3333C4.68668 23.3333 5.75 21.9156 5.75 20.1667C5.75 18.4178 4.68668 17 3.375 17C2.06332 17 1 18.4178 1 20.1667C1 21.9156 2.06332 23.3333 3.375 23.3333Z" stroke="#84898E" stroke-width="2"/>
<path d="M3.375 23.3333V32.8333" stroke="#84898E" stroke-width="2" stroke-linecap="round"/>
</svg>
