<svg xmlns="http://www.w3.org/2000/svg" xmlns:xlink="http://www.w3.org/1999/xlink" viewBox="0 0 20 25" version="1.1" x="0px" y="0px">
<title>filter</title><desc>Created with Sketch.</desc>
<g stroke="#none" stroke-width="1" fill="none" fill-rule="evenodd">
<g transform="translate(-540.000000, -211.000000)" fill="#none" fill-rule="nonzero">
<path d="M550,225 C551.3118,225 552.42695,225.841956 552.834535,227.014953 L552.883379,227.006728 L552.883379,227.006728 L553,227 L559,227 C559.552285,227 560,227.447715 560,228 C560,228.512836 559.61396,228.935507 559.116621,228.993272 L559,229 L553,229 C552.943445,229 552.887986,228.995305 552.833993,228.986284 C552.42695,230.158044 551.3118,231 550,231 C548.6882,231 547.57305,230.158044 547.165465,228.985047 L547.116621,228.993272 L547.116621,228.993272 L547,229 L541,229 C540.447715,229 540,228.552285 540,228 C540,227.487164 540.38604,227.064493 540.883379,227.006728 L541,227 L547,227 C547.056555,227 547.112014,227.004695 547.166007,227.013716 C547.57305,225.841956 548.6882,225 550,225 Z M550,227 C549.447715,227 549,227.447715 549,228 C549,228.552285 549.447715,229 550,229 C550.552285,229 551,228.552285 551,228 C551,227.447715 550.552285,227 550,227 Z M543,218 C544.3118,218 545.42695,218.841956 545.834535,220.014953 L545.883379,220.006728 L545.883379,220.006728 L546,220 L559,220 C559.552285,220 560,220.447715 560,221 C560,221.512836 559.61396,221.935507 559.116621,221.993272 L559,222 L546,222 C545.943445,222 545.887986,221.995305 545.833993,221.986284 C545.42695,223.158044 544.3118,224 543,224 C541.343146,224 540,222.656854 540,221 C540,219.343146 541.343146,218 543,218 Z M543,220 C542.447715,220 542,220.447715 542,221 C542,221.552285 542.447715,222 543,222 C543.552285,222 544,221.552285 544,221 C544,220.447715 543.552285,220 543,220 Z M554,211 C555.3118,211 556.42695,211.841956 556.834535,213.014953 L556.883379,213.006728 L556.883379,213.006728 L557,213 L559,213 C559.552285,213 560,213.447715 560,214 C560,214.512836 559.61396,214.935507 559.116621,214.993272 L559,215 L557,215 C556.943445,215 556.887986,214.995305 556.833993,214.986284 C556.42695,216.158044 555.3118,217 554,217 C552.6882,217 551.57305,216.158044 551.165465,214.985047 L551.116621,214.993272 L551.116621,214.993272 L551,215 L541,215 C540.447715,215 540,214.552285 540,214 C540,213.487164 540.38604,213.064493 540.883379,213.006728 L541,213 L551,213 C551.056555,213 551.112014,213.004695 551.166007,213.013716 C551.57305,211.841956 552.6882,211 554,211 Z M554,213 C553.447715,213 553,213.447715 553,214 C553,214.552285 553.447715,215 554,215 C554.552285,215 555,214.552285 555,214 C555,213.447715 554.552285,213 554,213 Z"/>
</g></g>
<text x="0" y="35" fill="#none" font-size="5px" font-weight="bold" font-family="'Helvetica Neue', Helvetica, Arial-Unicode, Arial, Sans-serif">Created by Danny Amacher</text>
<text x="0" y="40" fill="#none" font-size="5px" font-weight="bold" font-family="'Helvetica Neue', Helvetica, Arial-Unicode, Arial, Sans-serif">from the Noun Project</text></svg>