<svg width="23" height="24" viewBox="0 0 23 24" fill="none" xmlns="http://www.w3.org/2000/svg">
<path fill-rule="evenodd" clip-rule="evenodd" d="M18.9588 5.81617C18.9588 3.49196 17.0813 1.60547 14.7481 1.60547C12.4255 1.60547 10.5382 3.49223 10.5374 5.81465C10.5477 8.08048 12.319 9.91691 14.5516 10.0145C14.6823 10.0047 14.8219 10.0051 14.9537 10.0146C17.1884 9.91799 18.9588 8.08046 18.9588 5.81617ZM14.7481 0.105469C17.9119 0.105469 20.4588 2.66573 20.4588 5.81617C20.4588 8.901 18.0275 11.4123 14.9632 11.5153C14.9322 11.5163 14.9011 11.5154 14.8701 11.5126C14.79 11.5053 14.7039 11.506 14.644 11.512C14.6108 11.5153 14.5774 11.5164 14.5441 11.5153C11.4793 11.4123 9.05024 8.90115 9.0374 5.81929L9.03739 5.81617C9.03739 2.66463 11.5966 0.105469 14.7481 0.105469ZM6.46901 2.33997C6.88323 2.33997 7.21901 2.67575 7.21901 3.08997C7.21901 3.50418 6.88323 3.83997 6.46901 3.83997C4.71711 3.83997 3.30855 5.2569 3.30855 7.00043C3.30855 8.69001 4.63712 10.0711 6.3026 10.1592C6.43434 10.1481 6.56858 10.1512 6.69708 10.1655C7.10876 10.2112 7.40541 10.582 7.35967 10.9937C7.31393 11.4054 6.94311 11.702 6.53144 11.6563C6.48229 11.6508 6.44116 11.6521 6.41679 11.6551C6.37664 11.6601 6.33615 11.6619 6.29571 11.6604C3.80555 11.5672 1.80855 9.51753 1.80855 7.00043C1.80855 4.43127 3.88589 2.33997 6.46901 2.33997ZM14.5554 12.605C12.4143 12.605 10.2355 13.1426 8.55527 14.2648C7.04748 15.2683 6.19396 16.6673 6.19396 18.1635C6.19396 19.6595 7.04736 21.0611 8.5546 22.0701L8.55475 22.0702C10.2402 23.1979 12.4218 23.7387 14.5638 23.7387C16.7054 23.7387 18.8867 23.1981 20.572 22.0707C22.08 21.0672 22.9336 19.6681 22.9336 18.1719C22.9336 16.6758 22.0802 15.2742 20.573 14.2652L20.5702 14.2634L20.5702 14.2634C18.8799 13.1427 16.6967 12.605 14.5554 12.605ZM19.7399 15.5126C20.9355 16.3135 21.4336 17.2913 21.4336 18.1719C21.4336 19.0523 20.9356 20.0272 19.7403 20.8224L19.7387 20.8235C18.3516 21.7516 16.4775 22.2387 14.5638 22.2387C12.6501 22.2387 10.7761 21.7516 9.38903 20.8236C8.19247 20.0226 7.69396 19.0444 7.69396 18.1635C7.69396 17.283 8.19192 16.3081 9.38725 15.5129L9.38837 15.5122C10.7695 14.5897 12.6407 14.105 14.5554 14.105C16.4692 14.105 18.3466 14.5893 19.7399 15.5126ZM4.11411 13.5311C4.51819 13.4401 4.91958 13.6938 5.01064 14.0979C5.1017 14.502 4.84795 14.9034 4.44387 14.9944C3.73107 15.1551 3.08823 15.4299 2.57783 15.8197L2.57785 15.8197L2.57265 15.8236C1.86386 16.3552 1.56544 17.0101 1.56544 17.609C1.56544 18.2079 1.86386 18.8628 2.57265 19.3944L2.57268 19.3944L2.57942 19.3995C3.10295 19.8015 3.75474 20.0841 4.46547 20.2322C4.87098 20.3167 5.13122 20.7139 5.04674 21.1194C4.96226 21.5249 4.56505 21.7851 4.15954 21.7007C3.26276 21.5138 2.39634 21.1492 1.66921 20.5918C0.637213 19.8164 0.0654373 18.7406 0.0654373 17.609C0.0654373 16.4771 0.637524 15.4011 1.67005 14.6256C2.38811 14.078 3.24142 13.7278 4.11411 13.5311Z" fill="#868B90"/>
</svg>
