<svg width="24" height="25" viewBox="0 0 24 25" fill="none" xmlns="http://www.w3.org/2000/svg">
<path d="M11.475 14.0506C10.5187 13.3431 9.34149 12.9997 8.15477 13.082C6.96804 13.1643 5.84952 13.6669 5 14.4996M5 14.4996V5.4996C5.93464 4.58346 7.19124 4.07031 8.5 4.07031C9.80876 4.07031 11.0654 4.58346 12 5.4996C12.9346 6.41573 14.1912 6.92888 15.5 6.92888C16.8088 6.92888 18.0654 6.41573 19 5.4996V10.4996M5 14.4996V21.5M17.8 21.3175L15.628 22.4555C15.5635 22.489 15.491 22.504 15.4186 22.4987C15.3461 22.4934 15.2765 22.4681 15.2176 22.4256C15.1587 22.3831 15.1127 22.325 15.0849 22.2579C15.0571 22.1907 15.0485 22.1172 15.06 22.0455L15.475 19.6345L13.718 17.9275C13.6656 17.8768 13.6284 17.8123 13.6108 17.7416C13.5933 17.6708 13.5959 17.5965 13.6186 17.5271C13.6412 17.4578 13.6829 17.3962 13.7388 17.3494C13.7948 17.3026 13.8627 17.2725 13.935 17.2625L16.363 16.9105L17.449 14.7175C17.4815 14.6521 17.5315 14.5972 17.5935 14.5588C17.6556 14.5204 17.727 14.5 17.8 14.5C17.8729 14.5 17.9444 14.5204 18.0064 14.5588C18.0685 14.5972 18.1185 14.6521 18.151 14.7175L19.237 16.9105L21.665 17.2625C21.737 17.2728 21.8047 17.3031 21.8604 17.35C21.9162 17.3968 21.9576 17.4583 21.9802 17.5275C22.0028 17.5967 22.0056 17.6708 21.9882 17.7415C21.9708 17.8122 21.9341 17.8766 21.882 17.9275L20.125 19.6345L20.539 22.0445C20.5514 22.1163 20.5434 22.1902 20.516 22.2578C20.4885 22.3254 20.4426 22.3839 20.3836 22.4267C20.3245 22.4695 20.2547 22.4949 20.1819 22.5C20.1092 22.505 20.0364 22.4896 19.972 22.4555L17.8 21.3175Z" stroke-width="2" stroke-linecap="round" stroke-linejoin="round"/>
</svg>
