<svg width="22" height="22" viewBox="0 0 22 22" fill="none" class="svg-icon" style="vertical-align: middle;fill: currentColor;overflow: hidden;" viewBox="0 0 1040 1024" version="1.1" xmlns="http://www.w3.org/2000/svg">
<path d="M76.783364 332.896406l-42.657425 51.188909 42.657425-68.251879 409.511272 255.944545c18.223252 10.664356 50.028627 10.655825 68.251879 0l409.511272-255.944545 42.657425 68.251879-42.657425-51.188909 42.657425-51.188909-42.657425 68.251878-409.511272-255.944545c-18.223252-10.664356-50.028627-10.655825-68.251879 0L76.783364 349.959375l-42.657425-68.251878 42.657425 51.188909z m-42.657425 51.188909c-34.492793-29.689567-34.561045-72.637062 0-102.377818L443.637212 17.231467C487.361072-5.718228 553.403296-5.769417 597.203939 17.231467l409.511273 264.47603c34.492793 29.689567 34.561045 72.637062 0 102.377818L597.203939 648.561345c-43.72386 22.949694-109.766084 23.000883-153.566727 0L34.125939 384.085315z m-8.531484 76.783363C0.119441 493.151817 2.781264 532.29427 34.125939 563.246497l409.511273 264.47603c43.817706 22.847316 109.817273 22.796128 153.566727 0l409.511273-264.47603c31.395864-30.986353 33.95531-70.128805 8.531485-102.377819-3.361405 2.900705-5.972039 5.750221-8.531485 8.531485L597.203939 733.876193c-43.749454 22.864379-109.749021 22.898505-153.566727 0L34.125939 469.400163c-2.559445-2.781264-5.17008-5.63078-8.531484-8.531485z m0 179.161182C0.119441 672.312999 2.781264 711.455451 34.125939 742.407678l409.511273 264.476031c43.817706 22.847316 109.817273 22.796128 153.566727 0l409.511273-264.476031c31.395864-30.986353 33.95531-70.128805 8.531485-102.377818-3.361405 2.900705-5.972039 5.750221-8.531485 8.531485l-409.511273 264.47603c-43.749454 22.864379-109.749021 22.898505-153.566727 0L34.125939 648.561345c-2.559445-2.781264-5.17008-5.63078-8.531484-8.531485z" stroke="none" strokeWidth="1.5" strokeLinecap="round" strokeLinejoin="round" />
</svg>