<?xml version="1.0" encoding="utf-8"?>
<!-- Svg Vector Icons : http://www.onlinewebfonts.com/icon -->
<!DOCTYPE svg PUBLIC "-//W3C//DTD SVG 1.1//EN" "http://www.w3.org/Graphics/SVG/1.1/DTD/svg11.dtd">
<svg version="1.1" xmlns="http://www.w3.org/2000/svg" xmlns:xlink="http://www.w3.org/1999/xlink" x="0px" y="0px" viewBox="0 0 256 256" enable-background="new 0 0 256 256" xml:space="preserve">
<metadata> Svg Vector Icons : http://www.onlinewebfonts.com/icon </metadata>
<g><g><g><path fill="currentColor" d="M21.8,9.5c-4.4,1.2-8.4,4.5-10.8,8.9l-1,1.9v86.5v86.5l1.4,2.6c2.8,5,7,7,14.5,7h4.3v-81.5c0-89.5-0.2-84.2,2.8-87.8c0.7-0.9,2.4-2.2,3.6-2.8l2.2-1.1l75.6-0.1l75.7-0.1v-6c0-6.9-0.6-8.7-3.6-11.3c-3.7-3.2,2.5-2.9-84-3.1C41.2,8.9,23.5,9,21.8,9.5z"/><path fill="currentColor" d="M47.5,37.2c-4.3,1.4-7.8,4.6-9.2,8.6c-0.8,2.2-0.8,7-0.8,88.4v86l1,2.1c1.3,2.7,4,5.4,6.7,6.7c2.1,1,2.5,1,43.1,1.1c22.5,0,40.9,0,40.9-0.1c0-0.1-1.2-2-2.6-4c-2.9-4.3-4.4-7-6.9-12.6l-1.7-4l-29.2-0.2c-28.2-0.2-29.2-0.3-29.9-1.1c-0.6-0.8-0.7-11.8-0.7-75.4c0-73.1,0-74.4,0.9-75c0.6-0.3,23-0.5,69.2-0.5h68.3l0.7,1c0.7,0.9,0.7,4.5,0.7,29.6v28.5l2.7,0.6c3.5,0.7,11.3,3.4,14.6,5.1c1.4,0.7,2.8,1.4,2.9,1.4s0.2-17.3,0.2-38.6V46.3l-1.1-2.4c-0.6-1.3-2-3.1-3.1-4.1c-4-3.4,2.7-3.1-86-3.1C84.6,36.8,48.2,37,47.5,37.2z"/><path fill="currentColor" d="M74.7,75.5c-2,1.2-2.9,3.4-2.9,6.8c0,2.9,0.8,4.8,2.6,6.2l1.3,1h52.3c41.6,0,52.5-0.1,53.3-0.7c2.1-1.1,2.9-3,2.9-6.6c0-3.8-0.6-5.2-2.8-6.6l-1.6-1.1H128C76.8,74.5,76.2,74.5,74.7,75.5z"/><path fill="currentColor" d="M75,101.5c-2.4,1.2-3.4,3.4-3.2,7.5c0.1,3.3,0.2,3.5,1.9,5l1.7,1.6l52.6-0.1c57.1-0.1,53.7,0,55.3-2.8c0.9-1.5,1-7.1,0.1-8.8c-0.3-0.6-1.3-1.6-2.1-2.2l-1.6-1.1h-51.6C80.1,100.6,76.6,100.7,75,101.5z"/><path fill="currentColor" d="M176.7,124.9c-19.8,2.6-37.5,15.1-46.6,32.9c-4.7,9.2-6.7,17.5-6.7,28.2c0,9.8,1.7,17.4,5.6,26.1c5.3,11.5,15.4,22,27,28.2c4.8,2.6,12.3,5.1,17.9,6.1c5.6,1,15.5,1,21.2,0c30.2-5.3,51.8-32.1,50.7-62.7c-0.5-12.1-3.8-22.3-10.7-32.5c-3-4.6-11.2-12.8-15.8-15.8C206.8,126.7,191.4,123,176.7,124.9z M192,145.5c9.6,5.8,5.5,20.4-5.7,20.4c-4.8,0-8.7-2.8-10.3-7.4c-0.9-2.6-0.9-4.5,0-7.1c1.6-4.8,5.4-7.4,10.5-7.4C189.1,144,189.8,144.2,192,145.5z M193.8,172.1c1.2,1,1.3,1.4,1.3,3.9c0,2.4-2.5,16.6-5.4,30.5c-0.5,2.5-0.9,5.7-0.9,7.3c0,5.4,2.9,6.7,8.7,3.7c3.3-1.7,4.4-1.5,4.7,0.7c0.3,2.7-7.2,8.1-12.9,9.1c-3.6,0.7-9.3,0.6-12-0.2c-2.9-0.8-6.2-3.7-7.6-6.4c-1.5-3-1.3-5.7,1.8-23.1c1.5-8.7,2.8-16.3,2.8-17c0-2.1-1.4-3.3-4.4-3.7c-3.6-0.5-5-1.4-4.8-3.4c0.2-2.5,1.1-2.7,14.9-2.7h12.4L193.8,172.1z"/><path fill="currentColor" d="M74.7,127.7c-2,1.2-2.9,3.4-2.9,6.8c0,2.9,0.8,4.8,2.6,6.2c1.2,1,1.5,1,27.6,0.9l26.4,0l2.8-3.5c2.6-3.3,7.1-7.6,10.7-10.2l1.4-1l-33.6,0C76.9,126.7,76.1,126.8,74.7,127.7z"/><path fill="currentColor" d="M75,153.7c-2.4,1.2-3.4,3.4-3.2,7.5c0.1,3.3,0.2,3.5,1.9,5l1.7,1.6H96h20.5l0.6-2.2c0.3-1.3,1.4-4.5,2.6-7.3c1.1-2.8,2.1-5.1,2.1-5.2c0-0.1-10.1-0.2-22.5-0.2C78.7,152.8,76.5,152.9,75,153.7z"/></g></g></g>
</svg>