<svg
    width="27"
    height="27"
    viewBox="0 0 20 21"
    fill="none"
    xmlns="http://www.w3.org/2000/svg"
>
    <path
    className="dark:stroke-white"
    d="M5.32467 18.05C6.69967 18.875 8.34967 19.3333 9.99967 19.3333C15.0413 19.3333 19.1663 15.2083 19.1663 10.1667C19.1663 5.125 15.0413 1 9.99967 1C4.95801 1 0.833008 5.125 0.833008 10.1667C0.833008 11.8167 1.29134 13.375 2.02467 14.75L1.27345 17.6393C1.07873 18.3883 1.77193 19.0651 2.51599 18.8525L5.32467 18.05Z"
    stroke="currentColor"
    ></path>
    <path
    className="dark:fill-white"
    d="M14.125 12.7779C14.125 12.9264 14.092 13.079 14.0217 13.2275C13.9515 13.376 13.8606 13.5162 13.7408 13.6482C13.5384 13.871 13.3153 14.0319 13.0633 14.135C12.8154 14.2381 12.5469 14.2917 12.2577 14.2917C11.8363 14.2917 11.386 14.1927 10.9109 13.9906C10.4358 13.7885 9.96075 13.5162 9.4898 13.1739C9.01471 12.8274 8.56441 12.4437 8.13476 12.0189C7.70925 11.5899 7.32505 11.1402 6.98216 10.67C6.6434 10.1997 6.37074 9.7295 6.17245 9.26337C5.97415 8.79312 5.875 8.3435 5.875 7.9145C5.875 7.634 5.92457 7.36587 6.02372 7.11837C6.12287 6.86675 6.27986 6.63575 6.49881 6.4295C6.76321 6.16962 7.05239 6.04175 7.3581 6.04175C7.47377 6.04175 7.58945 6.0665 7.69273 6.116C7.80014 6.1655 7.89516 6.23975 7.96952 6.347L8.92795 7.69587C9.00232 7.799 9.05602 7.89387 9.0932 7.98462C9.13038 8.07125 9.15104 8.15787 9.15104 8.23625C9.15104 8.33525 9.12212 8.43425 9.06428 8.52912C9.01058 8.624 8.93209 8.723 8.83294 8.822L8.51897 9.14787C8.47352 9.19325 8.45287 9.24687 8.45287 9.31287C8.45287 9.34587 8.457 9.37475 8.46526 9.40775C8.47765 9.44075 8.49005 9.4655 8.49831 9.49025C8.57267 9.62637 8.70074 9.80375 8.88251 10.0182C9.06842 10.2327 9.26671 10.4514 9.48153 10.67C9.70462 10.8886 9.91944 11.0907 10.1384 11.2764C10.3532 11.4579 10.5309 11.5816 10.6713 11.6559C10.692 11.6641 10.7168 11.6765 10.7457 11.6889C10.7787 11.7012 10.8118 11.7054 10.849 11.7054C10.9192 11.7054 10.9729 11.6806 11.0183 11.6352L11.3323 11.3259C11.4356 11.2227 11.5347 11.1444 11.6298 11.0949C11.7248 11.0371 11.8198 11.0082 11.9231 11.0082C12.0016 11.0082 12.0842 11.0247 12.1751 11.0619C12.266 11.099 12.361 11.1526 12.4643 11.2227L13.8317 12.1921C13.9391 12.2664 14.0135 12.353 14.0589 12.4561C14.1002 12.5592 14.125 12.6624 14.125 12.7779Z"
    fill="currentColor"
    ></path>
</svg>