<svg width="445" height="445" viewBox="0 0 445 445" fill="none" xmlns="http://www.w3.org/2000/svg">
<path className="fill-white dark:fill-black" d="M222.5 111.251L119.408 185.418L59.1476 144.626C48.3934 137.395 48.2082 121.82 58.777 114.218L129.791 63.0425C136.095 58.5925 144.625 58.4073 150.929 62.6719L222.5 111.251Z" />
<path className="fill-white dark:fill-black" d="M385.852 144.625L325.592 185.417L222.5 111.25L294.071 62.8568C300.56 58.5922 308.904 58.592 315.208 63.2274L386.223 114.403C396.791 121.819 396.606 137.394 385.852 144.625Z" />
<path className="fill-white dark:fill-black" d="M222.499 259.581L140.174 315.206L92.7077 281.089L58.5911 256.614C48.2077 249.012 48.3929 233.437 58.9617 226.206L119.222 185.414L222.499 259.581Z" />
<path className="fill-white dark:fill-black" d="M385.852 226.206C396.606 233.437 396.791 249.012 386.223 256.614L352.106 281.089L304.639 315.206L222.314 259.581L325.406 185.414L385.852 226.206Z" />
<path className="fill-white dark:fill-black" d="M346.359 321.513C348.769 319.659 352.292 321.513 352.292 324.48V338.016C352.292 345.247 348.028 351.737 341.538 354.889L230.288 406.249C225.282 408.474 219.719 408.474 214.713 406.249L103.463 354.889C96.9733 351.737 92.709 345.247 92.709 338.016V324.48C92.709 321.513 96.0466 319.659 98.6425 321.513L134.428 347.287C137.58 349.512 141.845 349.697 144.997 347.472L217.309 298.522C220.461 296.482 224.54 296.482 227.692 298.522L300.005 347.472C303.157 349.697 307.421 349.512 310.574 347.287L346.359 321.513Z" />
</svg>
