<svg width="445" height="445" viewBox="0 0 445 445" fill="none" xmlns="http://www.w3.org/2000/svg">
<path className="fill-white dark:fill-black" d="M83.4375 194.498V304.636C83.4375 310.384 86.0332 315.946 90.2978 319.655L189.681 404.761C202.661 415.886 222.5 406.615 222.5 389.742V313.722H313.54C331.154 313.722 340.054 292.398 327.631 279.79L222.5 174.659H103.277C92.3376 174.474 83.4375 183.373 83.4375 194.498Z" />
<path className="fill-white dark:fill-black" d="M341.723 35.4141H131.461C113.846 35.4141 104.946 56.7367 117.369 69.3451L222.5 174.477H341.723C352.663 174.477 361.563 165.576 361.563 154.637V55.2538C361.563 44.3142 352.663 35.4141 341.723 35.4141Z" />
</svg>
