<svg width="445" height="445" viewBox="0 0 445 445" fill="none" xmlns="http://www.w3.org/2000/svg">
<path className="fill-white dark:fill-black" opacity="0.13" d="M201.548 259.586L237.333 321.33L201.733 383.074H129.792L94.377 321.7L130.348 259.586H201.548Z" />
<path className="fill-white dark:fill-black" d="M195.429 261.07H132.016C128.679 261.07 125.712 262.924 124.044 265.706L92.3375 320.589C90.6687 323.37 90.6687 327.079 92.3375 329.86L124.044 384.743C125.712 387.524 128.679 389.379 132.016 389.379H195.429C198.767 389.379 201.733 387.524 203.402 384.743L235.108 329.86C236.777 327.079 236.777 323.37 235.108 320.589L203.402 265.706C201.733 262.739 198.767 261.07 195.429 261.07Z" />
<path className="fill-white dark:fill-black" d="M412.367 217.677C414.035 220.644 414.035 224.352 412.367 227.319L320.956 385.479C319.658 387.89 317.063 389.373 314.282 389.373C308.348 389.373 304.64 382.883 307.606 377.877L368.609 272.19C370.277 269.223 370.277 265.515 368.609 262.548L287.025 121.26C285.357 118.294 282.204 116.44 278.681 116.44H115.329C111.806 116.44 108.839 118.294 106.985 121.26L46.3543 226.577C43.2022 232.14 35.2293 232.14 31.8918 226.577C30.4085 223.981 30.4085 220.829 31.8918 218.233L123.117 60.2584C124.6 57.2917 127.938 55.4375 131.46 55.4375H312.984C316.506 55.4375 319.473 57.2917 321.327 60.2584L412.367 217.677Z" />
<path className="fill-white dark:fill-black" d="M335.418 272.194L270.522 384.557C268.854 387.523 265.702 389.378 262.179 389.378H251.054C243.637 389.378 239.002 381.405 242.71 374.915L268.668 330.044C270.337 327.078 270.337 323.369 268.668 320.403L220.46 236.965C218.606 233.998 215.269 232.144 211.746 232.144H115.329C111.806 232.144 108.839 233.998 106.985 236.965L81.0266 281.836C77.3183 288.326 68.0476 288.326 64.3392 281.836L58.777 272.38C57.1082 269.413 57.1082 265.705 58.777 262.738L123.487 150.376C125.156 147.409 128.308 145.555 131.831 145.555H261.437C264.96 145.555 267.926 147.409 269.781 150.376L334.676 262.738C336.901 265.519 336.902 269.413 335.418 272.194Z" />
</svg>
