<svg width="445" height="445" viewBox="0 0 445 445" fill="none" xmlns="http://www.w3.org/2000/svg">
<path className="fill-white dark:fill-black" d="M312.613 92.7109H356.186C359.523 92.7109 362.49 94.5651 364.159 97.3464L408.844 175.221C410.513 178.003 410.513 181.526 408.844 184.307L322.811 338.203C319.288 344.507 310.388 344.507 306.68 338.388L283.317 299.265C281.648 296.298 281.648 292.775 283.317 289.994L343.763 184.307C345.432 181.526 345.432 178.003 343.763 175.036L304.269 106.432C301.117 100.499 305.567 92.7109 312.613 92.7109Z" />
<path className="fill-white dark:fill-black" d="M182.821 92.7109H226.394C229.731 92.7109 232.698 94.5651 234.367 97.3464L279.052 175.221C280.721 178.003 280.721 181.526 279.052 184.307L193.019 338.203C189.496 344.507 180.596 344.507 176.888 338.388L153.525 299.265C151.856 296.298 151.856 292.775 153.525 289.994L213.971 184.307C215.64 181.526 215.64 178.003 213.971 175.036L174.477 106.432C171.325 100.499 175.775 92.7109 182.821 92.7109Z" />
<path className="fill-white dark:fill-black" d="M33.375 92.7109H92.8942C96.2317 92.7109 99.3838 94.5651 101.053 97.3464L145.923 176.89C147.592 179.671 147.592 183.194 145.923 186.161L125.156 221.761C121.634 227.88 112.734 227.88 109.211 221.761L33.375 92.7109Z" />
</svg>
