<?xml version="1.0" standalone="no"?>
<!DOCTYPE svg PUBLIC "-//W3C//DTD SVG 20010904//EN"
 "http://www.w3.org/TR/2001/REC-SVG-20010904/DTD/svg10.dtd">
<svg version="1.0" xmlns="http://www.w3.org/2000/svg"
 width="512.000000pt" height="512.000000pt" viewBox="0 0 512.000000 512.000000"
 preserveAspectRatio="xMidYMid meet">

<g transform="translate(0.000000,512.000000) scale(0.100000,-0.100000)"
fill="#000000" stroke="none">
<path d="M912 4420 c-124 -33 -197 -75 -293 -170 -93 -92 -144 -179 -174 -295
-23 -89 -23 -2141 0 -2230 29 -113 81 -203 169 -291 87 -86 152 -128 256 -165
l65 -24 669 -3 c737 -3 698 -6 732 59 22 43 11 91 -27 123 l-31 26 -606 0
c-342 0 -633 4 -666 10 -123 20 -242 99 -303 201 -63 106 -63 104 -63 836 l0
663 1920 0 1920 0 0 -286 0 -286 34 -34 c49 -49 114 -45 158 10 16 19 18 71
18 676 0 727 1 710 -67 850 -27 56 -56 95 -117 156 -86 86 -151 128 -256 166
l-65 23 -1600 2 c-1551 2 -1602 1 -1673 -17z m3198 -200 c129 -18 247 -98 313
-211 49 -83 57 -141 57 -401 l0 -238 -1920 0 -1920 0 0 238 c0 310 16 373 123
489 46 50 160 110 233 122 69 12 3033 13 3114 1z"/>
<path d="M1314 2486 c-49 -49 -45 -114 10 -158 19 -16 61 -18 488 -18 l466 0
31 26 c38 32 49 80 27 122 -33 64 -14 62 -524 62 l-464 0 -34 -34z"/>
<path d="M3445 2493 c-102 -21 -209 -67 -301 -128 -434 -289 -502 -902 -141
-1281 83 -89 138 -130 232 -177 270 -135 577 -123 832 33 l85 52 197 -196
c187 -186 199 -196 235 -196 30 0 45 7 72 34 28 28 34 41 34 77 0 42 -2 45
-195 239 l-195 195 37 55 c98 146 138 281 138 470 0 160 -16 232 -80 366 -143
298 -436 476 -778 473 -56 0 -133 -7 -172 -16z m333 -204 c26 -6 85 -29 132
-51 69 -33 100 -56 166 -122 128 -129 187 -272 187 -451 0 -242 -133 -457
-346 -559 -115 -55 -178 -70 -292 -69 -360 1 -635 275 -635 632 0 363 309 657
668 635 40 -2 94 -9 120 -15z"/>
</g>
</svg>
