<?xml version="1.0" standalone="no"?>
<!DOCTYPE svg PUBLIC "-//W3C//DTD SVG 20010904//EN"
 "http://www.w3.org/TR/2001/REC-SVG-20010904/DTD/svg10.dtd">
<svg version="1.0" xmlns="http://www.w3.org/2000/svg"
 width="512.000000pt" height="512.000000pt" viewBox="0 0 512.000000 512.000000"
 preserveAspectRatio="xMidYMid meet">

<g transform="translate(0.000000,512.000000) scale(0.100000,-0.100000)"
fill="#000000" stroke="none">
<path d="M930 4464 c-229 -49 -431 -246 -484 -474 -23 -98 -23 -2122 0 -2220
41 -175 172 -340 334 -419 144 -70 147 -71 853 -71 699 0 675 -2 703 67 19 43
5 93 -33 123 -25 20 -39 20 -638 20 -399 0 -632 4 -671 11 -162 30 -285 140
-335 300 -18 57 -19 103 -19 730 l0 669 1920 0 1920 0 0 -286 0 -286 34 -34
c24 -24 43 -34 66 -34 40 0 85 26 99 57 8 16 11 225 11 666 0 715 0 709 -68
847 -54 110 -168 223 -282 279 -154 75 -45 71 -1785 70 -1296 0 -1571 -3
-1625 -15z m3196 -205 c167 -31 296 -150 339 -314 11 -45 15 -116 15 -297 l0
-238 -1920 0 -1920 0 0 244 c0 211 3 252 19 305 48 155 165 263 321 297 75 17
3058 19 3146 3z"/>
<path d="M1314 2526 c-24 -24 -34 -43 -34 -66 0 -40 26 -85 57 -99 16 -7 174
-11 482 -11 444 0 459 1 484 20 38 30 52 80 33 123 -28 68 -23 67 -532 67
l-456 0 -34 -34z"/>
<path d="M3460 2535 c-183 -37 -347 -128 -466 -259 -313 -343 -292 -873 47
-1191 300 -282 743 -307 1091 -62 16 10 42 -12 213 -183 l195 -195 46 0 c39 0
50 5 75 33 22 25 29 42 29 74 0 41 -4 46 -196 239 l-196 196 35 49 c50 71 83
141 113 241 24 77 27 106 28 228 1 154 -15 232 -74 361 -88 195 -275 364 -483
435 -145 50 -316 62 -457 34z m287 -200 c219 -41 415 -214 487 -429 29 -86 39
-192 26 -281 -47 -323 -303 -546 -630 -548 -111 -1 -178 13 -275 58 -180 83
-301 230 -351 425 -24 96 -16 261 19 358 71 202 261 373 457 411 30 6 64 13
75 15 44 8 117 5 192 -9z"/>
</g>
</svg>
