<?xml version="1.0" standalone="no"?>
<!DOCTYPE svg PUBLIC "-//W3C//DTD SVG 20010904//EN"
 "http://www.w3.org/TR/2001/REC-SVG-20010904/DTD/svg10.dtd">
<svg version="1.0" xmlns="http://www.w3.org/2000/svg"
 width="2048.000000pt" height="2048.000000pt" viewBox="0 0 2048.000000 2048.000000"
 preserveAspectRatio="xMidYMid meet">

<g transform="translate(0.000000,2048.000000) scale(0.100000,-0.100000)"
fill="#000000" stroke="none">
<path d="M4150 15776 c-119 -33 -212 -111 -267 -224 -37 -75 -38 -78 -38 -192
0 -114 1 -117 38 -192 56 -115 150 -192 272 -224 41 -11 414 -14 2052 -14
1427 0 2017 -3 2055 -11 127 -27 124 -24 853 -750 578 -576 693 -685 768 -734
141 -92 273 -146 452 -188 l90 -21 2990 -6 2990 -5 103 -28 c249 -66 443 -177
617 -354 172 -176 287 -395 342 -653 17 -81 18 -215 18 -2795 l0 -2710 -23
-104 c-112 -505 -488 -881 -993 -993 l-104 -23 -6125 0 -6125 0 -104 23 c-502
111 -877 484 -993 988 l-22 99 -6 3550 -5 3550 -31 65 c-45 95 -111 162 -202
207 -75 37 -78 38 -192 38 -114 0 -117 -1 -192 -38 -91 -45 -157 -112 -202
-207 l-31 -65 -3 -3520 c-2 -2549 0 -3551 8 -3633 56 -564 349 -1105 785
-1452 322 -256 722 -419 1124 -460 144 -14 12238 -14 12382 0 403 41 801 204
1124 460 432 344 723 879 784 1442 8 66 11 972 11 2790 -1 2886 1 2788 -50
3023 -119 542 -452 1018 -935 1335 -171 112 -426 220 -646 274 -245 59 -64 56
-3222 56 -1975 0 -2913 3 -2957 11 -151 24 -117 -5 -865 739 -422 420 -706
695 -749 725 -136 95 -295 164 -486 213 -59 15 -257 16 -2155 18 -1657 2
-2099 0 -2135 -10z"/>
</g>
</svg>
