<?xml version="1.0" standalone="no"?>
<!DOCTYPE svg PUBLIC "-//W3C//DTD SVG 20010904//EN"
 "http://www.w3.org/TR/2001/REC-SVG-20010904/DTD/svg10.dtd">
<svg version="1.0" xmlns="http://www.w3.org/2000/svg"
 width="2048.000000pt" height="2048.000000pt" viewBox="0 0 2048.000000 2048.000000"
 preserveAspectRatio="xMidYMid meet">

<g transform="translate(0.000000,2048.000000) scale(0.100000,-0.100000)"
fill="#000000" stroke="none">
<path d="M4180 15776 c-222 -48 -370 -263 -333 -482 31 -182 167 -320 347
-353 42 -8 655 -11 2057 -11 1965 0 1998 0 2061 -20 36 -11 85 -34 109 -51 24
-17 333 -321 687 -675 403 -405 672 -667 723 -704 98 -73 271 -161 382 -194
195 -59 -2 -56 3143 -56 2039 0 2913 -3 2986 -11 194 -21 385 -85 540 -182 98
-61 138 -93 235 -189 191 -188 314 -427 357 -693 15 -91 17 -340 14 -2815 l-3
-2715 -32 -117 c-122 -452 -469 -799 -918 -921 l-120 -32 -6165 0 c-5972 0
-6167 1 -6245 19 -112 26 -217 62 -300 103 -371 186 -630 532 -700 937 -13 78
-15 488 -15 3570 0 2477 -3 3499 -11 3542 -33 180 -171 316 -353 347 -132 22
-266 -22 -365 -120 -64 -65 -104 -139 -120 -227 -15 -80 -15 -6848 -1 -7050
37 -514 256 -993 620 -1356 338 -337 746 -538 1245 -612 74 -11 1166 -13 6240
-13 5918 0 6154 1 6265 18 486 78 883 278 1215 612 333 335 533 744 607 1240
11 73 13 597 13 2825 0 3040 5 2802 -66 3084 -95 379 -302 734 -587 1008 -320
307 -694 494 -1152 575 -87 15 -339 17 -3070 22 -2744 6 -2978 7 -3016 23 -23
9 -61 28 -85 43 -24 15 -345 328 -714 695 -703 700 -728 722 -903 809 -102 51
-200 86 -320 113 l-97 22 -2050 2 c-1570 2 -2063 0 -2105 -10z"/>
</g>
</svg>
