<?xml version="1.0" encoding="UTF-8"?>
<!DOCTYPE svg PUBLIC "-//W3C//DTD SVG 1.1//EN" "http://www.w3.org/Graphics/SVG/1.1/DTD/svg11.dtd">
<svg xmlns="http://www.w3.org/2000/svg" version="1.1" width="512px" height="512px" style="shape-rendering:geometricPrecision; text-rendering:geometricPrecision; image-rendering:optimizeQuality; fill-rule:evenodd; clip-rule:evenodd" xmlns:xlink="http://www.w3.org/1999/xlink">
<g><path style="opacity:0.01" fill="#000000" d="M 184.5,51.5 C 190.319,50.3475 196.319,50.1808 202.5,51C 196.509,51.4995 190.509,51.6662 184.5,51.5 Z"/></g>
<g><path style="opacity:0.01" fill="#000000" d="M 306.5,51.5 C 312.319,50.3475 318.319,50.1808 324.5,51C 318.509,51.4995 312.509,51.6662 306.5,51.5 Z"/></g>
<g><path style="opacity:0.01" fill="#000000" d="M 182.5,52.5 C 181.127,52.6567 179.793,52.49 178.5,52C 180.066,51.235 181.399,51.4017 182.5,52.5 Z"/></g>
<g><path style="opacity:0.009" fill="#000000" d="M 204.5,52.5 C 205.601,51.4017 206.934,51.235 208.5,52C 207.207,52.49 205.873,52.6567 204.5,52.5 Z"/></g>
<g><path style="opacity:0.009" fill="#000000" d="M 300.5,52.5 C 301.601,51.4017 302.934,51.235 304.5,52C 303.207,52.49 301.873,52.6567 300.5,52.5 Z"/></g>
<g><path style="opacity:0.01" fill="#000000" d="M 326.5,52.5 C 327.601,51.4017 328.934,51.235 330.5,52C 329.207,52.49 327.873,52.6567 326.5,52.5 Z"/></g>
<g><path style="opacity:0.009" fill="#000000" d="M 177.5,53.5 C 176.448,53.6495 175.448,53.4828 174.5,53C 175.749,52.2599 176.749,52.4265 177.5,53.5 Z"/></g>
<g><path style="opacity:0.012" fill="#000000" d="M 209.5,53.5 C 209.897,52.475 210.563,52.3083 211.5,53C 210.906,53.4643 210.239,53.631 209.5,53.5 Z"/></g>
<g><path style="opacity:0.012" fill="#000000" d="M 297.5,53.5 C 297.897,52.475 298.563,52.3083 299.5,53C 298.906,53.4643 298.239,53.631 297.5,53.5 Z"/></g>
<g><path style="opacity:0.009" fill="#000000" d="M 331.5,53.5 C 332.251,52.4265 333.251,52.2599 334.5,53C 333.552,53.4828 332.552,53.6495 331.5,53.5 Z"/></g>
<g><path style="opacity:0.012" fill="#000000" d="M 171.5,54.5 C 171.897,53.475 172.563,53.3083 173.5,54C 172.906,54.4643 172.239,54.631 171.5,54.5 Z"/></g>
<g><path style="opacity:1" fill="#444ad2" d="M 326.5,52.5 C 327.919,53.4511 329.585,53.7845 331.5,53.5C 334.215,55.0719 337.215,56.0719 340.5,56.5C 342.649,57.7362 344.982,58.7362 347.5,59.5C 349.794,61.653 352.46,63.3197 355.5,64.5C 361.463,68.7949 366.796,73.7949 371.5,79.5C 371.738,81.4044 372.738,82.7377 374.5,83.5C 375.659,87.1513 377.326,90.4846 379.5,93.5C 379.595,95.7857 380.262,97.7857 381.5,99.5C 382.165,104.49 382.832,109.49 383.5,114.5C 383.489,116.045 383.156,117.378 382.5,118.5C 380.671,129.311 376.671,139.311 370.5,148.5C 369.833,149.833 369.167,151.167 368.5,152.5C 367.833,152.5 367.5,152.833 367.5,153.5C 366.833,153.5 366.5,153.833 366.5,154.5C 365.833,154.5 365.5,154.833 365.5,155.5C 364.833,155.5 364.5,155.833 364.5,156.5C 362.973,156.427 361.973,157.094 361.5,158.5C 360.833,158.5 360.5,158.833 360.5,159.5C 358.973,159.427 357.973,160.094 357.5,161.5C 356.508,161.328 355.842,161.662 355.5,162.5C 353.181,162.992 351.181,163.992 349.5,165.5C 348.508,165.328 347.842,165.662 347.5,166.5C 344.833,166.833 342.167,167.167 339.5,167.5C 334.041,167.897 328.708,167.397 323.5,166C 320.397,163.194 318.73,159.694 318.5,155.5C 319.091,152.386 320.758,149.886 323.5,148C 329.51,146.83 335.51,145.496 341.5,144C 347.288,141.707 351.621,137.873 354.5,132.5C 355.906,132.027 356.573,131.027 356.5,129.5C 357.167,128.833 357.833,128.167 358.5,127.5C 359.793,126.158 360.626,124.491 361,122.5C 361.814,117.98 361.647,113.646 360.5,109.5C 360.167,109.5 359.833,109.5 359.5,109.5C 359.829,106.772 359.163,104.438 357.5,102.5C 357.737,101.209 357.404,100.209 356.5,99.5C 355.66,97.1475 354.326,95.1475 352.5,93.5C 352.573,91.9731 351.906,90.9731 350.5,90.5C 347.224,86.5293 343.224,83.5293 338.5,81.5C 337.713,79.8958 336.38,79.2291 334.5,79.5C 333.22,78.0687 331.553,77.4021 329.5,77.5C 328.432,76.5655 327.099,76.2322 325.5,76.5C 323.5,75.8333 321.5,75.1667 319.5,74.5C 309.225,72.7733 299.892,75.1066 291.5,81.5C 291.167,82.1667 290.833,82.8333 290.5,83.5C 289.833,83.5 289.5,83.8333 289.5,84.5C 287.596,84.7376 286.262,85.7376 285.5,87.5C 284.833,87.5 284.5,87.8333 284.5,88.5C 283.094,88.9731 282.427,89.9731 282.5,91.5C 281.833,91.5 281.5,91.8333 281.5,92.5C 280.833,92.5 280.5,92.8333 280.5,93.5C 279.094,93.9731 278.427,94.9731 278.5,96.5C 277.662,96.8417 277.328,97.5084 277.5,98.5C 276.833,98.5 276.5,98.8333 276.5,99.5C 275.662,99.8417 275.328,100.508 275.5,101.5C 274.662,101.842 274.328,102.508 274.5,103.5C 273.662,103.842 273.328,104.508 273.5,105.5C 272.662,105.842 272.328,106.508 272.5,107.5C 271.833,108.167 271.167,108.833 270.5,109.5C 267.387,116.918 264.721,124.585 262.5,132.5C 262.167,133.167 261.833,133.833 261.5,134.5C 260.833,134.5 260.5,134.833 260.5,135.5C 259.508,135.328 258.842,135.662 258.5,136.5C 255.615,136.806 252.948,136.473 250.5,135.5C 248.5,133.329 246.666,130.996 245,128.5C 243.583,121.791 241.416,115.458 238.5,109.5C 237.833,108.833 237.167,108.167 236.5,107.5C 235.258,103.345 233.258,99.678 230.5,96.5C 230.573,94.9731 229.906,93.9731 228.5,93.5C 228.167,92.5 227.5,91.8333 226.5,91.5C 226.573,89.9731 225.906,88.9731 224.5,88.5C 224.5,87.8333 224.167,87.5 223.5,87.5C 222.738,85.7376 221.404,84.7376 219.5,84.5C 218.738,82.7376 217.404,81.7376 215.5,81.5C 214.486,80.3263 213.153,79.6596 211.5,79.5C 210.22,78.0687 208.553,77.4021 206.5,77.5C 203.264,76.1347 199.931,75.1347 196.5,74.5C 187.664,73.2528 179.331,74.9195 171.5,79.5C 171.167,80.1667 170.833,80.8333 170.5,81.5C 169.508,81.3284 168.842,81.6618 168.5,82.5C 167.508,82.3284 166.842,82.6618 166.5,83.5C 165.833,83.5 165.5,83.8333 165.5,84.5C 164.833,84.5 164.5,84.8333 164.5,85.5C 163.508,85.3284 162.842,85.6618 162.5,86.5C 161.833,86.5 161.5,86.8333 161.5,87.5C 160.833,87.5 160.5,87.8333 160.5,88.5C 159.833,88.5 159.5,88.8333 159.5,89.5C 158.833,89.5 158.5,89.8333 158.5,90.5C 157.094,90.9731 156.427,91.9731 156.5,93.5C 155.833,93.5 155.5,93.8333 155.5,94.5C 154.662,94.8417 154.328,95.5084 154.5,96.5C 153.833,96.5 153.5,96.8333 153.5,97.5C 152.662,97.8417 152.328,98.5084 152.5,99.5C 151.596,100.209 151.263,101.209 151.5,102.5C 149.837,104.438 149.171,106.772 149.5,109.5C 149.167,109.5 148.833,109.5 148.5,109.5C 147.838,111.304 147.505,113.304 147.5,115.5C 147.343,118.814 148.009,121.814 149.5,124.5C 150.899,127.629 152.565,130.629 154.5,133.5C 157.719,139.391 162.052,144.391 167.5,148.5C 171.302,152.237 175.635,155.237 180.5,157.5C 184.347,160.593 188.68,162.926 193.5,164.5C 195.509,166.065 197.843,167.065 200.5,167.5C 200.5,167.833 200.5,168.167 200.5,168.5C 213.722,174.638 227.722,177.971 242.5,178.5C 245.167,178.5 247.833,178.5 250.5,178.5C 302.998,179.333 355.665,179.833 408.5,180C 422.241,183.577 431.241,192.077 435.5,205.5C 435.833,205.5 436.167,205.5 436.5,205.5C 436.5,274.5 436.5,343.5 436.5,412.5C 435.549,413.919 435.216,415.585 435.5,417.5C 433.928,420.215 432.928,423.215 432.5,426.5C 431.662,426.842 431.328,427.508 431.5,428.5C 430.662,428.842 430.328,429.508 430.5,430.5C 429.662,430.842 429.328,431.508 429.5,432.5C 428.833,432.5 428.5,432.833 428.5,433.5C 427.662,433.842 427.328,434.508 427.5,435.5C 426.833,435.5 426.5,435.833 426.5,436.5C 425.833,436.833 425.167,437.167 424.5,437.5C 420.787,440.172 418.121,443.172 416.5,446.5C 416.5,446.833 416.5,447.167 416.5,447.5C 415.508,447.328 414.842,447.662 414.5,448.5C 413.833,448.5 413.5,448.833 413.5,449.5C 411.973,449.427 410.973,450.094 410.5,451.5C 409.508,451.328 408.842,451.662 408.5,452.5C 407.508,452.328 406.842,452.662 406.5,453.5C 405.508,453.328 404.842,453.662 404.5,454.5C 403.508,454.328 402.842,454.662 402.5,455.5C 401.209,455.263 400.209,455.596 399.5,456.5C 398.209,456.263 397.209,456.596 396.5,457.5C 301.833,458.833 207.167,458.833 112.5,457.5C 106.751,455.127 101.084,452.46 95.5,449.5C 91.1308,446.131 87.4642,442.131 84.5,437.5C 81.8299,432.825 79.1633,428.159 76.5,423.5C 75.5,421.5 74.5,419.5 73.5,417.5C 73.7845,415.585 73.4511,413.919 72.5,412.5C 72.1797,342.144 72.513,271.811 73.5,201.5C 73.8333,201.5 74.1667,201.5 74.5,201.5C 79.6712,190.167 88.3378,183 100.5,180C 110.867,179.24 121.201,179.406 131.5,180.5C 133.411,181.075 135.078,182.075 136.5,183.5C 136.328,184.492 136.662,185.158 137.5,185.5C 137.81,189.7 137.143,193.7 135.5,197.5C 134.833,197.5 134.5,197.833 134.5,198.5C 133.833,198.5 133.5,198.833 133.5,199.5C 132.508,199.328 131.842,199.662 131.5,200.5C 121.357,201.094 111.357,201.76 101.5,202.5C 100.508,202.328 99.8417,202.662 99.5,203.5C 98.8333,203.5 98.5,203.833 98.5,204.5C 97.8333,204.5 97.5,204.833 97.5,205.5C 96.6618,205.842 96.3284,206.508 96.5,207.5C 95.3346,275.665 95.1679,343.999 96,412.5C 96.2321,413.737 96.7321,414.737 97.5,415.5C 100.005,423.34 105.005,429.007 112.5,432.5C 115.719,434.718 119.386,435.885 123.5,436C 210.833,436.667 298.167,436.667 385.5,436C 398.484,434.504 407.151,427.671 411.5,415.5C 412.268,414.737 412.768,413.737 413,412.5C 413.832,343.999 413.665,275.665 412.5,207.5C 412.672,206.508 412.338,205.842 411.5,205.5C 410.738,203.738 409.404,202.738 407.5,202.5C 354.002,201.667 300.335,201.167 246.5,201C 240.279,200.729 234.279,199.896 228.5,198.5C 222.475,196.783 216.308,195.116 210,193.5C 208.93,193.528 208.097,193.861 207.5,194.5C 207.167,194.5 206.833,194.5 206.5,194.5C 205.791,193.596 204.791,193.263 203.5,193.5C 202.791,192.596 201.791,192.263 200.5,192.5C 199.791,191.596 198.791,191.263 197.5,191.5C 196.22,190.069 194.553,189.402 192.5,189.5C 191.791,188.596 190.791,188.263 189.5,188.5C 185.818,185.992 181.818,183.992 177.5,182.5C 175.151,180.659 172.485,179.326 169.5,178.5C 165.447,175.117 161.114,172.117 156.5,169.5C 149.131,163.132 142.464,156.132 136.5,148.5C 135.32,145.46 133.653,142.794 131.5,140.5C 131.672,139.508 131.338,138.842 130.5,138.5C 130.737,137.209 130.404,136.209 129.5,135.5C 128.518,132.237 127.851,128.903 127.5,125.5C 127.092,115.725 127.758,106.058 129.5,96.5C 134.233,82.9291 142.567,72.0958 154.5,64C 159.101,61.2021 163.768,58.7021 168.5,56.5C 169.5,56.5 170.5,56.5 171.5,56.5C 186.908,52.2751 202.241,52.6085 217.5,57.5C 219.216,57.6287 220.883,57.962 222.5,58.5C 224.794,60.653 227.46,62.3197 230.5,63.5C 232.46,65.1563 234.46,66.823 236.5,68.5C 240.528,72.8593 244.528,77.1927 248.5,81.5C 248.427,83.0269 249.094,84.0269 250.5,84.5C 251.11,86.4341 252.11,88.1007 253.5,89.5C 254.167,92.1667 254.833,92.1667 255.5,89.5C 256.89,88.1007 257.89,86.4341 258.5,84.5C 259.167,84.1667 259.833,83.8333 260.5,83.5C 266.139,77.5263 271.805,71.5263 277.5,65.5C 283.08,60.5431 289.413,56.8764 296.5,54.5C 306.411,52.7896 316.411,52.1229 326.5,52.5 Z M 219.5,84.5 C 221.404,84.7376 222.738,85.7376 223.5,87.5C 222.833,87.5 222.167,87.5 221.5,87.5C 220.833,86.5 220.167,85.5 219.5,84.5 Z M 289.5,84.5 C 288.833,85.5 288.167,86.5 287.5,87.5C 286.833,87.5 286.167,87.5 285.5,87.5C 286.262,85.7376 287.596,84.7376 289.5,84.5 Z M 224.5,88.5 C 225.906,88.9731 226.573,89.9731 226.5,91.5C 225.833,91.1667 225.167,90.8333 224.5,90.5C 224.5,89.8333 224.5,89.1667 224.5,88.5 Z M 284.5,88.5 C 284.5,89.1667 284.5,89.8333 284.5,90.5C 283.833,90.8333 283.167,91.1667 282.5,91.5C 282.427,89.9731 283.094,88.9731 284.5,88.5 Z M 253.5,89.5 C 254.167,89.5 254.833,89.5 255.5,89.5C 254.833,92.1667 254.167,92.1667 253.5,89.5 Z M 158.5,90.5 C 158.573,92.0269 157.906,93.0269 156.5,93.5C 156.427,91.9731 157.094,90.9731 158.5,90.5 Z M 350.5,90.5 C 351.906,90.9731 352.573,91.9731 352.5,93.5C 351.094,93.0269 350.427,92.0269 350.5,90.5 Z M 228.5,93.5 C 229.906,93.9731 230.573,94.9731 230.5,96.5C 229.094,96.0269 228.427,95.0269 228.5,93.5 Z M 280.5,93.5 C 280.573,95.0269 279.906,96.0269 278.5,96.5C 278.427,94.9731 279.094,93.9731 280.5,93.5 Z"/></g>
<g><path style="opacity:0.678" fill="#32379a" d="M 182.5,52.5 C 192.589,52.1229 202.589,52.7896 212.5,54.5C 213.209,55.404 214.209,55.7373 215.5,55.5C 216.167,56.1667 216.833,56.8333 217.5,57.5C 202.241,52.6085 186.908,52.2751 171.5,56.5C 173.5,55.5 175.5,54.5 177.5,53.5C 179.415,53.7845 181.081,53.4511 182.5,52.5 Z"/></g>
<g><path style="opacity:0.01" fill="#000000" d="M 212.5,54.5 C 212.897,53.475 213.563,53.3083 214.5,54C 213.906,54.4643 213.239,54.631 212.5,54.5 Z"/></g>
<g><path style="opacity:0.012" fill="#000000" d="M 296.5,54.5 C 295.761,54.631 295.094,54.4643 294.5,54C 295.437,53.3083 296.103,53.475 296.5,54.5 Z"/></g>
<g><path style="opacity:0.01" fill="#000000" d="M 335.5,54.5 C 335.897,53.475 336.563,53.3083 337.5,54C 336.906,54.4643 336.239,54.631 335.5,54.5 Z"/></g>
<g><path style="opacity:0.008" fill="#000000" d="M 168.5,55.5 C 168.897,54.475 169.563,54.3083 170.5,55C 169.906,55.4643 169.239,55.631 168.5,55.5 Z"/></g>
<g><path style="opacity:0.01" fill="#000000" d="M 215.5,55.5 C 215.897,54.475 216.563,54.3083 217.5,55C 216.906,55.4643 216.239,55.631 215.5,55.5 Z"/></g>
<g><path style="opacity:0.008" fill="#000000" d="M 340.5,55.5 C 339.761,55.631 339.094,55.4643 338.5,55C 339.437,54.3083 340.103,54.475 340.5,55.5 Z"/></g>
<g><path style="opacity:0.01" fill="#000000" d="M 168.5,55.5 C 168.5,55.8333 168.5,56.1667 168.5,56.5C 165.833,56.1667 165.833,55.8333 168.5,55.5 Z"/></g>
<g><path style="opacity:0.012" fill="#000000" d="M 218.5,55.5 C 219.833,56.1667 219.833,56.1667 218.5,55.5 Z"/></g>
<g><path style="opacity:0.01" fill="#000000" d="M 340.5,56.5 C 340.5,56.1667 340.5,55.8333 340.5,55.5C 343.167,55.8333 343.167,56.1667 340.5,56.5 Z"/></g>
<g><path style="opacity:0.012" fill="#000000" d="M 164.5,56.5 C 165.833,57.1667 165.833,57.1667 164.5,56.5 Z"/></g>
<g><path style="opacity:0.012" fill="#000000" d="M 222.5,57.5 C 223.833,58.1667 223.833,58.1667 222.5,57.5 Z"/></g>
<g><path style="opacity:0.012" fill="#000000" d="M 347.5,58.5 C 348.833,59.1667 348.833,59.1667 347.5,58.5 Z"/></g>
<g><path style="opacity:0.012" fill="#000000" d="M 230.5,62.5 C 231.833,63.1667 231.833,63.1667 230.5,62.5 Z"/></g>
<g><path style="opacity:0.008" fill="#000000" d="M 232.5,63.5 C 233.833,64.1667 233.833,64.1667 232.5,63.5 Z"/></g>
<g><path style="opacity:0.008" fill="#000000" d="M 275.5,63.5 C 276.833,64.1667 276.833,64.1667 275.5,63.5 Z"/></g>
<g><path style="opacity:0.012" fill="#000000" d="M 355.5,63.5 C 356.833,64.1667 356.833,64.1667 355.5,63.5 Z"/></g>
<g><path style="opacity:0.008" fill="#000000" d="M 150.5,64.5 C 151.833,65.1667 151.833,65.1667 150.5,64.5 Z"/></g>
<g><path style="opacity:0.008" fill="#000000" d="M 357.5,64.5 C 358.833,65.1667 358.833,65.1667 357.5,64.5 Z"/></g>
<g><path style="opacity:0.004" fill="#000000" d="M 236.5,68.5 C 237.167,67.1667 237.833,67.1667 238.5,68.5C 237.833,68.5 237.167,68.5 236.5,68.5 Z"/></g>
<g><path style="opacity:0.004" fill="#000000" d="M 238.5,68.5 C 239.167,68.5 239.5,68.8333 239.5,69.5C 239.167,69.1667 238.833,68.8333 238.5,68.5 Z"/></g>
<g><path style="opacity:0.004" fill="#000000" d="M 269.5,68.5 C 270.833,69.1667 270.833,69.1667 269.5,68.5 Z"/></g>
<g><path style="opacity:0.008" fill="#000000" d="M 239.5,69.5 C 240.167,69.5 240.5,69.8333 240.5,70.5C 240.167,70.1667 239.833,69.8333 239.5,69.5 Z"/></g>
<g><path style="opacity:0.008" fill="#000000" d="M 269.5,69.5 C 268.833,70.1667 268.833,70.1667 269.5,69.5 Z"/></g>
<g><path style="opacity:0.008" fill="#000000" d="M 240.5,70.5 C 241.167,70.5 241.5,70.8333 241.5,71.5C 241.167,71.1667 240.833,70.8333 240.5,70.5 Z"/></g>
<g><path style="opacity:0.008" fill="#000000" d="M 268.5,70.5 C 267.833,71.1667 267.833,71.1667 268.5,70.5 Z"/></g>
<g><path style="opacity:0.004" fill="#000000" d="M 241.5,71.5 C 242.167,71.5 242.5,71.8333 242.5,72.5C 242.167,72.1667 241.833,71.8333 241.5,71.5 Z"/></g>
<g><path style="opacity:0.004" fill="#000000" d="M 267.5,71.5 C 266.833,72.1667 266.833,72.1667 267.5,71.5 Z"/></g>
<g><path style="opacity:0.004" fill="#000000" d="M 242.5,72.5 C 243.833,73.1667 243.833,73.1667 242.5,72.5 Z"/></g>
<g><path style="opacity:0.004" fill="#000000" d="M 266.5,72.5 C 265.833,73.1667 265.833,73.1667 266.5,72.5 Z"/></g>
<g><path style="opacity:1" fill="#363ca8" d="M 277.5,65.5 C 271.805,71.5263 266.139,77.5263 260.5,83.5C 264.787,76.2126 270.454,70.2126 277.5,65.5 Z"/></g>
<g><path style="opacity:0.004" fill="#000000" d="M 191.5,76.5 C 192.601,75.4017 193.934,75.235 195.5,76C 194.207,76.49 192.873,76.6567 191.5,76.5 Z"/></g>
<g><path style="opacity:0.173" fill="#32379a" d="M 319.5,74.5 C 313.521,74.4925 307.854,75.4925 302.5,77.5C 301.209,77.2627 300.209,77.596 299.5,78.5C 298.508,78.3284 297.842,78.6618 297.5,79.5C 296.508,79.3284 295.842,79.6618 295.5,80.5C 294.508,80.3284 293.842,80.6618 293.5,81.5C 292.833,81.5 292.167,81.5 291.5,81.5C 299.892,75.1066 309.225,72.7733 319.5,74.5 Z"/></g>
<g><path style="opacity:0.004" fill="#000000" d="M 313.5,76.5 C 314.601,75.4017 315.934,75.235 317.5,76C 316.207,76.49 314.873,76.6567 313.5,76.5 Z"/></g>
<g><path style="opacity:0.009" fill="#000000" d="M 183.5,76.5 C 185.199,76.3398 186.866,76.5065 188.5,77C 186.613,77.7796 184.946,77.6129 183.5,76.5 Z"/></g>
<g><path style="opacity:0.009" fill="#000000" d="M 198.5,77.5 C 199.601,76.4017 200.934,76.235 202.5,77C 201.207,77.49 199.873,77.6567 198.5,77.5 Z"/></g>
<g><path style="opacity:0.01" fill="#000000" d="M 306.5,77.5 C 307.601,76.4017 308.934,76.235 310.5,77C 309.207,77.49 307.873,77.6567 306.5,77.5 Z"/></g>
<g><path style="opacity:0.009" fill="#000000" d="M 325.5,76.5 C 324.054,77.6129 322.387,77.7796 320.5,77C 322.134,76.5065 323.801,76.3398 325.5,76.5 Z"/></g>
<g><path style="opacity:0.259" fill="#32379a" d="M 196.5,74.5 C 191.924,74.4379 187.591,75.1045 183.5,76.5C 181.901,76.2322 180.568,76.5655 179.5,77.5C 178.209,77.2627 177.209,77.596 176.5,78.5C 175.508,78.3284 174.842,78.6618 174.5,79.5C 173.5,79.5 172.5,79.5 171.5,79.5C 179.331,74.9195 187.664,73.2528 196.5,74.5 Z"/></g>
<g><path style="opacity:0.008" fill="#000000" d="M 179.5,77.5 C 180.552,77.3505 181.552,77.5172 182.5,78C 181.251,78.7401 180.251,78.5735 179.5,77.5 Z"/></g>
<g><path style="opacity:0.01" fill="#000000" d="M 206.5,77.5 C 206.103,78.525 205.437,78.6917 204.5,78C 205.094,77.5357 205.761,77.369 206.5,77.5 Z"/></g>
<g><path style="opacity:0.01" fill="#000000" d="M 302.5,77.5 C 303.239,77.369 303.906,77.5357 304.5,78C 303.563,78.6917 302.897,78.525 302.5,77.5 Z"/></g>
<g><path style="opacity:0.008" fill="#000000" d="M 329.5,77.5 C 328.749,78.5735 327.749,78.7401 326.5,78C 327.448,77.5172 328.448,77.3505 329.5,77.5 Z"/></g>
<g><path style="opacity:0.01" fill="#000000" d="M 176.5,79.5 C 176.5,79.1667 176.5,78.8333 176.5,78.5C 179.167,78.8333 179.167,79.1667 176.5,79.5 Z"/></g>
<g><path style="opacity:0.01" fill="#000000" d="M 299.5,79.5 C 299.5,79.1667 299.5,78.8333 299.5,78.5C 302.167,78.8333 302.167,79.1667 299.5,79.5 Z"/></g>
<g><path style="opacity:0.016" fill="#000000" d="M 372.5,79.5 C 371.833,78.1667 371.833,78.1667 372.5,79.5 Z"/></g>
<g><path style="opacity:0.008" fill="#000000" d="M 135.5,79.5 C 136.833,80.1667 136.833,80.1667 135.5,79.5 Z"/></g>
<g><path style="opacity:0.008" fill="#000000" d="M 174.5,79.5 C 175.167,79.5 175.833,79.5 176.5,79.5C 175.833,80.8333 175.167,80.8333 174.5,79.5 Z"/></g>
<g><path style="opacity:0.008" fill="#000000" d="M 211.5,79.5 C 211.103,80.525 210.437,80.6917 209.5,80C 210.094,79.5357 210.761,79.369 211.5,79.5 Z"/></g>
<g><path style="opacity:0.008" fill="#000000" d="M 297.5,79.5 C 298.167,79.5 298.833,79.5 299.5,79.5C 298.833,80.8333 298.167,80.8333 297.5,79.5 Z"/></g>
<g><path style="opacity:0.008" fill="#000000" d="M 334.5,79.5 C 334.103,80.525 333.437,80.6917 332.5,80C 333.094,79.5357 333.761,79.369 334.5,79.5 Z"/></g>
<g><path style="opacity:0.008" fill="#000000" d="M 372.5,79.5 C 373.833,80.1667 373.833,80.1667 372.5,79.5 Z"/></g>
<g><path style="opacity:0.012" fill="#000000" d="M 172.5,80.5 C 173.833,81.1667 173.833,81.1667 172.5,80.5 Z"/></g>
<g><path style="opacity:0.016" fill="#000000" d="M 249.5,81.5 C 248.833,80.1667 248.833,80.1667 249.5,81.5 Z"/></g>
<g><path style="opacity:0.016" fill="#000000" d="M 295.5,80.5 C 296.833,81.1667 296.833,81.1667 295.5,80.5 Z"/></g>
<g><path style="opacity:0.012" fill="#000000" d="M 335.5,80.5 C 336.833,81.1667 336.833,81.1667 335.5,80.5 Z"/></g>
<g><path style="opacity:0.012" fill="#000000" d="M 170.5,81.5 C 171.833,82.1667 171.833,82.1667 170.5,81.5 Z"/></g>
<g><path style="opacity:0.01" fill="#000000" d="M 215.5,81.5 C 215.5,81.8333 215.5,82.1667 215.5,82.5C 212.833,82.1667 212.833,81.8333 215.5,81.5 Z"/></g>
<g><path style="opacity:0.008" fill="#000000" d="M 249.5,81.5 C 250.833,82.1667 250.833,82.1667 249.5,81.5 Z"/></g>
<g><path style="opacity:0.008" fill="#000000" d="M 258.5,81.5 C 259.833,82.1667 259.833,82.1667 258.5,81.5 Z"/></g>
<g><path style="opacity:0.008" fill="#000000" d="M 293.5,82.5 C 293.5,82.1667 293.5,81.8333 293.5,81.5C 294.167,81.5 294.833,81.5 295.5,81.5C 295.158,82.3382 294.492,82.6716 293.5,82.5 Z"/></g>
<g><path style="opacity:0.012" fill="#000000" d="M 338.5,81.5 C 337.833,82.1667 337.833,82.1667 338.5,81.5 Z"/></g>
<g><path style="opacity:0.016" fill="#000000" d="M 168.5,82.5 C 169.833,83.1667 169.833,83.1667 168.5,82.5 Z"/></g>
<g><path style="opacity:0.008" fill="#000000" d="M 215.5,82.5 C 216.833,83.1667 216.833,83.1667 215.5,82.5 Z"/></g>
<g><path style="opacity:0.008" fill="#000000" d="M 293.5,82.5 C 292.833,83.1667 292.833,83.1667 293.5,82.5 Z"/></g>
<g><path style="opacity:0.012" fill="#000000" d="M 374.5,82.5 C 375.833,83.1667 375.833,83.1667 374.5,82.5 Z"/></g>
<g><path style="opacity:0.008" fill="#000000" d="M 166.5,84.5 C 166.5,84.1667 166.5,83.8333 166.5,83.5C 167.167,83.5 167.833,83.5 168.5,83.5C 168.158,84.3382 167.492,84.6716 166.5,84.5 Z"/></g>
<g><path style="opacity:0.012" fill="#000000" d="M 251.5,84.5 C 250.833,83.1667 250.833,83.1667 251.5,84.5 Z"/></g>
<g><path style="opacity:0.012" fill="#000000" d="M 258.5,84.5 C 257.833,83.1667 257.833,83.1667 258.5,84.5 Z"/></g>
<g><path style="opacity:0.016" fill="#000000" d="M 290.5,83.5 C 291.833,84.1667 291.833,84.1667 290.5,83.5 Z"/></g>
<g><path style="opacity:0.016" fill="#000000" d="M 165.5,84.5 C 165.833,84.5 166.167,84.5 166.5,84.5C 166.315,85.1701 165.981,85.1701 165.5,84.5 Z"/></g>
<g><path style="opacity:0.008" fill="#000000" d="M 251.5,84.5 C 252.833,85.1667 252.833,85.1667 251.5,84.5 Z"/></g>
<g><path style="opacity:0.008" fill="#000000" d="M 257.5,84.5 C 256.833,85.1667 256.833,85.1667 257.5,84.5 Z"/></g>
<g><path style="opacity:0.012" fill="#000000" d="M 164.5,85.5 C 164.833,85.5 165.167,85.5 165.5,85.5C 165.315,86.1701 164.981,86.1701 164.5,85.5 Z"/></g>
<g><path style="opacity:0.004" fill="#000000" d="M 162.5,87.5 C 162.5,87.1667 162.5,86.8333 162.5,86.5C 163.167,86.5 163.833,86.5 164.5,86.5C 164.158,87.3382 163.492,87.6716 162.5,87.5 Z"/></g>
<g><path style="opacity:0.012" fill="#000000" d="M 161.5,87.5 C 161.833,87.5 162.167,87.5 162.5,87.5C 162.315,88.1701 161.981,88.1701 161.5,87.5 Z"/></g>
<g><path style="opacity:0.004" fill="#000000" d="M 221.5,87.5 C 222.167,87.5 222.833,87.5 223.5,87.5C 224.167,87.5 224.5,87.8333 224.5,88.5C 224.5,89.1667 224.5,89.8333 224.5,90.5C 223.167,89.8333 222.167,88.8333 221.5,87.5 Z"/></g>
<g><path style="opacity:0.007" fill="#000000" d="M 255.5,89.5 C 254.833,89.5 254.167,89.5 253.5,89.5C 254.167,86.8333 254.833,86.8333 255.5,89.5 Z"/></g>
<g><path style="opacity:0.004" fill="#000000" d="M 285.5,87.5 C 286.167,87.5 286.833,87.5 287.5,87.5C 286.833,88.8333 285.833,89.8333 284.5,90.5C 284.5,89.8333 284.5,89.1667 284.5,88.5C 285.167,88.5 285.5,88.1667 285.5,87.5 Z"/></g>
<g><path style="opacity:0.012" fill="#000000" d="M 160.5,88.5 C 160.833,88.5 161.167,88.5 161.5,88.5C 161.315,89.1701 160.981,89.1701 160.5,88.5 Z"/></g>
<g><path style="opacity:0.012" fill="#000000" d="M 159.5,89.5 C 159.833,89.5 160.167,89.5 160.5,89.5C 160.315,90.1701 159.981,90.1701 159.5,89.5 Z"/></g>
<g><path style="opacity:0.01" fill="#000000" d="M 380.5,93.5 C 380.167,93.5 379.833,93.5 379.5,93.5C 379.833,90.8333 380.167,90.8333 380.5,93.5 Z"/></g>
<g><path style="opacity:0.016" fill="#000000" d="M 281.5,92.5 C 282.833,93.1667 282.833,93.1667 281.5,92.5 Z"/></g>
<g><path style="opacity:0.008" fill="#000000" d="M 127.5,93.5 C 128.525,93.8966 128.692,94.5632 128,95.5C 127.536,94.9056 127.369,94.2389 127.5,93.5 Z"/></g>
<g><path style="opacity:0.008" fill="#000000" d="M 380.5,93.5 C 381.525,93.8966 381.692,94.5632 381,95.5C 380.536,94.9056 380.369,94.2389 380.5,93.5 Z"/></g>
<g><path style="opacity:0.008" fill="#000000" d="M 155.5,94.5 C 156.833,95.1667 156.833,95.8333 155.5,96.5C 155.5,95.8333 155.5,95.1667 155.5,94.5 Z"/></g>
<g><path style="opacity:0.008" fill="#000000" d="M 127.5,99.5 C 127.167,99.5 126.833,99.5 126.5,99.5C 126.833,95.5 127.167,95.5 127.5,99.5 Z"/></g>
<g><path style="opacity:0.012" fill="#000000" d="M 154.5,96.5 C 154.833,96.5 155.167,96.5 155.5,96.5C 155.315,97.1701 154.981,97.1701 154.5,96.5 Z"/></g>
<g><path style="opacity:0.008" fill="#000000" d="M 382.5,99.5 C 382.167,99.5 381.833,99.5 381.5,99.5C 381.833,95.5 382.167,95.5 382.5,99.5 Z"/></g>
<g><path style="opacity:0.006" fill="#000000" d="M 153.5,97.5 C 153.833,97.5 154.167,97.5 154.5,97.5C 154.672,98.4916 154.338,99.1583 153.5,99.5C 153.5,98.8333 153.5,98.1667 153.5,97.5 Z"/></g>
<g><path style="opacity:0.012" fill="#000000" d="M 277.5,98.5 C 278.833,99.1667 278.833,99.1667 277.5,98.5 Z"/></g>
<g><path style="opacity:0.009" fill="#000000" d="M 126.5,99.5 C 126.649,100.552 126.483,101.552 126,102.5C 125.26,101.251 125.427,100.251 126.5,99.5 Z"/></g>
<g><path style="opacity:0.008" fill="#000000" d="M 152.5,99.5 C 152.833,99.5 153.167,99.5 153.5,99.5C 153.167,102.167 152.833,102.167 152.5,99.5 Z"/></g>
<g><path style="opacity:0.008" fill="#000000" d="M 276.5,99.5 C 276.833,99.5 277.167,99.5 277.5,99.5C 277.672,100.492 277.338,101.158 276.5,101.5C 276.5,100.833 276.5,100.167 276.5,99.5 Z"/></g>
<g><path style="opacity:0.01" fill="#000000" d="M 356.5,99.5 C 356.631,100.239 356.464,100.906 356,101.5C 355.308,100.563 355.475,99.8966 356.5,99.5 Z"/></g>
<g><path style="opacity:0.009" fill="#000000" d="M 382.5,99.5 C 383.573,100.251 383.74,101.251 383,102.5C 382.517,101.552 382.351,100.552 382.5,99.5 Z"/></g>
<g><path style="opacity:0.008" fill="#000000" d="M 275.5,101.5 C 275.833,101.5 276.167,101.5 276.5,101.5C 276.672,102.492 276.338,103.158 275.5,103.5C 275.5,102.833 275.5,102.167 275.5,101.5 Z"/></g>
<g><path style="opacity:0.008" fill="#000000" d="M 151.5,102.5 C 152.525,102.897 152.692,103.563 152,104.5C 151.536,103.906 151.369,103.239 151.5,102.5 Z"/></g>
<g><path style="opacity:0.008" fill="#000000" d="M 357.5,102.5 C 357.631,103.239 357.464,103.906 357,104.5C 356.308,103.563 356.475,102.897 357.5,102.5 Z"/></g>
<g><path style="opacity:0.008" fill="#000000" d="M 274.5,103.5 C 274.833,103.5 275.167,103.5 275.5,103.5C 275.672,104.492 275.338,105.158 274.5,105.5C 274.5,104.833 274.5,104.167 274.5,103.5 Z"/></g>
<g><path style="opacity:0.009" fill="#000000" d="M 124.5,104.5 C 125.613,105.946 125.78,107.613 125,109.5C 124.506,107.866 124.34,106.199 124.5,104.5 Z"/></g>
<g><path style="opacity:0.009" fill="#000000" d="M 383.5,104.5 C 384.613,105.946 384.78,107.613 384,109.5C 383.506,107.866 383.34,106.199 383.5,104.5 Z"/></g>
<g><path style="opacity:0.009" fill="#000000" d="M 150.5,105.5 C 151.573,106.251 151.74,107.251 151,108.5C 150.517,107.552 150.351,106.552 150.5,105.5 Z"/></g>
<g><path style="opacity:0.01" fill="#000000" d="M 273.5,105.5 C 273.833,105.5 274.167,105.5 274.5,105.5C 274.672,106.492 274.338,107.158 273.5,107.5C 273.5,106.833 273.5,106.167 273.5,105.5 Z"/></g>
<g><path style="opacity:0.009" fill="#000000" d="M 357.5,105.5 C 358.573,106.251 358.74,107.251 358,108.5C 357.517,107.552 357.351,106.552 357.5,105.5 Z"/></g>
<g><path style="opacity:0.01" fill="#000000" d="M 236.5,107.5 C 236.631,108.239 236.464,108.906 236,109.5C 235.308,108.563 235.475,107.897 236.5,107.5 Z"/></g>
<g><path style="opacity:0.008" fill="#000000" d="M 272.5,107.5 C 272.833,107.5 273.167,107.5 273.5,107.5C 273.167,110.167 272.833,110.167 272.5,107.5 Z"/></g>
<g><path style="opacity:0.012" fill="#000000" d="M 149.5,109.5 C 150.641,112.64 150.808,115.973 150,119.5C 149.502,116.183 149.335,112.85 149.5,109.5 Z"/></g>
<g><path style="opacity:0.011" fill="#000000" d="M 359.5,109.5 C 359.665,112.85 359.498,116.183 359,119.5C 358.192,115.973 358.359,112.64 359.5,109.5 Z"/></g>
<g><path style="opacity:0.008" fill="#000000" d="M 236.5,110.5 C 237.525,110.897 237.692,111.563 237,112.5C 236.536,111.906 236.369,111.239 236.5,110.5 Z"/></g>
<g><path style="opacity:0.008" fill="#000000" d="M 271.5,112.5 C 271.369,111.761 271.536,111.094 272,110.5C 272.692,111.437 272.525,112.103 271.5,112.5 Z"/></g>
<g><path style="opacity:0.867" fill="#313697" d="M 238.5,109.5 C 241.416,115.458 243.583,121.791 245,128.5C 246.666,130.996 248.5,133.329 250.5,135.5C 248.589,134.925 246.922,133.925 245.5,132.5C 243.949,129.164 242.615,125.831 241.5,122.5C 241.768,120.901 241.434,119.568 240.5,118.5C 239.833,115.5 239.167,112.5 238.5,109.5 Z"/></g>
<g><path style="opacity:0.008" fill="#000000" d="M 270.5,112.5 C 270.833,112.5 271.167,112.5 271.5,112.5C 271.737,113.791 271.404,114.791 270.5,115.5C 270.5,114.5 270.5,113.5 270.5,112.5 Z"/></g>
<g><path style="opacity:0.996" fill="#32379b" d="M 129.5,96.5 C 127.758,106.058 127.092,115.725 127.5,125.5C 126.367,122.223 125.701,118.723 125.5,115C 126.121,109.817 126.788,104.651 127.5,99.5C 128.167,98.5 128.833,97.5 129.5,96.5 Z"/></g>
<g><path style="opacity:0.839" fill="#313698" d="M 270.5,109.5 C 270.5,110.5 270.5,111.5 270.5,112.5C 269.596,113.209 269.263,114.209 269.5,115.5C 268.596,116.209 268.263,117.209 268.5,118.5C 267.566,119.568 267.232,120.901 267.5,122.5C 266.566,123.568 266.232,124.901 266.5,126.5C 265.596,127.209 265.263,128.209 265.5,129.5C 264.662,129.842 264.328,130.508 264.5,131.5C 263.833,131.5 263.5,131.833 263.5,132.5C 263.167,132.5 262.833,132.5 262.5,132.5C 264.721,124.585 267.387,116.918 270.5,109.5 Z"/></g>
<g><path style="opacity:0.008" fill="#000000" d="M 269.5,115.5 C 269.833,115.5 270.167,115.5 270.5,115.5C 270.737,116.791 270.404,117.791 269.5,118.5C 269.5,117.5 269.5,116.5 269.5,115.5 Z"/></g>
<g><path style="opacity:0.008" fill="#000000" d="M 240.5,118.5 C 240.649,119.552 240.483,120.552 240,121.5C 239.26,120.251 239.427,119.251 240.5,118.5 Z"/></g>
<g><path style="opacity:0.008" fill="#000000" d="M 268.5,118.5 C 268.833,118.5 269.167,118.5 269.5,118.5C 269.167,122.5 268.833,122.5 268.5,118.5 Z"/></g>
<g><path style="opacity:0.009" fill="#000000" d="M 124.5,120.5 C 125.613,121.946 125.78,123.613 125,125.5C 124.506,123.866 124.34,122.199 124.5,120.5 Z"/></g>
<g><path style="opacity:0.012" fill="#000000" d="M 383.5,120.5 C 384.598,121.601 384.765,122.934 384,124.5C 383.51,123.207 383.343,121.873 383.5,120.5 Z"/></g>
<g><path style="opacity:0.435" fill="#303594" d="M 148.5,109.5 C 148.413,114.537 148.746,119.537 149.5,124.5C 148.009,121.814 147.343,118.814 147.5,115.5C 147.505,113.304 147.838,111.304 148.5,109.5 Z"/></g>
<g><path style="opacity:0.009" fill="#000000" d="M 358.5,124.5 C 358.167,124.5 357.833,124.5 357.5,124.5C 357.833,120.5 358.167,120.5 358.5,124.5 Z"/></g>
<g><path style="opacity:0.009" fill="#000000" d="M 241.5,122.5 C 241.649,123.552 241.483,124.552 241,125.5C 240.26,124.251 240.427,123.251 241.5,122.5 Z"/></g>
<g><path style="opacity:0.009" fill="#000000" d="M 267.5,122.5 C 268.573,123.251 268.74,124.251 268,125.5C 267.517,124.552 267.351,123.552 267.5,122.5 Z"/></g>
<g><path style="opacity:0.01" fill="#000000" d="M 357.5,124.5 C 357.631,125.239 357.464,125.906 357,126.5C 356.308,125.563 356.475,124.897 357.5,124.5 Z"/></g>
<g><path style="opacity:0.996" fill="#2e338f" d="M 360.5,109.5 C 361.647,113.646 361.814,117.98 361,122.5C 360.626,124.491 359.793,126.158 358.5,127.5C 358.5,126.5 358.5,125.5 358.5,124.5C 360.238,119.783 360.904,114.783 360.5,109.5 Z"/></g>
<g><path style="opacity:0.009" fill="#000000" d="M 125.5,126.5 C 126.573,127.251 126.74,128.251 126,129.5C 125.517,128.552 125.351,127.552 125.5,126.5 Z"/></g>
<g><path style="opacity:0.009" fill="#000000" d="M 266.5,126.5 C 267.833,127.5 267.833,128.5 266.5,129.5C 266.5,128.5 266.5,127.5 266.5,126.5 Z"/></g>
<g><path style="opacity:0.01" fill="#000000" d="M 382.5,129.5 C 382.351,128.448 382.517,127.448 383,126.5C 383.74,127.749 383.573,128.749 382.5,129.5 Z"/></g>
<g><path style="opacity:0.01" fill="#000000" d="M 356.5,129.5 C 356.167,129.5 355.833,129.5 355.5,129.5C 355.833,126.833 356.167,126.833 356.5,129.5 Z"/></g>
<g><path style="opacity:0.008" fill="#000000" d="M 265.5,129.5 C 265.833,129.5 266.167,129.5 266.5,129.5C 266.672,130.492 266.338,131.158 265.5,131.5C 265.5,130.833 265.5,130.167 265.5,129.5 Z"/></g>
<g><path style="opacity:0.012" fill="#000000" d="M 355.5,129.5 C 354.833,130.167 354.833,130.167 355.5,129.5 Z"/></g>
<g><path style="opacity:0.007" fill="#000000" d="M 381.5,129.5 C 381.833,129.5 382.167,129.5 382.5,129.5C 382.737,130.791 382.404,131.791 381.5,132.5C 381.5,131.5 381.5,130.5 381.5,129.5 Z"/></g>
<g><path style="opacity:0.01" fill="#000000" d="M 126.5,130.5 C 127.525,130.897 127.692,131.563 127,132.5C 126.536,131.906 126.369,131.239 126.5,130.5 Z"/></g>
<g><path style="opacity:0.008" fill="#000000" d="M 155.5,133.5 C 155.167,133.5 154.833,133.5 154.5,133.5C 154.833,130.833 155.167,130.833 155.5,133.5 Z"/></g>
<g><path style="opacity:0.012" fill="#000000" d="M 264.5,131.5 C 264.833,131.5 265.167,131.5 265.5,131.5C 265.315,132.17 264.981,132.17 264.5,131.5 Z"/></g>
<g><path style="opacity:0.016" fill="#000000" d="M 354.5,132.5 C 353.833,131.167 353.833,131.167 354.5,132.5 Z"/></g>
<g><path style="opacity:0.004" fill="#000000" d="M 245.5,132.5 C 244.833,133.167 244.833,133.167 245.5,132.5 Z"/></g>
<g><path style="opacity:0.004" fill="#000000" d="M 263.5,132.5 C 263.833,132.5 264.167,132.5 264.5,132.5C 264.315,133.17 263.981,133.17 263.5,132.5 Z"/></g>
<g><path style="opacity:0.008" fill="#000000" d="M 353.5,132.5 C 352.833,133.167 352.833,133.167 353.5,132.5 Z"/></g>
<g><path style="opacity:0.008" fill="#000000" d="M 380.5,132.5 C 380.833,132.5 381.167,132.5 381.5,132.5C 381.167,135.167 380.833,135.167 380.5,132.5 Z"/></g>
<g><path style="opacity:0.012" fill="#000000" d="M 155.5,133.5 C 156.833,134.167 156.833,134.167 155.5,133.5 Z"/></g>
<g><path style="opacity:0.004" fill="#000000" d="M 261.5,134.5 C 262.833,135.167 262.833,135.167 261.5,134.5 Z"/></g>
<g><path style="opacity:0.008" fill="#000000" d="M 129.5,135.5 C 129.631,136.239 129.464,136.906 129,137.5C 128.308,136.563 128.475,135.897 129.5,135.5 Z"/></g>
<g><path style="opacity:0.012" fill="#000000" d="M 260.5,135.5 C 260.833,135.5 261.167,135.5 261.5,135.5C 261.315,136.17 260.981,136.17 260.5,135.5 Z"/></g>
<g><path style="opacity:0.008" fill="#000000" d="M 379.5,135.5 C 380.833,136.167 380.833,136.833 379.5,137.5C 379.5,136.833 379.5,136.167 379.5,135.5 Z"/></g>
<g><path style="opacity:0.008" fill="#000000" d="M 258.5,137.5 C 258.5,137.167 258.5,136.833 258.5,136.5C 259.167,136.5 259.833,136.5 260.5,136.5C 260.158,137.338 259.492,137.672 258.5,137.5 Z"/></g>
<g><path style="opacity:0.009" fill="#000000" d="M 258.5,137.5 C 256.034,138.634 253.367,138.801 250.5,138C 253.146,137.503 255.813,137.336 258.5,137.5 Z"/></g>
<g><path style="opacity:0.01" fill="#000000" d="M 378.5,137.5 C 378.833,137.5 379.167,137.5 379.5,137.5C 379.672,138.492 379.338,139.158 378.5,139.5C 378.5,138.833 378.5,138.167 378.5,137.5 Z"/></g>
<g><path style="opacity:0.012" fill="#000000" d="M 130.5,138.5 C 129.833,139.167 129.833,139.167 130.5,138.5 Z"/></g>
<g><path style="opacity:0.008" fill="#000000" d="M 377.5,139.5 C 377.833,139.5 378.167,139.5 378.5,139.5C 378.672,140.492 378.338,141.158 377.5,141.5C 377.5,140.833 377.5,140.167 377.5,139.5 Z"/></g>
<g><path style="opacity:0.012" fill="#000000" d="M 131.5,140.5 C 130.833,141.167 130.833,141.167 131.5,140.5 Z"/></g>
<g><path style="opacity:0.012" fill="#000000" d="M 376.5,141.5 C 376.833,141.5 377.167,141.5 377.5,141.5C 377.315,142.17 376.981,142.17 376.5,141.5 Z"/></g>
<g><path style="opacity:0.514" fill="#33389f" d="M 382.5,118.5 C 382.448,122.198 382.114,125.865 381.5,129.5C 380.596,130.209 380.263,131.209 380.5,132.5C 379.596,133.209 379.263,134.209 379.5,135.5C 378.662,135.842 378.328,136.508 378.5,137.5C 377.662,137.842 377.328,138.508 377.5,139.5C 376.662,139.842 376.328,140.508 376.5,141.5C 375.662,141.842 375.328,142.508 375.5,143.5C 374.833,143.5 374.5,143.833 374.5,144.5C 373.662,144.842 373.328,145.508 373.5,146.5C 372.833,146.5 372.5,146.833 372.5,147.5C 371.833,147.833 371.167,148.167 370.5,148.5C 376.671,139.311 380.671,129.311 382.5,118.5 Z"/></g>
<g><path style="opacity:0.012" fill="#000000" d="M 375.5,143.5 C 376.833,144.167 376.833,144.167 375.5,143.5 Z"/></g>
<g><path style="opacity:0.008" fill="#000000" d="M 374.5,144.5 C 374.833,144.5 375.167,144.5 375.5,144.5C 375.672,145.492 375.338,146.158 374.5,146.5C 374.5,145.833 374.5,145.167 374.5,144.5 Z"/></g>
<g><path style="opacity:0.012" fill="#000000" d="M 373.5,146.5 C 373.833,146.5 374.167,146.5 374.5,146.5C 374.315,147.17 373.981,147.17 373.5,146.5 Z"/></g>
<g><path style="opacity:0.012" fill="#000000" d="M 167.5,147.5 C 168.833,148.167 168.833,148.167 167.5,147.5 Z"/></g>
<g><path style="opacity:0.004" fill="#000000" d="M 320.5,147.5 C 321.833,148.167 321.833,148.167 320.5,147.5 Z"/></g>
<g><path style="opacity:0.012" fill="#000000" d="M 372.5,147.5 C 372.833,147.5 373.167,147.5 373.5,147.5C 373.315,148.17 372.981,148.17 372.5,147.5 Z"/></g>
<g><path style="opacity:0.012" fill="#000000" d="M 136.5,148.5 C 135.833,149.167 135.833,149.167 136.5,148.5 Z"/></g>
<g><path style="opacity:0.008" fill="#000000" d="M 169.5,148.5 C 170.833,149.167 170.833,149.167 169.5,148.5 Z"/></g>
<g><path style="opacity:0.004" fill="#000000" d="M 320.5,148.5 C 319.833,149.167 319.833,149.167 320.5,148.5 Z"/></g>
<g><path style="opacity:0.008" fill="#000000" d="M 136.5,150.5 C 137.833,151.167 137.833,151.167 136.5,150.5 Z"/></g>
<g><path style="opacity:0.012" fill="#000000" d="M 368.5,152.5 C 369.833,153.167 369.833,153.167 368.5,152.5 Z"/></g>
<g><path style="opacity:0.01" fill="#000000" d="M 317.5,155.5 C 316.475,155.103 316.308,154.437 317,153.5C 317.464,154.094 317.631,154.761 317.5,155.5 Z"/></g>
<g><path style="opacity:0.012" fill="#000000" d="M 367.5,153.5 C 367.833,153.5 368.167,153.5 368.5,153.5C 368.315,154.17 367.981,154.17 367.5,153.5 Z"/></g>
<g><path style="opacity:0.012" fill="#000000" d="M 366.5,154.5 C 366.833,154.5 367.167,154.5 367.5,154.5C 367.315,155.17 366.981,155.17 366.5,154.5 Z"/></g>
<g><path style="opacity:0.012" fill="#000000" d="M 365.5,155.5 C 365.833,155.5 366.167,155.5 366.5,155.5C 366.315,156.17 365.981,156.17 365.5,155.5 Z"/></g>
<g><path style="opacity:0.016" fill="#000000" d="M 180.5,156.5 C 181.833,157.167 181.833,157.167 180.5,156.5 Z"/></g>
<g><path style="opacity:0.008" fill="#000000" d="M 364.5,156.5 C 364.833,156.5 365.167,156.5 365.5,156.5C 365.315,157.17 364.981,157.17 364.5,156.5 Z"/></g>
<g><path style="opacity:0.012" fill="#000000" d="M 182.5,157.5 C 183.833,158.167 183.833,158.167 182.5,157.5 Z"/></g>
<g><path style="opacity:0.008" fill="#000000" d="M 364.5,157.5 C 363.833,158.167 363.833,158.167 364.5,157.5 Z"/></g>
<g><path style="opacity:0.012" fill="#000000" d="M 361.5,158.5 C 362.833,159.167 362.833,159.167 361.5,158.5 Z"/></g>
<g><path style="opacity:0.012" fill="#000000" d="M 360.5,159.5 C 360.833,159.5 361.167,159.5 361.5,159.5C 361.315,160.17 360.981,160.17 360.5,159.5 Z"/></g>
<g><path style="opacity:0.008" fill="#000000" d="M 316.5,160.5 C 317.525,160.897 317.692,161.563 317,162.5C 316.536,161.906 316.369,161.239 316.5,160.5 Z"/></g>
<g><path style="opacity:0.008" fill="#000000" d="M 360.5,160.5 C 359.833,161.167 359.833,161.167 360.5,160.5 Z"/></g>
<g><path style="opacity:0.012" fill="#000000" d="M 357.5,161.5 C 358.833,162.167 358.833,162.167 357.5,161.5 Z"/></g>
<g><path style="opacity:0.008" fill="#000000" d="M 355.5,163.5 C 355.5,163.167 355.5,162.833 355.5,162.5C 356.167,162.5 356.833,162.5 357.5,162.5C 357.158,163.338 356.492,163.672 355.5,163.5 Z"/></g>
<g><path style="opacity:0.008" fill="#000000" d="M 193.5,164.5 C 193.897,163.475 194.563,163.308 195.5,164C 194.906,164.464 194.239,164.631 193.5,164.5 Z"/></g>
<g><path style="opacity:0.012" fill="#000000" d="M 355.5,163.5 C 354.833,164.167 354.833,164.167 355.5,163.5 Z"/></g>
<g><path style="opacity:0.012" fill="#000000" d="M 196.5,164.5 C 197.833,165.167 197.833,165.167 196.5,164.5 Z"/></g>
<g><path style="opacity:0.012" fill="#000000" d="M 352.5,164.5 C 353.833,165.167 353.833,165.167 352.5,164.5 Z"/></g>
<g><path style="opacity:0.661" fill="#313698" d="M 317.5,155.5 C 317.833,155.5 318.167,155.5 318.5,155.5C 318.73,159.694 320.397,163.194 323.5,166C 328.708,167.397 334.041,167.897 339.5,167.5C 334.651,169.061 329.651,169.394 324.5,168.5C 319.843,165.526 317.51,161.193 317.5,155.5 Z"/></g>
<g><path style="opacity:0.01" fill="#000000" d="M 349.5,166.5 C 349.5,166.167 349.5,165.833 349.5,165.5C 352.167,165.833 352.167,166.167 349.5,166.5 Z"/></g>
<g><path style="opacity:0.008" fill="#000000" d="M 200.5,167.5 C 200.897,166.475 201.563,166.308 202.5,167C 201.906,167.464 201.239,167.631 200.5,167.5 Z"/></g>
<g><path style="opacity:0.008" fill="#000000" d="M 347.5,166.5 C 348.167,166.5 348.833,166.5 349.5,166.5C 348.833,167.833 348.167,167.833 347.5,166.5 Z"/></g>
<g><path style="opacity:0.01" fill="#000000" d="M 203.5,168.5 C 203.897,167.475 204.563,167.308 205.5,168C 204.906,168.464 204.239,168.631 203.5,168.5 Z"/></g>
<g><path style="opacity:0.01" fill="#000000" d="M 344.5,168.5 C 344.897,167.475 345.563,167.308 346.5,168C 345.906,168.464 345.239,168.631 344.5,168.5 Z"/></g>
<g><path style="opacity:0.01" fill="#000000" d="M 206.5,169.5 C 206.897,168.475 207.563,168.308 208.5,169C 207.906,169.464 207.239,169.631 206.5,169.5 Z"/></g>
<g><path style="opacity:0.008" fill="#000000" d="M 324.5,168.5 C 324.5,168.833 324.5,169.167 324.5,169.5C 321.833,169.167 321.833,168.833 324.5,168.5 Z"/></g>
<g><path style="opacity:0.009" fill="#000000" d="M 340.5,169.5 C 341.251,168.427 342.251,168.26 343.5,169C 342.552,169.483 341.552,169.649 340.5,169.5 Z"/></g>
<g><path style="opacity:0.012" fill="#000000" d="M 156.5,169.5 C 156.5,169.833 156.5,170.167 156.5,170.5C 155.83,170.019 155.83,169.685 156.5,169.5 Z"/></g>
<g><path style="opacity:0.976" fill="#2f3391" d="M 200.5,168.5 C 201.5,168.5 202.5,168.5 203.5,168.5C 204.209,169.404 205.209,169.737 206.5,169.5C 207.209,170.404 208.209,170.737 209.5,170.5C 211.214,171.738 213.214,172.405 215.5,172.5C 216.568,173.434 217.901,173.768 219.5,173.5C 227.06,175.704 234.727,177.371 242.5,178.5C 227.722,177.971 213.722,174.638 200.5,168.5 Z"/></g>
<g><path style="opacity:0.01" fill="#000000" d="M 209.5,170.5 C 209.897,169.475 210.563,169.308 211.5,170C 210.906,170.464 210.239,170.631 209.5,170.5 Z"/></g>
<g><path style="opacity:0.008" fill="#000000" d="M 324.5,169.5 C 325.552,169.351 326.552,169.517 327.5,170C 326.251,170.74 325.251,170.573 324.5,169.5 Z"/></g>
<g><path style="opacity:0.011" fill="#000000" d="M 333.5,170.5 C 334.946,169.387 336.613,169.22 338.5,170C 336.866,170.494 335.199,170.66 333.5,170.5 Z"/></g>
<g><path style="opacity:0.008" fill="#000000" d="M 156.5,170.5 C 157.833,171.167 157.833,171.167 156.5,170.5 Z"/></g>
<g><path style="opacity:0.009" fill="#000000" d="M 215.5,172.5 C 216.251,171.427 217.251,171.26 218.5,172C 217.552,172.483 216.552,172.649 215.5,172.5 Z"/></g>
<g><path style="opacity:0.008" fill="#000000" d="M 219.5,173.5 C 220.601,172.402 221.934,172.235 223.5,173C 222.207,173.49 220.873,173.657 219.5,173.5 Z"/></g>
<g><path style="opacity:0.009" fill="#000000" d="M 224.5,174.5 C 225.251,173.427 226.251,173.26 227.5,174C 226.552,174.483 225.552,174.649 224.5,174.5 Z"/></g>
<g><path style="opacity:0.009" fill="#000000" d="M 229.5,175.5 C 230.601,174.402 231.934,174.235 233.5,175C 232.207,175.49 230.873,175.657 229.5,175.5 Z"/></g>
<g><path style="opacity:0.01" fill="#000000" d="M 235.5,176.5 C 236.946,175.387 238.613,175.22 240.5,176C 238.866,176.494 237.199,176.66 235.5,176.5 Z"/></g>
<g><path style="opacity:0.008" fill="#000000" d="M 101.5,177.5 C 110.324,176.343 119.324,176.176 128.5,177C 119.506,177.5 110.506,177.666 101.5,177.5 Z"/></g>
<g><path style="opacity:0.008" fill="#000000" d="M 243.5,177.5 C 297.998,176.335 352.665,176.168 407.5,177C 352.834,177.5 298.168,177.667 243.5,177.5 Z"/></g>
<g><path style="opacity:0.009" fill="#000000" d="M 99.5,178.5 C 98.448,178.649 97.448,178.483 96.5,178C 97.7494,177.26 98.7494,177.427 99.5,178.5 Z"/></g>
<g><path style="opacity:0.009" fill="#000000" d="M 409.5,178.5 C 410.251,177.427 411.251,177.26 412.5,178C 411.552,178.483 410.552,178.649 409.5,178.5 Z"/></g>
<g><path style="opacity:0.01" fill="#000000" d="M 95.5,179.5 C 94.7611,179.631 94.0944,179.464 93.5,179C 94.4368,178.308 95.1034,178.475 95.5,179.5 Z"/></g>
<g><path style="opacity:0.012" fill="#000000" d="M 169.5,178.5 C 168.833,179.167 168.833,179.167 169.5,178.5 Z"/></g>
<g><path style="opacity:0.01" fill="#000000" d="M 413.5,179.5 C 413.897,178.475 414.563,178.308 415.5,179C 414.906,179.464 414.239,179.631 413.5,179.5 Z"/></g>
<g><path style="opacity:0.012" fill="#000000" d="M 418.5,180.5 C 419.833,181.167 419.833,181.167 418.5,180.5 Z"/></g>
<g><path style="opacity:0.008" fill="#000000" d="M 136.5,182.5 C 137.833,183.167 137.833,183.167 136.5,182.5 Z"/></g>
<g><path style="opacity:0.008" fill="#000000" d="M 177.5,182.5 C 177.5,182.833 177.5,183.167 177.5,183.5C 174.833,183.167 174.833,182.833 177.5,182.5 Z"/></g>
<g><path style="opacity:0.949" fill="#32379b" d="M 99.5,178.5 C 109.506,178.334 119.506,178.5 129.5,179C 130.416,179.278 131.082,179.778 131.5,180.5C 121.201,179.406 110.867,179.24 100.5,180C 88.3378,183 79.6712,190.167 74.5,201.5C 78.0989,190.902 85.0989,183.568 95.5,179.5C 97.099,179.768 98.4324,179.434 99.5,178.5 Z"/></g>
<g><path style="opacity:0.012" fill="#000000" d="M 177.5,183.5 C 178.833,184.167 178.833,184.167 177.5,183.5 Z"/></g>
<g><path style="opacity:0.012" fill="#000000" d="M 137.5,184.5 C 138.833,185.167 138.833,185.167 137.5,184.5 Z"/></g>
<g><path style="opacity:0.012" fill="#000000" d="M 179.5,184.5 C 180.833,185.167 180.833,185.167 179.5,184.5 Z"/></g>
<g><path style="opacity:0.011" fill="#000000" d="M 138.5,186.5 C 139.629,188.628 139.796,190.961 139,193.5C 138.503,191.19 138.337,188.857 138.5,186.5 Z"/></g>
<g><path style="opacity:0.008" fill="#000000" d="M 189.5,188.5 C 189.103,189.525 188.437,189.692 187.5,189C 188.094,188.536 188.761,188.369 189.5,188.5 Z"/></g>
<g><path style="opacity:0.01" fill="#000000" d="M 192.5,189.5 C 192.5,189.833 192.5,190.167 192.5,190.5C 189.833,190.167 189.833,189.833 192.5,189.5 Z"/></g>
<g><path style="opacity:0.008" fill="#000000" d="M 192.5,190.5 C 193.239,190.369 193.906,190.536 194.5,191C 193.563,191.692 192.897,191.525 192.5,190.5 Z"/></g>
<g><path style="opacity:0.01" fill="#000000" d="M 197.5,191.5 C 197.103,192.525 196.437,192.692 195.5,192C 196.094,191.536 196.761,191.369 197.5,191.5 Z"/></g>
<g><path style="opacity:0.01" fill="#000000" d="M 200.5,192.5 C 200.103,193.525 199.437,193.692 198.5,193C 199.094,192.536 199.761,192.369 200.5,192.5 Z"/></g>
<g><path style="opacity:0.01" fill="#000000" d="M 203.5,193.5 C 203.103,194.525 202.437,194.692 201.5,194C 202.094,193.536 202.761,193.369 203.5,193.5 Z"/></g>
<g><path style="opacity:1" fill="#33389d" d="M 207.5,194.5 C 208.097,193.861 208.93,193.528 210,193.5C 216.308,195.116 222.475,196.783 228.5,198.5C 226.5,198.5 224.5,198.5 222.5,198.5C 217.728,196.722 212.728,195.389 207.5,194.5 Z"/></g>
<g><path style="opacity:0.012" fill="#000000" d="M 432.5,193.5 C 433.833,194.167 433.833,194.167 432.5,193.5 Z"/></g>
<g><path style="opacity:0.012" fill="#000000" d="M 137.5,194.5 C 138.833,195.167 138.833,195.167 137.5,194.5 Z"/></g>
<g><path style="opacity:0.012" fill="#000000" d="M 206.5,194.5 C 206.103,195.525 205.437,195.692 204.5,195C 205.094,194.536 205.761,194.369 206.5,194.5 Z"/></g>
<g><path style="opacity:0.949" fill="#2a2e81" d="M 250.5,178.5 C 303.5,178.5 356.5,178.5 409.5,178.5C 410.568,179.434 411.901,179.768 413.5,179.5C 414.93,180.537 416.597,181.204 418.5,181.5C 423.794,185.127 428.461,189.46 432.5,194.5C 432.66,196.153 433.326,197.486 434.5,198.5C 434.263,199.791 434.596,200.791 435.5,201.5C 435.5,202.833 435.5,204.167 435.5,205.5C 431.241,192.077 422.241,183.577 408.5,180C 355.665,179.833 302.998,179.333 250.5,178.5 Z"/></g>
<g><path style="opacity:0.012" fill="#000000" d="M 207.5,196.5 C 207.897,195.475 208.563,195.308 209.5,196C 208.906,196.464 208.239,196.631 207.5,196.5 Z"/></g>
<g><path style="opacity:0.004" fill="#000000" d="M 136.5,196.5 C 137.833,197.167 137.833,197.167 136.5,196.5 Z"/></g>
<g><path style="opacity:0.009" fill="#000000" d="M 210.5,197.5 C 211.251,196.427 212.251,196.26 213.5,197C 212.552,197.483 211.552,197.649 210.5,197.5 Z"/></g>
<g><path style="opacity:0.008" fill="#000000" d="M 434.5,198.5 C 434.369,197.761 434.536,197.094 435,196.5C 435.692,197.437 435.525,198.103 434.5,198.5 Z"/></g>
<g><path style="opacity:0.008" fill="#000000" d="M 135.5,197.5 C 135.833,197.5 136.167,197.5 136.5,197.5C 136.315,198.17 135.981,198.17 135.5,197.5 Z"/></g>
<g><path style="opacity:0.009" fill="#000000" d="M 214.5,198.5 C 215.251,197.427 216.251,197.26 217.5,198C 216.552,198.483 215.552,198.649 214.5,198.5 Z"/></g>
<g><path style="opacity:0.008" fill="#000000" d="M 134.5,198.5 C 134.833,198.5 135.167,198.5 135.5,198.5C 135.315,199.17 134.981,199.17 134.5,198.5 Z"/></g>
<g><path style="opacity:0.01" fill="#000000" d="M 222.5,198.5 C 221.749,199.573 220.749,199.74 219.5,199C 220.448,198.517 221.448,198.351 222.5,198.5 Z"/></g>
<g><path style="opacity:0.01" fill="#000000" d="M 73.5,201.5 C 73.1667,201.5 72.8333,201.5 72.5,201.5C 72.8333,198.833 73.1667,198.833 73.5,201.5 Z"/></g>
<g><path style="opacity:0.008" fill="#000000" d="M 133.5,199.5 C 133.833,199.5 134.167,199.5 134.5,199.5C 134.315,200.17 133.981,200.17 133.5,199.5 Z"/></g>
<g><path style="opacity:0.01" fill="#000000" d="M 223.5,200.5 C 224.601,199.402 225.934,199.235 227.5,200C 226.207,200.49 224.873,200.657 223.5,200.5 Z"/></g>
<g><path style="opacity:0.01" fill="#000000" d="M 435.5,201.5 C 435.369,200.761 435.536,200.094 436,199.5C 436.692,200.437 436.525,201.103 435.5,201.5 Z"/></g>
<g><path style="opacity:0.008" fill="#000000" d="M 131.5,201.5 C 131.5,201.167 131.5,200.833 131.5,200.5C 132.167,200.5 132.833,200.5 133.5,200.5C 133.158,201.338 132.492,201.672 131.5,201.5 Z"/></g>
<g><path style="opacity:0.01" fill="#000000" d="M 229.5,201.5 C 230.946,200.387 232.613,200.22 234.5,201C 232.866,201.494 231.199,201.66 229.5,201.5 Z"/></g>
<g><path style="opacity:0.01" fill="#000000" d="M 72.5,201.5 C 72.6495,202.552 72.4828,203.552 72,204.5C 71.2599,203.251 71.4265,202.251 72.5,201.5 Z"/></g>
<g><path style="opacity:0.008" fill="#000000" d="M 131.5,201.5 C 131.103,202.525 130.437,202.692 129.5,202C 130.094,201.536 130.761,201.369 131.5,201.5 Z"/></g>
<g><path style="opacity:0.009" fill="#000000" d="M 236.5,202.5 C 238.966,201.366 241.633,201.199 244.5,202C 241.854,202.497 239.187,202.664 236.5,202.5 Z"/></g>
<g><path style="opacity:0.005" fill="#000000" d="M 101.5,202.5 C 110.173,202.334 118.84,202.5 127.5,203C 118.657,203.824 109.99,203.657 101.5,202.5 Z"/></g>
<g><path style="opacity:0.004" fill="#000000" d="M 407.5,202.5 C 355.668,203.665 303.668,203.832 251.5,203C 303.499,202.5 355.499,202.333 407.5,202.5 Z"/></g>
<g><path style="opacity:0.009" fill="#000000" d="M 436.5,205.5 C 436.351,204.448 436.517,203.448 437,202.5C 437.74,203.749 437.573,204.749 436.5,205.5 Z"/></g>
<g><path style="opacity:0.02" fill="#000000" d="M 99.5,203.5 C 100.833,204.167 100.833,204.167 99.5,203.5 Z"/></g>
<g><path style="opacity:0.016" fill="#000000" d="M 98.5,204.5 C 98.8333,204.5 99.1667,204.5 99.5,204.5C 99.3147,205.17 98.9813,205.17 98.5,204.5 Z"/></g>
<g><path style="opacity:0.02" fill="#000000" d="M 97.5,205.5 C 97.8333,205.5 98.1667,205.5 98.5,205.5C 98.3147,206.17 97.9813,206.17 97.5,205.5 Z"/></g>
<g><path style="opacity:0.02" fill="#000000" d="M 411.5,205.5 C 410.833,206.167 410.833,206.167 411.5,205.5 Z"/></g>
<g><path style="opacity:0.012" fill="#000000" d="M 70.5,206.5 C 71.6654,274.332 71.8321,342.332 71,410.5C 70.5,342.501 70.3333,274.501 70.5,206.5 Z"/></g>
<g><path style="opacity:0.012" fill="#000000" d="M 437.5,206.5 C 438.665,274.332 438.832,342.332 438,410.5C 437.5,342.501 437.333,274.501 437.5,206.5 Z"/></g>
<g><path style="opacity:0.008" fill="#000000" d="M 96.5,207.5 C 97.5983,208.601 97.765,209.934 97,211.5C 96.51,210.207 96.3433,208.873 96.5,207.5 Z"/></g>
<g><path style="opacity:0.008" fill="#000000" d="M 412.5,207.5 C 412.657,208.873 412.49,210.207 412,211.5C 411.235,209.934 411.402,208.601 412.5,207.5 Z"/></g>
<g><path style="opacity:0.009" fill="#000000" d="M 96.5,405.5 C 97.6225,407.288 97.7891,409.288 97,411.5C 96.5045,409.527 96.3379,407.527 96.5,405.5 Z"/></g>
<g><path style="opacity:0.009" fill="#000000" d="M 411.5,405.5 C 412.622,407.288 412.789,409.288 412,411.5C 411.505,409.527 411.338,407.527 411.5,405.5 Z"/></g>
<g><path style="opacity:0.01" fill="#000000" d="M 72.5,412.5 C 72.6567,413.873 72.49,415.207 72,416.5C 71.235,414.934 71.4017,413.601 72.5,412.5 Z"/></g>
<g><path style="opacity:0.008" fill="#000000" d="M 98.5,415.5 C 98.1667,415.5 97.8333,415.5 97.5,415.5C 97.8333,411.5 98.1667,411.5 98.5,415.5 Z"/></g>
<g><path style="opacity:0.008" fill="#000000" d="M 411.5,415.5 C 411.167,415.5 410.833,415.5 410.5,415.5C 410.833,411.5 411.167,411.5 411.5,415.5 Z"/></g>
<g><path style="opacity:0.01" fill="#000000" d="M 436.5,412.5 C 437.598,413.601 437.765,414.934 437,416.5C 436.51,415.207 436.343,413.873 436.5,412.5 Z"/></g>
<g><path style="opacity:0.008" fill="#000000" d="M 98.5,415.5 C 99.525,415.897 99.6917,416.563 99,417.5C 98.5357,416.906 98.369,416.239 98.5,415.5 Z"/></g>
<g><path style="opacity:0.008" fill="#000000" d="M 410.5,415.5 C 410.631,416.239 410.464,416.906 410,417.5C 409.308,416.563 409.475,415.897 410.5,415.5 Z"/></g>
<g><path style="opacity:0.008" fill="#000000" d="M 73.5,417.5 C 73.6495,418.552 73.4828,419.552 73,420.5C 72.2599,419.251 72.4265,418.251 73.5,417.5 Z"/></g>
<g><path style="opacity:0.008" fill="#000000" d="M 435.5,417.5 C 436.573,418.251 436.74,419.251 436,420.5C 435.517,419.552 435.351,418.552 435.5,417.5 Z"/></g>
<g><path style="opacity:0.012" fill="#000000" d="M 99.5,418.5 C 100.833,419.167 100.833,419.167 99.5,418.5 Z"/></g>
<g><path style="opacity:0.012" fill="#000000" d="M 408.5,418.5 C 409.833,419.167 409.833,419.167 408.5,418.5 Z"/></g>
<g><path style="opacity:0.01" fill="#000000" d="M 73.5,421.5 C 74.525,421.897 74.6917,422.563 74,423.5C 73.5357,422.906 73.369,422.239 73.5,421.5 Z"/></g>
<g><path style="opacity:0.01" fill="#000000" d="M 434.5,421.5 C 435.525,421.897 435.692,422.563 435,423.5C 434.536,422.906 434.369,422.239 434.5,421.5 Z"/></g>
<g><path style="opacity:0.008" fill="#000000" d="M 74.5,424.5 C 75.525,424.897 75.6917,425.563 75,426.5C 74.5357,425.906 74.369,425.239 74.5,424.5 Z"/></g>
<g><path style="opacity:0.008" fill="#000000" d="M 433.5,426.5 C 433.369,425.761 433.536,425.094 434,424.5C 434.692,425.437 434.525,426.103 433.5,426.5 Z"/></g>
<g><path style="opacity:0.008" fill="#000000" d="M 432.5,426.5 C 432.833,426.5 433.167,426.5 433.5,426.5C 433.672,427.492 433.338,428.158 432.5,428.5C 432.5,427.833 432.5,427.167 432.5,426.5 Z"/></g>
<g><path style="opacity:0.008" fill="#000000" d="M 431.5,428.5 C 431.833,428.5 432.167,428.5 432.5,428.5C 432.672,429.492 432.338,430.158 431.5,430.5C 431.5,429.833 431.5,429.167 431.5,428.5 Z"/></g>
<g><path style="opacity:0.98" fill="#33389d" d="M 76.5,423.5 C 79.1633,428.159 81.8299,432.825 84.5,437.5C 83.8333,437.167 83.1667,436.833 82.5,436.5C 81.5254,434.205 80.1921,432.205 78.5,430.5C 77.5448,428.254 76.8782,425.921 76.5,423.5 Z"/></g>
<g><path style="opacity:0.012" fill="#000000" d="M 78.5,430.5 C 77.8333,431.167 77.8333,431.167 78.5,430.5 Z"/></g>
<g><path style="opacity:0.012" fill="#000000" d="M 430.5,430.5 C 430.833,430.5 431.167,430.5 431.5,430.5C 431.315,431.17 430.981,431.17 430.5,430.5 Z"/></g>
<g><path style="opacity:0.008" fill="#000000" d="M 112.5,432.5 C 112.897,431.475 113.563,431.308 114.5,432C 113.906,432.464 113.239,432.631 112.5,432.5 Z"/></g>
<g><path style="opacity:0.008" fill="#000000" d="M 115.5,433.5 C 115.897,432.475 116.563,432.308 117.5,433C 116.906,433.464 116.239,433.631 115.5,433.5 Z"/></g>
<g><path style="opacity:0.008" fill="#000000" d="M 391.5,433.5 C 391.897,432.475 392.563,432.308 393.5,433C 392.906,433.464 392.239,433.631 391.5,433.5 Z"/></g>
<g><path style="opacity:0.012" fill="#000000" d="M 429.5,432.5 C 430.833,433.167 430.833,433.167 429.5,432.5 Z"/></g>
<g><path style="opacity:0.009" fill="#000000" d="M 118.5,434.5 C 119.251,433.427 120.251,433.26 121.5,434C 120.552,434.483 119.552,434.649 118.5,434.5 Z"/></g>
<g><path style="opacity:0.01" fill="#000000" d="M 387.5,434.5 C 388.251,433.427 389.251,433.26 390.5,434C 389.552,434.483 388.552,434.649 387.5,434.5 Z"/></g>
<g><path style="opacity:0.006" fill="#000000" d="M 428.5,433.5 C 428.833,433.5 429.167,433.5 429.5,433.5C 429.672,434.492 429.338,435.158 428.5,435.5C 428.5,434.833 428.5,434.167 428.5,433.5 Z"/></g>
<g><path style="opacity:0.004" fill="#000000" d="M 124.5,435.5 C 210.999,434.334 297.666,434.168 384.5,435C 297.834,435.5 211.167,435.667 124.5,435.5 Z"/></g>
<g><path style="opacity:0.012" fill="#000000" d="M 427.5,435.5 C 427.833,435.5 428.167,435.5 428.5,435.5C 428.315,436.17 427.981,436.17 427.5,435.5 Z"/></g>
<g><path style="opacity:0.012" fill="#000000" d="M 82.5,436.5 C 81.8333,437.167 81.8333,437.167 82.5,436.5 Z"/></g>
<g><path style="opacity:0.012" fill="#000000" d="M 426.5,436.5 C 426.833,436.5 427.167,436.5 427.5,436.5C 427.315,437.17 426.981,437.17 426.5,436.5 Z"/></g>
<g><path style="opacity:0.008" fill="#000000" d="M 82.5,438.5 C 83.8333,439.167 83.8333,439.167 82.5,438.5 Z"/></g>
<g><path style="opacity:0.008" fill="#000000" d="M 425.5,438.5 C 426.833,439.167 426.833,439.167 425.5,438.5 Z"/></g>
<g><path style="opacity:0.012" fill="#000000" d="M 424.5,439.5 C 424.833,439.5 425.167,439.5 425.5,439.5C 425.315,440.17 424.981,440.17 424.5,439.5 Z"/></g>
<g><path style="opacity:0.016" fill="#000000" d="M 423.5,440.5 C 423.833,440.5 424.167,440.5 424.5,440.5C 424.315,441.17 423.981,441.17 423.5,440.5 Z"/></g>
<g><path style="opacity:0.514" fill="#31369a" d="M 424.5,437.5 C 424.5,438.167 424.5,438.833 424.5,439.5C 423.833,439.5 423.5,439.833 423.5,440.5C 422.833,440.5 422.5,440.833 422.5,441.5C 421.833,441.5 421.5,441.833 421.5,442.5C 420.833,442.5 420.5,442.833 420.5,443.5C 419.833,443.5 419.5,443.833 419.5,444.5C 418.833,444.5 418.5,444.833 418.5,445.5C 417.833,445.5 417.5,445.833 417.5,446.5C 417.167,446.5 416.833,446.5 416.5,446.5C 418.121,443.172 420.787,440.172 424.5,437.5 Z"/></g>
<g><path style="opacity:0.016" fill="#000000" d="M 422.5,441.5 C 422.833,441.5 423.167,441.5 423.5,441.5C 423.315,442.17 422.981,442.17 422.5,441.5 Z"/></g>
<g><path style="opacity:0.016" fill="#000000" d="M 421.5,442.5 C 421.833,442.5 422.167,442.5 422.5,442.5C 422.315,443.17 421.981,443.17 421.5,442.5 Z"/></g>
<g><path style="opacity:0.016" fill="#000000" d="M 420.5,443.5 C 420.833,443.5 421.167,443.5 421.5,443.5C 421.315,444.17 420.981,444.17 420.5,443.5 Z"/></g>
<g><path style="opacity:0.016" fill="#000000" d="M 419.5,444.5 C 419.833,444.5 420.167,444.5 420.5,444.5C 420.315,445.17 419.981,445.17 419.5,444.5 Z"/></g>
<g><path style="opacity:0.016" fill="#000000" d="M 418.5,445.5 C 418.833,445.5 419.167,445.5 419.5,445.5C 419.315,446.17 418.981,446.17 418.5,445.5 Z"/></g>
<g><path style="opacity:0.012" fill="#000000" d="M 417.5,446.5 C 417.833,446.5 418.167,446.5 418.5,446.5C 418.315,447.17 417.981,447.17 417.5,446.5 Z"/></g>
<g><path style="opacity:0.008" fill="#000000" d="M 416.5,447.5 C 416.833,447.5 417.167,447.5 417.5,447.5C 417.315,448.17 416.981,448.17 416.5,447.5 Z"/></g>
<g><path style="opacity:0.006" fill="#000000" d="M 414.5,449.5 C 414.5,449.167 414.5,448.833 414.5,448.5C 415.167,448.5 415.833,448.5 416.5,448.5C 416.158,449.338 415.492,449.672 414.5,449.5 Z"/></g>
<g><path style="opacity:0.016" fill="#000000" d="M 95.5,449.5 C 95.5,449.833 95.5,450.167 95.5,450.5C 94.8299,450.019 94.8299,449.685 95.5,449.5 Z"/></g>
<g><path style="opacity:0.012" fill="#000000" d="M 413.5,449.5 C 413.833,449.5 414.167,449.5 414.5,449.5C 414.315,450.17 413.981,450.17 413.5,449.5 Z"/></g>
<g><path style="opacity:0.008" fill="#000000" d="M 95.5,450.5 C 96.8333,451.167 96.8333,451.167 95.5,450.5 Z"/></g>
<g><path style="opacity:0.008" fill="#000000" d="M 413.5,450.5 C 412.833,451.167 412.833,451.167 413.5,450.5 Z"/></g>
<g><path style="opacity:0.012" fill="#000000" d="M 410.5,451.5 C 411.833,452.167 411.833,452.167 410.5,451.5 Z"/></g>
<g><path style="opacity:0.006" fill="#000000" d="M 408.5,453.5 C 408.5,453.167 408.5,452.833 408.5,452.5C 409.167,452.5 409.833,452.5 410.5,452.5C 410.158,453.338 409.492,453.672 408.5,453.5 Z"/></g>
<g><path style="opacity:0.008" fill="#000000" d="M 406.5,454.5 C 406.5,454.167 406.5,453.833 406.5,453.5C 407.167,453.5 407.833,453.5 408.5,453.5C 408.158,454.338 407.492,454.672 406.5,454.5 Z"/></g>
<g><path style="opacity:0.008" fill="#000000" d="M 404.5,455.5 C 404.5,455.167 404.5,454.833 404.5,454.5C 405.167,454.5 405.833,454.5 406.5,454.5C 406.158,455.338 405.492,455.672 404.5,455.5 Z"/></g>
<g><path style="opacity:0.01" fill="#000000" d="M 402.5,456.5 C 402.5,456.167 402.5,455.833 402.5,455.5C 403.167,455.5 403.833,455.5 404.5,455.5C 404.158,456.338 403.492,456.672 402.5,456.5 Z"/></g>
<g><path style="opacity:0.007" fill="#000000" d="M 399.5,457.5 C 399.5,457.167 399.5,456.833 399.5,456.5C 400.5,456.5 401.5,456.5 402.5,456.5C 401.791,457.404 400.791,457.737 399.5,457.5 Z"/></g>
<g><path style="opacity:0.008" fill="#000000" d="M 112.5,457.5 C 111.749,458.573 110.749,458.74 109.5,458C 110.448,457.517 111.448,457.351 112.5,457.5 Z"/></g>
<g><path style="opacity:0.008" fill="#000000" d="M 396.5,457.5 C 397.5,457.5 398.5,457.5 399.5,457.5C 398.5,458.833 397.5,458.833 396.5,457.5 Z"/></g>
<g><path style="opacity:0.01" fill="#000000" d="M 113.5,459.5 C 114.251,458.427 115.251,458.26 116.5,459C 115.552,459.483 114.552,459.649 113.5,459.5 Z"/></g>
<g><path style="opacity:0.01" fill="#000000" d="M 392.5,459.5 C 393.251,458.427 394.251,458.26 395.5,459C 394.552,459.483 393.552,459.649 392.5,459.5 Z"/></g>
<g><path style="opacity:0.004" fill="#000000" d="M 118.5,460.5 C 208.999,459.334 299.666,459.168 390.5,460C 299.834,460.5 209.167,460.667 118.5,460.5 Z"/></g>
</svg>
