<?xml version="1.0" encoding="UTF-8"?>
<!DOCTYPE svg PUBLIC "-//W3C//DTD SVG 1.1//EN" "http://www.w3.org/Graphics/SVG/1.1/DTD/svg11.dtd">
<svg xmlns="http://www.w3.org/2000/svg" version="1.1" width="512px" height="512px" style="shape-rendering:geometricPrecision; text-rendering:geometricPrecision; image-rendering:optimizeQuality; fill-rule:evenodd; clip-rule:evenodd" xmlns:xlink="http://www.w3.org/1999/xlink">
<g><path style="opacity:0.01" fill="#000000" d="M 185.5,51.5 C 191.319,50.3475 197.319,50.1808 203.5,51C 197.509,51.4995 191.509,51.6662 185.5,51.5 Z"/></g>
<g><path style="opacity:0.01" fill="#000000" d="M 307.5,51.5 C 313.319,50.3475 319.319,50.1808 325.5,51C 319.509,51.4995 313.509,51.6662 307.5,51.5 Z"/></g>
<g><path style="opacity:0.01" fill="#000000" d="M 183.5,52.5 C 182.127,52.6567 180.793,52.49 179.5,52C 181.066,51.235 182.399,51.4017 183.5,52.5 Z"/></g>
<g><path style="opacity:0.009" fill="#000000" d="M 205.5,52.5 C 206.601,51.4017 207.934,51.235 209.5,52C 208.207,52.49 206.873,52.6567 205.5,52.5 Z"/></g>
<g><path style="opacity:0.009" fill="#000000" d="M 301.5,52.5 C 302.601,51.4017 303.934,51.235 305.5,52C 304.207,52.49 302.873,52.6567 301.5,52.5 Z"/></g>
<g><path style="opacity:0.01" fill="#000000" d="M 327.5,52.5 C 328.601,51.4017 329.934,51.235 331.5,52C 330.207,52.49 328.873,52.6567 327.5,52.5 Z"/></g>
<g><path style="opacity:0.009" fill="#000000" d="M 178.5,53.5 C 177.448,53.6495 176.448,53.4828 175.5,53C 176.749,52.2599 177.749,52.4265 178.5,53.5 Z"/></g>
<g><path style="opacity:0.942" fill="#000000" d="M 183.5,52.5 C 193.589,52.1229 203.589,52.7896 213.5,54.5C 214.209,55.404 215.209,55.7373 216.5,55.5C 218.509,57.0652 220.843,58.0652 223.5,58.5C 225.794,60.653 228.46,62.3197 231.5,63.5C 233.46,65.1563 235.46,66.823 237.5,68.5C 241.528,72.8593 245.528,77.1927 249.5,81.5C 249.427,83.0269 250.094,84.0269 251.5,84.5C 252.11,86.4341 253.11,88.1007 254.5,89.5C 255.167,92.1667 255.833,92.1667 256.5,89.5C 257.89,88.1007 258.89,86.4341 259.5,84.5C 268.978,70.3445 281.644,60.3445 297.5,54.5C 307.411,52.7896 317.411,52.1229 327.5,52.5C 328.919,53.4511 330.585,53.7845 332.5,53.5C 335.215,55.0719 338.215,56.0719 341.5,56.5C 343.649,57.7362 345.982,58.7362 348.5,59.5C 350.794,61.653 353.46,63.3197 356.5,64.5C 362.463,68.7949 367.796,73.7949 372.5,79.5C 372.738,81.4044 373.738,82.7377 375.5,83.5C 376.659,87.1513 378.326,90.4846 380.5,93.5C 380.595,95.7857 381.262,97.7857 382.5,99.5C 383.165,104.49 383.832,109.49 384.5,114.5C 383.832,119.51 383.165,124.51 382.5,129.5C 381.596,130.209 381.263,131.209 381.5,132.5C 380.596,133.209 380.263,134.209 380.5,135.5C 379.662,135.842 379.328,136.508 379.5,137.5C 378.662,137.842 378.328,138.508 378.5,139.5C 377.662,139.842 377.328,140.508 377.5,141.5C 376.662,141.842 376.328,142.508 376.5,143.5C 375.833,143.5 375.5,143.833 375.5,144.5C 374.662,144.842 374.328,145.508 374.5,146.5C 373.833,146.5 373.5,146.833 373.5,147.5C 371.457,148.579 370.124,150.246 369.5,152.5C 368.833,152.5 368.5,152.833 368.5,153.5C 367.833,153.5 367.5,153.833 367.5,154.5C 366.833,154.5 366.5,154.833 366.5,155.5C 365.833,155.5 365.5,155.833 365.5,156.5C 363.973,156.427 362.973,157.094 362.5,158.5C 361.833,158.5 361.5,158.833 361.5,159.5C 359.973,159.427 358.973,160.094 358.5,161.5C 357.508,161.328 356.842,161.662 356.5,162.5C 354.181,162.992 352.181,163.992 350.5,165.5C 349.508,165.328 348.842,165.662 348.5,166.5C 342.695,167.622 336.861,168.622 331,169.5C 329.234,168.767 327.401,168.433 325.5,168.5C 320.843,165.526 318.51,161.193 318.5,155.5C 320.23,151.932 322.897,149.098 326.5,147C 338.016,147.278 347.516,143.111 355,134.5C 355.464,133.906 355.631,133.239 355.5,132.5C 356.906,132.027 357.573,131.027 357.5,129.5C 358.931,128.22 359.598,126.553 359.5,124.5C 360.913,121.618 361.579,118.451 361.5,115C 361.494,112.967 361.161,111.134 360.5,109.5C 360.829,106.772 360.163,104.438 358.5,102.5C 358.737,101.209 358.404,100.209 357.5,99.5C 356.66,97.1475 355.326,95.1475 353.5,93.5C 353.573,91.9731 352.906,90.9731 351.5,90.5C 348.224,86.5293 344.224,83.5293 339.5,81.5C 338.713,79.8958 337.38,79.2291 335.5,79.5C 334.22,78.0687 332.553,77.4021 330.5,77.5C 329.432,76.5655 328.099,76.2322 326.5,76.5C 318.734,73.8925 311.067,74.2258 303.5,77.5C 302.209,77.2627 301.209,77.596 300.5,78.5C 299.508,78.3284 298.842,78.6618 298.5,79.5C 297.508,79.3284 296.842,79.6618 296.5,80.5C 295.508,80.3284 294.842,80.6618 294.5,81.5C 292.973,81.427 291.973,82.0937 291.5,83.5C 290.833,83.5 290.5,83.8333 290.5,84.5C 288.596,84.7376 287.262,85.7376 286.5,87.5C 285.833,87.5 285.5,87.8333 285.5,88.5C 284.094,88.9731 283.427,89.9731 283.5,91.5C 282.833,91.5 282.5,91.8333 282.5,92.5C 281.833,92.5 281.5,92.8333 281.5,93.5C 280.094,93.9731 279.427,94.9731 279.5,96.5C 278.662,96.8417 278.328,97.5084 278.5,98.5C 277.833,98.5 277.5,98.8333 277.5,99.5C 276.662,99.8417 276.328,100.508 276.5,101.5C 275.662,101.842 275.328,102.508 275.5,103.5C 274.662,103.842 274.328,104.508 274.5,105.5C 273.662,105.842 273.328,106.508 273.5,107.5C 272.069,108.78 271.402,110.447 271.5,112.5C 270.596,113.209 270.263,114.209 270.5,115.5C 269.596,116.209 269.263,117.209 269.5,118.5C 268.566,119.568 268.232,120.901 268.5,122.5C 267.566,123.568 267.232,124.901 267.5,126.5C 266.596,127.209 266.263,128.209 266.5,129.5C 265.662,129.842 265.328,130.508 265.5,131.5C 264.833,131.5 264.5,131.833 264.5,132.5C 263.5,132.833 262.833,133.5 262.5,134.5C 261.833,134.5 261.5,134.833 261.5,135.5C 260.508,135.328 259.842,135.662 259.5,136.5C 254.406,137.336 250.073,136.002 246.5,132.5C 244.949,129.164 243.615,125.831 242.5,122.5C 242.768,120.901 242.434,119.568 241.5,118.5C 240.935,114.463 239.601,110.797 237.5,107.5C 236.258,103.345 234.258,99.678 231.5,96.5C 231.573,94.9731 230.906,93.9731 229.5,93.5C 229.167,92.5 228.5,91.8333 227.5,91.5C 227.573,89.9731 226.906,88.9731 225.5,88.5C 225.5,87.8333 225.167,87.5 224.5,87.5C 223.738,85.7376 222.404,84.7376 220.5,84.5C 219.738,82.7376 218.404,81.7376 216.5,81.5C 215.486,80.3263 214.153,79.6596 212.5,79.5C 211.22,78.0687 209.553,77.4021 207.5,77.5C 199.933,74.2258 192.266,73.8925 184.5,76.5C 182.901,76.2322 181.568,76.5655 180.5,77.5C 179.209,77.2627 178.209,77.596 177.5,78.5C 176.508,78.3284 175.842,78.6618 175.5,79.5C 173.62,79.2291 172.287,79.8958 171.5,81.5C 170.508,81.3284 169.842,81.6618 169.5,82.5C 168.508,82.3284 167.842,82.6618 167.5,83.5C 166.833,83.5 166.5,83.8333 166.5,84.5C 165.833,84.5 165.5,84.8333 165.5,85.5C 164.508,85.3284 163.842,85.6618 163.5,86.5C 162.833,86.5 162.5,86.8333 162.5,87.5C 161.833,87.5 161.5,87.8333 161.5,88.5C 160.833,88.5 160.5,88.8333 160.5,89.5C 159.833,89.5 159.5,89.8333 159.5,90.5C 158.094,90.9731 157.427,91.9731 157.5,93.5C 156.833,93.5 156.5,93.8333 156.5,94.5C 155.662,94.8417 155.328,95.5084 155.5,96.5C 154.833,96.5 154.5,96.8333 154.5,97.5C 153.662,97.8417 153.328,98.5084 153.5,99.5C 152.596,100.209 152.263,101.209 152.5,102.5C 150.837,104.438 150.171,106.772 150.5,109.5C 148.659,118.147 150.325,126.147 155.5,133.5C 158.719,139.391 163.052,144.391 168.5,148.5C 172.302,152.237 176.635,155.237 181.5,157.5C 185.347,160.593 189.68,162.926 194.5,164.5C 196.509,166.065 198.843,167.065 201.5,167.5C 202.209,168.404 203.209,168.737 204.5,168.5C 205.209,169.404 206.209,169.737 207.5,169.5C 208.209,170.404 209.209,170.737 210.5,170.5C 212.214,171.738 214.214,172.405 216.5,172.5C 217.568,173.434 218.901,173.768 220.5,173.5C 227.869,175.843 235.536,177.343 243.5,178C 299.166,178.5 354.832,178.667 410.5,178.5C 411.568,179.434 412.901,179.768 414.5,179.5C 415.93,180.537 417.597,181.204 419.5,181.5C 424.794,185.127 429.461,189.46 433.5,194.5C 433.66,196.153 434.326,197.486 435.5,198.5C 435.263,199.791 435.596,200.791 436.5,201.5C 436.232,203.099 436.566,204.432 437.5,205.5C 437.5,274.5 437.5,343.5 437.5,412.5C 436.549,413.919 436.216,415.585 436.5,417.5C 434.928,420.215 433.928,423.215 433.5,426.5C 432.662,426.842 432.328,427.508 432.5,428.5C 431.662,428.842 431.328,429.508 431.5,430.5C 430.662,430.842 430.328,431.508 430.5,432.5C 429.833,432.5 429.5,432.833 429.5,433.5C 428.662,433.842 428.328,434.508 428.5,435.5C 427.833,435.5 427.5,435.833 427.5,436.5C 426.094,436.973 425.427,437.973 425.5,439.5C 424.833,439.5 424.5,439.833 424.5,440.5C 423.833,440.5 423.5,440.833 423.5,441.5C 422.833,441.5 422.5,441.833 422.5,442.5C 421.833,442.5 421.5,442.833 421.5,443.5C 420.833,443.5 420.5,443.833 420.5,444.5C 419.833,444.5 419.5,444.833 419.5,445.5C 418.833,445.5 418.5,445.833 418.5,446.5C 417.833,446.5 417.5,446.833 417.5,447.5C 416.508,447.328 415.842,447.662 415.5,448.5C 414.833,448.5 414.5,448.833 414.5,449.5C 412.973,449.427 411.973,450.094 411.5,451.5C 410.508,451.328 409.842,451.662 409.5,452.5C 408.508,452.328 407.842,452.662 407.5,453.5C 406.508,453.328 405.842,453.662 405.5,454.5C 404.508,454.328 403.842,454.662 403.5,455.5C 402.209,455.263 401.209,455.596 400.5,456.5C 399.209,456.263 398.209,456.596 397.5,457.5C 302.833,458.833 208.167,458.833 113.5,457.5C 107.751,455.127 102.084,452.46 96.5,449.5C 91.8333,445.5 87.5,441.167 83.5,436.5C 82.5254,434.205 81.1921,432.205 79.5,430.5C 78.0082,426.013 76.3415,421.68 74.5,417.5C 74.7845,415.585 74.4511,413.919 73.5,412.5C 73.1797,342.144 73.513,271.811 74.5,201.5C 78.8333,191.167 86.1667,183.833 96.5,179.5C 98.099,179.768 99.4324,179.434 100.5,178.5C 110.506,178.334 120.506,178.5 130.5,179C 133.202,180.012 135.535,181.512 137.5,183.5C 137.328,184.492 137.662,185.158 138.5,185.5C 138.81,189.7 138.143,193.7 136.5,197.5C 135.833,197.5 135.5,197.833 135.5,198.5C 134.833,198.5 134.5,198.833 134.5,199.5C 133.508,199.328 132.842,199.662 132.5,200.5C 122.357,201.094 112.357,201.76 102.5,202.5C 101.508,202.328 100.842,202.662 100.5,203.5C 99.8333,203.5 99.5,203.833 99.5,204.5C 98.8333,204.5 98.5,204.833 98.5,205.5C 97.6618,205.842 97.3284,206.508 97.5,207.5C 96.3346,275.665 96.1679,343.999 97,412.5C 97.2321,413.737 97.7321,414.737 98.5,415.5C 101.005,423.34 106.005,429.007 113.5,432.5C 116.719,434.718 120.386,435.885 124.5,436C 211.833,436.667 299.167,436.667 386.5,436C 399.484,434.504 408.151,427.671 412.5,415.5C 413.268,414.737 413.768,413.737 414,412.5C 414.832,343.999 414.665,275.665 413.5,207.5C 413.672,206.508 413.338,205.842 412.5,205.5C 411.738,203.738 410.404,202.738 408.5,202.5C 355.002,201.667 301.335,201.167 247.5,201C 239.477,200.306 231.477,199.473 223.5,198.5C 218.427,196.565 213.094,195.232 207.5,194.5C 206.791,193.596 205.791,193.263 204.5,193.5C 203.791,192.596 202.791,192.263 201.5,192.5C 200.791,191.596 199.791,191.263 198.5,191.5C 197.22,190.069 195.553,189.402 193.5,189.5C 192.791,188.596 191.791,188.263 190.5,188.5C 186.818,185.992 182.818,183.992 178.5,182.5C 176.151,180.659 173.485,179.326 170.5,178.5C 166.447,175.117 162.114,172.117 157.5,169.5C 150.131,163.132 143.464,156.132 137.5,148.5C 136.32,145.46 134.653,142.794 132.5,140.5C 132.672,139.508 132.338,138.842 131.5,138.5C 131.737,137.209 131.404,136.209 130.5,135.5C 126.225,123.694 125.558,111.694 128.5,99.5C 135.679,78.9875 149.346,64.6542 169.5,56.5C 172.785,56.0719 175.785,55.0719 178.5,53.5C 180.415,53.7845 182.081,53.4511 183.5,52.5 Z M 220.5,84.5 C 222.404,84.7376 223.738,85.7376 224.5,87.5C 223.833,87.5 223.167,87.5 222.5,87.5C 221.833,86.5 221.167,85.5 220.5,84.5 Z M 290.5,84.5 C 289.833,85.5 289.167,86.5 288.5,87.5C 287.833,87.5 287.167,87.5 286.5,87.5C 287.262,85.7376 288.596,84.7376 290.5,84.5 Z M 225.5,88.5 C 226.906,88.9731 227.573,89.9731 227.5,91.5C 226.833,91.1667 226.167,90.8333 225.5,90.5C 225.5,89.8333 225.5,89.1667 225.5,88.5 Z M 285.5,88.5 C 285.5,89.1667 285.5,89.8333 285.5,90.5C 284.833,90.8333 284.167,91.1667 283.5,91.5C 283.427,89.9731 284.094,88.9731 285.5,88.5 Z M 254.5,89.5 C 255.167,89.5 255.833,89.5 256.5,89.5C 255.833,92.1667 255.167,92.1667 254.5,89.5 Z M 159.5,90.5 C 159.573,92.0269 158.906,93.0269 157.5,93.5C 157.427,91.9731 158.094,90.9731 159.5,90.5 Z M 351.5,90.5 C 352.906,90.9731 353.573,91.9731 353.5,93.5C 352.094,93.0269 351.427,92.0269 351.5,90.5 Z M 229.5,93.5 C 230.906,93.9731 231.573,94.9731 231.5,96.5C 230.094,96.0269 229.427,95.0269 229.5,93.5 Z M 281.5,93.5 C 281.573,95.0269 280.906,96.0269 279.5,96.5C 279.427,94.9731 280.094,93.9731 281.5,93.5 Z"/></g>
<g><path style="opacity:0.012" fill="#000000" d="M 210.5,53.5 C 210.897,52.475 211.563,52.3083 212.5,53C 211.906,53.4643 211.239,53.631 210.5,53.5 Z"/></g>
<g><path style="opacity:0.012" fill="#000000" d="M 298.5,53.5 C 298.897,52.475 299.563,52.3083 300.5,53C 299.906,53.4643 299.239,53.631 298.5,53.5 Z"/></g>
<g><path style="opacity:0.009" fill="#000000" d="M 332.5,53.5 C 333.251,52.4265 334.251,52.2599 335.5,53C 334.552,53.4828 333.552,53.6495 332.5,53.5 Z"/></g>
<g><path style="opacity:0.012" fill="#000000" d="M 172.5,54.5 C 172.897,53.475 173.563,53.3083 174.5,54C 173.906,54.4643 173.239,54.631 172.5,54.5 Z"/></g>
<g><path style="opacity:0.01" fill="#000000" d="M 213.5,54.5 C 213.897,53.475 214.563,53.3083 215.5,54C 214.906,54.4643 214.239,54.631 213.5,54.5 Z"/></g>
<g><path style="opacity:0.012" fill="#000000" d="M 297.5,54.5 C 296.761,54.631 296.094,54.4643 295.5,54C 296.437,53.3083 297.103,53.475 297.5,54.5 Z"/></g>
<g><path style="opacity:0.01" fill="#000000" d="M 336.5,54.5 C 336.897,53.475 337.563,53.3083 338.5,54C 337.906,54.4643 337.239,54.631 336.5,54.5 Z"/></g>
<g><path style="opacity:0.008" fill="#000000" d="M 169.5,55.5 C 169.897,54.475 170.563,54.3083 171.5,55C 170.906,55.4643 170.239,55.631 169.5,55.5 Z"/></g>
<g><path style="opacity:0.01" fill="#000000" d="M 216.5,55.5 C 216.897,54.475 217.563,54.3083 218.5,55C 217.906,55.4643 217.239,55.631 216.5,55.5 Z"/></g>
<g><path style="opacity:0.008" fill="#000000" d="M 341.5,55.5 C 340.761,55.631 340.094,55.4643 339.5,55C 340.437,54.3083 341.103,54.475 341.5,55.5 Z"/></g>
<g><path style="opacity:0.01" fill="#000000" d="M 169.5,55.5 C 169.5,55.8333 169.5,56.1667 169.5,56.5C 166.833,56.1667 166.833,55.8333 169.5,55.5 Z"/></g>
<g><path style="opacity:0.012" fill="#000000" d="M 219.5,55.5 C 220.833,56.1667 220.833,56.1667 219.5,55.5 Z"/></g>
<g><path style="opacity:0.01" fill="#000000" d="M 341.5,56.5 C 341.5,56.1667 341.5,55.8333 341.5,55.5C 344.167,55.8333 344.167,56.1667 341.5,56.5 Z"/></g>
<g><path style="opacity:0.012" fill="#000000" d="M 165.5,56.5 C 166.833,57.1667 166.833,57.1667 165.5,56.5 Z"/></g>
<g><path style="opacity:0.012" fill="#000000" d="M 223.5,57.5 C 224.833,58.1667 224.833,58.1667 223.5,57.5 Z"/></g>
<g><path style="opacity:0.012" fill="#000000" d="M 348.5,58.5 C 349.833,59.1667 349.833,59.1667 348.5,58.5 Z"/></g>
<g><path style="opacity:0.012" fill="#000000" d="M 231.5,62.5 C 232.833,63.1667 232.833,63.1667 231.5,62.5 Z"/></g>
<g><path style="opacity:0.008" fill="#000000" d="M 233.5,63.5 C 234.833,64.1667 234.833,64.1667 233.5,63.5 Z"/></g>
<g><path style="opacity:0.008" fill="#000000" d="M 276.5,63.5 C 277.833,64.1667 277.833,64.1667 276.5,63.5 Z"/></g>
<g><path style="opacity:0.012" fill="#000000" d="M 356.5,63.5 C 357.833,64.1667 357.833,64.1667 356.5,63.5 Z"/></g>
<g><path style="opacity:0.008" fill="#000000" d="M 151.5,64.5 C 152.833,65.1667 152.833,65.1667 151.5,64.5 Z"/></g>
<g><path style="opacity:0.008" fill="#000000" d="M 358.5,64.5 C 359.833,65.1667 359.833,65.1667 358.5,64.5 Z"/></g>
<g><path style="opacity:0.004" fill="#000000" d="M 237.5,68.5 C 238.167,67.1667 238.833,67.1667 239.5,68.5C 238.833,68.5 238.167,68.5 237.5,68.5 Z"/></g>
<g><path style="opacity:0.004" fill="#000000" d="M 239.5,68.5 C 240.167,68.5 240.5,68.8333 240.5,69.5C 240.167,69.1667 239.833,68.8333 239.5,68.5 Z"/></g>
<g><path style="opacity:0.004" fill="#000000" d="M 270.5,68.5 C 271.833,69.1667 271.833,69.1667 270.5,68.5 Z"/></g>
<g><path style="opacity:0.008" fill="#000000" d="M 240.5,69.5 C 241.167,69.5 241.5,69.8333 241.5,70.5C 241.167,70.1667 240.833,69.8333 240.5,69.5 Z"/></g>
<g><path style="opacity:0.008" fill="#000000" d="M 270.5,69.5 C 269.833,70.1667 269.833,70.1667 270.5,69.5 Z"/></g>
<g><path style="opacity:0.008" fill="#000000" d="M 241.5,70.5 C 242.167,70.5 242.5,70.8333 242.5,71.5C 242.167,71.1667 241.833,70.8333 241.5,70.5 Z"/></g>
<g><path style="opacity:0.008" fill="#000000" d="M 269.5,70.5 C 268.833,71.1667 268.833,71.1667 269.5,70.5 Z"/></g>
<g><path style="opacity:0.004" fill="#000000" d="M 242.5,71.5 C 243.167,71.5 243.5,71.8333 243.5,72.5C 243.167,72.1667 242.833,71.8333 242.5,71.5 Z"/></g>
<g><path style="opacity:0.004" fill="#000000" d="M 268.5,71.5 C 267.833,72.1667 267.833,72.1667 268.5,71.5 Z"/></g>
<g><path style="opacity:0.004" fill="#000000" d="M 243.5,72.5 C 244.833,73.1667 244.833,73.1667 243.5,72.5 Z"/></g>
<g><path style="opacity:0.004" fill="#000000" d="M 267.5,72.5 C 266.833,73.1667 266.833,73.1667 267.5,72.5 Z"/></g>
<g><path style="opacity:0.004" fill="#000000" d="M 192.5,76.5 C 193.601,75.4017 194.934,75.235 196.5,76C 195.207,76.49 193.873,76.6567 192.5,76.5 Z"/></g>
<g><path style="opacity:0.004" fill="#000000" d="M 314.5,76.5 C 315.601,75.4017 316.934,75.235 318.5,76C 317.207,76.49 315.873,76.6567 314.5,76.5 Z"/></g>
<g><path style="opacity:0.009" fill="#000000" d="M 184.5,76.5 C 186.199,76.3398 187.866,76.5065 189.5,77C 187.613,77.7796 185.946,77.6129 184.5,76.5 Z"/></g>
<g><path style="opacity:0.009" fill="#000000" d="M 199.5,77.5 C 200.601,76.4017 201.934,76.235 203.5,77C 202.207,77.49 200.873,77.6567 199.5,77.5 Z"/></g>
<g><path style="opacity:0.01" fill="#000000" d="M 307.5,77.5 C 308.601,76.4017 309.934,76.235 311.5,77C 310.207,77.49 308.873,77.6567 307.5,77.5 Z"/></g>
<g><path style="opacity:0.009" fill="#000000" d="M 326.5,76.5 C 325.054,77.6129 323.387,77.7796 321.5,77C 323.134,76.5065 324.801,76.3398 326.5,76.5 Z"/></g>
<g><path style="opacity:0.008" fill="#000000" d="M 180.5,77.5 C 181.552,77.3505 182.552,77.5172 183.5,78C 182.251,78.7401 181.251,78.5735 180.5,77.5 Z"/></g>
<g><path style="opacity:0.01" fill="#000000" d="M 207.5,77.5 C 207.103,78.525 206.437,78.6917 205.5,78C 206.094,77.5357 206.761,77.369 207.5,77.5 Z"/></g>
<g><path style="opacity:0.01" fill="#000000" d="M 303.5,77.5 C 304.239,77.369 304.906,77.5357 305.5,78C 304.563,78.6917 303.897,78.525 303.5,77.5 Z"/></g>
<g><path style="opacity:0.008" fill="#000000" d="M 330.5,77.5 C 329.749,78.5735 328.749,78.7401 327.5,78C 328.448,77.5172 329.448,77.3505 330.5,77.5 Z"/></g>
<g><path style="opacity:0.01" fill="#000000" d="M 177.5,79.5 C 177.5,79.1667 177.5,78.8333 177.5,78.5C 180.167,78.8333 180.167,79.1667 177.5,79.5 Z"/></g>
<g><path style="opacity:0.01" fill="#000000" d="M 300.5,79.5 C 300.5,79.1667 300.5,78.8333 300.5,78.5C 303.167,78.8333 303.167,79.1667 300.5,79.5 Z"/></g>
<g><path style="opacity:0.016" fill="#000000" d="M 373.5,79.5 C 372.833,78.1667 372.833,78.1667 373.5,79.5 Z"/></g>
<g><path style="opacity:0.008" fill="#000000" d="M 136.5,79.5 C 137.833,80.1667 137.833,80.1667 136.5,79.5 Z"/></g>
<g><path style="opacity:0.008" fill="#000000" d="M 175.5,79.5 C 176.167,79.5 176.833,79.5 177.5,79.5C 176.833,80.8333 176.167,80.8333 175.5,79.5 Z"/></g>
<g><path style="opacity:0.008" fill="#000000" d="M 212.5,79.5 C 212.103,80.525 211.437,80.6917 210.5,80C 211.094,79.5357 211.761,79.369 212.5,79.5 Z"/></g>
<g><path style="opacity:0.008" fill="#000000" d="M 298.5,79.5 C 299.167,79.5 299.833,79.5 300.5,79.5C 299.833,80.8333 299.167,80.8333 298.5,79.5 Z"/></g>
<g><path style="opacity:0.008" fill="#000000" d="M 335.5,79.5 C 335.103,80.525 334.437,80.6917 333.5,80C 334.094,79.5357 334.761,79.369 335.5,79.5 Z"/></g>
<g><path style="opacity:0.008" fill="#000000" d="M 373.5,79.5 C 374.833,80.1667 374.833,80.1667 373.5,79.5 Z"/></g>
<g><path style="opacity:0.012" fill="#000000" d="M 173.5,80.5 C 174.833,81.1667 174.833,81.1667 173.5,80.5 Z"/></g>
<g><path style="opacity:0.016" fill="#000000" d="M 250.5,81.5 C 249.833,80.1667 249.833,80.1667 250.5,81.5 Z"/></g>
<g><path style="opacity:0.016" fill="#000000" d="M 296.5,80.5 C 297.833,81.1667 297.833,81.1667 296.5,80.5 Z"/></g>
<g><path style="opacity:0.012" fill="#000000" d="M 336.5,80.5 C 337.833,81.1667 337.833,81.1667 336.5,80.5 Z"/></g>
<g><path style="opacity:0.012" fill="#000000" d="M 171.5,81.5 C 172.833,82.1667 172.833,82.1667 171.5,81.5 Z"/></g>
<g><path style="opacity:0.01" fill="#000000" d="M 216.5,81.5 C 216.5,81.8333 216.5,82.1667 216.5,82.5C 213.833,82.1667 213.833,81.8333 216.5,81.5 Z"/></g>
<g><path style="opacity:0.008" fill="#000000" d="M 250.5,81.5 C 251.833,82.1667 251.833,82.1667 250.5,81.5 Z"/></g>
<g><path style="opacity:0.008" fill="#000000" d="M 259.5,81.5 C 260.833,82.1667 260.833,82.1667 259.5,81.5 Z"/></g>
<g><path style="opacity:0.008" fill="#000000" d="M 294.5,82.5 C 294.5,82.1667 294.5,81.8333 294.5,81.5C 295.167,81.5 295.833,81.5 296.5,81.5C 296.158,82.3382 295.492,82.6716 294.5,82.5 Z"/></g>
<g><path style="opacity:0.012" fill="#000000" d="M 339.5,81.5 C 338.833,82.1667 338.833,82.1667 339.5,81.5 Z"/></g>
<g><path style="opacity:0.016" fill="#000000" d="M 169.5,82.5 C 170.833,83.1667 170.833,83.1667 169.5,82.5 Z"/></g>
<g><path style="opacity:0.008" fill="#000000" d="M 216.5,82.5 C 217.833,83.1667 217.833,83.1667 216.5,82.5 Z"/></g>
<g><path style="opacity:0.008" fill="#000000" d="M 294.5,82.5 C 293.833,83.1667 293.833,83.1667 294.5,82.5 Z"/></g>
<g><path style="opacity:0.012" fill="#000000" d="M 375.5,82.5 C 376.833,83.1667 376.833,83.1667 375.5,82.5 Z"/></g>
<g><path style="opacity:0.008" fill="#000000" d="M 167.5,84.5 C 167.5,84.1667 167.5,83.8333 167.5,83.5C 168.167,83.5 168.833,83.5 169.5,83.5C 169.158,84.3382 168.492,84.6716 167.5,84.5 Z"/></g>
<g><path style="opacity:0.012" fill="#000000" d="M 252.5,84.5 C 251.833,83.1667 251.833,83.1667 252.5,84.5 Z"/></g>
<g><path style="opacity:0.012" fill="#000000" d="M 259.5,84.5 C 258.833,83.1667 258.833,83.1667 259.5,84.5 Z"/></g>
<g><path style="opacity:0.016" fill="#000000" d="M 291.5,83.5 C 292.833,84.1667 292.833,84.1667 291.5,83.5 Z"/></g>
<g><path style="opacity:0.016" fill="#000000" d="M 166.5,84.5 C 166.833,84.5 167.167,84.5 167.5,84.5C 167.315,85.1701 166.981,85.1701 166.5,84.5 Z"/></g>
<g><path style="opacity:0.008" fill="#000000" d="M 252.5,84.5 C 253.833,85.1667 253.833,85.1667 252.5,84.5 Z"/></g>
<g><path style="opacity:0.008" fill="#000000" d="M 258.5,84.5 C 257.833,85.1667 257.833,85.1667 258.5,84.5 Z"/></g>
<g><path style="opacity:0.012" fill="#000000" d="M 165.5,85.5 C 165.833,85.5 166.167,85.5 166.5,85.5C 166.315,86.1701 165.981,86.1701 165.5,85.5 Z"/></g>
<g><path style="opacity:0.004" fill="#000000" d="M 163.5,87.5 C 163.5,87.1667 163.5,86.8333 163.5,86.5C 164.167,86.5 164.833,86.5 165.5,86.5C 165.158,87.3382 164.492,87.6716 163.5,87.5 Z"/></g>
<g><path style="opacity:0.012" fill="#000000" d="M 162.5,87.5 C 162.833,87.5 163.167,87.5 163.5,87.5C 163.315,88.1701 162.981,88.1701 162.5,87.5 Z"/></g>
<g><path style="opacity:0.004" fill="#000000" d="M 222.5,87.5 C 223.167,87.5 223.833,87.5 224.5,87.5C 225.167,87.5 225.5,87.8333 225.5,88.5C 225.5,89.1667 225.5,89.8333 225.5,90.5C 224.167,89.8333 223.167,88.8333 222.5,87.5 Z"/></g>
<g><path style="opacity:0.007" fill="#000000" d="M 256.5,89.5 C 255.833,89.5 255.167,89.5 254.5,89.5C 255.167,86.8333 255.833,86.8333 256.5,89.5 Z"/></g>
<g><path style="opacity:0.004" fill="#000000" d="M 286.5,87.5 C 287.167,87.5 287.833,87.5 288.5,87.5C 287.833,88.8333 286.833,89.8333 285.5,90.5C 285.5,89.8333 285.5,89.1667 285.5,88.5C 286.167,88.5 286.5,88.1667 286.5,87.5 Z"/></g>
<g><path style="opacity:0.012" fill="#000000" d="M 161.5,88.5 C 161.833,88.5 162.167,88.5 162.5,88.5C 162.315,89.1701 161.981,89.1701 161.5,88.5 Z"/></g>
<g><path style="opacity:0.012" fill="#000000" d="M 160.5,89.5 C 160.833,89.5 161.167,89.5 161.5,89.5C 161.315,90.1701 160.981,90.1701 160.5,89.5 Z"/></g>
<g><path style="opacity:0.01" fill="#000000" d="M 381.5,93.5 C 381.167,93.5 380.833,93.5 380.5,93.5C 380.833,90.8333 381.167,90.8333 381.5,93.5 Z"/></g>
<g><path style="opacity:0.016" fill="#000000" d="M 282.5,92.5 C 283.833,93.1667 283.833,93.1667 282.5,92.5 Z"/></g>
<g><path style="opacity:0.008" fill="#000000" d="M 128.5,93.5 C 129.525,93.8966 129.692,94.5632 129,95.5C 128.536,94.9056 128.369,94.2389 128.5,93.5 Z"/></g>
<g><path style="opacity:0.008" fill="#000000" d="M 381.5,93.5 C 382.525,93.8966 382.692,94.5632 382,95.5C 381.536,94.9056 381.369,94.2389 381.5,93.5 Z"/></g>
<g><path style="opacity:0.008" fill="#000000" d="M 156.5,94.5 C 157.833,95.1667 157.833,95.8333 156.5,96.5C 156.5,95.8333 156.5,95.1667 156.5,94.5 Z"/></g>
<g><path style="opacity:0.008" fill="#000000" d="M 128.5,99.5 C 128.167,99.5 127.833,99.5 127.5,99.5C 127.833,95.5 128.167,95.5 128.5,99.5 Z"/></g>
<g><path style="opacity:0.012" fill="#000000" d="M 155.5,96.5 C 155.833,96.5 156.167,96.5 156.5,96.5C 156.315,97.1701 155.981,97.1701 155.5,96.5 Z"/></g>
<g><path style="opacity:0.008" fill="#000000" d="M 383.5,99.5 C 383.167,99.5 382.833,99.5 382.5,99.5C 382.833,95.5 383.167,95.5 383.5,99.5 Z"/></g>
<g><path style="opacity:0.006" fill="#000000" d="M 154.5,97.5 C 154.833,97.5 155.167,97.5 155.5,97.5C 155.672,98.4916 155.338,99.1583 154.5,99.5C 154.5,98.8333 154.5,98.1667 154.5,97.5 Z"/></g>
<g><path style="opacity:0.012" fill="#000000" d="M 278.5,98.5 C 279.833,99.1667 279.833,99.1667 278.5,98.5 Z"/></g>
<g><path style="opacity:0.009" fill="#000000" d="M 127.5,99.5 C 127.649,100.552 127.483,101.552 127,102.5C 126.26,101.251 126.427,100.251 127.5,99.5 Z"/></g>
<g><path style="opacity:0.008" fill="#000000" d="M 153.5,99.5 C 153.833,99.5 154.167,99.5 154.5,99.5C 154.167,102.167 153.833,102.167 153.5,99.5 Z"/></g>
<g><path style="opacity:0.008" fill="#000000" d="M 277.5,99.5 C 277.833,99.5 278.167,99.5 278.5,99.5C 278.672,100.492 278.338,101.158 277.5,101.5C 277.5,100.833 277.5,100.167 277.5,99.5 Z"/></g>
<g><path style="opacity:0.01" fill="#000000" d="M 357.5,99.5 C 357.631,100.239 357.464,100.906 357,101.5C 356.308,100.563 356.475,99.8966 357.5,99.5 Z"/></g>
<g><path style="opacity:0.009" fill="#000000" d="M 383.5,99.5 C 384.573,100.251 384.74,101.251 384,102.5C 383.517,101.552 383.351,100.552 383.5,99.5 Z"/></g>
<g><path style="opacity:0.008" fill="#000000" d="M 276.5,101.5 C 276.833,101.5 277.167,101.5 277.5,101.5C 277.672,102.492 277.338,103.158 276.5,103.5C 276.5,102.833 276.5,102.167 276.5,101.5 Z"/></g>
<g><path style="opacity:0.008" fill="#000000" d="M 152.5,102.5 C 153.525,102.897 153.692,103.563 153,104.5C 152.536,103.906 152.369,103.239 152.5,102.5 Z"/></g>
<g><path style="opacity:0.008" fill="#000000" d="M 358.5,102.5 C 358.631,103.239 358.464,103.906 358,104.5C 357.308,103.563 357.475,102.897 358.5,102.5 Z"/></g>
<g><path style="opacity:0.008" fill="#000000" d="M 275.5,103.5 C 275.833,103.5 276.167,103.5 276.5,103.5C 276.672,104.492 276.338,105.158 275.5,105.5C 275.5,104.833 275.5,104.167 275.5,103.5 Z"/></g>
<g><path style="opacity:0.009" fill="#000000" d="M 125.5,104.5 C 126.613,105.946 126.78,107.613 126,109.5C 125.506,107.866 125.34,106.199 125.5,104.5 Z"/></g>
<g><path style="opacity:0.009" fill="#000000" d="M 384.5,104.5 C 385.613,105.946 385.78,107.613 385,109.5C 384.506,107.866 384.34,106.199 384.5,104.5 Z"/></g>
<g><path style="opacity:0.009" fill="#000000" d="M 151.5,105.5 C 152.573,106.251 152.74,107.251 152,108.5C 151.517,107.552 151.351,106.552 151.5,105.5 Z"/></g>
<g><path style="opacity:0.01" fill="#000000" d="M 274.5,105.5 C 274.833,105.5 275.167,105.5 275.5,105.5C 275.672,106.492 275.338,107.158 274.5,107.5C 274.5,106.833 274.5,106.167 274.5,105.5 Z"/></g>
<g><path style="opacity:0.009" fill="#000000" d="M 358.5,105.5 C 359.573,106.251 359.74,107.251 359,108.5C 358.517,107.552 358.351,106.552 358.5,105.5 Z"/></g>
<g><path style="opacity:0.01" fill="#000000" d="M 237.5,107.5 C 237.631,108.239 237.464,108.906 237,109.5C 236.308,108.563 236.475,107.897 237.5,107.5 Z"/></g>
<g><path style="opacity:0.008" fill="#000000" d="M 273.5,107.5 C 273.833,107.5 274.167,107.5 274.5,107.5C 274.167,110.167 273.833,110.167 273.5,107.5 Z"/></g>
<g><path style="opacity:0.012" fill="#000000" d="M 150.5,109.5 C 151.641,112.64 151.808,115.973 151,119.5C 150.502,116.183 150.335,112.85 150.5,109.5 Z"/></g>
<g><path style="opacity:0.011" fill="#000000" d="M 360.5,109.5 C 360.665,112.85 360.498,116.183 360,119.5C 359.192,115.973 359.359,112.64 360.5,109.5 Z"/></g>
<g><path style="opacity:0.008" fill="#000000" d="M 237.5,110.5 C 238.525,110.897 238.692,111.563 238,112.5C 237.536,111.906 237.369,111.239 237.5,110.5 Z"/></g>
<g><path style="opacity:0.008" fill="#000000" d="M 272.5,112.5 C 272.369,111.761 272.536,111.094 273,110.5C 273.692,111.437 273.525,112.103 272.5,112.5 Z"/></g>
<g><path style="opacity:0.008" fill="#000000" d="M 271.5,112.5 C 271.833,112.5 272.167,112.5 272.5,112.5C 272.737,113.791 272.404,114.791 271.5,115.5C 271.5,114.5 271.5,113.5 271.5,112.5 Z"/></g>
<g><path style="opacity:0.008" fill="#000000" d="M 270.5,115.5 C 270.833,115.5 271.167,115.5 271.5,115.5C 271.737,116.791 271.404,117.791 270.5,118.5C 270.5,117.5 270.5,116.5 270.5,115.5 Z"/></g>
<g><path style="opacity:0.008" fill="#000000" d="M 241.5,118.5 C 241.649,119.552 241.483,120.552 241,121.5C 240.26,120.251 240.427,119.251 241.5,118.5 Z"/></g>
<g><path style="opacity:0.008" fill="#000000" d="M 269.5,118.5 C 269.833,118.5 270.167,118.5 270.5,118.5C 270.167,122.5 269.833,122.5 269.5,118.5 Z"/></g>
<g><path style="opacity:0.009" fill="#000000" d="M 125.5,120.5 C 126.613,121.946 126.78,123.613 126,125.5C 125.506,123.866 125.34,122.199 125.5,120.5 Z"/></g>
<g><path style="opacity:0.012" fill="#000000" d="M 384.5,120.5 C 385.598,121.601 385.765,122.934 385,124.5C 384.51,123.207 384.343,121.873 384.5,120.5 Z"/></g>
<g><path style="opacity:0.009" fill="#000000" d="M 359.5,124.5 C 359.167,124.5 358.833,124.5 358.5,124.5C 358.833,120.5 359.167,120.5 359.5,124.5 Z"/></g>
<g><path style="opacity:0.009" fill="#000000" d="M 242.5,122.5 C 242.649,123.552 242.483,124.552 242,125.5C 241.26,124.251 241.427,123.251 242.5,122.5 Z"/></g>
<g><path style="opacity:0.009" fill="#000000" d="M 268.5,122.5 C 269.573,123.251 269.74,124.251 269,125.5C 268.517,124.552 268.351,123.552 268.5,122.5 Z"/></g>
<g><path style="opacity:0.01" fill="#000000" d="M 358.5,124.5 C 358.631,125.239 358.464,125.906 358,126.5C 357.308,125.563 357.475,124.897 358.5,124.5 Z"/></g>
<g><path style="opacity:0.009" fill="#000000" d="M 126.5,126.5 C 127.573,127.251 127.74,128.251 127,129.5C 126.517,128.552 126.351,127.552 126.5,126.5 Z"/></g>
<g><path style="opacity:0.009" fill="#000000" d="M 267.5,126.5 C 268.833,127.5 268.833,128.5 267.5,129.5C 267.5,128.5 267.5,127.5 267.5,126.5 Z"/></g>
<g><path style="opacity:0.01" fill="#000000" d="M 383.5,129.5 C 383.351,128.448 383.517,127.448 384,126.5C 384.74,127.749 384.573,128.749 383.5,129.5 Z"/></g>
<g><path style="opacity:0.01" fill="#000000" d="M 357.5,129.5 C 357.167,129.5 356.833,129.5 356.5,129.5C 356.833,126.833 357.167,126.833 357.5,129.5 Z"/></g>
<g><path style="opacity:0.008" fill="#000000" d="M 266.5,129.5 C 266.833,129.5 267.167,129.5 267.5,129.5C 267.672,130.492 267.338,131.158 266.5,131.5C 266.5,130.833 266.5,130.167 266.5,129.5 Z"/></g>
<g><path style="opacity:0.012" fill="#000000" d="M 356.5,129.5 C 355.833,130.167 355.833,130.167 356.5,129.5 Z"/></g>
<g><path style="opacity:0.007" fill="#000000" d="M 382.5,129.5 C 382.833,129.5 383.167,129.5 383.5,129.5C 383.737,130.791 383.404,131.791 382.5,132.5C 382.5,131.5 382.5,130.5 382.5,129.5 Z"/></g>
<g><path style="opacity:0.01" fill="#000000" d="M 127.5,130.5 C 128.525,130.897 128.692,131.563 128,132.5C 127.536,131.906 127.369,131.239 127.5,130.5 Z"/></g>
<g><path style="opacity:0.008" fill="#000000" d="M 156.5,133.5 C 156.167,133.5 155.833,133.5 155.5,133.5C 155.833,130.833 156.167,130.833 156.5,133.5 Z"/></g>
<g><path style="opacity:0.012" fill="#000000" d="M 265.5,131.5 C 265.833,131.5 266.167,131.5 266.5,131.5C 266.315,132.17 265.981,132.17 265.5,131.5 Z"/></g>
<g><path style="opacity:0.016" fill="#000000" d="M 355.5,132.5 C 354.833,131.167 354.833,131.167 355.5,132.5 Z"/></g>
<g><path style="opacity:0.004" fill="#000000" d="M 246.5,132.5 C 245.833,133.167 245.833,133.167 246.5,132.5 Z"/></g>
<g><path style="opacity:0.004" fill="#000000" d="M 264.5,132.5 C 264.833,132.5 265.167,132.5 265.5,132.5C 265.315,133.17 264.981,133.17 264.5,132.5 Z"/></g>
<g><path style="opacity:0.008" fill="#000000" d="M 354.5,132.5 C 353.833,133.167 353.833,133.167 354.5,132.5 Z"/></g>
<g><path style="opacity:0.008" fill="#000000" d="M 381.5,132.5 C 381.833,132.5 382.167,132.5 382.5,132.5C 382.167,135.167 381.833,135.167 381.5,132.5 Z"/></g>
<g><path style="opacity:0.012" fill="#000000" d="M 156.5,133.5 C 157.833,134.167 157.833,134.167 156.5,133.5 Z"/></g>
<g><path style="opacity:0.004" fill="#000000" d="M 262.5,134.5 C 263.833,135.167 263.833,135.167 262.5,134.5 Z"/></g>
<g><path style="opacity:0.008" fill="#000000" d="M 130.5,135.5 C 130.631,136.239 130.464,136.906 130,137.5C 129.308,136.563 129.475,135.897 130.5,135.5 Z"/></g>
<g><path style="opacity:0.012" fill="#000000" d="M 261.5,135.5 C 261.833,135.5 262.167,135.5 262.5,135.5C 262.315,136.17 261.981,136.17 261.5,135.5 Z"/></g>
<g><path style="opacity:0.008" fill="#000000" d="M 380.5,135.5 C 381.833,136.167 381.833,136.833 380.5,137.5C 380.5,136.833 380.5,136.167 380.5,135.5 Z"/></g>
<g><path style="opacity:0.008" fill="#000000" d="M 259.5,137.5 C 259.5,137.167 259.5,136.833 259.5,136.5C 260.167,136.5 260.833,136.5 261.5,136.5C 261.158,137.338 260.492,137.672 259.5,137.5 Z"/></g>
<g><path style="opacity:0.009" fill="#000000" d="M 259.5,137.5 C 257.034,138.634 254.367,138.801 251.5,138C 254.146,137.503 256.813,137.336 259.5,137.5 Z"/></g>
<g><path style="opacity:0.01" fill="#000000" d="M 379.5,137.5 C 379.833,137.5 380.167,137.5 380.5,137.5C 380.672,138.492 380.338,139.158 379.5,139.5C 379.5,138.833 379.5,138.167 379.5,137.5 Z"/></g>
<g><path style="opacity:0.012" fill="#000000" d="M 131.5,138.5 C 130.833,139.167 130.833,139.167 131.5,138.5 Z"/></g>
<g><path style="opacity:0.008" fill="#000000" d="M 378.5,139.5 C 378.833,139.5 379.167,139.5 379.5,139.5C 379.672,140.492 379.338,141.158 378.5,141.5C 378.5,140.833 378.5,140.167 378.5,139.5 Z"/></g>
<g><path style="opacity:0.012" fill="#000000" d="M 132.5,140.5 C 131.833,141.167 131.833,141.167 132.5,140.5 Z"/></g>
<g><path style="opacity:0.012" fill="#000000" d="M 377.5,141.5 C 377.833,141.5 378.167,141.5 378.5,141.5C 378.315,142.17 377.981,142.17 377.5,141.5 Z"/></g>
<g><path style="opacity:0.012" fill="#000000" d="M 376.5,143.5 C 377.833,144.167 377.833,144.167 376.5,143.5 Z"/></g>
<g><path style="opacity:0.008" fill="#000000" d="M 375.5,144.5 C 375.833,144.5 376.167,144.5 376.5,144.5C 376.672,145.492 376.338,146.158 375.5,146.5C 375.5,145.833 375.5,145.167 375.5,144.5 Z"/></g>
<g><path style="opacity:0.012" fill="#000000" d="M 374.5,146.5 C 374.833,146.5 375.167,146.5 375.5,146.5C 375.315,147.17 374.981,147.17 374.5,146.5 Z"/></g>
<g><path style="opacity:0.012" fill="#000000" d="M 168.5,147.5 C 169.833,148.167 169.833,148.167 168.5,147.5 Z"/></g>
<g><path style="opacity:0.004" fill="#000000" d="M 321.5,147.5 C 322.833,148.167 322.833,148.167 321.5,147.5 Z"/></g>
<g><path style="opacity:0.012" fill="#000000" d="M 373.5,147.5 C 373.833,147.5 374.167,147.5 374.5,147.5C 374.315,148.17 373.981,148.17 373.5,147.5 Z"/></g>
<g><path style="opacity:0.012" fill="#000000" d="M 137.5,148.5 C 136.833,149.167 136.833,149.167 137.5,148.5 Z"/></g>
<g><path style="opacity:0.008" fill="#000000" d="M 170.5,148.5 C 171.833,149.167 171.833,149.167 170.5,148.5 Z"/></g>
<g><path style="opacity:0.004" fill="#000000" d="M 321.5,148.5 C 320.833,149.167 320.833,149.167 321.5,148.5 Z"/></g>
<g><path style="opacity:0.008" fill="#000000" d="M 137.5,150.5 C 138.833,151.167 138.833,151.167 137.5,150.5 Z"/></g>
<g><path style="opacity:0.012" fill="#000000" d="M 369.5,152.5 C 370.833,153.167 370.833,153.167 369.5,152.5 Z"/></g>
<g><path style="opacity:0.01" fill="#000000" d="M 318.5,155.5 C 317.475,155.103 317.308,154.437 318,153.5C 318.464,154.094 318.631,154.761 318.5,155.5 Z"/></g>
<g><path style="opacity:0.012" fill="#000000" d="M 368.5,153.5 C 368.833,153.5 369.167,153.5 369.5,153.5C 369.315,154.17 368.981,154.17 368.5,153.5 Z"/></g>
<g><path style="opacity:0.012" fill="#000000" d="M 367.5,154.5 C 367.833,154.5 368.167,154.5 368.5,154.5C 368.315,155.17 367.981,155.17 367.5,154.5 Z"/></g>
<g><path style="opacity:0.012" fill="#000000" d="M 366.5,155.5 C 366.833,155.5 367.167,155.5 367.5,155.5C 367.315,156.17 366.981,156.17 366.5,155.5 Z"/></g>
<g><path style="opacity:0.016" fill="#000000" d="M 181.5,156.5 C 182.833,157.167 182.833,157.167 181.5,156.5 Z"/></g>
<g><path style="opacity:0.008" fill="#000000" d="M 365.5,156.5 C 365.833,156.5 366.167,156.5 366.5,156.5C 366.315,157.17 365.981,157.17 365.5,156.5 Z"/></g>
<g><path style="opacity:0.012" fill="#000000" d="M 183.5,157.5 C 184.833,158.167 184.833,158.167 183.5,157.5 Z"/></g>
<g><path style="opacity:0.008" fill="#000000" d="M 365.5,157.5 C 364.833,158.167 364.833,158.167 365.5,157.5 Z"/></g>
<g><path style="opacity:0.012" fill="#000000" d="M 362.5,158.5 C 363.833,159.167 363.833,159.167 362.5,158.5 Z"/></g>
<g><path style="opacity:0.012" fill="#000000" d="M 361.5,159.5 C 361.833,159.5 362.167,159.5 362.5,159.5C 362.315,160.17 361.981,160.17 361.5,159.5 Z"/></g>
<g><path style="opacity:0.008" fill="#000000" d="M 317.5,160.5 C 318.525,160.897 318.692,161.563 318,162.5C 317.536,161.906 317.369,161.239 317.5,160.5 Z"/></g>
<g><path style="opacity:0.008" fill="#000000" d="M 361.5,160.5 C 360.833,161.167 360.833,161.167 361.5,160.5 Z"/></g>
<g><path style="opacity:0.012" fill="#000000" d="M 358.5,161.5 C 359.833,162.167 359.833,162.167 358.5,161.5 Z"/></g>
<g><path style="opacity:0.008" fill="#000000" d="M 356.5,163.5 C 356.5,163.167 356.5,162.833 356.5,162.5C 357.167,162.5 357.833,162.5 358.5,162.5C 358.158,163.338 357.492,163.672 356.5,163.5 Z"/></g>
<g><path style="opacity:0.008" fill="#000000" d="M 194.5,164.5 C 194.897,163.475 195.563,163.308 196.5,164C 195.906,164.464 195.239,164.631 194.5,164.5 Z"/></g>
<g><path style="opacity:0.012" fill="#000000" d="M 356.5,163.5 C 355.833,164.167 355.833,164.167 356.5,163.5 Z"/></g>
<g><path style="opacity:0.012" fill="#000000" d="M 197.5,164.5 C 198.833,165.167 198.833,165.167 197.5,164.5 Z"/></g>
<g><path style="opacity:0.012" fill="#000000" d="M 353.5,164.5 C 354.833,165.167 354.833,165.167 353.5,164.5 Z"/></g>
<g><path style="opacity:0.01" fill="#000000" d="M 350.5,166.5 C 350.5,166.167 350.5,165.833 350.5,165.5C 353.167,165.833 353.167,166.167 350.5,166.5 Z"/></g>
<g><path style="opacity:0.008" fill="#000000" d="M 201.5,167.5 C 201.897,166.475 202.563,166.308 203.5,167C 202.906,167.464 202.239,167.631 201.5,167.5 Z"/></g>
<g><path style="opacity:0.008" fill="#000000" d="M 348.5,166.5 C 349.167,166.5 349.833,166.5 350.5,166.5C 349.833,167.833 349.167,167.833 348.5,166.5 Z"/></g>
<g><path style="opacity:0.01" fill="#000000" d="M 204.5,168.5 C 204.897,167.475 205.563,167.308 206.5,168C 205.906,168.464 205.239,168.631 204.5,168.5 Z"/></g>
<g><path style="opacity:0.01" fill="#000000" d="M 345.5,168.5 C 345.897,167.475 346.563,167.308 347.5,168C 346.906,168.464 346.239,168.631 345.5,168.5 Z"/></g>
<g><path style="opacity:0.01" fill="#000000" d="M 207.5,169.5 C 207.897,168.475 208.563,168.308 209.5,169C 208.906,169.464 208.239,169.631 207.5,169.5 Z"/></g>
<g><path style="opacity:0.008" fill="#000000" d="M 325.5,168.5 C 325.5,168.833 325.5,169.167 325.5,169.5C 322.833,169.167 322.833,168.833 325.5,168.5 Z"/></g>
<g><path style="opacity:0.009" fill="#000000" d="M 341.5,169.5 C 342.251,168.427 343.251,168.26 344.5,169C 343.552,169.483 342.552,169.649 341.5,169.5 Z"/></g>
<g><path style="opacity:0.012" fill="#000000" d="M 157.5,169.5 C 157.5,169.833 157.5,170.167 157.5,170.5C 156.83,170.019 156.83,169.685 157.5,169.5 Z"/></g>
<g><path style="opacity:0.01" fill="#000000" d="M 210.5,170.5 C 210.897,169.475 211.563,169.308 212.5,170C 211.906,170.464 211.239,170.631 210.5,170.5 Z"/></g>
<g><path style="opacity:0.008" fill="#000000" d="M 325.5,169.5 C 326.552,169.351 327.552,169.517 328.5,170C 327.251,170.74 326.251,170.573 325.5,169.5 Z"/></g>
<g><path style="opacity:0.011" fill="#000000" d="M 334.5,170.5 C 335.946,169.387 337.613,169.22 339.5,170C 337.866,170.494 336.199,170.66 334.5,170.5 Z"/></g>
<g><path style="opacity:0.008" fill="#000000" d="M 157.5,170.5 C 158.833,171.167 158.833,171.167 157.5,170.5 Z"/></g>
<g><path style="opacity:0.009" fill="#000000" d="M 216.5,172.5 C 217.251,171.427 218.251,171.26 219.5,172C 218.552,172.483 217.552,172.649 216.5,172.5 Z"/></g>
<g><path style="opacity:0.008" fill="#000000" d="M 220.5,173.5 C 221.601,172.402 222.934,172.235 224.5,173C 223.207,173.49 221.873,173.657 220.5,173.5 Z"/></g>
<g><path style="opacity:0.009" fill="#000000" d="M 225.5,174.5 C 226.251,173.427 227.251,173.26 228.5,174C 227.552,174.483 226.552,174.649 225.5,174.5 Z"/></g>
<g><path style="opacity:0.009" fill="#000000" d="M 230.5,175.5 C 231.601,174.402 232.934,174.235 234.5,175C 233.207,175.49 231.873,175.657 230.5,175.5 Z"/></g>
<g><path style="opacity:0.01" fill="#000000" d="M 236.5,176.5 C 237.946,175.387 239.613,175.22 241.5,176C 239.866,176.494 238.199,176.66 236.5,176.5 Z"/></g>
<g><path style="opacity:0.008" fill="#000000" d="M 102.5,177.5 C 111.324,176.343 120.324,176.176 129.5,177C 120.506,177.5 111.506,177.666 102.5,177.5 Z"/></g>
<g><path style="opacity:0.008" fill="#000000" d="M 244.5,177.5 C 298.998,176.335 353.665,176.168 408.5,177C 353.834,177.5 299.168,177.667 244.5,177.5 Z"/></g>
<g><path style="opacity:0.009" fill="#000000" d="M 100.5,178.5 C 99.448,178.649 98.448,178.483 97.5,178C 98.7494,177.26 99.7494,177.427 100.5,178.5 Z"/></g>
<g><path style="opacity:0.009" fill="#000000" d="M 410.5,178.5 C 411.251,177.427 412.251,177.26 413.5,178C 412.552,178.483 411.552,178.649 410.5,178.5 Z"/></g>
<g><path style="opacity:0.01" fill="#000000" d="M 96.5,179.5 C 95.7611,179.631 95.0944,179.464 94.5,179C 95.4368,178.308 96.1034,178.475 96.5,179.5 Z"/></g>
<g><path style="opacity:0.012" fill="#000000" d="M 170.5,178.5 C 169.833,179.167 169.833,179.167 170.5,178.5 Z"/></g>
<g><path style="opacity:0.01" fill="#000000" d="M 414.5,179.5 C 414.897,178.475 415.563,178.308 416.5,179C 415.906,179.464 415.239,179.631 414.5,179.5 Z"/></g>
<g><path style="opacity:0.012" fill="#000000" d="M 419.5,180.5 C 420.833,181.167 420.833,181.167 419.5,180.5 Z"/></g>
<g><path style="opacity:0.008" fill="#000000" d="M 137.5,182.5 C 138.833,183.167 138.833,183.167 137.5,182.5 Z"/></g>
<g><path style="opacity:0.008" fill="#000000" d="M 178.5,182.5 C 178.5,182.833 178.5,183.167 178.5,183.5C 175.833,183.167 175.833,182.833 178.5,182.5 Z"/></g>
<g><path style="opacity:0.012" fill="#000000" d="M 178.5,183.5 C 179.833,184.167 179.833,184.167 178.5,183.5 Z"/></g>
<g><path style="opacity:0.012" fill="#000000" d="M 138.5,184.5 C 139.833,185.167 139.833,185.167 138.5,184.5 Z"/></g>
<g><path style="opacity:0.012" fill="#000000" d="M 180.5,184.5 C 181.833,185.167 181.833,185.167 180.5,184.5 Z"/></g>
<g><path style="opacity:0.011" fill="#000000" d="M 139.5,186.5 C 140.629,188.628 140.796,190.961 140,193.5C 139.503,191.19 139.337,188.857 139.5,186.5 Z"/></g>
<g><path style="opacity:0.008" fill="#000000" d="M 190.5,188.5 C 190.103,189.525 189.437,189.692 188.5,189C 189.094,188.536 189.761,188.369 190.5,188.5 Z"/></g>
<g><path style="opacity:0.01" fill="#000000" d="M 193.5,189.5 C 193.5,189.833 193.5,190.167 193.5,190.5C 190.833,190.167 190.833,189.833 193.5,189.5 Z"/></g>
<g><path style="opacity:0.008" fill="#000000" d="M 193.5,190.5 C 194.239,190.369 194.906,190.536 195.5,191C 194.563,191.692 193.897,191.525 193.5,190.5 Z"/></g>
<g><path style="opacity:0.01" fill="#000000" d="M 198.5,191.5 C 198.103,192.525 197.437,192.692 196.5,192C 197.094,191.536 197.761,191.369 198.5,191.5 Z"/></g>
<g><path style="opacity:0.01" fill="#000000" d="M 201.5,192.5 C 201.103,193.525 200.437,193.692 199.5,193C 200.094,192.536 200.761,192.369 201.5,192.5 Z"/></g>
<g><path style="opacity:0.01" fill="#000000" d="M 204.5,193.5 C 204.103,194.525 203.437,194.692 202.5,194C 203.094,193.536 203.761,193.369 204.5,193.5 Z"/></g>
<g><path style="opacity:0.012" fill="#000000" d="M 433.5,193.5 C 434.833,194.167 434.833,194.167 433.5,193.5 Z"/></g>
<g><path style="opacity:0.012" fill="#000000" d="M 138.5,194.5 C 139.833,195.167 139.833,195.167 138.5,194.5 Z"/></g>
<g><path style="opacity:0.012" fill="#000000" d="M 207.5,194.5 C 207.103,195.525 206.437,195.692 205.5,195C 206.094,194.536 206.761,194.369 207.5,194.5 Z"/></g>
<g><path style="opacity:0.012" fill="#000000" d="M 208.5,196.5 C 208.897,195.475 209.563,195.308 210.5,196C 209.906,196.464 209.239,196.631 208.5,196.5 Z"/></g>
<g><path style="opacity:0.004" fill="#000000" d="M 137.5,196.5 C 138.833,197.167 138.833,197.167 137.5,196.5 Z"/></g>
<g><path style="opacity:0.009" fill="#000000" d="M 211.5,197.5 C 212.251,196.427 213.251,196.26 214.5,197C 213.552,197.483 212.552,197.649 211.5,197.5 Z"/></g>
<g><path style="opacity:0.008" fill="#000000" d="M 435.5,198.5 C 435.369,197.761 435.536,197.094 436,196.5C 436.692,197.437 436.525,198.103 435.5,198.5 Z"/></g>
<g><path style="opacity:0.008" fill="#000000" d="M 136.5,197.5 C 136.833,197.5 137.167,197.5 137.5,197.5C 137.315,198.17 136.981,198.17 136.5,197.5 Z"/></g>
<g><path style="opacity:0.009" fill="#000000" d="M 215.5,198.5 C 216.251,197.427 217.251,197.26 218.5,198C 217.552,198.483 216.552,198.649 215.5,198.5 Z"/></g>
<g><path style="opacity:0.008" fill="#000000" d="M 135.5,198.5 C 135.833,198.5 136.167,198.5 136.5,198.5C 136.315,199.17 135.981,199.17 135.5,198.5 Z"/></g>
<g><path style="opacity:0.01" fill="#000000" d="M 223.5,198.5 C 222.749,199.573 221.749,199.74 220.5,199C 221.448,198.517 222.448,198.351 223.5,198.5 Z"/></g>
<g><path style="opacity:0.01" fill="#000000" d="M 74.5,201.5 C 74.1667,201.5 73.8333,201.5 73.5,201.5C 73.8333,198.833 74.1667,198.833 74.5,201.5 Z"/></g>
<g><path style="opacity:0.008" fill="#000000" d="M 134.5,199.5 C 134.833,199.5 135.167,199.5 135.5,199.5C 135.315,200.17 134.981,200.17 134.5,199.5 Z"/></g>
<g><path style="opacity:0.01" fill="#000000" d="M 224.5,200.5 C 225.601,199.402 226.934,199.235 228.5,200C 227.207,200.49 225.873,200.657 224.5,200.5 Z"/></g>
<g><path style="opacity:0.01" fill="#000000" d="M 436.5,201.5 C 436.369,200.761 436.536,200.094 437,199.5C 437.692,200.437 437.525,201.103 436.5,201.5 Z"/></g>
<g><path style="opacity:0.008" fill="#000000" d="M 132.5,201.5 C 132.5,201.167 132.5,200.833 132.5,200.5C 133.167,200.5 133.833,200.5 134.5,200.5C 134.158,201.338 133.492,201.672 132.5,201.5 Z"/></g>
<g><path style="opacity:0.01" fill="#000000" d="M 230.5,201.5 C 231.946,200.387 233.613,200.22 235.5,201C 233.866,201.494 232.199,201.66 230.5,201.5 Z"/></g>
<g><path style="opacity:0.01" fill="#000000" d="M 73.5,201.5 C 73.6495,202.552 73.4828,203.552 73,204.5C 72.2599,203.251 72.4265,202.251 73.5,201.5 Z"/></g>
<g><path style="opacity:0.008" fill="#000000" d="M 132.5,201.5 C 132.103,202.525 131.437,202.692 130.5,202C 131.094,201.536 131.761,201.369 132.5,201.5 Z"/></g>
<g><path style="opacity:0.009" fill="#000000" d="M 237.5,202.5 C 239.966,201.366 242.633,201.199 245.5,202C 242.854,202.497 240.187,202.664 237.5,202.5 Z"/></g>
<g><path style="opacity:0.005" fill="#000000" d="M 102.5,202.5 C 111.173,202.334 119.84,202.5 128.5,203C 119.657,203.824 110.99,203.657 102.5,202.5 Z"/></g>
<g><path style="opacity:0.004" fill="#000000" d="M 408.5,202.5 C 356.668,203.665 304.668,203.832 252.5,203C 304.499,202.5 356.499,202.333 408.5,202.5 Z"/></g>
<g><path style="opacity:0.009" fill="#000000" d="M 437.5,205.5 C 437.351,204.448 437.517,203.448 438,202.5C 438.74,203.749 438.573,204.749 437.5,205.5 Z"/></g>
<g><path style="opacity:0.02" fill="#000000" d="M 100.5,203.5 C 101.833,204.167 101.833,204.167 100.5,203.5 Z"/></g>
<g><path style="opacity:0.016" fill="#000000" d="M 99.5,204.5 C 99.8333,204.5 100.167,204.5 100.5,204.5C 100.315,205.17 99.9813,205.17 99.5,204.5 Z"/></g>
<g><path style="opacity:0.02" fill="#000000" d="M 98.5,205.5 C 98.8333,205.5 99.1667,205.5 99.5,205.5C 99.3147,206.17 98.9813,206.17 98.5,205.5 Z"/></g>
<g><path style="opacity:0.02" fill="#000000" d="M 412.5,205.5 C 411.833,206.167 411.833,206.167 412.5,205.5 Z"/></g>
<g><path style="opacity:0.012" fill="#000000" d="M 71.5,206.5 C 72.6654,274.332 72.8321,342.332 72,410.5C 71.5,342.501 71.3333,274.501 71.5,206.5 Z"/></g>
<g><path style="opacity:0.012" fill="#000000" d="M 438.5,206.5 C 439.665,274.332 439.832,342.332 439,410.5C 438.5,342.501 438.333,274.501 438.5,206.5 Z"/></g>
<g><path style="opacity:0.008" fill="#000000" d="M 97.5,207.5 C 98.5983,208.601 98.765,209.934 98,211.5C 97.51,210.207 97.3433,208.873 97.5,207.5 Z"/></g>
<g><path style="opacity:0.008" fill="#000000" d="M 413.5,207.5 C 413.657,208.873 413.49,210.207 413,211.5C 412.235,209.934 412.402,208.601 413.5,207.5 Z"/></g>
<g><path style="opacity:0.009" fill="#000000" d="M 97.5,405.5 C 98.6225,407.288 98.7891,409.288 98,411.5C 97.5045,409.527 97.3379,407.527 97.5,405.5 Z"/></g>
<g><path style="opacity:0.009" fill="#000000" d="M 412.5,405.5 C 413.622,407.288 413.789,409.288 413,411.5C 412.505,409.527 412.338,407.527 412.5,405.5 Z"/></g>
<g><path style="opacity:0.01" fill="#000000" d="M 73.5,412.5 C 73.6567,413.873 73.49,415.207 73,416.5C 72.235,414.934 72.4017,413.601 73.5,412.5 Z"/></g>
<g><path style="opacity:0.008" fill="#000000" d="M 99.5,415.5 C 99.1667,415.5 98.8333,415.5 98.5,415.5C 98.8333,411.5 99.1667,411.5 99.5,415.5 Z"/></g>
<g><path style="opacity:0.008" fill="#000000" d="M 412.5,415.5 C 412.167,415.5 411.833,415.5 411.5,415.5C 411.833,411.5 412.167,411.5 412.5,415.5 Z"/></g>
<g><path style="opacity:0.01" fill="#000000" d="M 437.5,412.5 C 438.598,413.601 438.765,414.934 438,416.5C 437.51,415.207 437.343,413.873 437.5,412.5 Z"/></g>
<g><path style="opacity:0.008" fill="#000000" d="M 99.5,415.5 C 100.525,415.897 100.692,416.563 100,417.5C 99.5357,416.906 99.369,416.239 99.5,415.5 Z"/></g>
<g><path style="opacity:0.008" fill="#000000" d="M 411.5,415.5 C 411.631,416.239 411.464,416.906 411,417.5C 410.308,416.563 410.475,415.897 411.5,415.5 Z"/></g>
<g><path style="opacity:0.008" fill="#000000" d="M 74.5,417.5 C 74.6495,418.552 74.4828,419.552 74,420.5C 73.2599,419.251 73.4265,418.251 74.5,417.5 Z"/></g>
<g><path style="opacity:0.008" fill="#000000" d="M 436.5,417.5 C 437.573,418.251 437.74,419.251 437,420.5C 436.517,419.552 436.351,418.552 436.5,417.5 Z"/></g>
<g><path style="opacity:0.012" fill="#000000" d="M 100.5,418.5 C 101.833,419.167 101.833,419.167 100.5,418.5 Z"/></g>
<g><path style="opacity:0.012" fill="#000000" d="M 409.5,418.5 C 410.833,419.167 410.833,419.167 409.5,418.5 Z"/></g>
<g><path style="opacity:0.01" fill="#000000" d="M 74.5,421.5 C 75.525,421.897 75.6917,422.563 75,423.5C 74.5357,422.906 74.369,422.239 74.5,421.5 Z"/></g>
<g><path style="opacity:0.01" fill="#000000" d="M 435.5,421.5 C 436.525,421.897 436.692,422.563 436,423.5C 435.536,422.906 435.369,422.239 435.5,421.5 Z"/></g>
<g><path style="opacity:0.008" fill="#000000" d="M 75.5,424.5 C 76.525,424.897 76.6917,425.563 76,426.5C 75.5357,425.906 75.369,425.239 75.5,424.5 Z"/></g>
<g><path style="opacity:0.008" fill="#000000" d="M 434.5,426.5 C 434.369,425.761 434.536,425.094 435,424.5C 435.692,425.437 435.525,426.103 434.5,426.5 Z"/></g>
<g><path style="opacity:0.008" fill="#000000" d="M 433.5,426.5 C 433.833,426.5 434.167,426.5 434.5,426.5C 434.672,427.492 434.338,428.158 433.5,428.5C 433.5,427.833 433.5,427.167 433.5,426.5 Z"/></g>
<g><path style="opacity:0.008" fill="#000000" d="M 432.5,428.5 C 432.833,428.5 433.167,428.5 433.5,428.5C 433.672,429.492 433.338,430.158 432.5,430.5C 432.5,429.833 432.5,429.167 432.5,428.5 Z"/></g>
<g><path style="opacity:0.012" fill="#000000" d="M 79.5,430.5 C 78.8333,431.167 78.8333,431.167 79.5,430.5 Z"/></g>
<g><path style="opacity:0.012" fill="#000000" d="M 431.5,430.5 C 431.833,430.5 432.167,430.5 432.5,430.5C 432.315,431.17 431.981,431.17 431.5,430.5 Z"/></g>
<g><path style="opacity:0.008" fill="#000000" d="M 113.5,432.5 C 113.897,431.475 114.563,431.308 115.5,432C 114.906,432.464 114.239,432.631 113.5,432.5 Z"/></g>
<g><path style="opacity:0.008" fill="#000000" d="M 116.5,433.5 C 116.897,432.475 117.563,432.308 118.5,433C 117.906,433.464 117.239,433.631 116.5,433.5 Z"/></g>
<g><path style="opacity:0.008" fill="#000000" d="M 392.5,433.5 C 392.897,432.475 393.563,432.308 394.5,433C 393.906,433.464 393.239,433.631 392.5,433.5 Z"/></g>
<g><path style="opacity:0.012" fill="#000000" d="M 430.5,432.5 C 431.833,433.167 431.833,433.167 430.5,432.5 Z"/></g>
<g><path style="opacity:0.009" fill="#000000" d="M 119.5,434.5 C 120.251,433.427 121.251,433.26 122.5,434C 121.552,434.483 120.552,434.649 119.5,434.5 Z"/></g>
<g><path style="opacity:0.01" fill="#000000" d="M 388.5,434.5 C 389.251,433.427 390.251,433.26 391.5,434C 390.552,434.483 389.552,434.649 388.5,434.5 Z"/></g>
<g><path style="opacity:0.006" fill="#000000" d="M 429.5,433.5 C 429.833,433.5 430.167,433.5 430.5,433.5C 430.672,434.492 430.338,435.158 429.5,435.5C 429.5,434.833 429.5,434.167 429.5,433.5 Z"/></g>
<g><path style="opacity:0.004" fill="#000000" d="M 125.5,435.5 C 211.999,434.334 298.666,434.168 385.5,435C 298.834,435.5 212.167,435.667 125.5,435.5 Z"/></g>
<g><path style="opacity:0.012" fill="#000000" d="M 428.5,435.5 C 428.833,435.5 429.167,435.5 429.5,435.5C 429.315,436.17 428.981,436.17 428.5,435.5 Z"/></g>
<g><path style="opacity:0.012" fill="#000000" d="M 83.5,436.5 C 82.8333,437.167 82.8333,437.167 83.5,436.5 Z"/></g>
<g><path style="opacity:0.012" fill="#000000" d="M 427.5,436.5 C 427.833,436.5 428.167,436.5 428.5,436.5C 428.315,437.17 427.981,437.17 427.5,436.5 Z"/></g>
<g><path style="opacity:0.008" fill="#000000" d="M 83.5,438.5 C 84.8333,439.167 84.8333,439.167 83.5,438.5 Z"/></g>
<g><path style="opacity:0.008" fill="#000000" d="M 426.5,438.5 C 427.833,439.167 427.833,439.167 426.5,438.5 Z"/></g>
<g><path style="opacity:0.012" fill="#000000" d="M 425.5,439.5 C 425.833,439.5 426.167,439.5 426.5,439.5C 426.315,440.17 425.981,440.17 425.5,439.5 Z"/></g>
<g><path style="opacity:0.016" fill="#000000" d="M 424.5,440.5 C 424.833,440.5 425.167,440.5 425.5,440.5C 425.315,441.17 424.981,441.17 424.5,440.5 Z"/></g>
<g><path style="opacity:0.016" fill="#000000" d="M 423.5,441.5 C 423.833,441.5 424.167,441.5 424.5,441.5C 424.315,442.17 423.981,442.17 423.5,441.5 Z"/></g>
<g><path style="opacity:0.016" fill="#000000" d="M 422.5,442.5 C 422.833,442.5 423.167,442.5 423.5,442.5C 423.315,443.17 422.981,443.17 422.5,442.5 Z"/></g>
<g><path style="opacity:0.016" fill="#000000" d="M 421.5,443.5 C 421.833,443.5 422.167,443.5 422.5,443.5C 422.315,444.17 421.981,444.17 421.5,443.5 Z"/></g>
<g><path style="opacity:0.016" fill="#000000" d="M 420.5,444.5 C 420.833,444.5 421.167,444.5 421.5,444.5C 421.315,445.17 420.981,445.17 420.5,444.5 Z"/></g>
<g><path style="opacity:0.016" fill="#000000" d="M 419.5,445.5 C 419.833,445.5 420.167,445.5 420.5,445.5C 420.315,446.17 419.981,446.17 419.5,445.5 Z"/></g>
<g><path style="opacity:0.012" fill="#000000" d="M 418.5,446.5 C 418.833,446.5 419.167,446.5 419.5,446.5C 419.315,447.17 418.981,447.17 418.5,446.5 Z"/></g>
<g><path style="opacity:0.008" fill="#000000" d="M 417.5,447.5 C 417.833,447.5 418.167,447.5 418.5,447.5C 418.315,448.17 417.981,448.17 417.5,447.5 Z"/></g>
<g><path style="opacity:0.006" fill="#000000" d="M 415.5,449.5 C 415.5,449.167 415.5,448.833 415.5,448.5C 416.167,448.5 416.833,448.5 417.5,448.5C 417.158,449.338 416.492,449.672 415.5,449.5 Z"/></g>
<g><path style="opacity:0.016" fill="#000000" d="M 96.5,449.5 C 96.5,449.833 96.5,450.167 96.5,450.5C 95.8299,450.019 95.8299,449.685 96.5,449.5 Z"/></g>
<g><path style="opacity:0.012" fill="#000000" d="M 414.5,449.5 C 414.833,449.5 415.167,449.5 415.5,449.5C 415.315,450.17 414.981,450.17 414.5,449.5 Z"/></g>
<g><path style="opacity:0.008" fill="#000000" d="M 96.5,450.5 C 97.8333,451.167 97.8333,451.167 96.5,450.5 Z"/></g>
<g><path style="opacity:0.008" fill="#000000" d="M 414.5,450.5 C 413.833,451.167 413.833,451.167 414.5,450.5 Z"/></g>
<g><path style="opacity:0.012" fill="#000000" d="M 411.5,451.5 C 412.833,452.167 412.833,452.167 411.5,451.5 Z"/></g>
<g><path style="opacity:0.006" fill="#000000" d="M 409.5,453.5 C 409.5,453.167 409.5,452.833 409.5,452.5C 410.167,452.5 410.833,452.5 411.5,452.5C 411.158,453.338 410.492,453.672 409.5,453.5 Z"/></g>
<g><path style="opacity:0.008" fill="#000000" d="M 407.5,454.5 C 407.5,454.167 407.5,453.833 407.5,453.5C 408.167,453.5 408.833,453.5 409.5,453.5C 409.158,454.338 408.492,454.672 407.5,454.5 Z"/></g>
<g><path style="opacity:0.008" fill="#000000" d="M 405.5,455.5 C 405.5,455.167 405.5,454.833 405.5,454.5C 406.167,454.5 406.833,454.5 407.5,454.5C 407.158,455.338 406.492,455.672 405.5,455.5 Z"/></g>
<g><path style="opacity:0.01" fill="#000000" d="M 403.5,456.5 C 403.5,456.167 403.5,455.833 403.5,455.5C 404.167,455.5 404.833,455.5 405.5,455.5C 405.158,456.338 404.492,456.672 403.5,456.5 Z"/></g>
<g><path style="opacity:0.007" fill="#000000" d="M 400.5,457.5 C 400.5,457.167 400.5,456.833 400.5,456.5C 401.5,456.5 402.5,456.5 403.5,456.5C 402.791,457.404 401.791,457.737 400.5,457.5 Z"/></g>
<g><path style="opacity:0.008" fill="#000000" d="M 113.5,457.5 C 112.749,458.573 111.749,458.74 110.5,458C 111.448,457.517 112.448,457.351 113.5,457.5 Z"/></g>
<g><path style="opacity:0.008" fill="#000000" d="M 397.5,457.5 C 398.5,457.5 399.5,457.5 400.5,457.5C 399.5,458.833 398.5,458.833 397.5,457.5 Z"/></g>
<g><path style="opacity:0.01" fill="#000000" d="M 114.5,459.5 C 115.251,458.427 116.251,458.26 117.5,459C 116.552,459.483 115.552,459.649 114.5,459.5 Z"/></g>
<g><path style="opacity:0.01" fill="#000000" d="M 393.5,459.5 C 394.251,458.427 395.251,458.26 396.5,459C 395.552,459.483 394.552,459.649 393.5,459.5 Z"/></g>
<g><path style="opacity:0.004" fill="#000000" d="M 119.5,460.5 C 209.999,459.334 300.666,459.168 391.5,460C 300.834,460.5 210.167,460.667 119.5,460.5 Z"/></g>
</svg>
