<?xml version="1.0" encoding="UTF-8"?>
<!DOCTYPE svg PUBLIC "-//W3C//DTD SVG 1.1//EN" "http://www.w3.org/Graphics/SVG/1.1/DTD/svg11.dtd">
<svg xmlns="http://www.w3.org/2000/svg" version="1.1" width="512px" height="512px" style="shape-rendering:geometricPrecision; text-rendering:geometricPrecision; image-rendering:optimizeQuality; fill-rule:evenodd; clip-rule:evenodd" xmlns:xlink="http://www.w3.org/1999/xlink">
<g><path style="opacity:0.008" fill="#000000" d="M 271.5,79.5 C 274.64,78.3592 277.973,78.1925 281.5,79C 278.183,79.4983 274.85,79.665 271.5,79.5 Z"/></g>
<g><path style="opacity:0.01" fill="#000000" d="M 270.5,80.5 C 269.448,80.6495 268.448,80.4828 267.5,80C 268.749,79.2599 269.749,79.4265 270.5,80.5 Z"/></g>
<g><path style="opacity:0.009" fill="#000000" d="M 282.5,80.5 C 283.251,79.4265 284.251,79.2599 285.5,80C 284.552,80.4828 283.552,80.6495 282.5,80.5 Z"/></g>
<g><path style="opacity:0.01" fill="#000000" d="M 286.5,81.5 C 286.897,80.475 287.563,80.3083 288.5,81C 287.906,81.4643 287.239,81.631 286.5,81.5 Z"/></g>
<g><path style="opacity:1" fill="#474dd4" d="M 270.5,80.5 C 274.5,80.5 278.5,80.5 282.5,80.5C 283.568,81.4345 284.901,81.7678 286.5,81.5C 287.78,82.9313 289.447,83.5979 291.5,83.5C 291.973,84.9063 292.973,85.573 294.5,85.5C 342.877,128.131 391.043,171.131 439,214.5C 440.524,216.898 442.024,219.231 443.5,221.5C 443.721,224.067 444.388,226.401 445.5,228.5C 445.5,232.167 445.5,235.833 445.5,239.5C 444.566,240.568 444.232,241.901 444.5,243.5C 443.596,244.209 443.263,245.209 443.5,246.5C 442.662,246.842 442.328,247.508 442.5,248.5C 441.662,248.842 441.328,249.508 441.5,250.5C 440.094,250.973 439.427,251.973 439.5,253.5C 438.833,253.5 438.5,253.833 438.5,254.5C 436.167,256.167 434.167,258.167 432.5,260.5C 431.833,260.5 431.5,260.833 431.5,261.5C 430.508,261.328 429.842,261.662 429.5,262.5C 428.833,262.5 428.5,262.833 428.5,263.5C 427.508,263.328 426.842,263.662 426.5,264.5C 425.209,264.263 424.209,264.596 423.5,265.5C 422.209,265.263 421.209,265.596 420.5,266.5C 414.491,266.334 408.491,266.501 402.5,267C 400.68,267.2 399.347,268.034 398.5,269.5C 397.833,269.5 397.5,269.833 397.5,270.5C 396.034,271.347 395.2,272.68 395,274.5C 394.5,320.499 394.333,366.499 394.5,412.5C 393.596,413.209 393.263,414.209 393.5,415.5C 391.992,417.181 390.992,419.181 390.5,421.5C 389.662,421.842 389.328,422.508 389.5,423.5C 388.833,423.5 388.5,423.833 388.5,424.5C 385.833,426.5 383.5,428.833 381.5,431.5C 380.833,431.5 380.5,431.833 380.5,432.5C 379.508,432.328 378.842,432.662 378.5,433.5C 377.508,433.328 376.842,433.662 376.5,434.5C 375.508,434.328 374.842,434.662 374.5,435.5C 372.146,435.838 369.813,436.338 367.5,437C 306.834,437.5 246.168,437.667 185.5,437.5C 184.432,436.566 183.099,436.232 181.5,436.5C 179.819,434.992 177.819,433.992 175.5,433.5C 166.284,427.755 160.784,419.422 159,408.5C 158.5,363.835 158.333,319.168 158.5,274.5C 159.674,273.486 160.34,272.153 160.5,270.5C 161.167,270.167 161.833,269.833 162.5,269.5C 164.255,268.928 165.922,268.094 167.5,267C 169.473,266.505 171.473,266.338 173.5,266.5C 177.435,267.438 180.101,269.771 181.5,273.5C 181.333,318.501 181.5,363.501 182,408.5C 183.076,411.079 184.909,412.746 187.5,413.5C 247.167,414.833 306.833,414.833 366.5,413.5C 368.027,413.573 369.027,412.906 369.5,411.5C 370.793,410.158 371.626,408.491 372,406.5C 372.5,360.835 372.667,315.168 372.5,269.5C 376.5,256.833 384.833,248.5 397.5,244.5C 403.176,244.666 408.843,244.499 414.5,244C 420.995,241.852 423.495,237.352 422,230.5C 420,227.334 417.5,224.668 414.5,222.5C 413.738,220.738 412.404,219.738 410.5,219.5C 409.167,217.5 407.5,215.833 405.5,214.5C 404.738,212.738 403.404,211.738 401.5,211.5C 400.167,209.5 398.5,207.833 396.5,206.5C 395.738,204.738 394.404,203.738 392.5,203.5C 391.167,201.5 389.5,199.833 387.5,198.5C 386.738,196.738 385.404,195.738 383.5,195.5C 382.167,193.5 380.5,191.833 378.5,190.5C 377.738,188.738 376.404,187.738 374.5,187.5C 373.167,185.5 371.5,183.833 369.5,182.5C 368.738,180.738 367.404,179.738 365.5,179.5C 364.167,177.5 362.5,175.833 360.5,174.5C 359.738,172.738 358.404,171.738 356.5,171.5C 355.167,169.5 353.5,167.833 351.5,166.5C 350.738,164.738 349.404,163.738 347.5,163.5C 346.167,161.5 344.5,159.833 342.5,158.5C 341.738,156.738 340.404,155.738 338.5,155.5C 337.167,153.5 335.5,151.833 333.5,150.5C 332.738,148.738 331.404,147.738 329.5,147.5C 328.167,145.5 326.5,143.833 324.5,142.5C 323.738,140.738 322.404,139.738 320.5,139.5C 319.167,137.5 317.5,135.833 315.5,134.5C 314.738,132.738 313.404,131.738 311.5,131.5C 310.167,129.5 308.5,127.833 306.5,126.5C 305.738,124.738 304.404,123.738 302.5,123.5C 301.167,121.5 299.5,119.833 297.5,118.5C 296.738,116.738 295.404,115.738 293.5,115.5C 292.167,113.5 290.5,111.833 288.5,110.5C 287.738,108.738 286.404,107.738 284.5,107.5C 283.657,105.827 282.324,104.66 280.5,104C 277.633,103.199 274.966,103.366 272.5,104.5C 271.508,104.328 270.842,104.662 270.5,105.5C 269.833,105.5 269.5,105.833 269.5,106.5C 268.833,106.5 268.5,106.833 268.5,107.5C 267.833,107.5 267.5,107.833 267.5,108.5C 265.973,108.427 264.973,109.094 264.5,110.5C 263.833,110.5 263.5,110.833 263.5,111.5C 262.833,111.5 262.5,111.833 262.5,112.5C 261.833,112.5 261.5,112.833 261.5,113.5C 260.833,113.5 260.5,113.833 260.5,114.5C 258.973,114.427 257.973,115.094 257.5,116.5C 256.833,116.5 256.5,116.833 256.5,117.5C 255.833,117.5 255.5,117.833 255.5,118.5C 254.833,118.5 254.5,118.833 254.5,119.5C 253.833,119.5 253.5,119.833 253.5,120.5C 251.973,120.427 250.973,121.094 250.5,122.5C 249.833,122.5 249.5,122.833 249.5,123.5C 248.833,123.5 248.5,123.833 248.5,124.5C 247.833,124.5 247.5,124.833 247.5,125.5C 246.833,125.5 246.5,125.833 246.5,126.5C 244.973,126.427 243.973,127.094 243.5,128.5C 242.833,128.5 242.5,128.833 242.5,129.5C 241.833,129.5 241.5,129.833 241.5,130.5C 240.833,130.5 240.5,130.833 240.5,131.5C 239.833,131.5 239.5,131.833 239.5,132.5C 237.973,132.427 236.973,133.094 236.5,134.5C 235.833,134.5 235.5,134.833 235.5,135.5C 234.833,135.5 234.5,135.833 234.5,136.5C 233.833,136.5 233.5,136.833 233.5,137.5C 232.833,137.5 232.5,137.833 232.5,138.5C 230.973,138.427 229.973,139.094 229.5,140.5C 228.833,140.5 228.5,140.833 228.5,141.5C 227.833,141.5 227.5,141.833 227.5,142.5C 226.833,142.5 226.5,142.833 226.5,143.5C 225.833,143.5 225.5,143.833 225.5,144.5C 223.973,144.427 222.973,145.094 222.5,146.5C 221.833,146.5 221.5,146.833 221.5,147.5C 220.833,147.5 220.5,147.833 220.5,148.5C 219.833,148.5 219.5,148.833 219.5,149.5C 218.833,149.5 218.5,149.833 218.5,150.5C 216.973,150.427 215.973,151.094 215.5,152.5C 214.833,152.5 214.5,152.833 214.5,153.5C 213.833,153.5 213.5,153.833 213.5,154.5C 212.833,154.5 212.5,154.833 212.5,155.5C 211.833,155.5 211.5,155.833 211.5,156.5C 209.973,156.427 208.973,157.094 208.5,158.5C 207.833,158.5 207.5,158.833 207.5,159.5C 206.833,159.5 206.5,159.833 206.5,160.5C 205.833,160.5 205.5,160.833 205.5,161.5C 204.833,161.5 204.5,161.833 204.5,162.5C 202.973,162.427 201.973,163.094 201.5,164.5C 200.833,164.5 200.5,164.833 200.5,165.5C 199.833,165.5 199.5,165.833 199.5,166.5C 198.833,166.5 198.5,166.833 198.5,167.5C 197.833,167.5 197.5,167.833 197.5,168.5C 195.973,168.427 194.973,169.094 194.5,170.5C 193.833,170.5 193.5,170.833 193.5,171.5C 192.833,171.5 192.5,171.833 192.5,172.5C 191.833,172.5 191.5,172.833 191.5,173.5C 190.833,173.5 190.5,173.833 190.5,174.5C 188.973,174.427 187.973,175.094 187.5,176.5C 186.833,176.5 186.5,176.833 186.5,177.5C 185.833,177.5 185.5,177.833 185.5,178.5C 184.833,178.5 184.5,178.833 184.5,179.5C 183.833,179.5 183.5,179.833 183.5,180.5C 181.973,180.427 180.973,181.094 180.5,182.5C 179.833,182.5 179.5,182.833 179.5,183.5C 178.833,183.5 178.5,183.833 178.5,184.5C 177.833,184.5 177.5,184.833 177.5,185.5C 176.833,185.5 176.5,185.833 176.5,186.5C 174.973,186.427 173.973,187.094 173.5,188.5C 172.833,188.5 172.5,188.833 172.5,189.5C 171.833,189.5 171.5,189.833 171.5,190.5C 170.833,190.5 170.5,190.833 170.5,191.5C 169.833,191.5 169.5,191.833 169.5,192.5C 167.973,192.427 166.973,193.094 166.5,194.5C 165.833,194.5 165.5,194.833 165.5,195.5C 164.833,195.5 164.5,195.833 164.5,196.5C 163.833,196.5 163.5,196.833 163.5,197.5C 162.833,197.5 162.5,197.833 162.5,198.5C 160.973,198.427 159.973,199.094 159.5,200.5C 158.833,200.5 158.5,200.833 158.5,201.5C 157.833,201.5 157.5,201.833 157.5,202.5C 156.833,202.5 156.5,202.833 156.5,203.5C 155.833,203.5 155.5,203.833 155.5,204.5C 153.973,204.427 152.973,205.094 152.5,206.5C 151.833,206.5 151.5,206.833 151.5,207.5C 150.833,207.5 150.5,207.833 150.5,208.5C 149.833,208.5 149.5,208.833 149.5,209.5C 148.833,209.5 148.5,209.833 148.5,210.5C 146.973,210.427 145.973,211.094 145.5,212.5C 144.833,212.5 144.5,212.833 144.5,213.5C 143.833,213.5 143.5,213.833 143.5,214.5C 142.833,214.5 142.5,214.833 142.5,215.5C 141.833,215.5 141.5,215.833 141.5,216.5C 139.973,216.427 138.973,217.094 138.5,218.5C 137.833,218.5 137.5,218.833 137.5,219.5C 136.833,219.5 136.5,219.833 136.5,220.5C 135.833,220.5 135.5,220.833 135.5,221.5C 133.973,221.427 132.973,222.094 132.5,223.5C 131.209,223.263 130.209,223.596 129.5,224.5C 128.167,224.5 126.833,224.5 125.5,224.5C 123.544,223.508 121.544,222.508 119.5,221.5C 114.739,214.087 115.739,207.587 122.5,202C 167.128,164.374 211.461,126.374 255.5,88C 260.324,84.9215 265.324,82.4215 270.5,80.5 Z M 284.5,107.5 C 286.404,107.738 287.738,108.738 288.5,110.5C 286.596,110.262 285.262,109.262 284.5,107.5 Z M 267.5,108.5 C 267.027,109.906 266.027,110.573 264.5,110.5C 264.973,109.094 265.973,108.427 267.5,108.5 Z M 260.5,114.5 C 260.027,115.906 259.027,116.573 257.5,116.5C 257.973,115.094 258.973,114.427 260.5,114.5 Z M 293.5,115.5 C 295.404,115.738 296.738,116.738 297.5,118.5C 295.596,118.262 294.262,117.262 293.5,115.5 Z M 253.5,120.5 C 253.027,121.906 252.027,122.573 250.5,122.5C 250.973,121.094 251.973,120.427 253.5,120.5 Z M 302.5,123.5 C 304.404,123.738 305.738,124.738 306.5,126.5C 304.596,126.262 303.262,125.262 302.5,123.5 Z M 246.5,126.5 C 246.027,127.906 245.027,128.573 243.5,128.5C 243.973,127.094 244.973,126.427 246.5,126.5 Z M 311.5,131.5 C 313.404,131.738 314.738,132.738 315.5,134.5C 313.596,134.262 312.262,133.262 311.5,131.5 Z M 239.5,132.5 C 239.027,133.906 238.027,134.573 236.5,134.5C 236.973,133.094 237.973,132.427 239.5,132.5 Z M 232.5,138.5 C 232.027,139.906 231.027,140.573 229.5,140.5C 229.973,139.094 230.973,138.427 232.5,138.5 Z M 320.5,139.5 C 322.404,139.738 323.738,140.738 324.5,142.5C 322.596,142.262 321.262,141.262 320.5,139.5 Z M 225.5,144.5 C 225.027,145.906 224.027,146.573 222.5,146.5C 222.973,145.094 223.973,144.427 225.5,144.5 Z M 329.5,147.5 C 331.404,147.738 332.738,148.738 333.5,150.5C 331.596,150.262 330.262,149.262 329.5,147.5 Z M 218.5,150.5 C 218.027,151.906 217.027,152.573 215.5,152.5C 215.973,151.094 216.973,150.427 218.5,150.5 Z M 338.5,155.5 C 340.404,155.738 341.738,156.738 342.5,158.5C 340.596,158.262 339.262,157.262 338.5,155.5 Z M 211.5,156.5 C 211.027,157.906 210.027,158.573 208.5,158.5C 208.973,157.094 209.973,156.427 211.5,156.5 Z M 204.5,162.5 C 204.027,163.906 203.027,164.573 201.5,164.5C 201.973,163.094 202.973,162.427 204.5,162.5 Z M 347.5,163.5 C 349.404,163.738 350.738,164.738 351.5,166.5C 349.596,166.262 348.262,165.262 347.5,163.5 Z M 197.5,168.5 C 197.027,169.906 196.027,170.573 194.5,170.5C 194.973,169.094 195.973,168.427 197.5,168.5 Z M 356.5,171.5 C 358.404,171.738 359.738,172.738 360.5,174.5C 358.596,174.262 357.262,173.262 356.5,171.5 Z M 190.5,174.5 C 190.027,175.906 189.027,176.573 187.5,176.5C 187.973,175.094 188.973,174.427 190.5,174.5 Z M 365.5,179.5 C 367.404,179.738 368.738,180.738 369.5,182.5C 367.596,182.262 366.262,181.262 365.5,179.5 Z M 183.5,180.5 C 183.027,181.906 182.027,182.573 180.5,182.5C 180.973,181.094 181.973,180.427 183.5,180.5 Z M 176.5,186.5 C 176.027,187.906 175.027,188.573 173.5,188.5C 173.973,187.094 174.973,186.427 176.5,186.5 Z M 374.5,187.5 C 376.404,187.738 377.738,188.738 378.5,190.5C 376.596,190.262 375.262,189.262 374.5,187.5 Z M 169.5,192.5 C 169.027,193.906 168.027,194.573 166.5,194.5C 166.973,193.094 167.973,192.427 169.5,192.5 Z M 383.5,195.5 C 385.404,195.738 386.738,196.738 387.5,198.5C 385.596,198.262 384.262,197.262 383.5,195.5 Z M 162.5,198.5 C 162.027,199.906 161.027,200.573 159.5,200.5C 159.973,199.094 160.973,198.427 162.5,198.5 Z M 392.5,203.5 C 394.404,203.738 395.738,204.738 396.5,206.5C 394.596,206.262 393.262,205.262 392.5,203.5 Z M 155.5,204.5 C 155.027,205.906 154.027,206.573 152.5,206.5C 152.973,205.094 153.973,204.427 155.5,204.5 Z M 148.5,210.5 C 148.027,211.906 147.027,212.573 145.5,212.5C 145.973,211.094 146.973,210.427 148.5,210.5 Z M 401.5,211.5 C 403.404,211.738 404.738,212.738 405.5,214.5C 403.596,214.262 402.262,213.262 401.5,211.5 Z M 141.5,216.5 C 141.027,217.906 140.027,218.573 138.5,218.5C 138.973,217.094 139.973,216.427 141.5,216.5 Z M 410.5,219.5 C 412.404,219.738 413.738,220.738 414.5,222.5C 412.596,222.262 411.262,221.262 410.5,219.5 Z M 367.5,411.5 C 368.167,411.5 368.833,411.5 369.5,411.5C 369.027,412.906 368.027,413.573 366.5,413.5C 366.833,412.833 367.167,412.167 367.5,411.5 Z"/></g>
<g><path style="opacity:0.012" fill="#000000" d="M 289.5,81.5 C 290.833,82.1667 290.833,82.1667 289.5,81.5 Z"/></g>
<g><path style="opacity:0.012" fill="#000000" d="M 260.5,82.5 C 261.833,83.1667 261.833,83.1667 260.5,82.5 Z"/></g>
<g><path style="opacity:0.012" fill="#000000" d="M 291.5,82.5 C 292.833,83.1667 292.833,83.1667 291.5,82.5 Z"/></g>
<g><path style="opacity:0.008" fill="#000000" d="M 294.5,84.5 C 293.833,83.1667 293.833,83.1667 294.5,84.5 Z"/></g>
<g><path style="opacity:0.012" fill="#000000" d="M 294.5,84.5 C 295.833,85.1667 295.833,85.1667 294.5,84.5 Z"/></g>
<g><path style="opacity:0.008" fill="#000000" d="M 296.5,85.5 C 297.833,86.1667 297.833,86.1667 296.5,85.5 Z"/></g>
<g><path style="opacity:0.009" fill="#000000" d="M 272.5,105.5 C 272.5,105.167 272.5,104.833 272.5,104.5C 276.5,104.833 276.5,105.167 272.5,105.5 Z"/></g>
<g><path style="opacity:0.01" fill="#000000" d="M 270.5,106.5 C 270.5,106.167 270.5,105.833 270.5,105.5C 271.167,105.5 271.833,105.5 272.5,105.5C 272.158,106.338 271.492,106.672 270.5,106.5 Z"/></g>
<g><path style="opacity:0.016" fill="#000000" d="M 269.5,106.5 C 269.833,106.5 270.167,106.5 270.5,106.5C 270.315,107.17 269.981,107.17 269.5,106.5 Z"/></g>
<g><path style="opacity:0.012" fill="#000000" d="M 268.5,107.5 C 268.833,107.5 269.167,107.5 269.5,107.5C 269.315,108.17 268.981,108.17 268.5,107.5 Z"/></g>
<g><path style="opacity:0.016" fill="#000000" d="M 263.5,111.5 C 264.833,112.167 264.833,112.167 263.5,111.5 Z"/></g>
<g><path style="opacity:0.016" fill="#000000" d="M 262.5,112.5 C 262.833,112.5 263.167,112.5 263.5,112.5C 263.315,113.17 262.981,113.17 262.5,112.5 Z"/></g>
<g><path style="opacity:0.012" fill="#000000" d="M 261.5,113.5 C 261.833,113.5 262.167,113.5 262.5,113.5C 262.315,114.17 261.981,114.17 261.5,113.5 Z"/></g>
<g><path style="opacity:0.016" fill="#000000" d="M 256.5,117.5 C 257.833,118.167 257.833,118.167 256.5,117.5 Z"/></g>
<g><path style="opacity:0.016" fill="#000000" d="M 255.5,118.5 C 255.833,118.5 256.167,118.5 256.5,118.5C 256.315,119.17 255.981,119.17 255.5,118.5 Z"/></g>
<g><path style="opacity:0.012" fill="#000000" d="M 254.5,119.5 C 254.833,119.5 255.167,119.5 255.5,119.5C 255.315,120.17 254.981,120.17 254.5,119.5 Z"/></g>
<g><path style="opacity:0.016" fill="#000000" d="M 249.5,123.5 C 250.833,124.167 250.833,124.167 249.5,123.5 Z"/></g>
<g><path style="opacity:0.016" fill="#000000" d="M 248.5,124.5 C 248.833,124.5 249.167,124.5 249.5,124.5C 249.315,125.17 248.981,125.17 248.5,124.5 Z"/></g>
<g><path style="opacity:0.012" fill="#000000" d="M 247.5,125.5 C 247.833,125.5 248.167,125.5 248.5,125.5C 248.315,126.17 247.981,126.17 247.5,125.5 Z"/></g>
<g><path style="opacity:0.016" fill="#000000" d="M 242.5,129.5 C 243.833,130.167 243.833,130.167 242.5,129.5 Z"/></g>
<g><path style="opacity:0.016" fill="#000000" d="M 241.5,130.5 C 241.833,130.5 242.167,130.5 242.5,130.5C 242.315,131.17 241.981,131.17 241.5,130.5 Z"/></g>
<g><path style="opacity:0.012" fill="#000000" d="M 240.5,131.5 C 240.833,131.5 241.167,131.5 241.5,131.5C 241.315,132.17 240.981,132.17 240.5,131.5 Z"/></g>
<g><path style="opacity:0.016" fill="#000000" d="M 235.5,135.5 C 236.833,136.167 236.833,136.167 235.5,135.5 Z"/></g>
<g><path style="opacity:0.016" fill="#000000" d="M 234.5,136.5 C 234.833,136.5 235.167,136.5 235.5,136.5C 235.315,137.17 234.981,137.17 234.5,136.5 Z"/></g>
<g><path style="opacity:0.012" fill="#000000" d="M 233.5,137.5 C 233.833,137.5 234.167,137.5 234.5,137.5C 234.315,138.17 233.981,138.17 233.5,137.5 Z"/></g>
<g><path style="opacity:0.016" fill="#000000" d="M 228.5,141.5 C 229.833,142.167 229.833,142.167 228.5,141.5 Z"/></g>
<g><path style="opacity:0.016" fill="#000000" d="M 227.5,142.5 C 227.833,142.5 228.167,142.5 228.5,142.5C 228.315,143.17 227.981,143.17 227.5,142.5 Z"/></g>
<g><path style="opacity:0.012" fill="#000000" d="M 226.5,143.5 C 226.833,143.5 227.167,143.5 227.5,143.5C 227.315,144.17 226.981,144.17 226.5,143.5 Z"/></g>
<g><path style="opacity:0.016" fill="#000000" d="M 221.5,147.5 C 222.833,148.167 222.833,148.167 221.5,147.5 Z"/></g>
<g><path style="opacity:0.016" fill="#000000" d="M 220.5,148.5 C 220.833,148.5 221.167,148.5 221.5,148.5C 221.315,149.17 220.981,149.17 220.5,148.5 Z"/></g>
<g><path style="opacity:0.012" fill="#000000" d="M 219.5,149.5 C 219.833,149.5 220.167,149.5 220.5,149.5C 220.315,150.17 219.981,150.17 219.5,149.5 Z"/></g>
<g><path style="opacity:0.016" fill="#000000" d="M 214.5,153.5 C 215.833,154.167 215.833,154.167 214.5,153.5 Z"/></g>
<g><path style="opacity:0.016" fill="#000000" d="M 213.5,154.5 C 213.833,154.5 214.167,154.5 214.5,154.5C 214.315,155.17 213.981,155.17 213.5,154.5 Z"/></g>
<g><path style="opacity:0.012" fill="#000000" d="M 212.5,155.5 C 212.833,155.5 213.167,155.5 213.5,155.5C 213.315,156.17 212.981,156.17 212.5,155.5 Z"/></g>
<g><path style="opacity:0.016" fill="#000000" d="M 207.5,159.5 C 208.833,160.167 208.833,160.167 207.5,159.5 Z"/></g>
<g><path style="opacity:0.016" fill="#000000" d="M 206.5,160.5 C 206.833,160.5 207.167,160.5 207.5,160.5C 207.315,161.17 206.981,161.17 206.5,160.5 Z"/></g>
<g><path style="opacity:0.012" fill="#000000" d="M 205.5,161.5 C 205.833,161.5 206.167,161.5 206.5,161.5C 206.315,162.17 205.981,162.17 205.5,161.5 Z"/></g>
<g><path style="opacity:0.016" fill="#000000" d="M 200.5,165.5 C 201.833,166.167 201.833,166.167 200.5,165.5 Z"/></g>
<g><path style="opacity:0.016" fill="#000000" d="M 199.5,166.5 C 199.833,166.5 200.167,166.5 200.5,166.5C 200.315,167.17 199.981,167.17 199.5,166.5 Z"/></g>
<g><path style="opacity:0.012" fill="#000000" d="M 198.5,167.5 C 198.833,167.5 199.167,167.5 199.5,167.5C 199.315,168.17 198.981,168.17 198.5,167.5 Z"/></g>
<g><path style="opacity:0.016" fill="#000000" d="M 193.5,171.5 C 194.833,172.167 194.833,172.167 193.5,171.5 Z"/></g>
<g><path style="opacity:0.016" fill="#000000" d="M 192.5,172.5 C 192.833,172.5 193.167,172.5 193.5,172.5C 193.315,173.17 192.981,173.17 192.5,172.5 Z"/></g>
<g><path style="opacity:0.012" fill="#000000" d="M 191.5,173.5 C 191.833,173.5 192.167,173.5 192.5,173.5C 192.315,174.17 191.981,174.17 191.5,173.5 Z"/></g>
<g><path style="opacity:0.016" fill="#000000" d="M 186.5,177.5 C 187.833,178.167 187.833,178.167 186.5,177.5 Z"/></g>
<g><path style="opacity:0.016" fill="#000000" d="M 185.5,178.5 C 185.833,178.5 186.167,178.5 186.5,178.5C 186.315,179.17 185.981,179.17 185.5,178.5 Z"/></g>
<g><path style="opacity:0.012" fill="#000000" d="M 184.5,179.5 C 184.833,179.5 185.167,179.5 185.5,179.5C 185.315,180.17 184.981,180.17 184.5,179.5 Z"/></g>
<g><path style="opacity:0.016" fill="#000000" d="M 179.5,183.5 C 180.833,184.167 180.833,184.167 179.5,183.5 Z"/></g>
<g><path style="opacity:0.016" fill="#000000" d="M 178.5,184.5 C 178.833,184.5 179.167,184.5 179.5,184.5C 179.315,185.17 178.981,185.17 178.5,184.5 Z"/></g>
<g><path style="opacity:0.012" fill="#000000" d="M 177.5,185.5 C 177.833,185.5 178.167,185.5 178.5,185.5C 178.315,186.17 177.981,186.17 177.5,185.5 Z"/></g>
<g><path style="opacity:0.016" fill="#000000" d="M 172.5,189.5 C 173.833,190.167 173.833,190.167 172.5,189.5 Z"/></g>
<g><path style="opacity:0.016" fill="#000000" d="M 171.5,190.5 C 171.833,190.5 172.167,190.5 172.5,190.5C 172.315,191.17 171.981,191.17 171.5,190.5 Z"/></g>
<g><path style="opacity:0.012" fill="#000000" d="M 170.5,191.5 C 170.833,191.5 171.167,191.5 171.5,191.5C 171.315,192.17 170.981,192.17 170.5,191.5 Z"/></g>
<g><path style="opacity:0.016" fill="#000000" d="M 165.5,195.5 C 166.833,196.167 166.833,196.167 165.5,195.5 Z"/></g>
<g><path style="opacity:0.016" fill="#000000" d="M 164.5,196.5 C 164.833,196.5 165.167,196.5 165.5,196.5C 165.315,197.17 164.981,197.17 164.5,196.5 Z"/></g>
<g><path style="opacity:0.012" fill="#000000" d="M 163.5,197.5 C 163.833,197.5 164.167,197.5 164.5,197.5C 164.315,198.17 163.981,198.17 163.5,197.5 Z"/></g>
<g><path style="opacity:0.016" fill="#000000" d="M 158.5,201.5 C 159.833,202.167 159.833,202.167 158.5,201.5 Z"/></g>
<g><path style="opacity:0.016" fill="#000000" d="M 157.5,202.5 C 157.833,202.5 158.167,202.5 158.5,202.5C 158.315,203.17 157.981,203.17 157.5,202.5 Z"/></g>
<g><path style="opacity:0.012" fill="#000000" d="M 156.5,203.5 C 156.833,203.5 157.167,203.5 157.5,203.5C 157.315,204.17 156.981,204.17 156.5,203.5 Z"/></g>
<g><path style="opacity:0.016" fill="#000000" d="M 151.5,207.5 C 152.833,208.167 152.833,208.167 151.5,207.5 Z"/></g>
<g><path style="opacity:0.016" fill="#000000" d="M 150.5,208.5 C 150.833,208.5 151.167,208.5 151.5,208.5C 151.315,209.17 150.981,209.17 150.5,208.5 Z"/></g>
<g><path style="opacity:0.011" fill="#000000" d="M 114.5,209.5 C 115.629,211.628 115.796,213.961 115,216.5C 114.503,214.19 114.337,211.857 114.5,209.5 Z"/></g>
<g><path style="opacity:0.012" fill="#000000" d="M 149.5,209.5 C 149.833,209.5 150.167,209.5 150.5,209.5C 150.315,210.17 149.981,210.17 149.5,209.5 Z"/></g>
<g><path style="opacity:0.016" fill="#000000" d="M 144.5,213.5 C 145.833,214.167 145.833,214.167 144.5,213.5 Z"/></g>
<g><path style="opacity:0.016" fill="#000000" d="M 143.5,214.5 C 143.833,214.5 144.167,214.5 144.5,214.5C 144.315,215.17 143.981,215.17 143.5,214.5 Z"/></g>
<g><path style="opacity:0.012" fill="#000000" d="M 142.5,215.5 C 142.833,215.5 143.167,215.5 143.5,215.5C 143.315,216.17 142.981,216.17 142.5,215.5 Z"/></g>
<g><path style="opacity:0.012" fill="#000000" d="M 115.5,217.5 C 116.833,218.167 116.833,218.167 115.5,217.5 Z"/></g>
<g><path style="opacity:0.02" fill="#141524" d="M 137.5,219.5 C 138.833,220.167 138.833,220.167 137.5,219.5 Z"/></g>
<g><path style="opacity:0.008" fill="#000000" d="M 443.5,221.5 C 443.369,220.761 443.536,220.094 444,219.5C 444.692,220.437 444.525,221.103 443.5,221.5 Z"/></g>
<g><path style="opacity:0.016" fill="#000000" d="M 136.5,220.5 C 136.833,220.5 137.167,220.5 137.5,220.5C 137.315,221.17 136.981,221.17 136.5,220.5 Z"/></g>
<g><path style="opacity:0.008" fill="#000000" d="M 119.5,221.5 C 119.5,221.833 119.5,222.167 119.5,222.5C 118.83,222.019 118.83,221.685 119.5,221.5 Z"/></g>
<g><path style="opacity:0.012" fill="#000000" d="M 135.5,221.5 C 135.833,221.5 136.167,221.5 136.5,221.5C 136.315,222.17 135.981,222.17 135.5,221.5 Z"/></g>
<g><path style="opacity:0.008" fill="#000000" d="M 119.5,222.5 C 120.833,223.167 120.833,223.167 119.5,222.5 Z"/></g>
<g><path style="opacity:0.008" fill="#000000" d="M 135.5,222.5 C 134.833,223.167 134.833,223.167 135.5,222.5 Z"/></g>
<g><path style="opacity:0.012" fill="#000000" d="M 132.5,223.5 C 133.833,224.167 133.833,224.167 132.5,223.5 Z"/></g>
<g><path style="opacity:0.007" fill="#000000" d="M 125.5,224.5 C 124.749,225.573 123.749,225.74 122.5,225C 123.448,224.517 124.448,224.351 125.5,224.5 Z"/></g>
<g><path style="opacity:0.007" fill="#000000" d="M 129.5,224.5 C 130.5,224.5 131.5,224.5 132.5,224.5C 131.5,225.833 130.5,225.833 129.5,224.5 Z"/></g>
<g><path style="opacity:0.009" fill="#000000" d="M 445.5,228.5 C 445.343,227.127 445.51,225.793 446,224.5C 446.765,226.066 446.598,227.399 445.5,228.5 Z"/></g>
<g><path style="opacity:0.007" fill="#000000" d="M 446.5,229.5 C 447.638,232.304 447.805,235.304 447,238.5C 446.502,235.518 446.335,232.518 446.5,229.5 Z"/></g>
<g><path style="opacity:0.009" fill="#000000" d="M 445.5,239.5 C 446.573,240.251 446.74,241.251 446,242.5C 445.517,241.552 445.351,240.552 445.5,239.5 Z"/></g>
<g><path style="opacity:0.007" fill="#000000" d="M 398.5,243.5 C 403.316,242.35 408.316,242.184 413.5,243C 408.511,243.499 403.511,243.666 398.5,243.5 Z"/></g>
<g><path style="opacity:0.008" fill="#000000" d="M 397.5,244.5 C 396.448,244.649 395.448,244.483 394.5,244C 395.749,243.26 396.749,243.427 397.5,244.5 Z"/></g>
<g><path style="opacity:0.01" fill="#000000" d="M 444.5,243.5 C 445.525,243.897 445.692,244.563 445,245.5C 444.536,244.906 444.369,244.239 444.5,243.5 Z"/></g>
<g><path style="opacity:0.008" fill="#000000" d="M 391.5,245.5 C 391.897,244.475 392.563,244.308 393.5,245C 392.906,245.464 392.239,245.631 391.5,245.5 Z"/></g>
<g><path style="opacity:0.008" fill="#000000" d="M 443.5,246.5 C 444.833,247.167 444.833,247.833 443.5,248.5C 443.5,247.833 443.5,247.167 443.5,246.5 Z"/></g>
<g><path style="opacity:0.008" fill="#000000" d="M 442.5,248.5 C 442.833,248.5 443.167,248.5 443.5,248.5C 443.672,249.492 443.338,250.158 442.5,250.5C 442.5,249.833 442.5,249.167 442.5,248.5 Z"/></g>
<g><path style="opacity:0.008" fill="#000000" d="M 383.5,249.5 C 384.833,250.167 384.833,250.167 383.5,249.5 Z"/></g>
<g><path style="opacity:0.012" fill="#000000" d="M 441.5,250.5 C 441.833,250.5 442.167,250.5 442.5,250.5C 442.315,251.17 441.981,251.17 441.5,250.5 Z"/></g>
<g><path style="opacity:0.008" fill="#000000" d="M 440.5,252.5 C 441.833,253.167 441.833,253.167 440.5,252.5 Z"/></g>
<g><path style="opacity:0.012" fill="#000000" d="M 439.5,253.5 C 439.833,253.5 440.167,253.5 440.5,253.5C 440.315,254.17 439.981,254.17 439.5,253.5 Z"/></g>
<g><path style="opacity:0.006" fill="#000000" d="M 438.5,254.5 C 438.833,254.5 439.167,254.5 439.5,254.5C 439.672,255.492 439.338,256.158 438.5,256.5C 438.5,255.833 438.5,255.167 438.5,254.5 Z"/></g>
<g><path style="opacity:0.008" fill="#000000" d="M 377.5,255.5 C 378.833,256.167 378.833,256.167 377.5,255.5 Z"/></g>
<g><path style="opacity:0.004" fill="#000000" d="M 438.5,256.5 C 437.833,257.167 437.833,257.167 438.5,256.5 Z"/></g>
<g><path style="opacity:0.008" fill="#000000" d="M 437.5,257.5 C 436.833,258.167 436.833,258.167 437.5,257.5 Z"/></g>
<g><path style="opacity:0.008" fill="#000000" d="M 436.5,258.5 C 435.833,259.167 435.833,259.167 436.5,258.5 Z"/></g>
<g><path style="opacity:0.004" fill="#000000" d="M 435.5,259.5 C 434.833,260.167 434.833,260.167 435.5,259.5 Z"/></g>
<g><path style="opacity:0.012" fill="#000000" d="M 432.5,260.5 C 433.833,261.167 433.833,261.167 432.5,260.5 Z"/></g>
<g><path style="opacity:0.012" fill="#000000" d="M 431.5,261.5 C 431.833,261.5 432.167,261.5 432.5,261.5C 432.315,262.17 431.981,262.17 431.5,261.5 Z"/></g>
<g><path style="opacity:0.006" fill="#000000" d="M 429.5,263.5 C 429.5,263.167 429.5,262.833 429.5,262.5C 430.167,262.5 430.833,262.5 431.5,262.5C 431.158,263.338 430.492,263.672 429.5,263.5 Z"/></g>
<g><path style="opacity:0.009" fill="#000000" d="M 167.5,264.5 C 168.946,263.387 170.613,263.22 172.5,264C 170.866,264.494 169.199,264.66 167.5,264.5 Z"/></g>
<g><path style="opacity:0.008" fill="#000000" d="M 372.5,263.5 C 373.525,263.897 373.692,264.563 373,265.5C 372.536,264.906 372.369,264.239 372.5,263.5 Z"/></g>
<g><path style="opacity:0.012" fill="#000000" d="M 428.5,263.5 C 428.833,263.5 429.167,263.5 429.5,263.5C 429.315,264.17 428.981,264.17 428.5,263.5 Z"/></g>
<g><path style="opacity:0.012" fill="#000000" d="M 426.5,264.5 C 427.833,265.167 427.833,265.167 426.5,264.5 Z"/></g>
<g><path style="opacity:0.008" fill="#000000" d="M 423.5,266.5 C 423.5,266.167 423.5,265.833 423.5,265.5C 426.167,265.833 426.167,266.167 423.5,266.5 Z"/></g>
<g><path style="opacity:0.008" fill="#000000" d="M 372.5,269.5 C 371.427,268.749 371.26,267.749 372,266.5C 372.483,267.448 372.649,268.448 372.5,269.5 Z"/></g>
<g><path style="opacity:0.008" fill="#000000" d="M 420.5,266.5 C 421.5,266.5 422.5,266.5 423.5,266.5C 422.5,267.833 421.5,267.833 420.5,266.5 Z"/></g>
<g><path style="opacity:0.004" fill="#000000" d="M 160.5,267.5 C 161.833,268.167 161.833,268.167 160.5,267.5 Z"/></g>
<g><path style="opacity:0.992" fill="#42449e" d="M 173.5,266.5 C 171.473,266.338 169.473,266.505 167.5,267C 165.922,268.094 164.255,268.928 162.5,269.5C 165.449,265.655 169.116,264.655 173.5,266.5 Z"/></g>
<g><path style="opacity:0.006" fill="#000000" d="M 403.5,268.5 C 408.65,267.349 413.984,267.183 419.5,268C 414.177,268.499 408.844,268.666 403.5,268.5 Z"/></g>
<g><path style="opacity:0.01" fill="#000000" d="M 400.5,269.5 C 400.897,268.475 401.563,268.308 402.5,269C 401.906,269.464 401.239,269.631 400.5,269.5 Z"/></g>
<g><path style="opacity:0.008" fill="#000000" d="M 160.5,270.5 C 159.833,269.167 159.833,269.167 160.5,270.5 Z"/></g>
<g><path style="opacity:0.02" fill="#000000" d="M 398.5,269.5 C 399.833,270.167 399.833,270.167 398.5,269.5 Z"/></g>
<g><path style="opacity:0.008" fill="#000000" d="M 159.5,270.5 C 158.833,271.167 158.833,271.167 159.5,270.5 Z"/></g>
<g><path style="opacity:0.004" fill="#000000" d="M 370.5,270.5 C 371.665,315.331 371.831,360.331 371,405.5C 370.5,360.501 370.333,315.501 370.5,270.5 Z"/></g>
<g><path style="opacity:0.02" fill="#000000" d="M 397.5,270.5 C 397.833,270.5 398.167,270.5 398.5,270.5C 398.315,271.17 397.981,271.17 397.5,270.5 Z"/></g>
<g><path style="opacity:0.008" fill="#000000" d="M 181.5,273.5 C 181.369,272.761 181.536,272.094 182,271.5C 182.692,272.437 182.525,273.103 181.5,273.5 Z"/></g>
<g><path style="opacity:0.01" fill="#000000" d="M 158.5,274.5 C 157.475,274.103 157.308,273.437 158,272.5C 158.464,273.094 158.631,273.761 158.5,274.5 Z"/></g>
<g><path style="opacity:0.01" fill="#000000" d="M 396.5,272.5 C 397.525,272.897 397.692,273.563 397,274.5C 396.536,273.906 396.369,273.239 396.5,272.5 Z"/></g>
<g><path style="opacity:0.012" fill="#000000" d="M 182.5,274.5 C 183.665,318.665 183.831,362.998 183,407.5C 182.5,363.168 182.333,318.835 182.5,274.5 Z"/></g>
<g><path style="opacity:0.004" fill="#000000" d="M 395.5,275.5 C 396.665,320.665 396.831,365.998 396,411.5C 395.5,366.168 395.333,320.835 395.5,275.5 Z"/></g>
<g><path style="opacity:0.012" fill="#000000" d="M 157.5,409.5 C 158.573,410.251 158.74,411.251 158,412.5C 157.517,411.552 157.351,410.552 157.5,409.5 Z"/></g>
<g><path style="opacity:0.007" fill="#000000" d="M 369.5,411.5 C 368.833,411.5 368.167,411.5 367.5,411.5C 368.548,409.067 369.214,409.067 369.5,411.5 Z"/></g>
<g><path style="opacity:0.008" fill="#000000" d="M 187.5,413.5 C 188.601,412.402 189.934,412.235 191.5,413C 190.207,413.49 188.873,413.657 187.5,413.5 Z"/></g>
<g><path style="opacity:0.009" fill="#000000" d="M 394.5,412.5 C 395.833,413.5 395.833,414.5 394.5,415.5C 394.5,414.5 394.5,413.5 394.5,412.5 Z"/></g>
<g><path style="opacity:0.01" fill="#000000" d="M 393.5,415.5 C 393.833,415.5 394.167,415.5 394.5,415.5C 394.167,418.167 393.833,418.167 393.5,415.5 Z"/></g>
<g><path style="opacity:0.012" fill="#000000" d="M 392.5,418.5 C 393.833,419.167 393.833,419.167 392.5,418.5 Z"/></g>
<g><path style="opacity:0.012" fill="#000000" d="M 391.5,420.5 C 392.833,421.167 392.833,421.167 391.5,420.5 Z"/></g>
<g><path style="opacity:0.006" fill="#000000" d="M 390.5,421.5 C 390.833,421.5 391.167,421.5 391.5,421.5C 391.672,422.492 391.338,423.158 390.5,423.5C 390.5,422.833 390.5,422.167 390.5,421.5 Z"/></g>
<g><path style="opacity:0.012" fill="#000000" d="M 389.5,423.5 C 389.833,423.5 390.167,423.5 390.5,423.5C 390.315,424.17 389.981,424.17 389.5,423.5 Z"/></g>
<g><path style="opacity:0.012" fill="#000000" d="M 388.5,424.5 C 388.833,424.5 389.167,424.5 389.5,424.5C 389.315,425.17 388.981,425.17 388.5,424.5 Z"/></g>
<g><path style="opacity:0.012" fill="#000000" d="M 381.5,431.5 C 382.833,432.167 382.833,432.167 381.5,431.5 Z"/></g>
<g><path style="opacity:0.012" fill="#000000" d="M 380.5,432.5 C 380.833,432.5 381.167,432.5 381.5,432.5C 381.315,433.17 380.981,433.17 380.5,432.5 Z"/></g>
<g><path style="opacity:0.006" fill="#000000" d="M 175.5,433.5 C 175.5,433.833 175.5,434.167 175.5,434.5C 172.833,434.167 172.833,433.833 175.5,433.5 Z"/></g>
<g><path style="opacity:0.008" fill="#000000" d="M 378.5,434.5 C 378.5,434.167 378.5,433.833 378.5,433.5C 379.167,433.5 379.833,433.5 380.5,433.5C 380.158,434.338 379.492,434.672 378.5,434.5 Z"/></g>
<g><path style="opacity:0.012" fill="#000000" d="M 175.5,434.5 C 176.833,435.167 176.833,435.167 175.5,434.5 Z"/></g>
<g><path style="opacity:0.008" fill="#000000" d="M 376.5,435.5 C 376.5,435.167 376.5,434.833 376.5,434.5C 377.167,434.5 377.833,434.5 378.5,434.5C 378.158,435.338 377.492,435.672 376.5,435.5 Z"/></g>
<g><path style="opacity:0.012" fill="#000000" d="M 177.5,435.5 C 178.833,436.167 178.833,436.167 177.5,435.5 Z"/></g>
<g><path style="opacity:0.008" fill="#000000" d="M 374.5,436.5 C 374.5,436.167 374.5,435.833 374.5,435.5C 375.167,435.5 375.833,435.5 376.5,435.5C 376.158,436.338 375.492,436.672 374.5,436.5 Z"/></g>
<g><path style="opacity:0.01" fill="#000000" d="M 181.5,436.5 C 181.103,437.525 180.437,437.692 179.5,437C 180.094,436.536 180.761,436.369 181.5,436.5 Z"/></g>
<g><path style="opacity:0.008" fill="#000000" d="M 374.5,436.5 C 374.103,437.525 373.437,437.692 372.5,437C 373.094,436.536 373.761,436.369 374.5,436.5 Z"/></g>
<g><path style="opacity:0.01" fill="#000000" d="M 185.5,437.5 C 184.749,438.573 183.749,438.74 182.5,438C 183.448,437.517 184.448,437.351 185.5,437.5 Z"/></g>
<g><path style="opacity:0.009" fill="#000000" d="M 368.5,438.5 C 369.251,437.427 370.251,437.26 371.5,438C 370.552,438.483 369.552,438.649 368.5,438.5 Z"/></g>
<g><path style="opacity:0.012" fill="#000000" d="M 186.5,439.5 C 246.332,438.335 306.332,438.168 366.5,439C 306.501,439.5 246.501,439.667 186.5,439.5 Z"/></g>
</svg>
