<?xml version="1.0" encoding="UTF-8"?>
<!DOCTYPE svg PUBLIC "-//W3C//DTD SVG 1.1//EN" "http://www.w3.org/Graphics/SVG/1.1/DTD/svg11.dtd">
<svg xmlns="http://www.w3.org/2000/svg" version="1.1" width="512px" height="512px" style="shape-rendering:geometricPrecision; text-rendering:geometricPrecision; image-rendering:optimizeQuality; fill-rule:evenodd; clip-rule:evenodd" xmlns:xlink="http://www.w3.org/1999/xlink">
<g><path style="opacity:0.004" fill="#000000" d="M 102.5,51.5 C 182.999,50.3344 263.666,50.1677 344.5,51C 263.834,51.5 183.167,51.6667 102.5,51.5 Z"/></g>
<g><path style="opacity:0.012" fill="#000000" d="M 100.5,51.5 C 101.833,52.1667 101.833,52.1667 100.5,51.5 Z"/></g>
<g><path style="opacity:0.012" fill="#000000" d="M 345.5,51.5 C 346.833,52.1667 346.833,52.1667 345.5,51.5 Z"/></g>
<g><path style="opacity:0.942" fill="#000000" d="M 349.5,55.5 C 350.508,57.5439 351.508,59.5439 352.5,61.5C 352.5,93.8333 352.5,126.167 352.5,158.5C 385.864,158.188 419.198,158.521 452.5,159.5C 454.403,160.947 456.07,162.614 457.5,164.5C 458.495,260.126 458.829,355.793 458.5,451.5C 457.662,451.842 457.328,452.508 457.5,453.5C 455.833,454.5 454.5,455.833 453.5,457.5C 452.508,457.328 451.842,457.662 451.5,458.5C 366.459,458.828 281.459,458.495 196.5,457.5C 194.614,456.07 192.947,454.403 191.5,452.5C 190.507,350.528 190.173,248.528 190.5,146.5C 191.674,145.486 192.34,144.153 192.5,142.5C 194.34,140.832 196.34,139.332 198.5,138C 215.167,137.333 231.833,137.333 248.5,138C 249.527,138.513 250.527,139.013 251.5,139.5C 252.167,140.833 253.167,141.833 254.5,142.5C 254.66,144.153 255.326,145.486 256.5,146.5C 256.826,234.195 256.492,321.862 255.5,409.5C 254.662,409.842 254.328,410.508 254.5,411.5C 253.833,411.5 253.5,411.833 253.5,412.5C 252.833,412.5 252.5,412.833 252.5,413.5C 251.833,413.5 251.5,413.833 251.5,414.5C 250.508,414.328 249.842,414.662 249.5,415.5C 247.194,415.993 244.861,416.326 242.5,416.5C 241.486,415.326 240.153,414.66 238.5,414.5C 237.833,413.167 236.833,412.167 235.5,411.5C 234.91,410.234 234.41,408.901 234,407.5C 233.667,324.833 233.333,242.167 233,159.5C 226.667,160.833 220.333,160.833 214,159.5C 213.5,251.833 213.333,344.166 213.5,436.5C 287.833,436.5 362.167,436.5 436.5,436.5C 436.5,351.5 436.5,266.5 436.5,181.5C 408.165,181.333 379.831,181.5 351.5,182C 352.497,221.427 352.83,260.927 352.5,300.5C 351.326,301.514 350.66,302.847 350.5,304.5C 349.167,305.167 348.167,306.167 347.5,307.5C 346.833,307.5 346.5,307.833 346.5,308.5C 345.508,308.328 344.842,308.662 344.5,309.5C 342.167,309.5 339.833,309.5 337.5,309.5C 333.853,308.017 331.353,305.35 330,301.5C 329.5,225.834 329.333,150.167 329.5,74.5C 258.833,74.5 188.167,74.5 117.5,74.5C 117.5,199.833 117.5,325.167 117.5,450.5C 116.326,451.514 115.66,452.847 115.5,454.5C 114.833,454.5 114.5,454.833 114.5,455.5C 113.833,455.5 113.5,455.833 113.5,456.5C 112.833,456.5 112.5,456.833 112.5,457.5C 111.508,457.328 110.842,457.662 110.5,458.5C 93.5,458.5 76.5,458.5 59.5,458.5C 57.8577,457.197 56.1911,455.864 54.5,454.5C 50.6558,447.063 52.3224,441.23 59.5,437C 71.1619,436.5 82.8286,436.333 94.5,436.5C 94.3333,311.5 94.5,186.5 95,61.5C 96.0021,57.3197 98.5021,54.4864 102.5,53C 183.167,52.3333 263.833,52.3333 344.5,53C 346.193,53.8466 347.86,54.6799 349.5,55.5 Z"/></g>
<g><path style="opacity:0.008" fill="#000000" d="M 350.5,55.5 C 349.833,54.1667 349.833,54.1667 350.5,55.5 Z"/></g>
<g><path style="opacity:0.004" fill="#000000" d="M 95.5,55.5 C 96.8333,56.1667 96.8333,56.1667 95.5,55.5 Z"/></g>
<g><path style="opacity:0.008" fill="#000000" d="M 350.5,55.5 C 351.833,56.1667 351.833,56.1667 350.5,55.5 Z"/></g>
<g><path style="opacity:0.007" fill="#000000" d="M 352.5,61.5 C 352.351,60.448 352.517,59.448 353,58.5C 353.74,59.7494 353.573,60.7494 352.5,61.5 Z"/></g>
<g><path style="opacity:0.01" fill="#000000" d="M 118.5,450.5 C 118.5,325.5 118.5,200.5 118.5,75.5C 188.5,75.5 258.5,75.5 328.5,75.5C 328.667,150.501 328.5,225.501 328,300.5C 327.5,225.834 327.333,151.167 327.5,76.5C 258.167,76.5 188.833,76.5 119.5,76.5C 119.833,201.334 119.5,326.001 118.5,450.5 Z"/></g>
<g><path style="opacity:0.011" fill="#000000" d="M 199.5,136.5 C 215.328,135.339 231.328,135.172 247.5,136C 231.503,136.5 215.503,136.667 199.5,136.5 Z"/></g>
<g><path style="opacity:0.008" fill="#000000" d="M 251.5,138.5 C 252.833,139.167 252.833,139.167 251.5,138.5 Z"/></g>
<g><path style="opacity:0.004" fill="#000000" d="M 192.5,139.5 C 193.833,140.167 193.833,140.167 192.5,139.5 Z"/></g>
<g><path style="opacity:0.004" fill="#000000" d="M 253.5,139.5 C 254.833,140.167 254.833,140.167 253.5,139.5 Z"/></g>
<g><path style="opacity:0.008" fill="#000000" d="M 192.5,142.5 C 191.833,141.167 191.833,141.167 192.5,142.5 Z"/></g>
<g><path style="opacity:0.008" fill="#000000" d="M 255.5,142.5 C 254.833,141.167 254.833,141.167 255.5,142.5 Z"/></g>
<g><path style="opacity:0.008" fill="#000000" d="M 191.5,142.5 C 190.833,143.167 190.833,143.167 191.5,142.5 Z"/></g>
<g><path style="opacity:0.008" fill="#000000" d="M 255.5,142.5 C 256.833,143.167 256.833,143.167 255.5,142.5 Z"/></g>
<g><path style="opacity:0.012" fill="#000000" d="M 190.5,146.5 C 189.475,146.103 189.308,145.437 190,144.5C 190.464,145.094 190.631,145.761 190.5,146.5 Z"/></g>
<g><path style="opacity:0.012" fill="#000000" d="M 256.5,146.5 C 256.369,145.761 256.536,145.094 257,144.5C 257.692,145.437 257.525,146.103 256.5,146.5 Z"/></g>
<g><path style="opacity:0.004" fill="#000000" d="M 353.5,156.5 C 354.833,157.167 354.833,157.167 353.5,156.5 Z"/></g>
<g><path style="opacity:0.012" fill="#000000" d="M 452.5,158.5 C 453.833,159.167 453.833,159.167 452.5,158.5 Z"/></g>
<g><path style="opacity:0.008" fill="#000000" d="M 454.5,159.5 C 455.833,160.167 455.833,160.167 454.5,159.5 Z"/></g>
<g><path style="opacity:0.007" fill="#000000" d="M 214.5,161.5 C 215.499,252.332 215.833,343.332 215.5,434.5C 288.5,434.5 361.5,434.5 434.5,434.5C 434.5,350.833 434.5,267.167 434.5,183.5C 407.498,183.667 380.498,183.5 353.5,183C 380.831,182.5 408.165,182.333 435.5,182.5C 435.5,266.833 435.5,351.167 435.5,435.5C 361.833,435.5 288.167,435.5 214.5,435.5C 214.5,344.167 214.5,252.833 214.5,161.5 Z"/></g>
<g><path style="opacity:0.012" fill="#000000" d="M 231.5,161.5 C 232.666,243.332 232.832,325.332 232,407.5C 231.5,325.501 231.333,243.501 231.5,161.5 Z"/></g>
<g><path style="opacity:0.004" fill="#000000" d="M 458.5,164.5 C 458.167,164.5 457.833,164.5 457.5,164.5C 457.833,161.833 458.167,161.833 458.5,164.5 Z"/></g>
<g><path style="opacity:0.012" fill="#000000" d="M 458.5,164.5 C 459.833,165.167 459.833,165.167 458.5,164.5 Z"/></g>
<g><path style="opacity:0.004" fill="#000000" d="M 459.5,451.5 C 459.333,356.499 459.5,261.499 460,166.5C 460.832,261.668 460.666,356.668 459.5,451.5 Z"/></g>
<g><path style="opacity:0.012" fill="#000000" d="M 352.5,300.5 C 353.525,300.897 353.692,301.563 353,302.5C 352.536,301.906 352.369,301.239 352.5,300.5 Z"/></g>
<g><path style="opacity:0.008" fill="#000000" d="M 351.5,303.5 C 352.833,304.167 352.833,304.167 351.5,303.5 Z"/></g>
<g><path style="opacity:0.008" fill="#000000" d="M 350.5,304.5 C 350.833,304.5 351.167,304.5 351.5,304.5C 351.315,305.17 350.981,305.17 350.5,304.5 Z"/></g>
<g><path style="opacity:0.004" fill="#000000" d="M 349.5,306.5 C 350.833,307.167 350.833,307.167 349.5,306.5 Z"/></g>
<g><path style="opacity:0.008" fill="#000000" d="M 347.5,307.5 C 348.833,308.167 348.833,308.167 347.5,307.5 Z"/></g>
<g><path style="opacity:0.012" fill="#000000" d="M 346.5,308.5 C 346.833,308.5 347.167,308.5 347.5,308.5C 347.315,309.17 346.981,309.17 346.5,308.5 Z"/></g>
<g><path style="opacity:0.008" fill="#000000" d="M 337.5,309.5 C 337.103,310.525 336.437,310.692 335.5,310C 336.094,309.536 336.761,309.369 337.5,309.5 Z"/></g>
<g><path style="opacity:0.008" fill="#000000" d="M 344.5,309.5 C 345.167,309.5 345.833,309.5 346.5,309.5C 345.833,310.833 345.167,310.833 344.5,309.5 Z"/></g>
<g><path style="opacity:0.009" fill="#000000" d="M 338.5,311.5 C 339.946,310.387 341.613,310.22 343.5,311C 341.866,311.494 340.199,311.66 338.5,311.5 Z"/></g>
<g><path style="opacity:0.01" fill="#000000" d="M 256.5,409.5 C 256.369,408.761 256.536,408.094 257,407.5C 257.692,408.437 257.525,409.103 256.5,409.5 Z"/></g>
<g><path style="opacity:0.008" fill="#000000" d="M 232.5,408.5 C 233.525,408.897 233.692,409.563 233,410.5C 232.536,409.906 232.369,409.239 232.5,408.5 Z"/></g>
<g><path style="opacity:0.006" fill="#000000" d="M 255.5,409.5 C 255.833,409.5 256.167,409.5 256.5,409.5C 256.672,410.492 256.338,411.158 255.5,411.5C 255.5,410.833 255.5,410.167 255.5,409.5 Z"/></g>
<g><path style="opacity:0.008" fill="#000000" d="M 235.5,411.5 C 234.833,412.167 234.833,412.167 235.5,411.5 Z"/></g>
<g><path style="opacity:0.012" fill="#000000" d="M 254.5,411.5 C 254.833,411.5 255.167,411.5 255.5,411.5C 255.315,412.17 254.981,412.17 254.5,411.5 Z"/></g>
<g><path style="opacity:0.012" fill="#000000" d="M 253.5,412.5 C 253.833,412.5 254.167,412.5 254.5,412.5C 254.315,413.17 253.981,413.17 253.5,412.5 Z"/></g>
<g><path style="opacity:0.004" fill="#000000" d="M 235.5,413.5 C 236.833,414.167 236.833,414.167 235.5,413.5 Z"/></g>
<g><path style="opacity:0.012" fill="#000000" d="M 252.5,413.5 C 252.833,413.5 253.167,413.5 253.5,413.5C 253.315,414.17 252.981,414.17 252.5,413.5 Z"/></g>
<g><path style="opacity:0.008" fill="#000000" d="M 238.5,414.5 C 238.5,414.833 238.5,415.167 238.5,415.5C 237.83,415.019 237.83,414.685 238.5,414.5 Z"/></g>
<g><path style="opacity:0.012" fill="#000000" d="M 251.5,414.5 C 251.833,414.5 252.167,414.5 252.5,414.5C 252.315,415.17 251.981,415.17 251.5,414.5 Z"/></g>
<g><path style="opacity:0.008" fill="#000000" d="M 238.5,415.5 C 239.833,416.167 239.833,416.167 238.5,415.5 Z"/></g>
<g><path style="opacity:0.006" fill="#000000" d="M 249.5,416.5 C 249.5,416.167 249.5,415.833 249.5,415.5C 250.167,415.5 250.833,415.5 251.5,415.5C 251.158,416.338 250.492,416.672 249.5,416.5 Z"/></g>
<g><path style="opacity:0.012" fill="#000000" d="M 242.5,416.5 C 242.103,417.525 241.437,417.692 240.5,417C 241.094,416.536 241.761,416.369 242.5,416.5 Z"/></g>
<g><path style="opacity:0.01" fill="#000000" d="M 249.5,416.5 C 249.103,417.525 248.437,417.692 247.5,417C 248.094,416.536 248.761,416.369 249.5,416.5 Z"/></g>
<g><path style="opacity:0.005" fill="#000000" d="M 92.5,433.5 C 93.0431,433.56 93.3764,433.893 93.5,434.5C 82.1813,435.666 70.848,435.832 59.5,435C 70.6743,434.83 81.6743,434.33 92.5,433.5 Z"/></g>
<g><path style="opacity:0.008" fill="#000000" d="M 117.5,450.5 C 117.833,450.5 118.167,450.5 118.5,450.5C 118.167,453.167 117.833,453.167 117.5,450.5 Z"/></g>
<g><path style="opacity:0.008" fill="#000000" d="M 458.5,451.5 C 458.833,451.5 459.167,451.5 459.5,451.5C 459.672,452.492 459.338,453.158 458.5,453.5C 458.5,452.833 458.5,452.167 458.5,451.5 Z"/></g>
<g><path style="opacity:0.012" fill="#000000" d="M 191.5,452.5 C 190.833,453.167 190.833,453.167 191.5,452.5 Z"/></g>
<g><path style="opacity:0.008" fill="#000000" d="M 116.5,453.5 C 117.833,454.167 117.833,454.167 116.5,453.5 Z"/></g>
<g><path style="opacity:0.012" fill="#000000" d="M 457.5,453.5 C 457.833,453.5 458.167,453.5 458.5,453.5C 458.315,454.17 457.981,454.17 457.5,453.5 Z"/></g>
<g><path style="opacity:0.004" fill="#000000" d="M 54.5,454.5 C 53.8333,455.167 53.8333,455.167 54.5,454.5 Z"/></g>
<g><path style="opacity:0.012" fill="#000000" d="M 115.5,454.5 C 115.833,454.5 116.167,454.5 116.5,454.5C 116.315,455.17 115.981,455.17 115.5,454.5 Z"/></g>
<g><path style="opacity:0.004" fill="#000000" d="M 191.5,454.5 C 192.833,455.167 192.833,455.167 191.5,454.5 Z"/></g>
<g><path style="opacity:0.012" fill="#000000" d="M 114.5,455.5 C 114.833,455.5 115.167,455.5 115.5,455.5C 115.315,456.17 114.981,456.17 114.5,455.5 Z"/></g>
<g><path style="opacity:0.012" fill="#000000" d="M 113.5,456.5 C 113.833,456.5 114.167,456.5 114.5,456.5C 114.315,457.17 113.981,457.17 113.5,456.5 Z"/></g>
<g><path style="opacity:0.012" fill="#000000" d="M 112.5,457.5 C 112.833,457.5 113.167,457.5 113.5,457.5C 113.315,458.17 112.981,458.17 112.5,457.5 Z"/></g>
<g><path style="opacity:0.004" fill="#000000" d="M 196.5,457.5 C 196.5,457.833 196.5,458.167 196.5,458.5C 193.833,458.167 193.833,457.833 196.5,457.5 Z"/></g>
<g><path style="opacity:0.012" fill="#000000" d="M 453.5,457.5 C 454.833,458.167 454.833,458.167 453.5,457.5 Z"/></g>
<g><path style="opacity:0.008" fill="#000000" d="M 59.5,458.5 C 59.5,458.833 59.5,459.167 59.5,459.5C 56.8333,459.167 56.8333,458.833 59.5,458.5 Z"/></g>
<g><path style="opacity:0.008" fill="#000000" d="M 110.5,458.5 C 111.167,458.5 111.833,458.5 112.5,458.5C 111.833,459.833 111.167,459.833 110.5,458.5 Z"/></g>
<g><path style="opacity:0.012" fill="#000000" d="M 196.5,458.5 C 197.833,459.167 197.833,459.167 196.5,458.5 Z"/></g>
<g><path style="opacity:0.008" fill="#000000" d="M 451.5,459.5 C 451.5,459.167 451.5,458.833 451.5,458.5C 452.167,458.5 452.833,458.5 453.5,458.5C 453.158,459.338 452.492,459.672 451.5,459.5 Z"/></g>
<g><path style="opacity:0.005" fill="#000000" d="M 59.5,459.5 C 76.17,459.333 92.8367,459.5 109.5,460C 92.6616,460.828 75.9949,460.662 59.5,459.5 Z"/></g>
<g><path style="opacity:0.004" fill="#000000" d="M 451.5,459.5 C 367.334,460.666 283.001,460.832 198.5,460C 282.833,459.5 367.166,459.333 451.5,459.5 Z"/></g>
</svg>
