<?xml version="1.0" encoding="UTF-8"?>
<!DOCTYPE svg PUBLIC "-//W3C//DTD SVG 1.1//EN" "http://www.w3.org/Graphics/SVG/1.1/DTD/svg11.dtd">
<svg xmlns="http://www.w3.org/2000/svg" version="1.1" width="2048px" height="2048px" style="shape-rendering:geometricPrecision; text-rendering:geometricPrecision; image-rendering:optimizeQuality; fill-rule:evenodd; clip-rule:evenodd" xmlns:xlink="http://www.w3.org/1999/xlink">
<g><path style="opacity:0.989" fill="#000000" d="M 996.5,212.5 C 1180.45,207.565 1350.78,252.732 1507.5,348C 1588.42,399.245 1657.59,463.411 1715,540.5C 1826.78,697.794 1859.78,870.461 1814,1058.5C 1784.57,1160.41 1734.23,1250.08 1663,1327.5C 1562,1433.37 1441.16,1507.87 1300.5,1551C 1214.11,1577.15 1125.78,1590.82 1035.5,1592C 896.338,1670.75 757.338,1749.75 618.5,1829C 589.775,1843.73 568.941,1836.23 556,1806.5C 547.63,1787.68 551.464,1771.84 567.5,1759C 710.167,1677.67 852.833,1596.33 995.5,1515C 1001.26,1511.78 1007.26,1509.12 1013.5,1507C 1138.23,1507.33 1257.56,1482.33 1371.5,1432C 1462.13,1390.7 1540.97,1333.2 1608,1259.5C 1667.64,1191.92 1709.3,1114.25 1733,1026.5C 1766.38,882.463 1744.05,747.796 1666,622.5C 1625.32,559.48 1575.16,504.98 1515.5,459C 1384.04,361.501 1236.04,308.501 1071.5,300C 901.048,290.615 742.381,328.948 595.5,415C 519.436,461.656 454.603,520.823 401,592.5C 352.686,659.492 321.019,733.825 306,815.5C 284.882,952.677 312.549,1079.01 389,1194.5C 450.188,1283.37 528.022,1353.53 622.5,1405C 641.899,1417.88 646.733,1435.05 637,1456.5C 622.667,1486.39 601.167,1492.89 572.5,1476C 467.873,1416.71 381.707,1337.21 314,1237.5C 214.383,1081.79 188.383,914.455 236,735.5C 271.187,621.398 332.021,523.564 418.5,442C 534.305,335.255 669.972,265.589 825.5,233C 882.069,221.29 939.069,214.457 996.5,212.5 Z"/></g>
</svg>
