<?xml version="1.0" encoding="UTF-8"?>
<!DOCTYPE svg PUBLIC "-//W3C//DTD SVG 1.1//EN" "http://www.w3.org/Graphics/SVG/1.1/DTD/svg11.dtd">
<svg xmlns="http://www.w3.org/2000/svg" version="1.1" width="2048px" height="2048px" style="shape-rendering:geometricPrecision; text-rendering:geometricPrecision; image-rendering:optimizeQuality; fill-rule:evenodd; clip-rule:evenodd" xmlns:xlink="http://www.w3.org/1999/xlink">
<g><path style="opacity:1" fill="#474ddb" d="M 1016.5,298.5 C 1063.35,297.519 1102.52,314.185 1134,348.5C 1138.72,354.221 1143.05,360.221 1147,366.5C 1370,756.5 1593,1146.5 1816,1536.5C 1840.91,1584.01 1840.58,1631.34 1815,1678.5C 1779.33,1733.41 1728.83,1756.58 1663.5,1748C 1654.95,1746.45 1646.62,1744.11 1638.5,1741C 1527.38,1686.94 1416.38,1632.61 1305.5,1578C 1283.95,1564.63 1278.78,1546.46 1290,1523.5C 1294.72,1512.78 1302.22,1504.61 1312.5,1499C 1320.06,1496.16 1327.72,1495.83 1335.5,1498C 1345.73,1501.78 1355.73,1506.12 1365.5,1511C 1468.13,1562.15 1571.13,1612.48 1674.5,1662C 1706.1,1667.45 1729.27,1655.95 1744,1627.5C 1750.74,1610.21 1749.4,1593.55 1740,1577.5C 1519.33,1191.5 1298.67,805.5 1078,419.5C 1062.38,391.776 1038.88,380.942 1007.5,387C 989.795,392.097 976.962,402.93 969,419.5C 748.333,805.5 527.667,1191.5 307,1577.5C 291.793,1609.84 298.96,1636.01 328.5,1656C 346.511,1666.09 364.844,1666.76 383.5,1658C 482.833,1609 582.167,1560 681.5,1511C 691.267,1506.12 701.267,1501.78 711.5,1498C 727.269,1494.15 740.103,1498.65 750,1511.5C 759.552,1524.15 763.386,1538.32 761.5,1554C 757.781,1564.39 751.114,1572.39 741.5,1578C 634.377,1630.39 527.377,1683.06 420.5,1736C 371.603,1757.31 324.27,1754.31 278.5,1727C 218.873,1683.45 200.04,1626.28 222,1555.5C 224.727,1549.05 227.727,1542.71 231,1536.5C 454,1146.5 677,756.5 900,366.5C 927.711,324.891 966.544,302.224 1016.5,298.5 Z"/></g>
</svg>
