<?xml version="1.0" encoding="UTF-8"?>
<!DOCTYPE svg PUBLIC "-//W3C//DTD SVG 1.1//EN" "http://www.w3.org/Graphics/SVG/1.1/DTD/svg11.dtd">
<svg xmlns="http://www.w3.org/2000/svg" version="1.1" width="2048px" height="2048px" style="shape-rendering:geometricPrecision; text-rendering:geometricPrecision; image-rendering:optimizeQuality; fill-rule:evenodd; clip-rule:evenodd" xmlns:xlink="http://www.w3.org/1999/xlink">
<g><path style="opacity:0.988" fill="#000000" d="M 1016.5,297.5 C 1063.35,296.519 1102.52,313.185 1134,347.5C 1138.72,353.221 1143.05,359.221 1147,365.5C 1370,755.5 1593,1145.5 1816,1535.5C 1840.91,1583.01 1840.58,1630.34 1815,1677.5C 1779.33,1732.41 1728.83,1755.58 1663.5,1747C 1654.95,1745.45 1646.62,1743.11 1638.5,1740C 1527.38,1685.94 1416.38,1631.61 1305.5,1577C 1283.95,1563.63 1278.78,1545.46 1290,1522.5C 1294.72,1511.78 1302.22,1503.61 1312.5,1498C 1320.06,1495.16 1327.72,1494.83 1335.5,1497C 1345.73,1500.78 1355.73,1505.12 1365.5,1510C 1468.13,1561.15 1571.13,1611.48 1674.5,1661C 1706.1,1666.45 1729.27,1654.95 1744,1626.5C 1750.74,1609.21 1749.4,1592.55 1740,1576.5C 1519.33,1190.5 1298.67,804.5 1078,418.5C 1062.38,390.776 1038.88,379.942 1007.5,386C 989.795,391.097 976.962,401.93 969,418.5C 748.333,804.5 527.667,1190.5 307,1576.5C 291.793,1608.84 298.96,1635.01 328.5,1655C 346.511,1665.09 364.844,1665.76 383.5,1657C 482.833,1608 582.167,1559 681.5,1510C 691.267,1505.12 701.267,1500.78 711.5,1497C 727.269,1493.15 740.103,1497.65 750,1510.5C 759.552,1523.15 763.386,1537.32 761.5,1553C 757.781,1563.39 751.114,1571.39 741.5,1577C 634.377,1629.39 527.377,1682.06 420.5,1735C 371.603,1756.31 324.27,1753.31 278.5,1726C 218.873,1682.45 200.04,1625.28 222,1554.5C 224.727,1548.05 227.727,1541.71 231,1535.5C 454,1145.5 677,755.5 900,365.5C 927.711,323.891 966.544,301.224 1016.5,297.5 Z"/></g>
</svg>
