<?xml version="1.0" encoding="UTF-8"?>
<!DOCTYPE svg PUBLIC "-//W3C//DTD SVG 1.1//EN" "http://www.w3.org/Graphics/SVG/1.1/DTD/svg11.dtd">
<svg xmlns="http://www.w3.org/2000/svg" version="1.1" width="512px" height="512px" style="shape-rendering:geometricPrecision; text-rendering:geometricPrecision; image-rendering:optimizeQuality; fill-rule:evenodd; clip-rule:evenodd" xmlns:xlink="http://www.w3.org/1999/xlink">
<g><path style="opacity:0.009" fill="#000000" d="M 334.5,69.5 C 335.946,68.3871 337.613,68.2204 339.5,69C 337.866,69.4935 336.199,69.6602 334.5,69.5 Z"/></g>
<g><path style="opacity:0.011" fill="#000000" d="M 352.5,69.5 C 353.601,68.4017 354.934,68.235 356.5,69C 355.207,69.49 353.873,69.6567 352.5,69.5 Z"/></g>
<g><path style="opacity:0.01" fill="#000000" d="M 329.5,70.5 C 330.251,69.4265 331.251,69.2599 332.5,70C 331.552,70.4828 330.552,70.6495 329.5,70.5 Z"/></g>
<g><path style="opacity:0.009" fill="#000000" d="M 357.5,70.5 C 358.251,69.4265 359.251,69.2599 360.5,70C 359.552,70.4828 358.552,70.6495 357.5,70.5 Z"/></g>
<g><path style="opacity:0.01" fill="#000000" d="M 326.5,71.5 C 326.897,70.475 327.563,70.3083 328.5,71C 327.906,71.4643 327.239,71.631 326.5,71.5 Z"/></g>
<g><path style="opacity:1" fill="#313596" d="M 357.5,70.5 C 358.568,71.4345 359.901,71.7678 361.5,71.5C 362.167,72.1667 362.833,72.8333 363.5,73.5C 352.246,71.2312 340.913,70.8979 329.5,72.5C 338.538,69.4989 347.871,68.8322 357.5,70.5 Z"/></g>
<g><path style="opacity:0.01" fill="#000000" d="M 361.5,71.5 C 361.897,70.475 362.563,70.3083 363.5,71C 362.906,71.4643 362.239,71.631 361.5,71.5 Z"/></g>
<g><path style="opacity:0.01" fill="#000000" d="M 325.5,72.5 C 324.761,72.631 324.094,72.4643 323.5,72C 324.437,71.3083 325.103,71.475 325.5,72.5 Z"/></g>
<g><path style="opacity:1" fill="#464cd7" d="M 363.5,73.5 C 365.921,73.8782 368.254,74.5448 370.5,75.5C 371.833,76.8333 373.167,78.1667 374.5,79.5C 376.833,82.5 379.5,85.1667 382.5,87.5C 384.194,88.5274 385.527,89.8608 386.5,91.5C 387.326,94.4848 388.659,97.1515 390.5,99.5C 390.263,100.791 390.596,101.791 391.5,102.5C 391.963,105.482 392.296,108.482 392.5,111.5C 393.011,119.008 392.345,126.341 390.5,133.5C 390.167,134.167 389.833,134.833 389.5,135.5C 388.833,135.5 388.5,135.833 388.5,136.5C 387.508,136.328 386.842,136.662 386.5,137.5C 383.615,137.806 380.948,137.473 378.5,136.5C 376.5,134.329 374.666,131.996 373,129.5C 372.667,125.167 372.333,120.833 372,116.5C 371.796,113.203 370.963,110.203 369.5,107.5C 368.833,106.833 368.167,106.167 367.5,105.5C 365.895,100.896 362.895,97.5622 358.5,95.5C 357.791,94.596 356.791,94.2627 355.5,94.5C 354.432,93.5655 353.099,93.2322 351.5,93.5C 347.5,92.1667 343.5,92.1667 339.5,93.5C 339.167,93.5 338.833,93.5 338.5,93.5C 337.054,92.3871 335.387,92.2204 333.5,93C 329.285,94.2341 325.285,95.7341 321.5,97.5C 319.786,98.7384 317.786,99.405 315.5,99.5C 309.409,100.751 303.409,102.418 297.5,104.5C 294.48,103.501 292.147,104.501 290.5,107.5C 283.833,108.724 277.499,110.724 271.5,113.5C 270.791,114.404 269.791,114.737 268.5,114.5C 260.832,116.057 253.499,118.391 246.5,121.5C 245.791,122.404 244.791,122.737 243.5,122.5C 236.408,124.085 229.408,126.085 222.5,128.5C 219.48,127.501 217.147,128.501 215.5,131.5C 208.833,132.724 202.499,134.724 196.5,137.5C 194.786,138.738 192.786,139.405 190.5,139.5C 183.833,140.724 177.499,142.724 171.5,145.5C 169.786,146.738 167.786,147.405 165.5,147.5C 158.833,148.724 152.499,150.724 146.5,153.5C 144.786,154.738 142.786,155.405 140.5,155.5C 133.833,156.724 127.499,158.724 121.5,161.5C 119.786,162.738 117.786,163.405 115.5,163.5C 108.833,164.724 102.499,166.724 96.5,169.5C 94.7392,170.313 93.0725,171.313 91.5,172.5C 90.5084,172.328 89.8417,172.662 89.5,173.5C 87.9731,173.427 86.9731,174.094 86.5,175.5C 85.8333,175.5 85.5,175.833 85.5,176.5C 84.8333,176.5 84.5,176.833 84.5,177.5C 83.1667,177.5 82.5,178.167 82.5,179.5C 81.8333,179.5 81.5,179.833 81.5,180.5C 80.8333,180.5 80.5,180.833 80.5,181.5C 79.0937,181.973 78.427,182.973 78.5,184.5C 77.6618,184.842 77.3284,185.508 77.5,186.5C 76.6618,186.842 76.3284,187.508 76.5,188.5C 76.1667,188.5 75.8333,188.5 75.5,188.5C 73.9891,190.476 73.1558,192.809 73,195.5C 72.3333,266.167 72.3333,336.833 73,407.5C 73.21,409.058 73.71,410.391 74.5,411.5C 75.8257,416.16 78.1591,420.16 81.5,423.5C 81.8333,425.833 83.1667,427.167 85.5,427.5C 88.4,430.786 92.0666,432.786 96.5,433.5C 96.5,433.833 96.5,434.167 96.5,434.5C 97.9516,435.302 99.6183,435.802 101.5,436C 203.5,436.667 305.5,436.667 407.5,436C 410.522,435.902 413.189,435.068 415.5,433.5C 418.524,431.987 421.191,429.987 423.5,427.5C 425.833,427.167 427.167,425.833 427.5,423.5C 432.135,418.886 434.635,413.219 435,406.5C 435.667,383.833 435.667,361.167 435,338.5C 433.955,339.373 433.122,340.373 432.5,341.5C 431.833,341.5 431.5,341.833 431.5,342.5C 430.833,342.5 430.5,342.833 430.5,343.5C 429.508,343.328 428.842,343.662 428.5,344.5C 427.833,344.5 427.5,344.833 427.5,345.5C 426.508,345.328 425.842,345.662 425.5,346.5C 424.508,346.328 423.842,346.662 423.5,347.5C 422.833,347.5 422.167,347.5 421.5,347.5C 418.157,348.224 414.824,349.057 411.5,350C 389.167,350.667 366.833,350.667 344.5,350C 341.937,348.921 339.271,348.421 336.5,348.5C 335.5,348.5 334.5,348.5 333.5,348.5C 332.486,347.326 331.153,346.66 329.5,346.5C 324.206,342.873 319.539,338.54 315.5,333.5C 314.974,331.77 313.974,330.436 312.5,329.5C 311.545,327.254 310.878,324.921 310.5,322.5C 308.262,313.585 307.928,304.585 309.5,295.5C 309.5,294.5 309.5,293.5 309.5,292.5C 311.889,288.068 314.555,283.735 317.5,279.5C 319.167,278.5 320.5,277.167 321.5,275.5C 326.686,270.907 332.686,267.907 339.5,266.5C 362.814,265.385 386.147,265.218 409.5,266C 415.418,267.14 421.085,268.973 426.5,271.5C 427.167,271.5 427.833,271.5 428.5,271.5C 429.436,272.974 430.77,273.974 432.5,274.5C 432.5,275.167 432.833,275.5 433.5,275.5C 433.783,276.289 434.283,276.956 435,277.5C 435.5,254.502 435.667,231.502 435.5,208.5C 435.577,201.677 433.244,196.01 428.5,191.5C 422.037,184.604 414.037,180.937 404.5,180.5C 339.668,179.667 274.668,179.167 209.5,179C 199.756,173.445 199.09,166.945 207.5,159.5C 208.167,158.833 208.833,158.167 209.5,157.5C 275.834,157.333 342.168,157.5 408.5,158C 415.757,158.698 422.424,160.864 428.5,164.5C 430.975,167.241 433.975,169.241 437.5,170.5C 442.395,173.64 446.395,177.64 449.5,182.5C 450.584,185.004 451.917,187.337 453.5,189.5C 453.402,191.553 454.069,193.22 455.5,194.5C 455.263,195.791 455.596,196.791 456.5,197.5C 456.5,197.833 456.5,198.167 456.5,198.5C 456.622,228.635 456.456,258.968 456,289.5C 455.219,295.74 454.052,301.906 452.5,308C 452.528,309.07 452.861,309.903 453.5,310.5C 453.833,310.5 454.167,310.5 454.5,310.5C 454.963,313.482 455.296,316.482 455.5,319.5C 456.595,350.488 456.762,381.488 456,412.5C 455.178,415.117 454.678,417.784 454.5,420.5C 454.5,421.5 454.5,422.5 454.5,423.5C 453.069,424.78 452.402,426.447 452.5,428.5C 451.094,428.973 450.427,429.973 450.5,431.5C 449.662,431.842 449.328,432.508 449.5,433.5C 448.833,433.5 448.5,433.833 448.5,434.5C 447.662,434.842 447.328,435.508 447.5,436.5C 446.833,436.5 446.5,436.833 446.5,437.5C 445.833,437.5 445.5,437.833 445.5,438.5C 444.833,438.5 444.5,438.833 444.5,439.5C 442.5,440.833 440.833,442.5 439.5,444.5C 438.833,444.5 438.5,444.833 438.5,445.5C 437.833,445.5 437.5,445.833 437.5,446.5C 436.833,446.5 436.5,446.833 436.5,447.5C 435.508,447.328 434.842,447.662 434.5,448.5C 433.833,448.5 433.5,448.833 433.5,449.5C 432.508,449.328 431.842,449.662 431.5,450.5C 429.973,450.427 428.973,451.094 428.5,452.5C 426.447,452.402 424.78,453.069 423.5,454.5C 422.5,454.5 421.5,454.5 420.5,454.5C 417.784,454.678 415.117,455.178 412.5,456C 307.167,456.667 201.833,456.667 96.5,456C 93.9373,454.921 91.2706,454.421 88.5,454.5C 87.5,454.5 86.5,454.5 85.5,454.5C 84.2196,453.069 82.5529,452.402 80.5,452.5C 80.0269,451.094 79.0269,450.427 77.5,450.5C 69.1237,444.458 62.1237,437.124 56.5,428.5C 56.5979,426.447 55.9313,424.78 54.5,423.5C 54.1667,421.5 53.8333,419.5 53.5,417.5C 52.3485,342.184 52.1819,266.851 53,191.5C 54.0793,188.937 54.5793,186.271 54.5,183.5C 54.5,182.5 54.5,181.5 54.5,180.5C 56.6705,176.156 59.3372,172.156 62.5,168.5C 66.5,165.167 70.1667,161.5 73.5,157.5C 73.8333,156.833 74.1667,156.167 74.5,155.5C 78.9149,152.96 83.5816,150.96 88.5,149.5C 94.1771,148.606 99.5105,146.939 104.5,144.5C 112.266,143.27 119.6,140.937 126.5,137.5C 132.5,135.167 138.5,132.833 144.5,130.5C 145.791,130.737 146.791,130.404 147.5,129.5C 148.833,129.5 150.167,129.5 151.5,129.5C 161.278,127.597 170.611,124.597 179.5,120.5C 181.199,120.66 182.866,120.494 184.5,120C 191.315,117.566 197.982,115.066 204.5,112.5C 212.266,111.27 219.6,108.937 226.5,105.5C 227.209,104.596 228.209,104.263 229.5,104.5C 238.164,102.657 246.498,99.9903 254.5,96.5C 256.199,96.6602 257.866,96.4935 259.5,96C 266.315,93.5661 272.982,91.0661 279.5,88.5C 281.199,88.6602 282.866,88.4935 284.5,88C 291.315,85.5661 297.982,83.0661 304.5,80.5C 306.199,80.6602 307.866,80.4935 309.5,80C 316.315,77.5661 322.982,75.0661 329.5,72.5C 340.913,70.8979 352.246,71.2312 363.5,73.5 Z M 84.5,177.5 C 84.1667,178.5 83.5,179.167 82.5,179.5C 82.5,178.167 83.1667,177.5 84.5,177.5 Z M 321.5,275.5 C 320.5,277.167 319.167,278.5 317.5,279.5C 317.833,277.167 319.167,275.833 321.5,275.5 Z M 409.5,288.5 C 407.473,288.338 405.473,288.505 403.5,289C 406.974,289.301 410.308,290.134 413.5,291.5C 414.107,291.376 414.44,291.043 414.5,290.5C 416.027,290.427 417.027,291.094 417.5,292.5C 416.984,293.758 417.65,294.758 419.5,295.5C 419.5,296.167 419.833,296.5 420.5,296.5C 421.836,298.01 423.003,299.677 424,301.5C 424.69,302.738 425.19,302.738 425.5,301.5C 426.906,301.973 427.573,302.973 427.5,304.5C 429.345,305.995 429.678,307.662 428.5,309.5C 428.631,308.761 428.464,308.094 428,307.5C 426.408,311.021 424.575,314.354 422.5,317.5C 421.833,317.5 421.5,317.833 421.5,318.5C 420.833,318.5 420.5,318.833 420.5,319.5C 419.5,319.833 418.833,320.5 418.5,321.5C 417.833,321.5 417.5,321.833 417.5,322.5C 416.527,322.987 415.527,323.487 414.5,324C 413.262,324.69 413.262,325.19 414.5,325.5C 414.158,326.338 413.492,326.672 412.5,326.5C 412.44,325.957 412.107,325.624 411.5,325.5C 410.205,326.098 408.872,326.598 407.5,327C 408.448,327.483 409.448,327.649 410.5,327.5C 407.456,329.011 404.122,329.678 400.5,329.5C 383.83,329.667 367.163,329.5 350.5,329C 348.292,328.809 346.292,328.309 344.5,327.5C 345.873,327.657 347.207,327.49 348.5,327C 346.782,326.654 345.115,326.154 343.5,325.5C 342.893,325.624 342.56,325.957 342.5,326.5C 341.508,326.672 340.842,326.338 340.5,325.5C 340.938,325.565 341.272,325.399 341.5,325C 338.333,323.167 335.833,320.667 334,317.5C 333.601,317.728 333.435,318.062 333.5,318.5C 332.833,318.167 332.167,317.833 331.5,317.5C 331.5,316.5 331.5,315.5 331.5,314.5C 329.214,310.103 328.88,305.436 330.5,300.5C 330.833,300.5 331.167,300.5 331.5,300.5C 331.351,301.552 331.517,302.552 332,303.5C 332.906,300.69 334.073,298.024 335.5,295.5C 336.167,295.5 336.5,295.167 336.5,294.5C 337.167,294.5 337.5,294.167 337.5,293.5C 338.167,293.5 338.5,293.167 338.5,292.5C 340.14,291.68 341.807,290.847 343.5,290C 342.906,289.536 342.239,289.369 341.5,289.5C 342.209,288.596 343.209,288.263 344.5,288.5C 366.167,287.167 387.833,287.167 409.5,288.5 Z M 338.5,291.5 C 338.5,291.833 338.5,292.167 338.5,292.5C 337.833,292.5 337.5,292.833 337.5,293.5C 336.833,293.5 336.5,293.833 336.5,294.5C 335.833,294.5 335.5,294.833 335.5,295.5C 335.167,295.5 334.833,295.5 334.5,295.5C 334.833,293.167 336.167,291.833 338.5,291.5 Z M 419.5,295.5 C 419.5,295.167 419.5,294.833 419.5,294.5C 420.833,294.5 421.5,295.167 421.5,296.5C 421.167,296.5 420.833,296.5 420.5,296.5C 419.833,296.5 419.5,296.167 419.5,295.5 Z M 422.5,317.5 C 422.833,317.5 423.167,317.5 423.5,317.5C 423.262,319.404 422.262,320.738 420.5,321.5C 420.5,320.833 420.5,320.167 420.5,319.5C 421.167,319.5 421.5,319.167 421.5,318.5C 422.167,318.5 422.5,318.167 422.5,317.5 Z M 418.5,321.5 C 419.167,321.5 419.833,321.5 420.5,321.5C 420.027,322.906 419.027,323.573 417.5,323.5C 417.5,323.167 417.5,322.833 417.5,322.5C 418.167,322.5 418.5,322.167 418.5,321.5 Z M 81.5,423.5 C 83.1667,424.5 84.5,425.833 85.5,427.5C 83.1667,427.167 81.8333,425.833 81.5,423.5 Z M 427.5,423.5 C 427.167,425.833 425.833,427.167 423.5,427.5C 424.5,425.833 425.833,424.5 427.5,423.5 Z"/></g>
<g><path style="opacity:0.008" fill="#000000" d="M 364.5,72.5 C 364.897,71.475 365.563,71.3083 366.5,72C 365.906,72.4643 365.239,72.631 364.5,72.5 Z"/></g>
<g><path style="opacity:0.01" fill="#000000" d="M 322.5,73.5 C 321.761,73.631 321.094,73.4643 320.5,73C 321.437,72.3083 322.103,72.475 322.5,73.5 Z"/></g>
<g><path style="opacity:0.01" fill="#000000" d="M 319.5,74.5 C 318.761,74.631 318.094,74.4643 317.5,74C 318.437,73.3083 319.103,73.475 319.5,74.5 Z"/></g>
<g><path style="opacity:0.012" fill="#000000" d="M 370.5,74.5 C 371.833,75.1667 371.833,75.1667 370.5,74.5 Z"/></g>
<g><path style="opacity:0.008" fill="#000000" d="M 372.5,75.5 C 373.833,76.1667 373.833,76.1667 372.5,75.5 Z"/></g>
<g><path style="opacity:0.008" fill="#000000" d="M 304.5,78.5 C 304.897,77.475 305.563,77.3083 306.5,78C 305.906,78.4643 305.239,78.631 304.5,78.5 Z"/></g>
<g><path style="opacity:0.01" fill="#000000" d="M 301.5,79.5 C 301.897,78.475 302.563,78.3083 303.5,79C 302.906,79.4643 302.239,79.631 301.5,79.5 Z"/></g>
<g><path style="opacity:1" fill="#373ca9" d="M 325.5,72.5 C 326.833,72.5 328.167,72.5 329.5,72.5C 322.982,75.0661 316.315,77.5661 309.5,80C 307.866,80.4935 306.199,80.6602 304.5,80.5C 309.5,78.5 314.5,76.5 319.5,74.5C 320.791,74.7373 321.791,74.404 322.5,73.5C 323.791,73.7373 324.791,73.404 325.5,72.5 Z"/></g>
<g><path style="opacity:0.01" fill="#000000" d="M 300.5,80.5 C 299.761,80.631 299.094,80.4643 298.5,80C 299.437,79.3083 300.103,79.475 300.5,80.5 Z"/></g>
<g><path style="opacity:0.01" fill="#000000" d="M 297.5,81.5 C 296.761,81.631 296.094,81.4643 295.5,81C 296.437,80.3083 297.103,80.475 297.5,81.5 Z"/></g>
<g><path style="opacity:0.676" fill="#3439a0" d="M 374.5,79.5 C 378.167,81.1667 380.833,83.8333 382.5,87.5C 379.5,85.1667 376.833,82.5 374.5,79.5 Z"/></g>
<g><path style="opacity:0.01" fill="#000000" d="M 294.5,82.5 C 293.761,82.631 293.094,82.4643 292.5,82C 293.437,81.3083 294.103,81.475 294.5,82.5 Z"/></g>
<g><path style="opacity:0.008" fill="#000000" d="M 279.5,86.5 C 279.897,85.475 280.563,85.3083 281.5,86C 280.906,86.4643 280.239,86.631 279.5,86.5 Z"/></g>
<g><path style="opacity:0.01" fill="#000000" d="M 276.5,87.5 C 276.897,86.475 277.563,86.3083 278.5,87C 277.906,87.4643 277.239,87.631 276.5,87.5 Z"/></g>
<g><path style="opacity:1" fill="#363ba7" d="M 300.5,80.5 C 301.833,80.5 303.167,80.5 304.5,80.5C 297.982,83.0661 291.315,85.5661 284.5,88C 282.866,88.4935 281.199,88.6602 279.5,88.5C 284.5,86.5 289.5,84.5 294.5,82.5C 295.791,82.7373 296.791,82.404 297.5,81.5C 298.791,81.7373 299.791,81.404 300.5,80.5 Z"/></g>
<g><path style="opacity:0.01" fill="#000000" d="M 275.5,88.5 C 274.761,88.631 274.094,88.4643 273.5,88C 274.437,87.3083 275.103,87.475 275.5,88.5 Z"/></g>
<g><path style="opacity:0.01" fill="#000000" d="M 272.5,89.5 C 271.761,89.631 271.094,89.4643 270.5,89C 271.437,88.3083 272.103,88.475 272.5,89.5 Z"/></g>
<g><path style="opacity:0.01" fill="#000000" d="M 269.5,90.5 C 268.761,90.631 268.094,90.4643 267.5,90C 268.437,89.3083 269.103,89.475 269.5,90.5 Z"/></g>
<g><path style="opacity:0.008" fill="#000000" d="M 387.5,91.5 C 387.167,91.5 386.833,91.5 386.5,91.5C 386.833,88.8333 387.167,88.8333 387.5,91.5 Z"/></g>
<g><path style="opacity:0.008" fill="#000000" d="M 387.5,91.5 C 388.833,92.1667 388.833,92.1667 387.5,91.5 Z"/></g>
<g><path style="opacity:0.01" fill="#000000" d="M 254.5,94.5 C 254.897,93.475 255.563,93.3083 256.5,94C 255.906,94.4643 255.239,94.631 254.5,94.5 Z"/></g>
<g><path style="opacity:0.011" fill="#000000" d="M 339.5,93.5 C 343.5,93.5 347.5,93.5 351.5,93.5C 347.5,94.8333 343.5,94.8333 339.5,93.5 Z"/></g>
<g><path style="opacity:0.012" fill="#000000" d="M 388.5,93.5 C 389.833,94.1667 389.833,94.1667 388.5,93.5 Z"/></g>
<g><path style="opacity:0.01" fill="#000000" d="M 251.5,95.5 C 251.897,94.475 252.563,94.3083 253.5,95C 252.906,95.4643 252.239,95.631 251.5,95.5 Z"/></g>
<g><path style="opacity:1" fill="#363ca9" d="M 275.5,88.5 C 276.833,88.5 278.167,88.5 279.5,88.5C 272.982,91.0661 266.315,93.5661 259.5,96C 257.866,96.4935 256.199,96.6602 254.5,96.5C 259.5,94.5 264.5,92.5 269.5,90.5C 270.791,90.7373 271.791,90.404 272.5,89.5C 273.791,89.7373 274.791,89.404 275.5,88.5 Z"/></g>
<g><path style="opacity:0.008" fill="#000000" d="M 334.5,95.5 C 334.5,95.1667 334.5,94.8333 334.5,94.5C 339.833,94.8333 339.833,95.1667 334.5,95.5 Z"/></g>
<g><path style="opacity:0.009" fill="#000000" d="M 355.5,94.5 C 354.749,95.5735 353.749,95.7401 352.5,95C 353.448,94.5172 354.448,94.3505 355.5,94.5 Z"/></g>
<g><path style="opacity:0.01" fill="#000000" d="M 250.5,96.5 C 249.761,96.631 249.094,96.4643 248.5,96C 249.437,95.3083 250.103,95.475 250.5,96.5 Z"/></g>
<g><path style="opacity:0.125" fill="#33389f" d="M 338.5,93.5 C 336.901,93.2322 335.568,93.5655 334.5,94.5C 333.209,94.2627 332.209,94.596 331.5,95.5C 330.209,95.2627 329.209,95.596 328.5,96.5C 327.209,96.2627 326.209,96.596 325.5,97.5C 324.167,97.5 322.833,97.5 321.5,97.5C 325.285,95.7341 329.285,94.2341 333.5,93C 335.387,92.2204 337.054,92.3871 338.5,93.5 Z"/></g>
<g><path style="opacity:0.008" fill="#000000" d="M 331.5,95.5 C 332.5,95.5 333.5,95.5 334.5,95.5C 333.5,96.8333 332.5,96.8333 331.5,95.5 Z"/></g>
<g><path style="opacity:0.008" fill="#000000" d="M 358.5,95.5 C 358.5,95.8333 358.5,96.1667 358.5,96.5C 355.833,96.1667 355.833,95.8333 358.5,95.5 Z"/></g>
<g><path style="opacity:0.012" fill="#000000" d="M 247.5,97.5 C 246.761,97.631 246.094,97.4643 245.5,97C 246.437,96.3083 247.103,96.475 247.5,97.5 Z"/></g>
<g><path style="opacity:0.012" fill="#000000" d="M 328.5,96.5 C 329.239,96.369 329.906,96.5357 330.5,97C 329.563,97.6917 328.897,97.525 328.5,96.5 Z"/></g>
<g><path style="opacity:0.012" fill="#000000" d="M 358.5,96.5 C 359.833,97.1667 359.833,97.1667 358.5,96.5 Z"/></g>
<g><path style="opacity:0.012" fill="#000000" d="M 244.5,98.5 C 243.761,98.631 243.094,98.4643 242.5,98C 243.437,97.3083 244.103,97.475 244.5,98.5 Z"/></g>
<g><path style="opacity:0.01" fill="#000000" d="M 325.5,97.5 C 326.239,97.369 326.906,97.5357 327.5,98C 326.563,98.6917 325.897,98.525 325.5,97.5 Z"/></g>
<g><path style="opacity:0.01" fill="#000000" d="M 390.5,99.5 C 390.369,98.7611 390.536,98.0944 391,97.5C 391.692,98.4368 391.525,99.1034 390.5,99.5 Z"/></g>
<g><path style="opacity:0.01" fill="#000000" d="M 322.5,99.5 C 322.897,98.475 323.563,98.3083 324.5,99C 323.906,99.4643 323.239,99.631 322.5,99.5 Z"/></g>
<g><path style="opacity:0.01" fill="#000000" d="M 319.5,100.5 C 319.897,99.475 320.563,99.3083 321.5,100C 320.906,100.464 320.239,100.631 319.5,100.5 Z"/></g>
<g><path style="opacity:0.01" fill="#000000" d="M 316.5,101.5 C 316.897,100.475 317.563,100.308 318.5,101C 317.906,101.464 317.239,101.631 316.5,101.5 Z"/></g>
<g><path style="opacity:0.01" fill="#000000" d="M 391.5,102.5 C 391.369,101.761 391.536,101.094 392,100.5C 392.692,101.437 392.525,102.103 391.5,102.5 Z"/></g>
<g><path style="opacity:0.008" fill="#000000" d="M 229.5,102.5 C 229.897,101.475 230.563,101.308 231.5,102C 230.906,102.464 230.239,102.631 229.5,102.5 Z"/></g>
<g><path style="opacity:0.007" fill="#000000" d="M 312.5,102.5 C 312.5,102.167 312.5,101.833 312.5,101.5C 316.5,101.833 316.5,102.167 312.5,102.5 Z"/></g>
<g><path style="opacity:0.01" fill="#000000" d="M 226.5,103.5 C 226.897,102.475 227.563,102.308 228.5,103C 227.906,103.464 227.239,103.631 226.5,103.5 Z"/></g>
<g><path style="opacity:1" fill="#363ca8" d="M 250.5,96.5 C 251.833,96.5 253.167,96.5 254.5,96.5C 246.498,99.9903 238.164,102.657 229.5,104.5C 234.5,102.5 239.5,100.5 244.5,98.5C 245.791,98.7373 246.791,98.404 247.5,97.5C 248.791,97.7373 249.791,97.404 250.5,96.5 Z"/></g>
<g><path style="opacity:0.008" fill="#000000" d="M 309.5,103.5 C 309.5,103.167 309.5,102.833 309.5,102.5C 310.5,102.5 311.5,102.5 312.5,102.5C 311.791,103.404 310.791,103.737 309.5,103.5 Z"/></g>
<g><path style="opacity:0.01" fill="#000000" d="M 223.5,104.5 C 223.897,103.475 224.563,103.308 225.5,104C 224.906,104.464 224.239,104.631 223.5,104.5 Z"/></g>
<g><path style="opacity:0.008" fill="#000000" d="M 306.5,103.5 C 307.5,103.5 308.5,103.5 309.5,103.5C 308.5,104.833 307.5,104.833 306.5,103.5 Z"/></g>
<g><path style="opacity:0.012" fill="#000000" d="M 392.5,103.5 C 393.525,103.897 393.692,104.563 393,105.5C 392.536,104.906 392.369,104.239 392.5,103.5 Z"/></g>
<g><path style="opacity:0.012" fill="#000000" d="M 222.5,105.5 C 221.761,105.631 221.094,105.464 220.5,105C 221.437,104.308 222.103,104.475 222.5,105.5 Z"/></g>
<g><path style="opacity:0.102" fill="#353aa5" d="M 315.5,99.5 C 314.5,100.167 313.5,100.833 312.5,101.5C 311.209,101.263 310.209,101.596 309.5,102.5C 308.209,102.263 307.209,102.596 306.5,103.5C 305.209,103.263 304.209,103.596 303.5,104.5C 302.209,104.263 301.209,104.596 300.5,105.5C 297.123,105.959 293.789,106.626 290.5,107.5C 292.147,104.501 294.48,103.501 297.5,104.5C 303.409,102.418 309.409,100.751 315.5,99.5 Z"/></g>
<g><path style="opacity:0.012" fill="#000000" d="M 303.5,104.5 C 304.239,104.369 304.906,104.536 305.5,105C 304.563,105.692 303.897,105.525 303.5,104.5 Z"/></g>
<g><path style="opacity:0.012" fill="#000000" d="M 219.5,106.5 C 218.761,106.631 218.094,106.464 217.5,106C 218.437,105.308 219.103,105.475 219.5,106.5 Z"/></g>
<g><path style="opacity:0.01" fill="#000000" d="M 300.5,105.5 C 301.239,105.369 301.906,105.536 302.5,106C 301.563,106.692 300.897,106.525 300.5,105.5 Z"/></g>
<g><path style="opacity:0.01" fill="#000000" d="M 367.5,105.5 C 367.631,106.239 367.464,106.906 367,107.5C 366.308,106.563 366.475,105.897 367.5,105.5 Z"/></g>
<g><path style="opacity:0.01" fill="#000000" d="M 297.5,107.5 C 297.897,106.475 298.563,106.308 299.5,107C 298.906,107.464 298.239,107.631 297.5,107.5 Z"/></g>
<g><path style="opacity:0.009" fill="#000000" d="M 393.5,106.5 C 394.598,107.601 394.765,108.934 394,110.5C 393.51,109.207 393.343,107.873 393.5,106.5 Z"/></g>
<g><path style="opacity:0.012" fill="#000000" d="M 294.5,108.5 C 294.897,107.475 295.563,107.308 296.5,108C 295.906,108.464 295.239,108.631 294.5,108.5 Z"/></g>
<g><path style="opacity:0.01" fill="#000000" d="M 291.5,109.5 C 291.897,108.475 292.563,108.308 293.5,109C 292.906,109.464 292.239,109.631 291.5,109.5 Z"/></g>
<g><path style="opacity:0.01" fill="#000000" d="M 367.5,108.5 C 368.525,108.897 368.692,109.563 368,110.5C 367.536,109.906 367.369,109.239 367.5,108.5 Z"/></g>
<g><path style="opacity:0.008" fill="#000000" d="M 204.5,110.5 C 204.897,109.475 205.563,109.308 206.5,110C 205.906,110.464 205.239,110.631 204.5,110.5 Z"/></g>
<g><path style="opacity:0.007" fill="#000000" d="M 287.5,110.5 C 287.5,110.167 287.5,109.833 287.5,109.5C 291.5,109.833 291.5,110.167 287.5,110.5 Z"/></g>
<g><path style="opacity:0.01" fill="#000000" d="M 201.5,111.5 C 201.897,110.475 202.563,110.308 203.5,111C 202.906,111.464 202.239,111.631 201.5,111.5 Z"/></g>
<g><path style="opacity:1" fill="#363ca8" d="M 222.5,105.5 C 223.833,105.5 225.167,105.5 226.5,105.5C 219.6,108.937 212.266,111.27 204.5,112.5C 209.5,110.5 214.5,108.5 219.5,106.5C 220.791,106.737 221.791,106.404 222.5,105.5 Z"/></g>
<g><path style="opacity:0.008" fill="#000000" d="M 284.5,111.5 C 284.5,111.167 284.5,110.833 284.5,110.5C 285.5,110.5 286.5,110.5 287.5,110.5C 286.791,111.404 285.791,111.737 284.5,111.5 Z"/></g>
<g><path style="opacity:0.01" fill="#000000" d="M 200.5,112.5 C 199.761,112.631 199.094,112.464 198.5,112C 199.437,111.308 200.103,111.475 200.5,112.5 Z"/></g>
<g><path style="opacity:0.471" fill="#303596" d="M 290.5,107.5 C 289.5,108.167 288.5,108.833 287.5,109.5C 286.209,109.263 285.209,109.596 284.5,110.5C 283.209,110.263 282.209,110.596 281.5,111.5C 280.209,111.263 279.209,111.596 278.5,112.5C 277.209,112.263 276.209,112.596 275.5,113.5C 274.167,113.5 272.833,113.5 271.5,113.5C 277.499,110.724 283.833,108.724 290.5,107.5 Z"/></g>
<g><path style="opacity:0.008" fill="#000000" d="M 281.5,111.5 C 282.5,111.5 283.5,111.5 284.5,111.5C 283.5,112.833 282.5,112.833 281.5,111.5 Z"/></g>
<g><path style="opacity:0.009" fill="#000000" d="M 369.5,111.5 C 369.66,113.199 369.494,114.866 369,116.5C 368.22,114.613 368.387,112.946 369.5,111.5 Z"/></g>
<g><path style="opacity:0.01" fill="#000000" d="M 197.5,113.5 C 196.761,113.631 196.094,113.464 195.5,113C 196.437,112.308 197.103,112.475 197.5,113.5 Z"/></g>
<g><path style="opacity:0.01" fill="#000000" d="M 278.5,112.5 C 279.239,112.369 279.906,112.536 280.5,113C 279.563,113.692 278.897,113.525 278.5,112.5 Z"/></g>
<g><path style="opacity:0.008" fill="#000000" d="M 394.5,130.5 C 394.334,124.491 394.501,118.491 395,112.5C 395.819,118.681 395.653,124.681 394.5,130.5 Z"/></g>
<g><path style="opacity:0.01" fill="#000000" d="M 194.5,114.5 C 193.761,114.631 193.094,114.464 192.5,114C 193.437,113.308 194.103,113.475 194.5,114.5 Z"/></g>
<g><path style="opacity:0.01" fill="#000000" d="M 275.5,113.5 C 276.239,113.369 276.906,113.536 277.5,114C 276.563,114.692 275.897,114.525 275.5,113.5 Z"/></g>
<g><path style="opacity:0.01" fill="#000000" d="M 272.5,115.5 C 272.897,114.475 273.563,114.308 274.5,115C 273.906,115.464 273.239,115.631 272.5,115.5 Z"/></g>
<g><path style="opacity:0.01" fill="#000000" d="M 269.5,116.5 C 269.897,115.475 270.563,115.308 271.5,116C 270.906,116.464 270.239,116.631 269.5,116.5 Z"/></g>
<g><path style="opacity:0.008" fill="#000000" d="M 266.5,117.5 C 266.897,116.475 267.563,116.308 268.5,117C 267.906,117.464 267.239,117.631 266.5,117.5 Z"/></g>
<g><path style="opacity:0.008" fill="#000000" d="M 179.5,118.5 C 179.897,117.475 180.563,117.308 181.5,118C 180.906,118.464 180.239,118.631 179.5,118.5 Z"/></g>
<g><path style="opacity:0.007" fill="#000000" d="M 262.5,118.5 C 262.5,118.167 262.5,117.833 262.5,117.5C 266.5,117.833 266.5,118.167 262.5,118.5 Z"/></g>
<g><path style="opacity:0.01" fill="#000000" d="M 176.5,119.5 C 176.897,118.475 177.563,118.308 178.5,119C 177.906,119.464 177.239,119.631 176.5,119.5 Z"/></g>
<g><path style="opacity:1" fill="#363ca9" d="M 200.5,112.5 C 201.833,112.5 203.167,112.5 204.5,112.5C 197.982,115.066 191.315,117.566 184.5,120C 182.866,120.494 181.199,120.66 179.5,120.5C 184.5,118.5 189.5,116.5 194.5,114.5C 195.791,114.737 196.791,114.404 197.5,113.5C 198.791,113.737 199.791,113.404 200.5,112.5 Z"/></g>
<g><path style="opacity:0.008" fill="#000000" d="M 259.5,119.5 C 259.5,119.167 259.5,118.833 259.5,118.5C 260.5,118.5 261.5,118.5 262.5,118.5C 261.791,119.404 260.791,119.737 259.5,119.5 Z"/></g>
<g><path style="opacity:0.01" fill="#000000" d="M 175.5,120.5 C 174.761,120.631 174.094,120.464 173.5,120C 174.437,119.308 175.103,119.475 175.5,120.5 Z"/></g>
<g><path style="opacity:0.463" fill="#303597" d="M 268.5,114.5 C 266.5,115.5 264.5,116.5 262.5,117.5C 261.209,117.263 260.209,117.596 259.5,118.5C 258.209,118.263 257.209,118.596 256.5,119.5C 255.209,119.263 254.209,119.596 253.5,120.5C 252.209,120.263 251.209,120.596 250.5,121.5C 249.167,121.5 247.833,121.5 246.5,121.5C 253.499,118.391 260.832,116.057 268.5,114.5 Z"/></g>
<g><path style="opacity:0.008" fill="#000000" d="M 256.5,119.5 C 257.5,119.5 258.5,119.5 259.5,119.5C 258.5,120.833 257.5,120.833 256.5,119.5 Z"/></g>
<g><path style="opacity:0.007" fill="#000000" d="M 369.5,119.5 C 370.643,122.976 370.81,126.642 370,130.5C 369.501,126.848 369.335,123.182 369.5,119.5 Z"/></g>
<g><path style="opacity:0.01" fill="#000000" d="M 172.5,121.5 C 171.761,121.631 171.094,121.464 170.5,121C 171.437,120.308 172.103,120.475 172.5,121.5 Z"/></g>
<g><path style="opacity:0.01" fill="#000000" d="M 253.5,120.5 C 254.239,120.369 254.906,120.536 255.5,121C 254.563,121.692 253.897,121.525 253.5,120.5 Z"/></g>
<g><path style="opacity:0.893" fill="#32379b" d="M 392.5,111.5 C 393.49,117.645 393.823,123.978 393.5,130.5C 392.662,130.842 392.328,131.508 392.5,132.5C 391.833,132.5 391.5,132.833 391.5,133.5C 391.167,133.5 390.833,133.5 390.5,133.5C 392.345,126.341 393.011,119.008 392.5,111.5 Z"/></g>
<g><path style="opacity:0.01" fill="#000000" d="M 169.5,122.5 C 168.761,122.631 168.094,122.464 167.5,122C 168.437,121.308 169.103,121.475 169.5,122.5 Z"/></g>
<g><path style="opacity:0.01" fill="#000000" d="M 250.5,121.5 C 251.239,121.369 251.906,121.536 252.5,122C 251.563,122.692 250.897,122.525 250.5,121.5 Z"/></g>
<g><path style="opacity:0.01" fill="#000000" d="M 247.5,123.5 C 247.897,122.475 248.563,122.308 249.5,123C 248.906,123.464 248.239,123.631 247.5,123.5 Z"/></g>
<g><path style="opacity:0.012" fill="#000000" d="M 244.5,124.5 C 244.897,123.475 245.563,123.308 246.5,124C 245.906,124.464 245.239,124.631 244.5,124.5 Z"/></g>
<g><path style="opacity:0.008" fill="#000000" d="M 241.5,125.5 C 241.897,124.475 242.563,124.308 243.5,125C 242.906,125.464 242.239,125.631 241.5,125.5 Z"/></g>
<g><path style="opacity:0.841" fill="#2e3390" d="M 369.5,107.5 C 370.963,110.203 371.796,113.203 372,116.5C 372.333,120.833 372.667,125.167 373,129.5C 374.666,131.996 376.5,134.329 378.5,136.5C 376.589,135.925 374.922,134.925 373.5,133.5C 371.948,126.148 370.615,118.814 369.5,111.5C 369.5,110.167 369.5,108.833 369.5,107.5 Z"/></g>
<g><path style="opacity:0.01" fill="#000000" d="M 154.5,126.5 C 154.897,125.475 155.563,125.308 156.5,126C 155.906,126.464 155.239,126.631 154.5,126.5 Z"/></g>
<g><path style="opacity:0.007" fill="#000000" d="M 237.5,126.5 C 237.5,126.167 237.5,125.833 237.5,125.5C 241.5,125.833 241.5,126.167 237.5,126.5 Z"/></g>
<g><path style="opacity:0.01" fill="#000000" d="M 151.5,127.5 C 151.897,126.475 152.563,126.308 153.5,127C 152.906,127.464 152.239,127.631 151.5,127.5 Z"/></g>
<g><path style="opacity:1" fill="#373dab" d="M 175.5,120.5 C 176.833,120.5 178.167,120.5 179.5,120.5C 170.611,124.597 161.278,127.597 151.5,129.5C 157.5,127.167 163.5,124.833 169.5,122.5C 170.791,122.737 171.791,122.404 172.5,121.5C 173.791,121.737 174.791,121.404 175.5,120.5 Z"/></g>
<g><path style="opacity:0.008" fill="#000000" d="M 234.5,127.5 C 234.5,127.167 234.5,126.833 234.5,126.5C 235.5,126.5 236.5,126.5 237.5,126.5C 236.791,127.404 235.791,127.737 234.5,127.5 Z"/></g>
<g><path style="opacity:0.01" fill="#000000" d="M 148.5,128.5 C 148.897,127.475 149.563,127.308 150.5,128C 149.906,128.464 149.239,128.631 148.5,128.5 Z"/></g>
<g><path style="opacity:0.008" fill="#000000" d="M 231.5,127.5 C 232.5,127.5 233.5,127.5 234.5,127.5C 233.5,128.833 232.5,128.833 231.5,127.5 Z"/></g>
<g><path style="opacity:0.012" fill="#000000" d="M 147.5,129.5 C 146.761,129.631 146.094,129.464 145.5,129C 146.437,128.308 147.103,128.475 147.5,129.5 Z"/></g>
<g><path style="opacity:0.102" fill="#353aa4" d="M 243.5,122.5 C 241.5,123.5 239.5,124.5 237.5,125.5C 236.209,125.263 235.209,125.596 234.5,126.5C 233.209,126.263 232.209,126.596 231.5,127.5C 230.209,127.263 229.209,127.596 228.5,128.5C 227.209,128.263 226.209,128.596 225.5,129.5C 222.123,129.959 218.789,130.626 215.5,131.5C 217.147,128.501 219.48,127.501 222.5,128.5C 229.408,126.085 236.408,124.085 243.5,122.5 Z"/></g>
<g><path style="opacity:0.012" fill="#000000" d="M 228.5,128.5 C 229.239,128.369 229.906,128.536 230.5,129C 229.563,129.692 228.897,129.525 228.5,128.5 Z"/></g>
<g><path style="opacity:0.01" fill="#000000" d="M 144.5,130.5 C 143.761,130.631 143.094,130.464 142.5,130C 143.437,129.308 144.103,129.475 144.5,130.5 Z"/></g>
<g><path style="opacity:0.01" fill="#000000" d="M 225.5,129.5 C 226.239,129.369 226.906,129.536 227.5,130C 226.563,130.692 225.897,130.525 225.5,129.5 Z"/></g>
<g><path style="opacity:0.01" fill="#000000" d="M 222.5,131.5 C 222.897,130.475 223.563,130.308 224.5,131C 223.906,131.464 223.239,131.631 222.5,131.5 Z"/></g>
<g><path style="opacity:0.008" fill="#000000" d="M 393.5,130.5 C 393.833,130.5 394.167,130.5 394.5,130.5C 394.672,131.492 394.338,132.158 393.5,132.5C 393.5,131.833 393.5,131.167 393.5,130.5 Z"/></g>
<g><path style="opacity:0.012" fill="#000000" d="M 219.5,132.5 C 219.897,131.475 220.563,131.308 221.5,132C 220.906,132.464 220.239,132.631 219.5,132.5 Z"/></g>
<g><path style="opacity:0.01" fill="#000000" d="M 216.5,133.5 C 216.897,132.475 217.563,132.308 218.5,133C 217.906,133.464 217.239,133.631 216.5,133.5 Z"/></g>
<g><path style="opacity:0.012" fill="#000000" d="M 392.5,132.5 C 392.833,132.5 393.167,132.5 393.5,132.5C 393.315,133.17 392.981,133.17 392.5,132.5 Z"/></g>
<g><path style="opacity:0.008" fill="#000000" d="M 129.5,134.5 C 129.897,133.475 130.563,133.308 131.5,134C 130.906,134.464 130.239,134.631 129.5,134.5 Z"/></g>
<g><path style="opacity:0.188" fill="#313698" d="M 215.5,131.5 C 214.5,132.167 213.5,132.833 212.5,133.5C 211.209,133.263 210.209,133.596 209.5,134.5C 208.209,134.263 207.209,134.596 206.5,135.5C 205.209,135.263 204.209,135.596 203.5,136.5C 202.209,136.263 201.209,136.596 200.5,137.5C 199.167,137.5 197.833,137.5 196.5,137.5C 202.499,134.724 208.833,132.724 215.5,131.5 Z"/></g>
<g><path style="opacity:0.007" fill="#000000" d="M 212.5,134.5 C 212.5,134.167 212.5,133.833 212.5,133.5C 216.5,133.833 216.5,134.167 212.5,134.5 Z"/></g>
<g><path style="opacity:0.004" fill="#000000" d="M 373.5,133.5 C 373.631,134.239 373.464,134.906 373,135.5C 372.308,134.563 372.475,133.897 373.5,133.5 Z"/></g>
<g><path style="opacity:0.004" fill="#000000" d="M 391.5,133.5 C 391.833,133.5 392.167,133.5 392.5,133.5C 392.315,134.17 391.981,134.17 391.5,133.5 Z"/></g>
<g><path style="opacity:0.01" fill="#000000" d="M 126.5,135.5 C 126.897,134.475 127.563,134.308 128.5,135C 127.906,135.464 127.239,135.631 126.5,135.5 Z"/></g>
<g><path style="opacity:0.008" fill="#000000" d="M 209.5,135.5 C 209.5,135.167 209.5,134.833 209.5,134.5C 210.5,134.5 211.5,134.5 212.5,134.5C 211.791,135.404 210.791,135.737 209.5,135.5 Z"/></g>
<g><path style="opacity:0.01" fill="#000000" d="M 123.5,136.5 C 123.897,135.475 124.563,135.308 125.5,136C 124.906,136.464 124.239,136.631 123.5,136.5 Z"/></g>
<g><path style="opacity:0.008" fill="#000000" d="M 206.5,135.5 C 207.5,135.5 208.5,135.5 209.5,135.5C 208.5,136.833 207.5,136.833 206.5,135.5 Z"/></g>
<g><path style="opacity:0.004" fill="#000000" d="M 389.5,135.5 C 390.833,136.167 390.833,136.167 389.5,135.5 Z"/></g>
<g><path style="opacity:0.01" fill="#000000" d="M 122.5,137.5 C 121.761,137.631 121.094,137.464 120.5,137C 121.437,136.308 122.103,136.475 122.5,137.5 Z"/></g>
<g><path style="opacity:0.012" fill="#000000" d="M 203.5,136.5 C 204.239,136.369 204.906,136.536 205.5,137C 204.563,137.692 203.897,137.525 203.5,136.5 Z"/></g>
<g><path style="opacity:0.012" fill="#000000" d="M 388.5,136.5 C 388.833,136.5 389.167,136.5 389.5,136.5C 389.315,137.17 388.981,137.17 388.5,136.5 Z"/></g>
<g><path style="opacity:0.01" fill="#000000" d="M 119.5,138.5 C 118.761,138.631 118.094,138.464 117.5,138C 118.437,137.308 119.103,137.475 119.5,138.5 Z"/></g>
<g><path style="opacity:0.01" fill="#000000" d="M 200.5,137.5 C 201.239,137.369 201.906,137.536 202.5,138C 201.563,138.692 200.897,138.525 200.5,137.5 Z"/></g>
<g><path style="opacity:0.008" fill="#000000" d="M 386.5,138.5 C 386.5,138.167 386.5,137.833 386.5,137.5C 387.167,137.5 387.833,137.5 388.5,137.5C 388.158,138.338 387.492,138.672 386.5,138.5 Z"/></g>
<g><path style="opacity:0.01" fill="#000000" d="M 197.5,139.5 C 197.897,138.475 198.563,138.308 199.5,139C 198.906,139.464 198.239,139.631 197.5,139.5 Z"/></g>
<g><path style="opacity:0.009" fill="#000000" d="M 386.5,138.5 C 384.034,139.634 381.367,139.801 378.5,139C 381.146,138.503 383.813,138.336 386.5,138.5 Z"/></g>
<g><path style="opacity:0.01" fill="#000000" d="M 194.5,140.5 C 194.897,139.475 195.563,139.308 196.5,140C 195.906,140.464 195.239,140.631 194.5,140.5 Z"/></g>
<g><path style="opacity:0.008" fill="#000000" d="M 191.5,141.5 C 191.897,140.475 192.563,140.308 193.5,141C 192.906,141.464 192.239,141.631 191.5,141.5 Z"/></g>
<g><path style="opacity:0.008" fill="#000000" d="M 104.5,142.5 C 104.897,141.475 105.563,141.308 106.5,142C 105.906,142.464 105.239,142.631 104.5,142.5 Z"/></g>
<g><path style="opacity:0.2" fill="#313699" d="M 190.5,139.5 C 189.5,140.167 188.5,140.833 187.5,141.5C 186.209,141.263 185.209,141.596 184.5,142.5C 183.209,142.263 182.209,142.596 181.5,143.5C 180.209,143.263 179.209,143.596 178.5,144.5C 177.209,144.263 176.209,144.596 175.5,145.5C 174.167,145.5 172.833,145.5 171.5,145.5C 177.499,142.724 183.833,140.724 190.5,139.5 Z"/></g>
<g><path style="opacity:0.007" fill="#000000" d="M 187.5,142.5 C 187.5,142.167 187.5,141.833 187.5,141.5C 191.5,141.833 191.5,142.167 187.5,142.5 Z"/></g>
<g><path style="opacity:0.01" fill="#000000" d="M 101.5,143.5 C 101.897,142.475 102.563,142.308 103.5,143C 102.906,143.464 102.239,143.631 101.5,143.5 Z"/></g>
<g><path style="opacity:1" fill="#373dab" d="M 122.5,137.5 C 123.833,137.5 125.167,137.5 126.5,137.5C 119.6,140.937 112.266,143.27 104.5,144.5C 109.5,142.5 114.5,140.5 119.5,138.5C 120.791,138.737 121.791,138.404 122.5,137.5 Z"/></g>
<g><path style="opacity:0.008" fill="#000000" d="M 184.5,143.5 C 184.5,143.167 184.5,142.833 184.5,142.5C 185.5,142.5 186.5,142.5 187.5,142.5C 186.791,143.404 185.791,143.737 184.5,143.5 Z"/></g>
<g><path style="opacity:0.01" fill="#000000" d="M 100.5,144.5 C 99.7611,144.631 99.0944,144.464 98.5,144C 99.4368,143.308 100.103,143.475 100.5,144.5 Z"/></g>
<g><path style="opacity:0.008" fill="#000000" d="M 181.5,143.5 C 182.5,143.5 183.5,143.5 184.5,143.5C 183.5,144.833 182.5,144.833 181.5,143.5 Z"/></g>
<g><path style="opacity:0.01" fill="#000000" d="M 97.5,145.5 C 96.7611,145.631 96.0944,145.464 95.5,145C 96.4368,144.308 97.1034,144.475 97.5,145.5 Z"/></g>
<g><path style="opacity:0.01" fill="#000000" d="M 178.5,144.5 C 179.239,144.369 179.906,144.536 180.5,145C 179.563,145.692 178.897,145.525 178.5,144.5 Z"/></g>
<g><path style="opacity:0.01" fill="#000000" d="M 94.5,146.5 C 93.7611,146.631 93.0944,146.464 92.5,146C 93.4368,145.308 94.1034,145.475 94.5,146.5 Z"/></g>
<g><path style="opacity:0.01" fill="#000000" d="M 175.5,145.5 C 176.239,145.369 176.906,145.536 177.5,146C 176.563,146.692 175.897,146.525 175.5,145.5 Z"/></g>
<g><path style="opacity:0.01" fill="#000000" d="M 172.5,147.5 C 172.897,146.475 173.563,146.308 174.5,147C 173.906,147.464 173.239,147.631 172.5,147.5 Z"/></g>
<g><path style="opacity:0.01" fill="#000000" d="M 169.5,148.5 C 169.897,147.475 170.563,147.308 171.5,148C 170.906,148.464 170.239,148.631 169.5,148.5 Z"/></g>
<g><path style="opacity:0.98" fill="#33399f" d="M 100.5,144.5 C 101.833,144.5 103.167,144.5 104.5,144.5C 99.5105,146.939 94.1771,148.606 88.5,149.5C 90.5,148.5 92.5,147.5 94.5,146.5C 95.791,146.737 96.791,146.404 97.5,145.5C 98.791,145.737 99.791,145.404 100.5,144.5 Z"/></g>
<g><path style="opacity:0.008" fill="#000000" d="M 166.5,149.5 C 166.897,148.475 167.563,148.308 168.5,149C 167.906,149.464 167.239,149.631 166.5,149.5 Z"/></g>
<g><path style="opacity:0.007" fill="#000000" d="M 162.5,150.5 C 162.5,150.167 162.5,149.833 162.5,149.5C 166.5,149.833 166.5,150.167 162.5,150.5 Z"/></g>
<g><path style="opacity:0.008" fill="#000000" d="M 159.5,151.5 C 159.5,151.167 159.5,150.833 159.5,150.5C 160.5,150.5 161.5,150.5 162.5,150.5C 161.791,151.404 160.791,151.737 159.5,151.5 Z"/></g>
<g><path style="opacity:0.475" fill="#32379a" d="M 165.5,147.5 C 164.5,148.167 163.5,148.833 162.5,149.5C 161.209,149.263 160.209,149.596 159.5,150.5C 158.209,150.263 157.209,150.596 156.5,151.5C 155.209,151.263 154.209,151.596 153.5,152.5C 152.209,152.263 151.209,152.596 150.5,153.5C 149.167,153.5 147.833,153.5 146.5,153.5C 152.499,150.724 158.833,148.724 165.5,147.5 Z"/></g>
<g><path style="opacity:0.008" fill="#000000" d="M 156.5,151.5 C 157.5,151.5 158.5,151.5 159.5,151.5C 158.5,152.833 157.5,152.833 156.5,151.5 Z"/></g>
<g><path style="opacity:0.01" fill="#000000" d="M 153.5,152.5 C 154.239,152.369 154.906,152.536 155.5,153C 154.563,153.692 153.897,153.525 153.5,152.5 Z"/></g>
<g><path style="opacity:0.012" fill="#000000" d="M 74.5,153.5 C 75.8333,154.167 75.8333,154.167 74.5,153.5 Z"/></g>
<g><path style="opacity:0.01" fill="#000000" d="M 150.5,153.5 C 151.239,153.369 151.906,153.536 152.5,154C 151.563,154.692 150.897,154.525 150.5,153.5 Z"/></g>
<g><path style="opacity:0.012" fill="#000000" d="M 74.5,154.5 C 74.5,154.833 74.5,155.167 74.5,155.5C 73.8299,155.019 73.8299,154.685 74.5,154.5 Z"/></g>
<g><path style="opacity:0.01" fill="#000000" d="M 147.5,155.5 C 147.897,154.475 148.563,154.308 149.5,155C 148.906,155.464 148.239,155.631 147.5,155.5 Z"/></g>
<g><path style="opacity:0.008" fill="#000000" d="M 71.5,155.5 C 72.8333,156.167 72.8333,156.167 71.5,155.5 Z"/></g>
<g><path style="opacity:0.01" fill="#000000" d="M 144.5,156.5 C 144.897,155.475 145.563,155.308 146.5,156C 145.906,156.464 145.239,156.631 144.5,156.5 Z"/></g>
<g><path style="opacity:0.008" fill="#000000" d="M 141.5,157.5 C 141.897,156.475 142.563,156.308 143.5,157C 142.906,157.464 142.239,157.631 141.5,157.5 Z"/></g>
<g><path style="opacity:0.01" fill="#000000" d="M 209.5,157.5 C 208.761,157.631 208.094,157.464 207.5,157C 208.437,156.308 209.103,156.475 209.5,157.5 Z"/></g>
<g><path style="opacity:0.009" fill="#000000" d="M 409.5,157.5 C 410.946,156.387 412.613,156.22 414.5,157C 412.866,157.494 411.199,157.66 409.5,157.5 Z"/></g>
<g><path style="opacity:0.007" fill="#000000" d="M 137.5,158.5 C 137.5,158.167 137.5,157.833 137.5,157.5C 141.5,157.833 141.5,158.167 137.5,158.5 Z"/></g>
<g><path style="opacity:0.008" fill="#000000" d="M 205.5,157.5 C 206.833,158.167 206.833,158.167 205.5,157.5 Z"/></g>
<g><path style="opacity:0.009" fill="#000000" d="M 415.5,158.5 C 416.251,157.427 417.251,157.26 418.5,158C 417.552,158.483 416.552,158.649 415.5,158.5 Z"/></g>
<g><path style="opacity:0.008" fill="#000000" d="M 134.5,159.5 C 134.5,159.167 134.5,158.833 134.5,158.5C 135.5,158.5 136.5,158.5 137.5,158.5C 136.791,159.404 135.791,159.737 134.5,159.5 Z"/></g>
<g><path style="opacity:0.008" fill="#000000" d="M 205.5,158.5 C 205.5,158.833 205.5,159.167 205.5,159.5C 204.83,159.019 204.83,158.685 205.5,158.5 Z"/></g>
<g><path style="opacity:0.01" fill="#000000" d="M 419.5,159.5 C 419.897,158.475 420.563,158.308 421.5,159C 420.906,159.464 420.239,159.631 419.5,159.5 Z"/></g>
<g><path style="opacity:0.129" fill="#33389f" d="M 140.5,155.5 C 139.5,156.167 138.5,156.833 137.5,157.5C 136.209,157.263 135.209,157.596 134.5,158.5C 133.209,158.263 132.209,158.596 131.5,159.5C 130.209,159.263 129.209,159.596 128.5,160.5C 127.209,160.263 126.209,160.596 125.5,161.5C 124.167,161.5 122.833,161.5 121.5,161.5C 127.499,158.724 133.833,156.724 140.5,155.5 Z"/></g>
<g><path style="opacity:0.008" fill="#000000" d="M 131.5,159.5 C 132.5,159.5 133.5,159.5 134.5,159.5C 133.5,160.833 132.5,160.833 131.5,159.5 Z"/></g>
<g><path style="opacity:0.004" fill="#000000" d="M 202.5,159.5 C 203.833,160.167 203.833,160.167 202.5,159.5 Z"/></g>
<g><path style="opacity:0.008" fill="#000000" d="M 422.5,160.5 C 422.897,159.475 423.563,159.308 424.5,160C 423.906,160.464 423.239,160.631 422.5,160.5 Z"/></g>
<g><path style="opacity:1" fill="#32379b" d="M 73.5,157.5 C 70.1667,161.5 66.5,165.167 62.5,168.5C 65.1667,163.833 68.8333,160.167 73.5,157.5 Z"/></g>
<g><path style="opacity:0.012" fill="#000000" d="M 128.5,160.5 C 129.239,160.369 129.906,160.536 130.5,161C 129.563,161.692 128.897,161.525 128.5,160.5 Z"/></g>
<g><path style="opacity:0.01" fill="#000000" d="M 125.5,161.5 C 126.239,161.369 126.906,161.536 127.5,162C 126.563,162.692 125.897,162.525 125.5,161.5 Z"/></g>
<g><path style="opacity:0.01" fill="#000000" d="M 122.5,163.5 C 122.897,162.475 123.563,162.308 124.5,163C 123.906,163.464 123.239,163.631 122.5,163.5 Z"/></g>
<g><path style="opacity:0.01" fill="#000000" d="M 119.5,164.5 C 119.897,163.475 120.563,163.308 121.5,164C 120.906,164.464 120.239,164.631 119.5,164.5 Z"/></g>
<g><path style="opacity:0.008" fill="#000000" d="M 116.5,165.5 C 116.897,164.475 117.563,164.308 118.5,165C 117.906,165.464 117.239,165.631 116.5,165.5 Z"/></g>
<g><path style="opacity:0.007" fill="#000000" d="M 112.5,166.5 C 112.5,166.167 112.5,165.833 112.5,165.5C 116.5,165.833 116.5,166.167 112.5,166.5 Z"/></g>
<g><path style="opacity:0.008" fill="#000000" d="M 60.5,166.5 C 61.8333,167.167 61.8333,167.167 60.5,166.5 Z"/></g>
<g><path style="opacity:0.008" fill="#000000" d="M 109.5,167.5 C 109.5,167.167 109.5,166.833 109.5,166.5C 110.5,166.5 111.5,166.5 112.5,166.5C 111.791,167.404 110.791,167.737 109.5,167.5 Z"/></g>
<g><path style="opacity:0.009" fill="#000000" d="M 198.5,166.5 C 199.613,167.946 199.78,169.613 199,171.5C 198.506,169.866 198.34,168.199 198.5,166.5 Z"/></g>
<g><path style="opacity:0.965" fill="#3439a0" d="M 428.5,164.5 C 432.049,165.723 435.049,167.723 437.5,170.5C 433.975,169.241 430.975,167.241 428.5,164.5 Z"/></g>
<g><path style="opacity:0.129" fill="#33389f" d="M 115.5,163.5 C 114.5,164.167 113.5,164.833 112.5,165.5C 111.209,165.263 110.209,165.596 109.5,166.5C 108.209,166.263 107.209,166.596 106.5,167.5C 105.209,167.263 104.209,167.596 103.5,168.5C 102.209,168.263 101.209,168.596 100.5,169.5C 99.1667,169.5 97.8333,169.5 96.5,169.5C 102.499,166.724 108.833,164.724 115.5,163.5 Z"/></g>
<g><path style="opacity:0.008" fill="#000000" d="M 106.5,167.5 C 107.5,167.5 108.5,167.5 109.5,167.5C 108.5,168.833 107.5,168.833 106.5,167.5 Z"/></g>
<g><path style="opacity:0.012" fill="#000000" d="M 103.5,168.5 C 104.239,168.369 104.906,168.536 105.5,169C 104.563,169.692 103.897,169.525 103.5,168.5 Z"/></g>
<g><path style="opacity:0.01" fill="#000000" d="M 100.5,169.5 C 101.239,169.369 101.906,169.536 102.5,170C 101.563,170.692 100.897,170.525 100.5,169.5 Z"/></g>
<g><path style="opacity:0.01" fill="#000000" d="M 97.5,171.5 C 97.8966,170.475 98.5632,170.308 99.5,171C 98.9056,171.464 98.2389,171.631 97.5,171.5 Z"/></g>
<g><path style="opacity:0.01" fill="#000000" d="M 94.5,172.5 C 94.8966,171.475 95.5632,171.308 96.5,172C 95.9056,172.464 95.2389,172.631 94.5,172.5 Z"/></g>
<g><path style="opacity:0.008" fill="#000000" d="M 91.5,173.5 C 91.5,173.167 91.5,172.833 91.5,172.5C 94.1667,172.833 94.1667,173.167 91.5,173.5 Z"/></g>
<g><path style="opacity:0.608" fill="#252974" d="M 205.5,159.5 C 206.167,159.5 206.833,159.5 207.5,159.5C 199.09,166.945 199.756,173.445 209.5,179C 274.668,179.167 339.668,179.667 404.5,180.5C 339.167,180.5 273.833,180.5 208.5,180.5C 199.197,174.712 198.197,167.712 205.5,159.5 Z"/></g>
<g><path style="opacity:0.01" fill="#000000" d="M 89.5,174.5 C 89.5,174.167 89.5,173.833 89.5,173.5C 90.1667,173.5 90.8333,173.5 91.5,173.5C 91.1583,174.338 90.4916,174.672 89.5,174.5 Z"/></g>
<g><path style="opacity:0.012" fill="#000000" d="M 55.5,174.5 C 56.8333,175.167 56.8333,175.167 55.5,174.5 Z"/></g>
<g><path style="opacity:0.012" fill="#000000" d="M 89.5,174.5 C 88.8333,175.167 88.8333,175.167 89.5,174.5 Z"/></g>
<g><path style="opacity:0.016" fill="#000000" d="M 86.5,175.5 C 87.8333,176.167 87.8333,176.167 86.5,175.5 Z"/></g>
<g><path style="opacity:0.012" fill="#000000" d="M 54.5,176.5 C 55.8333,177.167 55.8333,177.167 54.5,176.5 Z"/></g>
<g><path style="opacity:0.016" fill="#000000" d="M 85.5,176.5 C 85.8333,176.5 86.1667,176.5 86.5,176.5C 86.3147,177.17 85.9813,177.17 85.5,176.5 Z"/></g>
<g><path style="opacity:0.008" fill="#000000" d="M 54.5,180.5 C 54.1667,180.5 53.8333,180.5 53.5,180.5C 53.8333,177.833 54.1667,177.833 54.5,180.5 Z"/></g>
<g><path style="opacity:0.008" fill="#000000" d="M 53.5,180.5 C 53.631,181.239 53.4643,181.906 53,182.5C 52.3083,181.563 52.475,180.897 53.5,180.5 Z"/></g>
<g><path style="opacity:0.016" fill="#000000" d="M 81.5,180.5 C 82.8333,181.167 82.8333,181.167 81.5,180.5 Z"/></g>
<g><path style="opacity:0.008" fill="#000000" d="M 208.5,180.5 C 208.103,181.525 207.437,181.692 206.5,181C 207.094,180.536 207.761,180.369 208.5,180.5 Z"/></g>
<g><path style="opacity:0.008" fill="#000000" d="M 450.5,182.5 C 450.167,182.5 449.833,182.5 449.5,182.5C 449.833,179.833 450.167,179.833 450.5,182.5 Z"/></g>
<g><path style="opacity:0.016" fill="#000000" d="M 80.5,181.5 C 80.8333,181.5 81.1667,181.5 81.5,181.5C 81.3147,182.17 80.9813,182.17 80.5,181.5 Z"/></g>
<g><path style="opacity:0.012" fill="#000000" d="M 209.5,182.5 C 275.665,181.335 341.999,181.168 408.5,182C 342.168,182.5 275.834,182.667 209.5,182.5 Z"/></g>
<g><path style="opacity:0.012" fill="#000000" d="M 450.5,182.5 C 451.833,183.167 451.833,183.167 450.5,182.5 Z"/></g>
<g><path style="opacity:0.008" fill="#000000" d="M 79.5,183.5 C 80.8333,184.167 80.8333,184.167 79.5,183.5 Z"/></g>
<g><path style="opacity:0.008" fill="#000000" d="M 78.5,184.5 C 78.8333,184.5 79.1667,184.5 79.5,184.5C 79.6716,185.492 79.3382,186.158 78.5,186.5C 78.5,185.833 78.5,185.167 78.5,184.5 Z"/></g>
<g><path style="opacity:0.01" fill="#000000" d="M 77.5,186.5 C 77.8333,186.5 78.1667,186.5 78.5,186.5C 78.6716,187.492 78.3382,188.158 77.5,188.5C 77.5,187.833 77.5,187.167 77.5,186.5 Z"/></g>
<g><path style="opacity:0.008" fill="#000000" d="M 454.5,189.5 C 454.167,189.5 453.833,189.5 453.5,189.5C 453.833,186.833 454.167,186.833 454.5,189.5 Z"/></g>
<g><path style="opacity:0.007" fill="#000000" d="M 76.5,188.5 C 76.8333,188.5 77.1667,188.5 77.5,188.5C 77.1667,192.5 76.8333,192.5 76.5,188.5 Z"/></g>
<g><path style="opacity:0.008" fill="#000000" d="M 454.5,189.5 C 455.525,189.897 455.692,190.563 455,191.5C 454.536,190.906 454.369,190.239 454.5,189.5 Z"/></g>
<g><path style="opacity:0.004" fill="#000000" d="M 49.5,191.5 C 50.6655,264.999 50.8322,338.666 50,412.5C 49.5,338.834 49.3333,265.167 49.5,191.5 Z"/></g>
<g><path style="opacity:0.01" fill="#000000" d="M 75.5,192.5 C 76.5735,193.251 76.7401,194.251 76,195.5C 75.5172,194.552 75.3505,193.552 75.5,192.5 Z"/></g>
<g><path style="opacity:0.01" fill="#000000" d="M 455.5,194.5 C 455.369,193.761 455.536,193.094 456,192.5C 456.692,193.437 456.525,194.103 455.5,194.5 Z"/></g>
<g><path style="opacity:0.424" fill="#3439a1" d="M 428.5,191.5 C 433.244,196.01 435.577,201.677 435.5,208.5C 434.833,206.833 434.167,205.167 433.5,203.5C 433.737,202.209 433.404,201.209 432.5,200.5C 432.672,199.508 432.338,198.842 431.5,198.5C 431.672,197.508 431.338,196.842 430.5,196.5C 430.672,195.508 430.338,194.842 429.5,194.5C 428.89,193.609 428.557,192.609 428.5,191.5 Z"/></g>
<g><path style="opacity:0.016" fill="#000000" d="M 429.5,194.5 C 428.833,195.167 428.833,195.167 429.5,194.5 Z"/></g>
<g><path style="opacity:0.012" fill="#000000" d="M 456.5,197.5 C 456.369,196.761 456.536,196.094 457,195.5C 457.692,196.437 457.525,197.103 456.5,197.5 Z"/></g>
<g><path style="opacity:0.012" fill="#000000" d="M 430.5,196.5 C 429.833,197.167 429.833,197.167 430.5,196.5 Z"/></g>
<g><path style="opacity:0.004" fill="#000000" d="M 74.5,198.5 C 75.6655,267.332 75.8321,336.332 75,405.5C 74.5,336.501 74.3333,267.501 74.5,198.5 Z"/></g>
<g><path style="opacity:0.012" fill="#000000" d="M 431.5,198.5 C 430.833,199.167 430.833,199.167 431.5,198.5 Z"/></g>
<g><path style="opacity:0.009" fill="#000000" d="M 457.5,198.5 C 458.573,199.251 458.74,200.251 458,201.5C 457.517,200.552 457.351,199.552 457.5,198.5 Z"/></g>
<g><path style="opacity:0.902" fill="#383dac" d="M 54.5,183.5 C 54.5793,186.271 54.0793,188.937 53,191.5C 52.1819,266.851 52.3485,342.184 53.5,417.5C 52.8333,416.167 52.1667,414.833 51.5,413.5C 51.3333,339.166 51.5,264.833 52,190.5C 52.3903,187.896 53.2237,185.562 54.5,183.5 Z"/></g>
<g><path style="opacity:0.902" fill="#383dac" d="M 75.5,188.5 C 75.0022,191.487 74.5022,194.487 74,197.5C 73.1827,268.851 73.3494,340.184 74.5,411.5C 73.71,410.391 73.21,409.058 73,407.5C 72.3333,336.833 72.3333,266.167 73,195.5C 73.1558,192.809 73.9891,190.476 75.5,188.5 Z"/></g>
<g><path style="opacity:0.01" fill="#000000" d="M 432.5,200.5 C 432.631,201.239 432.464,201.906 432,202.5C 431.308,201.563 431.475,200.897 432.5,200.5 Z"/></g>
<g><path style="opacity:0.009" fill="#000000" d="M 433.5,203.5 C 433.657,204.873 433.49,206.207 433,207.5C 432.235,205.934 432.402,204.601 433.5,203.5 Z"/></g>
<g><path style="opacity:0.005" fill="#000000" d="M 458.5,203.5 C 459.664,231.997 459.83,260.664 459,289.5C 458.5,260.835 458.333,232.169 458.5,203.5 Z"/></g>
<g><path style="opacity:0.004" fill="#000000" d="M 433.5,275.5 C 432.833,275.5 432.5,275.167 432.5,274.5C 433.322,253.239 433.822,231.906 434,210.5C 434.829,232.337 434.663,254.004 433.5,275.5 Z"/></g>
<g><path style="opacity:0.882" fill="#33389f" d="M 456.5,198.5 C 458.106,233.195 457.772,267.862 455.5,302.5C 454.566,303.568 454.232,304.901 454.5,306.5C 453.566,307.568 453.232,308.901 453.5,310.5C 452.861,309.903 452.528,309.07 452.5,308C 454.052,301.906 455.219,295.74 456,289.5C 456.456,258.968 456.622,228.635 456.5,198.5 Z"/></g>
<g><path style="opacity:0.011" fill="#000000" d="M 345.5,263.5 C 366.663,262.337 387.996,262.171 409.5,263C 388.169,263.5 366.836,263.667 345.5,263.5 Z"/></g>
<g><path style="opacity:0.009" fill="#000000" d="M 343.5,264.5 C 342.127,264.657 340.793,264.49 339.5,264C 341.066,263.235 342.399,263.402 343.5,264.5 Z"/></g>
<g><path style="opacity:0.012" fill="#000000" d="M 411.5,264.5 C 412.251,263.427 413.251,263.26 414.5,264C 413.552,264.483 412.552,264.649 411.5,264.5 Z"/></g>
<g><path style="opacity:0.01" fill="#000000" d="M 336.5,265.5 C 336.897,264.475 337.563,264.308 338.5,265C 337.906,265.464 337.239,265.631 336.5,265.5 Z"/></g>
<g><path style="opacity:0.587" fill="#2d318a" d="M 343.5,264.5 C 365.836,264.333 388.169,264.5 410.5,265C 413.168,265.567 415.834,266.067 418.5,266.5C 420.649,267.736 422.982,268.736 425.5,269.5C 425.833,270.167 426.167,270.833 426.5,271.5C 421.085,268.973 415.418,267.14 409.5,266C 386.147,265.218 362.814,265.385 339.5,266.5C 340.833,265.833 342.167,265.167 343.5,264.5 Z"/></g>
<g><path style="opacity:0.01" fill="#000000" d="M 418.5,266.5 C 418.897,265.475 419.563,265.308 420.5,266C 419.906,266.464 419.239,266.631 418.5,266.5 Z"/></g>
<g><path style="opacity:0.012" fill="#000000" d="M 425.5,268.5 C 426.833,269.167 426.833,269.167 425.5,268.5 Z"/></g>
<g><path style="opacity:0.008" fill="#000000" d="M 428.5,270.5 C 427.833,269.167 427.833,269.167 428.5,270.5 Z"/></g>
<g><path style="opacity:0.012" fill="#000000" d="M 428.5,270.5 C 429.833,271.167 429.833,271.167 428.5,270.5 Z"/></g>
<g><path style="opacity:0.008" fill="#000000" d="M 430.5,271.5 C 431.833,272.167 431.833,272.167 430.5,271.5 Z"/></g>
<g><path style="opacity:0.008" fill="#000000" d="M 313.5,281.5 C 314.833,282.167 314.833,282.167 313.5,281.5 Z"/></g>
<g><path style="opacity:0.012" fill="#000000" d="M 309.5,288.5 C 310.833,289.167 310.833,289.167 309.5,288.5 Z"/></g>
<g><path style="opacity:0.01" fill="#000000" d="M 309.5,292.5 C 309.167,292.5 308.833,292.5 308.5,292.5C 308.833,289.833 309.167,289.833 309.5,292.5 Z"/></g>
<g><path style="opacity:0.009" fill="#000000" d="M 457.5,291.5 C 458.613,292.946 458.78,294.613 458,296.5C 457.506,294.866 457.34,293.199 457.5,291.5 Z"/></g>
<g><path style="opacity:0.008" fill="#000000" d="M 308.5,292.5 C 308.631,293.239 308.464,293.906 308,294.5C 307.308,293.563 307.475,292.897 308.5,292.5 Z"/></g>
<g><path style="opacity:0.009" fill="#000000" d="M 306.5,295.5 C 307.573,296.251 307.74,297.251 307,298.5C 306.517,297.552 306.351,296.552 306.5,295.5 Z"/></g>
<g><path style="opacity:0.009" fill="#000000" d="M 456.5,298.5 C 457.573,299.251 457.74,300.251 457,301.5C 456.517,300.552 456.351,299.552 456.5,298.5 Z"/></g>
<g><path style="opacity:0.011" fill="#000000" d="M 305.5,300.5 C 306.65,305.316 306.816,310.316 306,315.5C 305.501,310.511 305.334,305.511 305.5,300.5 Z"/></g>
<g><path style="opacity:0.01" fill="#000000" d="M 455.5,302.5 C 456.573,303.251 456.74,304.251 456,305.5C 455.517,304.552 455.351,303.552 455.5,302.5 Z"/></g>
<g><path style="opacity:0.875" fill="#32379b" d="M 309.5,295.5 C 307.928,304.585 308.262,313.585 310.5,322.5C 309.833,321.833 309.167,321.167 308.5,320.5C 308.768,318.901 308.434,317.568 307.5,316.5C 307.334,310.824 307.501,305.157 308,299.5C 308.21,297.942 308.71,296.609 309.5,295.5 Z"/></g>
<g><path style="opacity:0.01" fill="#000000" d="M 454.5,306.5 C 455.434,307.568 455.768,308.901 455.5,310.5C 455.167,310.5 454.833,310.5 454.5,310.5C 454.5,309.167 454.5,307.833 454.5,306.5 Z"/></g>
<g><path style="opacity:0.01" fill="#000000" d="M 455.5,310.5 C 456.573,311.251 456.74,312.251 456,313.5C 455.517,312.552 455.351,311.552 455.5,310.5 Z"/></g>
<g><path style="opacity:0.502" fill="#3439a2" d="M 330.5,300.5 C 328.88,305.436 329.214,310.103 331.5,314.5C 331.5,315.5 331.5,316.5 331.5,317.5C 328.099,311.979 327.766,306.312 330.5,300.5 Z"/></g>
<g><path style="opacity:0.01" fill="#000000" d="M 456.5,314.5 C 457.598,315.601 457.765,316.934 457,318.5C 456.51,317.207 456.343,315.873 456.5,314.5 Z"/></g>
<g><path style="opacity:0.009" fill="#000000" d="M 307.5,316.5 C 307.649,317.552 307.483,318.552 307,319.5C 306.26,318.251 306.427,317.251 307.5,316.5 Z"/></g>
<g><path style="opacity:0.004" fill="#000000" d="M 420.5,319.5 C 420.5,320.167 420.5,320.833 420.5,321.5C 419.833,321.5 419.167,321.5 418.5,321.5C 418.833,320.5 419.5,319.833 420.5,319.5 Z"/></g>
<g><path style="opacity:0.01" fill="#000000" d="M 308.5,320.5 C 308.631,321.239 308.464,321.906 308,322.5C 307.308,321.563 307.475,320.897 308.5,320.5 Z"/></g>
<g><path style="opacity:0.009" fill="#000000" d="M 457.5,325.5 C 457.34,323.801 457.506,322.134 458,320.5C 458.78,322.387 458.613,324.054 457.5,325.5 Z"/></g>
<g><path style="opacity:0.008" fill="#000000" d="M 308.5,323.5 C 309.525,323.897 309.692,324.563 309,325.5C 308.536,324.906 308.369,324.239 308.5,323.5 Z"/></g>
<g><path style="opacity:0.006" fill="#000000" d="M 458.5,327.5 C 459.664,355.664 459.83,383.997 459,412.5C 458.5,384.169 458.333,355.835 458.5,327.5 Z"/></g>
<g><path style="opacity:0.012" fill="#000000" d="M 312.5,329.5 C 311.833,330.167 311.833,330.167 312.5,329.5 Z"/></g>
<g><path style="opacity:0.917" fill="#2f3391" d="M 338.5,325.5 C 339.167,325.5 339.833,325.5 340.5,325.5C 340.842,326.338 341.508,326.672 342.5,326.5C 342.842,327.338 343.508,327.672 344.5,327.5C 346.292,328.309 348.292,328.809 350.5,329C 367.163,329.5 383.83,329.667 400.5,329.5C 383.338,330.662 366.005,330.829 348.5,330C 344.475,329.817 341.142,328.317 338.5,325.5 Z"/></g>
<g><path style="opacity:0.008" fill="#000000" d="M 312.5,331.5 C 313.833,332.167 313.833,332.167 312.5,331.5 Z"/></g>
<g><path style="opacity:0.004" fill="#0f0b1c" d="M 315.5,333.5 C 315.631,334.239 315.464,334.906 315,335.5C 314.308,334.563 314.475,333.897 315.5,333.5 Z"/></g>
<g><path style="opacity:0.89" fill="#353aa3" d="M 455.5,319.5 C 456.167,321.5 456.833,323.5 457.5,325.5C 457.5,354.833 457.5,384.167 457.5,413.5C 456.651,415.888 455.651,418.221 454.5,420.5C 454.678,417.784 455.178,415.117 456,412.5C 456.762,381.488 456.595,350.488 455.5,319.5 Z"/></g>
<g><path style="opacity:0.004" fill="#000000" d="M 432.5,342.5 C 432.5,342.167 432.5,341.833 432.5,341.5C 433.832,351.812 434.499,362.478 434.5,373.5C 434.333,384.167 434.167,394.833 434,405.5C 433.832,384.329 433.332,363.329 432.5,342.5 Z"/></g>
<g><path style="opacity:0.012" fill="#000000" d="M 431.5,342.5 C 431.833,342.5 432.167,342.5 432.5,342.5C 432.315,343.17 431.981,343.17 431.5,342.5 Z"/></g>
<g><path style="opacity:0.012" fill="#000000" d="M 430.5,343.5 C 430.833,343.5 431.167,343.5 431.5,343.5C 431.315,344.17 430.981,344.17 430.5,343.5 Z"/></g>
<g><path style="opacity:0.004" fill="#000000" d="M 428.5,345.5 C 428.5,345.167 428.5,344.833 428.5,344.5C 429.167,344.5 429.833,344.5 430.5,344.5C 430.158,345.338 429.492,345.672 428.5,345.5 Z"/></g>
<g><path style="opacity:0.012" fill="#000000" d="M 427.5,345.5 C 427.833,345.5 428.167,345.5 428.5,345.5C 428.315,346.17 427.981,346.17 427.5,345.5 Z"/></g>
<g><path style="opacity:0.012" fill="#000000" d="M 329.5,346.5 C 328.833,347.167 328.833,347.167 329.5,346.5 Z"/></g>
<g><path style="opacity:0.008" fill="#000000" d="M 425.5,347.5 C 425.5,347.167 425.5,346.833 425.5,346.5C 426.167,346.5 426.833,346.5 427.5,346.5C 427.158,347.338 426.492,347.672 425.5,347.5 Z"/></g>
<g><path style="opacity:0.006" fill="#000000" d="M 423.5,348.5 C 423.5,348.167 423.5,347.833 423.5,347.5C 424.167,347.5 424.833,347.5 425.5,347.5C 425.158,348.338 424.492,348.672 423.5,348.5 Z"/></g>
<g><path style="opacity:0.008" fill="#000000" d="M 333.5,348.5 C 333.103,349.525 332.437,349.692 331.5,349C 332.094,348.536 332.761,348.369 333.5,348.5 Z"/></g>
<g><path style="opacity:0.008" fill="#000000" d="M 421.5,349.5 C 421.5,349.167 421.5,348.833 421.5,348.5C 422.167,348.5 422.833,348.5 423.5,348.5C 423.158,349.338 422.492,349.672 421.5,349.5 Z"/></g>
<g><path style="opacity:0.008" fill="#000000" d="M 336.5,349.5 C 336.5,349.833 336.5,350.167 336.5,350.5C 333.833,350.167 333.833,349.833 336.5,349.5 Z"/></g>
<g><path style="opacity:0.01" fill="#000000" d="M 419.5,349.5 C 420.167,349.5 420.833,349.5 421.5,349.5C 420.833,350.833 420.167,350.833 419.5,349.5 Z"/></g>
<g><path style="opacity:0.008" fill="#000000" d="M 336.5,350.5 C 337.239,350.369 337.906,350.536 338.5,351C 337.563,351.692 336.897,351.525 336.5,350.5 Z"/></g>
<g><path style="opacity:0.89" fill="#3439a1" d="M 421.5,347.5 C 421.5,347.833 421.5,348.167 421.5,348.5C 420.508,348.328 419.842,348.662 419.5,349.5C 418.209,349.263 417.209,349.596 416.5,350.5C 414.901,350.232 413.568,350.566 412.5,351.5C 389.498,351.667 366.498,351.5 343.5,351C 341.187,350.338 338.854,349.838 336.5,349.5C 336.5,349.167 336.5,348.833 336.5,348.5C 339.271,348.421 341.937,348.921 344.5,350C 366.833,350.667 389.167,350.667 411.5,350C 414.824,349.057 418.157,348.224 421.5,347.5 Z"/></g>
<g><path style="opacity:0.01" fill="#000000" d="M 416.5,350.5 C 417.239,350.369 417.906,350.536 418.5,351C 417.563,351.692 416.897,351.525 416.5,350.5 Z"/></g>
<g><path style="opacity:0.009" fill="#000000" d="M 339.5,352.5 C 340.251,351.427 341.251,351.26 342.5,352C 341.552,352.483 340.552,352.649 339.5,352.5 Z"/></g>
<g><path style="opacity:0.009" fill="#000000" d="M 412.5,351.5 C 413.552,351.351 414.552,351.517 415.5,352C 414.251,352.74 413.251,352.573 412.5,351.5 Z"/></g>
<g><path style="opacity:0.009" fill="#000000" d="M 344.5,353.5 C 366.663,352.337 388.996,352.17 411.5,353C 389.169,353.5 366.836,353.667 344.5,353.5 Z"/></g>
<g><path style="opacity:0.008" fill="#000000" d="M 51.5,413.5 C 51.6567,414.873 51.49,416.207 51,417.5C 50.235,415.934 50.4017,414.601 51.5,413.5 Z"/></g>
<g><path style="opacity:0.008" fill="#000000" d="M 457.5,413.5 C 458.598,414.601 458.765,415.934 458,417.5C 457.51,416.207 457.343,414.873 457.5,413.5 Z"/></g>
<g><path style="opacity:0.012" fill="#000000" d="M 51.5,418.5 C 52.525,418.897 52.6917,419.563 52,420.5C 51.5357,419.906 51.369,419.239 51.5,418.5 Z"/></g>
<g><path style="opacity:0.012" fill="#000000" d="M 456.5,418.5 C 457.525,418.897 457.692,419.563 457,420.5C 456.536,419.906 456.369,419.239 456.5,418.5 Z"/></g>
<g><path style="opacity:0.008" fill="#000000" d="M 53.5,423.5 C 52.475,423.103 52.3083,422.437 53,421.5C 53.4643,422.094 53.631,422.761 53.5,423.5 Z"/></g>
<g><path style="opacity:0.008" fill="#000000" d="M 455.5,423.5 C 455.369,422.761 455.536,422.094 456,421.5C 456.692,422.437 456.525,423.103 455.5,423.5 Z"/></g>
<g><path style="opacity:0.008" fill="#000000" d="M 53.5,423.5 C 53.8333,423.5 54.1667,423.5 54.5,423.5C 54.1667,426.167 53.8333,426.167 53.5,423.5 Z"/></g>
<g><path style="opacity:0.008" fill="#000000" d="M 454.5,423.5 C 454.833,423.5 455.167,423.5 455.5,423.5C 455.167,426.167 454.833,426.167 454.5,423.5 Z"/></g>
<g><path style="opacity:0.012" fill="#000000" d="M 54.5,426.5 C 55.8333,427.167 55.8333,427.167 54.5,426.5 Z"/></g>
<g><path style="opacity:0.012" fill="#000000" d="M 453.5,426.5 C 454.833,427.167 454.833,427.167 453.5,426.5 Z"/></g>
<g><path style="opacity:0.012" fill="#000000" d="M 56.5,428.5 C 55.8333,429.167 55.8333,429.167 56.5,428.5 Z"/></g>
<g><path style="opacity:0.012" fill="#000000" d="M 452.5,428.5 C 453.833,429.167 453.833,429.167 452.5,428.5 Z"/></g>
<g><path style="opacity:0.012" fill="#000000" d="M 56.5,430.5 C 57.8333,431.167 57.8333,431.167 56.5,430.5 Z"/></g>
<g><path style="opacity:0.012" fill="#000000" d="M 451.5,430.5 C 452.833,431.167 452.833,431.167 451.5,430.5 Z"/></g>
<g><path style="opacity:0.006" fill="#000000" d="M 450.5,431.5 C 450.833,431.5 451.167,431.5 451.5,431.5C 451.672,432.492 451.338,433.158 450.5,433.5C 450.5,432.833 450.5,432.167 450.5,431.5 Z"/></g>
<g><path style="opacity:0.009" fill="#000000" d="M 96.5,433.5 C 97.6009,432.402 98.9343,432.235 100.5,433C 99.2068,433.49 97.8734,433.657 96.5,433.5 Z"/></g>
<g><path style="opacity:0.004" fill="#000000" d="M 103.5,434.5 C 203.999,433.334 304.666,433.167 405.5,434C 304.834,434.5 204.167,434.667 103.5,434.5 Z"/></g>
<g><path style="opacity:0.012" fill="#000000" d="M 449.5,433.5 C 449.833,433.5 450.167,433.5 450.5,433.5C 450.315,434.17 449.981,434.17 449.5,433.5 Z"/></g>
<g><path style="opacity:0.008" fill="#000000" d="M 448.5,434.5 C 448.833,434.5 449.167,434.5 449.5,434.5C 449.672,435.492 449.338,436.158 448.5,436.5C 448.5,435.833 448.5,435.167 448.5,434.5 Z"/></g>
<g><path style="opacity:0.902" fill="#383dae" d="M 415.5,433.5 C 413.189,435.068 410.522,435.902 407.5,436C 305.5,436.667 203.5,436.667 101.5,436C 99.6183,435.802 97.9516,435.302 96.5,434.5C 199.819,435.653 303.152,435.82 406.5,435C 409.513,434.498 412.513,433.998 415.5,433.5 Z"/></g>
<g><path style="opacity:0.012" fill="#000000" d="M 447.5,436.5 C 447.833,436.5 448.167,436.5 448.5,436.5C 448.315,437.17 447.981,437.17 447.5,436.5 Z"/></g>
<g><path style="opacity:0.016" fill="#000000" d="M 446.5,437.5 C 446.833,437.5 447.167,437.5 447.5,437.5C 447.315,438.17 446.981,438.17 446.5,437.5 Z"/></g>
<g><path style="opacity:0.012" fill="#000000" d="M 445.5,438.5 C 445.833,438.5 446.167,438.5 446.5,438.5C 446.315,439.17 445.981,439.17 445.5,438.5 Z"/></g>
<g><path style="opacity:0.008" fill="#000000" d="M 444.5,439.5 C 444.833,439.5 445.167,439.5 445.5,439.5C 445.315,440.17 444.981,440.17 444.5,439.5 Z"/></g>
<g><path style="opacity:0.008" fill="#000000" d="M 439.5,444.5 C 440.833,445.167 440.833,445.167 439.5,444.5 Z"/></g>
<g><path style="opacity:0.012" fill="#000000" d="M 438.5,445.5 C 438.833,445.5 439.167,445.5 439.5,445.5C 439.315,446.17 438.981,446.17 438.5,445.5 Z"/></g>
<g><path style="opacity:0.016" fill="#000000" d="M 437.5,446.5 C 437.833,446.5 438.167,446.5 438.5,446.5C 438.315,447.17 437.981,447.17 437.5,446.5 Z"/></g>
<g><path style="opacity:0.012" fill="#000000" d="M 436.5,447.5 C 436.833,447.5 437.167,447.5 437.5,447.5C 437.315,448.17 436.981,448.17 436.5,447.5 Z"/></g>
<g><path style="opacity:0.006" fill="#000000" d="M 434.5,449.5 C 434.5,449.167 434.5,448.833 434.5,448.5C 435.167,448.5 435.833,448.5 436.5,448.5C 436.158,449.338 435.492,449.672 434.5,449.5 Z"/></g>
<g><path style="opacity:0.012" fill="#000000" d="M 433.5,449.5 C 433.833,449.5 434.167,449.5 434.5,449.5C 434.315,450.17 433.981,450.17 433.5,449.5 Z"/></g>
<g><path style="opacity:0.006" fill="#000000" d="M 77.5,450.5 C 77.5,450.833 77.5,451.167 77.5,451.5C 74.8333,451.167 74.8333,450.833 77.5,450.5 Z"/></g>
<g><path style="opacity:0.006" fill="#000000" d="M 431.5,451.5 C 431.5,451.167 431.5,450.833 431.5,450.5C 432.167,450.5 432.833,450.5 433.5,450.5C 433.158,451.338 432.492,451.672 431.5,451.5 Z"/></g>
<g><path style="opacity:0.012" fill="#000000" d="M 77.5,451.5 C 78.8333,452.167 78.8333,452.167 77.5,451.5 Z"/></g>
<g><path style="opacity:0.012" fill="#000000" d="M 431.5,451.5 C 430.833,452.167 430.833,452.167 431.5,451.5 Z"/></g>
<g><path style="opacity:0.012" fill="#000000" d="M 80.5,452.5 C 79.8333,453.167 79.8333,453.167 80.5,452.5 Z"/></g>
<g><path style="opacity:0.012" fill="#000000" d="M 428.5,452.5 C 429.833,453.167 429.833,453.167 428.5,452.5 Z"/></g>
<g><path style="opacity:0.012" fill="#000000" d="M 81.5,453.5 C 82.8333,454.167 82.8333,454.167 81.5,453.5 Z"/></g>
<g><path style="opacity:0.012" fill="#000000" d="M 426.5,453.5 C 427.833,454.167 427.833,454.167 426.5,453.5 Z"/></g>
<g><path style="opacity:0.008" fill="#000000" d="M 85.5,454.5 C 85.5,454.833 85.5,455.167 85.5,455.5C 82.8333,455.167 82.8333,454.833 85.5,454.5 Z"/></g>
<g><path style="opacity:0.008" fill="#000000" d="M 423.5,455.5 C 423.5,455.167 423.5,454.833 423.5,454.5C 426.167,454.833 426.167,455.167 423.5,455.5 Z"/></g>
<g><path style="opacity:0.008" fill="#000000" d="M 85.5,455.5 C 86.2389,455.369 86.9056,455.536 87.5,456C 86.5632,456.692 85.8966,456.525 85.5,455.5 Z"/></g>
<g><path style="opacity:0.008" fill="#000000" d="M 423.5,455.5 C 423.103,456.525 422.437,456.692 421.5,456C 422.094,455.536 422.761,455.369 423.5,455.5 Z"/></g>
<g><path style="opacity:0.012" fill="#000000" d="M 88.5,457.5 C 88.8966,456.475 89.5632,456.308 90.5,457C 89.9056,457.464 89.2389,457.631 88.5,457.5 Z"/></g>
<g><path style="opacity:0.902" fill="#373dab" d="M 88.5,454.5 C 91.2706,454.421 93.9373,454.921 96.5,456C 201.833,456.667 307.167,456.667 412.5,456C 415.117,455.178 417.784,454.678 420.5,454.5C 418.221,455.651 415.888,456.651 413.5,457.5C 307.5,457.5 201.5,457.5 95.5,457.5C 93.1124,456.651 90.7791,455.651 88.5,454.5 Z"/></g>
<g><path style="opacity:0.012" fill="#000000" d="M 418.5,457.5 C 418.897,456.475 419.563,456.308 420.5,457C 419.906,457.464 419.239,457.631 418.5,457.5 Z"/></g>
<g><path style="opacity:0.008" fill="#000000" d="M 95.5,457.5 C 94.3991,458.598 93.0657,458.765 91.5,458C 92.7932,457.51 94.1266,457.343 95.5,457.5 Z"/></g>
<g><path style="opacity:0.009" fill="#000000" d="M 413.5,457.5 C 414.873,457.343 416.207,457.51 417.5,458C 415.934,458.765 414.601,458.598 413.5,457.5 Z"/></g>
<g><path style="opacity:0.004" fill="#000000" d="M 96.5,458.5 C 201.835,458.167 307.169,458.5 412.5,459.5C 359.833,459.833 307.167,460.167 254.5,460.5C 201.496,460.5 148.829,459.833 96.5,458.5 Z"/></g>
</svg>
