<?xml version="1.0" encoding="UTF-8"?>
<!DOCTYPE svg PUBLIC "-//W3C//DTD SVG 1.1//EN" "http://www.w3.org/Graphics/SVG/1.1/DTD/svg11.dtd">
<svg xmlns="http://www.w3.org/2000/svg" version="1.1" width="512px" height="512px" style="shape-rendering:geometricPrecision; text-rendering:geometricPrecision; image-rendering:optimizeQuality; fill-rule:evenodd; clip-rule:evenodd" xmlns:xlink="http://www.w3.org/1999/xlink">
<g><path style="opacity:0.004" fill="#000000" d="M 343.5,69.5 C 345.288,68.3775 347.288,68.2109 349.5,69C 347.527,69.4955 345.527,69.6621 343.5,69.5 Z"/></g>
<g><path style="opacity:0.009" fill="#000000" d="M 335.5,70.5 C 336.946,69.3871 338.613,69.2204 340.5,70C 338.866,70.4935 337.199,70.6602 335.5,70.5 Z"/></g>
<g><path style="opacity:0.011" fill="#000000" d="M 353.5,70.5 C 354.601,69.4017 355.934,69.235 357.5,70C 356.207,70.49 354.873,70.6567 353.5,70.5 Z"/></g>
<g><path style="opacity:0.01" fill="#000000" d="M 330.5,71.5 C 331.251,70.4265 332.251,70.2599 333.5,71C 332.552,71.4828 331.552,71.6495 330.5,71.5 Z"/></g>
<g><path style="opacity:0.951" fill="#000000" d="M 358.5,71.5 C 359.568,72.4345 360.901,72.7678 362.5,72.5C 365.256,74.2038 368.256,75.5371 371.5,76.5C 377.833,80.8333 383.167,86.1667 387.5,92.5C 388.326,95.4848 389.659,98.1515 391.5,100.5C 391.263,101.791 391.596,102.791 392.5,103.5C 394.18,112.743 394.846,122.077 394.5,131.5C 393.662,131.842 393.328,132.508 393.5,133.5C 392.833,133.5 392.5,133.833 392.5,134.5C 391.5,134.833 390.833,135.5 390.5,136.5C 389.833,136.5 389.5,136.833 389.5,137.5C 388.508,137.328 387.842,137.662 387.5,138.5C 382.406,139.336 378.073,138.002 374.5,134.5C 372.948,127.148 371.615,119.814 370.5,112.5C 370.741,110.102 370.074,108.102 368.5,106.5C 366.895,101.896 363.895,98.5622 359.5,96.5C 358.791,95.596 357.791,95.2627 356.5,95.5C 355.432,94.5655 354.099,94.2322 352.5,94.5C 348.5,93.1667 344.5,93.1667 340.5,94.5C 338.585,94.2155 336.919,94.5489 335.5,95.5C 334.209,95.2627 333.209,95.596 332.5,96.5C 331.209,96.2627 330.209,96.596 329.5,97.5C 328.209,97.2627 327.209,97.596 326.5,98.5C 321.835,99.0569 317.502,100.39 313.5,102.5C 312.209,102.263 311.209,102.596 310.5,103.5C 309.209,103.263 308.209,103.596 307.5,104.5C 306.209,104.263 305.209,104.596 304.5,105.5C 303.209,105.263 302.209,105.596 301.5,106.5C 296.835,107.057 292.502,108.39 288.5,110.5C 287.209,110.263 286.209,110.596 285.5,111.5C 284.209,111.263 283.209,111.596 282.5,112.5C 281.209,112.263 280.209,112.596 279.5,113.5C 278.209,113.263 277.209,113.596 276.5,114.5C 271.835,115.057 267.502,116.39 263.5,118.5C 262.209,118.263 261.209,118.596 260.5,119.5C 259.209,119.263 258.209,119.596 257.5,120.5C 256.209,120.263 255.209,120.596 254.5,121.5C 253.209,121.263 252.209,121.596 251.5,122.5C 246.835,123.057 242.502,124.39 238.5,126.5C 237.209,126.263 236.209,126.596 235.5,127.5C 234.209,127.263 233.209,127.596 232.5,128.5C 231.209,128.263 230.209,128.596 229.5,129.5C 228.209,129.263 227.209,129.596 226.5,130.5C 221.835,131.057 217.502,132.39 213.5,134.5C 212.209,134.263 211.209,134.596 210.5,135.5C 209.209,135.263 208.209,135.596 207.5,136.5C 206.209,136.263 205.209,136.596 204.5,137.5C 203.209,137.263 202.209,137.596 201.5,138.5C 196.835,139.057 192.502,140.39 188.5,142.5C 187.209,142.263 186.209,142.596 185.5,143.5C 184.209,143.263 183.209,143.596 182.5,144.5C 181.209,144.263 180.209,144.596 179.5,145.5C 178.209,145.263 177.209,145.596 176.5,146.5C 171.835,147.057 167.502,148.39 163.5,150.5C 162.209,150.263 161.209,150.596 160.5,151.5C 159.209,151.263 158.209,151.596 157.5,152.5C 156.209,152.263 155.209,152.596 154.5,153.5C 153.209,153.263 152.209,153.596 151.5,154.5C 146.835,155.057 142.502,156.39 138.5,158.5C 137.209,158.263 136.209,158.596 135.5,159.5C 134.209,159.263 133.209,159.596 132.5,160.5C 131.209,160.263 130.209,160.596 129.5,161.5C 128.209,161.263 127.209,161.596 126.5,162.5C 121.835,163.057 117.502,164.39 113.5,166.5C 112.209,166.263 111.209,166.596 110.5,167.5C 109.209,167.263 108.209,167.596 107.5,168.5C 106.209,168.263 105.209,168.596 104.5,169.5C 103.209,169.263 102.209,169.596 101.5,170.5C 98.0836,170.528 95.0836,171.528 92.5,173.5C 91.5084,173.328 90.8417,173.662 90.5,174.5C 88.9731,174.427 87.9731,175.094 87.5,176.5C 86.8333,176.5 86.5,176.833 86.5,177.5C 85.8333,177.5 85.5,177.833 85.5,178.5C 84.1667,178.5 83.5,179.167 83.5,180.5C 82.8333,180.5 82.5,180.833 82.5,181.5C 81.8333,181.5 81.5,181.833 81.5,182.5C 80.0937,182.973 79.427,183.973 79.5,185.5C 78.6618,185.842 78.3284,186.508 78.5,187.5C 77.6618,187.842 77.3284,188.508 77.5,189.5C 76.037,192.203 75.2037,195.203 75,198.5C 74.3333,268.167 74.3333,337.833 75,407.5C 75.3645,414.219 77.8645,419.886 82.5,424.5C 82.8333,426.833 84.1667,428.167 86.5,428.5C 89.4,431.786 93.0666,433.786 97.5,434.5C 99.2922,435.309 101.292,435.809 103.5,436C 204.833,436.667 306.167,436.667 407.5,436C 414.219,435.635 419.886,433.135 424.5,428.5C 426.833,428.167 428.167,426.833 428.5,424.5C 433.135,419.886 435.635,414.219 436,407.5C 436.667,384.833 436.667,362.167 436,339.5C 434.955,340.373 434.122,341.373 433.5,342.5C 432.833,342.5 432.5,342.833 432.5,343.5C 431.833,343.5 431.5,343.833 431.5,344.5C 430.508,344.328 429.842,344.662 429.5,345.5C 428.833,345.5 428.5,345.833 428.5,346.5C 427.508,346.328 426.842,346.662 426.5,347.5C 425.508,347.328 424.842,347.662 424.5,348.5C 423.508,348.328 422.842,348.662 422.5,349.5C 421.508,349.328 420.842,349.662 420.5,350.5C 419.209,350.263 418.209,350.596 417.5,351.5C 415.901,351.232 414.568,351.566 413.5,352.5C 390.498,352.667 367.498,352.5 344.5,352C 342.187,351.338 339.854,350.838 337.5,350.5C 336.791,349.596 335.791,349.263 334.5,349.5C 333.486,348.326 332.153,347.66 330.5,347.5C 323.833,342.833 318.167,337.167 313.5,330.5C 312.537,327.256 311.204,324.256 309.5,321.5C 309.768,319.901 309.434,318.568 308.5,317.5C 308.114,309.387 308.781,301.387 310.5,293.5C 312.889,289.068 315.555,284.735 318.5,280.5C 320.167,279.5 321.5,278.167 322.5,276.5C 329.083,271.208 336.417,267.542 344.5,265.5C 366.836,265.333 389.169,265.5 411.5,266C 414.168,266.567 416.834,267.067 419.5,267.5C 421.649,268.736 423.982,269.736 426.5,270.5C 426.973,271.906 427.973,272.573 429.5,272.5C 430.436,273.974 431.77,274.974 433.5,275.5C 433.5,276.167 433.833,276.5 434.5,276.5C 434.783,277.289 435.283,277.956 436,278.5C 436.667,255.5 436.667,232.5 436,209.5C 435.802,207.618 435.302,205.952 434.5,204.5C 434.737,203.209 434.404,202.209 433.5,201.5C 433.672,200.508 433.338,199.842 432.5,199.5C 432.672,198.508 432.338,197.842 431.5,197.5C 431.672,196.508 431.338,195.842 430.5,195.5C 425.902,188.09 419.236,183.59 410.5,182C 343.501,181.5 276.501,181.333 209.5,181.5C 200.197,175.712 199.197,168.712 206.5,160.5C 208.153,160.34 209.486,159.674 210.5,158.5C 276.834,158.333 343.168,158.5 409.5,159C 427.001,161.071 440.668,169.238 450.5,183.5C 451.584,186.004 452.917,188.337 454.5,190.5C 454.402,192.553 455.069,194.22 456.5,195.5C 456.263,196.791 456.596,197.791 457.5,198.5C 459.113,233.533 458.78,268.533 456.5,303.5C 455.566,304.568 455.232,305.901 455.5,307.5C 454.167,308.833 454.167,310.167 455.5,311.5C 456.139,316.696 457.139,321.696 458.5,326.5C 458.5,355.833 458.5,385.167 458.5,414.5C 457.13,417.619 456.13,420.952 455.5,424.5C 454.069,425.78 453.402,427.447 453.5,429.5C 452.094,429.973 451.427,430.973 451.5,432.5C 450.662,432.842 450.328,433.508 450.5,434.5C 449.833,434.5 449.5,434.833 449.5,435.5C 448.662,435.842 448.328,436.508 448.5,437.5C 447.833,437.5 447.5,437.833 447.5,438.5C 446.833,438.5 446.5,438.833 446.5,439.5C 445.833,439.5 445.5,439.833 445.5,440.5C 443.5,441.833 441.833,443.5 440.5,445.5C 439.833,445.5 439.5,445.833 439.5,446.5C 438.833,446.5 438.5,446.833 438.5,447.5C 437.833,447.5 437.5,447.833 437.5,448.5C 436.508,448.328 435.842,448.662 435.5,449.5C 434.833,449.5 434.5,449.833 434.5,450.5C 433.508,450.328 432.842,450.662 432.5,451.5C 430.973,451.427 429.973,452.094 429.5,453.5C 427.447,453.402 425.78,454.069 424.5,455.5C 420.952,456.13 417.619,457.13 414.5,458.5C 308.5,458.5 202.5,458.5 96.5,458.5C 93.3811,457.13 90.0477,456.13 86.5,455.5C 85.2196,454.069 83.5529,453.402 81.5,453.5C 81.0269,452.094 80.0269,451.427 78.5,451.5C 70.1237,445.458 63.1237,438.124 57.5,429.5C 57.5979,427.447 56.9313,425.78 55.5,424.5C 54.8699,420.952 53.8699,417.619 52.5,414.5C 52.3333,340.166 52.5,265.833 53,191.5C 53.9428,188.176 54.7761,184.843 55.5,181.5C 60.0146,171.485 66.6812,163.152 75.5,156.5C 81.9678,152.93 88.6345,149.93 95.5,147.5C 96.791,147.737 97.791,147.404 98.5,146.5C 99.791,146.737 100.791,146.404 101.5,145.5C 108.167,144.276 114.501,142.276 120.5,139.5C 121.791,139.737 122.791,139.404 123.5,138.5C 131.168,136.943 138.501,134.609 145.5,131.5C 146.791,131.737 147.791,131.404 148.5,130.5C 156.168,128.943 163.501,126.609 170.5,123.5C 171.791,123.737 172.791,123.404 173.5,122.5C 174.791,122.737 175.791,122.404 176.5,121.5C 183.167,120.276 189.501,118.276 195.5,115.5C 196.791,115.737 197.791,115.404 198.5,114.5C 199.791,114.737 200.791,114.404 201.5,113.5C 208.167,112.276 214.501,110.276 220.5,107.5C 221.791,107.737 222.791,107.404 223.5,106.5C 231.168,104.943 238.501,102.609 245.5,99.5C 246.791,99.7373 247.791,99.404 248.5,98.5C 249.791,98.7373 250.791,98.404 251.5,97.5C 258.167,96.2762 264.501,94.2762 270.5,91.5C 271.791,91.7373 272.791,91.404 273.5,90.5C 274.791,90.7373 275.791,90.404 276.5,89.5C 283.167,88.2762 289.501,86.2762 295.5,83.5C 296.791,83.7373 297.791,83.404 298.5,82.5C 299.791,82.7373 300.791,82.404 301.5,81.5C 308.167,80.2762 314.501,78.2762 320.5,75.5C 321.791,75.7373 322.791,75.404 323.5,74.5C 324.791,74.7373 325.791,74.404 326.5,73.5C 337.042,70.7233 347.709,70.0566 358.5,71.5 Z M 85.5,178.5 C 85.1667,179.5 84.5,180.167 83.5,180.5C 83.5,179.167 84.1667,178.5 85.5,178.5 Z M 322.5,276.5 C 321.5,278.167 320.167,279.5 318.5,280.5C 318.833,278.167 320.167,276.833 322.5,276.5 Z M 410.5,289.5 C 408.473,289.338 406.473,289.505 404.5,290C 407.974,290.301 411.308,291.134 414.5,292.5C 415.107,292.376 415.44,292.043 415.5,291.5C 417.027,291.427 418.027,292.094 418.5,293.5C 417.984,294.758 418.65,295.758 420.5,296.5C 420.5,297.167 420.833,297.5 421.5,297.5C 422.836,299.01 424.003,300.677 425,302.5C 425.69,303.738 426.19,303.738 426.5,302.5C 427.906,302.973 428.573,303.973 428.5,305.5C 430.345,306.995 430.678,308.662 429.5,310.5C 429.631,309.761 429.464,309.094 429,308.5C 427.408,312.021 425.575,315.354 423.5,318.5C 422.833,318.5 422.5,318.833 422.5,319.5C 421.833,319.5 421.5,319.833 421.5,320.5C 420.5,320.833 419.833,321.5 419.5,322.5C 418.833,322.5 418.5,322.833 418.5,323.5C 417.527,323.987 416.527,324.487 415.5,325C 414.262,325.69 414.262,326.19 415.5,326.5C 415.158,327.338 414.492,327.672 413.5,327.5C 413.44,326.957 413.107,326.624 412.5,326.5C 411.205,327.098 409.872,327.598 408.5,328C 409.448,328.483 410.448,328.649 411.5,328.5C 410.391,329.29 409.058,329.79 407.5,330C 388.833,330.667 370.167,330.667 351.5,330C 349.292,329.809 347.292,329.309 345.5,328.5C 346.873,328.657 348.207,328.49 349.5,328C 347.782,327.654 346.115,327.154 344.5,326.5C 343.893,326.624 343.56,326.957 343.5,327.5C 342.508,327.672 341.842,327.338 341.5,326.5C 341.938,326.565 342.272,326.399 342.5,326C 339.333,324.167 336.833,321.667 335,318.5C 334.601,318.728 334.435,319.062 334.5,319.5C 332.896,318.713 332.229,317.38 332.5,315.5C 329.961,310.849 329.961,306.182 332.5,301.5C 332.351,302.552 332.517,303.552 333,304.5C 333.906,301.69 335.073,299.024 336.5,296.5C 337.167,296.5 337.5,296.167 337.5,295.5C 338.167,295.5 338.5,295.167 338.5,294.5C 339.167,294.5 339.5,294.167 339.5,293.5C 341.14,292.68 342.807,291.847 344.5,291C 343.906,290.536 343.239,290.369 342.5,290.5C 343.209,289.596 344.209,289.263 345.5,289.5C 367.167,288.167 388.833,288.167 410.5,289.5 Z M 339.5,292.5 C 339.5,292.833 339.5,293.167 339.5,293.5C 338.833,293.5 338.5,293.833 338.5,294.5C 337.833,294.5 337.5,294.833 337.5,295.5C 336.833,295.5 336.5,295.833 336.5,296.5C 336.167,296.5 335.833,296.5 335.5,296.5C 335.833,294.167 337.167,292.833 339.5,292.5 Z M 420.5,296.5 C 420.5,296.167 420.5,295.833 420.5,295.5C 421.833,295.5 422.5,296.167 422.5,297.5C 422.167,297.5 421.833,297.5 421.5,297.5C 420.833,297.5 420.5,297.167 420.5,296.5 Z M 423.5,318.5 C 423.833,318.5 424.167,318.5 424.5,318.5C 424.262,320.404 423.262,321.738 421.5,322.5C 421.5,321.833 421.5,321.167 421.5,320.5C 422.167,320.5 422.5,320.167 422.5,319.5C 423.167,319.5 423.5,319.167 423.5,318.5 Z M 419.5,322.5 C 420.167,322.5 420.833,322.5 421.5,322.5C 421.027,323.906 420.027,324.573 418.5,324.5C 418.5,324.167 418.5,323.833 418.5,323.5C 419.167,323.5 419.5,323.167 419.5,322.5 Z M 82.5,424.5 C 84.1667,425.5 85.5,426.833 86.5,428.5C 84.1667,428.167 82.8333,426.833 82.5,424.5 Z M 428.5,424.5 C 428.167,426.833 426.833,428.167 424.5,428.5C 425.5,426.833 426.833,425.5 428.5,424.5 Z"/></g>
<g><path style="opacity:0.009" fill="#000000" d="M 358.5,71.5 C 359.251,70.4265 360.251,70.2599 361.5,71C 360.552,71.4828 359.552,71.6495 358.5,71.5 Z"/></g>
<g><path style="opacity:0.01" fill="#000000" d="M 327.5,72.5 C 327.897,71.475 328.563,71.3083 329.5,72C 328.906,72.4643 328.239,72.631 327.5,72.5 Z"/></g>
<g><path style="opacity:0.01" fill="#000000" d="M 362.5,72.5 C 362.897,71.475 363.563,71.3083 364.5,72C 363.906,72.4643 363.239,72.631 362.5,72.5 Z"/></g>
<g><path style="opacity:0.01" fill="#000000" d="M 326.5,73.5 C 325.761,73.631 325.094,73.4643 324.5,73C 325.437,72.3083 326.103,72.475 326.5,73.5 Z"/></g>
<g><path style="opacity:0.008" fill="#000000" d="M 365.5,73.5 C 365.897,72.475 366.563,72.3083 367.5,73C 366.906,73.4643 366.239,73.631 365.5,73.5 Z"/></g>
<g><path style="opacity:0.01" fill="#000000" d="M 323.5,74.5 C 322.761,74.631 322.094,74.4643 321.5,74C 322.437,73.3083 323.103,73.475 323.5,74.5 Z"/></g>
<g><path style="opacity:0.01" fill="#000000" d="M 320.5,75.5 C 319.761,75.631 319.094,75.4643 318.5,75C 319.437,74.3083 320.103,74.475 320.5,75.5 Z"/></g>
<g><path style="opacity:0.012" fill="#000000" d="M 371.5,75.5 C 372.833,76.1667 372.833,76.1667 371.5,75.5 Z"/></g>
<g><path style="opacity:0.008" fill="#000000" d="M 373.5,76.5 C 374.833,77.1667 374.833,77.1667 373.5,76.5 Z"/></g>
<g><path style="opacity:0.008" fill="#000000" d="M 305.5,79.5 C 305.897,78.475 306.563,78.3083 307.5,79C 306.906,79.4643 306.239,79.631 305.5,79.5 Z"/></g>
<g><path style="opacity:0.01" fill="#000000" d="M 302.5,80.5 C 302.897,79.475 303.563,79.3083 304.5,80C 303.906,80.4643 303.239,80.631 302.5,80.5 Z"/></g>
<g><path style="opacity:0.01" fill="#000000" d="M 301.5,81.5 C 300.761,81.631 300.094,81.4643 299.5,81C 300.437,80.3083 301.103,80.475 301.5,81.5 Z"/></g>
<g><path style="opacity:0.01" fill="#000000" d="M 298.5,82.5 C 297.761,82.631 297.094,82.4643 296.5,82C 297.437,81.3083 298.103,81.475 298.5,82.5 Z"/></g>
<g><path style="opacity:0.01" fill="#000000" d="M 295.5,83.5 C 294.761,83.631 294.094,83.4643 293.5,83C 294.437,82.3083 295.103,82.475 295.5,83.5 Z"/></g>
<g><path style="opacity:0.008" fill="#000000" d="M 280.5,87.5 C 280.897,86.475 281.563,86.3083 282.5,87C 281.906,87.4643 281.239,87.631 280.5,87.5 Z"/></g>
<g><path style="opacity:0.01" fill="#000000" d="M 277.5,88.5 C 277.897,87.475 278.563,87.3083 279.5,88C 278.906,88.4643 278.239,88.631 277.5,88.5 Z"/></g>
<g><path style="opacity:0.01" fill="#000000" d="M 276.5,89.5 C 275.761,89.631 275.094,89.4643 274.5,89C 275.437,88.3083 276.103,88.475 276.5,89.5 Z"/></g>
<g><path style="opacity:0.01" fill="#000000" d="M 273.5,90.5 C 272.761,90.631 272.094,90.4643 271.5,90C 272.437,89.3083 273.103,89.475 273.5,90.5 Z"/></g>
<g><path style="opacity:0.01" fill="#000000" d="M 270.5,91.5 C 269.761,91.631 269.094,91.4643 268.5,91C 269.437,90.3083 270.103,90.475 270.5,91.5 Z"/></g>
<g><path style="opacity:0.008" fill="#000000" d="M 388.5,92.5 C 388.167,92.5 387.833,92.5 387.5,92.5C 387.833,89.8333 388.167,89.8333 388.5,92.5 Z"/></g>
<g><path style="opacity:0.008" fill="#000000" d="M 388.5,92.5 C 389.833,93.1667 389.833,93.1667 388.5,92.5 Z"/></g>
<g><path style="opacity:0.01" fill="#000000" d="M 255.5,95.5 C 255.897,94.475 256.563,94.3083 257.5,95C 256.906,95.4643 256.239,95.631 255.5,95.5 Z"/></g>
<g><path style="opacity:0.011" fill="#000000" d="M 340.5,94.5 C 344.5,94.5 348.5,94.5 352.5,94.5C 348.5,95.8333 344.5,95.8333 340.5,94.5 Z"/></g>
<g><path style="opacity:0.012" fill="#000000" d="M 389.5,94.5 C 390.833,95.1667 390.833,95.1667 389.5,94.5 Z"/></g>
<g><path style="opacity:0.01" fill="#000000" d="M 252.5,96.5 C 252.897,95.475 253.563,95.3083 254.5,96C 253.906,96.4643 253.239,96.631 252.5,96.5 Z"/></g>
<g><path style="opacity:0.008" fill="#000000" d="M 335.5,96.5 C 335.5,96.1667 335.5,95.8333 335.5,95.5C 340.833,95.8333 340.833,96.1667 335.5,96.5 Z"/></g>
<g><path style="opacity:0.009" fill="#000000" d="M 356.5,95.5 C 355.749,96.5735 354.749,96.7401 353.5,96C 354.448,95.5172 355.448,95.3505 356.5,95.5 Z"/></g>
<g><path style="opacity:0.01" fill="#000000" d="M 251.5,97.5 C 250.761,97.631 250.094,97.4643 249.5,97C 250.437,96.3083 251.103,96.475 251.5,97.5 Z"/></g>
<g><path style="opacity:0.008" fill="#000000" d="M 332.5,96.5 C 333.5,96.5 334.5,96.5 335.5,96.5C 334.5,97.8333 333.5,97.8333 332.5,96.5 Z"/></g>
<g><path style="opacity:0.008" fill="#000000" d="M 359.5,96.5 C 359.5,96.8333 359.5,97.1667 359.5,97.5C 356.833,97.1667 356.833,96.8333 359.5,96.5 Z"/></g>
<g><path style="opacity:0.012" fill="#000000" d="M 248.5,98.5 C 247.761,98.631 247.094,98.4643 246.5,98C 247.437,97.3083 248.103,97.475 248.5,98.5 Z"/></g>
<g><path style="opacity:0.012" fill="#000000" d="M 329.5,97.5 C 330.239,97.369 330.906,97.5357 331.5,98C 330.563,98.6917 329.897,98.525 329.5,97.5 Z"/></g>
<g><path style="opacity:0.012" fill="#000000" d="M 359.5,97.5 C 360.833,98.1667 360.833,98.1667 359.5,97.5 Z"/></g>
<g><path style="opacity:0.012" fill="#000000" d="M 245.5,99.5 C 244.761,99.631 244.094,99.4643 243.5,99C 244.437,98.3083 245.103,98.475 245.5,99.5 Z"/></g>
<g><path style="opacity:0.01" fill="#000000" d="M 326.5,98.5 C 327.239,98.369 327.906,98.5357 328.5,99C 327.563,99.6917 326.897,99.525 326.5,98.5 Z"/></g>
<g><path style="opacity:0.01" fill="#000000" d="M 391.5,100.5 C 391.369,99.7611 391.536,99.0944 392,98.5C 392.692,99.4368 392.525,100.103 391.5,100.5 Z"/></g>
<g><path style="opacity:0.01" fill="#000000" d="M 323.5,100.5 C 323.897,99.475 324.563,99.3083 325.5,100C 324.906,100.464 324.239,100.631 323.5,100.5 Z"/></g>
<g><path style="opacity:0.01" fill="#000000" d="M 320.5,101.5 C 320.897,100.475 321.563,100.308 322.5,101C 321.906,101.464 321.239,101.631 320.5,101.5 Z"/></g>
<g><path style="opacity:0.01" fill="#000000" d="M 317.5,102.5 C 317.897,101.475 318.563,101.308 319.5,102C 318.906,102.464 318.239,102.631 317.5,102.5 Z"/></g>
<g><path style="opacity:0.01" fill="#000000" d="M 392.5,103.5 C 392.369,102.761 392.536,102.094 393,101.5C 393.692,102.437 393.525,103.103 392.5,103.5 Z"/></g>
<g><path style="opacity:0.008" fill="#000000" d="M 230.5,103.5 C 230.897,102.475 231.563,102.308 232.5,103C 231.906,103.464 231.239,103.631 230.5,103.5 Z"/></g>
<g><path style="opacity:0.007" fill="#000000" d="M 313.5,103.5 C 313.5,103.167 313.5,102.833 313.5,102.5C 317.5,102.833 317.5,103.167 313.5,103.5 Z"/></g>
<g><path style="opacity:0.01" fill="#000000" d="M 227.5,104.5 C 227.897,103.475 228.563,103.308 229.5,104C 228.906,104.464 228.239,104.631 227.5,104.5 Z"/></g>
<g><path style="opacity:0.008" fill="#000000" d="M 310.5,104.5 C 310.5,104.167 310.5,103.833 310.5,103.5C 311.5,103.5 312.5,103.5 313.5,103.5C 312.791,104.404 311.791,104.737 310.5,104.5 Z"/></g>
<g><path style="opacity:0.01" fill="#000000" d="M 224.5,105.5 C 224.897,104.475 225.563,104.308 226.5,105C 225.906,105.464 225.239,105.631 224.5,105.5 Z"/></g>
<g><path style="opacity:0.008" fill="#000000" d="M 307.5,104.5 C 308.5,104.5 309.5,104.5 310.5,104.5C 309.5,105.833 308.5,105.833 307.5,104.5 Z"/></g>
<g><path style="opacity:0.012" fill="#000000" d="M 393.5,104.5 C 394.525,104.897 394.692,105.563 394,106.5C 393.536,105.906 393.369,105.239 393.5,104.5 Z"/></g>
<g><path style="opacity:0.012" fill="#000000" d="M 223.5,106.5 C 222.761,106.631 222.094,106.464 221.5,106C 222.437,105.308 223.103,105.475 223.5,106.5 Z"/></g>
<g><path style="opacity:0.012" fill="#000000" d="M 304.5,105.5 C 305.239,105.369 305.906,105.536 306.5,106C 305.563,106.692 304.897,106.525 304.5,105.5 Z"/></g>
<g><path style="opacity:0.012" fill="#000000" d="M 220.5,107.5 C 219.761,107.631 219.094,107.464 218.5,107C 219.437,106.308 220.103,106.475 220.5,107.5 Z"/></g>
<g><path style="opacity:0.01" fill="#000000" d="M 301.5,106.5 C 302.239,106.369 302.906,106.536 303.5,107C 302.563,107.692 301.897,107.525 301.5,106.5 Z"/></g>
<g><path style="opacity:0.01" fill="#000000" d="M 368.5,106.5 C 368.631,107.239 368.464,107.906 368,108.5C 367.308,107.563 367.475,106.897 368.5,106.5 Z"/></g>
<g><path style="opacity:0.01" fill="#000000" d="M 298.5,108.5 C 298.897,107.475 299.563,107.308 300.5,108C 299.906,108.464 299.239,108.631 298.5,108.5 Z"/></g>
<g><path style="opacity:0.009" fill="#000000" d="M 394.5,107.5 C 395.598,108.601 395.765,109.934 395,111.5C 394.51,110.207 394.343,108.873 394.5,107.5 Z"/></g>
<g><path style="opacity:0.012" fill="#000000" d="M 295.5,109.5 C 295.897,108.475 296.563,108.308 297.5,109C 296.906,109.464 296.239,109.631 295.5,109.5 Z"/></g>
<g><path style="opacity:0.01" fill="#000000" d="M 292.5,110.5 C 292.897,109.475 293.563,109.308 294.5,110C 293.906,110.464 293.239,110.631 292.5,110.5 Z"/></g>
<g><path style="opacity:0.01" fill="#000000" d="M 368.5,109.5 C 369.525,109.897 369.692,110.563 369,111.5C 368.536,110.906 368.369,110.239 368.5,109.5 Z"/></g>
<g><path style="opacity:0.008" fill="#000000" d="M 205.5,111.5 C 205.897,110.475 206.563,110.308 207.5,111C 206.906,111.464 206.239,111.631 205.5,111.5 Z"/></g>
<g><path style="opacity:0.007" fill="#000000" d="M 288.5,111.5 C 288.5,111.167 288.5,110.833 288.5,110.5C 292.5,110.833 292.5,111.167 288.5,111.5 Z"/></g>
<g><path style="opacity:0.01" fill="#000000" d="M 202.5,112.5 C 202.897,111.475 203.563,111.308 204.5,112C 203.906,112.464 203.239,112.631 202.5,112.5 Z"/></g>
<g><path style="opacity:0.008" fill="#000000" d="M 285.5,112.5 C 285.5,112.167 285.5,111.833 285.5,111.5C 286.5,111.5 287.5,111.5 288.5,111.5C 287.791,112.404 286.791,112.737 285.5,112.5 Z"/></g>
<g><path style="opacity:0.01" fill="#000000" d="M 201.5,113.5 C 200.761,113.631 200.094,113.464 199.5,113C 200.437,112.308 201.103,112.475 201.5,113.5 Z"/></g>
<g><path style="opacity:0.008" fill="#000000" d="M 282.5,112.5 C 283.5,112.5 284.5,112.5 285.5,112.5C 284.5,113.833 283.5,113.833 282.5,112.5 Z"/></g>
<g><path style="opacity:0.009" fill="#000000" d="M 370.5,112.5 C 370.66,114.199 370.494,115.866 370,117.5C 369.22,115.613 369.387,113.946 370.5,112.5 Z"/></g>
<g><path style="opacity:0.01" fill="#000000" d="M 198.5,114.5 C 197.761,114.631 197.094,114.464 196.5,114C 197.437,113.308 198.103,113.475 198.5,114.5 Z"/></g>
<g><path style="opacity:0.01" fill="#000000" d="M 279.5,113.5 C 280.239,113.369 280.906,113.536 281.5,114C 280.563,114.692 279.897,114.525 279.5,113.5 Z"/></g>
<g><path style="opacity:0.008" fill="#000000" d="M 395.5,131.5 C 395.334,125.491 395.501,119.491 396,113.5C 396.819,119.681 396.653,125.681 395.5,131.5 Z"/></g>
<g><path style="opacity:0.01" fill="#000000" d="M 195.5,115.5 C 194.761,115.631 194.094,115.464 193.5,115C 194.437,114.308 195.103,114.475 195.5,115.5 Z"/></g>
<g><path style="opacity:0.01" fill="#000000" d="M 276.5,114.5 C 277.239,114.369 277.906,114.536 278.5,115C 277.563,115.692 276.897,115.525 276.5,114.5 Z"/></g>
<g><path style="opacity:0.01" fill="#000000" d="M 273.5,116.5 C 273.897,115.475 274.563,115.308 275.5,116C 274.906,116.464 274.239,116.631 273.5,116.5 Z"/></g>
<g><path style="opacity:0.01" fill="#000000" d="M 270.5,117.5 C 270.897,116.475 271.563,116.308 272.5,117C 271.906,117.464 271.239,117.631 270.5,117.5 Z"/></g>
<g><path style="opacity:0.008" fill="#000000" d="M 267.5,118.5 C 267.897,117.475 268.563,117.308 269.5,118C 268.906,118.464 268.239,118.631 267.5,118.5 Z"/></g>
<g><path style="opacity:0.008" fill="#000000" d="M 180.5,119.5 C 180.897,118.475 181.563,118.308 182.5,119C 181.906,119.464 181.239,119.631 180.5,119.5 Z"/></g>
<g><path style="opacity:0.007" fill="#000000" d="M 263.5,119.5 C 263.5,119.167 263.5,118.833 263.5,118.5C 267.5,118.833 267.5,119.167 263.5,119.5 Z"/></g>
<g><path style="opacity:0.01" fill="#000000" d="M 177.5,120.5 C 177.897,119.475 178.563,119.308 179.5,120C 178.906,120.464 178.239,120.631 177.5,120.5 Z"/></g>
<g><path style="opacity:0.008" fill="#000000" d="M 260.5,120.5 C 260.5,120.167 260.5,119.833 260.5,119.5C 261.5,119.5 262.5,119.5 263.5,119.5C 262.791,120.404 261.791,120.737 260.5,120.5 Z"/></g>
<g><path style="opacity:0.01" fill="#000000" d="M 176.5,121.5 C 175.761,121.631 175.094,121.464 174.5,121C 175.437,120.308 176.103,120.475 176.5,121.5 Z"/></g>
<g><path style="opacity:0.008" fill="#000000" d="M 257.5,120.5 C 258.5,120.5 259.5,120.5 260.5,120.5C 259.5,121.833 258.5,121.833 257.5,120.5 Z"/></g>
<g><path style="opacity:0.007" fill="#000000" d="M 370.5,120.5 C 371.643,123.976 371.81,127.642 371,131.5C 370.501,127.848 370.335,124.182 370.5,120.5 Z"/></g>
<g><path style="opacity:0.01" fill="#000000" d="M 173.5,122.5 C 172.761,122.631 172.094,122.464 171.5,122C 172.437,121.308 173.103,121.475 173.5,122.5 Z"/></g>
<g><path style="opacity:0.01" fill="#000000" d="M 254.5,121.5 C 255.239,121.369 255.906,121.536 256.5,122C 255.563,122.692 254.897,122.525 254.5,121.5 Z"/></g>
<g><path style="opacity:0.01" fill="#000000" d="M 170.5,123.5 C 169.761,123.631 169.094,123.464 168.5,123C 169.437,122.308 170.103,122.475 170.5,123.5 Z"/></g>
<g><path style="opacity:0.01" fill="#000000" d="M 251.5,122.5 C 252.239,122.369 252.906,122.536 253.5,123C 252.563,123.692 251.897,123.525 251.5,122.5 Z"/></g>
<g><path style="opacity:0.01" fill="#000000" d="M 248.5,124.5 C 248.897,123.475 249.563,123.308 250.5,124C 249.906,124.464 249.239,124.631 248.5,124.5 Z"/></g>
<g><path style="opacity:0.012" fill="#000000" d="M 245.5,125.5 C 245.897,124.475 246.563,124.308 247.5,125C 246.906,125.464 246.239,125.631 245.5,125.5 Z"/></g>
<g><path style="opacity:0.008" fill="#000000" d="M 242.5,126.5 C 242.897,125.475 243.563,125.308 244.5,126C 243.906,126.464 243.239,126.631 242.5,126.5 Z"/></g>
<g><path style="opacity:0.01" fill="#000000" d="M 155.5,127.5 C 155.897,126.475 156.563,126.308 157.5,127C 156.906,127.464 156.239,127.631 155.5,127.5 Z"/></g>
<g><path style="opacity:0.007" fill="#000000" d="M 238.5,127.5 C 238.5,127.167 238.5,126.833 238.5,126.5C 242.5,126.833 242.5,127.167 238.5,127.5 Z"/></g>
<g><path style="opacity:0.01" fill="#000000" d="M 152.5,128.5 C 152.897,127.475 153.563,127.308 154.5,128C 153.906,128.464 153.239,128.631 152.5,128.5 Z"/></g>
<g><path style="opacity:0.008" fill="#000000" d="M 235.5,128.5 C 235.5,128.167 235.5,127.833 235.5,127.5C 236.5,127.5 237.5,127.5 238.5,127.5C 237.791,128.404 236.791,128.737 235.5,128.5 Z"/></g>
<g><path style="opacity:0.01" fill="#000000" d="M 149.5,129.5 C 149.897,128.475 150.563,128.308 151.5,129C 150.906,129.464 150.239,129.631 149.5,129.5 Z"/></g>
<g><path style="opacity:0.008" fill="#000000" d="M 232.5,128.5 C 233.5,128.5 234.5,128.5 235.5,128.5C 234.5,129.833 233.5,129.833 232.5,128.5 Z"/></g>
<g><path style="opacity:0.012" fill="#000000" d="M 148.5,130.5 C 147.761,130.631 147.094,130.464 146.5,130C 147.437,129.308 148.103,129.475 148.5,130.5 Z"/></g>
<g><path style="opacity:0.012" fill="#000000" d="M 229.5,129.5 C 230.239,129.369 230.906,129.536 231.5,130C 230.563,130.692 229.897,130.525 229.5,129.5 Z"/></g>
<g><path style="opacity:0.01" fill="#000000" d="M 145.5,131.5 C 144.761,131.631 144.094,131.464 143.5,131C 144.437,130.308 145.103,130.475 145.5,131.5 Z"/></g>
<g><path style="opacity:0.01" fill="#000000" d="M 226.5,130.5 C 227.239,130.369 227.906,130.536 228.5,131C 227.563,131.692 226.897,131.525 226.5,130.5 Z"/></g>
<g><path style="opacity:0.01" fill="#000000" d="M 223.5,132.5 C 223.897,131.475 224.563,131.308 225.5,132C 224.906,132.464 224.239,132.631 223.5,132.5 Z"/></g>
<g><path style="opacity:0.008" fill="#000000" d="M 394.5,131.5 C 394.833,131.5 395.167,131.5 395.5,131.5C 395.672,132.492 395.338,133.158 394.5,133.5C 394.5,132.833 394.5,132.167 394.5,131.5 Z"/></g>
<g><path style="opacity:0.012" fill="#000000" d="M 220.5,133.5 C 220.897,132.475 221.563,132.308 222.5,133C 221.906,133.464 221.239,133.631 220.5,133.5 Z"/></g>
<g><path style="opacity:0.01" fill="#000000" d="M 217.5,134.5 C 217.897,133.475 218.563,133.308 219.5,134C 218.906,134.464 218.239,134.631 217.5,134.5 Z"/></g>
<g><path style="opacity:0.012" fill="#000000" d="M 393.5,133.5 C 393.833,133.5 394.167,133.5 394.5,133.5C 394.315,134.17 393.981,134.17 393.5,133.5 Z"/></g>
<g><path style="opacity:0.008" fill="#000000" d="M 130.5,135.5 C 130.897,134.475 131.563,134.308 132.5,135C 131.906,135.464 131.239,135.631 130.5,135.5 Z"/></g>
<g><path style="opacity:0.007" fill="#000000" d="M 213.5,135.5 C 213.5,135.167 213.5,134.833 213.5,134.5C 217.5,134.833 217.5,135.167 213.5,135.5 Z"/></g>
<g><path style="opacity:0.004" fill="#000000" d="M 374.5,134.5 C 374.631,135.239 374.464,135.906 374,136.5C 373.308,135.563 373.475,134.897 374.5,134.5 Z"/></g>
<g><path style="opacity:0.004" fill="#000000" d="M 392.5,134.5 C 392.833,134.5 393.167,134.5 393.5,134.5C 393.315,135.17 392.981,135.17 392.5,134.5 Z"/></g>
<g><path style="opacity:0.01" fill="#000000" d="M 127.5,136.5 C 127.897,135.475 128.563,135.308 129.5,136C 128.906,136.464 128.239,136.631 127.5,136.5 Z"/></g>
<g><path style="opacity:0.008" fill="#000000" d="M 210.5,136.5 C 210.5,136.167 210.5,135.833 210.5,135.5C 211.5,135.5 212.5,135.5 213.5,135.5C 212.791,136.404 211.791,136.737 210.5,136.5 Z"/></g>
<g><path style="opacity:0.01" fill="#000000" d="M 124.5,137.5 C 124.897,136.475 125.563,136.308 126.5,137C 125.906,137.464 125.239,137.631 124.5,137.5 Z"/></g>
<g><path style="opacity:0.008" fill="#000000" d="M 207.5,136.5 C 208.5,136.5 209.5,136.5 210.5,136.5C 209.5,137.833 208.5,137.833 207.5,136.5 Z"/></g>
<g><path style="opacity:0.004" fill="#000000" d="M 390.5,136.5 C 391.833,137.167 391.833,137.167 390.5,136.5 Z"/></g>
<g><path style="opacity:0.01" fill="#000000" d="M 123.5,138.5 C 122.761,138.631 122.094,138.464 121.5,138C 122.437,137.308 123.103,137.475 123.5,138.5 Z"/></g>
<g><path style="opacity:0.012" fill="#000000" d="M 204.5,137.5 C 205.239,137.369 205.906,137.536 206.5,138C 205.563,138.692 204.897,138.525 204.5,137.5 Z"/></g>
<g><path style="opacity:0.012" fill="#000000" d="M 389.5,137.5 C 389.833,137.5 390.167,137.5 390.5,137.5C 390.315,138.17 389.981,138.17 389.5,137.5 Z"/></g>
<g><path style="opacity:0.01" fill="#000000" d="M 120.5,139.5 C 119.761,139.631 119.094,139.464 118.5,139C 119.437,138.308 120.103,138.475 120.5,139.5 Z"/></g>
<g><path style="opacity:0.01" fill="#000000" d="M 201.5,138.5 C 202.239,138.369 202.906,138.536 203.5,139C 202.563,139.692 201.897,139.525 201.5,138.5 Z"/></g>
<g><path style="opacity:0.008" fill="#000000" d="M 387.5,139.5 C 387.5,139.167 387.5,138.833 387.5,138.5C 388.167,138.5 388.833,138.5 389.5,138.5C 389.158,139.338 388.492,139.672 387.5,139.5 Z"/></g>
<g><path style="opacity:0.01" fill="#000000" d="M 198.5,140.5 C 198.897,139.475 199.563,139.308 200.5,140C 199.906,140.464 199.239,140.631 198.5,140.5 Z"/></g>
<g><path style="opacity:0.009" fill="#000000" d="M 387.5,139.5 C 385.034,140.634 382.367,140.801 379.5,140C 382.146,139.503 384.813,139.336 387.5,139.5 Z"/></g>
<g><path style="opacity:0.01" fill="#000000" d="M 195.5,141.5 C 195.897,140.475 196.563,140.308 197.5,141C 196.906,141.464 196.239,141.631 195.5,141.5 Z"/></g>
<g><path style="opacity:0.008" fill="#000000" d="M 192.5,142.5 C 192.897,141.475 193.563,141.308 194.5,142C 193.906,142.464 193.239,142.631 192.5,142.5 Z"/></g>
<g><path style="opacity:0.008" fill="#000000" d="M 105.5,143.5 C 105.897,142.475 106.563,142.308 107.5,143C 106.906,143.464 106.239,143.631 105.5,143.5 Z"/></g>
<g><path style="opacity:0.007" fill="#000000" d="M 188.5,143.5 C 188.5,143.167 188.5,142.833 188.5,142.5C 192.5,142.833 192.5,143.167 188.5,143.5 Z"/></g>
<g><path style="opacity:0.01" fill="#000000" d="M 102.5,144.5 C 102.897,143.475 103.563,143.308 104.5,144C 103.906,144.464 103.239,144.631 102.5,144.5 Z"/></g>
<g><path style="opacity:0.008" fill="#000000" d="M 185.5,144.5 C 185.5,144.167 185.5,143.833 185.5,143.5C 186.5,143.5 187.5,143.5 188.5,143.5C 187.791,144.404 186.791,144.737 185.5,144.5 Z"/></g>
<g><path style="opacity:0.01" fill="#000000" d="M 101.5,145.5 C 100.761,145.631 100.094,145.464 99.5,145C 100.437,144.308 101.103,144.475 101.5,145.5 Z"/></g>
<g><path style="opacity:0.008" fill="#000000" d="M 182.5,144.5 C 183.5,144.5 184.5,144.5 185.5,144.5C 184.5,145.833 183.5,145.833 182.5,144.5 Z"/></g>
<g><path style="opacity:0.01" fill="#000000" d="M 98.5,146.5 C 97.7611,146.631 97.0944,146.464 96.5,146C 97.4368,145.308 98.1034,145.475 98.5,146.5 Z"/></g>
<g><path style="opacity:0.01" fill="#000000" d="M 179.5,145.5 C 180.239,145.369 180.906,145.536 181.5,146C 180.563,146.692 179.897,146.525 179.5,145.5 Z"/></g>
<g><path style="opacity:0.01" fill="#000000" d="M 95.5,147.5 C 94.7611,147.631 94.0944,147.464 93.5,147C 94.4368,146.308 95.1034,146.475 95.5,147.5 Z"/></g>
<g><path style="opacity:0.01" fill="#000000" d="M 176.5,146.5 C 177.239,146.369 177.906,146.536 178.5,147C 177.563,147.692 176.897,147.525 176.5,146.5 Z"/></g>
<g><path style="opacity:0.01" fill="#000000" d="M 173.5,148.5 C 173.897,147.475 174.563,147.308 175.5,148C 174.906,148.464 174.239,148.631 173.5,148.5 Z"/></g>
<g><path style="opacity:0.01" fill="#000000" d="M 170.5,149.5 C 170.897,148.475 171.563,148.308 172.5,149C 171.906,149.464 171.239,149.631 170.5,149.5 Z"/></g>
<g><path style="opacity:0.008" fill="#000000" d="M 167.5,150.5 C 167.897,149.475 168.563,149.308 169.5,150C 168.906,150.464 168.239,150.631 167.5,150.5 Z"/></g>
<g><path style="opacity:0.007" fill="#000000" d="M 163.5,151.5 C 163.5,151.167 163.5,150.833 163.5,150.5C 167.5,150.833 167.5,151.167 163.5,151.5 Z"/></g>
<g><path style="opacity:0.008" fill="#000000" d="M 160.5,152.5 C 160.5,152.167 160.5,151.833 160.5,151.5C 161.5,151.5 162.5,151.5 163.5,151.5C 162.791,152.404 161.791,152.737 160.5,152.5 Z"/></g>
<g><path style="opacity:0.008" fill="#000000" d="M 157.5,152.5 C 158.5,152.5 159.5,152.5 160.5,152.5C 159.5,153.833 158.5,153.833 157.5,152.5 Z"/></g>
<g><path style="opacity:0.01" fill="#000000" d="M 154.5,153.5 C 155.239,153.369 155.906,153.536 156.5,154C 155.563,154.692 154.897,154.525 154.5,153.5 Z"/></g>
<g><path style="opacity:0.012" fill="#000000" d="M 75.5,154.5 C 76.8333,155.167 76.8333,155.167 75.5,154.5 Z"/></g>
<g><path style="opacity:0.01" fill="#000000" d="M 151.5,154.5 C 152.239,154.369 152.906,154.536 153.5,155C 152.563,155.692 151.897,155.525 151.5,154.5 Z"/></g>
<g><path style="opacity:0.012" fill="#000000" d="M 75.5,155.5 C 75.5,155.833 75.5,156.167 75.5,156.5C 74.8299,156.019 74.8299,155.685 75.5,155.5 Z"/></g>
<g><path style="opacity:0.01" fill="#000000" d="M 148.5,156.5 C 148.897,155.475 149.563,155.308 150.5,156C 149.906,156.464 149.239,156.631 148.5,156.5 Z"/></g>
<g><path style="opacity:0.008" fill="#000000" d="M 72.5,156.5 C 73.8333,157.167 73.8333,157.167 72.5,156.5 Z"/></g>
<g><path style="opacity:0.01" fill="#000000" d="M 145.5,157.5 C 145.897,156.475 146.563,156.308 147.5,157C 146.906,157.464 146.239,157.631 145.5,157.5 Z"/></g>
<g><path style="opacity:0.008" fill="#000000" d="M 142.5,158.5 C 142.897,157.475 143.563,157.308 144.5,158C 143.906,158.464 143.239,158.631 142.5,158.5 Z"/></g>
<g><path style="opacity:0.01" fill="#000000" d="M 210.5,158.5 C 209.761,158.631 209.094,158.464 208.5,158C 209.437,157.308 210.103,157.475 210.5,158.5 Z"/></g>
<g><path style="opacity:0.009" fill="#000000" d="M 410.5,158.5 C 411.946,157.387 413.613,157.22 415.5,158C 413.866,158.494 412.199,158.66 410.5,158.5 Z"/></g>
<g><path style="opacity:0.007" fill="#000000" d="M 138.5,159.5 C 138.5,159.167 138.5,158.833 138.5,158.5C 142.5,158.833 142.5,159.167 138.5,159.5 Z"/></g>
<g><path style="opacity:0.008" fill="#000000" d="M 206.5,158.5 C 207.833,159.167 207.833,159.167 206.5,158.5 Z"/></g>
<g><path style="opacity:0.009" fill="#000000" d="M 416.5,159.5 C 417.251,158.427 418.251,158.26 419.5,159C 418.552,159.483 417.552,159.649 416.5,159.5 Z"/></g>
<g><path style="opacity:0.008" fill="#000000" d="M 135.5,160.5 C 135.5,160.167 135.5,159.833 135.5,159.5C 136.5,159.5 137.5,159.5 138.5,159.5C 137.791,160.404 136.791,160.737 135.5,160.5 Z"/></g>
<g><path style="opacity:0.008" fill="#000000" d="M 206.5,159.5 C 206.5,159.833 206.5,160.167 206.5,160.5C 205.83,160.019 205.83,159.685 206.5,159.5 Z"/></g>
<g><path style="opacity:0.01" fill="#000000" d="M 420.5,160.5 C 420.897,159.475 421.563,159.308 422.5,160C 421.906,160.464 421.239,160.631 420.5,160.5 Z"/></g>
<g><path style="opacity:0.008" fill="#000000" d="M 132.5,160.5 C 133.5,160.5 134.5,160.5 135.5,160.5C 134.5,161.833 133.5,161.833 132.5,160.5 Z"/></g>
<g><path style="opacity:0.004" fill="#000000" d="M 203.5,160.5 C 204.833,161.167 204.833,161.167 203.5,160.5 Z"/></g>
<g><path style="opacity:0.008" fill="#000000" d="M 423.5,161.5 C 423.897,160.475 424.563,160.308 425.5,161C 424.906,161.464 424.239,161.631 423.5,161.5 Z"/></g>
<g><path style="opacity:0.012" fill="#000000" d="M 129.5,161.5 C 130.239,161.369 130.906,161.536 131.5,162C 130.563,162.692 129.897,162.525 129.5,161.5 Z"/></g>
<g><path style="opacity:0.01" fill="#000000" d="M 126.5,162.5 C 127.239,162.369 127.906,162.536 128.5,163C 127.563,163.692 126.897,163.525 126.5,162.5 Z"/></g>
<g><path style="opacity:0.01" fill="#000000" d="M 123.5,164.5 C 123.897,163.475 124.563,163.308 125.5,164C 124.906,164.464 124.239,164.631 123.5,164.5 Z"/></g>
<g><path style="opacity:0.01" fill="#000000" d="M 120.5,165.5 C 120.897,164.475 121.563,164.308 122.5,165C 121.906,165.464 121.239,165.631 120.5,165.5 Z"/></g>
<g><path style="opacity:0.008" fill="#000000" d="M 117.5,166.5 C 117.897,165.475 118.563,165.308 119.5,166C 118.906,166.464 118.239,166.631 117.5,166.5 Z"/></g>
<g><path style="opacity:0.007" fill="#000000" d="M 113.5,167.5 C 113.5,167.167 113.5,166.833 113.5,166.5C 117.5,166.833 117.5,167.167 113.5,167.5 Z"/></g>
<g><path style="opacity:0.008" fill="#000000" d="M 61.5,167.5 C 62.8333,168.167 62.8333,168.167 61.5,167.5 Z"/></g>
<g><path style="opacity:0.008" fill="#000000" d="M 110.5,168.5 C 110.5,168.167 110.5,167.833 110.5,167.5C 111.5,167.5 112.5,167.5 113.5,167.5C 112.791,168.404 111.791,168.737 110.5,168.5 Z"/></g>
<g><path style="opacity:0.009" fill="#000000" d="M 199.5,167.5 C 200.613,168.946 200.78,170.613 200,172.5C 199.506,170.866 199.34,169.199 199.5,167.5 Z"/></g>
<g><path style="opacity:0.008" fill="#000000" d="M 107.5,168.5 C 108.5,168.5 109.5,168.5 110.5,168.5C 109.5,169.833 108.5,169.833 107.5,168.5 Z"/></g>
<g><path style="opacity:0.012" fill="#000000" d="M 104.5,169.5 C 105.239,169.369 105.906,169.536 106.5,170C 105.563,170.692 104.897,170.525 104.5,169.5 Z"/></g>
<g><path style="opacity:0.01" fill="#000000" d="M 101.5,170.5 C 102.239,170.369 102.906,170.536 103.5,171C 102.563,171.692 101.897,171.525 101.5,170.5 Z"/></g>
<g><path style="opacity:0.01" fill="#000000" d="M 98.5,172.5 C 98.8966,171.475 99.5632,171.308 100.5,172C 99.9056,172.464 99.2389,172.631 98.5,172.5 Z"/></g>
<g><path style="opacity:0.01" fill="#000000" d="M 95.5,173.5 C 95.8966,172.475 96.5632,172.308 97.5,173C 96.9056,173.464 96.2389,173.631 95.5,173.5 Z"/></g>
<g><path style="opacity:0.008" fill="#000000" d="M 92.5,174.5 C 92.5,174.167 92.5,173.833 92.5,173.5C 95.1667,173.833 95.1667,174.167 92.5,174.5 Z"/></g>
<g><path style="opacity:0.01" fill="#000000" d="M 90.5,175.5 C 90.5,175.167 90.5,174.833 90.5,174.5C 91.1667,174.5 91.8333,174.5 92.5,174.5C 92.1583,175.338 91.4916,175.672 90.5,175.5 Z"/></g>
<g><path style="opacity:0.012" fill="#000000" d="M 56.5,175.5 C 57.8333,176.167 57.8333,176.167 56.5,175.5 Z"/></g>
<g><path style="opacity:0.012" fill="#000000" d="M 90.5,175.5 C 89.8333,176.167 89.8333,176.167 90.5,175.5 Z"/></g>
<g><path style="opacity:0.016" fill="#000000" d="M 87.5,176.5 C 88.8333,177.167 88.8333,177.167 87.5,176.5 Z"/></g>
<g><path style="opacity:0.012" fill="#000000" d="M 55.5,177.5 C 56.8333,178.167 56.8333,178.167 55.5,177.5 Z"/></g>
<g><path style="opacity:0.016" fill="#000000" d="M 86.5,177.5 C 86.8333,177.5 87.1667,177.5 87.5,177.5C 87.3147,178.17 86.9813,178.17 86.5,177.5 Z"/></g>
<g><path style="opacity:0.008" fill="#000000" d="M 55.5,181.5 C 55.1667,181.5 54.8333,181.5 54.5,181.5C 54.8333,178.833 55.1667,178.833 55.5,181.5 Z"/></g>
<g><path style="opacity:0.008" fill="#000000" d="M 54.5,181.5 C 54.631,182.239 54.4643,182.906 54,183.5C 53.3083,182.563 53.475,181.897 54.5,181.5 Z"/></g>
<g><path style="opacity:0.016" fill="#000000" d="M 82.5,181.5 C 83.8333,182.167 83.8333,182.167 82.5,181.5 Z"/></g>
<g><path style="opacity:0.008" fill="#000000" d="M 209.5,181.5 C 209.103,182.525 208.437,182.692 207.5,182C 208.094,181.536 208.761,181.369 209.5,181.5 Z"/></g>
<g><path style="opacity:0.008" fill="#000000" d="M 451.5,183.5 C 451.167,183.5 450.833,183.5 450.5,183.5C 450.833,180.833 451.167,180.833 451.5,183.5 Z"/></g>
<g><path style="opacity:0.016" fill="#000000" d="M 81.5,182.5 C 81.8333,182.5 82.1667,182.5 82.5,182.5C 82.3147,183.17 81.9813,183.17 81.5,182.5 Z"/></g>
<g><path style="opacity:0.012" fill="#000000" d="M 210.5,183.5 C 276.665,182.335 342.999,182.168 409.5,183C 343.168,183.5 276.834,183.667 210.5,183.5 Z"/></g>
<g><path style="opacity:0.012" fill="#000000" d="M 451.5,183.5 C 452.833,184.167 452.833,184.167 451.5,183.5 Z"/></g>
<g><path style="opacity:0.008" fill="#000000" d="M 80.5,184.5 C 81.8333,185.167 81.8333,185.167 80.5,184.5 Z"/></g>
<g><path style="opacity:0.008" fill="#000000" d="M 79.5,185.5 C 79.8333,185.5 80.1667,185.5 80.5,185.5C 80.6716,186.492 80.3382,187.158 79.5,187.5C 79.5,186.833 79.5,186.167 79.5,185.5 Z"/></g>
<g><path style="opacity:0.01" fill="#000000" d="M 78.5,187.5 C 78.8333,187.5 79.1667,187.5 79.5,187.5C 79.6716,188.492 79.3382,189.158 78.5,189.5C 78.5,188.833 78.5,188.167 78.5,187.5 Z"/></g>
<g><path style="opacity:0.008" fill="#000000" d="M 455.5,190.5 C 455.167,190.5 454.833,190.5 454.5,190.5C 454.833,187.833 455.167,187.833 455.5,190.5 Z"/></g>
<g><path style="opacity:0.007" fill="#000000" d="M 77.5,189.5 C 77.8333,189.5 78.1667,189.5 78.5,189.5C 78.1667,193.5 77.8333,193.5 77.5,189.5 Z"/></g>
<g><path style="opacity:0.008" fill="#000000" d="M 455.5,190.5 C 456.525,190.897 456.692,191.563 456,192.5C 455.536,191.906 455.369,191.239 455.5,190.5 Z"/></g>
<g><path style="opacity:0.004" fill="#000000" d="M 50.5,192.5 C 51.6655,265.999 51.8322,339.666 51,413.5C 50.5,339.834 50.3333,266.167 50.5,192.5 Z"/></g>
<g><path style="opacity:0.01" fill="#000000" d="M 76.5,193.5 C 77.5735,194.251 77.7401,195.251 77,196.5C 76.5172,195.552 76.3505,194.552 76.5,193.5 Z"/></g>
<g><path style="opacity:0.01" fill="#000000" d="M 456.5,195.5 C 456.369,194.761 456.536,194.094 457,193.5C 457.692,194.437 457.525,195.103 456.5,195.5 Z"/></g>
<g><path style="opacity:0.016" fill="#000000" d="M 430.5,195.5 C 429.833,196.167 429.833,196.167 430.5,195.5 Z"/></g>
<g><path style="opacity:0.012" fill="#000000" d="M 457.5,198.5 C 457.369,197.761 457.536,197.094 458,196.5C 458.692,197.437 458.525,198.103 457.5,198.5 Z"/></g>
<g><path style="opacity:0.012" fill="#000000" d="M 431.5,197.5 C 430.833,198.167 430.833,198.167 431.5,197.5 Z"/></g>
<g><path style="opacity:0.004" fill="#000000" d="M 75.5,199.5 C 76.6655,268.332 76.8321,337.332 76,406.5C 75.5,337.501 75.3333,268.501 75.5,199.5 Z"/></g>
<g><path style="opacity:0.012" fill="#000000" d="M 432.5,199.5 C 431.833,200.167 431.833,200.167 432.5,199.5 Z"/></g>
<g><path style="opacity:0.009" fill="#000000" d="M 458.5,199.5 C 459.573,200.251 459.74,201.251 459,202.5C 458.517,201.552 458.351,200.552 458.5,199.5 Z"/></g>
<g><path style="opacity:0.01" fill="#000000" d="M 433.5,201.5 C 433.631,202.239 433.464,202.906 433,203.5C 432.308,202.563 432.475,201.897 433.5,201.5 Z"/></g>
<g><path style="opacity:0.009" fill="#000000" d="M 434.5,204.5 C 434.657,205.873 434.49,207.207 434,208.5C 433.235,206.934 433.402,205.601 434.5,204.5 Z"/></g>
<g><path style="opacity:0.005" fill="#000000" d="M 459.5,204.5 C 460.664,232.997 460.83,261.664 460,290.5C 459.5,261.835 459.333,233.169 459.5,204.5 Z"/></g>
<g><path style="opacity:0.004" fill="#000000" d="M 434.5,276.5 C 433.833,276.5 433.5,276.167 433.5,275.5C 434.322,254.239 434.822,232.906 435,211.5C 435.829,233.337 435.663,255.004 434.5,276.5 Z"/></g>
<g><path style="opacity:0.011" fill="#000000" d="M 346.5,264.5 C 367.663,263.337 388.996,263.171 410.5,264C 389.169,264.5 367.836,264.667 346.5,264.5 Z"/></g>
<g><path style="opacity:0.009" fill="#000000" d="M 344.5,265.5 C 343.127,265.657 341.793,265.49 340.5,265C 342.066,264.235 343.399,264.402 344.5,265.5 Z"/></g>
<g><path style="opacity:0.012" fill="#000000" d="M 412.5,265.5 C 413.251,264.427 414.251,264.26 415.5,265C 414.552,265.483 413.552,265.649 412.5,265.5 Z"/></g>
<g><path style="opacity:0.01" fill="#000000" d="M 337.5,266.5 C 337.897,265.475 338.563,265.308 339.5,266C 338.906,266.464 338.239,266.631 337.5,266.5 Z"/></g>
<g><path style="opacity:0.01" fill="#000000" d="M 419.5,267.5 C 419.897,266.475 420.563,266.308 421.5,267C 420.906,267.464 420.239,267.631 419.5,267.5 Z"/></g>
<g><path style="opacity:0.012" fill="#000000" d="M 426.5,269.5 C 427.833,270.167 427.833,270.167 426.5,269.5 Z"/></g>
<g><path style="opacity:0.008" fill="#000000" d="M 429.5,271.5 C 428.833,270.167 428.833,270.167 429.5,271.5 Z"/></g>
<g><path style="opacity:0.012" fill="#000000" d="M 429.5,271.5 C 430.833,272.167 430.833,272.167 429.5,271.5 Z"/></g>
<g><path style="opacity:0.008" fill="#000000" d="M 431.5,272.5 C 432.833,273.167 432.833,273.167 431.5,272.5 Z"/></g>
<g><path style="opacity:0.008" fill="#000000" d="M 314.5,282.5 C 315.833,283.167 315.833,283.167 314.5,282.5 Z"/></g>
<g><path style="opacity:0.012" fill="#000000" d="M 310.5,289.5 C 311.833,290.167 311.833,290.167 310.5,289.5 Z"/></g>
<g><path style="opacity:0.01" fill="#000000" d="M 310.5,293.5 C 310.167,293.5 309.833,293.5 309.5,293.5C 309.833,290.833 310.167,290.833 310.5,293.5 Z"/></g>
<g><path style="opacity:0.009" fill="#000000" d="M 458.5,292.5 C 459.613,293.946 459.78,295.613 459,297.5C 458.506,295.866 458.34,294.199 458.5,292.5 Z"/></g>
<g><path style="opacity:0.008" fill="#000000" d="M 309.5,293.5 C 309.631,294.239 309.464,294.906 309,295.5C 308.308,294.563 308.475,293.897 309.5,293.5 Z"/></g>
<g><path style="opacity:0.009" fill="#000000" d="M 307.5,296.5 C 308.573,297.251 308.74,298.251 308,299.5C 307.517,298.552 307.351,297.552 307.5,296.5 Z"/></g>
<g><path style="opacity:0.009" fill="#000000" d="M 457.5,299.5 C 458.573,300.251 458.74,301.251 458,302.5C 457.517,301.552 457.351,300.552 457.5,299.5 Z"/></g>
<g><path style="opacity:0.011" fill="#000000" d="M 306.5,301.5 C 307.65,306.316 307.816,311.316 307,316.5C 306.501,311.511 306.334,306.511 306.5,301.5 Z"/></g>
<g><path style="opacity:0.01" fill="#000000" d="M 456.5,303.5 C 457.573,304.251 457.74,305.251 457,306.5C 456.517,305.552 456.351,304.552 456.5,303.5 Z"/></g>
<g><path style="opacity:0.01" fill="#000000" d="M 455.5,307.5 C 456.434,308.568 456.768,309.901 456.5,311.5C 456.167,311.5 455.833,311.5 455.5,311.5C 455.5,310.167 455.5,308.833 455.5,307.5 Z"/></g>
<g><path style="opacity:0.01" fill="#000000" d="M 456.5,311.5 C 457.573,312.251 457.74,313.251 457,314.5C 456.517,313.552 456.351,312.552 456.5,311.5 Z"/></g>
<g><path style="opacity:0.01" fill="#000000" d="M 457.5,315.5 C 458.598,316.601 458.765,317.934 458,319.5C 457.51,318.207 457.343,316.873 457.5,315.5 Z"/></g>
<g><path style="opacity:0.009" fill="#000000" d="M 308.5,317.5 C 308.649,318.552 308.483,319.552 308,320.5C 307.26,319.251 307.427,318.251 308.5,317.5 Z"/></g>
<g><path style="opacity:0.004" fill="#000000" d="M 421.5,320.5 C 421.5,321.167 421.5,321.833 421.5,322.5C 420.833,322.5 420.167,322.5 419.5,322.5C 419.833,321.5 420.5,320.833 421.5,320.5 Z"/></g>
<g><path style="opacity:0.01" fill="#000000" d="M 309.5,321.5 C 309.631,322.239 309.464,322.906 309,323.5C 308.308,322.563 308.475,321.897 309.5,321.5 Z"/></g>
<g><path style="opacity:0.009" fill="#000000" d="M 458.5,326.5 C 458.34,324.801 458.506,323.134 459,321.5C 459.78,323.387 459.613,325.054 458.5,326.5 Z"/></g>
<g><path style="opacity:0.008" fill="#000000" d="M 309.5,324.5 C 310.525,324.897 310.692,325.563 310,326.5C 309.536,325.906 309.369,325.239 309.5,324.5 Z"/></g>
<g><path style="opacity:0.006" fill="#000000" d="M 459.5,328.5 C 460.664,356.664 460.83,384.997 460,413.5C 459.5,385.169 459.333,356.835 459.5,328.5 Z"/></g>
<g><path style="opacity:0.012" fill="#000000" d="M 313.5,330.5 C 312.833,331.167 312.833,331.167 313.5,330.5 Z"/></g>
<g><path style="opacity:0.008" fill="#000000" d="M 313.5,332.5 C 314.833,333.167 314.833,333.167 313.5,332.5 Z"/></g>
<g><path style="opacity:0.004" fill="#000000" d="M 433.5,343.5 C 433.5,343.167 433.5,342.833 433.5,342.5C 434.832,352.812 435.499,363.478 435.5,374.5C 435.333,385.167 435.167,395.833 435,406.5C 434.832,385.329 434.332,364.329 433.5,343.5 Z"/></g>
<g><path style="opacity:0.012" fill="#000000" d="M 432.5,343.5 C 432.833,343.5 433.167,343.5 433.5,343.5C 433.315,344.17 432.981,344.17 432.5,343.5 Z"/></g>
<g><path style="opacity:0.012" fill="#000000" d="M 431.5,344.5 C 431.833,344.5 432.167,344.5 432.5,344.5C 432.315,345.17 431.981,345.17 431.5,344.5 Z"/></g>
<g><path style="opacity:0.004" fill="#000000" d="M 429.5,346.5 C 429.5,346.167 429.5,345.833 429.5,345.5C 430.167,345.5 430.833,345.5 431.5,345.5C 431.158,346.338 430.492,346.672 429.5,346.5 Z"/></g>
<g><path style="opacity:0.012" fill="#000000" d="M 428.5,346.5 C 428.833,346.5 429.167,346.5 429.5,346.5C 429.315,347.17 428.981,347.17 428.5,346.5 Z"/></g>
<g><path style="opacity:0.012" fill="#000000" d="M 330.5,347.5 C 329.833,348.167 329.833,348.167 330.5,347.5 Z"/></g>
<g><path style="opacity:0.008" fill="#000000" d="M 426.5,348.5 C 426.5,348.167 426.5,347.833 426.5,347.5C 427.167,347.5 427.833,347.5 428.5,347.5C 428.158,348.338 427.492,348.672 426.5,348.5 Z"/></g>
<g><path style="opacity:0.006" fill="#000000" d="M 424.5,349.5 C 424.5,349.167 424.5,348.833 424.5,348.5C 425.167,348.5 425.833,348.5 426.5,348.5C 426.158,349.338 425.492,349.672 424.5,349.5 Z"/></g>
<g><path style="opacity:0.008" fill="#000000" d="M 334.5,349.5 C 334.103,350.525 333.437,350.692 332.5,350C 333.094,349.536 333.761,349.369 334.5,349.5 Z"/></g>
<g><path style="opacity:0.008" fill="#000000" d="M 422.5,350.5 C 422.5,350.167 422.5,349.833 422.5,349.5C 423.167,349.5 423.833,349.5 424.5,349.5C 424.158,350.338 423.492,350.672 422.5,350.5 Z"/></g>
<g><path style="opacity:0.008" fill="#000000" d="M 337.5,350.5 C 337.5,350.833 337.5,351.167 337.5,351.5C 334.833,351.167 334.833,350.833 337.5,350.5 Z"/></g>
<g><path style="opacity:0.01" fill="#000000" d="M 420.5,350.5 C 421.167,350.5 421.833,350.5 422.5,350.5C 421.833,351.833 421.167,351.833 420.5,350.5 Z"/></g>
<g><path style="opacity:0.008" fill="#000000" d="M 337.5,351.5 C 338.239,351.369 338.906,351.536 339.5,352C 338.563,352.692 337.897,352.525 337.5,351.5 Z"/></g>
<g><path style="opacity:0.01" fill="#000000" d="M 417.5,351.5 C 418.239,351.369 418.906,351.536 419.5,352C 418.563,352.692 417.897,352.525 417.5,351.5 Z"/></g>
<g><path style="opacity:0.009" fill="#000000" d="M 340.5,353.5 C 341.251,352.427 342.251,352.26 343.5,353C 342.552,353.483 341.552,353.649 340.5,353.5 Z"/></g>
<g><path style="opacity:0.009" fill="#000000" d="M 413.5,352.5 C 414.552,352.351 415.552,352.517 416.5,353C 415.251,353.74 414.251,353.573 413.5,352.5 Z"/></g>
<g><path style="opacity:0.009" fill="#000000" d="M 345.5,354.5 C 367.663,353.337 389.996,353.17 412.5,354C 390.169,354.5 367.836,354.667 345.5,354.5 Z"/></g>
<g><path style="opacity:0.008" fill="#000000" d="M 52.5,414.5 C 52.6567,415.873 52.49,417.207 52,418.5C 51.235,416.934 51.4017,415.601 52.5,414.5 Z"/></g>
<g><path style="opacity:0.008" fill="#000000" d="M 458.5,414.5 C 459.598,415.601 459.765,416.934 459,418.5C 458.51,417.207 458.343,415.873 458.5,414.5 Z"/></g>
<g><path style="opacity:0.012" fill="#000000" d="M 52.5,419.5 C 53.525,419.897 53.6917,420.563 53,421.5C 52.5357,420.906 52.369,420.239 52.5,419.5 Z"/></g>
<g><path style="opacity:0.012" fill="#000000" d="M 457.5,419.5 C 458.525,419.897 458.692,420.563 458,421.5C 457.536,420.906 457.369,420.239 457.5,419.5 Z"/></g>
<g><path style="opacity:0.008" fill="#000000" d="M 54.5,424.5 C 53.475,424.103 53.3083,423.437 54,422.5C 54.4643,423.094 54.631,423.761 54.5,424.5 Z"/></g>
<g><path style="opacity:0.008" fill="#000000" d="M 456.5,424.5 C 456.369,423.761 456.536,423.094 457,422.5C 457.692,423.437 457.525,424.103 456.5,424.5 Z"/></g>
<g><path style="opacity:0.008" fill="#000000" d="M 54.5,424.5 C 54.8333,424.5 55.1667,424.5 55.5,424.5C 55.1667,427.167 54.8333,427.167 54.5,424.5 Z"/></g>
<g><path style="opacity:0.008" fill="#000000" d="M 455.5,424.5 C 455.833,424.5 456.167,424.5 456.5,424.5C 456.167,427.167 455.833,427.167 455.5,424.5 Z"/></g>
<g><path style="opacity:0.012" fill="#000000" d="M 55.5,427.5 C 56.8333,428.167 56.8333,428.167 55.5,427.5 Z"/></g>
<g><path style="opacity:0.012" fill="#000000" d="M 454.5,427.5 C 455.833,428.167 455.833,428.167 454.5,427.5 Z"/></g>
<g><path style="opacity:0.012" fill="#000000" d="M 57.5,429.5 C 56.8333,430.167 56.8333,430.167 57.5,429.5 Z"/></g>
<g><path style="opacity:0.012" fill="#000000" d="M 453.5,429.5 C 454.833,430.167 454.833,430.167 453.5,429.5 Z"/></g>
<g><path style="opacity:0.012" fill="#000000" d="M 57.5,431.5 C 58.8333,432.167 58.8333,432.167 57.5,431.5 Z"/></g>
<g><path style="opacity:0.012" fill="#000000" d="M 452.5,431.5 C 453.833,432.167 453.833,432.167 452.5,431.5 Z"/></g>
<g><path style="opacity:0.006" fill="#000000" d="M 451.5,432.5 C 451.833,432.5 452.167,432.5 452.5,432.5C 452.672,433.492 452.338,434.158 451.5,434.5C 451.5,433.833 451.5,433.167 451.5,432.5 Z"/></g>
<g><path style="opacity:0.009" fill="#000000" d="M 97.5,434.5 C 98.6009,433.402 99.9343,433.235 101.5,434C 100.207,434.49 98.8734,434.657 97.5,434.5 Z"/></g>
<g><path style="opacity:0.004" fill="#000000" d="M 104.5,435.5 C 204.999,434.334 305.666,434.167 406.5,435C 305.834,435.5 205.167,435.667 104.5,435.5 Z"/></g>
<g><path style="opacity:0.012" fill="#000000" d="M 450.5,434.5 C 450.833,434.5 451.167,434.5 451.5,434.5C 451.315,435.17 450.981,435.17 450.5,434.5 Z"/></g>
<g><path style="opacity:0.008" fill="#000000" d="M 449.5,435.5 C 449.833,435.5 450.167,435.5 450.5,435.5C 450.672,436.492 450.338,437.158 449.5,437.5C 449.5,436.833 449.5,436.167 449.5,435.5 Z"/></g>
<g><path style="opacity:0.012" fill="#000000" d="M 448.5,437.5 C 448.833,437.5 449.167,437.5 449.5,437.5C 449.315,438.17 448.981,438.17 448.5,437.5 Z"/></g>
<g><path style="opacity:0.016" fill="#000000" d="M 447.5,438.5 C 447.833,438.5 448.167,438.5 448.5,438.5C 448.315,439.17 447.981,439.17 447.5,438.5 Z"/></g>
<g><path style="opacity:0.012" fill="#000000" d="M 446.5,439.5 C 446.833,439.5 447.167,439.5 447.5,439.5C 447.315,440.17 446.981,440.17 446.5,439.5 Z"/></g>
<g><path style="opacity:0.008" fill="#000000" d="M 445.5,440.5 C 445.833,440.5 446.167,440.5 446.5,440.5C 446.315,441.17 445.981,441.17 445.5,440.5 Z"/></g>
<g><path style="opacity:0.008" fill="#000000" d="M 440.5,445.5 C 441.833,446.167 441.833,446.167 440.5,445.5 Z"/></g>
<g><path style="opacity:0.012" fill="#000000" d="M 439.5,446.5 C 439.833,446.5 440.167,446.5 440.5,446.5C 440.315,447.17 439.981,447.17 439.5,446.5 Z"/></g>
<g><path style="opacity:0.016" fill="#000000" d="M 438.5,447.5 C 438.833,447.5 439.167,447.5 439.5,447.5C 439.315,448.17 438.981,448.17 438.5,447.5 Z"/></g>
<g><path style="opacity:0.012" fill="#000000" d="M 437.5,448.5 C 437.833,448.5 438.167,448.5 438.5,448.5C 438.315,449.17 437.981,449.17 437.5,448.5 Z"/></g>
<g><path style="opacity:0.006" fill="#000000" d="M 435.5,450.5 C 435.5,450.167 435.5,449.833 435.5,449.5C 436.167,449.5 436.833,449.5 437.5,449.5C 437.158,450.338 436.492,450.672 435.5,450.5 Z"/></g>
<g><path style="opacity:0.012" fill="#000000" d="M 434.5,450.5 C 434.833,450.5 435.167,450.5 435.5,450.5C 435.315,451.17 434.981,451.17 434.5,450.5 Z"/></g>
<g><path style="opacity:0.006" fill="#000000" d="M 78.5,451.5 C 78.5,451.833 78.5,452.167 78.5,452.5C 75.8333,452.167 75.8333,451.833 78.5,451.5 Z"/></g>
<g><path style="opacity:0.006" fill="#000000" d="M 432.5,452.5 C 432.5,452.167 432.5,451.833 432.5,451.5C 433.167,451.5 433.833,451.5 434.5,451.5C 434.158,452.338 433.492,452.672 432.5,452.5 Z"/></g>
<g><path style="opacity:0.012" fill="#000000" d="M 78.5,452.5 C 79.8333,453.167 79.8333,453.167 78.5,452.5 Z"/></g>
<g><path style="opacity:0.012" fill="#000000" d="M 432.5,452.5 C 431.833,453.167 431.833,453.167 432.5,452.5 Z"/></g>
<g><path style="opacity:0.012" fill="#000000" d="M 81.5,453.5 C 80.8333,454.167 80.8333,454.167 81.5,453.5 Z"/></g>
<g><path style="opacity:0.012" fill="#000000" d="M 429.5,453.5 C 430.833,454.167 430.833,454.167 429.5,453.5 Z"/></g>
<g><path style="opacity:0.012" fill="#000000" d="M 82.5,454.5 C 83.8333,455.167 83.8333,455.167 82.5,454.5 Z"/></g>
<g><path style="opacity:0.012" fill="#000000" d="M 427.5,454.5 C 428.833,455.167 428.833,455.167 427.5,454.5 Z"/></g>
<g><path style="opacity:0.008" fill="#000000" d="M 86.5,455.5 C 86.5,455.833 86.5,456.167 86.5,456.5C 83.8333,456.167 83.8333,455.833 86.5,455.5 Z"/></g>
<g><path style="opacity:0.008" fill="#000000" d="M 424.5,456.5 C 424.5,456.167 424.5,455.833 424.5,455.5C 427.167,455.833 427.167,456.167 424.5,456.5 Z"/></g>
<g><path style="opacity:0.008" fill="#000000" d="M 86.5,456.5 C 87.2389,456.369 87.9056,456.536 88.5,457C 87.5632,457.692 86.8966,457.525 86.5,456.5 Z"/></g>
<g><path style="opacity:0.008" fill="#000000" d="M 424.5,456.5 C 424.103,457.525 423.437,457.692 422.5,457C 423.094,456.536 423.761,456.369 424.5,456.5 Z"/></g>
<g><path style="opacity:0.012" fill="#000000" d="M 89.5,458.5 C 89.8966,457.475 90.5632,457.308 91.5,458C 90.9056,458.464 90.2389,458.631 89.5,458.5 Z"/></g>
<g><path style="opacity:0.012" fill="#000000" d="M 419.5,458.5 C 419.897,457.475 420.563,457.308 421.5,458C 420.906,458.464 420.239,458.631 419.5,458.5 Z"/></g>
<g><path style="opacity:0.008" fill="#000000" d="M 96.5,458.5 C 95.3991,459.598 94.0657,459.765 92.5,459C 93.7932,458.51 95.1266,458.343 96.5,458.5 Z"/></g>
<g><path style="opacity:0.009" fill="#000000" d="M 414.5,458.5 C 415.873,458.343 417.207,458.51 418.5,459C 416.934,459.765 415.601,459.598 414.5,458.5 Z"/></g>
<g><path style="opacity:0.004" fill="#000000" d="M 97.5,460.5 C 202.666,459.334 307.999,459.167 413.5,460C 308.167,460.5 202.834,460.667 97.5,460.5 Z"/></g>
</svg>
