<?xml version="1.0" encoding="UTF-8"?>
<!DOCTYPE svg PUBLIC "-//W3C//DTD SVG 1.1//EN" "http://www.w3.org/Graphics/SVG/1.1/DTD/svg11.dtd">
<svg xmlns="http://www.w3.org/2000/svg" version="1.1" width="512px" height="512px" style="shape-rendering:geometricPrecision; text-rendering:geometricPrecision; image-rendering:optimizeQuality; fill-rule:evenodd; clip-rule:evenodd" xmlns:xlink="http://www.w3.org/1999/xlink">
<g><path style="opacity:0.01" fill="#000000" d="M 174.5,124.5 C 175.601,123.402 176.934,123.235 178.5,124C 177.207,124.49 175.873,124.657 174.5,124.5 Z"/></g>
<g><path style="opacity:0.01" fill="#000000" d="M 202.5,124.5 C 203.601,123.402 204.934,123.235 206.5,124C 205.207,124.49 203.873,124.657 202.5,124.5 Z"/></g>
<g><path style="opacity:0.009" fill="#000000" d="M 170.5,125.5 C 171.251,124.427 172.251,124.26 173.5,125C 172.552,125.483 171.552,125.649 170.5,125.5 Z"/></g>
<g><path style="opacity:0.849" fill="#303595" d="M 179.5,125.5 C 182.984,124.835 186.651,124.501 190.5,124.5C 196.086,124.318 201.42,124.985 206.5,126.5C 197.524,125.692 188.524,125.358 179.5,125.5 Z"/></g>
<g><path style="opacity:0.009" fill="#000000" d="M 207.5,125.5 C 208.251,124.427 209.251,124.26 210.5,125C 209.552,125.483 208.552,125.649 207.5,125.5 Z"/></g>
<g><path style="opacity:0.012" fill="#000000" d="M 167.5,126.5 C 167.897,125.475 168.563,125.308 169.5,126C 168.906,126.464 168.239,126.631 167.5,126.5 Z"/></g>
<g><path style="opacity:1" fill="#454cd7" d="M 179.5,125.5 C 188.524,125.358 197.524,125.692 206.5,126.5C 209.167,126.833 211.833,127.167 214.5,127.5C 226.978,132.575 237.978,139.909 247.5,149.5C 247.427,151.027 248.094,152.027 249.5,152.5C 253.683,158.202 257.35,164.202 260.5,170.5C 260.402,172.553 261.069,174.22 262.5,175.5C 266.5,191.5 266.5,207.5 262.5,223.5C 261.069,224.78 260.402,226.447 260.5,228.5C 259.662,228.842 259.328,229.508 259.5,230.5C 258.662,230.842 258.328,231.508 258.5,232.5C 257.662,232.842 257.328,233.508 257.5,234.5C 256.662,234.842 256.328,235.508 256.5,236.5C 255.662,236.842 255.328,237.508 255.5,238.5C 254.833,238.5 254.5,238.833 254.5,239.5C 253.662,239.842 253.328,240.508 253.5,241.5C 252.833,241.5 252.5,241.833 252.5,242.5C 251.662,242.842 251.328,243.508 251.5,244.5C 250.833,244.5 250.5,244.833 250.5,245.5C 249.833,245.5 249.5,245.833 249.5,246.5C 248.833,246.833 248.167,247.167 247.5,247.5C 244.167,250.167 241.167,253.167 238.5,256.5C 238.5,256.833 238.5,257.167 238.5,257.5C 236.895,258.006 236.561,258.673 237.5,259.5C 241.444,261.964 245.777,263.63 250.5,264.5C 254.182,267.008 258.182,269.008 262.5,270.5C 264.98,271.242 267.313,272.242 269.5,273.5C 271.86,275.853 274.527,277.853 277.5,279.5C 277.5,280.167 277.833,280.5 278.5,280.5C 278.833,281.833 279.167,281.833 279.5,280.5C 281.821,277.204 284.154,273.871 286.5,270.5C 287.906,270.027 288.573,269.027 288.5,267.5C 289.5,267.167 290.167,266.5 290.5,265.5C 291.5,264.833 292.5,264.167 293.5,263.5C 296.833,260.833 299.833,257.833 302.5,254.5C 302.833,253.833 303.167,253.167 303.5,252.5C 304.5,252.167 305.167,251.5 305.5,250.5C 307.027,250.573 308.027,249.906 308.5,248.5C 311.709,246.735 314.709,244.735 317.5,242.5C 319.819,242.008 321.819,241.008 323.5,239.5C 324.5,239.5 325.5,239.5 326.5,239.5C 335.003,238.319 335.67,235.319 328.5,230.5C 324.879,226.929 322.546,222.596 321.5,217.5C 320.784,212.651 319.784,207.985 318.5,203.5C 317.176,188.467 321.51,175.134 331.5,163.5C 333.167,162.5 334.5,161.167 335.5,159.5C 339.322,156.013 343.655,153.347 348.5,151.5C 353.869,149.827 359.202,148.16 364.5,146.5C 372.258,146.268 379.924,146.935 387.5,148.5C 388.791,148.263 389.791,148.596 390.5,149.5C 395.159,152.163 399.825,154.83 404.5,157.5C 409.131,160.464 413.131,164.131 416.5,168.5C 419.46,174.084 422.127,179.751 424.5,185.5C 425.833,194.833 425.833,204.167 424.5,213.5C 423.596,214.209 423.263,215.209 423.5,216.5C 422.596,217.209 422.263,218.209 422.5,219.5C 421.662,219.842 421.328,220.508 421.5,221.5C 420.662,221.842 420.328,222.508 420.5,223.5C 419.662,223.842 419.328,224.508 419.5,225.5C 418.662,225.842 418.328,226.508 418.5,227.5C 417.094,227.973 416.427,228.973 416.5,230.5C 415.833,230.5 415.5,230.833 415.5,231.5C 415.167,231.5 414.833,231.5 414.5,231.5C 411.468,232.999 409.968,235.332 410,238.5C 413.324,240.579 416.824,242.246 420.5,243.5C 422.284,243.893 423.95,244.559 425.5,245.5C 427.36,246.939 429.027,248.605 430.5,250.5C 434.785,255.452 439.452,260.119 444.5,264.5C 445.833,265.5 447.167,266.5 448.5,267.5C 448.738,269.404 449.738,270.738 451.5,271.5C 453.255,274.68 455.255,277.68 457.5,280.5C 458.917,283.669 460.583,286.669 462.5,289.5C 463.167,292.167 463.833,294.833 464.5,297.5C 466.21,307.411 466.877,317.411 466.5,327.5C 466.041,330.877 465.374,334.211 464.5,337.5C 463.662,337.842 463.328,338.508 463.5,339.5C 462.662,339.842 462.328,340.508 462.5,341.5C 461.662,341.842 461.328,342.508 461.5,343.5C 460.094,343.973 459.427,344.973 459.5,346.5C 458.833,346.5 458.5,346.833 458.5,347.5C 458.167,347.5 457.833,347.5 457.5,347.5C 453.833,350.5 450.5,353.833 447.5,357.5C 447.5,357.833 447.5,358.167 447.5,358.5C 446.833,358.5 446.5,358.833 446.5,359.5C 445.833,359.5 445.5,359.833 445.5,360.5C 444.508,360.328 443.842,360.662 443.5,361.5C 442.508,361.328 441.842,361.662 441.5,362.5C 440.508,362.328 439.842,362.662 439.5,363.5C 437.847,363.66 436.514,364.326 435.5,365.5C 434.508,365.328 433.842,365.662 433.5,366.5C 432.209,366.263 431.209,366.596 430.5,367.5C 425.846,368.329 421.18,369.163 416.5,370C 387.33,370.168 358.33,370.668 329.5,371.5C 327.825,374.507 327.159,377.84 327.5,381.5C 325.796,385.617 324.463,389.951 323.5,394.5C 322.833,396.5 322.167,398.5 321.5,400.5C 320.662,400.842 320.328,401.508 320.5,402.5C 319.833,402.5 319.5,402.833 319.5,403.5C 318.662,403.842 318.328,404.508 318.5,405.5C 317.833,405.5 317.5,405.833 317.5,406.5C 316.833,406.5 316.5,406.833 316.5,407.5C 315.833,407.5 315.5,407.833 315.5,408.5C 313.833,409.5 312.5,410.833 311.5,412.5C 310.833,412.5 310.5,412.833 310.5,413.5C 309.833,413.5 309.5,413.833 309.5,414.5C 307.973,414.427 306.973,415.094 306.5,416.5C 305.508,416.328 304.842,416.662 304.5,417.5C 303.833,417.5 303.5,417.833 303.5,418.5C 302.508,418.328 301.842,418.662 301.5,419.5C 300.209,419.263 299.209,419.596 298.5,420.5C 297.508,420.328 296.842,420.662 296.5,421.5C 295.167,421.5 293.833,421.5 292.5,421.5C 288.165,421.917 283.832,422.417 279.5,423C 213.665,423.167 147.999,423.667 82.5,424.5C 82.1667,424.5 81.8333,424.5 81.5,424.5C 80.4863,423.326 79.153,422.66 77.5,422.5C 76.8333,421.167 75.8333,420.167 74.5,419.5C 73.7659,418.292 73.4326,416.959 73.5,415.5C 73.277,409.439 75.9437,405.272 81.5,403C 147.335,402.833 213.001,402.333 278.5,401.5C 280.099,401.768 281.432,401.434 282.5,400.5C 284.415,400.784 286.081,400.451 287.5,399.5C 291.187,398.824 294.52,397.324 297.5,395C 300.229,391.692 302.562,388.192 304.5,384.5C 305.117,384.389 305.617,384.056 306,383.5C 307.56,374.23 308.394,364.896 308.5,355.5C 309.5,352.5 311.5,350.5 314.5,349.5C 346.168,349.667 377.835,349.5 409.5,349C 412.833,348.667 416.167,348.333 419.5,348C 420.416,347.722 421.082,347.222 421.5,346.5C 421.5,346.167 421.5,345.833 421.5,345.5C 422.791,345.737 423.791,345.404 424.5,344.5C 440.589,339.02 447.589,327.686 445.5,310.5C 445.706,307.505 445.04,304.838 443.5,302.5C 442.833,301.833 442.167,301.167 441.5,300.5C 441.539,297.911 440.539,295.911 438.5,294.5C 438.672,293.508 438.338,292.842 437.5,292.5C 436.66,290.147 435.326,288.147 433.5,286.5C 432.876,284.246 431.543,282.579 429.5,281.5C 429.5,280.833 429.5,280.167 429.5,279.5C 426.167,274.167 421.833,269.833 416.5,266.5C 414.5,265.5 412.5,264.5 410.5,263.5C 408.421,261.127 405.754,259.794 402.5,259.5C 401.22,258.069 399.553,257.402 397.5,257.5C 396.329,256.655 394.995,255.989 393.5,255.5C 390.155,253.783 386.489,253.116 382.5,253.5C 381.167,253.5 379.833,253.5 378.5,253.5C 365.185,251.484 352.185,252.817 339.5,257.5C 338.833,258.167 338.167,258.833 337.5,259.5C 336.209,259.263 335.209,259.596 334.5,260.5C 333.508,260.328 332.842,260.662 332.5,261.5C 331.508,261.328 330.842,261.662 330.5,262.5C 329.508,262.328 328.842,262.662 328.5,263.5C 327.508,263.328 326.842,263.662 326.5,264.5C 325.508,264.328 324.842,264.662 324.5,265.5C 323.833,265.5 323.5,265.833 323.5,266.5C 322.508,266.328 321.842,266.662 321.5,267.5C 320.833,267.5 320.5,267.833 320.5,268.5C 319.833,268.5 319.5,268.833 319.5,269.5C 317.973,269.427 316.973,270.094 316.5,271.5C 315.833,271.5 315.5,271.833 315.5,272.5C 314.833,272.5 314.5,272.833 314.5,273.5C 313.833,273.5 313.5,273.833 313.5,274.5C 312.833,274.5 312.5,274.833 312.5,275.5C 311.833,275.5 311.5,275.833 311.5,276.5C 310.833,276.5 310.5,276.833 310.5,277.5C 309.833,277.5 309.5,277.833 309.5,278.5C 308.094,278.973 307.427,279.973 307.5,281.5C 306.833,281.5 306.5,281.833 306.5,282.5C 305.833,282.5 305.5,282.833 305.5,283.5C 304.662,283.842 304.328,284.508 304.5,285.5C 303.833,285.5 303.5,285.833 303.5,286.5C 302.833,286.5 302.5,286.833 302.5,287.5C 301.662,287.842 301.328,288.508 301.5,289.5C 300.833,289.5 300.5,289.833 300.5,290.5C 299.662,290.842 299.328,291.508 299.5,292.5C 298.833,292.5 298.5,292.833 298.5,293.5C 297.662,293.842 297.328,294.508 297.5,295.5C 296.833,295.5 296.5,295.833 296.5,296.5C 295.662,296.842 295.328,297.508 295.5,298.5C 294.662,298.842 294.328,299.508 294.5,300.5C 293.833,300.5 293.5,300.833 293.5,301.5C 292.662,301.842 292.328,302.508 292.5,303.5C 291.833,303.5 291.5,303.833 291.5,304.5C 291.167,304.5 290.833,304.5 290.5,304.5C 287.209,307.81 283.209,309.477 278.5,309.5C 277.508,309.672 276.842,309.338 276.5,308.5C 272.773,303.77 268.44,299.77 263.5,296.5C 262.833,296.5 262.167,296.5 261.5,296.5C 259.167,294.5 256.833,292.5 254.5,290.5C 250.419,287.126 245.753,284.793 240.5,283.5C 239.5,283.5 238.5,283.5 237.5,283.5C 234.916,281.528 231.916,280.528 228.5,280.5C 227.329,279.655 225.995,278.989 224.5,278.5C 219.848,276.369 214.848,275.369 209.5,275.5C 205.069,275.769 200.735,275.436 196.5,274.5C 194.359,273.837 192.025,273.503 189.5,273.5C 185.239,273.411 181.239,274.078 177.5,275.5C 176.167,275.5 174.833,275.5 173.5,275.5C 166.786,275.575 160.452,276.908 154.5,279.5C 151.746,280.641 149.079,281.975 146.5,283.5C 145.5,283.5 144.5,283.5 143.5,283.5C 137.581,285.126 132.247,287.793 127.5,291.5C 127.5,291.833 127.5,292.167 127.5,292.5C 126.833,292.5 126.5,292.833 126.5,293.5C 125.508,293.328 124.842,293.662 124.5,294.5C 123.833,294.5 123.5,294.833 123.5,295.5C 122.508,295.328 121.842,295.662 121.5,296.5C 120.833,296.5 120.5,296.833 120.5,297.5C 119.508,297.328 118.842,297.662 118.5,298.5C 117.833,298.5 117.5,298.833 117.5,299.5C 116.833,299.5 116.5,299.833 116.5,300.5C 115.508,300.328 114.842,300.662 114.5,301.5C 113.833,301.5 113.5,301.833 113.5,302.5C 112.833,302.5 112.5,302.833 112.5,303.5C 111.833,303.5 111.5,303.833 111.5,304.5C 109.973,304.427 108.973,305.094 108.5,306.5C 108.167,306.5 107.833,306.5 107.5,306.5C 102.833,309.167 99.1667,312.833 96.5,317.5C 95.3995,318.605 94.7329,319.938 94.5,321.5C 93.8333,321.5 93.5,321.833 93.5,322.5C 92.8333,322.5 92.5,322.833 92.5,323.5C 91.8333,323.5 91.5,323.833 91.5,324.5C 90.6618,324.842 90.3284,325.508 90.5,326.5C 89.8333,326.5 89.5,326.833 89.5,327.5C 88.8333,327.5 88.5,327.833 88.5,328.5C 87.6618,328.842 87.3284,329.508 87.5,330.5C 86.8333,330.5 86.5,330.833 86.5,331.5C 85.0937,331.973 84.427,332.973 84.5,334.5C 83.8333,334.5 83.5,334.833 83.5,335.5C 82.6618,335.842 82.3284,336.508 82.5,337.5C 81.0937,337.973 80.427,338.973 80.5,340.5C 79.6618,340.842 79.3284,341.508 79.5,342.5C 78.8333,342.5 78.5,342.833 78.5,343.5C 77.6618,343.842 77.3284,344.508 77.5,345.5C 76.6618,345.842 76.3284,346.508 76.5,347.5C 75.6618,347.842 75.3284,348.508 75.5,349.5C 74.6618,349.842 74.3284,350.508 74.5,351.5C 73.6618,351.842 73.3284,352.508 73.5,353.5C 72.8333,353.5 72.5,353.833 72.5,354.5C 71.6618,354.842 71.3284,355.508 71.5,356.5C 70.8333,356.5 70.5,356.833 70.5,357.5C 69.8333,357.5 69.1667,357.5 68.5,357.5C 64.5,358.833 60.5,358.833 56.5,357.5C 55.8333,357.5 55.1667,357.5 54.5,357.5C 50.5753,351.202 50.5753,344.868 54.5,338.5C 55.9063,338.027 56.573,337.027 56.5,335.5C 70.821,309.75 90.4877,288.917 115.5,273C 117.407,271.878 119.407,271.045 121.5,270.5C 125.818,269.008 129.818,267.008 133.5,264.5C 135.703,262.9 138.036,261.567 140.5,260.5C 144.579,260.466 145.246,259.133 142.5,256.5C 139.833,253.167 136.833,250.167 133.5,247.5C 130.542,244.94 128.042,241.94 126,238.5C 123.454,233.408 120.954,228.408 118.5,223.5C 115.562,211.82 114.895,200.154 116.5,188.5C 117.913,185.781 118.58,182.781 118.5,179.5C 118.5,178.167 118.5,176.833 118.5,175.5C 120.954,170.592 123.454,165.592 126,160.5C 128.042,157.06 130.542,154.06 133.5,151.5C 136.833,148.833 139.833,145.833 142.5,142.5C 145.06,139.542 148.06,137.042 151.5,135C 156.592,132.454 161.592,129.954 166.5,127.5C 170.807,126.673 175.14,126.007 179.5,125.5 Z M 193.5,146.5 C 193.833,146.5 194.167,146.5 194.5,146.5C 196.833,147.167 199.167,147.833 201.5,148.5C 203.099,148.232 204.432,148.566 205.5,149.5C 206.791,149.263 207.791,149.596 208.5,150.5C 209.5,150.5 210.5,150.5 211.5,150.5C 211.5,150.833 211.5,151.167 211.5,151.5C 210.761,151.369 210.094,151.536 209.5,152C 213.577,153.787 217.41,155.954 221,158.5C 221.399,158.272 221.565,157.938 221.5,157.5C 222.167,157.5 222.833,157.5 223.5,157.5C 223.833,158.167 224.167,158.833 224.5,159.5C 224.062,159.435 223.728,159.601 223.5,160C 225.667,162.167 227.833,164.333 230,166.5C 230.399,166.272 230.565,165.938 230.5,165.5C 231.167,165.833 231.833,166.167 232.5,166.5C 232.5,167.167 232.5,167.833 232.5,168.5C 232.062,168.435 231.728,168.601 231.5,169C 234.653,173.472 237.153,178.306 239,183.5C 239.464,182.906 239.631,182.239 239.5,181.5C 240.404,182.209 240.737,183.209 240.5,184.5C 241.434,185.568 241.768,186.901 241.5,188.5C 244.167,195.833 244.167,203.167 241.5,210.5C 241.768,212.099 241.434,213.432 240.5,214.5C 240.737,215.791 240.404,216.791 239.5,217.5C 239.631,216.761 239.464,216.094 239,215.5C 237.014,220.805 234.514,225.805 231.5,230.5C 230.833,230.5 230.5,230.833 230.5,231.5C 228.167,234.5 225.5,237.167 222.5,239.5C 221.833,239.5 221.5,239.833 221.5,240.5C 217.687,242.908 213.687,245.075 209.5,247C 210.094,247.464 210.761,247.631 211.5,247.5C 211.5,247.833 211.5,248.167 211.5,248.5C 210.5,248.5 209.5,248.5 208.5,248.5C 207.791,249.404 206.791,249.737 205.5,249.5C 204.432,250.434 203.099,250.768 201.5,250.5C 194.167,253.167 186.833,253.167 179.5,250.5C 177.901,250.768 176.568,250.434 175.5,249.5C 174.209,249.737 173.209,249.404 172.5,248.5C 173.239,248.631 173.906,248.464 174.5,248C 169.195,246.014 164.195,243.514 159.5,240.5C 159.5,239.833 159.167,239.5 158.5,239.5C 155.896,237.4 153.396,235.067 151,232.5C 150.601,232.728 150.435,233.062 150.5,233.5C 149.833,233.167 149.167,232.833 148.5,232.5C 148.5,231.833 148.5,231.167 148.5,230.5C 148.938,230.565 149.272,230.399 149.5,230C 146.954,226.41 144.787,222.577 143,218.5C 142.536,219.094 142.369,219.761 142.5,220.5C 142.167,220.5 141.833,220.5 141.5,220.5C 141.5,219.5 141.5,218.5 141.5,217.5C 140.596,216.791 140.263,215.791 140.5,214.5C 139.566,213.432 139.232,212.099 139.5,210.5C 136.833,203.167 136.833,195.833 139.5,188.5C 139.232,186.901 139.566,185.568 140.5,184.5C 140.263,183.209 140.596,182.209 141.5,181.5C 141.5,180.5 141.5,179.5 141.5,178.5C 141.833,178.5 142.167,178.5 142.5,178.5C 142.369,179.239 142.536,179.906 143,180.5C 144.787,176.423 146.954,172.59 149.5,169C 149.272,168.601 148.938,168.435 148.5,168.5C 148.427,166.973 149.094,165.973 150.5,165.5C 150.435,165.938 150.601,166.272 151,166.5C 153.167,164.333 155.333,162.167 157.5,160C 157.272,159.601 156.938,159.435 156.5,159.5C 156.973,158.094 157.973,157.427 159.5,157.5C 159.435,157.938 159.601,158.272 160,158.5C 163.59,155.954 167.423,153.787 171.5,152C 170.906,151.536 170.239,151.369 169.5,151.5C 169.5,151.167 169.5,150.833 169.5,150.5C 170.5,150.5 171.5,150.5 172.5,150.5C 173.209,149.596 174.209,149.263 175.5,149.5C 176.568,148.566 177.901,148.232 179.5,148.5C 183.943,147.199 188.609,146.532 193.5,146.5 Z M 247.5,149.5 C 248.906,149.973 249.573,150.973 249.5,152.5C 248.094,152.027 247.427,151.027 247.5,149.5 Z M 335.5,159.5 C 334.5,161.167 333.167,162.5 331.5,163.5C 331.833,161.167 333.167,159.833 335.5,159.5 Z M 382.5,170.5 C 385.089,170.461 387.089,171.461 388.5,173.5C 388.062,173.435 387.728,173.601 387.5,174C 392.774,177.274 396.608,181.774 399,187.5C 399.464,186.906 399.631,186.239 399.5,185.5C 404.833,194.833 404.833,204.167 399.5,213.5C 399.631,212.761 399.464,212.094 399,211.5C 396.608,217.226 392.774,221.726 387.5,225C 387.728,225.399 388.062,225.565 388.5,225.5C 387.089,227.539 385.089,228.539 382.5,228.5C 379.305,230.03 375.805,230.696 372,230.5C 368.195,230.696 364.695,230.03 361.5,228.5C 360.209,228.737 359.209,228.404 358.5,227.5C 359.239,227.631 359.906,227.464 360.5,227C 359.054,225.702 357.721,225.535 356.5,226.5C 354.973,226.573 353.973,225.906 353.5,224.5C 354.439,223.673 354.105,223.006 352.5,222.5C 352.5,221.833 352.167,221.5 351.5,221.5C 351.5,220.833 351.167,220.5 350.5,220.5C 350.5,219.833 350.167,219.5 349.5,219.5C 349.5,218.833 349.167,218.5 348.5,218.5C 348.013,217.527 347.513,216.527 347,215.5C 346.31,214.262 345.81,214.262 345.5,215.5C 343.896,214.713 343.229,213.38 343.5,211.5C 341.274,207.931 340.274,203.931 340.5,199.5C 340.274,195.069 341.274,191.069 343.5,187.5C 343.229,185.62 343.896,184.287 345.5,183.5C 345.435,183.938 345.601,184.272 346,184.5C 347.095,183.307 347.928,181.973 348.5,180.5C 349.167,180.5 349.5,180.167 349.5,179.5C 350.167,179.5 350.5,179.167 350.5,178.5C 351.167,178.5 351.5,178.167 351.5,177.5C 352.167,177.5 352.5,177.167 352.5,176.5C 354.105,175.994 354.439,175.327 353.5,174.5C 353.973,173.094 354.973,172.427 356.5,172.5C 357.721,173.465 359.054,173.298 360.5,172C 359.906,171.536 359.239,171.369 358.5,171.5C 359.209,170.596 360.209,170.263 361.5,170.5C 364.695,168.97 368.195,168.304 372,168.5C 375.805,168.304 379.305,168.97 382.5,170.5 Z M 352.5,175.5 C 352.5,175.833 352.5,176.167 352.5,176.5C 351.833,176.5 351.5,176.833 351.5,177.5C 350.833,177.5 350.5,177.833 350.5,178.5C 349.833,178.5 349.5,178.833 349.5,179.5C 348.833,179.5 348.5,179.833 348.5,180.5C 348.167,180.5 347.833,180.5 347.5,180.5C 348.167,177.833 349.833,176.167 352.5,175.5 Z M 347.5,218.5 C 347.833,218.5 348.167,218.5 348.5,218.5C 349.167,218.5 349.5,218.833 349.5,219.5C 350.167,219.5 350.5,219.833 350.5,220.5C 351.167,220.5 351.5,220.833 351.5,221.5C 352.167,221.5 352.5,221.833 352.5,222.5C 352.5,222.833 352.5,223.167 352.5,223.5C 349.833,222.833 348.167,221.167 347.5,218.5 Z M 231.5,230.5 C 231.833,230.5 232.167,230.5 232.5,230.5C 232.5,231.167 232.5,231.833 232.5,232.5C 231.833,232.833 231.167,233.167 230.5,233.5C 230.5,232.833 230.5,232.167 230.5,231.5C 231.167,231.5 231.5,231.167 231.5,230.5 Z M 156.5,239.5 C 157.167,239.5 157.833,239.5 158.5,239.5C 159.167,239.5 159.5,239.833 159.5,240.5C 159.5,240.833 159.5,241.167 159.5,241.5C 158.833,241.5 158.167,241.5 157.5,241.5C 157.167,240.833 156.833,240.167 156.5,239.5 Z M 222.5,239.5 C 223.167,239.5 223.833,239.5 224.5,239.5C 224.167,240.167 223.833,240.833 223.5,241.5C 222.833,241.5 222.167,241.5 221.5,241.5C 221.5,241.167 221.5,240.833 221.5,240.5C 222.167,240.5 222.5,240.167 222.5,239.5 Z M 249.5,246.5 C 249.573,248.027 248.906,249.027 247.5,249.5C 247.5,248.833 247.5,248.167 247.5,247.5C 248.167,247.167 248.833,246.833 249.5,246.5 Z M 308.5,248.5 C 308.027,249.906 307.027,250.573 305.5,250.5C 305.973,249.094 306.973,248.427 308.5,248.5 Z M 303.5,252.5 C 303.167,253.167 302.833,253.833 302.5,254.5C 301.833,254.5 301.167,254.5 300.5,254.5C 300.973,253.094 301.973,252.427 303.5,252.5 Z M 238.5,257.5 C 239.167,258.167 239.833,258.833 240.5,259.5C 239.5,259.5 238.5,259.5 237.5,259.5C 236.561,258.673 236.895,258.006 238.5,257.5 Z M 293.5,261.5 C 293.5,262.167 293.5,262.833 293.5,263.5C 292.5,264.167 291.5,264.833 290.5,265.5C 290.738,263.596 291.738,262.262 293.5,261.5 Z M 288.5,267.5 C 288.573,269.027 287.906,270.027 286.5,270.5C 286.427,268.973 287.094,267.973 288.5,267.5 Z M 319.5,269.5 C 319.027,270.906 318.027,271.573 316.5,271.5C 316.973,270.094 317.973,269.427 319.5,269.5 Z M 309.5,278.5 C 309.573,280.027 308.906,281.027 307.5,281.5C 307.427,279.973 308.094,278.973 309.5,278.5 Z M 427.5,278.5 C 428.167,278.833 428.833,279.167 429.5,279.5C 429.5,280.167 429.5,280.833 429.5,281.5C 428.094,281.027 427.427,280.027 427.5,278.5 Z M 261.5,296.5 C 262.167,296.5 262.833,296.5 263.5,296.5C 263.833,297.167 264.167,297.833 264.5,298.5C 262.973,298.573 261.973,297.906 261.5,296.5 Z M 111.5,304.5 C 111.027,305.906 110.027,306.573 108.5,306.5C 108.973,305.094 109.973,304.427 111.5,304.5 Z M 96.5,317.5 C 96.8333,317.5 97.1667,317.5 97.5,317.5C 97.2624,319.404 96.2624,320.738 94.5,321.5C 94.7329,319.938 95.3995,318.605 96.5,317.5 Z"/></g>
<g><path style="opacity:0.01" fill="#000000" d="M 211.5,126.5 C 211.897,125.475 212.563,125.308 213.5,126C 212.906,126.464 212.239,126.631 211.5,126.5 Z"/></g>
<g><path style="opacity:0.01" fill="#000000" d="M 166.5,127.5 C 165.761,127.631 165.094,127.464 164.5,127C 165.437,126.308 166.103,126.475 166.5,127.5 Z"/></g>
<g><path style="opacity:0.01" fill="#000000" d="M 214.5,127.5 C 214.897,126.475 215.563,126.308 216.5,127C 215.906,127.464 215.239,127.631 214.5,127.5 Z"/></g>
<g><path style="opacity:0.008" fill="#000000" d="M 161.5,128.5 C 161.897,127.475 162.563,127.308 163.5,128C 162.906,128.464 162.239,128.631 161.5,128.5 Z"/></g>
<g><path style="opacity:0.008" fill="#000000" d="M 217.5,128.5 C 217.897,127.475 218.563,127.308 219.5,128C 218.906,128.464 218.239,128.631 217.5,128.5 Z"/></g>
<g><path style="opacity:0.008" fill="#000000" d="M 365.5,144.5 C 369.311,143.355 373.311,143.188 377.5,144C 373.514,144.499 369.514,144.666 365.5,144.5 Z"/></g>
<g><path style="opacity:0.673" fill="#3439a1" d="M 142.5,142.5 C 139.833,145.833 136.833,148.833 133.5,151.5C 135.5,147.5 138.5,144.5 142.5,142.5 Z"/></g>
<g><path style="opacity:0.01" fill="#000000" d="M 359.5,145.5 C 360.601,144.402 361.934,144.235 363.5,145C 362.207,145.49 360.873,145.657 359.5,145.5 Z"/></g>
<g><path style="opacity:0.01" fill="#000000" d="M 379.5,145.5 C 380.601,144.402 381.934,144.235 383.5,145C 382.207,145.49 380.873,145.657 379.5,145.5 Z"/></g>
<g><path style="opacity:0.01" fill="#000000" d="M 356.5,146.5 C 356.897,145.475 357.563,145.308 358.5,146C 357.906,146.464 357.239,146.631 356.5,146.5 Z"/></g>
<g><path style="opacity:0.008" fill="#000000" d="M 384.5,146.5 C 385.251,145.427 386.251,145.26 387.5,146C 386.552,146.483 385.552,146.649 384.5,146.5 Z"/></g>
<g><path style="opacity:0.976" fill="#303494" d="M 194.5,146.5 C 200.683,146.13 206.349,147.464 211.5,150.5C 210.5,150.5 209.5,150.5 208.5,150.5C 207.791,149.596 206.791,149.263 205.5,149.5C 204.432,148.566 203.099,148.232 201.5,148.5C 199.167,147.833 196.833,147.167 194.5,146.5 Z"/></g>
<g><path style="opacity:0.01" fill="#000000" d="M 355.5,147.5 C 354.761,147.631 354.094,147.464 353.5,147C 354.437,146.308 355.103,146.475 355.5,147.5 Z"/></g>
<g><path style="opacity:0.961" fill="#282b7a" d="M 364.5,146.5 C 369.305,145.513 374.305,145.179 379.5,145.5C 380.919,146.451 382.585,146.784 384.5,146.5C 385.5,147.167 386.5,147.833 387.5,148.5C 379.924,146.935 372.258,146.268 364.5,146.5 Z"/></g>
<g><path style="opacity:0.01" fill="#000000" d="M 388.5,147.5 C 388.897,146.475 389.563,146.308 390.5,147C 389.906,147.464 389.239,147.631 388.5,147.5 Z"/></g>
<g><path style="opacity:0.008" fill="#000000" d="M 391.5,148.5 C 391.897,147.475 392.563,147.308 393.5,148C 392.906,148.464 392.239,148.631 391.5,148.5 Z"/></g>
<g><path style="opacity:0.169" fill="#303595" d="M 193.5,146.5 C 188.609,146.532 183.943,147.199 179.5,148.5C 177.901,148.232 176.568,148.566 175.5,149.5C 174.209,149.263 173.209,149.596 172.5,150.5C 171.5,150.5 170.5,150.5 169.5,150.5C 173.085,148.262 177.085,146.929 181.5,146.5C 185.661,145.353 189.661,145.353 193.5,146.5 Z"/></g>
<g><path style="opacity:0.976" fill="#343aa3" d="M 364.5,146.5 C 359.202,148.16 353.869,149.827 348.5,151.5C 350.703,149.9 353.036,148.567 355.5,147.5C 358.482,147.037 361.482,146.704 364.5,146.5 Z"/></g>
<g><path style="opacity:0.325" fill="#3439a2" d="M 390.5,149.5 C 392.921,149.878 395.254,150.545 397.5,151.5C 399.205,153.192 401.205,154.525 403.5,155.5C 403.833,156.167 404.167,156.833 404.5,157.5C 399.825,154.83 395.159,152.163 390.5,149.5 Z"/></g>
<g><path style="opacity:0.012" fill="#000000" d="M 397.5,150.5 C 398.833,151.167 398.833,151.167 397.5,150.5 Z"/></g>
<g><path style="opacity:0.008" fill="#000000" d="M 338.5,154.5 C 339.833,155.167 339.833,155.167 338.5,154.5 Z"/></g>
<g><path style="opacity:0.012" fill="#000000" d="M 403.5,154.5 C 404.833,155.167 404.833,155.167 403.5,154.5 Z"/></g>
<g><path style="opacity:0.008" fill="#000000" d="M 405.5,155.5 C 406.833,156.167 406.833,156.167 405.5,155.5 Z"/></g>
<g><path style="opacity:1" fill="#3439a0" d="M 223.5,157.5 C 227.5,159.5 230.5,162.5 232.5,166.5C 231.833,166.167 231.167,165.833 230.5,165.5C 228.833,163.167 226.833,161.167 224.5,159.5C 224.167,158.833 223.833,158.167 223.5,157.5 Z"/></g>
<g><path style="opacity:0.016" fill="#000000" d="M 417.5,168.5 C 416.833,167.167 416.833,167.167 417.5,168.5 Z"/></g>
<g><path style="opacity:0.01" fill="#000000" d="M 261.5,170.5 C 261.167,170.5 260.833,170.5 260.5,170.5C 260.833,167.833 261.167,167.833 261.5,170.5 Z"/></g>
<g><path style="opacity:0.008" fill="#000000" d="M 417.5,168.5 C 418.833,169.167 418.833,169.167 417.5,168.5 Z"/></g>
<g><path style="opacity:0.008" fill="#000000" d="M 118.5,170.5 C 119.525,170.897 119.692,171.563 119,172.5C 118.536,171.906 118.369,171.239 118.5,170.5 Z"/></g>
<g><path style="opacity:0.008" fill="#000000" d="M 261.5,170.5 C 262.525,170.897 262.692,171.563 262,172.5C 261.536,171.906 261.369,171.239 261.5,170.5 Z"/></g>
<g><path style="opacity:0.01" fill="#000000" d="M 118.5,175.5 C 117.475,175.103 117.308,174.437 118,173.5C 118.464,174.094 118.631,174.761 118.5,175.5 Z"/></g>
<g><path style="opacity:0.01" fill="#000000" d="M 262.5,175.5 C 262.369,174.761 262.536,174.094 263,173.5C 263.692,174.437 263.525,175.103 262.5,175.5 Z"/></g>
<g><path style="opacity:0.01" fill="#000000" d="M 116.5,176.5 C 117.525,176.897 117.692,177.563 117,178.5C 116.536,177.906 116.369,177.239 116.5,176.5 Z"/></g>
<g><path style="opacity:0.01" fill="#000000" d="M 263.5,176.5 C 264.525,176.897 264.692,177.563 264,178.5C 263.536,177.906 263.369,177.239 263.5,176.5 Z"/></g>
<g><path style="opacity:0.009" fill="#000000" d="M 115.5,179.5 C 116.573,180.251 116.74,181.251 116,182.5C 115.517,181.552 115.351,180.552 115.5,179.5 Z"/></g>
<g><path style="opacity:0.009" fill="#000000" d="M 264.5,179.5 C 265.573,180.251 265.74,181.251 265,182.5C 264.517,181.552 264.351,180.552 264.5,179.5 Z"/></g>
<g><path style="opacity:0.196" fill="#303494" d="M 141.5,178.5 C 141.5,179.5 141.5,180.5 141.5,181.5C 140.596,182.209 140.263,183.209 140.5,184.5C 139.566,185.568 139.232,186.901 139.5,188.5C 136.833,195.833 136.833,203.167 139.5,210.5C 139.232,212.099 139.566,213.432 140.5,214.5C 140.263,215.791 140.596,216.791 141.5,217.5C 141.5,218.5 141.5,219.5 141.5,220.5C 136.651,210.021 135.485,199.021 138,187.5C 138.505,184.135 139.672,181.135 141.5,178.5 Z"/></g>
<g><path style="opacity:0.008" fill="#000000" d="M 424.5,185.5 C 424.351,184.448 424.517,183.448 425,182.5C 425.74,183.749 425.573,184.749 424.5,185.5 Z"/></g>
<g><path style="opacity:0.01" fill="#000000" d="M 114.5,183.5 C 115.598,184.601 115.765,185.934 115,187.5C 114.51,186.207 114.343,184.873 114.5,183.5 Z"/></g>
<g><path style="opacity:0.01" fill="#000000" d="M 265.5,183.5 C 266.598,184.601 266.765,185.934 266,187.5C 265.51,186.207 265.343,184.873 265.5,183.5 Z"/></g>
<g><path style="opacity:0.01" fill="#000000" d="M 317.5,184.5 C 318.573,185.251 318.74,186.251 318,187.5C 317.517,186.552 317.351,185.552 317.5,184.5 Z"/></g>
<g><path style="opacity:0.01" fill="#000000" d="M 425.5,186.5 C 426.573,187.251 426.74,188.251 426,189.5C 425.517,188.552 425.351,187.552 425.5,186.5 Z"/></g>
<g><path style="opacity:0.91" fill="#2d318b" d="M 118.5,179.5 C 118.58,182.781 117.913,185.781 116.5,188.5C 116.42,185.219 117.087,182.219 118.5,179.5 Z"/></g>
<g><path style="opacity:0.01" fill="#000000" d="M 113.5,189.5 C 114.654,195.987 114.821,202.654 114,209.5C 113.5,202.842 113.334,196.175 113.5,189.5 Z"/></g>
<g><path style="opacity:0.011" fill="#000000" d="M 266.5,189.5 C 267.654,195.987 267.821,202.654 267,209.5C 266.5,202.842 266.334,196.175 266.5,189.5 Z"/></g>
<g><path style="opacity:0.011" fill="#000000" d="M 316.5,189.5 C 317.598,190.601 317.765,191.934 317,193.5C 316.51,192.207 316.343,190.873 316.5,189.5 Z"/></g>
<g><path style="opacity:0.01" fill="#000000" d="M 426.5,191.5 C 427.651,196.65 427.817,201.984 427,207.5C 426.501,202.177 426.334,196.844 426.5,191.5 Z"/></g>
<g><path style="opacity:0.009" fill="#000000" d="M 316.5,204.5 C 317.613,205.946 317.78,207.613 317,209.5C 316.506,207.866 316.34,206.199 316.5,204.5 Z"/></g>
<g><path style="opacity:0.01" fill="#000000" d="M 425.5,209.5 C 426.573,210.251 426.74,211.251 426,212.5C 425.517,211.552 425.351,210.552 425.5,209.5 Z"/></g>
<g><path style="opacity:0.98" fill="#313597" d="M 239.5,178.5 C 244.468,188.962 245.635,199.962 243,211.5C 242.495,214.865 241.328,217.865 239.5,220.5C 239.5,219.5 239.5,218.5 239.5,217.5C 240.404,216.791 240.737,215.791 240.5,214.5C 241.434,213.432 241.768,212.099 241.5,210.5C 244.167,203.167 244.167,195.833 241.5,188.5C 241.768,186.901 241.434,185.568 240.5,184.5C 240.737,183.209 240.404,182.209 239.5,181.5C 239.5,180.5 239.5,179.5 239.5,178.5 Z"/></g>
<g><path style="opacity:0.01" fill="#000000" d="M 114.5,211.5 C 115.598,212.601 115.765,213.934 115,215.5C 114.51,214.207 114.343,212.873 114.5,211.5 Z"/></g>
<g><path style="opacity:0.01" fill="#000000" d="M 265.5,211.5 C 266.598,212.601 266.765,213.934 266,215.5C 265.51,214.207 265.343,212.873 265.5,211.5 Z"/></g>
<g><path style="opacity:0.01" fill="#000000" d="M 317.5,211.5 C 318.573,212.251 318.74,213.251 318,214.5C 317.517,213.552 317.351,212.552 317.5,211.5 Z"/></g>
<g><path style="opacity:0.506" fill="#2f3391" d="M 318.5,203.5 C 319.784,207.985 320.784,212.651 321.5,217.5C 321.167,217.5 320.833,217.5 320.5,217.5C 319.193,212.934 318.526,208.267 318.5,203.5 Z"/></g>
<g><path style="opacity:0.008" fill="#000000" d="M 424.5,213.5 C 425.833,214.5 425.833,215.5 424.5,216.5C 424.5,215.5 424.5,214.5 424.5,213.5 Z"/></g>
<g><path style="opacity:0.009" fill="#000000" d="M 115.5,216.5 C 116.573,217.251 116.74,218.251 116,219.5C 115.517,218.552 115.351,217.552 115.5,216.5 Z"/></g>
<g><path style="opacity:0.009" fill="#000000" d="M 264.5,216.5 C 265.573,217.251 265.74,218.251 265,219.5C 264.517,218.552 264.351,217.552 264.5,216.5 Z"/></g>
<g><path style="opacity:0.008" fill="#000000" d="M 423.5,216.5 C 423.833,216.5 424.167,216.5 424.5,216.5C 424.167,219.167 423.833,219.167 423.5,216.5 Z"/></g>
<g><path style="opacity:0.008" fill="#000000" d="M 320.5,217.5 C 320.631,218.239 320.464,218.906 320,219.5C 319.308,218.563 319.475,217.897 320.5,217.5 Z"/></g>
<g><path style="opacity:0.01" fill="#000000" d="M 422.5,219.5 C 423.833,220.167 423.833,220.833 422.5,221.5C 422.5,220.833 422.5,220.167 422.5,219.5 Z"/></g>
<g><path style="opacity:0.01" fill="#000000" d="M 116.5,220.5 C 117.525,220.897 117.692,221.563 117,222.5C 116.536,221.906 116.369,221.239 116.5,220.5 Z"/></g>
<g><path style="opacity:0.01" fill="#000000" d="M 263.5,220.5 C 264.525,220.897 264.692,221.563 264,222.5C 263.536,221.906 263.369,221.239 263.5,220.5 Z"/></g>
<g><path style="opacity:0.008" fill="#000000" d="M 421.5,221.5 C 421.833,221.5 422.167,221.5 422.5,221.5C 422.672,222.492 422.338,223.158 421.5,223.5C 421.5,222.833 421.5,222.167 421.5,221.5 Z"/></g>
<g><path style="opacity:0.01" fill="#000000" d="M 118.5,223.5 C 118.631,224.239 118.464,224.906 118,225.5C 117.308,224.563 117.475,223.897 118.5,223.5 Z"/></g>
<g><path style="opacity:0.01" fill="#000000" d="M 262.5,223.5 C 263.525,223.897 263.692,224.563 263,225.5C 262.536,224.906 262.369,224.239 262.5,223.5 Z"/></g>
<g><path style="opacity:0.008" fill="#000000" d="M 420.5,223.5 C 420.833,223.5 421.167,223.5 421.5,223.5C 421.672,224.492 421.338,225.158 420.5,225.5C 420.5,224.833 420.5,224.167 420.5,223.5 Z"/></g>
<g><path style="opacity:0.996" fill="#3439a0" d="M 399.5,215.5 C 397.895,220.104 394.895,223.438 390.5,225.5C 393.529,222.141 396.529,218.808 399.5,215.5 Z"/></g>
<g><path style="opacity:0.008" fill="#000000" d="M 419.5,225.5 C 419.833,225.5 420.167,225.5 420.5,225.5C 420.672,226.492 420.338,227.158 419.5,227.5C 419.5,226.833 419.5,226.167 419.5,225.5 Z"/></g>
<g><path style="opacity:0.008" fill="#000000" d="M 118.5,226.5 C 119.525,226.897 119.692,227.563 119,228.5C 118.536,227.906 118.369,227.239 118.5,226.5 Z"/></g>
<g><path style="opacity:0.008" fill="#000000" d="M 261.5,228.5 C 261.369,227.761 261.536,227.094 262,226.5C 262.692,227.437 262.525,228.103 261.5,228.5 Z"/></g>
<g><path style="opacity:0.012" fill="#000000" d="M 418.5,227.5 C 418.833,227.5 419.167,227.5 419.5,227.5C 419.315,228.17 418.981,228.17 418.5,227.5 Z"/></g>
<g><path style="opacity:0.01" fill="#000000" d="M 260.5,228.5 C 260.833,228.5 261.167,228.5 261.5,228.5C 261.672,229.492 261.338,230.158 260.5,230.5C 260.5,229.833 260.5,229.167 260.5,228.5 Z"/></g>
<g><path style="opacity:0.008" fill="#000000" d="M 417.5,229.5 C 418.833,230.167 418.833,230.167 417.5,229.5 Z"/></g>
<g><path style="opacity:0.008" fill="#000000" d="M 259.5,230.5 C 259.833,230.5 260.167,230.5 260.5,230.5C 260.672,231.492 260.338,232.158 259.5,232.5C 259.5,231.833 259.5,231.167 259.5,230.5 Z"/></g>
<g><path style="opacity:0.016" fill="#000000" d="M 416.5,230.5 C 416.833,230.5 417.167,230.5 417.5,230.5C 417.315,231.17 416.981,231.17 416.5,230.5 Z"/></g>
<g><path style="opacity:0.006" fill="#000000" d="M 415.5,231.5 C 415.833,231.5 416.167,231.5 416.5,231.5C 416.672,232.492 416.338,233.158 415.5,233.5C 415.5,232.833 415.5,232.167 415.5,231.5 Z"/></g>
<g><path style="opacity:0.006" fill="#000000" d="M 258.5,232.5 C 258.833,232.5 259.167,232.5 259.5,232.5C 259.672,233.492 259.338,234.158 258.5,234.5C 258.5,233.833 258.5,233.167 258.5,232.5 Z"/></g>
<g><path style="opacity:0.008" fill="#000000" d="M 414.5,233.5 C 414.833,233.5 415.167,233.5 415.5,233.5C 415.315,234.17 414.981,234.17 414.5,233.5 Z"/></g>
<g><path style="opacity:0.008" fill="#000000" d="M 257.5,234.5 C 257.833,234.5 258.167,234.5 258.5,234.5C 258.672,235.492 258.338,236.158 257.5,236.5C 257.5,235.833 257.5,235.167 257.5,234.5 Z"/></g>
<g><path style="opacity:0.013" fill="#000000" d="M 330.5,234.5 C 330.5,235.167 330.833,235.5 331.5,235.5C 331.5,235.833 331.5,236.167 331.5,236.5C 329.576,236.289 329.243,235.623 330.5,234.5 Z"/></g>
<g><path style="opacity:0.012" fill="#000000" d="M 413.5,234.5 C 413.833,234.5 414.167,234.5 414.5,234.5C 414.315,235.17 413.981,235.17 413.5,234.5 Z"/></g>
<g><path style="opacity:0.988" fill="#3439a1" d="M 148.5,232.5 C 149.167,232.833 149.833,233.167 150.5,233.5C 152.167,235.833 154.167,237.833 156.5,239.5C 156.833,240.167 157.167,240.833 157.5,241.5C 153.5,239.5 150.5,236.5 148.5,232.5 Z"/></g>
<g><path style="opacity:0.017" fill="#000000" d="M 412.5,235.5 C 412.833,235.5 413.167,235.5 413.5,235.5C 413.5,236.833 412.833,237.5 411.5,237.5C 411.5,237.167 411.5,236.833 411.5,236.5C 412.167,236.5 412.5,236.167 412.5,235.5 Z"/></g>
<g><path style="opacity:0.008" fill="#000000" d="M 256.5,236.5 C 256.833,236.5 257.167,236.5 257.5,236.5C 257.672,237.492 257.338,238.158 256.5,238.5C 256.5,237.833 256.5,237.167 256.5,236.5 Z"/></g>
<g><path style="opacity:0.98" fill="#33389e" d="M 232.5,232.5 C 230.5,236.5 227.5,239.5 223.5,241.5C 223.833,240.833 224.167,240.167 224.5,239.5C 226.833,237.833 228.833,235.833 230.5,233.5C 231.167,233.167 231.833,232.833 232.5,232.5 Z"/></g>
<g><path style="opacity:0.012" fill="#000000" d="M 255.5,238.5 C 255.833,238.5 256.167,238.5 256.5,238.5C 256.315,239.17 255.981,239.17 255.5,238.5 Z"/></g>
<g><path style="opacity:0.012" fill="#000000" d="M 323.5,239.5 C 322.833,238.167 322.833,238.167 323.5,239.5 Z"/></g>
<g><path style="opacity:0.969" fill="#343aa2" d="M 328.5,230.5 C 335.67,235.319 335.003,238.319 326.5,239.5C 328.072,238.313 329.739,237.313 331.5,236.5C 332.833,236.167 332.833,235.833 331.5,235.5C 330.833,235.5 330.5,235.167 330.5,234.5C 329.4,233.395 328.733,232.062 328.5,230.5 Z"/></g>
<g><path style="opacity:0.006" fill="#000000" d="M 254.5,239.5 C 254.833,239.5 255.167,239.5 255.5,239.5C 255.672,240.492 255.338,241.158 254.5,241.5C 254.5,240.833 254.5,240.167 254.5,239.5 Z"/></g>
<g><path style="opacity:0.349" fill="#353aa3" d="M 414.5,231.5 C 414.5,232.167 414.5,232.833 414.5,233.5C 413.833,233.5 413.5,233.833 413.5,234.5C 412.833,234.5 412.5,234.833 412.5,235.5C 411.833,235.5 411.5,235.833 411.5,236.5C 410.167,236.833 410.167,237.167 411.5,237.5C 413.849,239.341 416.515,240.674 419.5,241.5C 419.833,242.167 420.167,242.833 420.5,243.5C 416.824,242.246 413.324,240.579 410,238.5C 409.968,235.332 411.468,232.999 414.5,231.5 Z"/></g>
<g><path style="opacity:0.012" fill="#000000" d="M 419.5,240.5 C 420.833,241.167 420.833,241.167 419.5,240.5 Z"/></g>
<g><path style="opacity:0.012" fill="#000000" d="M 253.5,241.5 C 253.833,241.5 254.167,241.5 254.5,241.5C 254.315,242.17 253.981,242.17 253.5,241.5 Z"/></g>
<g><path style="opacity:0.012" fill="#000000" d="M 317.5,242.5 C 316.833,241.167 316.833,241.167 317.5,242.5 Z"/></g>
<g><path style="opacity:0.008" fill="#000000" d="M 421.5,241.5 C 422.833,242.167 422.833,242.167 421.5,241.5 Z"/></g>
<g><path style="opacity:0.006" fill="#000000" d="M 252.5,242.5 C 252.833,242.5 253.167,242.5 253.5,242.5C 253.672,243.492 253.338,244.158 252.5,244.5C 252.5,243.833 252.5,243.167 252.5,242.5 Z"/></g>
<g><path style="opacity:0.008" fill="#000000" d="M 314.5,242.5 C 315.833,243.167 315.833,243.167 314.5,242.5 Z"/></g>
<g><path style="opacity:0.012" fill="#000000" d="M 251.5,244.5 C 251.833,244.5 252.167,244.5 252.5,244.5C 252.315,245.17 251.981,245.17 251.5,244.5 Z"/></g>
<g><path style="opacity:0.012" fill="#000000" d="M 425.5,244.5 C 426.833,245.167 426.833,245.167 425.5,244.5 Z"/></g>
<g><path style="opacity:0.016" fill="#000000" d="M 250.5,245.5 C 250.833,245.5 251.167,245.5 251.5,245.5C 251.315,246.17 250.981,246.17 250.5,245.5 Z"/></g>
<g><path style="opacity:0.008" fill="#000000" d="M 427.5,245.5 C 428.833,246.167 428.833,246.167 427.5,245.5 Z"/></g>
<g><path style="opacity:0.676" fill="#3439a2" d="M 133.5,247.5 C 136.833,250.167 139.833,253.167 142.5,256.5C 138.5,254.5 135.5,251.5 133.5,247.5 Z"/></g>
<g><path style="opacity:0.012" fill="#000000" d="M 246.5,250.5 C 247.833,251.167 247.833,251.167 246.5,250.5 Z"/></g>
<g><path style="opacity:0.976" fill="#303494" d="M 169.5,248.5 C 170.5,248.5 171.5,248.5 172.5,248.5C 173.209,249.404 174.209,249.737 175.5,249.5C 176.568,250.434 177.901,250.768 179.5,250.5C 186.833,253.167 194.167,253.167 201.5,250.5C 203.099,250.768 204.432,250.434 205.5,249.5C 206.791,249.737 207.791,249.404 208.5,248.5C 209.5,248.5 210.5,248.5 211.5,248.5C 201.021,253.349 190.021,254.515 178.5,252C 175.135,251.495 172.135,250.328 169.5,248.5 Z"/></g>
<g><path style="opacity:0.408" fill="#343aa3" d="M 247.5,247.5 C 247.5,248.167 247.5,248.833 247.5,249.5C 246.833,249.5 246.5,249.833 246.5,250.5C 245.833,250.5 245.5,250.833 245.5,251.5C 244.833,251.5 244.5,251.833 244.5,252.5C 243.833,252.5 243.5,252.833 243.5,253.5C 242.833,253.5 242.5,253.833 242.5,254.5C 241.833,254.5 241.5,254.833 241.5,255.5C 240.833,255.5 240.5,255.833 240.5,256.5C 239.833,256.5 239.167,256.5 238.5,256.5C 241.167,253.167 244.167,250.167 247.5,247.5 Z"/></g>
<g><path style="opacity:0.016" fill="#000000" d="M 245.5,251.5 C 245.833,251.5 246.167,251.5 246.5,251.5C 246.315,252.17 245.981,252.17 245.5,251.5 Z"/></g>
<g><path style="opacity:0.016" fill="#000000" d="M 244.5,252.5 C 244.833,252.5 245.167,252.5 245.5,252.5C 245.315,253.17 244.981,253.17 244.5,252.5 Z"/></g>
<g><path style="opacity:0.675" fill="#3439a0" d="M 430.5,250.5 C 436.188,254.188 440.855,258.855 444.5,264.5C 439.452,260.119 434.785,255.452 430.5,250.5 Z"/></g>
<g><path style="opacity:0.016" fill="#000000" d="M 243.5,253.5 C 243.833,253.5 244.167,253.5 244.5,253.5C 244.315,254.17 243.981,254.17 243.5,253.5 Z"/></g>
<g><path style="opacity:0.976" fill="#2d318a" d="M 382.5,253.5 C 386.489,253.116 390.155,253.783 393.5,255.5C 392.167,255.5 390.833,255.5 389.5,255.5C 387.167,254.833 384.833,254.167 382.5,253.5 Z"/></g>
<g><path style="opacity:0.016" fill="#000000" d="M 242.5,254.5 C 242.833,254.5 243.167,254.5 243.5,254.5C 243.315,255.17 242.981,255.17 242.5,254.5 Z"/></g>
<g><path style="opacity:0.439" fill="#282c7c" d="M 378.5,253.5 C 367.874,252.992 357.541,253.992 347.5,256.5C 345.901,256.232 344.568,256.566 343.5,257.5C 342.167,257.5 340.833,257.5 339.5,257.5C 352.185,252.817 365.185,251.484 378.5,253.5 Z"/></g>
<g><path style="opacity:0.012" fill="#000000" d="M 361.5,255.5 C 367.987,254.346 374.654,254.179 381.5,255C 374.842,255.5 368.175,255.666 361.5,255.5 Z"/></g>
<g><path style="opacity:0.012" fill="#000000" d="M 241.5,255.5 C 241.833,255.5 242.167,255.5 242.5,255.5C 242.315,256.17 241.981,256.17 241.5,255.5 Z"/></g>
<g><path style="opacity:0.01" fill="#000000" d="M 353.5,256.5 C 354.946,255.387 356.613,255.22 358.5,256C 356.866,256.494 355.199,256.66 353.5,256.5 Z"/></g>
<g><path style="opacity:0.008" fill="#000000" d="M 389.5,255.5 C 388.054,256.613 386.387,256.78 384.5,256C 386.134,255.506 387.801,255.34 389.5,255.5 Z"/></g>
<g><path style="opacity:0.012" fill="#000000" d="M 240.5,256.5 C 240.833,256.5 241.167,256.5 241.5,256.5C 241.315,257.17 240.981,257.17 240.5,256.5 Z"/></g>
<g><path style="opacity:0.008" fill="#000000" d="M 347.5,256.5 C 348.873,256.343 350.207,256.51 351.5,257C 349.934,257.765 348.601,257.598 347.5,256.5 Z"/></g>
<g><path style="opacity:0.009" fill="#000000" d="M 390.5,257.5 C 391.251,256.427 392.251,256.26 393.5,257C 392.552,257.483 391.552,257.649 390.5,257.5 Z"/></g>
<g><path style="opacity:0.008" fill="#000000" d="M 343.5,257.5 C 344.552,257.351 345.552,257.517 346.5,258C 345.251,258.74 344.251,258.573 343.5,257.5 Z"/></g>
<g><path style="opacity:0.008" fill="#000000" d="M 397.5,257.5 C 396.749,258.573 395.749,258.74 394.5,258C 395.448,257.517 396.448,257.351 397.5,257.5 Z"/></g>
<g><path style="opacity:0.01" fill="#000000" d="M 340.5,259.5 C 340.897,258.475 341.563,258.308 342.5,259C 341.906,259.464 341.239,259.631 340.5,259.5 Z"/></g>
<g><path style="opacity:0.008" fill="#000000" d="M 140.5,260.5 C 139.761,260.631 139.094,260.464 138.5,260C 139.437,259.308 140.103,259.475 140.5,260.5 Z"/></g>
<g><path style="opacity:0.008" fill="#000000" d="M 243.5,260.5 C 243.897,259.475 244.563,259.308 245.5,260C 244.906,260.464 244.239,260.631 243.5,260.5 Z"/></g>
<g><path style="opacity:0.01" fill="#000000" d="M 337.5,259.5 C 338.239,259.369 338.906,259.536 339.5,260C 338.563,260.692 337.897,260.525 337.5,259.5 Z"/></g>
<g><path style="opacity:0.008" fill="#000000" d="M 402.5,259.5 C 402.103,260.525 401.437,260.692 400.5,260C 401.094,259.536 401.761,259.369 402.5,259.5 Z"/></g>
<g><path style="opacity:0.008" fill="#000000" d="M 334.5,261.5 C 334.5,261.167 334.5,260.833 334.5,260.5C 337.167,260.833 337.167,261.167 334.5,261.5 Z"/></g>
<g><path style="opacity:0.012" fill="#000000" d="M 403.5,260.5 C 404.833,261.167 404.833,261.167 403.5,260.5 Z"/></g>
<g><path style="opacity:0.008" fill="#000000" d="M 248.5,262.5 C 248.897,261.475 249.563,261.308 250.5,262C 249.906,262.464 249.239,262.631 248.5,262.5 Z"/></g>
<g><path style="opacity:0.929" fill="#353aa3" d="M 300.5,254.5 C 301.167,254.5 301.833,254.5 302.5,254.5C 299.833,257.833 296.833,260.833 293.5,263.5C 293.5,262.833 293.5,262.167 293.5,261.5C 296.167,259.5 298.5,257.167 300.5,254.5 Z"/></g>
<g><path style="opacity:0.008" fill="#000000" d="M 332.5,261.5 C 333.167,261.5 333.833,261.5 334.5,261.5C 333.833,262.833 333.167,262.833 332.5,261.5 Z"/></g>
<g><path style="opacity:0.012" fill="#000000" d="M 405.5,261.5 C 406.833,262.167 406.833,262.167 405.5,261.5 Z"/></g>
<g><path style="opacity:0.012" fill="#000000" d="M 131.5,262.5 C 132.833,263.167 132.833,263.167 131.5,262.5 Z"/></g>
<g><path style="opacity:0.325" fill="#33389f" d="M 237.5,259.5 C 238.5,259.5 239.5,259.5 240.5,259.5C 241.209,260.404 242.209,260.737 243.5,260.5C 244.93,261.537 246.597,262.204 248.5,262.5C 249.167,263.167 249.833,263.833 250.5,264.5C 245.777,263.63 241.444,261.964 237.5,259.5 Z"/></g>
<g><path style="opacity:0.012" fill="#000000" d="M 251.5,262.5 C 252.833,263.167 252.833,263.167 251.5,262.5 Z"/></g>
<g><path style="opacity:0.012" fill="#000000" d="M 330.5,262.5 C 331.833,263.167 331.833,263.167 330.5,262.5 Z"/></g>
<g><path style="opacity:0.012" fill="#000000" d="M 328.5,263.5 C 329.833,264.167 329.833,264.167 328.5,263.5 Z"/></g>
<g><path style="opacity:0.01" fill="#000000" d="M 410.5,263.5 C 410.5,263.833 410.5,264.167 410.5,264.5C 407.833,264.167 407.833,263.833 410.5,263.5 Z"/></g>
<g><path style="opacity:0.008" fill="#000000" d="M 326.5,265.5 C 326.5,265.167 326.5,264.833 326.5,264.5C 327.167,264.5 327.833,264.5 328.5,264.5C 328.158,265.338 327.492,265.672 326.5,265.5 Z"/></g>
<g><path style="opacity:0.008" fill="#000000" d="M 410.5,264.5 C 411.833,265.167 411.833,265.167 410.5,264.5 Z"/></g>
<g><path style="opacity:0.008" fill="#000000" d="M 324.5,266.5 C 324.5,266.167 324.5,265.833 324.5,265.5C 325.167,265.5 325.833,265.5 326.5,265.5C 326.158,266.338 325.492,266.672 324.5,266.5 Z"/></g>
<g><path style="opacity:0.012" fill="#000000" d="M 259.5,266.5 C 260.833,267.167 260.833,267.167 259.5,266.5 Z"/></g>
<g><path style="opacity:0.016" fill="#000000" d="M 323.5,266.5 C 323.833,266.5 324.167,266.5 324.5,266.5C 324.315,267.17 323.981,267.17 323.5,266.5 Z"/></g>
<g><path style="opacity:0.012" fill="#000000" d="M 449.5,267.5 C 448.833,266.167 448.833,266.167 449.5,267.5 Z"/></g>
<g><path style="opacity:0.98" fill="#343aa2" d="M 133.5,264.5 C 129.818,267.008 125.818,269.008 121.5,270.5C 124.914,267.46 128.914,265.46 133.5,264.5 Z"/></g>
<g><path style="opacity:0.2" fill="#313698" d="M 250.5,264.5 C 253.594,265.213 256.594,266.213 259.5,267.5C 259.842,268.338 260.508,268.672 261.5,268.5C 261.833,269.167 262.167,269.833 262.5,270.5C 258.182,269.008 254.182,267.008 250.5,264.5 Z"/></g>
<g><path style="opacity:0.012" fill="#000000" d="M 261.5,267.5 C 262.833,268.167 262.833,268.167 261.5,267.5 Z"/></g>
<g><path style="opacity:0.006" fill="#000000" d="M 321.5,268.5 C 321.5,268.167 321.5,267.833 321.5,267.5C 322.167,267.5 322.833,267.5 323.5,267.5C 323.158,268.338 322.492,268.672 321.5,268.5 Z"/></g>
<g><path style="opacity:0.008" fill="#000000" d="M 449.5,267.5 C 450.833,268.167 450.833,268.167 449.5,267.5 Z"/></g>
<g><path style="opacity:0.012" fill="#000000" d="M 119.5,268.5 C 120.833,269.167 120.833,269.167 119.5,268.5 Z"/></g>
<g><path style="opacity:0.008" fill="#000000" d="M 263.5,268.5 C 264.833,269.167 264.833,269.167 263.5,268.5 Z"/></g>
<g><path style="opacity:0.016" fill="#000000" d="M 320.5,268.5 C 320.833,268.5 321.167,268.5 321.5,268.5C 321.315,269.17 320.981,269.17 320.5,268.5 Z"/></g>
<g><path style="opacity:0.016" fill="#000000" d="M 452.5,271.5 C 451.833,270.167 451.833,270.167 452.5,271.5 Z"/></g>
<g><path style="opacity:0.008" fill="#000000" d="M 452.5,271.5 C 453.833,272.167 453.833,272.167 452.5,271.5 Z"/></g>
<g><path style="opacity:0.016" fill="#000000" d="M 269.5,272.5 C 270.833,273.167 270.833,273.167 269.5,272.5 Z"/></g>
<g><path style="opacity:0.016" fill="#000000" d="M 315.5,272.5 C 316.833,273.167 316.833,273.167 315.5,272.5 Z"/></g>
<g><path style="opacity:0.89" fill="#303494" d="M 196.5,274.5 C 190.149,274.557 183.815,274.89 177.5,275.5C 181.239,274.078 185.239,273.411 189.5,273.5C 192.025,273.503 194.359,273.837 196.5,274.5 Z"/></g>
<g><path style="opacity:0.008" fill="#000000" d="M 271.5,273.5 C 272.833,274.167 272.833,274.167 271.5,273.5 Z"/></g>
<g><path style="opacity:0.016" fill="#000000" d="M 314.5,273.5 C 314.833,273.5 315.167,273.5 315.5,273.5C 315.315,274.17 314.981,274.17 314.5,273.5 Z"/></g>
<g><path style="opacity:0.775" fill="#3439a0" d="M 416.5,266.5 C 421.833,269.833 426.167,274.167 429.5,279.5C 428.833,279.167 428.167,278.833 427.5,278.5C 423.833,274.5 420.167,270.5 416.5,266.5 Z"/></g>
<g><path style="opacity:0.016" fill="#000000" d="M 313.5,274.5 C 313.833,274.5 314.167,274.5 314.5,274.5C 314.315,275.17 313.981,275.17 313.5,274.5 Z"/></g>
<g><path style="opacity:0.549" fill="#2b2f84" d="M 173.5,275.5 C 171.5,276.167 169.5,276.833 167.5,277.5C 165.585,277.216 163.919,277.549 162.5,278.5C 160.901,278.232 159.568,278.566 158.5,279.5C 157.167,279.5 155.833,279.5 154.5,279.5C 160.452,276.908 166.786,275.575 173.5,275.5 Z"/></g>
<g><path style="opacity:0.004" fill="#000000" d="M 187.5,276.5 C 189.288,275.378 191.288,275.211 193.5,276C 191.527,276.495 189.527,276.662 187.5,276.5 Z"/></g>
<g><path style="opacity:0.773" fill="#2d328d" d="M 209.5,275.5 C 214.848,275.369 219.848,276.369 224.5,278.5C 223.167,278.5 221.833,278.5 220.5,278.5C 219.081,277.549 217.415,277.216 215.5,277.5C 213.5,276.833 211.5,276.167 209.5,275.5 Z"/></g>
<g><path style="opacity:0.016" fill="#000000" d="M 312.5,275.5 C 312.833,275.5 313.167,275.5 313.5,275.5C 313.315,276.17 312.981,276.17 312.5,275.5 Z"/></g>
<g><path style="opacity:0.01" fill="#000000" d="M 174.5,277.5 C 176.628,276.371 178.961,276.204 181.5,277C 179.19,277.497 176.857,277.663 174.5,277.5 Z"/></g>
<g><path style="opacity:0.009" fill="#000000" d="M 200.5,277.5 C 202.966,276.366 205.633,276.199 208.5,277C 205.854,277.497 203.187,277.664 200.5,277.5 Z"/></g>
<g><path style="opacity:0.016" fill="#000000" d="M 311.5,276.5 C 311.833,276.5 312.167,276.5 312.5,276.5C 312.315,277.17 311.981,277.17 311.5,276.5 Z"/></g>
<g><path style="opacity:0.009" fill="#000000" d="M 167.5,277.5 C 169.199,277.34 170.866,277.506 172.5,278C 170.613,278.78 168.946,278.613 167.5,277.5 Z"/></g>
<g><path style="opacity:0.009" fill="#000000" d="M 215.5,277.5 C 214.054,278.613 212.387,278.78 210.5,278C 212.134,277.506 213.801,277.34 215.5,277.5 Z"/></g>
<g><path style="opacity:0.012" fill="#000000" d="M 310.5,277.5 C 310.833,277.5 311.167,277.5 311.5,277.5C 311.315,278.17 310.981,278.17 310.5,277.5 Z"/></g>
<g><path style="opacity:0.008" fill="#000000" d="M 162.5,278.5 C 163.873,278.343 165.207,278.51 166.5,279C 164.934,279.765 163.601,279.598 162.5,278.5 Z"/></g>
<g><path style="opacity:0.009" fill="#000000" d="M 220.5,278.5 C 219.399,279.598 218.066,279.765 216.5,279C 217.793,278.51 219.127,278.343 220.5,278.5 Z"/></g>
<g><path style="opacity:0.009" fill="#000000" d="M 277.5,279.5 C 278.623,278.243 279.289,278.576 279.5,280.5C 279.167,280.5 278.833,280.5 278.5,280.5C 277.833,280.5 277.5,280.167 277.5,279.5 Z"/></g>
<g><path style="opacity:0.008" fill="#000000" d="M 458.5,280.5 C 458.167,280.5 457.833,280.5 457.5,280.5C 457.833,277.833 458.167,277.833 458.5,280.5 Z"/></g>
<g><path style="opacity:0.008" fill="#000000" d="M 102.5,279.5 C 103.833,280.167 103.833,280.167 102.5,279.5 Z"/></g>
<g><path style="opacity:0.01" fill="#000000" d="M 158.5,279.5 C 159.552,279.351 160.552,279.517 161.5,280C 160.251,280.74 159.251,280.573 158.5,279.5 Z"/></g>
<g><path style="opacity:0.009" fill="#000000" d="M 221.5,280.5 C 222.251,279.427 223.251,279.26 224.5,280C 223.552,280.483 222.552,280.649 221.5,280.5 Z"/></g>
<g><path style="opacity:0.01" fill="#000000" d="M 155.5,281.5 C 155.897,280.475 156.563,280.308 157.5,281C 156.906,281.464 156.239,281.631 155.5,281.5 Z"/></g>
<g><path style="opacity:0.009" fill="#000000" d="M 228.5,280.5 C 227.749,281.573 226.749,281.74 225.5,281C 226.448,280.517 227.448,280.351 228.5,280.5 Z"/></g>
<g><path style="opacity:0.008" fill="#000000" d="M 458.5,280.5 C 459.833,281.167 459.833,281.167 458.5,280.5 Z"/></g>
<g><path style="opacity:0.008" fill="#000000" d="M 152.5,282.5 C 152.897,281.475 153.563,281.308 154.5,282C 153.906,282.464 153.239,282.631 152.5,282.5 Z"/></g>
<g><path style="opacity:0.01" fill="#000000" d="M 229.5,282.5 C 229.897,281.475 230.563,281.308 231.5,282C 230.906,282.464 230.239,282.631 229.5,282.5 Z"/></g>
<g><path style="opacity:0.008" fill="#000000" d="M 149.5,283.5 C 149.897,282.475 150.563,282.308 151.5,283C 150.906,283.464 150.239,283.631 149.5,283.5 Z"/></g>
<g><path style="opacity:0.01" fill="#000000" d="M 232.5,283.5 C 232.897,282.475 233.563,282.308 234.5,283C 233.906,283.464 233.239,283.631 232.5,283.5 Z"/></g>
<g><path style="opacity:0.016" fill="#000000" d="M 306.5,282.5 C 307.833,283.167 307.833,283.167 306.5,282.5 Z"/></g>
<g><path style="opacity:0.01" fill="#000000" d="M 146.5,283.5 C 147.239,283.369 147.906,283.536 148.5,284C 147.563,284.692 146.897,284.525 146.5,283.5 Z"/></g>
<g><path style="opacity:0.01" fill="#000000" d="M 237.5,283.5 C 237.103,284.525 236.437,284.692 235.5,284C 236.094,283.536 236.761,283.369 237.5,283.5 Z"/></g>
<g><path style="opacity:0.006" fill="#000000" d="M 305.5,283.5 C 305.833,283.5 306.167,283.5 306.5,283.5C 306.672,284.492 306.338,285.158 305.5,285.5C 305.5,284.833 305.5,284.167 305.5,283.5 Z"/></g>
<g><path style="opacity:0.008" fill="#000000" d="M 143.5,285.5 C 143.5,285.167 143.5,284.833 143.5,284.5C 146.167,284.833 146.167,285.167 143.5,285.5 Z"/></g>
<g><path style="opacity:0.01" fill="#000000" d="M 141.5,286.5 C 141.5,286.167 141.5,285.833 141.5,285.5C 142.167,285.5 142.833,285.5 143.5,285.5C 143.158,286.338 142.492,286.672 141.5,286.5 Z"/></g>
<g><path style="opacity:0.012" fill="#000000" d="M 304.5,285.5 C 304.833,285.5 305.167,285.5 305.5,285.5C 305.315,286.17 304.981,286.17 304.5,285.5 Z"/></g>
<g><path style="opacity:0.6" fill="#33389e" d="M 143.5,283.5 C 143.5,283.833 143.5,284.167 143.5,284.5C 142.508,284.328 141.842,284.662 141.5,285.5C 140.508,285.328 139.842,285.662 139.5,286.5C 138.508,286.328 137.842,286.662 137.5,287.5C 136.508,287.328 135.842,287.662 135.5,288.5C 134.508,288.328 133.842,288.662 133.5,289.5C 132.508,289.328 131.842,289.662 131.5,290.5C 130.508,290.328 129.842,290.662 129.5,291.5C 128.833,291.5 128.167,291.5 127.5,291.5C 132.247,287.793 137.581,285.126 143.5,283.5 Z"/></g>
<g><path style="opacity:0.008" fill="#000000" d="M 139.5,286.5 C 140.167,286.5 140.833,286.5 141.5,286.5C 140.833,287.833 140.167,287.833 139.5,286.5 Z"/></g>
<g><path style="opacity:0.008" fill="#000000" d="M 244.5,286.5 C 244.103,287.525 243.437,287.692 242.5,287C 243.094,286.536 243.761,286.369 244.5,286.5 Z"/></g>
<g><path style="opacity:0.945" fill="#33399f" d="M 240.5,283.5 C 245.753,284.793 250.419,287.126 254.5,290.5C 252.5,289.833 250.5,289.167 248.5,288.5C 248.158,287.662 247.492,287.328 246.5,287.5C 246.158,286.662 245.492,286.328 244.5,286.5C 243.167,285.5 241.833,284.5 240.5,283.5 Z"/></g>
<g><path style="opacity:0.016" fill="#000000" d="M 303.5,286.5 C 303.833,286.5 304.167,286.5 304.5,286.5C 304.315,287.17 303.981,287.17 303.5,286.5 Z"/></g>
<g><path style="opacity:0.016" fill="#000000" d="M 433.5,286.5 C 432.833,287.167 432.833,287.167 433.5,286.5 Z"/></g>
<g><path style="opacity:0.012" fill="#000000" d="M 137.5,287.5 C 138.833,288.167 138.833,288.167 137.5,287.5 Z"/></g>
<g><path style="opacity:0.012" fill="#000000" d="M 246.5,287.5 C 245.833,288.167 245.833,288.167 246.5,287.5 Z"/></g>
<g><path style="opacity:0.006" fill="#000000" d="M 302.5,287.5 C 302.833,287.5 303.167,287.5 303.5,287.5C 303.672,288.492 303.338,289.158 302.5,289.5C 302.5,288.833 302.5,288.167 302.5,287.5 Z"/></g>
<g><path style="opacity:0.008" fill="#000000" d="M 463.5,289.5 C 463.167,289.5 462.833,289.5 462.5,289.5C 462.833,286.833 463.167,286.833 463.5,289.5 Z"/></g>
<g><path style="opacity:0.012" fill="#000000" d="M 135.5,288.5 C 136.833,289.167 136.833,289.167 135.5,288.5 Z"/></g>
<g><path style="opacity:0.012" fill="#000000" d="M 248.5,288.5 C 247.833,289.167 247.833,289.167 248.5,288.5 Z"/></g>
<g><path style="opacity:0.008" fill="#000000" d="M 433.5,288.5 C 434.833,289.167 434.833,289.167 433.5,288.5 Z"/></g>
<g><path style="opacity:0.012" fill="#000000" d="M 133.5,289.5 C 134.833,290.167 134.833,290.167 133.5,289.5 Z"/></g>
<g><path style="opacity:0.016" fill="#000000" d="M 301.5,289.5 C 301.833,289.5 302.167,289.5 302.5,289.5C 302.315,290.17 301.981,290.17 301.5,289.5 Z"/></g>
<g><path style="opacity:0.008" fill="#000000" d="M 463.5,289.5 C 464.525,289.897 464.692,290.563 464,291.5C 463.536,290.906 463.369,290.239 463.5,289.5 Z"/></g>
<g><path style="opacity:0.012" fill="#000000" d="M 131.5,290.5 C 132.833,291.167 132.833,291.167 131.5,290.5 Z"/></g>
<g><path style="opacity:0.008" fill="#000000" d="M 300.5,290.5 C 300.833,290.5 301.167,290.5 301.5,290.5C 301.672,291.492 301.338,292.158 300.5,292.5C 300.5,291.833 300.5,291.167 300.5,290.5 Z"/></g>
<g><path style="opacity:0.008" fill="#000000" d="M 129.5,292.5 C 129.5,292.167 129.5,291.833 129.5,291.5C 130.167,291.5 130.833,291.5 131.5,291.5C 131.158,292.338 130.492,292.672 129.5,292.5 Z"/></g>
<g><path style="opacity:0.006" fill="#000000" d="M 127.5,293.5 C 127.5,293.167 127.5,292.833 127.5,292.5C 128.167,292.5 128.833,292.5 129.5,292.5C 129.158,293.338 128.492,293.672 127.5,293.5 Z"/></g>
<g><path style="opacity:0.012" fill="#000000" d="M 299.5,292.5 C 299.833,292.5 300.167,292.5 300.5,292.5C 300.315,293.17 299.981,293.17 299.5,292.5 Z"/></g>
<g><path style="opacity:0.016" fill="#000000" d="M 437.5,292.5 C 436.833,293.167 436.833,293.167 437.5,292.5 Z"/></g>
<g><path style="opacity:0.012" fill="#000000" d="M 126.5,293.5 C 126.833,293.5 127.167,293.5 127.5,293.5C 127.315,294.17 126.981,294.17 126.5,293.5 Z"/></g>
<g><path style="opacity:0.006" fill="#000000" d="M 298.5,293.5 C 298.833,293.5 299.167,293.5 299.5,293.5C 299.672,294.492 299.338,295.158 298.5,295.5C 298.5,294.833 298.5,294.167 298.5,293.5 Z"/></g>
<g><path style="opacity:0.008" fill="#000000" d="M 124.5,295.5 C 124.5,295.167 124.5,294.833 124.5,294.5C 125.167,294.5 125.833,294.5 126.5,294.5C 126.158,295.338 125.492,295.672 124.5,295.5 Z"/></g>
<g><path style="opacity:0.012" fill="#000000" d="M 438.5,294.5 C 437.833,295.167 437.833,295.167 438.5,294.5 Z"/></g>
<g><path style="opacity:0.012" fill="#000000" d="M 123.5,295.5 C 123.833,295.5 124.167,295.5 124.5,295.5C 124.315,296.17 123.981,296.17 123.5,295.5 Z"/></g>
<g><path style="opacity:0.016" fill="#000000" d="M 297.5,295.5 C 297.833,295.5 298.167,295.5 298.5,295.5C 298.315,296.17 297.981,296.17 297.5,295.5 Z"/></g>
<g><path style="opacity:0.008" fill="#000000" d="M 121.5,297.5 C 121.5,297.167 121.5,296.833 121.5,296.5C 122.167,296.5 122.833,296.5 123.5,296.5C 123.158,297.338 122.492,297.672 121.5,297.5 Z"/></g>
<g><path style="opacity:0.006" fill="#000000" d="M 296.5,296.5 C 296.833,296.5 297.167,296.5 297.5,296.5C 297.672,297.492 297.338,298.158 296.5,298.5C 296.5,297.833 296.5,297.167 296.5,296.5 Z"/></g>
<g><path style="opacity:0.012" fill="#000000" d="M 438.5,296.5 C 439.833,297.167 439.833,297.167 438.5,296.5 Z"/></g>
<g><path style="opacity:0.012" fill="#000000" d="M 120.5,297.5 C 120.833,297.5 121.167,297.5 121.5,297.5C 121.315,298.17 120.981,298.17 120.5,297.5 Z"/></g>
<g><path style="opacity:0.008" fill="#000000" d="M 466.5,300.5 C 466.351,299.448 466.517,298.448 467,297.5C 467.74,298.749 467.573,299.749 466.5,300.5 Z"/></g>
<g><path style="opacity:0.006" fill="#000000" d="M 118.5,299.5 C 118.5,299.167 118.5,298.833 118.5,298.5C 119.167,298.5 119.833,298.5 120.5,298.5C 120.158,299.338 119.492,299.672 118.5,299.5 Z"/></g>
<g><path style="opacity:0.012" fill="#000000" d="M 295.5,298.5 C 295.833,298.5 296.167,298.5 296.5,298.5C 296.315,299.17 295.981,299.17 295.5,298.5 Z"/></g>
<g><path style="opacity:0.012" fill="#000000" d="M 439.5,298.5 C 440.833,299.167 440.833,299.167 439.5,298.5 Z"/></g>
<g><path style="opacity:0.016" fill="#000000" d="M 117.5,299.5 C 117.833,299.5 118.167,299.5 118.5,299.5C 118.315,300.17 117.981,300.17 117.5,299.5 Z"/></g>
<g><path style="opacity:0.012" fill="#000000" d="M 116.5,300.5 C 116.833,300.5 117.167,300.5 117.5,300.5C 117.315,301.17 116.981,301.17 116.5,300.5 Z"/></g>
<g><path style="opacity:0.957" fill="#3439a0" d="M 263.5,296.5 C 268.44,299.77 272.773,303.77 276.5,308.5C 275.833,308.5 275.167,308.5 274.5,308.5C 271.5,304.833 268.167,301.5 264.5,298.5C 264.167,297.833 263.833,297.167 263.5,296.5 Z"/></g>
<g><path style="opacity:0.012" fill="#000000" d="M 294.5,300.5 C 295.833,301.167 295.833,301.167 294.5,300.5 Z"/></g>
<g><path style="opacity:0.01" fill="#000000" d="M 441.5,300.5 C 441.631,301.239 441.464,301.906 441,302.5C 440.308,301.563 440.475,300.897 441.5,300.5 Z"/></g>
<g><path style="opacity:0.004" fill="#000000" d="M 114.5,302.5 C 114.5,302.167 114.5,301.833 114.5,301.5C 115.167,301.5 115.833,301.5 116.5,301.5C 116.158,302.338 115.492,302.672 114.5,302.5 Z"/></g>
<g><path style="opacity:0.008" fill="#000000" d="M 293.5,301.5 C 293.833,301.5 294.167,301.5 294.5,301.5C 294.672,302.492 294.338,303.158 293.5,303.5C 293.5,302.833 293.5,302.167 293.5,301.5 Z"/></g>
<g><path style="opacity:0.009" fill="#000000" d="M 467.5,301.5 C 468.573,302.251 468.74,303.251 468,304.5C 467.517,303.552 467.351,302.552 467.5,301.5 Z"/></g>
<g><path style="opacity:0.016" fill="#000000" d="M 113.5,302.5 C 113.833,302.5 114.167,302.5 114.5,302.5C 114.315,303.17 113.981,303.17 113.5,302.5 Z"/></g>
<g><path style="opacity:0.016" fill="#000000" d="M 112.5,303.5 C 112.833,303.5 113.167,303.5 113.5,303.5C 113.315,304.17 112.981,304.17 112.5,303.5 Z"/></g>
<g><path style="opacity:0.012" fill="#000000" d="M 292.5,303.5 C 292.833,303.5 293.167,303.5 293.5,303.5C 293.315,304.17 292.981,304.17 292.5,303.5 Z"/></g>
<g><path style="opacity:0.012" fill="#000000" d="M 441.5,303.5 C 442.525,303.897 442.692,304.563 442,305.5C 441.536,304.906 441.369,304.239 441.5,303.5 Z"/></g>
<g><path style="opacity:0.006" fill="#000000" d="M 291.5,304.5 C 291.833,304.5 292.167,304.5 292.5,304.5C 292.672,305.492 292.338,306.158 291.5,306.5C 291.5,305.833 291.5,305.167 291.5,304.5 Z"/></g>
<g><path style="opacity:0.008" fill="#000000" d="M 290.5,306.5 C 290.833,306.5 291.167,306.5 291.5,306.5C 291.315,307.17 290.981,307.17 290.5,306.5 Z"/></g>
<g><path style="opacity:0.01" fill="#000000" d="M 443.5,306.5 C 443.649,307.552 443.483,308.552 443,309.5C 442.26,308.251 442.427,307.251 443.5,306.5 Z"/></g>
<g><path style="opacity:0.01" fill="#000000" d="M 468.5,306.5 C 469.613,307.946 469.78,309.613 469,311.5C 468.506,309.866 468.34,308.199 468.5,306.5 Z"/></g>
<g><path style="opacity:0.012" fill="#000000" d="M 107.5,307.5 C 108.833,308.167 108.833,308.167 107.5,307.5 Z"/></g>
<g><path style="opacity:0.008" fill="#000000" d="M 289.5,307.5 C 289.833,307.5 290.167,307.5 290.5,307.5C 290.315,308.17 289.981,308.17 289.5,307.5 Z"/></g>
<g><path style="opacity:0.016" fill="#000000" d="M 106.5,308.5 C 106.833,308.5 107.167,308.5 107.5,308.5C 107.315,309.17 106.981,309.17 106.5,308.5 Z"/></g>
<g><path style="opacity:0.012" fill="#000000" d="M 274.5,308.5 C 274.5,308.833 274.5,309.167 274.5,309.5C 273.83,309.019 273.83,308.685 274.5,308.5 Z"/></g>
<g><path style="opacity:0.373" fill="#2c3087" d="M 290.5,304.5 C 290.5,305.167 290.5,305.833 290.5,306.5C 289.833,306.5 289.5,306.833 289.5,307.5C 288.833,307.5 288.5,307.833 288.5,308.5C 287.508,308.328 286.842,308.662 286.5,309.5C 285.508,309.328 284.842,309.662 284.5,310.5C 282.5,310.5 280.5,310.5 278.5,310.5C 278.5,310.167 278.5,309.833 278.5,309.5C 283.209,309.477 287.209,307.81 290.5,304.5 Z"/></g>
<g><path style="opacity:0.008" fill="#000000" d="M 288.5,308.5 C 288.833,308.5 289.167,308.5 289.5,308.5C 289.315,309.17 288.981,309.17 288.5,308.5 Z"/></g>
<g><path style="opacity:0.016" fill="#000000" d="M 105.5,309.5 C 105.833,309.5 106.167,309.5 106.5,309.5C 106.315,310.17 105.981,310.17 105.5,309.5 Z"/></g>
<g><path style="opacity:0.008" fill="#000000" d="M 274.5,309.5 C 275.833,310.167 275.833,310.167 274.5,309.5 Z"/></g>
<g><path style="opacity:0.006" fill="#000000" d="M 286.5,310.5 C 286.5,310.167 286.5,309.833 286.5,309.5C 287.167,309.5 287.833,309.5 288.5,309.5C 288.158,310.338 287.492,310.672 286.5,310.5 Z"/></g>
<g><path style="opacity:0.114" fill="#2c3189" d="M 443.5,302.5 C 445.04,304.838 445.706,307.505 445.5,310.5C 444.833,309.167 444.167,307.833 443.5,306.5C 443.5,305.167 443.5,303.833 443.5,302.5 Z"/></g>
<g><path style="opacity:0.016" fill="#000000" d="M 104.5,310.5 C 104.833,310.5 105.167,310.5 105.5,310.5C 105.315,311.17 104.981,311.17 104.5,310.5 Z"/></g>
<g><path style="opacity:0.008" fill="#000000" d="M 278.5,310.5 C 278.103,311.525 277.437,311.692 276.5,311C 277.094,310.536 277.761,310.369 278.5,310.5 Z"/></g>
<g><path style="opacity:0.01" fill="#000000" d="M 284.5,310.5 C 285.167,310.5 285.833,310.5 286.5,310.5C 285.833,311.833 285.167,311.833 284.5,310.5 Z"/></g>
<g><path style="opacity:0.486" fill="#313597" d="M 107.5,306.5 C 107.5,306.833 107.5,307.167 107.5,307.5C 106.833,307.5 106.5,307.833 106.5,308.5C 105.833,308.5 105.5,308.833 105.5,309.5C 104.833,309.5 104.5,309.833 104.5,310.5C 103.833,310.5 103.5,310.833 103.5,311.5C 102.833,311.5 102.5,311.833 102.5,312.5C 101.833,312.5 101.5,312.833 101.5,313.5C 100.833,313.5 100.5,313.833 100.5,314.5C 99.8333,314.5 99.5,314.833 99.5,315.5C 98.8333,315.5 98.5,315.833 98.5,316.5C 97.8333,316.5 97.5,316.833 97.5,317.5C 97.1667,317.5 96.8333,317.5 96.5,317.5C 99.1667,312.833 102.833,309.167 107.5,306.5 Z"/></g>
<g><path style="opacity:0.016" fill="#000000" d="M 103.5,311.5 C 103.833,311.5 104.167,311.5 104.5,311.5C 104.315,312.17 103.981,312.17 103.5,311.5 Z"/></g>
<g><path style="opacity:0.006" fill="#000000" d="M 279.5,312.5 C 280.601,311.402 281.934,311.235 283.5,312C 282.207,312.49 280.873,312.657 279.5,312.5 Z"/></g>
<g><path style="opacity:0.013" fill="#000000" d="M 443.5,311.5 C 444.641,314.64 444.808,317.973 444,321.5C 443.502,318.183 443.335,314.85 443.5,311.5 Z"/></g>
<g><path style="opacity:0.016" fill="#000000" d="M 102.5,312.5 C 102.833,312.5 103.167,312.5 103.5,312.5C 103.315,313.17 102.981,313.17 102.5,312.5 Z"/></g>
<g><path style="opacity:0.016" fill="#000000" d="M 101.5,313.5 C 101.833,313.5 102.167,313.5 102.5,313.5C 102.315,314.17 101.981,314.17 101.5,313.5 Z"/></g>
<g><path style="opacity:0.016" fill="#000000" d="M 100.5,314.5 C 100.833,314.5 101.167,314.5 101.5,314.5C 101.315,315.17 100.981,315.17 100.5,314.5 Z"/></g>
<g><path style="opacity:0.016" fill="#000000" d="M 99.5,315.5 C 99.8333,315.5 100.167,315.5 100.5,315.5C 100.315,316.17 99.9813,316.17 99.5,315.5 Z"/></g>
<g><path style="opacity:0.992" fill="#313595" d="M 464.5,297.5 C 465.167,298.5 465.833,299.5 466.5,300.5C 467.072,305.836 467.738,311.17 468.5,316.5C 468.191,320.37 467.524,324.037 466.5,327.5C 466.877,317.411 466.21,307.411 464.5,297.5 Z"/></g>
<g><path style="opacity:0.008" fill="#000000" d="M 66.5,316.5 C 67.8333,317.167 67.8333,317.167 66.5,316.5 Z"/></g>
<g><path style="opacity:0.012" fill="#000000" d="M 98.5,316.5 C 98.8333,316.5 99.1667,316.5 99.5,316.5C 99.3147,317.17 98.9813,317.17 98.5,316.5 Z"/></g>
<g><path style="opacity:0.009" fill="#000000" d="M 468.5,321.5 C 469.622,323.288 469.789,325.288 469,327.5C 468.505,325.527 468.338,323.527 468.5,321.5 Z"/></g>
<g><path style="opacity:0.016" fill="#000000" d="M 93.5,322.5 C 94.8333,323.167 94.8333,323.167 93.5,322.5 Z"/></g>
<g><path style="opacity:0.012" fill="#000000" d="M 92.5,323.5 C 92.8333,323.5 93.1667,323.5 93.5,323.5C 93.3147,324.17 92.9813,324.17 92.5,323.5 Z"/></g>
<g><path style="opacity:0.004" fill="#141127" d="M 91.5,324.5 C 91.8333,324.5 92.1667,324.5 92.5,324.5C 92.6716,325.492 92.3382,326.158 91.5,326.5C 91.5,325.833 91.5,325.167 91.5,324.5 Z"/></g>
<g><path style="opacity:0.012" fill="#000000" d="M 90.5,326.5 C 90.8333,326.5 91.1667,326.5 91.5,326.5C 91.3147,327.17 90.9813,327.17 90.5,326.5 Z"/></g>
<g><path style="opacity:0.016" fill="#000000" d="M 89.5,327.5 C 89.8333,327.5 90.1667,327.5 90.5,327.5C 90.3147,328.17 89.9813,328.17 89.5,327.5 Z"/></g>
<g><path style="opacity:0.009" fill="#000000" d="M 467.5,328.5 C 468.573,329.251 468.74,330.251 468,331.5C 467.517,330.552 467.351,329.552 467.5,328.5 Z"/></g>
<g><path style="opacity:0.004" fill="#0f0b1c" d="M 88.5,328.5 C 88.8333,328.5 89.1667,328.5 89.5,328.5C 89.6716,329.492 89.3382,330.158 88.5,330.5C 88.5,329.833 88.5,329.167 88.5,328.5 Z"/></g>
<g><path style="opacity:0.012" fill="#000000" d="M 87.5,330.5 C 87.8333,330.5 88.1667,330.5 88.5,330.5C 88.3147,331.17 87.9813,331.17 87.5,330.5 Z"/></g>
<g><path style="opacity:0.016" fill="#000000" d="M 86.5,331.5 C 86.8333,331.5 87.1667,331.5 87.5,331.5C 87.3147,332.17 86.9813,332.17 86.5,331.5 Z"/></g>
<g><path style="opacity:0.012" fill="#000000" d="M 439.5,331.5 C 440.833,332.167 440.833,332.167 439.5,331.5 Z"/></g>
<g><path style="opacity:0.01" fill="#000000" d="M 466.5,332.5 C 467.525,332.897 467.692,333.563 467,334.5C 466.536,333.906 466.369,333.239 466.5,332.5 Z"/></g>
<g><path style="opacity:0.008" fill="#000000" d="M 85.5,333.5 C 86.8333,334.167 86.8333,334.167 85.5,333.5 Z"/></g>
<g><path style="opacity:0.012" fill="#141431" d="M 56.5,335.5 C 56.1667,335.5 55.8333,335.5 55.5,335.5C 55.8333,332.833 56.1667,332.833 56.5,335.5 Z"/></g>
<g><path style="opacity:0.016" fill="#000000" d="M 84.5,334.5 C 84.8333,334.5 85.1667,334.5 85.5,334.5C 85.3147,335.17 84.9813,335.17 84.5,334.5 Z"/></g>
<g><path style="opacity:0.012" fill="#000000" d="M 55.5,335.5 C 54.8333,336.167 54.8333,336.167 55.5,335.5 Z"/></g>
<g><path style="opacity:0.008" fill="#000000" d="M 465.5,337.5 C 465.369,336.761 465.536,336.094 466,335.5C 466.692,336.437 466.525,337.103 465.5,337.5 Z"/></g>
<g><path style="opacity:0.008" fill="#141127" d="M 83.5,335.5 C 83.8333,335.5 84.1667,335.5 84.5,335.5C 84.6716,336.492 84.3382,337.158 83.5,337.5C 83.5,336.833 83.5,336.167 83.5,335.5 Z"/></g>
<g><path style="opacity:0.012" fill="#000000" d="M 54.5,338.5 C 53.8333,337.167 53.8333,337.167 54.5,338.5 Z"/></g>
<g><path style="opacity:0.016" fill="#000000" d="M 82.5,337.5 C 82.8333,337.5 83.1667,337.5 83.5,337.5C 83.3147,338.17 82.9813,338.17 82.5,337.5 Z"/></g>
<g><path style="opacity:0.01" fill="#000000" d="M 464.5,337.5 C 464.833,337.5 465.167,337.5 465.5,337.5C 465.672,338.492 465.338,339.158 464.5,339.5C 464.5,338.833 464.5,338.167 464.5,337.5 Z"/></g>
<g><path style="opacity:0.008" fill="#000000" d="M 81.5,339.5 C 82.8333,340.167 82.8333,340.167 81.5,339.5 Z"/></g>
<g><path style="opacity:0.012" fill="#000000" d="M 431.5,339.5 C 432.833,340.167 432.833,340.167 431.5,339.5 Z"/></g>
<g><path style="opacity:0.008" fill="#000000" d="M 463.5,339.5 C 463.833,339.5 464.167,339.5 464.5,339.5C 464.672,340.492 464.338,341.158 463.5,341.5C 463.5,340.833 463.5,340.167 463.5,339.5 Z"/></g>
<g><path style="opacity:0.008" fill="#000000" d="M 80.5,340.5 C 80.8333,340.5 81.1667,340.5 81.5,340.5C 81.6716,341.492 81.3382,342.158 80.5,342.5C 80.5,341.833 80.5,341.167 80.5,340.5 Z"/></g>
<g><path style="opacity:0.006" fill="#000000" d="M 462.5,341.5 C 462.833,341.5 463.167,341.5 463.5,341.5C 463.672,342.492 463.338,343.158 462.5,343.5C 462.5,342.833 462.5,342.167 462.5,341.5 Z"/></g>
<g><path style="opacity:0.012" fill="#000000" d="M 79.5,342.5 C 79.8333,342.5 80.1667,342.5 80.5,342.5C 80.3147,343.17 79.9813,343.17 79.5,342.5 Z"/></g>
<g><path style="opacity:0.006" fill="#000000" d="M 78.5,343.5 C 78.8333,343.5 79.1667,343.5 79.5,343.5C 79.6716,344.492 79.3382,345.158 78.5,345.5C 78.5,344.833 78.5,344.167 78.5,343.5 Z"/></g>
<g><path style="opacity:0.012" fill="#000000" d="M 424.5,344.5 C 423.761,344.631 423.094,344.464 422.5,344C 423.437,343.308 424.103,343.475 424.5,344.5 Z"/></g>
<g><path style="opacity:0.012" fill="#000000" d="M 461.5,343.5 C 461.833,343.5 462.167,343.5 462.5,343.5C 462.315,344.17 461.981,344.17 461.5,343.5 Z"/></g>
<g><path style="opacity:0.008" fill="#000000" d="M 421.5,345.5 C 420.127,345.657 418.793,345.49 417.5,345C 419.066,344.235 420.399,344.402 421.5,345.5 Z"/></g>
<g><path style="opacity:0.011" fill="#000000" d="M 49.5,345.5 C 50.6291,347.628 50.7958,349.961 50,352.5C 49.5034,350.19 49.3367,347.857 49.5,345.5 Z"/></g>
<g><path style="opacity:0.008" fill="#000000" d="M 77.5,345.5 C 77.8333,345.5 78.1667,345.5 78.5,345.5C 78.6716,346.492 78.3382,347.158 77.5,347.5C 77.5,346.833 77.5,346.167 77.5,345.5 Z"/></g>
<g><path style="opacity:0.009" fill="#000000" d="M 411.5,346.5 C 412.946,345.387 414.613,345.22 416.5,346C 414.866,346.494 413.199,346.66 411.5,346.5 Z"/></g>
<g><path style="opacity:0.008" fill="#000000" d="M 460.5,345.5 C 461.833,346.167 461.833,346.167 460.5,345.5 Z"/></g>
<g><path style="opacity:0.004" fill="#000000" d="M 314.5,347.5 C 344.664,346.336 374.997,346.169 405.5,347C 375.168,347.5 344.835,347.667 314.5,347.5 Z"/></g>
<g><path style="opacity:0.012" fill="#000000" d="M 459.5,346.5 C 459.833,346.5 460.167,346.5 460.5,346.5C 460.315,347.17 459.981,347.17 459.5,346.5 Z"/></g>
<g><path style="opacity:0.008" fill="#000000" d="M 76.5,347.5 C 76.8333,347.5 77.1667,347.5 77.5,347.5C 77.6716,348.492 77.3382,349.158 76.5,349.5C 76.5,348.833 76.5,348.167 76.5,347.5 Z"/></g>
<g><path style="opacity:0.004" fill="#000000" d="M 458.5,347.5 C 458.833,347.5 459.167,347.5 459.5,347.5C 459.672,348.492 459.338,349.158 458.5,349.5C 458.5,348.833 458.5,348.167 458.5,347.5 Z"/></g>
<g><path style="opacity:0.894" fill="#363ba8" d="M 421.5,346.5 C 421.082,347.222 420.416,347.722 419.5,348C 416.167,348.333 412.833,348.667 409.5,349C 377.835,349.5 346.168,349.667 314.5,349.5C 345.664,348.668 376.997,348.168 408.5,348C 412.848,347.535 417.181,347.035 421.5,346.5 Z"/></g>
<g><path style="opacity:0.012" fill="#000000" d="M 75.5,349.5 C 75.8333,349.5 76.1667,349.5 76.5,349.5C 76.3147,350.17 75.9813,350.17 75.5,349.5 Z"/></g>
<g><path style="opacity:0.012" fill="#000000" d="M 457.5,349.5 C 457.833,349.5 458.167,349.5 458.5,349.5C 458.315,350.17 457.981,350.17 457.5,349.5 Z"/></g>
<g><path style="opacity:0.016" fill="#000000" d="M 456.5,350.5 C 456.833,350.5 457.167,350.5 457.5,350.5C 457.315,351.17 456.981,351.17 456.5,350.5 Z"/></g>
<g><path style="opacity:0.012" fill="#000000" d="M 74.5,351.5 C 75.8333,352.167 75.8333,352.167 74.5,351.5 Z"/></g>
<g><path style="opacity:0.016" fill="#000000" d="M 455.5,351.5 C 455.833,351.5 456.167,351.5 456.5,351.5C 456.315,352.17 455.981,352.17 455.5,351.5 Z"/></g>
<g><path style="opacity:0.541" fill="#32379c" d="M 457.5,347.5 C 457.5,348.167 457.5,348.833 457.5,349.5C 456.833,349.5 456.5,349.833 456.5,350.5C 455.833,350.5 455.5,350.833 455.5,351.5C 454.833,351.5 454.5,351.833 454.5,352.5C 453.833,352.5 453.5,352.833 453.5,353.5C 452.833,353.5 452.5,353.833 452.5,354.5C 451.833,354.5 451.5,354.833 451.5,355.5C 450.833,355.5 450.5,355.833 450.5,356.5C 449.833,356.5 449.5,356.833 449.5,357.5C 448.833,357.5 448.167,357.5 447.5,357.5C 450.5,353.833 453.833,350.5 457.5,347.5 Z"/></g>
<g><path style="opacity:0.012" fill="#000000" d="M 454.5,352.5 C 454.833,352.5 455.167,352.5 455.5,352.5C 455.315,353.17 454.981,353.17 454.5,352.5 Z"/></g>
<g><path style="opacity:0.012" fill="#000000" d="M 50.5,353.5 C 51.8333,354.167 51.8333,354.167 50.5,353.5 Z"/></g>
<g><path style="opacity:0.012" fill="#000000" d="M 73.5,353.5 C 74.8333,354.167 74.8333,354.167 73.5,353.5 Z"/></g>
<g><path style="opacity:0.016" fill="#000000" d="M 453.5,353.5 C 453.833,353.5 454.167,353.5 454.5,353.5C 454.315,354.17 453.981,354.17 453.5,353.5 Z"/></g>
<g><path style="opacity:0.016" fill="#000000" d="M 452.5,354.5 C 452.833,354.5 453.167,354.5 453.5,354.5C 453.315,355.17 452.981,355.17 452.5,354.5 Z"/></g>
<g><path style="opacity:0.004" fill="#141127" d="M 72.5,354.5 C 72.8333,354.5 73.1667,354.5 73.5,354.5C 73.6716,355.492 73.3382,356.158 72.5,356.5C 72.5,355.833 72.5,355.167 72.5,354.5 Z"/></g>
<g><path style="opacity:0.006" fill="#000000" d="M 305.5,355.5 C 306.638,358.304 306.805,361.304 306,364.5C 305.502,361.518 305.335,358.518 305.5,355.5 Z"/></g>
<g><path style="opacity:0.016" fill="#000000" d="M 451.5,355.5 C 451.833,355.5 452.167,355.5 452.5,355.5C 452.315,356.17 451.981,356.17 451.5,355.5 Z"/></g>
<g><path style="opacity:0.008" fill="#000000" d="M 71.5,356.5 C 71.8333,356.5 72.1667,356.5 72.5,356.5C 72.3147,357.17 71.9813,357.17 71.5,356.5 Z"/></g>
<g><path style="opacity:0.016" fill="#000000" d="M 450.5,356.5 C 450.833,356.5 451.167,356.5 451.5,356.5C 451.315,357.17 450.981,357.17 450.5,356.5 Z"/></g>
<g><path style="opacity:0.008" fill="#000000" d="M 54.5,357.5 C 54.5,357.833 54.5,358.167 54.5,358.5C 53.8299,358.019 53.8299,357.685 54.5,357.5 Z"/></g>
<g><path style="opacity:0.008" fill="#000000" d="M 70.5,357.5 C 70.8333,357.5 71.1667,357.5 71.5,357.5C 71.3147,358.17 70.9813,358.17 70.5,357.5 Z"/></g>
<g><path style="opacity:0.012" fill="#000000" d="M 449.5,357.5 C 449.833,357.5 450.167,357.5 450.5,357.5C 450.315,358.17 449.981,358.17 449.5,357.5 Z"/></g>
<g><path style="opacity:0.008" fill="#000000" d="M 54.5,358.5 C 55.8333,359.167 55.8333,359.167 54.5,358.5 Z"/></g>
<g><path style="opacity:0.996" fill="#343aa3" d="M 56.5,357.5 C 60.5,358.833 64.5,358.833 68.5,357.5C 68.1667,358.167 67.8333,358.833 67.5,359.5C 66.209,359.263 65.209,359.596 64.5,360.5C 63.1667,360.5 61.8333,360.5 60.5,360.5C 58.9236,359.857 57.5903,358.857 56.5,357.5 Z"/></g>
<g><path style="opacity:0.008" fill="#000000" d="M 70.5,358.5 C 69.8333,359.167 69.8333,359.167 70.5,358.5 Z"/></g>
<g><path style="opacity:0.004" fill="#000000" d="M 447.5,359.5 C 447.5,359.167 447.5,358.833 447.5,358.5C 448.167,358.5 448.833,358.5 449.5,358.5C 449.158,359.338 448.492,359.672 447.5,359.5 Z"/></g>
<g><path style="opacity:0.012" fill="#000000" d="M 67.5,359.5 C 68.8333,360.167 68.8333,360.167 67.5,359.5 Z"/></g>
<g><path style="opacity:0.016" fill="#000000" d="M 446.5,359.5 C 446.833,359.5 447.167,359.5 447.5,359.5C 447.315,360.17 446.981,360.17 446.5,359.5 Z"/></g>
<g><path style="opacity:0.007" fill="#000000" d="M 60.5,360.5 C 59.7494,361.573 58.7494,361.74 57.5,361C 58.448,360.517 59.448,360.351 60.5,360.5 Z"/></g>
<g><path style="opacity:0.007" fill="#000000" d="M 64.5,360.5 C 65.5,360.5 66.5,360.5 67.5,360.5C 66.5,361.833 65.5,361.833 64.5,360.5 Z"/></g>
<g><path style="opacity:0.008" fill="#000000" d="M 445.5,360.5 C 445.833,360.5 446.167,360.5 446.5,360.5C 446.315,361.17 445.981,361.17 445.5,360.5 Z"/></g>
<g><path style="opacity:0.016" fill="#000000" d="M 443.5,361.5 C 444.833,362.167 444.833,362.167 443.5,361.5 Z"/></g>
<g><path style="opacity:0.008" fill="#000000" d="M 441.5,363.5 C 441.5,363.167 441.5,362.833 441.5,362.5C 442.167,362.5 442.833,362.5 443.5,362.5C 443.158,363.338 442.492,363.672 441.5,363.5 Z"/></g>
<g><path style="opacity:0.008" fill="#000000" d="M 439.5,364.5 C 439.5,364.167 439.5,363.833 439.5,363.5C 440.167,363.5 440.833,363.5 441.5,363.5C 441.158,364.338 440.492,364.672 439.5,364.5 Z"/></g>
<g><path style="opacity:0.925" fill="#33389f" d="M 308.5,355.5 C 308.394,364.896 307.56,374.23 306,383.5C 305.617,384.056 305.117,384.389 304.5,384.5C 304.5,383.167 304.5,381.833 304.5,380.5C 306.293,372.241 307.626,363.907 308.5,355.5 Z"/></g>
<g><path style="opacity:0.012" fill="#000000" d="M 439.5,364.5 C 438.833,365.167 438.833,365.167 439.5,364.5 Z"/></g>
<g><path style="opacity:0.008" fill="#000000" d="M 435.5,366.5 C 435.5,366.167 435.5,365.833 435.5,365.5C 438.167,365.833 438.167,366.167 435.5,366.5 Z"/></g>
<g><path style="opacity:0.008" fill="#000000" d="M 433.5,366.5 C 434.167,366.5 434.833,366.5 435.5,366.5C 434.833,367.833 434.167,367.833 433.5,366.5 Z"/></g>
<g><path style="opacity:0.01" fill="#000000" d="M 430.5,367.5 C 431.239,367.369 431.906,367.536 432.5,368C 431.563,368.692 430.897,368.525 430.5,367.5 Z"/></g>
<g><path style="opacity:0.01" fill="#000000" d="M 427.5,369.5 C 427.897,368.475 428.563,368.308 429.5,369C 428.906,369.464 428.239,369.631 427.5,369.5 Z"/></g>
<g><path style="opacity:0.008" fill="#000000" d="M 304.5,369.5 C 305.622,371.288 305.789,373.288 305,375.5C 304.505,373.527 304.338,371.527 304.5,369.5 Z"/></g>
<g><path style="opacity:0.009" fill="#000000" d="M 423.5,370.5 C 424.251,369.427 425.251,369.26 426.5,370C 425.552,370.483 424.552,370.649 423.5,370.5 Z"/></g>
<g><path style="opacity:0.009" fill="#000000" d="M 417.5,371.5 C 418.601,370.402 419.934,370.235 421.5,371C 420.207,371.49 418.873,371.657 417.5,371.5 Z"/></g>
<g><path style="opacity:0.005" fill="#000000" d="M 330.5,371.5 C 358.835,371.333 387.169,371.5 415.5,372C 387.11,371.845 358.943,372.679 331,374.5C 330.517,373.552 330.351,372.552 330.5,371.5 Z"/></g>
<g><path style="opacity:0.009" fill="#000000" d="M 329.5,376.5 C 330.613,377.946 330.78,379.613 330,381.5C 329.506,379.866 329.34,378.199 329.5,376.5 Z"/></g>
<g><path style="opacity:0.009" fill="#000000" d="M 304.5,380.5 C 303.427,379.749 303.26,378.749 304,377.5C 304.483,378.448 304.649,379.448 304.5,380.5 Z"/></g>
<g><path style="opacity:0.745" fill="#2c3089" d="M 329.5,371.5 C 329.247,375.04 328.581,378.373 327.5,381.5C 327.159,377.84 327.825,374.507 329.5,371.5 Z"/></g>
<g><path style="opacity:0.01" fill="#000000" d="M 302.5,381.5 C 303.525,381.897 303.692,382.563 303,383.5C 302.536,382.906 302.369,382.239 302.5,381.5 Z"/></g>
<g><path style="opacity:0.009" fill="#000000" d="M 328.5,382.5 C 329.573,383.251 329.74,384.251 329,385.5C 328.517,384.552 328.351,383.552 328.5,382.5 Z"/></g>
<g><path style="opacity:0.384" fill="#33399f" d="M 327.5,381.5 C 327.5,383.167 327.5,384.833 327.5,386.5C 326.596,387.209 326.263,388.209 326.5,389.5C 325.596,390.209 325.263,391.209 325.5,392.5C 324.662,392.842 324.328,393.508 324.5,394.5C 324.167,394.5 323.833,394.5 323.5,394.5C 324.463,389.951 325.796,385.617 327.5,381.5 Z"/></g>
<g><path style="opacity:0.009" fill="#000000" d="M 327.5,386.5 C 328.833,387.5 328.833,388.5 327.5,389.5C 327.5,388.5 327.5,387.5 327.5,386.5 Z"/></g>
<g><path style="opacity:0.007" fill="#000000" d="M 326.5,389.5 C 326.833,389.5 327.167,389.5 327.5,389.5C 327.737,390.791 327.404,391.791 326.5,392.5C 326.5,391.5 326.5,390.5 326.5,389.5 Z"/></g>
<g><path style="opacity:0.008" fill="#000000" d="M 325.5,392.5 C 325.833,392.5 326.167,392.5 326.5,392.5C 326.672,393.492 326.338,394.158 325.5,394.5C 325.5,393.833 325.5,393.167 325.5,392.5 Z"/></g>
<g><path style="opacity:0.008" fill="#000000" d="M 324.5,394.5 C 324.833,394.5 325.167,394.5 325.5,394.5C 325.167,397.167 324.833,397.167 324.5,394.5 Z"/></g>
<g><path style="opacity:0.012" fill="#000000" d="M 323.5,397.5 C 324.833,398.167 324.833,398.167 323.5,397.5 Z"/></g>
<g><path style="opacity:0.009" fill="#000000" d="M 287.5,399.5 C 286.127,399.657 284.793,399.49 283.5,399C 285.066,398.235 286.399,398.402 287.5,399.5 Z"/></g>
<g><path style="opacity:0.012" fill="#000000" d="M 282.5,400.5 C 215.499,400.667 148.499,400.5 81.5,400C 148.668,399.168 215.668,399.335 282.5,400.5 Z"/></g>
<g><path style="opacity:0.012" fill="#000000" d="M 322.5,399.5 C 323.833,400.167 323.833,400.167 322.5,399.5 Z"/></g>
<g><path style="opacity:0.006" fill="#000000" d="M 321.5,400.5 C 321.833,400.5 322.167,400.5 322.5,400.5C 322.672,401.492 322.338,402.158 321.5,402.5C 321.5,401.833 321.5,401.167 321.5,400.5 Z"/></g>
<g><path style="opacity:0.605" fill="#2c318a" d="M 278.5,401.5 C 213.001,402.333 147.335,402.833 81.5,403C 75.9437,405.272 73.277,409.439 73.5,415.5C 71.9047,409.193 74.2381,404.693 80.5,402C 146.499,401.5 212.499,401.333 278.5,401.5 Z"/></g>
<g><path style="opacity:0.012" fill="#000000" d="M 320.5,402.5 C 320.833,402.5 321.167,402.5 321.5,402.5C 321.315,403.17 320.981,403.17 320.5,402.5 Z"/></g>
<g><path style="opacity:0.004" fill="#000000" d="M 319.5,403.5 C 319.833,403.5 320.167,403.5 320.5,403.5C 320.672,404.492 320.338,405.158 319.5,405.5C 319.5,404.833 319.5,404.167 319.5,403.5 Z"/></g>
<g><path style="opacity:0.012" fill="#000000" d="M 318.5,405.5 C 318.833,405.5 319.167,405.5 319.5,405.5C 319.315,406.17 318.981,406.17 318.5,405.5 Z"/></g>
<g><path style="opacity:0.012" fill="#000000" d="M 317.5,406.5 C 317.833,406.5 318.167,406.5 318.5,406.5C 318.315,407.17 317.981,407.17 317.5,406.5 Z"/></g>
<g><path style="opacity:0.012" fill="#000000" d="M 316.5,407.5 C 316.833,407.5 317.167,407.5 317.5,407.5C 317.315,408.17 316.981,408.17 316.5,407.5 Z"/></g>
<g><path style="opacity:0.004" fill="#000000" d="M 315.5,408.5 C 315.833,408.5 316.167,408.5 316.5,408.5C 316.672,409.492 316.338,410.158 315.5,410.5C 315.5,409.833 315.5,409.167 315.5,408.5 Z"/></g>
<g><path style="opacity:0.009" fill="#000000" d="M 70.5,410.5 C 71.6129,411.946 71.7796,413.613 71,415.5C 70.5065,413.866 70.3398,412.199 70.5,410.5 Z"/></g>
<g><path style="opacity:0.004" fill="#000000" d="M 315.5,410.5 C 314.833,411.167 314.833,411.167 315.5,410.5 Z"/></g>
<g><path style="opacity:0.004" fill="#000000" d="M 314.5,411.5 C 313.833,412.167 313.833,412.167 314.5,411.5 Z"/></g>
<g><path style="opacity:0.008" fill="#000000" d="M 311.5,412.5 C 312.833,413.167 312.833,413.167 311.5,412.5 Z"/></g>
<g><path style="opacity:0.012" fill="#000000" d="M 310.5,413.5 C 310.833,413.5 311.167,413.5 311.5,413.5C 311.315,414.17 310.981,414.17 310.5,413.5 Z"/></g>
<g><path style="opacity:0.012" fill="#000000" d="M 309.5,414.5 C 309.833,414.5 310.167,414.5 310.5,414.5C 310.315,415.17 309.981,415.17 309.5,414.5 Z"/></g>
<g><path style="opacity:0.008" fill="#000000" d="M 309.5,415.5 C 308.833,416.167 308.833,416.167 309.5,415.5 Z"/></g>
<g><path style="opacity:0.008" fill="#000000" d="M 71.5,416.5 C 72.525,416.897 72.6917,417.563 72,418.5C 71.5357,417.906 71.369,417.239 71.5,416.5 Z"/></g>
<g><path style="opacity:0.012" fill="#000000" d="M 306.5,416.5 C 307.833,417.167 307.833,417.167 306.5,416.5 Z"/></g>
<g><path style="opacity:0.006" fill="#000000" d="M 304.5,418.5 C 304.5,418.167 304.5,417.833 304.5,417.5C 305.167,417.5 305.833,417.5 306.5,417.5C 306.158,418.338 305.492,418.672 304.5,418.5 Z"/></g>
<g><path style="opacity:0.012" fill="#000000" d="M 303.5,418.5 C 303.833,418.5 304.167,418.5 304.5,418.5C 304.315,419.17 303.981,419.17 303.5,418.5 Z"/></g>
<g><path style="opacity:0.012" fill="#181a49" d="M 74.5,419.5 C 73.8333,420.167 73.8333,420.167 74.5,419.5 Z"/></g>
<g><path style="opacity:0.012" fill="#000000" d="M 301.5,419.5 C 302.833,420.167 302.833,420.167 301.5,419.5 Z"/></g>
<g><path style="opacity:0.008" fill="#000000" d="M 298.5,421.5 C 298.5,421.167 298.5,420.833 298.5,420.5C 301.167,420.833 301.167,421.167 298.5,421.5 Z"/></g>
<g><path style="opacity:0.004" fill="#000000" d="M 74.5,421.5 C 75.8333,422.167 75.8333,422.167 74.5,421.5 Z"/></g>
<g><path style="opacity:0.01" fill="#000000" d="M 296.5,421.5 C 297.167,421.5 297.833,421.5 298.5,421.5C 297.833,422.833 297.167,422.833 296.5,421.5 Z"/></g>
<g><path style="opacity:0.008" fill="#000000" d="M 77.5,422.5 C 77.5,422.833 77.5,423.167 77.5,423.5C 76.8299,423.019 76.8299,422.685 77.5,422.5 Z"/></g>
<g><path style="opacity:0.01" fill="#000000" d="M 293.5,423.5 C 293.897,422.475 294.563,422.308 295.5,423C 294.906,423.464 294.239,423.631 293.5,423.5 Z"/></g>
<g><path style="opacity:0.008" fill="#000000" d="M 77.5,423.5 C 78.8333,424.167 78.8333,424.167 77.5,423.5 Z"/></g>
<g><path style="opacity:0.086" fill="#22256b" d="M 292.5,421.5 C 288.767,422.977 284.767,423.811 280.5,424C 214.501,424.5 148.501,424.667 82.5,424.5C 147.999,423.667 213.665,423.167 279.5,423C 283.832,422.417 288.165,421.917 292.5,421.5 Z"/></g>
<g><path style="opacity:0.009" fill="#000000" d="M 289.5,424.5 C 290.251,423.427 291.251,423.26 292.5,424C 291.552,424.483 290.552,424.649 289.5,424.5 Z"/></g>
<g><path style="opacity:0.012" fill="#000000" d="M 81.5,424.5 C 81.3605,426.337 80.6939,426.67 79.5,425.5C 79.9569,424.702 80.6236,424.369 81.5,424.5 Z"/></g>
<g><path style="opacity:0.009" fill="#000000" d="M 281.5,424.5 C 283.604,424.201 285.604,424.534 287.5,425.5C 286.5,425.833 285.5,426.167 284.5,426.5C 282.97,426.36 281.97,425.693 281.5,424.5 Z"/></g>
</svg>
