<?xml version="1.0" encoding="UTF-8"?>
<!DOCTYPE svg PUBLIC "-//W3C//DTD SVG 1.1//EN" "http://www.w3.org/Graphics/SVG/1.1/DTD/svg11.dtd">
<svg xmlns="http://www.w3.org/2000/svg" version="1.1" width="512px" height="512px" style="shape-rendering:geometricPrecision; text-rendering:geometricPrecision; image-rendering:optimizeQuality; fill-rule:evenodd; clip-rule:evenodd" xmlns:xlink="http://www.w3.org/1999/xlink">
<g><path style="opacity:0.01" fill="#000000" d="M 181.5,115.5 C 187.987,114.346 194.654,114.179 201.5,115C 194.842,115.5 188.175,115.666 181.5,115.5 Z"/></g>
<g><path style="opacity:0.01" fill="#000000" d="M 175.5,116.5 C 176.601,115.402 177.934,115.235 179.5,116C 178.207,116.49 176.873,116.657 175.5,116.5 Z"/></g>
<g><path style="opacity:0.01" fill="#000000" d="M 203.5,116.5 C 204.601,115.402 205.934,115.235 207.5,116C 206.207,116.49 204.873,116.657 203.5,116.5 Z"/></g>
<g><path style="opacity:0.009" fill="#000000" d="M 171.5,117.5 C 172.251,116.427 173.251,116.26 174.5,117C 173.552,117.483 172.552,117.649 171.5,117.5 Z"/></g>
<g><path style="opacity:0.946" fill="#000000" d="M 215.5,119.5 C 227.978,124.575 238.978,131.909 248.5,141.5C 248.427,143.027 249.094,144.027 250.5,144.5C 254.683,150.202 258.35,156.202 261.5,162.5C 261.402,164.553 262.069,166.22 263.5,167.5C 267.5,183.5 267.5,199.5 263.5,215.5C 262.069,216.78 261.402,218.447 261.5,220.5C 260.662,220.842 260.328,221.508 260.5,222.5C 259.662,222.842 259.328,223.508 259.5,224.5C 258.662,224.842 258.328,225.508 258.5,226.5C 257.662,226.842 257.328,227.508 257.5,228.5C 256.662,228.842 256.328,229.508 256.5,230.5C 255.833,230.5 255.5,230.833 255.5,231.5C 254.662,231.842 254.328,232.508 254.5,233.5C 253.833,233.5 253.5,233.833 253.5,234.5C 252.662,234.842 252.328,235.508 252.5,236.5C 251.833,236.5 251.5,236.833 251.5,237.5C 250.833,237.5 250.5,237.833 250.5,238.5C 249.094,238.973 248.427,239.973 248.5,241.5C 247.833,241.5 247.5,241.833 247.5,242.5C 246.833,242.5 246.5,242.833 246.5,243.5C 245.833,243.5 245.5,243.833 245.5,244.5C 244.833,244.5 244.5,244.833 244.5,245.5C 243.833,245.5 243.5,245.833 243.5,246.5C 242.833,246.5 242.5,246.833 242.5,247.5C 241.833,247.5 241.5,247.833 241.5,248.5C 240.508,248.328 239.842,248.662 239.5,249.5C 238.711,249.783 238.044,250.283 237.5,251C 238.793,251.49 240.127,251.657 241.5,251.5C 242.209,252.404 243.209,252.737 244.5,252.5C 245.93,253.537 247.597,254.204 249.5,254.5C 252.979,256.403 256.646,258.07 260.5,259.5C 260.842,260.338 261.508,260.672 262.5,260.5C 264.822,262.664 267.489,264.331 270.5,265.5C 272.86,267.853 275.527,269.853 278.5,271.5C 278.5,272.167 278.833,272.5 279.5,272.5C 279.833,273.833 280.167,273.833 280.5,272.5C 282.821,269.204 285.154,265.871 287.5,262.5C 288.906,262.027 289.573,261.027 289.5,259.5C 290.5,259.167 291.167,258.5 291.5,257.5C 293.262,256.738 294.262,255.404 294.5,253.5C 297.167,251.5 299.5,249.167 301.5,246.5C 303.027,246.573 304.027,245.906 304.5,244.5C 305.5,244.167 306.167,243.5 306.5,242.5C 308.027,242.573 309.027,241.906 309.5,240.5C 312.709,238.735 315.709,236.735 318.5,234.5C 320.819,234.008 322.819,233.008 324.5,231.5C 327.443,231.02 330.11,230.02 332.5,228.5C 333.833,228.167 333.833,227.833 332.5,227.5C 332.5,226.833 332.167,226.5 331.5,226.5C 327.382,221.259 324.049,215.592 321.5,209.5C 315.734,189.502 319.4,171.502 332.5,155.5C 334.167,154.5 335.5,153.167 336.5,151.5C 342.572,146.466 349.239,142.466 356.5,139.5C 364.409,137.906 372.409,137.239 380.5,137.5C 381.919,138.451 383.585,138.784 385.5,138.5C 389.68,140.342 394.013,142.008 398.5,143.5C 400.205,145.192 402.205,146.525 404.5,147.5C 409.167,151.5 413.5,155.833 417.5,160.5C 420.46,166.084 423.127,171.751 425.5,177.5C 426.833,186.833 426.833,196.167 425.5,205.5C 424.596,206.209 424.263,207.209 424.5,208.5C 423.596,209.209 423.263,210.209 423.5,211.5C 422.662,211.842 422.328,212.508 422.5,213.5C 421.662,213.842 421.328,214.508 421.5,215.5C 420.662,215.842 420.328,216.508 420.5,217.5C 419.662,217.842 419.328,218.508 419.5,219.5C 418.094,219.973 417.427,220.973 417.5,222.5C 416.833,222.5 416.5,222.833 416.5,223.5C 415.662,223.842 415.328,224.508 415.5,225.5C 414.833,225.5 414.5,225.833 414.5,226.5C 413.833,226.5 413.5,226.833 413.5,227.5C 412.833,227.5 412.5,227.833 412.5,228.5C 411.167,228.833 411.167,229.167 412.5,229.5C 414.849,231.341 417.515,232.674 420.5,233.5C 422.118,235.316 424.118,236.649 426.5,237.5C 434.799,244.132 442.466,251.465 449.5,259.5C 449.738,261.404 450.738,262.738 452.5,263.5C 454.255,266.68 456.255,269.68 458.5,272.5C 459.917,275.669 461.583,278.669 463.5,281.5C 464.459,285.383 465.792,289.05 467.5,292.5C 468.072,297.836 468.738,303.17 469.5,308.5C 468.906,315.661 467.573,322.661 465.5,329.5C 464.662,329.842 464.328,330.508 464.5,331.5C 463.662,331.842 463.328,332.508 463.5,333.5C 462.662,333.842 462.328,334.508 462.5,335.5C 461.094,335.973 460.427,336.973 460.5,338.5C 459.833,338.5 459.5,338.833 459.5,339.5C 458.662,339.842 458.328,340.508 458.5,341.5C 457.833,341.5 457.5,341.833 457.5,342.5C 456.833,342.5 456.5,342.833 456.5,343.5C 455.833,343.5 455.5,343.833 455.5,344.5C 454.833,344.5 454.5,344.833 454.5,345.5C 453.833,345.5 453.5,345.833 453.5,346.5C 452.833,346.5 452.5,346.833 452.5,347.5C 451.833,347.5 451.5,347.833 451.5,348.5C 450.833,348.5 450.5,348.833 450.5,349.5C 449.508,349.328 448.842,349.662 448.5,350.5C 447.833,350.5 447.5,350.833 447.5,351.5C 446.833,351.5 446.5,351.833 446.5,352.5C 445.508,352.328 444.842,352.662 444.5,353.5C 443.508,353.328 442.842,353.662 442.5,354.5C 441.508,354.328 440.842,354.662 440.5,355.5C 438.847,355.66 437.514,356.326 436.5,357.5C 435.508,357.328 434.842,357.662 434.5,358.5C 433.209,358.263 432.209,358.596 431.5,359.5C 426.846,360.329 422.18,361.163 417.5,362C 388.502,362.5 359.502,362.667 330.5,362.5C 329.833,367.833 329.167,373.167 328.5,378.5C 327.596,379.209 327.263,380.209 327.5,381.5C 326.596,382.209 326.263,383.209 326.5,384.5C 325.662,384.842 325.328,385.508 325.5,386.5C 323.992,388.181 322.992,390.181 322.5,392.5C 321.662,392.842 321.328,393.508 321.5,394.5C 320.833,394.5 320.5,394.833 320.5,395.5C 319.662,395.842 319.328,396.508 319.5,397.5C 318.833,397.5 318.5,397.833 318.5,398.5C 317.833,398.5 317.5,398.833 317.5,399.5C 316.833,399.5 316.5,399.833 316.5,400.5C 314.833,401.5 313.5,402.833 312.5,404.5C 311.833,404.5 311.5,404.833 311.5,405.5C 310.833,405.5 310.5,405.833 310.5,406.5C 308.973,406.427 307.973,407.094 307.5,408.5C 306.508,408.328 305.842,408.662 305.5,409.5C 304.833,409.5 304.5,409.833 304.5,410.5C 303.508,410.328 302.842,410.662 302.5,411.5C 301.209,411.263 300.209,411.596 299.5,412.5C 298.508,412.328 297.842,412.662 297.5,413.5C 292.231,414.649 286.898,415.483 281.5,416C 215.168,416.5 148.834,416.667 82.5,416.5C 81.4863,415.326 80.153,414.66 78.5,414.5C 77.8333,413.167 76.8333,412.167 75.5,411.5C 71.6782,403.648 73.6782,397.814 81.5,394C 149.001,393.833 216.335,393.333 283.5,392.5C 285.415,392.784 287.081,392.451 288.5,391.5C 298.525,389.145 304.191,382.812 305.5,372.5C 307.447,364.426 308.613,356.093 309,347.5C 310.5,344.667 312.667,342.5 315.5,341C 346.833,340.667 378.167,340.333 409.5,340C 414.101,339.851 418.434,339.018 422.5,337.5C 423.791,337.737 424.791,337.404 425.5,336.5C 441.744,331.033 448.578,319.7 446,302.5C 445.79,300.942 445.29,299.609 444.5,298.5C 444.741,296.102 444.074,294.102 442.5,292.5C 442.539,289.911 441.539,287.911 439.5,286.5C 439.672,285.508 439.338,284.842 438.5,284.5C 437.66,282.147 436.326,280.147 434.5,278.5C 433.876,276.246 432.543,274.579 430.5,273.5C 430.573,271.973 429.906,270.973 428.5,270.5C 423.729,264.39 418.062,259.39 411.5,255.5C 409.421,253.127 406.754,251.794 403.5,251.5C 402.22,250.069 400.553,249.402 398.5,249.5C 396.162,247.96 393.495,247.294 390.5,247.5C 384.733,246.047 378.733,245.38 372.5,245.5C 364.218,245.369 356.218,246.369 348.5,248.5C 346.901,248.232 345.568,248.566 344.5,249.5C 342.102,249.259 340.102,249.926 338.5,251.5C 337.209,251.263 336.209,251.596 335.5,252.5C 334.508,252.328 333.842,252.662 333.5,253.5C 332.508,253.328 331.842,253.662 331.5,254.5C 330.508,254.328 329.842,254.662 329.5,255.5C 328.508,255.328 327.842,255.662 327.5,256.5C 326.508,256.328 325.842,256.662 325.5,257.5C 324.833,257.5 324.5,257.833 324.5,258.5C 323.508,258.328 322.842,258.662 322.5,259.5C 321.833,259.5 321.5,259.833 321.5,260.5C 320.833,260.5 320.5,260.833 320.5,261.5C 318.973,261.427 317.973,262.094 317.5,263.5C 316.833,263.5 316.5,263.833 316.5,264.5C 315.833,264.5 315.5,264.833 315.5,265.5C 314.833,265.5 314.5,265.833 314.5,266.5C 313.833,266.5 313.5,266.833 313.5,267.5C 312.833,267.5 312.5,267.833 312.5,268.5C 311.833,268.5 311.5,268.833 311.5,269.5C 310.833,269.5 310.5,269.833 310.5,270.5C 309.094,270.973 308.427,271.973 308.5,273.5C 307.833,273.5 307.5,273.833 307.5,274.5C 306.833,274.5 306.5,274.833 306.5,275.5C 305.662,275.842 305.328,276.508 305.5,277.5C 304.833,277.5 304.5,277.833 304.5,278.5C 303.833,278.5 303.5,278.833 303.5,279.5C 302.662,279.842 302.328,280.508 302.5,281.5C 301.833,281.5 301.5,281.833 301.5,282.5C 300.662,282.842 300.328,283.508 300.5,284.5C 299.833,284.5 299.5,284.833 299.5,285.5C 298.662,285.842 298.328,286.508 298.5,287.5C 297.833,287.5 297.5,287.833 297.5,288.5C 296.662,288.842 296.328,289.508 296.5,290.5C 295.662,290.842 295.328,291.508 295.5,292.5C 294.833,292.5 294.5,292.833 294.5,293.5C 293.662,293.842 293.328,294.508 293.5,295.5C 292.833,295.5 292.5,295.833 292.5,296.5C 291.662,296.842 291.328,297.508 291.5,298.5C 290.833,298.5 290.5,298.833 290.5,299.5C 289.833,299.5 289.5,299.833 289.5,300.5C 288.508,300.328 287.842,300.662 287.5,301.5C 286.508,301.328 285.842,301.662 285.5,302.5C 283.5,302.5 281.5,302.5 279.5,302.5C 278.486,301.326 277.153,300.66 275.5,300.5C 272.5,296.833 269.167,293.5 265.5,290.5C 265.027,289.094 264.027,288.427 262.5,288.5C 258.701,285.048 254.368,282.382 249.5,280.5C 249.158,279.662 248.492,279.328 247.5,279.5C 247.158,278.662 246.492,278.328 245.5,278.5C 243.574,276.707 241.241,275.707 238.5,275.5C 235.916,273.528 232.916,272.528 229.5,272.5C 227.162,270.96 224.495,270.294 221.5,270.5C 220.081,269.549 218.415,269.216 216.5,269.5C 200.498,265.551 184.498,265.551 168.5,269.5C 166.585,269.216 164.919,269.549 163.5,270.5C 161.901,270.232 160.568,270.566 159.5,271.5C 155.085,271.861 151.085,273.194 147.5,275.5C 146.209,275.263 145.209,275.596 144.5,276.5C 143.508,276.328 142.842,276.662 142.5,277.5C 141.508,277.328 140.842,277.662 140.5,278.5C 139.508,278.328 138.842,278.662 138.5,279.5C 137.508,279.328 136.842,279.662 136.5,280.5C 135.508,280.328 134.842,280.662 134.5,281.5C 133.508,281.328 132.842,281.662 132.5,282.5C 131.508,282.328 130.842,282.662 130.5,283.5C 129.508,283.328 128.842,283.662 128.5,284.5C 127.833,284.5 127.5,284.833 127.5,285.5C 126.508,285.328 125.842,285.662 125.5,286.5C 124.833,286.5 124.5,286.833 124.5,287.5C 123.508,287.328 122.842,287.662 122.5,288.5C 121.833,288.5 121.5,288.833 121.5,289.5C 120.508,289.328 119.842,289.662 119.5,290.5C 118.833,290.5 118.5,290.833 118.5,291.5C 117.833,291.5 117.5,291.833 117.5,292.5C 116.508,292.328 115.842,292.662 115.5,293.5C 114.833,293.5 114.5,293.833 114.5,294.5C 113.833,294.5 113.5,294.833 113.5,295.5C 112.833,295.5 112.5,295.833 112.5,296.5C 110.973,296.427 109.973,297.094 109.5,298.5C 108.833,298.5 108.5,298.833 108.5,299.5C 107.833,299.5 107.5,299.833 107.5,300.5C 106.833,300.5 106.5,300.833 106.5,301.5C 105.833,301.5 105.5,301.833 105.5,302.5C 104.833,302.5 104.5,302.833 104.5,303.5C 103.833,303.5 103.5,303.833 103.5,304.5C 102.833,304.5 102.5,304.833 102.5,305.5C 101.833,305.5 101.5,305.833 101.5,306.5C 100.833,306.5 100.5,306.833 100.5,307.5C 99.8333,307.5 99.5,307.833 99.5,308.5C 98.8333,308.5 98.5,308.833 98.5,309.5C 96.7376,310.262 95.7376,311.596 95.5,313.5C 94.8333,313.5 94.5,313.833 94.5,314.5C 93.8333,314.5 93.5,314.833 93.5,315.5C 92.8333,315.5 92.5,315.833 92.5,316.5C 91.6618,316.842 91.3284,317.508 91.5,318.5C 90.8333,318.5 90.5,318.833 90.5,319.5C 89.8333,319.5 89.5,319.833 89.5,320.5C 88.6618,320.842 88.3284,321.508 88.5,322.5C 87.8333,322.5 87.5,322.833 87.5,323.5C 86.0937,323.973 85.427,324.973 85.5,326.5C 84.8333,326.5 84.5,326.833 84.5,327.5C 83.6618,327.842 83.3284,328.508 83.5,329.5C 82.0937,329.973 81.427,330.973 81.5,332.5C 80.6618,332.842 80.3284,333.508 80.5,334.5C 79.8333,334.5 79.5,334.833 79.5,335.5C 78.6618,335.842 78.3284,336.508 78.5,337.5C 77.6618,337.842 77.3284,338.508 77.5,339.5C 76.6618,339.842 76.3284,340.508 76.5,341.5C 75.6618,341.842 75.3284,342.508 75.5,343.5C 74.6618,343.842 74.3284,344.508 74.5,345.5C 73.8333,345.5 73.5,345.833 73.5,346.5C 72.6618,346.842 72.3284,347.508 72.5,348.5C 71.8333,348.5 71.5,348.833 71.5,349.5C 69.9731,349.427 68.9731,350.094 68.5,351.5C 67.209,351.263 66.209,351.596 65.5,352.5C 64.1667,352.5 62.8333,352.5 61.5,352.5C 59.5439,351.508 57.5439,350.508 55.5,349.5C 51.5753,343.202 51.5753,336.868 55.5,330.5C 70.7033,303.958 91.0366,282.124 116.5,265C 124.646,260.26 132.98,256.093 141.5,252.5C 143.103,252.688 144.437,252.188 145.5,251C 133.77,241.359 125.104,229.526 119.5,215.5C 115.5,199.5 115.5,183.5 119.5,167.5C 128.5,144.5 144.5,128.5 167.5,119.5C 183.5,115.5 199.5,115.5 215.5,119.5 Z M 202.5,140.5 C 204.099,140.232 205.432,140.566 206.5,141.5C 207.791,141.263 208.791,141.596 209.5,142.5C 210.791,142.263 211.791,142.596 212.5,143.5C 211.761,143.369 211.094,143.536 210.5,144C 214.577,145.787 218.41,147.954 222,150.5C 222.399,150.272 222.565,149.938 222.5,149.5C 224.027,149.427 225.027,150.094 225.5,151.5C 225.062,151.435 224.728,151.601 224.5,152C 226.667,154.167 228.833,156.333 231,158.5C 231.399,158.272 231.565,157.938 231.5,157.5C 232.906,157.973 233.573,158.973 233.5,160.5C 233.062,160.435 232.728,160.601 232.5,161C 235.653,165.472 238.153,170.306 240,175.5C 240.464,174.906 240.631,174.239 240.5,173.5C 241.404,174.209 241.737,175.209 241.5,176.5C 242.434,177.568 242.768,178.901 242.5,180.5C 245.167,187.833 245.167,195.167 242.5,202.5C 242.768,204.099 242.434,205.432 241.5,206.5C 241.737,207.791 241.404,208.791 240.5,209.5C 240.631,208.761 240.464,208.094 240,207.5C 238.014,212.805 235.514,217.805 232.5,222.5C 231.833,222.5 231.5,222.833 231.5,223.5C 229.167,226.5 226.5,229.167 223.5,231.5C 222.833,231.5 222.5,231.833 222.5,232.5C 218.687,234.908 214.687,237.075 210.5,239C 211.094,239.464 211.761,239.631 212.5,239.5C 211.791,240.404 210.791,240.737 209.5,240.5C 208.791,241.404 207.791,241.737 206.5,241.5C 205.432,242.434 204.099,242.768 202.5,242.5C 195.167,245.167 187.833,245.167 180.5,242.5C 178.901,242.768 177.568,242.434 176.5,241.5C 175.209,241.737 174.209,241.404 173.5,240.5C 174.239,240.631 174.906,240.464 175.5,240C 170.195,238.014 165.195,235.514 160.5,232.5C 160.5,231.833 160.167,231.5 159.5,231.5C 156.896,229.4 154.396,227.067 152,224.5C 151.601,224.728 151.435,225.062 151.5,225.5C 150.094,225.027 149.427,224.027 149.5,222.5C 149.938,222.565 150.272,222.399 150.5,222C 147.954,218.41 145.787,214.577 144,210.5C 143.536,211.094 143.369,211.761 143.5,212.5C 142.596,211.791 142.263,210.791 142.5,209.5C 141.596,208.791 141.263,207.791 141.5,206.5C 140.566,205.432 140.232,204.099 140.5,202.5C 137.833,195.167 137.833,187.833 140.5,180.5C 140.232,178.901 140.566,177.568 141.5,176.5C 141.263,175.209 141.596,174.209 142.5,173.5C 142.263,172.209 142.596,171.209 143.5,170.5C 143.369,171.239 143.536,171.906 144,172.5C 145.787,168.423 147.954,164.59 150.5,161C 150.272,160.601 149.938,160.435 149.5,160.5C 149.427,158.973 150.094,157.973 151.5,157.5C 151.435,157.938 151.601,158.272 152,158.5C 154.167,156.333 156.333,154.167 158.5,152C 158.272,151.601 157.938,151.435 157.5,151.5C 157.973,150.094 158.973,149.427 160.5,149.5C 160.435,149.938 160.601,150.272 161,150.5C 164.59,147.954 168.423,145.787 172.5,144C 171.906,143.536 171.239,143.369 170.5,143.5C 171.209,142.596 172.209,142.263 173.5,142.5C 174.209,141.596 175.209,141.263 176.5,141.5C 177.568,140.566 178.901,140.232 180.5,140.5C 187.833,137.833 195.167,137.833 202.5,140.5 Z M 248.5,141.5 C 249.906,141.973 250.573,142.973 250.5,144.5C 249.094,144.027 248.427,143.027 248.5,141.5 Z M 336.5,151.5 C 335.5,153.167 334.167,154.5 332.5,155.5C 332.833,153.167 334.167,151.833 336.5,151.5 Z M 383.5,162.5 C 386.089,162.461 388.089,163.461 389.5,165.5C 389.062,165.435 388.728,165.601 388.5,166C 393.774,169.274 397.608,173.774 400,179.5C 400.464,178.906 400.631,178.239 400.5,177.5C 405.833,186.833 405.833,196.167 400.5,205.5C 400.631,204.761 400.464,204.094 400,203.5C 397.608,209.226 393.774,213.726 388.5,217C 388.728,217.399 389.062,217.565 389.5,217.5C 388.089,219.539 386.089,220.539 383.5,220.5C 380.305,222.03 376.805,222.696 373,222.5C 369.195,222.696 365.695,222.03 362.5,220.5C 361.209,220.737 360.209,220.404 359.5,219.5C 360.239,219.631 360.906,219.464 361.5,219C 360.054,217.702 358.721,217.535 357.5,218.5C 355.973,218.573 354.973,217.906 354.5,216.5C 355.439,215.673 355.105,215.006 353.5,214.5C 353.5,213.833 353.167,213.5 352.5,213.5C 352.5,212.833 352.167,212.5 351.5,212.5C 351.5,211.833 351.167,211.5 350.5,211.5C 350.5,210.833 350.167,210.5 349.5,210.5C 349.013,209.527 348.513,208.527 348,207.5C 347.31,206.262 346.81,206.262 346.5,207.5C 344.896,206.713 344.229,205.38 344.5,203.5C 342.274,199.931 341.274,195.931 341.5,191.5C 341.274,187.069 342.274,183.069 344.5,179.5C 344.229,177.62 344.896,176.287 346.5,175.5C 346.435,175.938 346.601,176.272 347,176.5C 348.095,175.307 348.928,173.973 349.5,172.5C 350.167,172.5 350.5,172.167 350.5,171.5C 351.167,171.5 351.5,171.167 351.5,170.5C 352.167,170.5 352.5,170.167 352.5,169.5C 353.167,169.5 353.5,169.167 353.5,168.5C 355.105,167.994 355.439,167.327 354.5,166.5C 354.973,165.094 355.973,164.427 357.5,164.5C 358.721,165.465 360.054,165.298 361.5,164C 360.906,163.536 360.239,163.369 359.5,163.5C 360.209,162.596 361.209,162.263 362.5,162.5C 365.695,160.97 369.195,160.304 373,160.5C 376.805,160.304 380.305,160.97 383.5,162.5 Z M 353.5,167.5 C 353.5,167.833 353.5,168.167 353.5,168.5C 352.833,168.5 352.5,168.833 352.5,169.5C 351.833,169.5 351.5,169.833 351.5,170.5C 350.833,170.5 350.5,170.833 350.5,171.5C 349.833,171.5 349.5,171.833 349.5,172.5C 349.167,172.5 348.833,172.5 348.5,172.5C 349.167,169.833 350.833,168.167 353.5,167.5 Z M 348.5,210.5 C 348.833,210.5 349.167,210.5 349.5,210.5C 350.167,210.5 350.5,210.833 350.5,211.5C 351.167,211.5 351.5,211.833 351.5,212.5C 352.167,212.5 352.5,212.833 352.5,213.5C 353.167,213.5 353.5,213.833 353.5,214.5C 353.5,214.833 353.5,215.167 353.5,215.5C 350.833,214.833 349.167,213.167 348.5,210.5 Z M 232.5,222.5 C 232.833,222.5 233.167,222.5 233.5,222.5C 233.573,224.027 232.906,225.027 231.5,225.5C 231.5,224.833 231.5,224.167 231.5,223.5C 232.167,223.5 232.5,223.167 232.5,222.5 Z M 157.5,231.5 C 158.167,231.5 158.833,231.5 159.5,231.5C 160.167,231.5 160.5,231.833 160.5,232.5C 160.5,232.833 160.5,233.167 160.5,233.5C 158.973,233.573 157.973,232.906 157.5,231.5 Z M 223.5,231.5 C 224.167,231.5 224.833,231.5 225.5,231.5C 225.027,232.906 224.027,233.573 222.5,233.5C 222.5,233.167 222.5,232.833 222.5,232.5C 223.167,232.5 223.5,232.167 223.5,231.5 Z M 250.5,238.5 C 250.573,240.027 249.906,241.027 248.5,241.5C 248.427,239.973 249.094,238.973 250.5,238.5 Z M 309.5,240.5 C 309.027,241.906 308.027,242.573 306.5,242.5C 306.973,241.094 307.973,240.427 309.5,240.5 Z M 304.5,244.5 C 304.027,245.906 303.027,246.573 301.5,246.5C 301.973,245.094 302.973,244.427 304.5,244.5 Z M 239.5,249.5 C 240.167,250.167 240.833,250.833 241.5,251.5C 240.127,251.657 238.793,251.49 237.5,251C 238.044,250.283 238.711,249.783 239.5,249.5 Z M 294.5,253.5 C 294.262,255.404 293.262,256.738 291.5,257.5C 291.738,255.596 292.738,254.262 294.5,253.5 Z M 289.5,259.5 C 289.573,261.027 288.906,262.027 287.5,262.5C 287.427,260.973 288.094,259.973 289.5,259.5 Z M 320.5,261.5 C 320.027,262.906 319.027,263.573 317.5,263.5C 317.973,262.094 318.973,261.427 320.5,261.5 Z M 310.5,270.5 C 310.573,272.027 309.906,273.027 308.5,273.5C 308.427,271.973 309.094,270.973 310.5,270.5 Z M 428.5,270.5 C 429.906,270.973 430.573,271.973 430.5,273.5C 429.094,273.027 428.427,272.027 428.5,270.5 Z M 262.5,288.5 C 264.027,288.427 265.027,289.094 265.5,290.5C 263.973,290.573 262.973,289.906 262.5,288.5 Z M 112.5,296.5 C 112.027,297.906 111.027,298.573 109.5,298.5C 109.973,297.094 110.973,296.427 112.5,296.5 Z M 98.5,309.5 C 98.2624,311.404 97.2624,312.738 95.5,313.5C 95.7376,311.596 96.7376,310.262 98.5,309.5 Z"/></g>
<g><path style="opacity:0.009" fill="#000000" d="M 208.5,117.5 C 209.251,116.427 210.251,116.26 211.5,117C 210.552,117.483 209.552,117.649 208.5,117.5 Z"/></g>
<g><path style="opacity:0.012" fill="#000000" d="M 168.5,118.5 C 168.897,117.475 169.563,117.308 170.5,118C 169.906,118.464 169.239,118.631 168.5,118.5 Z"/></g>
<g><path style="opacity:0.01" fill="#000000" d="M 212.5,118.5 C 212.897,117.475 213.563,117.308 214.5,118C 213.906,118.464 213.239,118.631 212.5,118.5 Z"/></g>
<g><path style="opacity:0.01" fill="#000000" d="M 167.5,119.5 C 166.761,119.631 166.094,119.464 165.5,119C 166.437,118.308 167.103,118.475 167.5,119.5 Z"/></g>
<g><path style="opacity:0.01" fill="#000000" d="M 215.5,119.5 C 215.897,118.475 216.563,118.308 217.5,119C 216.906,119.464 216.239,119.631 215.5,119.5 Z"/></g>
<g><path style="opacity:0.008" fill="#000000" d="M 162.5,120.5 C 162.897,119.475 163.563,119.308 164.5,120C 163.906,120.464 163.239,120.631 162.5,120.5 Z"/></g>
<g><path style="opacity:0.008" fill="#000000" d="M 218.5,120.5 C 218.897,119.475 219.563,119.308 220.5,120C 219.906,120.464 219.239,120.631 218.5,120.5 Z"/></g>
<g><path style="opacity:0.008" fill="#000000" d="M 366.5,136.5 C 370.311,135.355 374.311,135.188 378.5,136C 374.514,136.499 370.514,136.666 366.5,136.5 Z"/></g>
<g><path style="opacity:0.01" fill="#000000" d="M 360.5,137.5 C 361.601,136.402 362.934,136.235 364.5,137C 363.207,137.49 361.873,137.657 360.5,137.5 Z"/></g>
<g><path style="opacity:0.01" fill="#000000" d="M 380.5,137.5 C 381.601,136.402 382.934,136.235 384.5,137C 383.207,137.49 381.873,137.657 380.5,137.5 Z"/></g>
<g><path style="opacity:0.01" fill="#000000" d="M 357.5,138.5 C 357.897,137.475 358.563,137.308 359.5,138C 358.906,138.464 358.239,138.631 357.5,138.5 Z"/></g>
<g><path style="opacity:0.008" fill="#000000" d="M 385.5,138.5 C 386.251,137.427 387.251,137.26 388.5,138C 387.552,138.483 386.552,138.649 385.5,138.5 Z"/></g>
<g><path style="opacity:0.01" fill="#000000" d="M 356.5,139.5 C 355.761,139.631 355.094,139.464 354.5,139C 355.437,138.308 356.103,138.475 356.5,139.5 Z"/></g>
<g><path style="opacity:0.01" fill="#000000" d="M 389.5,139.5 C 389.897,138.475 390.563,138.308 391.5,139C 390.906,139.464 390.239,139.631 389.5,139.5 Z"/></g>
<g><path style="opacity:0.008" fill="#000000" d="M 392.5,140.5 C 392.897,139.475 393.563,139.308 394.5,140C 393.906,140.464 393.239,140.631 392.5,140.5 Z"/></g>
<g><path style="opacity:0.012" fill="#000000" d="M 398.5,142.5 C 399.833,143.167 399.833,143.167 398.5,142.5 Z"/></g>
<g><path style="opacity:0.008" fill="#000000" d="M 339.5,146.5 C 340.833,147.167 340.833,147.167 339.5,146.5 Z"/></g>
<g><path style="opacity:0.012" fill="#000000" d="M 404.5,146.5 C 405.833,147.167 405.833,147.167 404.5,146.5 Z"/></g>
<g><path style="opacity:0.008" fill="#000000" d="M 406.5,147.5 C 407.833,148.167 407.833,148.167 406.5,147.5 Z"/></g>
<g><path style="opacity:0.016" fill="#000000" d="M 418.5,160.5 C 417.833,159.167 417.833,159.167 418.5,160.5 Z"/></g>
<g><path style="opacity:0.01" fill="#000000" d="M 262.5,162.5 C 262.167,162.5 261.833,162.5 261.5,162.5C 261.833,159.833 262.167,159.833 262.5,162.5 Z"/></g>
<g><path style="opacity:0.008" fill="#000000" d="M 418.5,160.5 C 419.833,161.167 419.833,161.167 418.5,160.5 Z"/></g>
<g><path style="opacity:0.008" fill="#000000" d="M 119.5,162.5 C 120.525,162.897 120.692,163.563 120,164.5C 119.536,163.906 119.369,163.239 119.5,162.5 Z"/></g>
<g><path style="opacity:0.008" fill="#000000" d="M 262.5,162.5 C 263.525,162.897 263.692,163.563 263,164.5C 262.536,163.906 262.369,163.239 262.5,162.5 Z"/></g>
<g><path style="opacity:0.01" fill="#000000" d="M 119.5,167.5 C 118.475,167.103 118.308,166.437 119,165.5C 119.464,166.094 119.631,166.761 119.5,167.5 Z"/></g>
<g><path style="opacity:0.01" fill="#000000" d="M 263.5,167.5 C 263.369,166.761 263.536,166.094 264,165.5C 264.692,166.437 264.525,167.103 263.5,167.5 Z"/></g>
<g><path style="opacity:0.01" fill="#000000" d="M 117.5,168.5 C 118.525,168.897 118.692,169.563 118,170.5C 117.536,169.906 117.369,169.239 117.5,168.5 Z"/></g>
<g><path style="opacity:0.01" fill="#000000" d="M 264.5,168.5 C 265.525,168.897 265.692,169.563 265,170.5C 264.536,169.906 264.369,169.239 264.5,168.5 Z"/></g>
<g><path style="opacity:0.009" fill="#000000" d="M 116.5,171.5 C 117.573,172.251 117.74,173.251 117,174.5C 116.517,173.552 116.351,172.552 116.5,171.5 Z"/></g>
<g><path style="opacity:0.009" fill="#000000" d="M 265.5,171.5 C 266.573,172.251 266.74,173.251 266,174.5C 265.517,173.552 265.351,172.552 265.5,171.5 Z"/></g>
<g><path style="opacity:0.008" fill="#000000" d="M 425.5,177.5 C 425.351,176.448 425.517,175.448 426,174.5C 426.74,175.749 426.573,176.749 425.5,177.5 Z"/></g>
<g><path style="opacity:0.01" fill="#000000" d="M 115.5,175.5 C 116.598,176.601 116.765,177.934 116,179.5C 115.51,178.207 115.343,176.873 115.5,175.5 Z"/></g>
<g><path style="opacity:0.01" fill="#000000" d="M 266.5,175.5 C 267.598,176.601 267.765,177.934 267,179.5C 266.51,178.207 266.343,176.873 266.5,175.5 Z"/></g>
<g><path style="opacity:0.01" fill="#000000" d="M 318.5,176.5 C 319.573,177.251 319.74,178.251 319,179.5C 318.517,178.552 318.351,177.552 318.5,176.5 Z"/></g>
<g><path style="opacity:0.01" fill="#000000" d="M 426.5,178.5 C 427.573,179.251 427.74,180.251 427,181.5C 426.517,180.552 426.351,179.552 426.5,178.5 Z"/></g>
<g><path style="opacity:0.01" fill="#000000" d="M 114.5,181.5 C 115.654,187.987 115.821,194.654 115,201.5C 114.5,194.842 114.334,188.175 114.5,181.5 Z"/></g>
<g><path style="opacity:0.011" fill="#000000" d="M 267.5,181.5 C 268.654,187.987 268.821,194.654 268,201.5C 267.5,194.842 267.334,188.175 267.5,181.5 Z"/></g>
<g><path style="opacity:0.011" fill="#000000" d="M 317.5,181.5 C 318.598,182.601 318.765,183.934 318,185.5C 317.51,184.207 317.343,182.873 317.5,181.5 Z"/></g>
<g><path style="opacity:0.01" fill="#000000" d="M 427.5,183.5 C 428.651,188.65 428.817,193.984 428,199.5C 427.501,194.177 427.334,188.844 427.5,183.5 Z"/></g>
<g><path style="opacity:0.009" fill="#000000" d="M 317.5,196.5 C 318.613,197.946 318.78,199.613 318,201.5C 317.506,199.866 317.34,198.199 317.5,196.5 Z"/></g>
<g><path style="opacity:0.01" fill="#000000" d="M 426.5,201.5 C 427.573,202.251 427.74,203.251 427,204.5C 426.517,203.552 426.351,202.552 426.5,201.5 Z"/></g>
<g><path style="opacity:0.01" fill="#000000" d="M 115.5,203.5 C 116.598,204.601 116.765,205.934 116,207.5C 115.51,206.207 115.343,204.873 115.5,203.5 Z"/></g>
<g><path style="opacity:0.01" fill="#000000" d="M 266.5,203.5 C 267.598,204.601 267.765,205.934 267,207.5C 266.51,206.207 266.343,204.873 266.5,203.5 Z"/></g>
<g><path style="opacity:0.01" fill="#000000" d="M 318.5,203.5 C 319.573,204.251 319.74,205.251 319,206.5C 318.517,205.552 318.351,204.552 318.5,203.5 Z"/></g>
<g><path style="opacity:0.008" fill="#000000" d="M 425.5,205.5 C 426.833,206.5 426.833,207.5 425.5,208.5C 425.5,207.5 425.5,206.5 425.5,205.5 Z"/></g>
<g><path style="opacity:0.009" fill="#000000" d="M 116.5,208.5 C 117.573,209.251 117.74,210.251 117,211.5C 116.517,210.552 116.351,209.552 116.5,208.5 Z"/></g>
<g><path style="opacity:0.009" fill="#000000" d="M 265.5,208.5 C 266.573,209.251 266.74,210.251 266,211.5C 265.517,210.552 265.351,209.552 265.5,208.5 Z"/></g>
<g><path style="opacity:0.008" fill="#000000" d="M 424.5,208.5 C 424.833,208.5 425.167,208.5 425.5,208.5C 425.167,211.167 424.833,211.167 424.5,208.5 Z"/></g>
<g><path style="opacity:0.008" fill="#000000" d="M 321.5,209.5 C 321.631,210.239 321.464,210.906 321,211.5C 320.308,210.563 320.475,209.897 321.5,209.5 Z"/></g>
<g><path style="opacity:0.01" fill="#000000" d="M 423.5,211.5 C 424.833,212.167 424.833,212.833 423.5,213.5C 423.5,212.833 423.5,212.167 423.5,211.5 Z"/></g>
<g><path style="opacity:0.01" fill="#000000" d="M 117.5,212.5 C 118.525,212.897 118.692,213.563 118,214.5C 117.536,213.906 117.369,213.239 117.5,212.5 Z"/></g>
<g><path style="opacity:0.01" fill="#000000" d="M 264.5,212.5 C 265.525,212.897 265.692,213.563 265,214.5C 264.536,213.906 264.369,213.239 264.5,212.5 Z"/></g>
<g><path style="opacity:0.008" fill="#000000" d="M 422.5,213.5 C 422.833,213.5 423.167,213.5 423.5,213.5C 423.672,214.492 423.338,215.158 422.5,215.5C 422.5,214.833 422.5,214.167 422.5,213.5 Z"/></g>
<g><path style="opacity:0.01" fill="#000000" d="M 119.5,215.5 C 119.631,216.239 119.464,216.906 119,217.5C 118.308,216.563 118.475,215.897 119.5,215.5 Z"/></g>
<g><path style="opacity:0.01" fill="#000000" d="M 263.5,215.5 C 264.525,215.897 264.692,216.563 264,217.5C 263.536,216.906 263.369,216.239 263.5,215.5 Z"/></g>
<g><path style="opacity:0.008" fill="#000000" d="M 421.5,215.5 C 421.833,215.5 422.167,215.5 422.5,215.5C 422.672,216.492 422.338,217.158 421.5,217.5C 421.5,216.833 421.5,216.167 421.5,215.5 Z"/></g>
<g><path style="opacity:0.008" fill="#000000" d="M 420.5,217.5 C 420.833,217.5 421.167,217.5 421.5,217.5C 421.672,218.492 421.338,219.158 420.5,219.5C 420.5,218.833 420.5,218.167 420.5,217.5 Z"/></g>
<g><path style="opacity:0.008" fill="#000000" d="M 119.5,218.5 C 120.525,218.897 120.692,219.563 120,220.5C 119.536,219.906 119.369,219.239 119.5,218.5 Z"/></g>
<g><path style="opacity:0.008" fill="#000000" d="M 262.5,220.5 C 262.369,219.761 262.536,219.094 263,218.5C 263.692,219.437 263.525,220.103 262.5,220.5 Z"/></g>
<g><path style="opacity:0.012" fill="#000000" d="M 419.5,219.5 C 419.833,219.5 420.167,219.5 420.5,219.5C 420.315,220.17 419.981,220.17 419.5,219.5 Z"/></g>
<g><path style="opacity:0.01" fill="#000000" d="M 261.5,220.5 C 261.833,220.5 262.167,220.5 262.5,220.5C 262.672,221.492 262.338,222.158 261.5,222.5C 261.5,221.833 261.5,221.167 261.5,220.5 Z"/></g>
<g><path style="opacity:0.008" fill="#000000" d="M 418.5,221.5 C 419.833,222.167 419.833,222.167 418.5,221.5 Z"/></g>
<g><path style="opacity:0.008" fill="#000000" d="M 260.5,222.5 C 260.833,222.5 261.167,222.5 261.5,222.5C 261.672,223.492 261.338,224.158 260.5,224.5C 260.5,223.833 260.5,223.167 260.5,222.5 Z"/></g>
<g><path style="opacity:0.016" fill="#000000" d="M 417.5,222.5 C 417.833,222.5 418.167,222.5 418.5,222.5C 418.315,223.17 417.981,223.17 417.5,222.5 Z"/></g>
<g><path style="opacity:0.006" fill="#000000" d="M 416.5,223.5 C 416.833,223.5 417.167,223.5 417.5,223.5C 417.672,224.492 417.338,225.158 416.5,225.5C 416.5,224.833 416.5,224.167 416.5,223.5 Z"/></g>
<g><path style="opacity:0.006" fill="#000000" d="M 259.5,224.5 C 259.833,224.5 260.167,224.5 260.5,224.5C 260.672,225.492 260.338,226.158 259.5,226.5C 259.5,225.833 259.5,225.167 259.5,224.5 Z"/></g>
<g><path style="opacity:0.008" fill="#000000" d="M 415.5,225.5 C 415.833,225.5 416.167,225.5 416.5,225.5C 416.315,226.17 415.981,226.17 415.5,225.5 Z"/></g>
<g><path style="opacity:0.008" fill="#000000" d="M 258.5,226.5 C 258.833,226.5 259.167,226.5 259.5,226.5C 259.672,227.492 259.338,228.158 258.5,228.5C 258.5,227.833 258.5,227.167 258.5,226.5 Z"/></g>
<g><path style="opacity:0.013" fill="#000000" d="M 331.5,226.5 C 332.167,226.5 332.5,226.833 332.5,227.5C 332.5,227.833 332.5,228.167 332.5,228.5C 330.576,228.289 330.243,227.623 331.5,226.5 Z"/></g>
<g><path style="opacity:0.012" fill="#000000" d="M 414.5,226.5 C 414.833,226.5 415.167,226.5 415.5,226.5C 415.315,227.17 414.981,227.17 414.5,226.5 Z"/></g>
<g><path style="opacity:0.017" fill="#000000" d="M 413.5,227.5 C 413.833,227.5 414.167,227.5 414.5,227.5C 414.5,228.833 413.833,229.5 412.5,229.5C 412.5,229.167 412.5,228.833 412.5,228.5C 413.167,228.5 413.5,228.167 413.5,227.5 Z"/></g>
<g><path style="opacity:0.008" fill="#000000" d="M 257.5,228.5 C 257.833,228.5 258.167,228.5 258.5,228.5C 258.672,229.492 258.338,230.158 257.5,230.5C 257.5,229.833 257.5,229.167 257.5,228.5 Z"/></g>
<g><path style="opacity:0.012" fill="#000000" d="M 256.5,230.5 C 256.833,230.5 257.167,230.5 257.5,230.5C 257.315,231.17 256.981,231.17 256.5,230.5 Z"/></g>
<g><path style="opacity:0.012" fill="#000000" d="M 324.5,231.5 C 323.833,230.167 323.833,230.167 324.5,231.5 Z"/></g>
<g><path style="opacity:0.006" fill="#000000" d="M 255.5,231.5 C 255.833,231.5 256.167,231.5 256.5,231.5C 256.672,232.492 256.338,233.158 255.5,233.5C 255.5,232.833 255.5,232.167 255.5,231.5 Z"/></g>
<g><path style="opacity:0.012" fill="#000000" d="M 420.5,232.5 C 421.833,233.167 421.833,233.167 420.5,232.5 Z"/></g>
<g><path style="opacity:0.012" fill="#000000" d="M 254.5,233.5 C 254.833,233.5 255.167,233.5 255.5,233.5C 255.315,234.17 254.981,234.17 254.5,233.5 Z"/></g>
<g><path style="opacity:0.012" fill="#000000" d="M 318.5,234.5 C 317.833,233.167 317.833,233.167 318.5,234.5 Z"/></g>
<g><path style="opacity:0.008" fill="#000000" d="M 422.5,233.5 C 423.833,234.167 423.833,234.167 422.5,233.5 Z"/></g>
<g><path style="opacity:0.006" fill="#000000" d="M 253.5,234.5 C 253.833,234.5 254.167,234.5 254.5,234.5C 254.672,235.492 254.338,236.158 253.5,236.5C 253.5,235.833 253.5,235.167 253.5,234.5 Z"/></g>
<g><path style="opacity:0.008" fill="#000000" d="M 315.5,234.5 C 316.833,235.167 316.833,235.167 315.5,234.5 Z"/></g>
<g><path style="opacity:0.012" fill="#000000" d="M 252.5,236.5 C 252.833,236.5 253.167,236.5 253.5,236.5C 253.315,237.17 252.981,237.17 252.5,236.5 Z"/></g>
<g><path style="opacity:0.012" fill="#000000" d="M 426.5,236.5 C 427.833,237.167 427.833,237.167 426.5,236.5 Z"/></g>
<g><path style="opacity:0.016" fill="#000000" d="M 251.5,237.5 C 251.833,237.5 252.167,237.5 252.5,237.5C 252.315,238.17 251.981,238.17 251.5,237.5 Z"/></g>
<g><path style="opacity:0.008" fill="#000000" d="M 428.5,237.5 C 429.833,238.167 429.833,238.167 428.5,237.5 Z"/></g>
<g><path style="opacity:0.012" fill="#000000" d="M 247.5,242.5 C 248.833,243.167 248.833,243.167 247.5,242.5 Z"/></g>
<g><path style="opacity:0.016" fill="#000000" d="M 246.5,243.5 C 246.833,243.5 247.167,243.5 247.5,243.5C 247.315,244.17 246.981,244.17 246.5,243.5 Z"/></g>
<g><path style="opacity:0.016" fill="#000000" d="M 245.5,244.5 C 245.833,244.5 246.167,244.5 246.5,244.5C 246.315,245.17 245.981,245.17 245.5,244.5 Z"/></g>
<g><path style="opacity:0.016" fill="#000000" d="M 244.5,245.5 C 244.833,245.5 245.167,245.5 245.5,245.5C 245.315,246.17 244.981,246.17 244.5,245.5 Z"/></g>
<g><path style="opacity:0.016" fill="#000000" d="M 243.5,246.5 C 243.833,246.5 244.167,246.5 244.5,246.5C 244.315,247.17 243.981,247.17 243.5,246.5 Z"/></g>
<g><path style="opacity:0.012" fill="#000000" d="M 362.5,247.5 C 368.987,246.346 375.654,246.179 382.5,247C 375.842,247.5 369.175,247.666 362.5,247.5 Z"/></g>
<g><path style="opacity:0.012" fill="#000000" d="M 242.5,247.5 C 242.833,247.5 243.167,247.5 243.5,247.5C 243.315,248.17 242.981,248.17 242.5,247.5 Z"/></g>
<g><path style="opacity:0.01" fill="#000000" d="M 354.5,248.5 C 355.946,247.387 357.613,247.22 359.5,248C 357.866,248.494 356.199,248.66 354.5,248.5 Z"/></g>
<g><path style="opacity:0.008" fill="#000000" d="M 390.5,247.5 C 389.054,248.613 387.387,248.78 385.5,248C 387.134,247.506 388.801,247.34 390.5,247.5 Z"/></g>
<g><path style="opacity:0.012" fill="#000000" d="M 241.5,248.5 C 241.833,248.5 242.167,248.5 242.5,248.5C 242.315,249.17 241.981,249.17 241.5,248.5 Z"/></g>
<g><path style="opacity:0.008" fill="#000000" d="M 348.5,248.5 C 349.873,248.343 351.207,248.51 352.5,249C 350.934,249.765 349.601,249.598 348.5,248.5 Z"/></g>
<g><path style="opacity:0.009" fill="#000000" d="M 391.5,249.5 C 392.251,248.427 393.251,248.26 394.5,249C 393.552,249.483 392.552,249.649 391.5,249.5 Z"/></g>
<g><path style="opacity:0.008" fill="#000000" d="M 344.5,249.5 C 345.552,249.351 346.552,249.517 347.5,250C 346.251,250.74 345.251,250.573 344.5,249.5 Z"/></g>
<g><path style="opacity:0.008" fill="#000000" d="M 398.5,249.5 C 397.749,250.573 396.749,250.74 395.5,250C 396.448,249.517 397.448,249.351 398.5,249.5 Z"/></g>
<g><path style="opacity:0.01" fill="#000000" d="M 341.5,251.5 C 341.897,250.475 342.563,250.308 343.5,251C 342.906,251.464 342.239,251.631 341.5,251.5 Z"/></g>
<g><path style="opacity:0.008" fill="#000000" d="M 141.5,252.5 C 140.761,252.631 140.094,252.464 139.5,252C 140.437,251.308 141.103,251.475 141.5,252.5 Z"/></g>
<g><path style="opacity:0.008" fill="#000000" d="M 244.5,252.5 C 244.897,251.475 245.563,251.308 246.5,252C 245.906,252.464 245.239,252.631 244.5,252.5 Z"/></g>
<g><path style="opacity:0.01" fill="#000000" d="M 338.5,251.5 C 339.239,251.369 339.906,251.536 340.5,252C 339.563,252.692 338.897,252.525 338.5,251.5 Z"/></g>
<g><path style="opacity:0.008" fill="#000000" d="M 403.5,251.5 C 403.103,252.525 402.437,252.692 401.5,252C 402.094,251.536 402.761,251.369 403.5,251.5 Z"/></g>
<g><path style="opacity:0.008" fill="#000000" d="M 335.5,253.5 C 335.5,253.167 335.5,252.833 335.5,252.5C 338.167,252.833 338.167,253.167 335.5,253.5 Z"/></g>
<g><path style="opacity:0.012" fill="#000000" d="M 404.5,252.5 C 405.833,253.167 405.833,253.167 404.5,252.5 Z"/></g>
<g><path style="opacity:0.008" fill="#000000" d="M 249.5,254.5 C 249.897,253.475 250.563,253.308 251.5,254C 250.906,254.464 250.239,254.631 249.5,254.5 Z"/></g>
<g><path style="opacity:0.008" fill="#000000" d="M 333.5,253.5 C 334.167,253.5 334.833,253.5 335.5,253.5C 334.833,254.833 334.167,254.833 333.5,253.5 Z"/></g>
<g><path style="opacity:0.012" fill="#000000" d="M 406.5,253.5 C 407.833,254.167 407.833,254.167 406.5,253.5 Z"/></g>
<g><path style="opacity:0.012" fill="#000000" d="M 132.5,254.5 C 133.833,255.167 133.833,255.167 132.5,254.5 Z"/></g>
<g><path style="opacity:0.012" fill="#000000" d="M 252.5,254.5 C 253.833,255.167 253.833,255.167 252.5,254.5 Z"/></g>
<g><path style="opacity:0.012" fill="#000000" d="M 331.5,254.5 C 332.833,255.167 332.833,255.167 331.5,254.5 Z"/></g>
<g><path style="opacity:0.012" fill="#000000" d="M 329.5,255.5 C 330.833,256.167 330.833,256.167 329.5,255.5 Z"/></g>
<g><path style="opacity:0.01" fill="#000000" d="M 411.5,255.5 C 411.5,255.833 411.5,256.167 411.5,256.5C 408.833,256.167 408.833,255.833 411.5,255.5 Z"/></g>
<g><path style="opacity:0.008" fill="#000000" d="M 327.5,257.5 C 327.5,257.167 327.5,256.833 327.5,256.5C 328.167,256.5 328.833,256.5 329.5,256.5C 329.158,257.338 328.492,257.672 327.5,257.5 Z"/></g>
<g><path style="opacity:0.008" fill="#000000" d="M 411.5,256.5 C 412.833,257.167 412.833,257.167 411.5,256.5 Z"/></g>
<g><path style="opacity:0.008" fill="#000000" d="M 325.5,258.5 C 325.5,258.167 325.5,257.833 325.5,257.5C 326.167,257.5 326.833,257.5 327.5,257.5C 327.158,258.338 326.492,258.672 325.5,258.5 Z"/></g>
<g><path style="opacity:0.012" fill="#000000" d="M 260.5,258.5 C 261.833,259.167 261.833,259.167 260.5,258.5 Z"/></g>
<g><path style="opacity:0.016" fill="#000000" d="M 324.5,258.5 C 324.833,258.5 325.167,258.5 325.5,258.5C 325.315,259.17 324.981,259.17 324.5,258.5 Z"/></g>
<g><path style="opacity:0.012" fill="#000000" d="M 450.5,259.5 C 449.833,258.167 449.833,258.167 450.5,259.5 Z"/></g>
<g><path style="opacity:0.012" fill="#000000" d="M 262.5,259.5 C 263.833,260.167 263.833,260.167 262.5,259.5 Z"/></g>
<g><path style="opacity:0.006" fill="#000000" d="M 322.5,260.5 C 322.5,260.167 322.5,259.833 322.5,259.5C 323.167,259.5 323.833,259.5 324.5,259.5C 324.158,260.338 323.492,260.672 322.5,260.5 Z"/></g>
<g><path style="opacity:0.008" fill="#000000" d="M 450.5,259.5 C 451.833,260.167 451.833,260.167 450.5,259.5 Z"/></g>
<g><path style="opacity:0.012" fill="#000000" d="M 120.5,260.5 C 121.833,261.167 121.833,261.167 120.5,260.5 Z"/></g>
<g><path style="opacity:0.008" fill="#000000" d="M 264.5,260.5 C 265.833,261.167 265.833,261.167 264.5,260.5 Z"/></g>
<g><path style="opacity:0.016" fill="#000000" d="M 321.5,260.5 C 321.833,260.5 322.167,260.5 322.5,260.5C 322.315,261.17 321.981,261.17 321.5,260.5 Z"/></g>
<g><path style="opacity:0.016" fill="#000000" d="M 453.5,263.5 C 452.833,262.167 452.833,262.167 453.5,263.5 Z"/></g>
<g><path style="opacity:0.008" fill="#000000" d="M 453.5,263.5 C 454.833,264.167 454.833,264.167 453.5,263.5 Z"/></g>
<g><path style="opacity:0.016" fill="#000000" d="M 270.5,264.5 C 271.833,265.167 271.833,265.167 270.5,264.5 Z"/></g>
<g><path style="opacity:0.016" fill="#000000" d="M 316.5,264.5 C 317.833,265.167 317.833,265.167 316.5,264.5 Z"/></g>
<g><path style="opacity:0.008" fill="#000000" d="M 272.5,265.5 C 273.833,266.167 273.833,266.167 272.5,265.5 Z"/></g>
<g><path style="opacity:0.016" fill="#000000" d="M 315.5,265.5 C 315.833,265.5 316.167,265.5 316.5,265.5C 316.315,266.17 315.981,266.17 315.5,265.5 Z"/></g>
<g><path style="opacity:0.016" fill="#000000" d="M 314.5,266.5 C 314.833,266.5 315.167,266.5 315.5,266.5C 315.315,267.17 314.981,267.17 314.5,266.5 Z"/></g>
<g><path style="opacity:0.004" fill="#000000" d="M 188.5,268.5 C 190.288,267.378 192.288,267.211 194.5,268C 192.527,268.495 190.527,268.662 188.5,268.5 Z"/></g>
<g><path style="opacity:0.016" fill="#000000" d="M 313.5,267.5 C 313.833,267.5 314.167,267.5 314.5,267.5C 314.315,268.17 313.981,268.17 313.5,267.5 Z"/></g>
<g><path style="opacity:0.01" fill="#000000" d="M 175.5,269.5 C 177.628,268.371 179.961,268.204 182.5,269C 180.19,269.497 177.857,269.663 175.5,269.5 Z"/></g>
<g><path style="opacity:0.009" fill="#000000" d="M 201.5,269.5 C 203.966,268.366 206.633,268.199 209.5,269C 206.854,269.497 204.187,269.664 201.5,269.5 Z"/></g>
<g><path style="opacity:0.016" fill="#000000" d="M 312.5,268.5 C 312.833,268.5 313.167,268.5 313.5,268.5C 313.315,269.17 312.981,269.17 312.5,268.5 Z"/></g>
<g><path style="opacity:0.009" fill="#000000" d="M 168.5,269.5 C 170.199,269.34 171.866,269.506 173.5,270C 171.613,270.78 169.946,270.613 168.5,269.5 Z"/></g>
<g><path style="opacity:0.009" fill="#000000" d="M 216.5,269.5 C 215.054,270.613 213.387,270.78 211.5,270C 213.134,269.506 214.801,269.34 216.5,269.5 Z"/></g>
<g><path style="opacity:0.012" fill="#000000" d="M 311.5,269.5 C 311.833,269.5 312.167,269.5 312.5,269.5C 312.315,270.17 311.981,270.17 311.5,269.5 Z"/></g>
<g><path style="opacity:0.008" fill="#000000" d="M 163.5,270.5 C 164.873,270.343 166.207,270.51 167.5,271C 165.934,271.765 164.601,271.598 163.5,270.5 Z"/></g>
<g><path style="opacity:0.009" fill="#000000" d="M 221.5,270.5 C 220.399,271.598 219.066,271.765 217.5,271C 218.793,270.51 220.127,270.343 221.5,270.5 Z"/></g>
<g><path style="opacity:0.009" fill="#000000" d="M 278.5,271.5 C 279.623,270.243 280.289,270.576 280.5,272.5C 280.167,272.5 279.833,272.5 279.5,272.5C 278.833,272.5 278.5,272.167 278.5,271.5 Z"/></g>
<g><path style="opacity:0.008" fill="#000000" d="M 459.5,272.5 C 459.167,272.5 458.833,272.5 458.5,272.5C 458.833,269.833 459.167,269.833 459.5,272.5 Z"/></g>
<g><path style="opacity:0.008" fill="#000000" d="M 103.5,271.5 C 104.833,272.167 104.833,272.167 103.5,271.5 Z"/></g>
<g><path style="opacity:0.01" fill="#000000" d="M 159.5,271.5 C 160.552,271.351 161.552,271.517 162.5,272C 161.251,272.74 160.251,272.573 159.5,271.5 Z"/></g>
<g><path style="opacity:0.009" fill="#000000" d="M 222.5,272.5 C 223.251,271.427 224.251,271.26 225.5,272C 224.552,272.483 223.552,272.649 222.5,272.5 Z"/></g>
<g><path style="opacity:0.01" fill="#000000" d="M 156.5,273.5 C 156.897,272.475 157.563,272.308 158.5,273C 157.906,273.464 157.239,273.631 156.5,273.5 Z"/></g>
<g><path style="opacity:0.009" fill="#000000" d="M 229.5,272.5 C 228.749,273.573 227.749,273.74 226.5,273C 227.448,272.517 228.448,272.351 229.5,272.5 Z"/></g>
<g><path style="opacity:0.008" fill="#000000" d="M 459.5,272.5 C 460.833,273.167 460.833,273.167 459.5,272.5 Z"/></g>
<g><path style="opacity:0.008" fill="#000000" d="M 153.5,274.5 C 153.897,273.475 154.563,273.308 155.5,274C 154.906,274.464 154.239,274.631 153.5,274.5 Z"/></g>
<g><path style="opacity:0.01" fill="#000000" d="M 230.5,274.5 C 230.897,273.475 231.563,273.308 232.5,274C 231.906,274.464 231.239,274.631 230.5,274.5 Z"/></g>
<g><path style="opacity:0.008" fill="#000000" d="M 150.5,275.5 C 150.897,274.475 151.563,274.308 152.5,275C 151.906,275.464 151.239,275.631 150.5,275.5 Z"/></g>
<g><path style="opacity:0.01" fill="#000000" d="M 233.5,275.5 C 233.897,274.475 234.563,274.308 235.5,275C 234.906,275.464 234.239,275.631 233.5,275.5 Z"/></g>
<g><path style="opacity:0.016" fill="#000000" d="M 307.5,274.5 C 308.833,275.167 308.833,275.167 307.5,274.5 Z"/></g>
<g><path style="opacity:0.01" fill="#000000" d="M 147.5,275.5 C 148.239,275.369 148.906,275.536 149.5,276C 148.563,276.692 147.897,276.525 147.5,275.5 Z"/></g>
<g><path style="opacity:0.01" fill="#000000" d="M 238.5,275.5 C 238.103,276.525 237.437,276.692 236.5,276C 237.094,275.536 237.761,275.369 238.5,275.5 Z"/></g>
<g><path style="opacity:0.006" fill="#000000" d="M 306.5,275.5 C 306.833,275.5 307.167,275.5 307.5,275.5C 307.672,276.492 307.338,277.158 306.5,277.5C 306.5,276.833 306.5,276.167 306.5,275.5 Z"/></g>
<g><path style="opacity:0.008" fill="#000000" d="M 144.5,277.5 C 144.5,277.167 144.5,276.833 144.5,276.5C 147.167,276.833 147.167,277.167 144.5,277.5 Z"/></g>
<g><path style="opacity:0.01" fill="#000000" d="M 142.5,278.5 C 142.5,278.167 142.5,277.833 142.5,277.5C 143.167,277.5 143.833,277.5 144.5,277.5C 144.158,278.338 143.492,278.672 142.5,278.5 Z"/></g>
<g><path style="opacity:0.012" fill="#000000" d="M 305.5,277.5 C 305.833,277.5 306.167,277.5 306.5,277.5C 306.315,278.17 305.981,278.17 305.5,277.5 Z"/></g>
<g><path style="opacity:0.008" fill="#000000" d="M 140.5,278.5 C 141.167,278.5 141.833,278.5 142.5,278.5C 141.833,279.833 141.167,279.833 140.5,278.5 Z"/></g>
<g><path style="opacity:0.008" fill="#000000" d="M 245.5,278.5 C 245.103,279.525 244.437,279.692 243.5,279C 244.094,278.536 244.761,278.369 245.5,278.5 Z"/></g>
<g><path style="opacity:0.016" fill="#000000" d="M 304.5,278.5 C 304.833,278.5 305.167,278.5 305.5,278.5C 305.315,279.17 304.981,279.17 304.5,278.5 Z"/></g>
<g><path style="opacity:0.016" fill="#000000" d="M 434.5,278.5 C 433.833,279.167 433.833,279.167 434.5,278.5 Z"/></g>
<g><path style="opacity:0.012" fill="#000000" d="M 138.5,279.5 C 139.833,280.167 139.833,280.167 138.5,279.5 Z"/></g>
<g><path style="opacity:0.012" fill="#000000" d="M 247.5,279.5 C 246.833,280.167 246.833,280.167 247.5,279.5 Z"/></g>
<g><path style="opacity:0.006" fill="#000000" d="M 303.5,279.5 C 303.833,279.5 304.167,279.5 304.5,279.5C 304.672,280.492 304.338,281.158 303.5,281.5C 303.5,280.833 303.5,280.167 303.5,279.5 Z"/></g>
<g><path style="opacity:0.008" fill="#000000" d="M 464.5,281.5 C 464.167,281.5 463.833,281.5 463.5,281.5C 463.833,278.833 464.167,278.833 464.5,281.5 Z"/></g>
<g><path style="opacity:0.012" fill="#000000" d="M 136.5,280.5 C 137.833,281.167 137.833,281.167 136.5,280.5 Z"/></g>
<g><path style="opacity:0.012" fill="#000000" d="M 249.5,280.5 C 248.833,281.167 248.833,281.167 249.5,280.5 Z"/></g>
<g><path style="opacity:0.008" fill="#000000" d="M 434.5,280.5 C 435.833,281.167 435.833,281.167 434.5,280.5 Z"/></g>
<g><path style="opacity:0.012" fill="#000000" d="M 134.5,281.5 C 135.833,282.167 135.833,282.167 134.5,281.5 Z"/></g>
<g><path style="opacity:0.016" fill="#000000" d="M 302.5,281.5 C 302.833,281.5 303.167,281.5 303.5,281.5C 303.315,282.17 302.981,282.17 302.5,281.5 Z"/></g>
<g><path style="opacity:0.008" fill="#000000" d="M 464.5,281.5 C 465.525,281.897 465.692,282.563 465,283.5C 464.536,282.906 464.369,282.239 464.5,281.5 Z"/></g>
<g><path style="opacity:0.012" fill="#000000" d="M 132.5,282.5 C 133.833,283.167 133.833,283.167 132.5,282.5 Z"/></g>
<g><path style="opacity:0.008" fill="#000000" d="M 301.5,282.5 C 301.833,282.5 302.167,282.5 302.5,282.5C 302.672,283.492 302.338,284.158 301.5,284.5C 301.5,283.833 301.5,283.167 301.5,282.5 Z"/></g>
<g><path style="opacity:0.008" fill="#000000" d="M 130.5,284.5 C 130.5,284.167 130.5,283.833 130.5,283.5C 131.167,283.5 131.833,283.5 132.5,283.5C 132.158,284.338 131.492,284.672 130.5,284.5 Z"/></g>
<g><path style="opacity:0.006" fill="#000000" d="M 128.5,285.5 C 128.5,285.167 128.5,284.833 128.5,284.5C 129.167,284.5 129.833,284.5 130.5,284.5C 130.158,285.338 129.492,285.672 128.5,285.5 Z"/></g>
<g><path style="opacity:0.012" fill="#000000" d="M 300.5,284.5 C 300.833,284.5 301.167,284.5 301.5,284.5C 301.315,285.17 300.981,285.17 300.5,284.5 Z"/></g>
<g><path style="opacity:0.016" fill="#000000" d="M 438.5,284.5 C 437.833,285.167 437.833,285.167 438.5,284.5 Z"/></g>
<g><path style="opacity:0.012" fill="#000000" d="M 127.5,285.5 C 127.833,285.5 128.167,285.5 128.5,285.5C 128.315,286.17 127.981,286.17 127.5,285.5 Z"/></g>
<g><path style="opacity:0.006" fill="#000000" d="M 299.5,285.5 C 299.833,285.5 300.167,285.5 300.5,285.5C 300.672,286.492 300.338,287.158 299.5,287.5C 299.5,286.833 299.5,286.167 299.5,285.5 Z"/></g>
<g><path style="opacity:0.008" fill="#000000" d="M 125.5,287.5 C 125.5,287.167 125.5,286.833 125.5,286.5C 126.167,286.5 126.833,286.5 127.5,286.5C 127.158,287.338 126.492,287.672 125.5,287.5 Z"/></g>
<g><path style="opacity:0.012" fill="#000000" d="M 439.5,286.5 C 438.833,287.167 438.833,287.167 439.5,286.5 Z"/></g>
<g><path style="opacity:0.012" fill="#000000" d="M 124.5,287.5 C 124.833,287.5 125.167,287.5 125.5,287.5C 125.315,288.17 124.981,288.17 124.5,287.5 Z"/></g>
<g><path style="opacity:0.016" fill="#000000" d="M 298.5,287.5 C 298.833,287.5 299.167,287.5 299.5,287.5C 299.315,288.17 298.981,288.17 298.5,287.5 Z"/></g>
<g><path style="opacity:0.008" fill="#000000" d="M 122.5,289.5 C 122.5,289.167 122.5,288.833 122.5,288.5C 123.167,288.5 123.833,288.5 124.5,288.5C 124.158,289.338 123.492,289.672 122.5,289.5 Z"/></g>
<g><path style="opacity:0.006" fill="#000000" d="M 297.5,288.5 C 297.833,288.5 298.167,288.5 298.5,288.5C 298.672,289.492 298.338,290.158 297.5,290.5C 297.5,289.833 297.5,289.167 297.5,288.5 Z"/></g>
<g><path style="opacity:0.012" fill="#000000" d="M 439.5,288.5 C 440.833,289.167 440.833,289.167 439.5,288.5 Z"/></g>
<g><path style="opacity:0.012" fill="#000000" d="M 121.5,289.5 C 121.833,289.5 122.167,289.5 122.5,289.5C 122.315,290.17 121.981,290.17 121.5,289.5 Z"/></g>
<g><path style="opacity:0.008" fill="#000000" d="M 467.5,292.5 C 467.351,291.448 467.517,290.448 468,289.5C 468.74,290.749 468.573,291.749 467.5,292.5 Z"/></g>
<g><path style="opacity:0.006" fill="#000000" d="M 119.5,291.5 C 119.5,291.167 119.5,290.833 119.5,290.5C 120.167,290.5 120.833,290.5 121.5,290.5C 121.158,291.338 120.492,291.672 119.5,291.5 Z"/></g>
<g><path style="opacity:0.012" fill="#000000" d="M 296.5,290.5 C 296.833,290.5 297.167,290.5 297.5,290.5C 297.315,291.17 296.981,291.17 296.5,290.5 Z"/></g>
<g><path style="opacity:0.012" fill="#000000" d="M 440.5,290.5 C 441.833,291.167 441.833,291.167 440.5,290.5 Z"/></g>
<g><path style="opacity:0.016" fill="#000000" d="M 118.5,291.5 C 118.833,291.5 119.167,291.5 119.5,291.5C 119.315,292.17 118.981,292.17 118.5,291.5 Z"/></g>
<g><path style="opacity:0.012" fill="#000000" d="M 117.5,292.5 C 117.833,292.5 118.167,292.5 118.5,292.5C 118.315,293.17 117.981,293.17 117.5,292.5 Z"/></g>
<g><path style="opacity:0.012" fill="#000000" d="M 295.5,292.5 C 296.833,293.167 296.833,293.167 295.5,292.5 Z"/></g>
<g><path style="opacity:0.01" fill="#000000" d="M 442.5,292.5 C 442.631,293.239 442.464,293.906 442,294.5C 441.308,293.563 441.475,292.897 442.5,292.5 Z"/></g>
<g><path style="opacity:0.004" fill="#000000" d="M 115.5,294.5 C 115.5,294.167 115.5,293.833 115.5,293.5C 116.167,293.5 116.833,293.5 117.5,293.5C 117.158,294.338 116.492,294.672 115.5,294.5 Z"/></g>
<g><path style="opacity:0.008" fill="#000000" d="M 294.5,293.5 C 294.833,293.5 295.167,293.5 295.5,293.5C 295.672,294.492 295.338,295.158 294.5,295.5C 294.5,294.833 294.5,294.167 294.5,293.5 Z"/></g>
<g><path style="opacity:0.009" fill="#000000" d="M 468.5,293.5 C 469.573,294.251 469.74,295.251 469,296.5C 468.517,295.552 468.351,294.552 468.5,293.5 Z"/></g>
<g><path style="opacity:0.016" fill="#000000" d="M 114.5,294.5 C 114.833,294.5 115.167,294.5 115.5,294.5C 115.315,295.17 114.981,295.17 114.5,294.5 Z"/></g>
<g><path style="opacity:0.016" fill="#000000" d="M 113.5,295.5 C 113.833,295.5 114.167,295.5 114.5,295.5C 114.315,296.17 113.981,296.17 113.5,295.5 Z"/></g>
<g><path style="opacity:0.012" fill="#000000" d="M 293.5,295.5 C 293.833,295.5 294.167,295.5 294.5,295.5C 294.315,296.17 293.981,296.17 293.5,295.5 Z"/></g>
<g><path style="opacity:0.012" fill="#000000" d="M 442.5,295.5 C 443.525,295.897 443.692,296.563 443,297.5C 442.536,296.906 442.369,296.239 442.5,295.5 Z"/></g>
<g><path style="opacity:0.006" fill="#000000" d="M 292.5,296.5 C 292.833,296.5 293.167,296.5 293.5,296.5C 293.672,297.492 293.338,298.158 292.5,298.5C 292.5,297.833 292.5,297.167 292.5,296.5 Z"/></g>
<g><path style="opacity:0.008" fill="#000000" d="M 291.5,298.5 C 291.833,298.5 292.167,298.5 292.5,298.5C 292.315,299.17 291.981,299.17 291.5,298.5 Z"/></g>
<g><path style="opacity:0.01" fill="#000000" d="M 444.5,298.5 C 444.649,299.552 444.483,300.552 444,301.5C 443.26,300.251 443.427,299.251 444.5,298.5 Z"/></g>
<g><path style="opacity:0.01" fill="#000000" d="M 469.5,298.5 C 470.613,299.946 470.78,301.613 470,303.5C 469.506,301.866 469.34,300.199 469.5,298.5 Z"/></g>
<g><path style="opacity:0.012" fill="#000000" d="M 108.5,299.5 C 109.833,300.167 109.833,300.167 108.5,299.5 Z"/></g>
<g><path style="opacity:0.008" fill="#000000" d="M 290.5,299.5 C 290.833,299.5 291.167,299.5 291.5,299.5C 291.315,300.17 290.981,300.17 290.5,299.5 Z"/></g>
<g><path style="opacity:0.016" fill="#000000" d="M 107.5,300.5 C 107.833,300.5 108.167,300.5 108.5,300.5C 108.315,301.17 107.981,301.17 107.5,300.5 Z"/></g>
<g><path style="opacity:0.012" fill="#000000" d="M 275.5,300.5 C 275.5,300.833 275.5,301.167 275.5,301.5C 274.83,301.019 274.83,300.685 275.5,300.5 Z"/></g>
<g><path style="opacity:0.008" fill="#000000" d="M 289.5,300.5 C 289.833,300.5 290.167,300.5 290.5,300.5C 290.315,301.17 289.981,301.17 289.5,300.5 Z"/></g>
<g><path style="opacity:0.016" fill="#000000" d="M 106.5,301.5 C 106.833,301.5 107.167,301.5 107.5,301.5C 107.315,302.17 106.981,302.17 106.5,301.5 Z"/></g>
<g><path style="opacity:0.008" fill="#000000" d="M 275.5,301.5 C 276.833,302.167 276.833,302.167 275.5,301.5 Z"/></g>
<g><path style="opacity:0.006" fill="#000000" d="M 287.5,302.5 C 287.5,302.167 287.5,301.833 287.5,301.5C 288.167,301.5 288.833,301.5 289.5,301.5C 289.158,302.338 288.492,302.672 287.5,302.5 Z"/></g>
<g><path style="opacity:0.016" fill="#000000" d="M 105.5,302.5 C 105.833,302.5 106.167,302.5 106.5,302.5C 106.315,303.17 105.981,303.17 105.5,302.5 Z"/></g>
<g><path style="opacity:0.008" fill="#000000" d="M 279.5,302.5 C 279.103,303.525 278.437,303.692 277.5,303C 278.094,302.536 278.761,302.369 279.5,302.5 Z"/></g>
<g><path style="opacity:0.01" fill="#000000" d="M 285.5,302.5 C 286.167,302.5 286.833,302.5 287.5,302.5C 286.833,303.833 286.167,303.833 285.5,302.5 Z"/></g>
<g><path style="opacity:0.016" fill="#000000" d="M 104.5,303.5 C 104.833,303.5 105.167,303.5 105.5,303.5C 105.315,304.17 104.981,304.17 104.5,303.5 Z"/></g>
<g><path style="opacity:0.006" fill="#000000" d="M 280.5,304.5 C 281.601,303.402 282.934,303.235 284.5,304C 283.207,304.49 281.873,304.657 280.5,304.5 Z"/></g>
<g><path style="opacity:0.013" fill="#000000" d="M 444.5,303.5 C 445.641,306.64 445.808,309.973 445,313.5C 444.502,310.183 444.335,306.85 444.5,303.5 Z"/></g>
<g><path style="opacity:0.016" fill="#000000" d="M 103.5,304.5 C 103.833,304.5 104.167,304.5 104.5,304.5C 104.315,305.17 103.981,305.17 103.5,304.5 Z"/></g>
<g><path style="opacity:0.016" fill="#000000" d="M 102.5,305.5 C 102.833,305.5 103.167,305.5 103.5,305.5C 103.315,306.17 102.981,306.17 102.5,305.5 Z"/></g>
<g><path style="opacity:0.016" fill="#000000" d="M 101.5,306.5 C 101.833,306.5 102.167,306.5 102.5,306.5C 102.315,307.17 101.981,307.17 101.5,306.5 Z"/></g>
<g><path style="opacity:0.016" fill="#000000" d="M 100.5,307.5 C 100.833,307.5 101.167,307.5 101.5,307.5C 101.315,308.17 100.981,308.17 100.5,307.5 Z"/></g>
<g><path style="opacity:0.008" fill="#000000" d="M 67.5,308.5 C 68.8333,309.167 68.8333,309.167 67.5,308.5 Z"/></g>
<g><path style="opacity:0.012" fill="#000000" d="M 99.5,308.5 C 99.8333,308.5 100.167,308.5 100.5,308.5C 100.315,309.17 99.9813,309.17 99.5,308.5 Z"/></g>
<g><path style="opacity:0.009" fill="#000000" d="M 469.5,313.5 C 470.622,315.288 470.789,317.288 470,319.5C 469.505,317.527 469.338,315.527 469.5,313.5 Z"/></g>
<g><path style="opacity:0.016" fill="#000000" d="M 94.5,314.5 C 95.8333,315.167 95.8333,315.167 94.5,314.5 Z"/></g>
<g><path style="opacity:0.012" fill="#000000" d="M 93.5,315.5 C 93.8333,315.5 94.1667,315.5 94.5,315.5C 94.3147,316.17 93.9813,316.17 93.5,315.5 Z"/></g>
<g><path style="opacity:0.004" fill="#000000" d="M 92.5,316.5 C 92.8333,316.5 93.1667,316.5 93.5,316.5C 93.6716,317.492 93.3382,318.158 92.5,318.5C 92.5,317.833 92.5,317.167 92.5,316.5 Z"/></g>
<g><path style="opacity:0.012" fill="#000000" d="M 91.5,318.5 C 91.8333,318.5 92.1667,318.5 92.5,318.5C 92.3147,319.17 91.9813,319.17 91.5,318.5 Z"/></g>
<g><path style="opacity:0.016" fill="#000000" d="M 90.5,319.5 C 90.8333,319.5 91.1667,319.5 91.5,319.5C 91.3147,320.17 90.9813,320.17 90.5,319.5 Z"/></g>
<g><path style="opacity:0.006" fill="#000000" d="M 89.5,320.5 C 89.8333,320.5 90.1667,320.5 90.5,320.5C 90.6716,321.492 90.3382,322.158 89.5,322.5C 89.5,321.833 89.5,321.167 89.5,320.5 Z"/></g>
<g><path style="opacity:0.009" fill="#000000" d="M 468.5,320.5 C 469.573,321.251 469.74,322.251 469,323.5C 468.517,322.552 468.351,321.552 468.5,320.5 Z"/></g>
<g><path style="opacity:0.012" fill="#000000" d="M 88.5,322.5 C 88.8333,322.5 89.1667,322.5 89.5,322.5C 89.3147,323.17 88.9813,323.17 88.5,322.5 Z"/></g>
<g><path style="opacity:0.016" fill="#000000" d="M 87.5,323.5 C 87.8333,323.5 88.1667,323.5 88.5,323.5C 88.3147,324.17 87.9813,324.17 87.5,323.5 Z"/></g>
<g><path style="opacity:0.012" fill="#000000" d="M 440.5,323.5 C 441.833,324.167 441.833,324.167 440.5,323.5 Z"/></g>
<g><path style="opacity:0.01" fill="#000000" d="M 467.5,324.5 C 468.525,324.897 468.692,325.563 468,326.5C 467.536,325.906 467.369,325.239 467.5,324.5 Z"/></g>
<g><path style="opacity:0.008" fill="#000000" d="M 86.5,325.5 C 87.8333,326.167 87.8333,326.167 86.5,325.5 Z"/></g>
<g><path style="opacity:0.016" fill="#000000" d="M 85.5,326.5 C 85.8333,326.5 86.1667,326.5 86.5,326.5C 86.3147,327.17 85.9813,327.17 85.5,326.5 Z"/></g>
<g><path style="opacity:0.012" fill="#000000" d="M 55.5,327.5 C 56.8333,328.167 56.8333,328.167 55.5,327.5 Z"/></g>
<g><path style="opacity:0.006" fill="#000000" d="M 84.5,327.5 C 84.8333,327.5 85.1667,327.5 85.5,327.5C 85.6716,328.492 85.3382,329.158 84.5,329.5C 84.5,328.833 84.5,328.167 84.5,327.5 Z"/></g>
<g><path style="opacity:0.008" fill="#000000" d="M 466.5,329.5 C 466.369,328.761 466.536,328.094 467,327.5C 467.692,328.437 467.525,329.103 466.5,329.5 Z"/></g>
<g><path style="opacity:0.012" fill="#000000" d="M 55.5,330.5 C 54.8333,329.167 54.8333,329.167 55.5,330.5 Z"/></g>
<g><path style="opacity:0.016" fill="#000000" d="M 83.5,329.5 C 83.8333,329.5 84.1667,329.5 84.5,329.5C 84.3147,330.17 83.9813,330.17 83.5,329.5 Z"/></g>
<g><path style="opacity:0.01" fill="#000000" d="M 465.5,329.5 C 465.833,329.5 466.167,329.5 466.5,329.5C 466.672,330.492 466.338,331.158 465.5,331.5C 465.5,330.833 465.5,330.167 465.5,329.5 Z"/></g>
<g><path style="opacity:0.008" fill="#000000" d="M 82.5,331.5 C 83.8333,332.167 83.8333,332.167 82.5,331.5 Z"/></g>
<g><path style="opacity:0.012" fill="#000000" d="M 432.5,331.5 C 433.833,332.167 433.833,332.167 432.5,331.5 Z"/></g>
<g><path style="opacity:0.008" fill="#000000" d="M 464.5,331.5 C 464.833,331.5 465.167,331.5 465.5,331.5C 465.672,332.492 465.338,333.158 464.5,333.5C 464.5,332.833 464.5,332.167 464.5,331.5 Z"/></g>
<g><path style="opacity:0.008" fill="#000000" d="M 81.5,332.5 C 81.8333,332.5 82.1667,332.5 82.5,332.5C 82.6716,333.492 82.3382,334.158 81.5,334.5C 81.5,333.833 81.5,333.167 81.5,332.5 Z"/></g>
<g><path style="opacity:0.006" fill="#000000" d="M 463.5,333.5 C 463.833,333.5 464.167,333.5 464.5,333.5C 464.672,334.492 464.338,335.158 463.5,335.5C 463.5,334.833 463.5,334.167 463.5,333.5 Z"/></g>
<g><path style="opacity:0.012" fill="#000000" d="M 80.5,334.5 C 80.8333,334.5 81.1667,334.5 81.5,334.5C 81.3147,335.17 80.9813,335.17 80.5,334.5 Z"/></g>
<g><path style="opacity:0.006" fill="#000000" d="M 79.5,335.5 C 79.8333,335.5 80.1667,335.5 80.5,335.5C 80.6716,336.492 80.3382,337.158 79.5,337.5C 79.5,336.833 79.5,336.167 79.5,335.5 Z"/></g>
<g><path style="opacity:0.012" fill="#000000" d="M 425.5,336.5 C 424.761,336.631 424.094,336.464 423.5,336C 424.437,335.308 425.103,335.475 425.5,336.5 Z"/></g>
<g><path style="opacity:0.012" fill="#000000" d="M 462.5,335.5 C 462.833,335.5 463.167,335.5 463.5,335.5C 463.315,336.17 462.981,336.17 462.5,335.5 Z"/></g>
<g><path style="opacity:0.008" fill="#000000" d="M 422.5,337.5 C 421.127,337.657 419.793,337.49 418.5,337C 420.066,336.235 421.399,336.402 422.5,337.5 Z"/></g>
<g><path style="opacity:0.011" fill="#000000" d="M 50.5,337.5 C 51.6291,339.628 51.7958,341.961 51,344.5C 50.5034,342.19 50.3367,339.857 50.5,337.5 Z"/></g>
<g><path style="opacity:0.008" fill="#000000" d="M 78.5,337.5 C 78.8333,337.5 79.1667,337.5 79.5,337.5C 79.6716,338.492 79.3382,339.158 78.5,339.5C 78.5,338.833 78.5,338.167 78.5,337.5 Z"/></g>
<g><path style="opacity:0.009" fill="#000000" d="M 412.5,338.5 C 413.946,337.387 415.613,337.22 417.5,338C 415.866,338.494 414.199,338.66 412.5,338.5 Z"/></g>
<g><path style="opacity:0.008" fill="#000000" d="M 461.5,337.5 C 462.833,338.167 462.833,338.167 461.5,337.5 Z"/></g>
<g><path style="opacity:0.004" fill="#000000" d="M 315.5,339.5 C 345.664,338.336 375.997,338.169 406.5,339C 376.168,339.5 345.835,339.667 315.5,339.5 Z"/></g>
<g><path style="opacity:0.012" fill="#000000" d="M 460.5,338.5 C 460.833,338.5 461.167,338.5 461.5,338.5C 461.315,339.17 460.981,339.17 460.5,338.5 Z"/></g>
<g><path style="opacity:0.008" fill="#000000" d="M 77.5,339.5 C 77.8333,339.5 78.1667,339.5 78.5,339.5C 78.6716,340.492 78.3382,341.158 77.5,341.5C 77.5,340.833 77.5,340.167 77.5,339.5 Z"/></g>
<g><path style="opacity:0.004" fill="#000000" d="M 459.5,339.5 C 459.833,339.5 460.167,339.5 460.5,339.5C 460.672,340.492 460.338,341.158 459.5,341.5C 459.5,340.833 459.5,340.167 459.5,339.5 Z"/></g>
<g><path style="opacity:0.012" fill="#000000" d="M 76.5,341.5 C 76.8333,341.5 77.1667,341.5 77.5,341.5C 77.3147,342.17 76.9813,342.17 76.5,341.5 Z"/></g>
<g><path style="opacity:0.012" fill="#000000" d="M 458.5,341.5 C 458.833,341.5 459.167,341.5 459.5,341.5C 459.315,342.17 458.981,342.17 458.5,341.5 Z"/></g>
<g><path style="opacity:0.016" fill="#000000" d="M 457.5,342.5 C 457.833,342.5 458.167,342.5 458.5,342.5C 458.315,343.17 457.981,343.17 457.5,342.5 Z"/></g>
<g><path style="opacity:0.012" fill="#000000" d="M 75.5,343.5 C 76.8333,344.167 76.8333,344.167 75.5,343.5 Z"/></g>
<g><path style="opacity:0.016" fill="#000000" d="M 456.5,343.5 C 456.833,343.5 457.167,343.5 457.5,343.5C 457.315,344.17 456.981,344.17 456.5,343.5 Z"/></g>
<g><path style="opacity:0.012" fill="#000000" d="M 455.5,344.5 C 455.833,344.5 456.167,344.5 456.5,344.5C 456.315,345.17 455.981,345.17 455.5,344.5 Z"/></g>
<g><path style="opacity:0.012" fill="#000000" d="M 51.5,345.5 C 52.8333,346.167 52.8333,346.167 51.5,345.5 Z"/></g>
<g><path style="opacity:0.012" fill="#000000" d="M 74.5,345.5 C 75.8333,346.167 75.8333,346.167 74.5,345.5 Z"/></g>
<g><path style="opacity:0.016" fill="#000000" d="M 454.5,345.5 C 454.833,345.5 455.167,345.5 455.5,345.5C 455.315,346.17 454.981,346.17 454.5,345.5 Z"/></g>
<g><path style="opacity:0.004" fill="#000000" d="M 73.5,346.5 C 73.8333,346.5 74.1667,346.5 74.5,346.5C 74.6716,347.492 74.3382,348.158 73.5,348.5C 73.5,347.833 73.5,347.167 73.5,346.5 Z"/></g>
<g><path style="opacity:0.016" fill="#000000" d="M 453.5,346.5 C 453.833,346.5 454.167,346.5 454.5,346.5C 454.315,347.17 453.981,347.17 453.5,346.5 Z"/></g>
<g><path style="opacity:0.006" fill="#000000" d="M 306.5,347.5 C 307.638,350.304 307.805,353.304 307,356.5C 306.502,353.518 306.335,350.518 306.5,347.5 Z"/></g>
<g><path style="opacity:0.016" fill="#000000" d="M 452.5,347.5 C 452.833,347.5 453.167,347.5 453.5,347.5C 453.315,348.17 452.981,348.17 452.5,347.5 Z"/></g>
<g><path style="opacity:0.008" fill="#000000" d="M 72.5,348.5 C 72.8333,348.5 73.1667,348.5 73.5,348.5C 73.3147,349.17 72.9813,349.17 72.5,348.5 Z"/></g>
<g><path style="opacity:0.016" fill="#000000" d="M 451.5,348.5 C 451.833,348.5 452.167,348.5 452.5,348.5C 452.315,349.17 451.981,349.17 451.5,348.5 Z"/></g>
<g><path style="opacity:0.008" fill="#000000" d="M 55.5,349.5 C 55.5,349.833 55.5,350.167 55.5,350.5C 54.8299,350.019 54.8299,349.685 55.5,349.5 Z"/></g>
<g><path style="opacity:0.008" fill="#000000" d="M 71.5,349.5 C 71.8333,349.5 72.1667,349.5 72.5,349.5C 72.3147,350.17 71.9813,350.17 71.5,349.5 Z"/></g>
<g><path style="opacity:0.012" fill="#000000" d="M 450.5,349.5 C 450.833,349.5 451.167,349.5 451.5,349.5C 451.315,350.17 450.981,350.17 450.5,349.5 Z"/></g>
<g><path style="opacity:0.008" fill="#000000" d="M 55.5,350.5 C 56.8333,351.167 56.8333,351.167 55.5,350.5 Z"/></g>
<g><path style="opacity:0.008" fill="#000000" d="M 71.5,350.5 C 70.8333,351.167 70.8333,351.167 71.5,350.5 Z"/></g>
<g><path style="opacity:0.004" fill="#000000" d="M 448.5,351.5 C 448.5,351.167 448.5,350.833 448.5,350.5C 449.167,350.5 449.833,350.5 450.5,350.5C 450.158,351.338 449.492,351.672 448.5,351.5 Z"/></g>
<g><path style="opacity:0.012" fill="#000000" d="M 68.5,351.5 C 69.8333,352.167 69.8333,352.167 68.5,351.5 Z"/></g>
<g><path style="opacity:0.016" fill="#000000" d="M 447.5,351.5 C 447.833,351.5 448.167,351.5 448.5,351.5C 448.315,352.17 447.981,352.17 447.5,351.5 Z"/></g>
<g><path style="opacity:0.007" fill="#000000" d="M 61.5,352.5 C 60.7494,353.573 59.7494,353.74 58.5,353C 59.448,352.517 60.448,352.351 61.5,352.5 Z"/></g>
<g><path style="opacity:0.007" fill="#000000" d="M 65.5,352.5 C 66.5,352.5 67.5,352.5 68.5,352.5C 67.5,353.833 66.5,353.833 65.5,352.5 Z"/></g>
<g><path style="opacity:0.008" fill="#000000" d="M 446.5,352.5 C 446.833,352.5 447.167,352.5 447.5,352.5C 447.315,353.17 446.981,353.17 446.5,352.5 Z"/></g>
<g><path style="opacity:0.016" fill="#000000" d="M 444.5,353.5 C 445.833,354.167 445.833,354.167 444.5,353.5 Z"/></g>
<g><path style="opacity:0.008" fill="#000000" d="M 442.5,355.5 C 442.5,355.167 442.5,354.833 442.5,354.5C 443.167,354.5 443.833,354.5 444.5,354.5C 444.158,355.338 443.492,355.672 442.5,355.5 Z"/></g>
<g><path style="opacity:0.008" fill="#000000" d="M 440.5,356.5 C 440.5,356.167 440.5,355.833 440.5,355.5C 441.167,355.5 441.833,355.5 442.5,355.5C 442.158,356.338 441.492,356.672 440.5,356.5 Z"/></g>
<g><path style="opacity:0.012" fill="#000000" d="M 440.5,356.5 C 439.833,357.167 439.833,357.167 440.5,356.5 Z"/></g>
<g><path style="opacity:0.008" fill="#000000" d="M 436.5,358.5 C 436.5,358.167 436.5,357.833 436.5,357.5C 439.167,357.833 439.167,358.167 436.5,358.5 Z"/></g>
<g><path style="opacity:0.008" fill="#000000" d="M 434.5,358.5 C 435.167,358.5 435.833,358.5 436.5,358.5C 435.833,359.833 435.167,359.833 434.5,358.5 Z"/></g>
<g><path style="opacity:0.01" fill="#000000" d="M 431.5,359.5 C 432.239,359.369 432.906,359.536 433.5,360C 432.563,360.692 431.897,360.525 431.5,359.5 Z"/></g>
<g><path style="opacity:0.01" fill="#000000" d="M 428.5,361.5 C 428.897,360.475 429.563,360.308 430.5,361C 429.906,361.464 429.239,361.631 428.5,361.5 Z"/></g>
<g><path style="opacity:0.008" fill="#000000" d="M 305.5,361.5 C 306.622,363.288 306.789,365.288 306,367.5C 305.505,365.527 305.338,363.527 305.5,361.5 Z"/></g>
<g><path style="opacity:0.009" fill="#000000" d="M 424.5,362.5 C 425.251,361.427 426.251,361.26 427.5,362C 426.552,362.483 425.552,362.649 424.5,362.5 Z"/></g>
<g><path style="opacity:0.009" fill="#000000" d="M 418.5,363.5 C 419.601,362.402 420.934,362.235 422.5,363C 421.207,363.49 419.873,363.657 418.5,363.5 Z"/></g>
<g><path style="opacity:0.005" fill="#000000" d="M 331.5,363.5 C 359.835,363.333 388.169,363.5 416.5,364C 388.11,363.845 359.943,364.679 332,366.5C 331.517,365.552 331.351,364.552 331.5,363.5 Z"/></g>
<g><path style="opacity:0.009" fill="#000000" d="M 330.5,368.5 C 331.613,369.946 331.78,371.613 331,373.5C 330.506,371.866 330.34,370.199 330.5,368.5 Z"/></g>
<g><path style="opacity:0.009" fill="#000000" d="M 305.5,372.5 C 304.427,371.749 304.26,370.749 305,369.5C 305.483,370.448 305.649,371.448 305.5,372.5 Z"/></g>
<g><path style="opacity:0.01" fill="#000000" d="M 303.5,373.5 C 304.525,373.897 304.692,374.563 304,375.5C 303.536,374.906 303.369,374.239 303.5,373.5 Z"/></g>
<g><path style="opacity:0.009" fill="#000000" d="M 329.5,374.5 C 330.573,375.251 330.74,376.251 330,377.5C 329.517,376.552 329.351,375.552 329.5,374.5 Z"/></g>
<g><path style="opacity:0.009" fill="#000000" d="M 328.5,378.5 C 329.833,379.5 329.833,380.5 328.5,381.5C 328.5,380.5 328.5,379.5 328.5,378.5 Z"/></g>
<g><path style="opacity:0.007" fill="#000000" d="M 327.5,381.5 C 327.833,381.5 328.167,381.5 328.5,381.5C 328.737,382.791 328.404,383.791 327.5,384.5C 327.5,383.5 327.5,382.5 327.5,381.5 Z"/></g>
<g><path style="opacity:0.008" fill="#000000" d="M 326.5,384.5 C 326.833,384.5 327.167,384.5 327.5,384.5C 327.672,385.492 327.338,386.158 326.5,386.5C 326.5,385.833 326.5,385.167 326.5,384.5 Z"/></g>
<g><path style="opacity:0.008" fill="#000000" d="M 325.5,386.5 C 325.833,386.5 326.167,386.5 326.5,386.5C 326.167,389.167 325.833,389.167 325.5,386.5 Z"/></g>
<g><path style="opacity:0.012" fill="#000000" d="M 324.5,389.5 C 325.833,390.167 325.833,390.167 324.5,389.5 Z"/></g>
<g><path style="opacity:0.009" fill="#000000" d="M 288.5,391.5 C 287.127,391.657 285.793,391.49 284.5,391C 286.066,390.235 287.399,390.402 288.5,391.5 Z"/></g>
<g><path style="opacity:0.012" fill="#000000" d="M 283.5,392.5 C 216.499,392.667 149.499,392.5 82.5,392C 149.668,391.168 216.668,391.335 283.5,392.5 Z"/></g>
<g><path style="opacity:0.012" fill="#000000" d="M 323.5,391.5 C 324.833,392.167 324.833,392.167 323.5,391.5 Z"/></g>
<g><path style="opacity:0.006" fill="#000000" d="M 322.5,392.5 C 322.833,392.5 323.167,392.5 323.5,392.5C 323.672,393.492 323.338,394.158 322.5,394.5C 322.5,393.833 322.5,393.167 322.5,392.5 Z"/></g>
<g><path style="opacity:0.012" fill="#000000" d="M 321.5,394.5 C 321.833,394.5 322.167,394.5 322.5,394.5C 322.315,395.17 321.981,395.17 321.5,394.5 Z"/></g>
<g><path style="opacity:0.004" fill="#000000" d="M 320.5,395.5 C 320.833,395.5 321.167,395.5 321.5,395.5C 321.672,396.492 321.338,397.158 320.5,397.5C 320.5,396.833 320.5,396.167 320.5,395.5 Z"/></g>
<g><path style="opacity:0.012" fill="#000000" d="M 319.5,397.5 C 319.833,397.5 320.167,397.5 320.5,397.5C 320.315,398.17 319.981,398.17 319.5,397.5 Z"/></g>
<g><path style="opacity:0.012" fill="#000000" d="M 318.5,398.5 C 318.833,398.5 319.167,398.5 319.5,398.5C 319.315,399.17 318.981,399.17 318.5,398.5 Z"/></g>
<g><path style="opacity:0.012" fill="#000000" d="M 317.5,399.5 C 317.833,399.5 318.167,399.5 318.5,399.5C 318.315,400.17 317.981,400.17 317.5,399.5 Z"/></g>
<g><path style="opacity:0.004" fill="#000000" d="M 316.5,400.5 C 316.833,400.5 317.167,400.5 317.5,400.5C 317.672,401.492 317.338,402.158 316.5,402.5C 316.5,401.833 316.5,401.167 316.5,400.5 Z"/></g>
<g><path style="opacity:0.009" fill="#000000" d="M 71.5,402.5 C 72.6129,403.946 72.7796,405.613 72,407.5C 71.5065,405.866 71.3398,404.199 71.5,402.5 Z"/></g>
<g><path style="opacity:0.004" fill="#000000" d="M 316.5,402.5 C 315.833,403.167 315.833,403.167 316.5,402.5 Z"/></g>
<g><path style="opacity:0.004" fill="#000000" d="M 315.5,403.5 C 314.833,404.167 314.833,404.167 315.5,403.5 Z"/></g>
<g><path style="opacity:0.008" fill="#000000" d="M 312.5,404.5 C 313.833,405.167 313.833,405.167 312.5,404.5 Z"/></g>
<g><path style="opacity:0.012" fill="#000000" d="M 311.5,405.5 C 311.833,405.5 312.167,405.5 312.5,405.5C 312.315,406.17 311.981,406.17 311.5,405.5 Z"/></g>
<g><path style="opacity:0.012" fill="#000000" d="M 310.5,406.5 C 310.833,406.5 311.167,406.5 311.5,406.5C 311.315,407.17 310.981,407.17 310.5,406.5 Z"/></g>
<g><path style="opacity:0.008" fill="#000000" d="M 310.5,407.5 C 309.833,408.167 309.833,408.167 310.5,407.5 Z"/></g>
<g><path style="opacity:0.008" fill="#000000" d="M 72.5,408.5 C 73.525,408.897 73.6917,409.563 73,410.5C 72.5357,409.906 72.369,409.239 72.5,408.5 Z"/></g>
<g><path style="opacity:0.012" fill="#000000" d="M 307.5,408.5 C 308.833,409.167 308.833,409.167 307.5,408.5 Z"/></g>
<g><path style="opacity:0.006" fill="#000000" d="M 305.5,410.5 C 305.5,410.167 305.5,409.833 305.5,409.5C 306.167,409.5 306.833,409.5 307.5,409.5C 307.158,410.338 306.492,410.672 305.5,410.5 Z"/></g>
<g><path style="opacity:0.012" fill="#000000" d="M 304.5,410.5 C 304.833,410.5 305.167,410.5 305.5,410.5C 305.315,411.17 304.981,411.17 304.5,410.5 Z"/></g>
<g><path style="opacity:0.008" fill="#000000" d="M 75.5,411.5 C 74.8333,412.167 74.8333,412.167 75.5,411.5 Z"/></g>
<g><path style="opacity:0.012" fill="#000000" d="M 302.5,411.5 C 303.833,412.167 303.833,412.167 302.5,411.5 Z"/></g>
<g><path style="opacity:0.008" fill="#000000" d="M 299.5,413.5 C 299.5,413.167 299.5,412.833 299.5,412.5C 302.167,412.833 302.167,413.167 299.5,413.5 Z"/></g>
<g><path style="opacity:0.004" fill="#000000" d="M 75.5,413.5 C 76.8333,414.167 76.8333,414.167 75.5,413.5 Z"/></g>
<g><path style="opacity:0.01" fill="#000000" d="M 297.5,413.5 C 298.167,413.5 298.833,413.5 299.5,413.5C 298.833,414.833 298.167,414.833 297.5,413.5 Z"/></g>
<g><path style="opacity:0.008" fill="#000000" d="M 78.5,414.5 C 78.5,414.833 78.5,415.167 78.5,415.5C 77.8299,415.019 77.8299,414.685 78.5,414.5 Z"/></g>
<g><path style="opacity:0.01" fill="#000000" d="M 294.5,415.5 C 294.897,414.475 295.563,414.308 296.5,415C 295.906,415.464 295.239,415.631 294.5,415.5 Z"/></g>
<g><path style="opacity:0.008" fill="#000000" d="M 78.5,415.5 C 79.8333,416.167 79.8333,416.167 78.5,415.5 Z"/></g>
<g><path style="opacity:0.009" fill="#000000" d="M 290.5,416.5 C 291.251,415.427 292.251,415.26 293.5,416C 292.552,416.483 291.552,416.649 290.5,416.5 Z"/></g>
<g><path style="opacity:0.012" fill="#000000" d="M 82.5,416.5 C 82.1034,417.525 81.4368,417.692 80.5,417C 81.0944,416.536 81.7611,416.369 82.5,416.5 Z"/></g>
<g><path style="opacity:0.009" fill="#000000" d="M 282.5,417.5 C 284.288,416.378 286.288,416.211 288.5,417C 286.527,417.495 284.527,417.662 282.5,417.5 Z"/></g>
</svg>
