<svg xmlns="http://www.w3.org/2000/svg" data-name="Layer 1" viewBox="0 0 64 64" id="real-estate-plan"><path d="M62,18.94a1,1,0,0,0-.05-0.27l0-.09a1,1,0,0,0-.19-0.28h0l-16-16h0a1,1,0,0,0-.28-0.19l-0.1,0A1,1,0,0,0,45.07,2H3A1,1,0,0,0,2,3V61a1,1,0,0,0,1,1H61a1,1,0,0,0,1-1V19S62,19,62,18.94ZM46,5.41L58.59,18H46V5.41ZM4,60V4H44V19a1,1,0,0,0,1,1H60V60H4Z"></path><path d="M37 26.29h0L26.86 18.93a4.85 4.85 0 0 0-5.72 0L11 26.29a4.88 4.88 0 0 0-2 3.93V43.14A4.87 4.87 0 0 0 13.86 48h4.21A2.93 2.93 0 0 0 21 45.07V39a.93.93 0 0 1 .93-.93H26a.93.93 0 0 1 .93.93v6.07A3.16 3.16 0 0 0 30.13 48h4A4.87 4.87 0 0 0 39 43.14V30.23A4.88 4.88 0 0 0 37 26.29zm0 16.84A2.87 2.87 0 0 1 34.14 46h-4a1.22 1.22 0 0 1-1.2-.93V39A2.93 2.93 0 0 0 26 36.07H21.93A2.93 2.93 0 0 0 19 39v6.07a.93.93 0 0 1-.93.93H13.86A2.87 2.87 0 0 1 11 43.14V30.23a2.87 2.87 0 0 1 1.18-2.32l10.14-7.37a2.85 2.85 0 0 1 3.37 0l10.14 7.36A2.87 2.87 0 0 1 37 30.23V43.14zM54 28H43a1 1 0 0 0 0 2H54A1 1 0 0 0 54 28zM54 34H43a1 1 0 0 0 0 2H54A1 1 0 0 0 54 34zM50 40H43a1 1 0 0 0 0 2h7A1 1 0 0 0 50 40zM54 40H53a1 1 0 0 0 0 2h1A1 1 0 0 0 54 40z"></path></svg>