<?xml version="1.0" encoding="UTF-8"?>
<!DOCTYPE svg PUBLIC "-//W3C//DTD SVG 1.1//EN" "http://www.w3.org/Graphics/SVG/1.1/DTD/svg11.dtd">
<svg xmlns="http://www.w3.org/2000/svg" version="1.1" width="512px" height="512px" style="shape-rendering:geometricPrecision; text-rendering:geometricPrecision; image-rendering:optimizeQuality; fill-rule:evenodd; clip-rule:evenodd" xmlns:xlink="http://www.w3.org/1999/xlink">
<g><path style="opacity:0.008" fill="#000000" d="M 361.5,14.5 C 361.897,13.475 362.563,13.3083 363.5,14C 362.906,14.4643 362.239,14.631 361.5,14.5 Z"/></g>
<g><path style="opacity:1" fill="#474ddb" d="M 496.5,149.5 C 496.5,262.833 496.5,376.167 496.5,489.5C 495.662,489.842 495.328,490.508 495.5,491.5C 494.662,491.842 494.328,492.508 494.5,493.5C 493.833,493.5 493.5,493.833 493.5,494.5C 492.508,494.328 491.842,494.662 491.5,495.5C 490.508,495.328 489.842,495.662 489.5,496.5C 333.5,496.5 177.5,496.5 21.5,496.5C 20.1007,495.11 18.4341,494.11 16.5,493.5C 16.6716,492.508 16.3382,491.842 15.5,491.5C 15.6716,490.508 15.3382,489.842 14.5,489.5C 14.5,333.5 14.5,177.5 14.5,21.5C 15.652,18.1849 17.9853,16.0183 21.5,15C 134.5,14.3333 247.5,14.3333 360.5,15C 362.246,15.4709 363.913,16.1376 365.5,17C 409.782,60.7807 453.449,104.947 496.5,149.5 Z M 350.5,153.5 C 349.535,154.721 349.702,156.054 351,157.5C 351.69,158.738 352.19,158.738 352.5,157.5C 354.027,157.427 355.027,158.094 355.5,159.5C 354.262,159.81 354.262,160.31 355.5,161C 356.437,161.692 357.103,161.525 357.5,160.5C 397.833,160.5 438.167,160.5 478.5,160.5C 478.5,266.5 478.5,372.5 478.5,478.5C 329.833,478.5 181.167,478.5 32.5,478.5C 32.5,329.833 32.5,181.167 32.5,32.5C 138.5,32.5 244.5,32.5 350.5,32.5C 350.5,72.8333 350.5,113.167 350.5,153.5 Z M 370.5,47.5 C 400.46,78.9664 431.294,110.3 463,141.5C 463.399,141.272 463.565,140.938 463.5,140.5C 464.473,140.987 465.473,141.487 466.5,142C 433.835,142.5 401.168,142.667 368.5,142.5C 368.333,109.832 368.5,77.165 369,44.5C 369.513,45.5266 370.013,46.5266 370.5,47.5 Z M 197.5,161.5 C 198.791,161.263 199.791,161.596 200.5,162.5C 199.761,162.369 199.094,162.536 198.5,163C 200.746,164.039 202.913,165.206 205,166.5C 205.399,166.272 205.565,165.938 205.5,165.5C 207.027,165.427 208.027,166.094 208.5,167.5C 207.668,168.329 208.001,169.162 209.5,170C 211.667,171.5 213.833,173 216,174.5C 216.399,174.272 216.565,173.938 216.5,173.5C 218.027,173.427 219.027,174.094 219.5,175.5C 219.062,175.435 218.728,175.601 218.5,176C 219.846,177.669 221.513,178.836 223.5,179.5C 223.5,180.167 223.833,180.5 224.5,180.5C 227.688,182.69 230.855,185.024 234,187.5C 234.399,187.272 234.565,186.938 234.5,186.5C 236.027,186.427 237.027,187.094 237.5,188.5C 236.668,189.329 237.001,190.162 238.5,191C 240.667,192.5 242.833,194 245,195.5C 245.399,195.272 245.565,194.938 245.5,194.5C 247.027,194.427 248.027,195.094 248.5,196.5C 247.668,197.329 248.001,198.162 249.5,199C 251.667,200.5 253.833,202 256,203.5C 256.399,203.272 256.565,202.938 256.5,202.5C 258.027,202.427 259.027,203.094 259.5,204.5C 258.668,205.329 259.001,206.162 260.5,207C 262.667,208.5 264.833,210 267,211.5C 267.399,211.272 267.565,210.938 267.5,210.5C 269.027,210.427 270.027,211.094 270.5,212.5C 269.668,213.329 270.001,214.162 271.5,215C 273.667,216.5 275.833,218 278,219.5C 278.399,219.272 278.565,218.938 278.5,218.5C 280.027,218.427 281.027,219.094 281.5,220.5C 281.062,220.435 280.728,220.601 280.5,221C 282.351,222.752 284.351,224.252 286.5,225.5C 286.5,226.167 286.833,226.5 287.5,226.5C 287.5,227.167 287.833,227.5 288.5,227.5C 288.987,228.473 289.487,229.473 290,230.5C 290.69,231.738 291.19,231.738 291.5,230.5C 292.338,230.842 292.672,231.508 292.5,232.5C 293.404,233.209 293.737,234.209 293.5,235.5C 294.833,273.833 294.833,312.167 293.5,350.5C 293.737,351.791 293.404,352.791 292.5,353.5C 292.631,352.761 292.464,352.094 292,351.5C 289.833,357.667 285.667,361.833 279.5,364C 280.094,364.464 280.761,364.631 281.5,364.5C 280.791,365.404 279.791,365.737 278.5,365.5C 264.5,366.833 250.5,366.833 236.5,365.5C 234.248,365.084 232.748,363.751 232,361.5C 231.5,342.836 231.333,324.17 231.5,305.5C 230.596,304.791 230.263,303.791 230.5,302.5C 231.043,302.44 231.376,302.107 231.5,301.5C 230.164,298.846 228.497,296.513 226.5,294.5C 226.5,293.833 226.167,293.5 225.5,293.5C 225.5,292.833 225.167,292.5 224.5,292.5C 223.312,291.636 222.145,290.636 221,289.5C 220.601,289.728 220.435,290.062 220.5,290.5C 219.508,290.672 218.842,290.338 218.5,289.5C 219.738,289.19 219.738,288.69 218.5,288C 217.563,287.308 216.897,287.475 216.5,288.5C 200.862,287.563 185.195,287.229 169.5,287.5C 168.749,286.427 167.749,286.26 166.5,287C 165.167,287.667 163.833,288.333 162.5,289C 161.262,289.69 161.262,290.19 162.5,290.5C 162.158,291.338 161.492,291.672 160.5,291.5C 156.833,293.161 153.833,296.161 151.5,300.5C 151.624,301.107 151.957,301.44 152.5,301.5C 152.279,304.067 151.612,306.401 150.5,308.5C 150.83,327.008 150.497,345.341 149.5,363.5C 149.307,359.551 148.807,359.551 148,363.5C 146.933,364.191 145.766,364.691 144.5,365C 145.448,365.483 146.448,365.649 147.5,365.5C 133.167,366.833 118.833,366.833 104.5,365.5C 103.209,365.737 102.209,365.404 101.5,364.5C 102.239,364.631 102.906,364.464 103.5,364C 97.3333,361.833 93.1667,357.667 91,351.5C 90.5357,352.094 90.369,352.761 90.5,353.5C 89.596,352.791 89.2627,351.791 89.5,350.5C 88.1667,312.167 88.1667,273.833 89.5,235.5C 89.2627,234.209 89.596,233.209 90.5,232.5C 90.369,233.239 90.5357,233.906 91,234.5C 92.3957,230.208 94.8957,226.708 98.5,224C 98.2716,223.601 97.9382,223.435 97.5,223.5C 97.9731,222.094 98.9731,221.427 100.5,221.5C 100.435,221.938 100.601,222.272 101,222.5C 103.833,220.333 106.667,218.167 109.5,216C 109.272,215.601 108.938,215.435 108.5,215.5C 108.973,214.094 109.973,213.427 111.5,213.5C 111.435,213.938 111.601,214.272 112,214.5C 114.833,212.333 117.667,210.167 120.5,208C 120.272,207.601 119.938,207.435 119.5,207.5C 119.973,206.094 120.973,205.427 122.5,205.5C 122.435,205.938 122.601,206.272 123,206.5C 125.833,204.333 128.667,202.167 131.5,200C 131.272,199.601 130.938,199.435 130.5,199.5C 130.973,198.094 131.973,197.427 133.5,197.5C 133.435,197.938 133.601,198.272 134,198.5C 137.145,196.024 140.312,193.69 143.5,191.5C 144.167,191.5 144.5,191.167 144.5,190.5C 147.871,188.154 151.204,185.821 154.5,183.5C 155.167,183.5 155.5,183.167 155.5,182.5C 157.487,181.836 159.154,180.669 160.5,179C 160.272,178.601 159.938,178.435 159.5,178.5C 159.973,177.094 160.973,176.427 162.5,176.5C 162.435,176.938 162.601,177.272 163,177.5C 163.995,176.934 164.828,176.267 165.5,175.5C 166.167,175.5 166.5,175.167 166.5,174.5C 168.487,173.836 170.154,172.669 171.5,171C 171.272,170.601 170.938,170.435 170.5,170.5C 170.973,169.094 171.973,168.427 173.5,168.5C 173.435,168.938 173.601,169.272 174,169.5C 174.995,168.934 175.828,168.267 176.5,167.5C 177.167,167.5 177.5,167.167 177.5,166.5C 179.807,165.347 182.14,164.18 184.5,163C 183.906,162.536 183.239,162.369 182.5,162.5C 183.209,161.596 184.209,161.263 185.5,161.5C 189.5,160.167 193.5,160.167 197.5,161.5 Z M 177.5,165.5 C 177.5,165.833 177.5,166.167 177.5,166.5C 176.833,166.5 176.5,166.833 176.5,167.5C 175.833,167.5 175.167,167.5 174.5,167.5C 174.973,166.094 175.973,165.427 177.5,165.5 Z M 166.5,173.5 C 166.5,173.833 166.5,174.167 166.5,174.5C 165.833,174.5 165.5,174.833 165.5,175.5C 164.833,175.5 164.167,175.5 163.5,175.5C 163.973,174.094 164.973,173.427 166.5,173.5 Z M 252.5,177.5 C 253.167,177.5 253.833,177.5 254.5,177.5C 254.5,178.167 254.833,178.5 255.5,178.5C 255.5,178.833 255.5,179.167 255.5,179.5C 253.973,179.573 252.973,178.906 252.5,177.5 Z M 223.5,179.5 C 223.5,179.167 223.5,178.833 223.5,178.5C 225.027,178.427 226.027,179.094 226.5,180.5C 225.833,180.5 225.167,180.5 224.5,180.5C 223.833,180.5 223.5,180.167 223.5,179.5 Z M 155.5,181.5 C 155.5,181.833 155.5,182.167 155.5,182.5C 154.833,182.5 154.5,182.833 154.5,183.5C 153.833,183.5 153.167,183.5 152.5,183.5C 152.973,182.094 153.973,181.427 155.5,181.5 Z M 117.5,185.5 C 118.167,185.5 118.833,185.5 119.5,185.5C 119.027,186.906 118.027,187.573 116.5,187.5C 116.5,187.167 116.5,186.833 116.5,186.5C 117.167,186.5 117.5,186.167 117.5,185.5 Z M 144.5,189.5 C 144.5,189.833 144.5,190.167 144.5,190.5C 143.833,190.5 143.5,190.833 143.5,191.5C 142.833,191.5 142.167,191.5 141.5,191.5C 141.973,190.094 142.973,189.427 144.5,189.5 Z M 80.5,213.5 C 80.8333,213.5 81.1667,213.5 81.5,213.5C 81.573,215.027 80.9063,216.027 79.5,216.5C 79.5,215.833 79.5,215.167 79.5,214.5C 80.1667,214.5 80.5,214.167 80.5,213.5 Z M 301.5,213.5 C 301.833,213.5 302.167,213.5 302.5,213.5C 302.5,214.167 302.833,214.5 303.5,214.5C 303.5,215.167 303.5,215.833 303.5,216.5C 302.094,216.027 301.427,215.027 301.5,213.5 Z M 286.5,225.5 C 286.5,225.167 286.5,224.833 286.5,224.5C 288.5,224.5 289.5,225.5 289.5,227.5C 289.167,227.5 288.833,227.5 288.5,227.5C 287.833,227.5 287.5,227.167 287.5,226.5C 286.833,226.5 286.5,226.167 286.5,225.5 Z M 222.5,292.5 C 223.167,292.5 223.833,292.5 224.5,292.5C 225.167,292.5 225.5,292.833 225.5,293.5C 226.167,293.5 226.5,293.833 226.5,294.5C 226.5,295.167 226.5,295.833 226.5,296.5C 224.833,295.5 223.5,294.167 222.5,292.5 Z M 163.5,374.5 C 163.5,375.167 163.5,375.833 163.5,376.5C 162.833,376.5 162.5,376.833 162.5,377.5C 162.167,377.5 161.833,377.5 161.5,377.5C 161.427,375.973 162.094,374.973 163.5,374.5 Z M 161.5,377.5 C 161.5,377.833 161.5,378.167 161.5,378.5C 160.833,378.5 160.5,378.833 160.5,379.5C 159.833,379.5 159.167,379.5 158.5,379.5C 158.973,378.094 159.973,377.427 161.5,377.5 Z"/></g>
<g><path style="opacity:0.008" fill="#000000" d="M 364.5,14.5 C 365.833,15.1667 365.833,15.1667 364.5,14.5 Z"/></g>
<g><path style="opacity:1" fill="#35358c" d="M 14.5,21.5 C 13.475,21.1034 13.3083,20.4368 14,19.5C 14.4643,20.0944 14.631,20.7611 14.5,21.5 Z"/></g>
<g><path style="opacity:1" fill="#474ddb" d="M 204.5,144.5 C 205.78,145.931 207.447,146.598 209.5,146.5C 209.973,147.906 210.973,148.573 212.5,148.5C 212.973,149.906 213.973,150.573 215.5,150.5C 216.436,151.974 217.77,152.974 219.5,153.5C 219.973,154.906 220.973,155.573 222.5,155.5C 224.86,157.853 227.527,159.853 230.5,161.5C 230.973,162.906 231.973,163.573 233.5,163.5C 235.86,165.853 238.527,167.853 241.5,169.5C 241.973,170.906 242.973,171.573 244.5,171.5C 246.86,173.853 249.527,175.853 252.5,177.5C 252.973,178.906 253.973,179.573 255.5,179.5C 256.436,180.974 257.77,181.974 259.5,182.5C 259.973,183.906 260.973,184.573 262.5,184.5C 264.86,186.853 267.527,188.853 270.5,190.5C 270.973,191.906 271.973,192.573 273.5,192.5C 275.86,194.853 278.527,196.853 281.5,198.5C 281.973,199.906 282.973,200.573 284.5,200.5C 286.86,202.853 289.527,204.853 292.5,206.5C 292.973,207.906 293.973,208.573 295.5,208.5C 295.5,209.167 295.833,209.5 296.5,209.5C 296.973,210.906 297.973,211.573 299.5,211.5C 299.833,212.5 300.5,213.167 301.5,213.5C 301.427,215.027 302.094,216.027 303.5,216.5C 304.604,218.389 305.937,220.055 307.5,221.5C 307.328,222.492 307.662,223.158 308.5,223.5C 308.328,224.492 308.662,225.158 309.5,225.5C 309.263,226.791 309.596,227.791 310.5,228.5C 310.263,229.791 310.596,230.791 311.5,231.5C 312.63,270.484 312.797,309.484 312,348.5C 311.304,351.478 310.804,354.478 310.5,357.5C 309.069,358.78 308.402,360.447 308.5,362.5C 307.094,362.973 306.427,363.973 306.5,365.5C 305.512,366.795 304.512,368.128 303.5,369.5C 301.167,371.167 299.167,373.167 297.5,375.5C 296.128,376.512 294.795,377.512 293.5,378.5C 291.973,378.427 290.973,379.094 290.5,380.5C 288.447,380.402 286.78,381.069 285.5,382.5C 267.888,384.763 250.222,385.097 232.5,383.5C 231.791,382.596 230.791,382.263 229.5,382.5C 229.158,381.662 228.492,381.328 227.5,381.5C 224.526,378.862 221.526,376.195 218.5,373.5C 218.672,372.508 218.338,371.842 217.5,371.5C 216.736,368.982 215.736,366.649 214.5,364.5C 214.83,345.992 214.497,327.659 213.5,309.5C 213.167,307.167 211.833,305.833 209.5,305.5C 197.34,304.34 185.007,304.173 172.5,305C 171.584,305.278 170.918,305.778 170.5,306.5C 169.662,306.842 169.328,307.508 169.5,308.5C 168.772,328.015 168.105,347.682 167.5,367.5C 166.326,368.514 165.66,369.847 165.5,371.5C 164.599,372.29 163.932,373.29 163.5,374.5C 162.094,374.973 161.427,375.973 161.5,377.5C 159.973,377.427 158.973,378.094 158.5,379.5C 155.968,380.596 153.635,381.929 151.5,383.5C 133.445,385.099 115.445,384.765 97.5,382.5C 96.2196,381.069 94.5529,380.402 92.5,380.5C 92.0269,379.094 91.0269,378.427 89.5,378.5C 88.205,377.512 86.8717,376.512 85.5,375.5C 83.8333,373.167 81.8333,371.167 79.5,369.5C 78.4884,368.128 77.4884,366.795 76.5,365.5C 76.573,363.973 75.9063,362.973 74.5,362.5C 74.5979,360.447 73.9313,358.78 72.5,357.5C 72.7373,356.209 72.404,355.209 71.5,354.5C 70.1667,313.5 70.1667,272.5 71.5,231.5C 72.404,230.791 72.7373,229.791 72.5,228.5C 73.404,227.791 73.7373,226.791 73.5,225.5C 74.3382,225.158 74.6716,224.492 74.5,223.5C 75.3382,223.158 75.6716,222.492 75.5,221.5C 77.0627,220.055 78.396,218.389 79.5,216.5C 80.9063,216.027 81.573,215.027 81.5,213.5C 82.5,213.167 83.1667,212.5 83.5,211.5C 85.0269,211.573 86.0269,210.906 86.5,209.5C 87.1667,209.5 87.5,209.167 87.5,208.5C 89.0269,208.573 90.0269,207.906 90.5,206.5C 93.4735,204.853 96.1401,202.853 98.5,200.5C 100.027,200.573 101.027,199.906 101.5,198.5C 104.473,196.853 107.14,194.853 109.5,192.5C 111.027,192.573 112.027,191.906 112.5,190.5C 114.23,189.974 115.564,188.974 116.5,187.5C 118.027,187.573 119.027,186.906 119.5,185.5C 122.473,183.853 125.14,181.853 127.5,179.5C 129.027,179.573 130.027,178.906 130.5,177.5C 133.473,175.853 136.14,173.853 138.5,171.5C 140.027,171.573 141.027,170.906 141.5,169.5C 144.473,167.853 147.14,165.853 149.5,163.5C 151.027,163.573 152.027,162.906 152.5,161.5C 155.473,159.853 158.14,157.853 160.5,155.5C 162.027,155.573 163.027,154.906 163.5,153.5C 165.23,152.974 166.564,151.974 167.5,150.5C 169.027,150.573 170.027,149.906 170.5,148.5C 171.492,148.672 172.158,148.338 172.5,147.5C 174.819,147.008 176.819,146.008 178.5,144.5C 179.791,144.737 180.791,144.404 181.5,143.5C 184.85,143.386 188.183,143.053 191.5,142.5C 195.843,143.169 200.177,143.836 204.5,144.5 Z M 197.5,161.5 C 198.791,161.263 199.791,161.596 200.5,162.5C 199.761,162.369 199.094,162.536 198.5,163C 200.746,164.039 202.913,165.206 205,166.5C 205.399,166.272 205.565,165.938 205.5,165.5C 207.027,165.427 208.027,166.094 208.5,167.5C 207.668,168.329 208.001,169.162 209.5,170C 211.667,171.5 213.833,173 216,174.5C 216.399,174.272 216.565,173.938 216.5,173.5C 218.027,173.427 219.027,174.094 219.5,175.5C 219.062,175.435 218.728,175.601 218.5,176C 219.846,177.669 221.513,178.836 223.5,179.5C 223.5,180.167 223.833,180.5 224.5,180.5C 227.688,182.69 230.855,185.024 234,187.5C 234.399,187.272 234.565,186.938 234.5,186.5C 236.027,186.427 237.027,187.094 237.5,188.5C 236.668,189.329 237.001,190.162 238.5,191C 240.667,192.5 242.833,194 245,195.5C 245.399,195.272 245.565,194.938 245.5,194.5C 247.027,194.427 248.027,195.094 248.5,196.5C 247.668,197.329 248.001,198.162 249.5,199C 251.667,200.5 253.833,202 256,203.5C 256.399,203.272 256.565,202.938 256.5,202.5C 258.027,202.427 259.027,203.094 259.5,204.5C 258.668,205.329 259.001,206.162 260.5,207C 262.667,208.5 264.833,210 267,211.5C 267.399,211.272 267.565,210.938 267.5,210.5C 269.027,210.427 270.027,211.094 270.5,212.5C 269.668,213.329 270.001,214.162 271.5,215C 273.667,216.5 275.833,218 278,219.5C 278.399,219.272 278.565,218.938 278.5,218.5C 280.027,218.427 281.027,219.094 281.5,220.5C 281.062,220.435 280.728,220.601 280.5,221C 282.351,222.752 284.351,224.252 286.5,225.5C 286.5,226.167 286.833,226.5 287.5,226.5C 287.5,227.167 287.833,227.5 288.5,227.5C 288.987,228.473 289.487,229.473 290,230.5C 290.69,231.738 291.19,231.738 291.5,230.5C 292.338,230.842 292.672,231.508 292.5,232.5C 293.404,233.209 293.737,234.209 293.5,235.5C 294.833,273.833 294.833,312.167 293.5,350.5C 293.737,351.791 293.404,352.791 292.5,353.5C 292.631,352.761 292.464,352.094 292,351.5C 289.833,357.667 285.667,361.833 279.5,364C 280.094,364.464 280.761,364.631 281.5,364.5C 280.791,365.404 279.791,365.737 278.5,365.5C 264.5,366.833 250.5,366.833 236.5,365.5C 234.248,365.084 232.748,363.751 232,361.5C 231.5,342.836 231.333,324.17 231.5,305.5C 230.596,304.791 230.263,303.791 230.5,302.5C 231.043,302.44 231.376,302.107 231.5,301.5C 230.164,298.846 228.497,296.513 226.5,294.5C 226.5,293.833 226.167,293.5 225.5,293.5C 225.5,292.833 225.167,292.5 224.5,292.5C 223.312,291.636 222.145,290.636 221,289.5C 220.601,289.728 220.435,290.062 220.5,290.5C 219.508,290.672 218.842,290.338 218.5,289.5C 219.738,289.19 219.738,288.69 218.5,288C 217.563,287.308 216.897,287.475 216.5,288.5C 200.862,287.563 185.195,287.229 169.5,287.5C 168.749,286.427 167.749,286.26 166.5,287C 165.167,287.667 163.833,288.333 162.5,289C 161.262,289.69 161.262,290.19 162.5,290.5C 162.158,291.338 161.492,291.672 160.5,291.5C 156.833,293.161 153.833,296.161 151.5,300.5C 151.624,301.107 151.957,301.44 152.5,301.5C 152.279,304.067 151.612,306.401 150.5,308.5C 150.83,327.008 150.497,345.341 149.5,363.5C 149.307,359.551 148.807,359.551 148,363.5C 146.933,364.191 145.766,364.691 144.5,365C 145.448,365.483 146.448,365.649 147.5,365.5C 133.167,366.833 118.833,366.833 104.5,365.5C 103.209,365.737 102.209,365.404 101.5,364.5C 102.239,364.631 102.906,364.464 103.5,364C 97.3333,361.833 93.1667,357.667 91,351.5C 90.5357,352.094 90.369,352.761 90.5,353.5C 89.596,352.791 89.2627,351.791 89.5,350.5C 88.1667,312.167 88.1667,273.833 89.5,235.5C 89.2627,234.209 89.596,233.209 90.5,232.5C 90.369,233.239 90.5357,233.906 91,234.5C 92.3957,230.208 94.8957,226.708 98.5,224C 98.2716,223.601 97.9382,223.435 97.5,223.5C 97.9731,222.094 98.9731,221.427 100.5,221.5C 100.435,221.938 100.601,222.272 101,222.5C 103.833,220.333 106.667,218.167 109.5,216C 109.272,215.601 108.938,215.435 108.5,215.5C 108.973,214.094 109.973,213.427 111.5,213.5C 111.435,213.938 111.601,214.272 112,214.5C 114.833,212.333 117.667,210.167 120.5,208C 120.272,207.601 119.938,207.435 119.5,207.5C 119.973,206.094 120.973,205.427 122.5,205.5C 122.435,205.938 122.601,206.272 123,206.5C 125.833,204.333 128.667,202.167 131.5,200C 131.272,199.601 130.938,199.435 130.5,199.5C 130.973,198.094 131.973,197.427 133.5,197.5C 133.435,197.938 133.601,198.272 134,198.5C 137.145,196.024 140.312,193.69 143.5,191.5C 144.167,191.5 144.5,191.167 144.5,190.5C 147.871,188.154 151.204,185.821 154.5,183.5C 155.167,183.5 155.5,183.167 155.5,182.5C 157.487,181.836 159.154,180.669 160.5,179C 160.272,178.601 159.938,178.435 159.5,178.5C 159.973,177.094 160.973,176.427 162.5,176.5C 162.435,176.938 162.601,177.272 163,177.5C 163.995,176.934 164.828,176.267 165.5,175.5C 166.167,175.5 166.5,175.167 166.5,174.5C 168.487,173.836 170.154,172.669 171.5,171C 171.272,170.601 170.938,170.435 170.5,170.5C 170.973,169.094 171.973,168.427 173.5,168.5C 173.435,168.938 173.601,169.272 174,169.5C 174.995,168.934 175.828,168.267 176.5,167.5C 177.167,167.5 177.5,167.167 177.5,166.5C 179.807,165.347 182.14,164.18 184.5,163C 183.906,162.536 183.239,162.369 182.5,162.5C 183.209,161.596 184.209,161.263 185.5,161.5C 189.5,160.167 193.5,160.167 197.5,161.5 Z M 177.5,165.5 C 177.5,165.833 177.5,166.167 177.5,166.5C 176.833,166.5 176.5,166.833 176.5,167.5C 175.833,167.5 175.167,167.5 174.5,167.5C 174.973,166.094 175.973,165.427 177.5,165.5 Z M 166.5,173.5 C 166.5,173.833 166.5,174.167 166.5,174.5C 165.833,174.5 165.5,174.833 165.5,175.5C 164.833,175.5 164.167,175.5 163.5,175.5C 163.973,174.094 164.973,173.427 166.5,173.5 Z M 223.5,179.5 C 223.5,179.167 223.5,178.833 223.5,178.5C 225.027,178.427 226.027,179.094 226.5,180.5C 225.833,180.5 225.167,180.5 224.5,180.5C 223.833,180.5 223.5,180.167 223.5,179.5 Z M 155.5,181.5 C 155.5,181.833 155.5,182.167 155.5,182.5C 154.833,182.5 154.5,182.833 154.5,183.5C 153.833,183.5 153.167,183.5 152.5,183.5C 152.973,182.094 153.973,181.427 155.5,181.5 Z M 144.5,189.5 C 144.5,189.833 144.5,190.167 144.5,190.5C 143.833,190.5 143.5,190.833 143.5,191.5C 142.833,191.5 142.167,191.5 141.5,191.5C 141.973,190.094 142.973,189.427 144.5,189.5 Z M 286.5,225.5 C 286.5,225.167 286.5,224.833 286.5,224.5C 288.5,224.5 289.5,225.5 289.5,227.5C 289.167,227.5 288.833,227.5 288.5,227.5C 287.833,227.5 287.5,227.167 287.5,226.5C 286.833,226.5 286.5,226.167 286.5,225.5 Z M 222.5,292.5 C 223.167,292.5 223.833,292.5 224.5,292.5C 225.167,292.5 225.5,292.833 225.5,293.5C 226.167,293.5 226.5,293.833 226.5,294.5C 226.5,295.167 226.5,295.833 226.5,296.5C 224.833,295.5 223.5,294.167 222.5,292.5 Z M 163.5,374.5 C 163.5,375.167 163.5,375.833 163.5,376.5C 162.833,376.5 162.5,376.833 162.5,377.5C 162.167,377.5 161.833,377.5 161.5,377.5C 161.427,375.973 162.094,374.973 163.5,374.5 Z M 161.5,377.5 C 161.5,377.833 161.5,378.167 161.5,378.5C 160.833,378.5 160.5,378.833 160.5,379.5C 159.833,379.5 159.167,379.5 158.5,379.5C 158.973,378.094 159.973,377.427 161.5,377.5 Z"/></g>
<g><path style="opacity:0.008" fill="#1b1834" d="M 496.5,149.5 C 496.351,148.448 496.517,147.448 497,146.5C 497.74,147.749 497.573,148.749 496.5,149.5 Z"/></g>
<g><path style="opacity:1" fill="#474ddb" d="M 341.5,222.5 C 372.167,222.5 402.833,222.5 433.5,222.5C 434.965,223.737 436.632,224.737 438.5,225.5C 438.328,226.492 438.662,227.158 439.5,227.5C 439.328,228.492 439.662,229.158 440.5,229.5C 440.5,230.833 440.5,232.167 440.5,233.5C 439.442,234.6 438.608,235.934 438,237.5C 436.348,238.399 434.848,239.399 433.5,240.5C 402.833,240.5 372.167,240.5 341.5,240.5C 341.158,239.662 340.492,239.328 339.5,239.5C 339.027,238.094 338.027,237.427 336.5,237.5C 336.34,235.847 335.674,234.514 334.5,233.5C 334.5,232.167 334.5,230.833 334.5,229.5C 335.558,228.4 336.392,227.066 337,225.5C 338.652,224.601 340.152,223.601 341.5,222.5 Z"/></g>
<g><path style="opacity:1" fill="#474ddb" d="M 341.5,270.5 C 372.167,270.5 402.833,270.5 433.5,270.5C 434.965,271.737 436.632,272.737 438.5,273.5C 438.328,274.492 438.662,275.158 439.5,275.5C 439.328,276.492 439.662,277.158 440.5,277.5C 440.5,278.833 440.5,280.167 440.5,281.5C 439.442,282.6 438.608,283.934 438,285.5C 436.348,286.399 434.848,287.399 433.5,288.5C 402.833,288.5 372.167,288.5 341.5,288.5C 341.158,287.662 340.492,287.328 339.5,287.5C 339.027,286.094 338.027,285.427 336.5,285.5C 336.34,283.847 335.674,282.514 334.5,281.5C 334.5,280.167 334.5,278.833 334.5,277.5C 335.558,276.4 336.392,275.066 337,273.5C 338.652,272.601 340.152,271.601 341.5,270.5 Z"/></g>
<g><path style="opacity:0.012" fill="#1b1834" d="M 170.5,306.5 C 172.933,306.786 172.933,307.452 170.5,308.5C 170.5,307.833 170.5,307.167 170.5,306.5 Z"/></g>
<g><path style="opacity:1" fill="#474ddb" d="M 341.5,318.5 C 361.5,318.5 381.5,318.5 401.5,318.5C 402.965,319.737 404.632,320.737 406.5,321.5C 406.328,322.492 406.662,323.158 407.5,323.5C 407.328,324.492 407.662,325.158 408.5,325.5C 408.5,326.833 408.5,328.167 408.5,329.5C 407.442,330.6 406.608,331.934 406,333.5C 404.348,334.399 402.848,335.399 401.5,336.5C 381.5,336.5 361.5,336.5 341.5,336.5C 341.158,335.662 340.492,335.328 339.5,335.5C 339.027,334.094 338.027,333.427 336.5,333.5C 336.34,331.847 335.674,330.514 334.5,329.5C 334.5,328.167 334.5,326.833 334.5,325.5C 335.558,324.4 336.392,323.066 337,321.5C 338.652,320.601 340.152,319.601 341.5,318.5 Z"/></g>
<g><path style="opacity:1" fill="#474ddb" d="M 421.5,318.5 C 425.5,318.5 429.5,318.5 433.5,318.5C 434.965,319.737 436.632,320.737 438.5,321.5C 438.328,322.492 438.662,323.158 439.5,323.5C 439.328,324.492 439.662,325.158 440.5,325.5C 440.5,326.833 440.5,328.167 440.5,329.5C 439.442,330.6 438.608,331.934 438,333.5C 436.348,334.399 434.848,335.399 433.5,336.5C 429.5,336.5 425.5,336.5 421.5,336.5C 421.158,335.662 420.492,335.328 419.5,335.5C 419.027,334.094 418.027,333.427 416.5,333.5C 416.34,331.847 415.674,330.514 414.5,329.5C 414.5,328.167 414.5,326.833 414.5,325.5C 415.558,324.4 416.392,323.066 417,321.5C 418.652,320.601 420.152,319.601 421.5,318.5 Z"/></g>
<g><path style="opacity:0.008" fill="#211d45" d="M 14.5,489.5 C 14.5,490.167 14.5,490.833 14.5,491.5C 13.1667,490.833 13.1667,490.167 14.5,489.5 Z"/></g>
<g><path style="opacity:0.008" fill="#211d45" d="M 496.5,489.5 C 497.833,490.167 497.833,490.833 496.5,491.5C 496.5,490.833 496.5,490.167 496.5,489.5 Z"/></g>
<g><path style="opacity:0.004" fill="#211d45" d="M 14.5,491.5 C 14.8333,491.5 15.1667,491.5 15.5,491.5C 15.5,492.167 15.5,492.833 15.5,493.5C 14.6618,493.158 14.3284,492.492 14.5,491.5 Z"/></g>
<g><path style="opacity:0.004" fill="#211d45" d="M 495.5,491.5 C 495.833,491.5 496.167,491.5 496.5,491.5C 496.672,492.492 496.338,493.158 495.5,493.5C 495.5,492.833 495.5,492.167 495.5,491.5 Z"/></g>
<g><path style="opacity:1" fill="#474ddb" d="M 15.5,493.5 C 15.8333,493.5 16.1667,493.5 16.5,493.5C 16.5,493.833 16.5,494.167 16.5,494.5C 16.1667,494.167 15.8333,493.833 15.5,493.5 Z"/></g>
<g><path style="opacity:1" fill="#474ddb" d="M 494.5,493.5 C 494.833,493.5 495.167,493.5 495.5,493.5C 495.315,494.17 494.981,494.17 494.5,493.5 Z"/></g>
<g><path style="opacity:0.004" fill="#000000" d="M 16.5,494.5 C 17.8333,495.167 17.8333,495.167 16.5,494.5 Z"/></g>
<g><path style="opacity:1" fill="#474ddb" d="M 493.5,494.5 C 493.833,494.5 494.167,494.5 494.5,494.5C 494.315,495.17 493.981,495.17 493.5,494.5 Z"/></g>
<g><path style="opacity:0.004" fill="#211d45" d="M 491.5,496.5 C 491.5,496.167 491.5,495.833 491.5,495.5C 492.167,495.5 492.833,495.5 493.5,495.5C 493.158,496.338 492.492,496.672 491.5,496.5 Z"/></g>
<g><path style="opacity:1" fill="#35358c" d="M 21.5,496.5 C 21.1034,497.525 20.4368,497.692 19.5,497C 20.0944,496.536 20.7611,496.369 21.5,496.5 Z"/></g>
<g><path style="opacity:0.008" fill="#211d45" d="M 489.5,496.5 C 490.167,496.5 490.833,496.5 491.5,496.5C 490.833,497.833 490.167,497.833 489.5,496.5 Z"/></g>
</svg>
