<?xml version="1.0" standalone="no"?>
<!DOCTYPE svg PUBLIC "-//W3C//DTD SVG 20010904//EN"
 "http://www.w3.org/TR/2001/REC-SVG-20010904/DTD/svg10.dtd">
<svg version="1.0" xmlns="http://www.w3.org/2000/svg"
 width="512.000000pt" height="512.000000pt" viewBox="0 0 512.000000 512.000000"
 preserveAspectRatio="xMidYMid meet">

<g transform="translate(0.000000,512.000000) scale(0.100000,-0.100000)"
fill="#000000" stroke="none">
<path d="M1230 4553 c-76 -39 -74 -156 4 -188 30 -13 218 -15 1350 -15 l1315
0 58 -21 c68 -26 138 -91 173 -164 l25 -50 3 -1713 c2 -1545 1 -1715 -14
-1743 -18 -36 -75 -63 -113 -54 -16 4 -232 212 -591 569 -544 543 -568 565
-640 599 -165 77 -315 77 -480 0 -72 -34 -96 -56 -640 -599 -359 -357 -575
-565 -591 -569 -15 -4 -41 0 -62 8 -72 31 -67 -86 -67 1533 l0 1456 -34 34
c-49 49 -114 45 -158 -10 -16 -20 -18 -114 -18 -1502 0 -1664 -6 -1531 77
-1624 64 -71 129 -102 223 -108 60 -3 87 0 135 18 57 22 87 50 635 595 539
536 578 574 628 590 29 9 80 17 112 17 32 0 83 -8 112 -17 50 -16 89 -54 628
-590 548 -545 578 -573 635 -595 48 -18 75 -21 135 -18 94 6 159 37 223 108
84 93 77 -71 77 1880 0 1900 3 1790 -58 1904 -37 69 -140 176 -201 209 -28 15
-76 38 -108 50 l-58 22 -1340 3 c-1263 2 -1342 1 -1375 -15z"/>
</g>
</svg>
