<?xml version="1.0" standalone="no"?>
<!DOCTYPE svg PUBLIC "-//W3C//DTD SVG 20010904//EN"
 "http://www.w3.org/TR/2001/REC-SVG-20010904/DTD/svg10.dtd">
<svg version="1.0" xmlns="http://www.w3.org/2000/svg"
 width="512.000000pt" height="512.000000pt" viewBox="0 0 512.000000 512.000000"
 preserveAspectRatio="xMidYMid meet">

<g transform="translate(0.000000,512.000000) scale(0.100000,-0.100000)"
fill="#000000" stroke="none">
<path d="M1233 4574 c-29 -15 -63 -65 -63 -94 0 -7 7 -26 15 -44 31 -65 -74
-61 1405 -66 l1345 -5 43 -23 c66 -35 119 -88 149 -150 l28 -57 3 -1712 c1
-1107 -1 -1720 -8 -1737 -5 -14 -24 -35 -42 -46 -71 -45 -50 -63 -652 538
-303 302 -572 563 -598 581 -26 17 -78 44 -115 58 -60 23 -82 27 -183 27 -101
0 -123 -4 -183 -27 -37 -14 -89 -41 -115 -58 -26 -18 -294 -279 -597 -580
-586 -585 -579 -578 -642 -546 -62 33 -58 -86 -63 1523 l-5 1472 -24 26 c-48
51 -142 40 -170 -20 -8 -18 -11 -434 -11 -1498 0 -1678 -8 -1528 89 -1627 73
-74 145 -102 246 -97 127 6 113 -6 735 613 311 310 579 569 595 578 83 41 206
42 287 1 18 -9 287 -269 598 -579 622 -619 608 -607 735 -613 101 -5 173 23
245 97 99 101 90 -87 90 1892 0 1736 0 1737 -21 1805 -51 168 -180 299 -349
357 l-65 22 -1335 2 c-1200 3 -1338 1 -1367 -13z"/>
</g>
</svg>
