<?xml version="1.0" standalone="no"?>
<!DOCTYPE svg PUBLIC "-//W3C//DTD SVG 20010904//EN"
 "http://www.w3.org/TR/2001/REC-SVG-20010904/DTD/svg10.dtd">
<svg version="1.0" xmlns="http://www.w3.org/2000/svg"
 width="512.000000pt" height="512.000000pt" viewBox="0 0 512.000000 512.000000"
 preserveAspectRatio="xMidYMid meet">

<g transform="translate(0.000000,512.000000) scale(0.100000,-0.100000)"
fill="#000000" stroke="none">
<path d="M2400 4956 c-157 -33 -285 -108 -406 -239 -66 -71 -75 -90 -915
-1770 -467 -933 -861 -1732 -876 -1775 -24 -69 -27 -91 -27 -217 0 -159 10
-207 75 -340 89 -185 252 -322 459 -387 l75 -23 1770 0 1770 0 85 29 c151 50
257 122 357 239 60 71 124 194 149 287 25 93 25 281 0 380 -15 57 -166 368
-642 1320 -342 685 -640 1273 -663 1308 -58 89 -105 103 -191 56 -38 -20 -52
-35 -64 -68 -9 -23 -16 -54 -16 -69 0 -15 265 -558 636 -1299 350 -700 643
-1295 650 -1323 56 -207 -46 -424 -245 -523 l-75 -37 -1745 0 c-1685 0 -1748
1 -1797 19 -124 46 -232 157 -273 284 -23 70 -28 190 -10 257 6 22 389 798
852 1725 753 1507 847 1690 894 1740 87 95 193 140 328 140 89 0 151 -16 226
-56 87 -48 138 -114 233 -302 51 -100 97 -179 110 -187 13 -9 43 -16 67 -17
35 -2 54 5 97 32 52 35 72 69 72 126 0 28 -130 291 -185 374 -96 145 -241 250
-414 302 -86 26 -271 33 -361 14z"/>
<path d="M2473 3380 c-18 -10 -40 -34 -50 -52 -17 -31 -18 -76 -18 -668 l0
-635 23 -38 c56 -89 164 -97 236 -17 l36 40 0 647 0 647 -22 32 c-12 18 -34
39 -49 48 -38 22 -117 20 -156 -4z"/>
<path d="M2478 1595 c-14 -8 -37 -32 -50 -52 -21 -35 -23 -49 -23 -163 0 -107
3 -130 20 -158 41 -69 138 -95 204 -56 58 34 71 76 71 224 l0 133 -44 43 c-41
41 -47 44 -97 44 -30 -1 -66 -7 -81 -15z"/>
</g>
</svg>
