<svg width="21" height="20" viewBox="0 0 21 20" fill="none" xmlns="http://www.w3.org/2000/svg">
<path fill-rule="evenodd" clip-rule="evenodd" d="M18.8085 0.21967C19.1014 -0.0732233 19.5763 -0.0732233 19.8692 0.21967C20.1621 0.512563 20.1621 0.987437 19.8692 1.28033L11.5607 9.58887L19.8691 17.8973C20.162 18.1902 20.162 18.6651 19.8691 18.958C19.5762 19.2509 19.1014 19.2509 18.8085 18.958L10.5 10.6495L2.19153 18.958C1.89864 19.2509 1.42376 19.2509 1.13087 18.958C0.837975 18.6651 0.837975 18.1902 1.13087 17.8973L9.43934 9.58887L1.1308 1.28033C0.83791 0.987437 0.83791 0.512563 1.1308 0.21967C1.4237 -0.0732233 1.89857 -0.0732233 2.19146 0.21967L10.5 8.52821L18.8085 0.21967Z" fill="none"/>
</svg>
