<svg width="21" height="22" viewBox="0 0 21 22" fill="none" xmlns="http://www.w3.org/2000/svg">
<path d="M7.81509 9.87C7.71509 9.86 7.59509 9.86 7.48509 9.87C5.10509 9.79 3.21509 7.84 3.21509 5.44C3.21509 2.99 5.19509 1 7.65509 1C10.1051 1 12.0951 2.99 12.0951 5.44C12.0851 7.84 10.1951 9.79 7.81509 9.87Z" stroke="none" stroke-width="1.5" stroke-linecap="round" stroke-linejoin="round"/>
<path d="M15.0651 3C17.0051 3 18.5651 4.57 18.5651 6.5C18.5651 8.39 17.0651 9.93 15.1951 10C15.1151 9.99 15.0251 9.99 14.9351 10" stroke="none" stroke-width="1.5" stroke-linecap="round" stroke-linejoin="round"/>
<path d="M2.815 13.56C0.395 15.18 0.395 17.82 2.815 19.43C5.565 21.27 10.075 21.27 12.825 19.43C15.245 17.81 15.245 15.17 12.825 13.56C10.085 11.73 5.575 11.73 2.815 13.56Z" stroke="none" stroke-width="1.5" stroke-linecap="round" stroke-linejoin="round"/>
<path d="M16.9951 19C17.7151 18.85 18.3951 18.56 18.9551 18.13C20.5151 16.96 20.5151 15.03 18.9551 13.86C18.4051 13.44 17.7351 13.16 17.0251 13" stroke="none" stroke-width="1.5" stroke-linecap="round" stroke-linejoin="round"/>
</svg>
