<svg width="22" height="21" viewBox="0 0 22 21" fill="none" xmlns="http://www.w3.org/2000/svg">
<path fill-rule="evenodd" clip-rule="evenodd" d="M8.75 0C7.23122 0 6 1.23122 6 2.75C6 3.20011 6.10814 3.62497 6.29985 4H3.25C1.45507 4 0 5.45507 0 7.25C0 8.16095 0.375299 8.98425 0.977773 9.57361C0.963266 9.9315 0.971812 10.2771 0.982233 10.6986C0.990523 11.0339 1 11.4172 1 11.8929V11.9196C0.999997 13.1173 0.999995 14.0527 1.04916 14.8077C1.09909 15.5743 1.20201 16.2076 1.43314 16.7922C2.01097 18.2536 3.12384 19.4256 4.53803 20.0393C5.1074 20.2864 5.72308 20.3955 6.46075 20.4483C7.18481 20.5 8.08063 20.5 9.22084 20.5H12.2791C13.4193 20.5 14.3152 20.5 15.0393 20.4483C15.7769 20.3955 16.3926 20.2864 16.962 20.0393C18.3762 19.4256 19.489 18.2536 20.0669 16.7922C20.298 16.2076 20.4009 15.5743 20.4508 14.8077C20.5 14.0528 20.5 13.1174 20.5 11.9198V11.8639C20.5 10.7758 20.5 10.225 20.4626 9.63052C21.0998 9.03784 21.5 8.19068 21.5 7.25C21.5 5.45507 20.0449 4 18.25 4H15.2001C15.3919 3.62497 15.5 3.20011 15.5 2.75C15.5 1.23122 14.2688 0 12.75 0C11.962 0 11.2514 0.331446 10.75 0.862533C10.2486 0.331446 9.53802 0 8.75 0ZM8.75 1.5C9.44036 1.5 10 2.05964 10 2.75V4H8.75C8.05964 4 7.5 3.44036 7.5 2.75C7.5 2.05964 8.05964 1.5 8.75 1.5ZM14 2.75C14 3.44036 13.4404 4 12.75 4H11.5V2.75C11.5 2.05964 12.0596 1.5 12.75 1.5C13.4404 1.5 14 2.05964 14 2.75ZM1.5 7.25C1.5 6.2835 2.2835 5.5 3.25 5.5H10V9H3.25C2.86829 9 2.51714 8.87866 2.23011 8.67231C1.78646 8.35339 1.5 7.83516 1.5 7.25ZM20 7.25C20 6.2835 19.2165 5.5 18.25 5.5H11.5V9H18.25C18.6249 9 18.9702 8.88297 19.2543 8.68341C19.7068 8.36554 20 7.84197 20 7.25ZM2.47603 10.4071C2.72426 10.4678 2.98353 10.5 3.25 10.5H10L10 19H9.25C8.0744 19 7.23204 18.9996 6.56769 18.9521C5.9108 18.9051 5.48463 18.8149 5.13514 18.6633C4.09904 18.2137 3.26518 17.3462 2.82806 16.2407C2.67859 15.8626 2.59121 15.4045 2.54599 14.7102C2.50037 14.0097 2.5 13.123 2.5 11.8929C2.5 11.2943 2.48873 10.8781 2.47973 10.5457L2.47603 10.4071ZM11.5 10.5L11.5 19H12.25C13.4256 19 14.268 18.9996 14.9323 18.9521C15.5892 18.9051 16.0154 18.8149 16.3649 18.6633C17.401 18.2137 18.2348 17.3462 18.6719 16.2407C18.8214 15.8626 18.9088 15.4045 18.954 14.7102C18.9996 14.0097 19 13.123 19 11.8929C19 11.2323 18.9999 10.7833 18.9927 10.4146C18.754 10.4704 18.5053 10.5 18.25 10.5H11.5Z" stroke="none"/>
</svg>
