<svg width="22" height="22" viewBox="0 0 22 22" fill="none" xmlns="http://www.w3.org/2000/svg">
<path d="M12 21H4C2 21 1 20 1 18V10C1 8 2 7 4 7H9V18C9 20 10 21 12 21Z" stroke="none" stroke-width="1.5" stroke-miterlimit="10" stroke-linecap="round" stroke-linejoin="round"/>
<path d="M9.10999 3C9.02999 3.3 9 3.63 9 4V7H4V5C4 3.9 4.9 3 6 3H9.10999Z" stroke="none" stroke-width="1.5" stroke-miterlimit="10" stroke-linecap="round" stroke-linejoin="round"/>
<path d="M13 7V12" stroke="none" stroke-width="1.5" stroke-miterlimit="10" stroke-linecap="round" stroke-linejoin="round"/>
<path d="M17 7V12" stroke="none" stroke-width="1.5" stroke-miterlimit="10" stroke-linecap="round" stroke-linejoin="round"/>
<path d="M16 16H14C13.45 16 13 16.45 13 17V21H17V17C17 16.45 16.55 16 16 16Z" stroke="none" stroke-width="1.5" stroke-miterlimit="10" stroke-linecap="round" stroke-linejoin="round"/>
<path d="M5 12V16" stroke="none" stroke-width="1.5" stroke-miterlimit="10" stroke-linecap="round" stroke-linejoin="round"/>
<path d="M9 18V4C9 2 10 1 12 1H18C20 1 21 2 21 4V18C21 20 20 21 18 21H12C10 21 9 20 9 18Z" stroke="none" stroke-width="1.5" stroke-miterlimit="10" stroke-linecap="round" stroke-linejoin="round"/>
</svg>
