<svg width="24" height="24" viewBox="0 0 24 24" fill="none" xmlns="http://www.w3.org/2000/svg">
<path fill-rule="evenodd" clip-rule="evenodd" d="M14.1726 1.97853C13.6323 1.86416 13.287 1.33344 13.4014 0.793126C13.5157 0.252812 14.0465 -0.0924862 14.5868 0.0218801C20.3363 1.23886 24.4446 6.96214 23.4485 13.3833L23.4481 13.3857C22.683 18.2407 18.9187 22.1768 14.1838 22.9685C7.88268 24.0306 2.3887 19.6697 1.24306 13.749C1.13815 13.2067 1.49265 12.6821 2.03488 12.5772C2.57711 12.4723 3.10172 12.8268 3.20664 13.369C4.16603 18.3272 8.72187 21.861 13.8513 20.9964L13.8528 20.9961C17.6954 20.3541 20.8337 17.1247 21.4723 13.0755C22.3089 7.6786 18.8574 2.97013 14.1726 1.97853ZM6.93612 0.429796C8.81885 -0.121246 10.443 -0.222386 11.594 0.606019C12.7638 1.4479 13.0341 2.94787 13.0341 4.45085V7.69223C13.0341 9.17266 12.7355 10.4364 11.9329 11.3272C11.1091 12.2417 9.93831 12.5639 8.65764 12.5639H4.92104C3.41806 12.5639 1.91809 12.2936 1.07621 11.1238C0.247805 9.9728 0.348946 8.34865 0.899986 6.46593L0.900358 6.46466C1.72786 3.65117 4.12136 1.25767 6.93485 0.430167L6.93612 0.429796ZM11.0341 4.45085C11.0341 3.02757 10.7416 2.45665 10.4258 2.22932C10.0912 1.98854 9.30695 1.81989 7.49852 2.34909C5.33788 2.98485 3.45504 4.86769 2.81928 7.02834C2.29008 8.83676 2.45874 9.62101 2.69951 9.95556C2.92684 10.2714 3.49776 10.5639 4.92104 10.5639H8.65764C9.62793 10.5639 10.1454 10.3233 10.447 9.98855C10.7699 9.63012 11.0341 8.95799 11.0341 7.69223V4.45085Z" fill="#868B90"/>
</svg>
