<svg width="20" height="22" viewBox="0 0 20 22" fill="none" xmlns="http://www.w3.org/2000/svg">
<path fill-rule="evenodd" clip-rule="evenodd" d="M17.5625 5.97236C17.5625 4.65404 17.2328 3.67 16.6282 3.0189C16.033 2.37785 15.0641 1.9447 13.5348 1.9447H5.89058C4.36135 1.9447 3.39246 2.37785 2.79721 3.0189C2.19261 3.67 1.86292 4.65404 1.86292 5.97236V15.5277C1.86292 16.846 2.19261 17.83 2.79721 18.4812C3.39246 19.1222 4.36135 19.5553 5.89058 19.5553H13.5348C15.0641 19.5553 16.033 19.1222 16.6282 18.4812C17.2328 17.83 17.5625 16.846 17.5625 15.5277V5.97236ZM13.5348 0.444702C15.35 0.444702 16.7699 0.967084 17.7274 1.99822C18.6755 3.0193 19.0625 4.42409 19.0625 5.97236V15.5277C19.0625 17.076 18.6755 18.4808 17.7274 19.5018C16.7699 20.533 15.35 21.0553 13.5348 21.0553H5.89058C4.07545 21.0553 2.6555 20.533 1.69802 19.5018C0.749876 18.4808 0.362919 17.076 0.362919 15.5277V5.97236C0.362919 4.42409 0.749876 3.0193 1.69802 1.99822C2.6555 0.967084 4.07545 0.444702 5.89058 0.444702H13.5348ZM6.57324 3.5835C6.57324 3.16928 6.90903 2.8335 7.32324 2.8335C7.73746 2.8335 8.07324 3.16928 8.07324 3.5835V5.49456C8.07324 6.95986 6.87748 8.15563 5.41218 8.15563H3.50111C3.0869 8.15563 2.75111 7.81984 2.75111 7.40563C2.75111 6.99141 3.0869 6.65563 3.50111 6.65563H5.41218C6.04905 6.65563 6.57324 6.13143 6.57324 5.49456V3.5835ZM14.2849 11.7056C14.2849 11.2914 13.9492 10.9556 13.5349 10.9556H9.71282C9.2986 10.9556 8.96282 11.2914 8.96282 11.7056C8.96282 12.1198 9.2986 12.4556 9.71282 12.4556H13.5349C13.9492 12.4556 14.2849 12.1198 14.2849 11.7056ZM13.5349 14.7777C13.9492 14.7777 14.2849 15.1135 14.2849 15.5277C14.2849 15.9419 13.9492 16.2777 13.5349 16.2777H5.89069C5.47647 16.2777 5.14069 15.9419 5.14069 15.5277C5.14069 15.1135 5.47647 14.7777 5.89069 14.7777H13.5349Z" fill="#868B90"/>
</svg>
