<svg width="24" height="26" viewBox="0 0 24 26" fill="none" xmlns="http://www.w3.org/2000/svg">
<path fill-rule="evenodd" clip-rule="evenodd" d="M17.7003 4.42308C17.7003 4.90667 17.2993 5.30769 16.8157 5.30769C16.3321 5.30769 15.9311 4.90667 15.9311 4.42308V3.53846H8.26465V4.42308C8.26465 4.90667 7.86362 5.30769 7.38003 5.30769C6.89644 5.30769 6.49542 4.90667 6.49542 4.42308V3.57989C3.77706 3.84803 2.42359 5.4201 2.36863 8.36252H21.8267C21.7717 5.42025 20.4184 3.84819 17.7003 3.57993V4.42308ZM15.9311 1.76923V0.884615C15.9311 0.401026 16.3321 0 16.8157 0C17.2993 0 17.7003 0.401026 17.7003 0.884615V1.80608C21.4583 2.12828 23.5977 4.55025 23.5977 8.55128V18.5769C23.5977 22.8821 21.1207 25.359 16.8156 25.359H7.37971C3.07458 25.359 0.597656 22.8821 0.597656 18.5769V8.55128C0.597656 4.55011 2.73717 2.1281 6.49542 1.80604V0.884615C6.49542 0.401026 6.89644 0 7.38003 0C7.86362 0 8.26465 0.401026 8.26465 0.884615V1.76923H15.9311ZM21.8284 10.1317V18.5769C21.8284 21.9503 20.1889 23.5897 16.8156 23.5897H7.37971C4.00637 23.5897 2.36689 21.9503 2.36689 18.5769V10.1317H21.8284ZM16.2258 15.6282C16.3791 15.6282 16.5325 15.5928 16.674 15.5339C16.8273 15.4749 16.9453 15.3923 17.0632 15.2861C17.2755 15.062 17.4053 14.7672 17.4053 14.4487C17.4053 14.2954 17.3699 14.142 17.3109 14.0005C17.2519 13.859 17.1694 13.7292 17.0632 13.6113C16.9453 13.5051 16.8273 13.4225 16.674 13.3636C16.2494 13.1866 15.7186 13.281 15.3884 13.6113C15.176 13.8354 15.0463 14.142 15.0463 14.4487C15.0463 14.5195 15.0581 14.6021 15.0699 14.6846C15.0817 14.7554 15.1053 14.8261 15.1407 14.8969C15.1642 14.9677 15.1996 15.0384 15.2468 15.1092C15.2704 15.1485 15.3044 15.1878 15.3385 15.2271L15.3385 15.2271L15.3385 15.2271L15.3385 15.2271L15.3385 15.2271L15.3385 15.2271L15.3385 15.2271L15.3385 15.2271C15.3556 15.2468 15.3726 15.2665 15.3884 15.2861C15.6125 15.4984 15.9191 15.6282 16.2258 15.6282ZM12.5451 15.5339C12.4036 15.5928 12.2503 15.6282 12.0969 15.6282C11.7903 15.6282 11.4836 15.4984 11.2595 15.2861C11.2438 15.2665 11.2267 15.2468 11.2097 15.2272L11.2097 15.2271L11.2097 15.2271L11.2097 15.2271L11.2096 15.2271L11.2096 15.2271L11.2096 15.2271C11.1756 15.1878 11.1415 15.1485 11.1179 15.1092C11.0708 15.0385 11.0354 14.9677 11.0118 14.8969C10.9764 14.8262 10.9528 14.7554 10.941 14.6846C10.9292 14.6021 10.9174 14.5195 10.9174 14.4487C10.9174 14.142 11.0472 13.8354 11.2595 13.6113C11.5897 13.281 12.1205 13.1748 12.5451 13.3636C12.6985 13.4225 12.8164 13.5051 12.9344 13.6113C13.0405 13.7292 13.1231 13.859 13.182 14.0005C13.241 14.142 13.2764 14.2954 13.2764 14.4487C13.2764 14.7672 13.1467 15.062 12.9344 15.2861C12.8164 15.3923 12.6985 15.4749 12.5451 15.5339ZM7.96993 15.6282C8.12326 15.6282 8.2766 15.5928 8.41813 15.5339C8.57147 15.4749 8.68941 15.3923 8.80736 15.2861L8.9489 15.1092C8.99608 15.0385 9.03146 14.9677 9.05505 14.8969C9.09044 14.8262 9.11403 14.7554 9.12582 14.6846C9.13762 14.6021 9.14941 14.5195 9.14941 14.4487C9.14941 14.142 9.01967 13.8354 8.80736 13.6113C8.68941 13.5051 8.57147 13.4225 8.41813 13.3636C7.98172 13.1749 7.46275 13.281 7.13249 13.6113C6.92019 13.8354 6.79044 14.142 6.79044 14.4487C6.79044 14.5195 6.80223 14.602 6.81402 14.6846L6.81403 14.6846C6.82582 14.7554 6.84942 14.8262 6.8848 14.8969C6.90839 14.9677 6.94377 15.0385 6.99095 15.1092C7.01454 15.1485 7.0486 15.1878 7.08267 15.2271L7.08271 15.2272L7.08275 15.2272L7.08279 15.2273L7.08283 15.2273L7.08287 15.2274C7.09985 15.247 7.11683 15.2666 7.13249 15.2861C7.3566 15.4984 7.66326 15.6282 7.96993 15.6282ZM16.674 19.6621C16.5325 19.721 16.3791 19.7564 16.2258 19.7564C15.9191 19.7564 15.6125 19.6267 15.3884 19.4144C15.176 19.1903 15.0463 18.8836 15.0463 18.5769C15.0463 18.2703 15.176 17.9636 15.3884 17.7395C15.8248 17.3031 16.6268 17.3031 17.0632 17.7395C17.1694 17.8457 17.2519 17.9754 17.3109 18.1287C17.3699 18.2703 17.4053 18.4236 17.4053 18.5769C17.4053 18.8836 17.2755 19.1903 17.0632 19.4144C16.9453 19.5205 16.8155 19.6031 16.674 19.6621ZM12.0969 19.7564C12.4036 19.7564 12.7103 19.6267 12.9344 19.4144C13.1467 19.1903 13.2764 18.8836 13.2764 18.5769C13.2764 18.4236 13.241 18.2703 13.182 18.1287C13.1231 17.9754 13.0405 17.8457 12.9344 17.7395C12.4979 17.3031 11.6959 17.3031 11.2595 17.7395C11.1533 17.8457 11.0708 17.9754 11.0118 18.1287C10.9528 18.2703 10.9174 18.4236 10.9174 18.5769C10.9174 18.8836 11.0472 19.1903 11.2595 19.4144C11.4836 19.6267 11.7903 19.7564 12.0969 19.7564ZM8.80736 19.4144C8.58326 19.6267 8.27659 19.7565 7.96993 19.7565C7.66326 19.7565 7.3566 19.6267 7.13249 19.4144C6.92019 19.1903 6.79044 18.8836 6.79044 18.577C6.79044 18.2703 6.92019 17.9636 7.13249 17.7395C7.15215 17.7238 7.17181 17.7068 7.19146 17.6897C7.23078 17.6557 7.2701 17.6216 7.30941 17.598C7.38018 17.5508 7.45095 17.5154 7.52172 17.4918C7.59249 17.4564 7.66326 17.4328 7.74583 17.4211C8.12326 17.3385 8.53608 17.4683 8.80736 17.7395C8.91352 17.8457 8.99608 17.9754 9.05505 18.1288C9.11403 18.2703 9.14941 18.4236 9.14941 18.577C9.14941 18.7303 9.11403 18.8836 9.05505 19.0252C8.99608 19.1785 8.91352 19.3082 8.80736 19.4144Z" fill="#868B90"/>
</svg>
