<svg width="18" height="20" viewBox="0 0 18 20" fill="none" xmlns="http://www.w3.org/2000/svg">
<path d="M3 2.5H3.5V2V0.5H4.5V2V2.5H5H13H13.5V2V0.5H14.5V2V2.5H15H16C16.4163 2.5 16.7603 2.64241 17.0589 2.94105C17.3576 3.2397 17.5 3.58366 17.5 4V18C17.5 18.4163 17.3576 18.7603 17.0589 19.0589C16.7603 19.3576 16.4163 19.5 16 19.5H2C1.58366 19.5 1.2397 19.3576 0.941053 19.0589C0.642407 18.7603 0.5 18.4163 0.5 18V4C0.5 3.58366 0.642407 3.2397 0.941053 2.94105C1.2397 2.64241 1.58366 2.5 2 2.5H3ZM1.5 18V18.5H2H16H16.5V18V8V7.5H16H2H1.5V8V18ZM1.5 6V6.5H2H16H16.5V6V4V3.5H16H2H1.5V4V6ZM9 11.5C8.84258 11.5 8.73432 11.4522 8.64105 11.3589C8.54778 11.2657 8.5 11.1574 8.5 11C8.5 10.8426 8.54778 10.7343 8.64105 10.6411C8.73432 10.5478 8.84258 10.5 9 10.5C9.15742 10.5 9.26568 10.5478 9.35895 10.6411C9.45222 10.7343 9.5 10.8426 9.5 11C9.5 11.1574 9.45222 11.2657 9.35895 11.3589C9.26568 11.4522 9.15742 11.5 9 11.5ZM5 11.5C4.84258 11.5 4.73432 11.4522 4.64105 11.3589C4.54778 11.2657 4.5 11.1574 4.5 11C4.5 10.8426 4.54778 10.7343 4.64105 10.6411C4.73432 10.5478 4.84258 10.5 5 10.5C5.15742 10.5 5.26568 10.5478 5.35895 10.6411C5.45222 10.7343 5.5 10.8426 5.5 11C5.5 11.1574 5.45222 11.2657 5.35895 11.3589C5.26568 11.4522 5.15742 11.5 5 11.5ZM13 11.5C12.8426 11.5 12.7343 11.4522 12.6411 11.3589C12.5478 11.2657 12.5 11.1574 12.5 11C12.5 10.8426 12.5478 10.7343 12.6411 10.6411C12.7343 10.5478 12.8426 10.5 13 10.5C13.1574 10.5 13.2657 10.5478 13.3589 10.6411C13.4522 10.7343 13.5 10.8426 13.5 11C13.5 11.1574 13.4522 11.2657 13.3589 11.3589C13.2657 11.4522 13.1574 11.5 13 11.5ZM9 15.5C8.84258 15.5 8.73432 15.4522 8.64105 15.3589C8.54778 15.2657 8.5 15.1574 8.5 15C8.5 14.8426 8.54778 14.7343 8.64105 14.6411C8.73432 14.5478 8.84258 14.5 9 14.5C9.15742 14.5 9.26568 14.5478 9.35895 14.6411C9.45222 14.7343 9.5 14.8426 9.5 15C9.5 15.1574 9.45222 15.2657 9.35895 15.3589C9.26568 15.4522 9.15742 15.5 9 15.5ZM5 15.5C4.84258 15.5 4.73432 15.4522 4.64105 15.3589C4.54778 15.2657 4.5 15.1574 4.5 15C4.5 14.8426 4.54778 14.7343 4.64105 14.6411C4.73432 14.5478 4.84258 14.5 5 14.5C5.15742 14.5 5.26568 14.5478 5.35895 14.6411C5.45222 14.7343 5.5 14.8426 5.5 15C5.5 15.1574 5.45222 15.2657 5.35895 15.3589C5.26568 15.4522 5.15742 15.5 5 15.5ZM13 15.5C12.8426 15.5 12.7343 15.4522 12.6411 15.3589C12.5478 15.2657 12.5 15.1574 12.5 15C12.5 14.8426 12.5478 14.7343 12.6411 14.6411C12.7343 14.5478 12.8426 14.5 13 14.5C13.1574 14.5 13.2657 14.5478 13.3589 14.6411C13.4522 14.7343 13.5 14.8426 13.5 15C13.5 15.1574 13.4522 15.2657 13.3589 15.3589C13.2657 15.4522 13.1574 15.5 13 15.5Z" stroke="none"/>
</svg>
