<svg width="24" height="24" viewBox="0 0 24 24" fill="none" xmlns="http://www.w3.org/2000/svg">
<path fill-rule="evenodd" clip-rule="evenodd" d="M18.6088 4.38722C18.3069 1.67641 15.8712 -0.271084 13.1604 0.0308632C10.4495 0.332811 8.50206 2.76854 8.80401 5.47934C9.10596 8.19014 11.5417 10.1376 14.2525 9.83569C15.4715 9.69991 16.5362 9.13261 17.3114 8.30284C17.2012 8.68032 17.3208 9.10373 17.647 9.36453L19.7775 11.068C20.2089 11.4129 20.8382 11.3428 21.183 10.9115C21.5279 10.4801 21.4578 9.85084 21.0265 9.50595L18.8959 7.80246C18.5698 7.54167 18.1305 7.51815 17.7865 7.70867C18.4255 6.76987 18.7446 5.60636 18.6088 4.38722ZM13.3818 2.01857C14.9948 1.8389 16.4415 2.9956 16.6211 4.60862C16.8008 6.22164 15.6441 7.66832 14.0311 7.84799C12.418 8.02766 10.9714 6.87096 10.7917 5.25794C10.612 3.64491 11.7687 2.19824 13.3818 2.01857ZM7.79335 1.25654C7.70541 0.711302 7.19212 0.34059 6.64688 0.428532C6.13983 0.510313 5.59363 0.613412 5.09537 0.739414C4.6182 0.860079 4.10641 1.02052 3.71505 1.24269C1.33211 2.58653 0.471861 5.1282 0.471861 8.5563V14.894C0.471861 17.6334 1.01361 19.8111 2.48122 21.2787C3.94884 22.7463 6.12654 23.2881 8.86589 23.2881H15.2036C17.943 23.2881 20.1207 22.7463 21.5883 21.2787C23.0559 19.8111 23.5977 17.6334 23.5977 14.894V11.7252C23.5977 11.1729 23.1499 10.7252 22.5977 10.7252C22.0454 10.7252 21.5977 11.1729 21.5977 11.7252V14.894C21.5977 17.4361 21.0831 18.9555 20.1741 19.8645C19.265 20.7735 17.7457 21.2881 15.2036 21.2881H8.86589C6.32379 21.2881 4.80447 20.7735 3.89544 19.8645C2.9864 18.9555 2.47186 17.4361 2.47186 14.894V8.5563C2.47186 5.39396 3.25908 3.79535 4.69863 2.98412L4.70198 2.98222C4.84912 2.89855 5.14458 2.78993 5.58569 2.67838C6.00638 2.57199 6.49004 2.47968 6.96534 2.40301C7.51058 2.31507 7.88129 1.80178 7.79335 1.25654ZM11.9785 12.7814C11.9785 12.2291 11.5308 11.7814 10.9785 11.7814H5.69707C5.14478 11.7814 4.69707 12.2291 4.69707 12.7814C4.69707 13.3337 5.14478 13.7814 5.69707 13.7814H10.9785C11.5308 13.7814 11.9785 13.3337 11.9785 12.7814ZM13.0908 16.0067C13.6431 16.0067 14.0908 16.4544 14.0908 17.0067C14.0908 17.559 13.6431 18.0067 13.0908 18.0067H5.69679C5.14451 18.0067 4.69679 17.559 4.69679 17.0067C4.69679 16.4544 5.14451 16.0067 5.69679 16.0067H13.0908Z" fill="#868B90"/>
</svg>
