<svg width="17" height="17" viewBox="0 0 17 17" fill="none" xmlns="http://www.w3.org/2000/svg">
<path d="M12.2029 3.61775L9.82951 1.77248C9.52327 1.46493 8.83421 1.31116 8.37484 1.31116H5.46548C4.54673 1.31116 3.55143 2.00314 3.32174 2.92577L1.48425 8.53848C1.10144 9.61489 1.7905 10.5375 2.93893 10.5375H6.00141C6.46078 10.5375 6.8436 10.922 6.76703 11.4602L6.38422 13.9205C6.2311 14.6125 6.69047 15.3814 7.37953 15.612C7.99203 15.8427 8.75765 15.5351 9.06389 15.0738L12.2029 10.3838" stroke="#none" stroke-width="1.5" stroke-miterlimit="10"/>
<path d="M16.1076 3.61776V11.1526C16.1076 12.229 15.6482 12.6135 14.5763 12.6135H13.8107C12.7388 12.6135 12.2795 12.229 12.2795 11.1526V3.61776C12.2795 2.54135 12.7388 2.15692 13.8107 2.15692H14.5763C15.6482 2.15692 16.1076 2.54135 16.1076 3.61776Z" stroke="#none" stroke-width="1.5" stroke-linecap="round" stroke-linejoin="round"/>
</svg>
