<svg width="17" height="17" viewBox="0 0 17 17" fill="none" xmlns="http://www.w3.org/2000/svg">
<path d="M5.33228 13.1078L7.72145 14.9585C8.02973 15.2669 8.72336 15.4211 9.18578 15.4211H12.1144C13.0393 15.4211 14.0412 14.7271 14.2724 13.8018L16.1221 8.17278C16.5074 7.09324 15.8138 6.16792 14.6577 6.16792H11.5749C11.1125 6.16792 10.7272 5.78237 10.8042 5.2426L11.1896 2.77509C11.3437 2.0811 10.8813 1.31 10.1877 1.07867C9.57113 0.847337 8.80043 1.15578 8.49215 1.61844L5.33228 6.32214" stroke="#969696" stroke-width="1.5" stroke-miterlimit="10"/>
<path d="M1.40149 13.1078V5.55103C1.40149 4.47149 1.86391 4.08594 2.94289 4.08594H3.71359C4.79257 4.08594 5.25499 4.47149 5.25499 5.55103V13.1078C5.25499 14.1873 4.79257 14.5729 3.71359 14.5729H2.94289C1.86391 14.5729 1.40149 14.1873 1.40149 13.1078Z" stroke="#969696" stroke-width="1.5" stroke-linecap="round" stroke-linejoin="round"/>
</svg>
