<svg width="23" height="20" viewBox="0 0 23 20" fill="none" xmlns="http://www.w3.org/2000/svg">
<path fill-rule="evenodd" clip-rule="evenodd" d="M16.3518 5.00098C16.3346 3.22077 14.8861 1.78284 13.1019 1.78284H9.23026H5.35861C3.56369 1.78284 2.10861 3.23791 2.10861 5.03284V14.7039C2.10861 16.4988 3.56369 17.9539 5.35861 17.9539H15.6561H16.7402C16.7255 17.9236 16.7113 17.8932 16.6978 17.8628C16.493 17.4024 16.4093 16.9055 16.3753 16.4813C16.3597 16.3501 16.3518 16.2165 16.3518 16.0811V5.20966V5.00098ZM17.8177 4.45966C17.5346 2.1067 15.5312 0.282837 13.1019 0.282837H9.23026H5.35861C2.73526 0.282837 0.608614 2.40949 0.608614 5.03284V14.7039C0.608614 17.3272 2.73526 19.4539 5.35861 19.4539H15.6561H19.351V19.4335C19.4736 19.447 19.5983 19.4539 19.7246 19.4539C21.5294 19.4539 22.9924 17.9908 22.9924 16.186V8.25675C22.9924 6.15967 21.2924 4.45966 19.1953 4.45966H17.8177ZM17.8519 5.95966H19.1953C20.464 5.95966 21.4924 6.9881 21.4924 8.25675V16.186C21.4924 17.1624 20.7009 17.9539 19.7246 17.9539C18.7773 17.9539 17.9942 17.2506 17.8692 16.3376C17.8536 16.1211 17.8519 15.9054 17.8519 15.7052V15.6824V15.6597V15.637V15.6143V15.5916V15.5689V15.5463V15.5236V15.501V15.4785V15.4559V15.4333V15.4108V15.3883V15.3658V15.3433V15.3209V15.2984V15.276V15.2536V15.2312V15.2089V15.1865V15.1642V15.1419V15.1196V15.0973V15.0751V15.0528V15.0306V15.0084V14.9862V14.964V14.9419V14.9197V14.8976V14.8755V14.8534V14.8313V14.8093V14.7872V14.7652V14.7432V14.7212V14.6993V14.6773V14.6554V14.6334V14.6115V14.5896V14.5678V14.5459V14.5241V14.5022V14.4804V14.4586V14.4368V14.4151V14.3933V14.3716V14.3499V14.3282V14.3065V14.2848V14.2631V14.2415V14.2199V14.1983V14.1767V14.1551V14.1335V14.1119V14.0904V14.0689V14.0474V14.0259V14.0044V13.9829V13.9614V13.94V13.9186V13.8972V13.8757V13.8544V13.833V13.8116V13.7903V13.7689V13.7476V13.7263V13.705V13.6837V13.6625V13.6412V13.62V13.5987V13.5775V13.5563V13.5351V13.5139V13.4928V13.4716V13.4505V13.4293V13.4082V13.3871V13.366V13.3449V13.3239V13.3028V13.2817V13.2607V13.2397V13.2187V13.1977V13.1767V13.1557V13.1347V13.1138V13.0928V13.0719V13.051V13.0301V13.0092V12.9883V12.9674V12.9465V12.9257V12.9048V12.884V12.8632V12.8423V12.8215V12.8007V12.7799V12.7592V12.7384V12.7176V12.6969V12.6762V12.6554V12.6347V12.614V12.5933V12.5726V12.5519V12.5313V12.5106V12.4899V12.4693V12.4487V12.428V12.4074V12.3868V12.3662V12.3456V12.325V12.3045V12.2839V12.2633V12.2428V12.2223V12.2017V12.1812V12.1607V12.1402V12.1197V12.0992V12.0787V12.0582V12.0377V12.0173V11.9968V11.9764V11.9559V11.9355V11.9151V11.8946V11.8742V11.8538V11.8334V11.813V11.7927V11.7723V11.7519V11.7315V11.7112V11.6908V11.6705V11.6501V11.6298V11.6095V11.5891V11.5688V11.5485V11.5282V11.5079V11.4876V11.4673V11.4471V11.4268V11.4065V11.3862V11.366V11.3457V11.3255V11.3052V11.285V11.2648V11.2445V11.2243V11.2041V11.1839V11.1636V11.1434V11.1232V11.103V11.0828V11.0627V11.0425V11.0223V11.0021V10.9819V10.9618V10.9416V10.9214V10.9013V10.8811V10.861V10.8408V10.8207V10.8005V10.7804V10.7603V10.7401V10.72V10.6999V10.6797V10.6596V10.6395V10.6194V10.5993V10.5792V10.5591V10.539V10.5189V10.4988V10.4787V10.4586V10.4385V10.4184V10.3983V10.3782V10.3581V10.338V10.3179V10.2979V10.2778V10.2577V10.2376V10.2175V10.1975V10.1774V10.1573V10.1373V10.1172V10.0971V10.077V10.057V10.0369V10.0168V9.99677V9.97671V9.95664V9.93657V9.91651V9.89644V9.87638V9.85631V9.83625V9.81618V9.79612V9.77605V9.75599V9.73592V9.71585V9.69579V9.67572V9.65565V9.63558V9.61551V9.59544V9.57537V9.55529V9.53522V9.51514V9.49507V9.47499V9.45491V9.43483V9.41475V9.39466V9.37458V9.35449V9.3344V9.31431V9.29422V9.27413V9.25403V9.23393V9.21383V9.19373V9.17362V9.15351V9.1334V9.11329V9.09317V9.07305V9.05293V9.03281V9.01268V8.99255V8.97242V8.95228V8.93214V8.912V8.89186V8.87171V8.85155V8.8314V8.81124V8.79107V8.77091V8.75074V8.73056V8.71038V8.6902V8.67001V8.64982V8.62963V8.60943V8.58922V8.56902V8.5488V8.52859V8.50836V8.48814V8.46791V8.44767V8.42743V8.40718V8.38693V8.36667V8.34641V8.32615V8.30587V8.28559V8.26531V8.24502V8.22473V8.20443V8.18412V8.16381V8.14349V8.12317V8.10284V8.08251V8.06216V8.04182V8.02146V8.0011V7.98073V7.96036V7.93998V7.91959V7.8992V7.8788V7.85839V7.83798V7.81756V7.79713V7.77669V7.75625V7.7358V7.71534V7.69488V7.6744V7.65392V7.63344V7.61294V7.59244V7.57193V7.55141V7.53088V7.51035V7.4898V7.46925V7.44869V7.42812V7.40755V7.38696V7.36637V7.34577V7.32516V7.30454V7.28391V7.26327V7.24263V7.22197V7.20131V7.18063V7.15995V7.13926V7.11856V7.09785V7.07713V7.0564V7.03566V7.01491V6.99415V6.97338V6.9526V6.93181V6.91102V6.89021V6.86939V6.84856V6.82772V6.80687V6.78601V6.76513V6.74425V6.72336V6.70246V6.68154V6.66062V6.63968V6.61873V6.59777V6.57681V6.55582V6.53483V6.51383V6.49281V6.47179V6.45075V6.4297V6.40864V6.38756V6.36648V6.34538V6.32427V6.30315V6.28201V6.26087V6.23971V6.21854V6.19736V6.17616V6.15495V6.13373V6.1125V6.09125V6.06999V6.04872V6.02744V6.00614V5.98483V5.9635V5.95966ZM14.6389 5.63803C14.6389 5.22382 14.3031 4.88803 13.8889 4.88803H4.57144C4.15722 4.88803 3.82144 5.22382 3.82144 5.63803C3.82144 6.05225 4.15722 6.38803 4.57144 6.38803H13.8889C14.3031 6.38803 14.6389 6.05225 14.6389 5.63803ZM14.6389 9.81483C14.6389 9.40061 14.3031 9.06483 13.8889 9.06483H10.7831C10.3689 9.06483 10.0331 9.40061 10.0331 9.81483C10.0331 10.229 10.3689 10.5648 10.7831 10.5648H13.8889C14.3031 10.5648 14.6389 10.229 14.6389 9.81483ZM8.42726 9.81483C8.42726 9.40061 8.09147 9.06483 7.67726 9.06483H4.57144C4.15722 9.06483 3.82144 9.40061 3.82144 9.81483C3.82144 10.229 4.15722 10.5648 4.57144 10.5648H7.67726C8.09147 10.5648 8.42726 10.229 8.42726 9.81483ZM14.6389 13.9916C14.6389 13.5774 14.3031 13.2416 13.8889 13.2416H10.7831C10.3689 13.2416 10.0331 13.5774 10.0331 13.9916C10.0331 14.4058 10.3689 14.7416 10.7831 14.7416H13.8889C14.3031 14.7416 14.6389 14.4058 14.6389 13.9916ZM8.42726 13.9916C8.42726 13.5774 8.09147 13.2416 7.67726 13.2416H4.57144C4.15722 13.2416 3.82144 13.5774 3.82144 13.9916C3.82144 14.4058 4.15722 14.7416 4.57144 14.7416H7.67726C8.09147 14.7416 8.42726 14.4058 8.42726 13.9916Z" fill="#868B90"/>
</svg>
