<svg width="25" height="24" viewBox="0 0 25 24" fill="none" xmlns="http://www.w3.org/2000/svg">
<path d="M1.46289 12C1.46289 5.92487 6.38781 1 12.4629 1C18.538 1 23.4629 5.92487 23.4629 12C23.4629 18.0751 18.538 23 12.4629 23C6.38781 23 1.46289 18.0751 1.46289 12Z" stroke="#868B90" stroke-width="2"/>
<path d="M15.215 9.25007L15.4759 8.46741L15.8672 8.59785L15.9977 8.98919L15.215 9.25007ZM9.71309 14.7501L9.45228 15.5327L9.06079 15.4023L8.93033 15.0108L9.71309 14.7501ZM17.965 17.5001L18.7477 17.2392C18.8465 17.5356 18.7693 17.8624 18.5484 18.0834C18.3274 18.3044 18.0006 18.3815 17.7042 18.2827L17.965 17.5001ZM6.96507 6.50007L6.1823 6.76079C6.08352 6.46436 6.16075 6.13757 6.38174 5.91664C6.60273 5.69573 6.92942 5.6186 7.22587 5.71741L6.96507 6.50007ZM7.22587 5.71741L15.4759 8.46741L14.9541 10.0327L6.70414 7.28273L7.22587 5.71741ZM7.74771 6.23935L10.4958 14.4894L8.93033 15.0108L6.1823 6.76079L7.74771 6.23935ZM17.7042 18.2827L9.45228 15.5327L9.9739 13.9674L18.2258 16.7174L17.7042 18.2827ZM17.1823 17.761L14.4323 9.51096L15.9977 8.98919L18.7477 17.2392L17.1823 17.761Z" fill="#868B90"/>
<path d="M12.4636 12L12.47 12.0064" stroke="#868B90" stroke-width="2" stroke-linecap="round" stroke-linejoin="round"/>
</svg>
