<svg width="23" height="25" viewBox="0 0 23 25" fill="none" xmlns="http://www.w3.org/2000/svg">
<path fill-rule="evenodd" clip-rule="evenodd" d="M1.5 6.66242C1.5 5.04523 1.90441 3.81214 2.67089 2.9867C3.42803 2.17132 4.64596 1.63855 6.52387 1.63855H15.7621C17.64 1.63855 18.8579 2.17132 19.615 2.9867C20.3815 3.81214 20.7859 5.04523 20.7859 6.66242V18.2102C20.7859 19.8273 20.3815 21.0604 19.615 21.8859C18.8579 22.7013 17.64 23.234 15.7621 23.234H6.52387C4.64596 23.234 3.42803 22.7013 2.67089 21.8859C1.90441 21.0604 1.5 19.8273 1.5 18.2102V6.66242ZM6.52387 0.13855C4.36006 0.13855 2.69107 0.760552 1.5717 1.96603C0.461674 3.16144 0 4.81529 0 6.66242V18.2102C0 20.0573 0.461674 21.7111 1.5717 22.9066C2.69107 24.112 4.36006 24.734 6.52387 24.734H15.7621C17.9259 24.734 19.5949 24.112 20.7142 22.9066C21.8243 21.7111 22.2859 20.0573 22.2859 18.2102V6.66242C22.2859 4.81529 21.8243 3.16144 20.7142 1.96603C19.5949 0.760552 17.9259 0.13855 15.7621 0.13855H6.52387ZM14.7803 3.77551C14.7803 3.3613 14.4445 3.02551 14.0303 3.02551C13.6161 3.02551 13.2803 3.3613 13.2803 3.77551V6.08506C13.2803 7.76953 14.6554 9.14461 16.3398 9.14461H18.6494C19.0636 9.14461 19.3994 8.80882 19.3994 8.39461C19.3994 7.98039 19.0636 7.64461 18.6494 7.64461H16.3398C15.4838 7.64461 14.7803 6.9411 14.7803 6.08506V3.77551ZM5.77344 13.5911C5.77344 13.1769 6.10922 12.8411 6.52344 12.8411H11.1425C11.5567 12.8411 11.8925 13.1769 11.8925 13.5911C11.8925 14.0053 11.5567 14.3411 11.1425 14.3411H6.52344C6.10922 14.3411 5.77344 14.0053 5.77344 13.5911ZM6.52344 17.4601C6.10922 17.4601 5.77344 17.7959 5.77344 18.2101C5.77344 18.6244 6.10922 18.9601 6.52344 18.9601H15.7616C16.1758 18.9601 16.5116 18.6244 16.5116 18.2101C16.5116 17.7959 16.1758 17.4601 15.7616 17.4601H6.52344Z" fill="#157EFB" fill-opacity="0.86"/>
</svg>
