<svg width="40" height="40" viewBox="0 0 40 40" fill="none" xmlns="http://www.w3.org/2000/svg">
<rect width="40" height="40" rx="20" fill="#FF0000" fill-opacity="0.17"/>
<path fill-rule="evenodd" clip-rule="evenodd" d="M14.1852 25.63C14.4407 25.8854 14.7643 26.0046 15.0878 26.0046C15.4114 26.0046 15.752 25.8854 15.9904 25.63L19.9074 21.713L23.8244 25.63C24.0798 25.8854 24.4034 26.0046 24.727 26.0046C25.0506 26.0046 25.3741 25.8854 25.6296 25.63C26.1235 25.1361 26.1235 24.3186 25.6296 23.8247L21.7126 19.9078L25.6296 15.9908C26.1235 15.4969 26.1235 14.6795 25.6296 14.1856C25.1357 13.6917 24.3183 13.6917 23.8244 14.1856L19.9074 18.1026L15.9904 14.1856C15.4966 13.6917 14.6791 13.6917 14.1852 14.1856C13.6913 14.6795 13.6913 15.4969 14.1852 15.9908L18.1022 19.9078L14.1852 23.8247C13.6913 24.3186 13.6913 25.1361 14.1852 25.63Z" fill="#C30000"/>
</svg>
