<svg width="22" height="22" viewBox="0 0 22 22" fill="none" xmlns="http://www.w3.org/2000/svg">
<path d="M13.1927 8.80746L8.80734 13.1928C8.24401 12.6295 7.89734 11.8581 7.89734 11.0001C7.89734 9.28413 9.28401 7.89746 11 7.89746C11.858 7.89746 12.6293 8.24413 13.1927 8.80746Z" stroke="none" stroke-width="1.5" stroke-linecap="round" stroke-linejoin="round"/>
<path d="M16.044 5.60076C14.5273 4.45676 12.794 3.83276 11 3.83276C7.94065 3.83276 5.08932 5.63543 3.10465 8.75543C2.32465 9.97743 2.32465 12.0314 3.10465 13.2534C3.78932 14.3281 4.58665 15.2554 5.45332 16.0008" stroke="none" stroke-width="1.5" stroke-linecap="round" stroke-linejoin="round"/>
<path d="M7.89734 17.526C8.88534 17.942 9.93401 18.1673 11 18.1673C14.0593 18.1673 16.9107 16.3647 18.8953 13.2447C19.6753 12.0227 19.6753 9.96866 18.8953 8.74666C18.6093 8.29599 18.2973 7.87132 17.9767 7.47266" stroke="none" stroke-width="1.5" stroke-linecap="round" stroke-linejoin="round"/>
<path d="M14.042 11.6067C13.8167 12.8287 12.82 13.8254 11.598 14.0507" stroke="none" stroke-width="1.5" stroke-linecap="round" stroke-linejoin="round"/>
<path d="M8.80725 13.1929L2.33325 19.6669" stroke="none" stroke-width="1.5" stroke-linecap="round" stroke-linejoin="round"/>
<path d="M19.6666 2.3335L13.1926 8.8075" stroke="none" stroke-width="1.5" stroke-linecap="round" stroke-linejoin="round"/>
</svg>
