<svg width="16" height="23" viewBox="0 0 16 23" fill="none" xmlns="http://www.w3.org/2000/svg">
<path d="M8.03018 10.0863C7.92702 10.0761 7.80323 10.0761 7.68975 10.0863C5.2346 10.0044 3.28491 8.00683 3.28491 5.54829C3.28491 3.03854 5.32744 1 7.86512 1C10.3925 1 12.4453 3.03854 12.4453 5.54829C12.435 8.00683 10.4853 10.0044 8.03018 10.0863Z" stroke="none" stroke-width="1.5" stroke-linecap="round" stroke-linejoin="round"/>
<path d="M2.87232 13.8663C0.375895 15.5259 0.375895 18.2303 2.87232 19.8795C5.70916 21.7644 10.3616 21.7644 13.1984 19.8795C15.6948 18.22 15.6948 15.5156 13.1984 13.8663C10.3719 11.9917 5.71947 11.9917 2.87232 13.8663Z" stroke="none" stroke-width="1.5" stroke-linecap="round" stroke-linejoin="round"/>
</svg>
