<svg width="27" height="25" viewBox="0 0 27 25" fill="none" xmlns="http://www.w3.org/2000/svg">
<path d="M6.45822 3.51639L5.44238 2.50055L3.4107 4.53223L4.42654 5.54807L6.45822 3.51639ZM4.42654 5.54807L20.3619 21.4834L22.3936 19.4518L6.45822 3.51639L4.42654 5.54807Z" fill="#131313"/>
<path d="M7.02841 8.94043L7.02841 7.50381L4.15518 7.50381L4.15518 8.94043L7.02841 8.94043ZM4.15518 8.94043L4.15518 20.4682L7.02841 20.4682L7.02841 8.94043L4.15518 8.94043Z" fill="#131313"/>
<path d="M21.5585 6.09775L22.9951 6.09775L22.9951 3.22452L21.5585 3.22452L21.5585 6.09775ZM9.54785 6.09775L21.5585 6.09775L21.5585 3.22452L9.54785 3.22452L9.54785 6.09775Z" fill="#131313"/>
</svg>
