<svg width="24" height="24" viewBox="0 0 24 24" fill="none" xmlns="http://www.w3.org/2000/svg">
<path d="M18.5905 3.46137C18.5906 3.43056 18.2375 2.84132 17.8059 2.15213C17.3743 1.46288 16.9954 0.912573 16.964 0.929022C16.9326 0.945613 16.4856 1.2766 15.9707 1.66468C14.9367 2.44392 13.5698 3.19407 12.5782 3.52655C9.48777 4.56259 6.27865 4.08576 3.6883 2.20556L3.02865 1.72679L2.11721 2.63823L1.20571 3.54973L1.63505 4.1522C4.44802 8.09929 4.12436 12.8302 0.754507 17.0245C0.534438 17.2984 0.364605 17.5325 0.376987 17.5449C0.490986 17.6589 2.83507 19.0926 2.90685 19.0922C2.95876 19.092 3.17107 18.8412 3.37849 18.535C5.67562 15.1448 6.4246 11.2657 5.36123 8.26729L5.10617 7.54803L15.1422 17.5478L21.4885 23.8709L23.3331 22.0263L16.9936 15.6638L7.01761 5.65125L7.94427 5.95466C10.3482 6.74186 13.1971 6.41942 16.0694 5.03494C16.8877 4.64058 18.5899 3.57806 18.5905 3.46137Z" fill="white"/>
</svg>
