<svg width="131" height="137" viewBox="0 0 131 137" fill="none" xmlns="http://www.w3.org/2000/svg">
<path d="M66 12.5002C36.4464 12.5002 12.5 37.61 12.5 68.5002C12.5 99.3904 36.4464 124.5 66 124.5C95.5536 124.5 119.5 99.3904 119.5 68.5002C119.5 37.6103 95.6069 12.5002 66 12.5002Z" stroke="url(#paint0_radial_2090_357)"/>
<path d="M79.2419 122.929C107.791 114.813 124.786 83.9197 117.229 53.9998C109.673 24.0798 80.3942 6.34032 51.8454 14.4559C23.2965 22.5715 6.30123 53.4652 13.858 83.3851C21.4147 113.305 50.6416 131.059 79.2419 122.929Z" stroke="url(#paint1_radial_2090_357)"/>
<path d="M65.7158 29.833C44.1878 29.833 26.7158 47.305 26.7158 68.833C26.7158 90.361 44.1878 107.833 65.7158 107.833C87.2438 107.833 104.716 90.361 104.716 68.833C104.716 47.305 87.2828 29.833 65.7158 29.833ZM77.4158 77.53L66.1058 84.043C64.7018 84.862 63.1418 85.252 61.6208 85.252C60.0608 85.252 58.5398 84.862 57.1358 84.043C54.3278 82.405 52.6508 79.519 52.6508 76.243V63.178C52.6508 59.941 54.3278 57.016 57.1358 55.378C59.9438 53.74 63.2978 53.74 66.1448 55.378L77.4548 61.891C80.2628 63.529 81.9398 66.415 81.9398 69.691C81.9398 72.967 80.2628 75.892 77.4158 77.53Z" fill="white"/>
<defs>
<radialGradient id="paint0_radial_2090_357" cx="0" cy="0" r="1" gradientUnits="userSpaceOnUse" gradientTransform="translate(87.2 103.631) rotate(-135.381) scale(29.0004 29.378)">
<stop offset="0.102646" stop-color="white"/>
<stop offset="1" stop-color="white" stop-opacity="0"/>
</radialGradient>
<radialGradient id="paint1_radial_2090_357" cx="0" cy="0" r="1" gradientUnits="userSpaceOnUse" gradientTransform="translate(36.4685 40.4911) rotate(29.4245) scale(28.617 29.8571)">
<stop offset="0.102646" stop-color="white"/>
<stop offset="1" stop-color="white" stop-opacity="0"/>
</radialGradient>
</defs>
</svg>
