<svg width="53" height="53" viewBox="0 0 53 53" fill="none" xmlns="http://www.w3.org/2000/svg">
<rect width="53" height="53" rx="10" fill="#303030" fill-opacity="0.6"/>
<rect width="53" height="53" rx="10" fill="url(#paint0_radial_2090_164)" fill-opacity="0.2"/>
<path d="M29.5 30C29.5 33.59 26.59 36.5 23 36.5C19.41 36.5 16.5 33.59 16.5 30C16.5 26.41 19.41 23.5 23 23.5C23.17 23.5 23.35 23.51 23.52 23.52C26.69 23.77 29.23 26.31 29.48 29.48C29.49 29.65 29.5 29.83 29.5 30Z" fill="#FFC700"/>
<path d="M36.5001 23C36.5001 26.26 34.1001 28.95 30.9801 29.42V29.36C30.6701 25.48 27.5201 22.33 23.6101 22.02H23.5801C24.0501 18.9 26.7401 16.5 30.0001 16.5C33.5901 16.5 36.5001 19.41 36.5001 23Z" fill="#FFC700"/>
<path d="M20.09 16.5H17.5C16.95 16.5 16.5 16.95 16.5 17.5V20.09C16.5 20.98 17.58 21.43 18.21 20.8L20.8 18.21C21.42 17.58 20.98 16.5 20.09 16.5Z" fill="#FFC700"/>
<path d="M32.9097 36.4998H35.4997C36.0497 36.4998 36.4997 36.0498 36.4997 35.4998V32.9098C36.4997 32.0198 35.4197 31.5698 34.7897 32.1998L32.1997 34.7898C31.5797 35.4198 32.0197 36.4998 32.9097 36.4998Z" fill="#FFC700"/>
<defs>
<radialGradient id="paint0_radial_2090_164" cx="0" cy="0" r="1" gradientUnits="userSpaceOnUse" gradientTransform="translate(26 31) rotate(133.182) scale(44.5702)">
<stop stop-color="#FFC700"/>
<stop offset="1" stop-opacity="0"/>
</radialGradient>
</defs>
</svg>
