<svg width="53" height="53" viewBox="0 0 53 53" fill="none" xmlns="http://www.w3.org/2000/svg">
<rect width="53" height="53" rx="10" fill="#303030" fill-opacity="0.6"/>
<rect width="53" height="53" rx="10" fill="url(#paint0_radial_2090_170)" fill-opacity="0.2"/>
<path d="M21.17 28.5H18.5C17.4 28.5 16.5 29.4 16.5 30.5V35.5C16.5 36.05 16.95 36.5 17.5 36.5H21.17C21.72 36.5 22.17 36.05 22.17 35.5V29.5C22.17 28.95 21.72 28.5 21.17 28.5Z" fill="#FFC700"/>
<path d="M27.8302 24.5H25.1602C24.0602 24.5 23.1602 25.4 23.1602 26.5V35.5C23.1602 36.05 23.6102 36.5 24.1602 36.5H28.8302C29.3802 36.5 29.8302 36.05 29.8302 35.5V26.5C29.8302 25.4 28.9402 24.5 27.8302 24.5Z" fill="#FFC700"/>
<path d="M34.5001 31.5H31.8301C31.2801 31.5 30.8301 31.95 30.8301 32.5V35.5C30.8301 36.05 31.2801 36.5 31.8301 36.5H35.5001C36.0501 36.5 36.5001 36.05 36.5001 35.5V33.5C36.5001 32.4 35.6001 31.5 34.5001 31.5Z" fill="#FFC700"/>
<path d="M29.5104 19.35C29.8204 19.04 29.9404 18.67 29.8404 18.35C29.7404 18.03 29.4304 17.8 28.9904 17.73L28.0304 17.57C27.9904 17.57 27.9004 17.5 27.8804 17.46L27.3504 16.4C26.9504 15.59 26.0404 15.59 25.6404 16.4L25.1104 17.46C25.1004 17.5 25.0104 17.57 24.9704 17.57L24.0104 17.73C23.5704 17.8 23.2704 18.03 23.1604 18.35C23.0604 18.67 23.1804 19.04 23.4904 19.35L24.2304 20.1C24.2704 20.13 24.3004 20.25 24.2904 20.29L24.0804 21.21C23.9204 21.9 24.1804 22.21 24.3504 22.33C24.5204 22.45 24.8904 22.61 25.5004 22.25L26.4004 21.72C26.4404 21.69 26.5704 21.69 26.6104 21.72L27.5004 22.25C27.7804 22.42 28.0104 22.47 28.1904 22.47C28.4004 22.47 28.5504 22.39 28.6404 22.33C28.8104 22.21 29.0704 21.9 28.9104 21.21L28.7004 20.29C28.6904 20.24 28.7204 20.13 28.7604 20.1L29.5104 19.35Z" fill="#FFC700"/>
<defs>
<radialGradient id="paint0_radial_2090_170" cx="0" cy="0" r="1" gradientUnits="userSpaceOnUse" gradientTransform="translate(26 31) rotate(133.182) scale(44.5702)">
<stop stop-color="#FFC700"/>
<stop offset="1" stop-opacity="0"/>
</radialGradient>
</defs>
</svg>
