<svg width="471" height="11" viewBox="0 0 471 11" fill="none" xmlns="http://www.w3.org/2000/svg">
<path d="M102.519 2.23603C147.256 1.91367 192.018 1.70643 236.78 1.61433C281.542 1.52223 325.89 1.55293 370.433 1.69876C395.736 1.78319 421.064 1.89832 446.367 2.05182L449.801 0.478387C392.034 0.793074 334.292 1.18451 276.55 1.65271C218.807 2.1209 161.065 2.66585 103.323 3.29522C70.908 3.64828 38.5177 4.0167 6.10308 4.41581C4.2035 4.43884 1.35413 4.59235 0.282574 5.17567C-0.715923 5.72061 1.13495 6.0046 2.66922 5.98925C62.8469 5.50571 123.073 5.45965 183.275 5.85877C243.477 6.25788 303.631 7.10984 363.711 8.39929C397.465 9.12077 431.195 9.98808 464.876 10.9935C466.702 11.0473 469.722 10.7633 470.696 10.2337C471.768 9.65804 469.771 9.45848 468.31 9.42011C408.376 7.63176 348.295 6.28091 288.166 5.37523C228.037 4.46954 167.811 4.0167 107.609 4.00902C73.7817 4.00902 39.9546 4.1395 6.12743 4.41581L2.69358 5.98925C60.4116 5.27545 118.154 4.64607 175.896 4.08578C233.639 3.53315 291.381 3.04961 349.123 2.6505C381.538 2.42791 413.977 2.22068 446.391 2.04415C448.291 2.03647 451.165 1.85994 452.212 1.28429C453.259 0.708646 451.335 0.478387 449.825 0.470711C405.039 0.209751 360.302 0.0485701 315.54 0.0101936C270.778 -0.0281828 226.43 0.0408948 181.887 0.232777C156.584 0.340231 131.256 0.486062 105.953 0.670269C104.053 0.68562 101.179 0.854476 100.132 1.43012C99.1338 1.97507 100.985 2.25906 102.519 2.2437V2.23603Z" fill="#FFC700"/>
</svg>
